G04 #@! TF.GenerationSoftware,KiCad,Pcbnew,5.1.5-52549c5~84~ubuntu18.04.1*
G04 #@! TF.CreationDate,2020-03-28T21:00:00-04:00*
G04 #@! TF.ProjectId,imac_g3_333mhz_slot_loading_J20_adapter_board,696d6163-5f67-4335-9f33-33336d687a5f,2*
G04 #@! TF.SameCoordinates,Original*
G04 #@! TF.FileFunction,Copper,L2,Bot*
G04 #@! TF.FilePolarity,Positive*
%FSLAX46Y46*%
G04 Gerber Fmt 4.6, Leading zero omitted, Abs format (unit mm)*
G04 Created by KiCad (PCBNEW 5.1.5-52549c5~84~ubuntu18.04.1) date 2020-03-28 21:00:00*
%MOMM*%
%LPD*%
G04 APERTURE LIST*
%ADD10O,1.700000X1.700000*%
%ADD11R,1.700000X1.700000*%
%ADD12R,1.600000X1.600000*%
%ADD13O,1.600000X1.600000*%
%ADD14C,1.500000*%
%ADD15O,2.200000X2.200000*%
%ADD16R,2.200000X2.200000*%
%ADD17C,1.600000*%
%ADD18C,7.000001*%
%ADD19R,2.600000X2.600000*%
%ADD20C,2.600000*%
%ADD21C,7.000000*%
%ADD22C,0.100000*%
%ADD23C,4.000000*%
%ADD24C,0.800000*%
%ADD25C,0.250000*%
%ADD26C,0.500000*%
%ADD27C,0.400000*%
%ADD28C,0.254000*%
G04 APERTURE END LIST*
D10*
X166243000Y-65563800D03*
X166243000Y-68103800D03*
X168783000Y-65563800D03*
X168783000Y-68103800D03*
X171323000Y-65563800D03*
X171323000Y-68103800D03*
X173863000Y-65563800D03*
X173863000Y-68103800D03*
X176403000Y-65563800D03*
X176403000Y-68103800D03*
X178943000Y-65563800D03*
X178943000Y-68103800D03*
X181483000Y-65563800D03*
X181483000Y-68103800D03*
X184023000Y-65563800D03*
X184023000Y-68103800D03*
X186563000Y-65563800D03*
X186563000Y-68103800D03*
X189103000Y-65563800D03*
D11*
X189103000Y-68103800D03*
D12*
X155653000Y-74153800D03*
D13*
X163273000Y-107173800D03*
X155653000Y-76693800D03*
X163273000Y-104633800D03*
X155653000Y-79233800D03*
X163273000Y-102093800D03*
X155653000Y-81773800D03*
X163273000Y-99553800D03*
X155653000Y-84313800D03*
X163273000Y-97013800D03*
X155653000Y-86853800D03*
X163273000Y-94473800D03*
X155653000Y-89393800D03*
X163273000Y-91933800D03*
X155653000Y-91933800D03*
X163273000Y-89393800D03*
X155653000Y-94473800D03*
X163273000Y-86853800D03*
X155653000Y-97013800D03*
X163273000Y-84313800D03*
X155653000Y-99553800D03*
X163273000Y-81773800D03*
X155653000Y-102093800D03*
X163273000Y-79233800D03*
X155653000Y-104633800D03*
X163273000Y-76693800D03*
X155653000Y-107173800D03*
X163273000Y-74153800D03*
D14*
X150653000Y-91903800D03*
X150653000Y-96783800D03*
D15*
X180653000Y-74283800D03*
D16*
X180653000Y-81903800D03*
X185653000Y-81653800D03*
D15*
X185653000Y-74033800D03*
D17*
X167903000Y-96403800D03*
D13*
X167903000Y-88783800D03*
D12*
X167903000Y-74153800D03*
D13*
X175523000Y-81773800D03*
X167903000Y-76693800D03*
X175523000Y-79233800D03*
X167903000Y-79233800D03*
X175523000Y-76693800D03*
X167903000Y-81773800D03*
X175523000Y-74153800D03*
D18*
X209153000Y-70153800D03*
D13*
X199273000Y-78403800D03*
D17*
X191653000Y-78403800D03*
D19*
X141605000Y-80236000D03*
D20*
X141605000Y-85236000D03*
X141605000Y-90236000D03*
X141605000Y-95236000D03*
X141605000Y-100236000D03*
X141605000Y-105236000D03*
D12*
X185403000Y-90903800D03*
D17*
X188903000Y-90903800D03*
D11*
X171153000Y-106654000D03*
D10*
X168613000Y-106654000D03*
X171153000Y-104114000D03*
X168613000Y-104114000D03*
X171153000Y-101574000D03*
X168613000Y-101574000D03*
D21*
X139153000Y-69903800D03*
D11*
X180403000Y-101404000D03*
D10*
X182943000Y-101404000D03*
X180403000Y-103944000D03*
X182943000Y-103944000D03*
X180403000Y-106484000D03*
X182943000Y-106484000D03*
G04 #@! TA.AperFunction,ComponentPad*
D22*
G36*
X199695820Y-87496620D02*
G01*
X198310180Y-86696620D01*
X199110180Y-85310980D01*
X200495820Y-86110980D01*
X199695820Y-87496620D01*
G37*
G04 #@! TD.AperFunction*
D17*
X198258000Y-88386998D03*
X197113000Y-90370196D03*
X195968000Y-92353395D03*
X194823000Y-94336593D03*
X201690230Y-86402201D03*
X200545230Y-88385399D03*
X199400230Y-90368597D03*
X198255230Y-92351795D03*
X197110230Y-94334994D03*
X202832461Y-88383800D03*
X201687461Y-90366998D03*
X200542461Y-92350196D03*
X199397461Y-94333395D03*
X198252461Y-96316593D03*
D23*
X192225256Y-101676017D03*
X204725256Y-80025382D03*
D17*
X150653000Y-86403800D03*
X150653000Y-81403800D03*
X150653000Y-102154000D03*
X150653000Y-107154000D03*
D13*
X193783000Y-68653800D03*
D17*
X201403000Y-68653800D03*
X162653000Y-68903800D03*
D13*
X155033000Y-68903800D03*
D24*
X192653000Y-90903800D03*
X190903000Y-94903800D03*
X192403000Y-93403800D03*
X177403000Y-75153800D03*
X177903000Y-77153800D03*
X196153000Y-76653800D03*
X183403000Y-82903800D03*
X180403000Y-84403800D03*
X184153000Y-85903800D03*
X210403000Y-83403800D03*
X165653000Y-98653800D03*
X166153000Y-99403800D03*
X168903000Y-99903800D03*
X170153000Y-98153800D03*
X165903000Y-92403800D03*
X165403000Y-94903800D03*
X167153000Y-93903800D03*
X165903000Y-93653800D03*
X169368600Y-72481900D03*
X186870400Y-77587400D03*
X182090600Y-90464000D03*
X173403000Y-74153800D03*
X173403000Y-79403800D03*
X180903000Y-70903800D03*
X180846100Y-72460700D03*
X188903000Y-84403800D03*
X190153000Y-79653814D03*
X189653000Y-74903800D03*
X181726950Y-70079850D03*
X186324400Y-70075200D03*
X197403000Y-67153800D03*
X175783490Y-91997990D03*
X183600400Y-79364400D03*
X184403000Y-62403800D03*
X182847999Y-62458801D03*
X157155900Y-83075800D03*
D25*
X199400230Y-89530399D02*
X200545230Y-88385399D01*
X199400230Y-90368597D02*
X199400230Y-89530399D01*
X200545230Y-87547201D02*
X201690230Y-86402201D01*
X200545230Y-88385399D02*
X200545230Y-87547201D01*
X194824599Y-94334994D02*
X194823000Y-94336593D01*
X197110230Y-94334994D02*
X194824599Y-94334994D01*
X192335793Y-94336593D02*
X194823000Y-94336593D01*
X188903000Y-90903800D02*
X192335793Y-94336593D01*
X186563000Y-65563800D02*
X186563000Y-68103800D01*
X182931101Y-71735699D02*
X177941101Y-71735699D01*
X186563000Y-68103800D02*
X182931101Y-71735699D01*
X176322999Y-73353801D02*
X175523000Y-74153800D01*
X177941101Y-71735699D02*
X176322999Y-73353801D01*
X201690230Y-86402201D02*
X207404599Y-86402201D01*
X207404599Y-86402201D02*
X210403000Y-83403800D01*
X210403000Y-83403800D02*
X210403000Y-83403800D01*
X169368600Y-72481900D02*
X168783000Y-71896300D01*
X168783000Y-71896300D02*
X168783000Y-68103800D01*
X195121115Y-86403800D02*
X186870400Y-78153085D01*
X186870400Y-78153085D02*
X186870400Y-77587400D01*
X199403000Y-86403800D02*
X195121115Y-86403800D01*
X171323000Y-68103800D02*
X171323000Y-69279100D01*
X182090600Y-90464000D02*
X174381300Y-82754700D01*
X171323000Y-69279100D02*
X171323000Y-72073800D01*
X171323000Y-72073800D02*
X173403000Y-74153800D01*
X173403000Y-74153800D02*
X173403000Y-74153800D01*
X173403000Y-81776400D02*
X174381300Y-82754700D01*
X173403000Y-79403800D02*
X173403000Y-81776400D01*
X197113000Y-90370200D02*
X186960800Y-80218000D01*
X186960800Y-80218000D02*
X183402600Y-80218000D01*
X183402600Y-80218000D02*
X182411000Y-79226400D01*
X182411000Y-79226400D02*
X182411000Y-74025600D01*
X182411000Y-74025600D02*
X180846100Y-72460700D01*
X177664500Y-69279100D02*
X175846200Y-69279100D01*
X175846200Y-69279100D02*
X175038300Y-68471200D01*
X175038300Y-68471200D02*
X175038300Y-68103800D01*
X173863000Y-68103800D02*
X175038300Y-68103800D01*
X177721100Y-69335700D02*
X177664500Y-69279100D01*
X179334900Y-69335700D02*
X180903000Y-70903800D01*
X177721100Y-69335700D02*
X179334900Y-69335700D01*
X198255230Y-92351795D02*
X194903000Y-90403800D01*
X194903000Y-90403800D02*
X188903000Y-84403800D01*
X188903000Y-84403800D02*
X188903000Y-84403800D01*
X190153000Y-79653814D02*
X189653000Y-79153814D01*
X189653000Y-79153814D02*
X189653000Y-74903800D01*
X163273000Y-76693800D02*
X163273000Y-77819100D01*
X163273000Y-77819100D02*
X163554400Y-77819100D01*
X163554400Y-77819100D02*
X164398300Y-78663000D01*
X164398300Y-78663000D02*
X164398300Y-86890400D01*
X164398300Y-86890400D02*
X178911900Y-101404000D01*
X178911900Y-101404000D02*
X180403000Y-101404000D01*
X180118300Y-68103800D02*
X178943000Y-68103800D01*
X180118300Y-68471200D02*
X180118300Y-68103800D01*
X181800900Y-70153800D02*
X181726950Y-70079850D01*
X181726950Y-70079850D02*
X180118300Y-68471200D01*
X186324400Y-70075200D02*
X186245800Y-70153800D01*
X186724399Y-69675201D02*
X186324400Y-70075200D01*
X208903000Y-79903800D02*
X208653000Y-79903800D01*
X192240600Y-69041500D02*
X190127500Y-66928400D01*
X212653000Y-83653800D02*
X208903000Y-79903800D01*
X208653000Y-79903800D02*
X205403000Y-76653800D01*
X212653000Y-85653800D02*
X212653000Y-83653800D01*
X200542500Y-92350200D02*
X205956600Y-92350200D01*
X205956600Y-92350200D02*
X212653000Y-85653800D01*
X205403000Y-76653800D02*
X203653000Y-76653800D01*
X190127500Y-66928400D02*
X188071900Y-66928400D01*
X188071900Y-66928400D02*
X187927600Y-67072700D01*
X203653000Y-76653800D02*
X200403000Y-79903800D01*
X200403000Y-79903800D02*
X197153000Y-79903800D01*
X197153000Y-79903800D02*
X192240600Y-74991400D01*
X192240600Y-74991400D02*
X192240600Y-69041500D01*
X187927600Y-67072700D02*
X187927600Y-68472000D01*
X187927600Y-68472000D02*
X186724399Y-69675201D01*
X199397500Y-94333400D02*
X200162000Y-94333400D01*
X197802999Y-67553799D02*
X197403000Y-67153800D01*
X205473405Y-94333395D02*
X213238566Y-86568234D01*
X209702989Y-79453789D02*
X197802999Y-67553799D01*
X199397461Y-94333395D02*
X205473405Y-94333395D01*
X215549988Y-81300788D02*
X213702989Y-79453789D01*
X213238566Y-86568234D02*
X215549988Y-82560112D01*
X215549988Y-82560112D02*
X215549988Y-81300788D01*
X213702989Y-79453789D02*
X209702989Y-79453789D01*
X168082000Y-75279100D02*
X169383200Y-76580300D01*
X164398300Y-75279100D02*
X168082000Y-75279100D01*
X169383200Y-85597700D02*
X175383491Y-91597991D01*
X163273000Y-74153800D02*
X164398300Y-75279100D01*
X169383200Y-76580300D02*
X169383200Y-85597700D01*
X175783490Y-94244490D02*
X175783490Y-92563675D01*
X175383491Y-91597991D02*
X175783490Y-91997990D01*
X182943000Y-101404000D02*
X175783490Y-94244490D01*
X175783490Y-92563675D02*
X175783490Y-91997990D01*
X183600400Y-79364400D02*
X189103000Y-73861800D01*
X189103000Y-73861800D02*
X189103000Y-68103800D01*
X184403000Y-62403800D02*
X184403000Y-62403800D01*
X182847999Y-62458801D02*
X182847999Y-62458801D01*
D26*
X184347999Y-62458801D02*
X184403000Y-62403800D01*
X182847999Y-62458801D02*
X184347999Y-62458801D01*
D27*
X184872999Y-67253801D02*
X184023000Y-68103800D01*
X185273001Y-63273801D02*
X185273001Y-66853799D01*
X185273001Y-66853799D02*
X184872999Y-67253801D01*
X184403000Y-62403800D02*
X185273001Y-63273801D01*
X183173001Y-67253801D02*
X184023000Y-68103800D01*
X182772999Y-66853799D02*
X183173001Y-67253801D01*
X182772999Y-64963799D02*
X182772999Y-66853799D01*
X182847999Y-64888799D02*
X182772999Y-64963799D01*
X182847999Y-62458801D02*
X182847999Y-64888799D01*
D25*
X168613000Y-106654000D02*
X169788300Y-106654000D01*
X184840400Y-90903800D02*
X184840400Y-101169000D01*
X184840400Y-101169000D02*
X183240800Y-102768600D01*
X183240800Y-102768600D02*
X182417400Y-102768600D01*
X182417400Y-102768600D02*
X181673000Y-103513000D01*
X181673000Y-103513000D02*
X181673000Y-104338800D01*
X181673000Y-104338800D02*
X180779600Y-105232200D01*
X180779600Y-105232200D02*
X177028600Y-105232200D01*
X177028600Y-105232200D02*
X174431500Y-107829300D01*
X174431500Y-107829300D02*
X170155500Y-107829300D01*
X170155500Y-107829300D02*
X169788300Y-107462100D01*
X169788300Y-107462100D02*
X169788300Y-106654000D01*
X184840400Y-90903800D02*
X184277700Y-90903800D01*
X185403000Y-90903800D02*
X184840400Y-90903800D01*
X175523000Y-82336400D02*
X180653000Y-77206400D01*
X180653000Y-77206400D02*
X180653000Y-74283800D01*
X175523000Y-82336400D02*
X175523000Y-82899100D01*
X175523000Y-81773800D02*
X175523000Y-82336400D01*
X184277700Y-90903800D02*
X176273000Y-82899100D01*
X176273000Y-82899100D02*
X175523000Y-82899100D01*
X181483000Y-66928500D02*
X181483000Y-68103800D01*
X181115600Y-66928500D02*
X181483000Y-66928500D01*
X180307700Y-66120600D02*
X181115600Y-66928500D01*
X141605000Y-95236000D02*
X146153000Y-90688000D01*
X146153000Y-90688000D02*
X146153000Y-71403800D01*
X146153000Y-71403800D02*
X155903000Y-61653800D01*
X155903000Y-61653800D02*
X176706900Y-61653800D01*
X176706900Y-61653800D02*
X180307700Y-65254600D01*
X180307700Y-65254600D02*
X180307700Y-66120600D01*
X177073000Y-61153800D02*
X181483000Y-65563800D01*
X155403000Y-61153800D02*
X177073000Y-61153800D01*
X145284500Y-71272300D02*
X155403000Y-61153800D01*
X141605000Y-90236000D02*
X145284500Y-86556500D01*
X145284500Y-86556500D02*
X145284500Y-71272300D01*
X170147600Y-67589200D02*
X170997700Y-66739100D01*
X170997700Y-66739100D02*
X174419800Y-66739100D01*
X174419800Y-66739100D02*
X175227700Y-65931200D01*
X175227700Y-65931200D02*
X175227700Y-65563800D01*
X174397700Y-76693800D02*
X170147600Y-72443700D01*
X170147600Y-72443700D02*
X170147600Y-67589200D01*
X170147600Y-67589200D02*
X169486900Y-66928500D01*
X169486900Y-66928500D02*
X168296100Y-66928500D01*
X168296100Y-66928500D02*
X167607700Y-67616900D01*
X167607700Y-67616900D02*
X167607700Y-68450100D01*
X167607700Y-68450100D02*
X166017200Y-70040600D01*
X166017200Y-70040600D02*
X157687700Y-70040600D01*
X157687700Y-70040600D02*
X149141700Y-78586600D01*
X149141700Y-78586600D02*
X149141700Y-97699300D01*
X149141700Y-97699300D02*
X141605000Y-105236000D01*
X176403000Y-65563800D02*
X175227700Y-65563800D01*
X174960400Y-76693800D02*
X175523000Y-77256400D01*
X175523000Y-77256400D02*
X175523000Y-79233800D01*
X174960400Y-76693800D02*
X174397700Y-76693800D01*
X175523000Y-76693800D02*
X174960400Y-76693800D01*
X155653000Y-104633800D02*
X155653000Y-103508500D01*
X157155900Y-83075800D02*
X157155900Y-102286900D01*
X157155900Y-102286900D02*
X155934300Y-103508500D01*
X155934300Y-103508500D02*
X155653000Y-103508500D01*
X163273000Y-99553800D02*
X163273000Y-100679100D01*
X171153000Y-106654000D02*
X169883000Y-105384000D01*
X169883000Y-105384000D02*
X168154800Y-105384000D01*
X168154800Y-105384000D02*
X163449900Y-100679100D01*
X163449900Y-100679100D02*
X163273000Y-100679100D01*
X163273000Y-97013800D02*
X163273000Y-98139100D01*
X171153000Y-104114000D02*
X169977700Y-104114000D01*
X169977700Y-104114000D02*
X169977700Y-103746600D01*
X169977700Y-103746600D02*
X169169800Y-102938700D01*
X169169800Y-102938700D02*
X168308100Y-102938700D01*
X168308100Y-102938700D02*
X163508500Y-98139100D01*
X163508500Y-98139100D02*
X163273000Y-98139100D01*
X155653000Y-74153800D02*
X155653000Y-75279100D01*
X171153000Y-101574000D02*
X171153000Y-95648800D01*
X171153000Y-95648800D02*
X163628000Y-88123800D01*
X163628000Y-88123800D02*
X162915900Y-88123800D01*
X162915900Y-88123800D02*
X159463000Y-84670900D01*
X159463000Y-84670900D02*
X159463000Y-78807800D01*
X159463000Y-78807800D02*
X155934300Y-75279100D01*
X155934300Y-75279100D02*
X155653000Y-75279100D01*
X167903000Y-88783800D02*
X167903000Y-87658500D01*
X167903000Y-79233800D02*
X167903000Y-80359100D01*
X167903000Y-80359100D02*
X167621700Y-80359100D01*
X167621700Y-80359100D02*
X166777700Y-81203100D01*
X166777700Y-81203100D02*
X166777700Y-86533200D01*
X166777700Y-86533200D02*
X167903000Y-87658500D01*
X163813001Y-95888799D02*
X162732999Y-95888799D01*
X180403000Y-103944000D02*
X179227700Y-103944000D01*
X164403000Y-95903800D02*
X163828002Y-95903800D01*
X169883000Y-101988200D02*
X169883000Y-99383800D01*
X170747000Y-102852200D02*
X169883000Y-101988200D01*
X178135900Y-102852200D02*
X170747000Y-102852200D01*
X169153000Y-98653800D02*
X167153000Y-98653800D01*
X179227700Y-103944000D02*
X178135900Y-102852200D01*
X167153000Y-98653800D02*
X164403000Y-95903800D01*
X163828002Y-95903800D02*
X163813001Y-95888799D01*
X162717998Y-95903800D02*
X158054800Y-95903800D01*
X169883000Y-99383800D02*
X169153000Y-98653800D01*
X155934300Y-77819100D02*
X155653000Y-77819100D01*
X155653000Y-77819100D02*
X155653000Y-76693800D01*
X158054800Y-95903800D02*
X158054800Y-79939600D01*
X162732999Y-95888799D02*
X162717998Y-95903800D01*
X158054800Y-79939600D02*
X155934300Y-77819100D01*
X180403000Y-106484000D02*
X179227700Y-106484000D01*
X155653000Y-79233800D02*
X155653000Y-80359100D01*
X155653000Y-80359100D02*
X155371700Y-80359100D01*
X155371700Y-80359100D02*
X154509100Y-81221700D01*
X154509100Y-81221700D02*
X154509100Y-105102700D01*
X154509100Y-105102700D02*
X155310200Y-105903800D01*
X155310200Y-105903800D02*
X159778000Y-105903800D01*
X159778000Y-105903800D02*
X162194700Y-108320500D01*
X162194700Y-108320500D02*
X177391200Y-108320500D01*
X177391200Y-108320500D02*
X179227700Y-106484000D01*
D28*
G36*
X177436893Y-58396418D02*
G01*
X181894818Y-58572394D01*
X186343904Y-58903844D01*
X190778726Y-59390364D01*
X195193826Y-60031355D01*
X199583891Y-60826045D01*
X203943576Y-61773468D01*
X208267481Y-62872450D01*
X212551905Y-64122104D01*
X215239998Y-64995518D01*
X215239999Y-79915997D01*
X214266793Y-78942792D01*
X214242990Y-78913788D01*
X214127265Y-78818815D01*
X213995236Y-78748243D01*
X213851975Y-78704786D01*
X213740322Y-78693789D01*
X213740311Y-78693789D01*
X213702989Y-78690113D01*
X213665667Y-78693789D01*
X210017791Y-78693789D01*
X204391957Y-73067955D01*
X206418450Y-73067955D01*
X206814634Y-73588350D01*
X207529612Y-73978548D01*
X208306976Y-74221764D01*
X209116853Y-74308651D01*
X209928118Y-74235869D01*
X210709597Y-74006215D01*
X211431256Y-73628515D01*
X211491366Y-73588350D01*
X211887550Y-73067955D01*
X209153000Y-70333405D01*
X206418450Y-73067955D01*
X204391957Y-73067955D01*
X201441655Y-70117653D01*
X204998149Y-70117653D01*
X205070931Y-70928918D01*
X205300585Y-71710397D01*
X205678285Y-72432056D01*
X205718450Y-72492166D01*
X206238845Y-72888350D01*
X208973395Y-70153800D01*
X209332605Y-70153800D01*
X212067155Y-72888350D01*
X212587550Y-72492166D01*
X212977748Y-71777188D01*
X213220964Y-70999824D01*
X213307851Y-70189947D01*
X213235069Y-69378682D01*
X213005415Y-68597203D01*
X212627715Y-67875544D01*
X212587550Y-67815434D01*
X212067155Y-67419250D01*
X209332605Y-70153800D01*
X208973395Y-70153800D01*
X206238845Y-67419250D01*
X205718450Y-67815434D01*
X205328252Y-68530412D01*
X205085036Y-69307776D01*
X204998149Y-70117653D01*
X201441655Y-70117653D01*
X201415141Y-70091140D01*
X201473512Y-70094017D01*
X201753130Y-70052587D01*
X202019292Y-69957403D01*
X202144514Y-69890471D01*
X202216097Y-69646502D01*
X201403000Y-68833405D01*
X201388858Y-68847548D01*
X201209253Y-68667943D01*
X201223395Y-68653800D01*
X201582605Y-68653800D01*
X202395702Y-69466897D01*
X202639671Y-69395314D01*
X202760571Y-69139804D01*
X202829300Y-68865616D01*
X202843217Y-68583288D01*
X202801787Y-68303670D01*
X202706603Y-68037508D01*
X202639671Y-67912286D01*
X202395702Y-67840703D01*
X201582605Y-68653800D01*
X201223395Y-68653800D01*
X200410298Y-67840703D01*
X200166329Y-67912286D01*
X200045429Y-68167796D01*
X199976700Y-68441984D01*
X199966801Y-68642800D01*
X198985099Y-67661098D01*
X200589903Y-67661098D01*
X201403000Y-68474195D01*
X202216097Y-67661098D01*
X202144514Y-67417129D01*
X201889004Y-67296229D01*
X201663268Y-67239645D01*
X206418450Y-67239645D01*
X209153000Y-69974195D01*
X211887550Y-67239645D01*
X211491366Y-66719250D01*
X210776388Y-66329052D01*
X209999024Y-66085836D01*
X209189147Y-65998949D01*
X208377882Y-66071731D01*
X207596403Y-66301385D01*
X206874744Y-66679085D01*
X206814634Y-66719250D01*
X206418450Y-67239645D01*
X201663268Y-67239645D01*
X201614816Y-67227500D01*
X201332488Y-67213583D01*
X201052870Y-67255013D01*
X200786708Y-67350197D01*
X200661486Y-67417129D01*
X200589903Y-67661098D01*
X198985099Y-67661098D01*
X198438000Y-67113999D01*
X198438000Y-67051861D01*
X198398226Y-66851902D01*
X198320205Y-66663544D01*
X198206937Y-66494026D01*
X198062774Y-66349863D01*
X197893256Y-66236595D01*
X197704898Y-66158574D01*
X197504939Y-66118800D01*
X197301061Y-66118800D01*
X197101102Y-66158574D01*
X196912744Y-66236595D01*
X196743226Y-66349863D01*
X196599063Y-66494026D01*
X196485795Y-66663544D01*
X196407774Y-66851902D01*
X196368000Y-67051861D01*
X196368000Y-67255739D01*
X196407774Y-67455698D01*
X196485795Y-67644056D01*
X196599063Y-67813574D01*
X196743226Y-67957737D01*
X196912744Y-68071005D01*
X197101102Y-68149026D01*
X197301061Y-68188800D01*
X197363199Y-68188800D01*
X205068198Y-75893800D01*
X203690322Y-75893800D01*
X203652999Y-75890124D01*
X203615676Y-75893800D01*
X203615667Y-75893800D01*
X203504014Y-75904797D01*
X203360753Y-75948254D01*
X203228723Y-76018826D01*
X203167225Y-76069297D01*
X203112999Y-76113799D01*
X203089201Y-76142797D01*
X200708000Y-78523999D01*
X200708000Y-78262465D01*
X200652853Y-77985226D01*
X200544680Y-77724073D01*
X200387637Y-77489041D01*
X200187759Y-77289163D01*
X199952727Y-77132120D01*
X199691574Y-77023947D01*
X199414335Y-76968800D01*
X199131665Y-76968800D01*
X198854426Y-77023947D01*
X198593273Y-77132120D01*
X198358241Y-77289163D01*
X198158363Y-77489041D01*
X198001320Y-77724073D01*
X197893147Y-77985226D01*
X197838000Y-78262465D01*
X197838000Y-78545135D01*
X197893147Y-78822374D01*
X198001320Y-79083527D01*
X198041593Y-79143800D01*
X197467802Y-79143800D01*
X193000600Y-74676599D01*
X193000600Y-69856876D01*
X193103273Y-69925480D01*
X193364426Y-70033653D01*
X193641665Y-70088800D01*
X193924335Y-70088800D01*
X194201574Y-70033653D01*
X194462727Y-69925480D01*
X194697759Y-69768437D01*
X194897637Y-69568559D01*
X195054680Y-69333527D01*
X195162853Y-69072374D01*
X195218000Y-68795135D01*
X195218000Y-68512465D01*
X195162853Y-68235226D01*
X195054680Y-67974073D01*
X194897637Y-67739041D01*
X194697759Y-67539163D01*
X194462727Y-67382120D01*
X194201574Y-67273947D01*
X193924335Y-67218800D01*
X193641665Y-67218800D01*
X193364426Y-67273947D01*
X193103273Y-67382120D01*
X192868241Y-67539163D01*
X192668363Y-67739041D01*
X192511320Y-67974073D01*
X192434188Y-68160286D01*
X190691304Y-66417403D01*
X190667501Y-66388399D01*
X190551776Y-66293426D01*
X190434170Y-66230563D01*
X190530932Y-65996958D01*
X190588000Y-65710060D01*
X190588000Y-65417540D01*
X190530932Y-65130642D01*
X190418990Y-64860389D01*
X190256475Y-64617168D01*
X190049632Y-64410325D01*
X189806411Y-64247810D01*
X189536158Y-64135868D01*
X189249260Y-64078800D01*
X188956740Y-64078800D01*
X188669842Y-64135868D01*
X188399589Y-64247810D01*
X188156368Y-64410325D01*
X187949525Y-64617168D01*
X187827805Y-64799334D01*
X187758178Y-64682445D01*
X187563269Y-64466212D01*
X187329920Y-64292159D01*
X187067099Y-64166975D01*
X186919890Y-64122324D01*
X186690000Y-64243645D01*
X186690000Y-65436800D01*
X186710000Y-65436800D01*
X186710000Y-65690800D01*
X186690000Y-65690800D01*
X186690000Y-67976800D01*
X186710000Y-67976800D01*
X186710000Y-68230800D01*
X186690000Y-68230800D01*
X186690000Y-68250800D01*
X186436000Y-68250800D01*
X186436000Y-68230800D01*
X186416000Y-68230800D01*
X186416000Y-67976800D01*
X186436000Y-67976800D01*
X186436000Y-65690800D01*
X186416000Y-65690800D01*
X186416000Y-65436800D01*
X186436000Y-65436800D01*
X186436000Y-64243645D01*
X186206110Y-64122324D01*
X186108001Y-64152082D01*
X186108001Y-63314816D01*
X186112041Y-63273800D01*
X186108001Y-63232782D01*
X186095919Y-63110112D01*
X186048173Y-62952714D01*
X185970637Y-62807655D01*
X185866292Y-62680510D01*
X185834428Y-62654361D01*
X185427093Y-62247025D01*
X185398226Y-62101902D01*
X185320205Y-61913544D01*
X185206937Y-61744026D01*
X185062774Y-61599863D01*
X184893256Y-61486595D01*
X184704898Y-61408574D01*
X184504939Y-61368800D01*
X184301061Y-61368800D01*
X184101102Y-61408574D01*
X183912744Y-61486595D01*
X183782231Y-61573801D01*
X183386453Y-61573801D01*
X183338255Y-61541596D01*
X183149897Y-61463575D01*
X182949938Y-61423801D01*
X182746060Y-61423801D01*
X182546101Y-61463575D01*
X182357743Y-61541596D01*
X182188225Y-61654864D01*
X182044062Y-61799027D01*
X181930794Y-61968545D01*
X181852773Y-62156903D01*
X181812999Y-62356862D01*
X181812999Y-62560740D01*
X181852773Y-62760699D01*
X181930794Y-62949057D01*
X182012999Y-63072086D01*
X182013000Y-64175981D01*
X181916158Y-64135868D01*
X181629260Y-64078800D01*
X181336740Y-64078800D01*
X181116592Y-64122590D01*
X177636804Y-60642803D01*
X177613001Y-60613799D01*
X177497276Y-60518826D01*
X177365247Y-60448254D01*
X177221986Y-60404797D01*
X177110333Y-60393800D01*
X177110322Y-60393800D01*
X177073000Y-60390124D01*
X177035678Y-60393800D01*
X155440323Y-60393800D01*
X155403000Y-60390124D01*
X155365677Y-60393800D01*
X155365667Y-60393800D01*
X155254014Y-60404797D01*
X155111079Y-60448155D01*
X155110753Y-60448254D01*
X154978723Y-60518826D01*
X154898951Y-60584294D01*
X154862999Y-60613799D01*
X154839201Y-60642797D01*
X144773498Y-70708501D01*
X144744500Y-70732299D01*
X144720702Y-70761297D01*
X144720701Y-70761298D01*
X144649526Y-70848024D01*
X144578954Y-70980054D01*
X144571163Y-71005739D01*
X144538066Y-71114850D01*
X144535498Y-71123315D01*
X144520824Y-71272300D01*
X144524501Y-71309633D01*
X144524500Y-86241698D01*
X142325986Y-88440213D01*
X142169419Y-88375361D01*
X141795581Y-88301000D01*
X141414419Y-88301000D01*
X141040581Y-88375361D01*
X140688434Y-88521225D01*
X140371509Y-88732987D01*
X140101987Y-89002509D01*
X139890225Y-89319434D01*
X139744361Y-89671581D01*
X139670000Y-90045419D01*
X139670000Y-90426581D01*
X139744361Y-90800419D01*
X139890225Y-91152566D01*
X140101987Y-91469491D01*
X140371509Y-91739013D01*
X140688434Y-91950775D01*
X141040581Y-92096639D01*
X141414419Y-92171000D01*
X141795581Y-92171000D01*
X142169419Y-92096639D01*
X142521566Y-91950775D01*
X142838491Y-91739013D01*
X143108013Y-91469491D01*
X143319775Y-91152566D01*
X143465639Y-90800419D01*
X143540000Y-90426581D01*
X143540000Y-90045419D01*
X143465639Y-89671581D01*
X143400787Y-89515014D01*
X145393000Y-87522802D01*
X145393000Y-90373198D01*
X142325986Y-93440213D01*
X142169419Y-93375361D01*
X141795581Y-93301000D01*
X141414419Y-93301000D01*
X141040581Y-93375361D01*
X140688434Y-93521225D01*
X140371509Y-93732987D01*
X140101987Y-94002509D01*
X139890225Y-94319434D01*
X139744361Y-94671581D01*
X139670000Y-95045419D01*
X139670000Y-95426581D01*
X139744361Y-95800419D01*
X139890225Y-96152566D01*
X140101987Y-96469491D01*
X140371509Y-96739013D01*
X140688434Y-96950775D01*
X141040581Y-97096639D01*
X141414419Y-97171000D01*
X141795581Y-97171000D01*
X142169419Y-97096639D01*
X142521566Y-96950775D01*
X142838491Y-96739013D01*
X143108013Y-96469491D01*
X143319775Y-96152566D01*
X143465639Y-95800419D01*
X143540000Y-95426581D01*
X143540000Y-95045419D01*
X143465639Y-94671581D01*
X143400787Y-94515014D01*
X146664004Y-91251798D01*
X146693001Y-91228001D01*
X146787974Y-91112276D01*
X146858546Y-90980247D01*
X146902003Y-90836986D01*
X146913000Y-90725333D01*
X146913000Y-90725324D01*
X146916676Y-90688001D01*
X146913000Y-90650678D01*
X146913000Y-71718601D01*
X149869136Y-68762465D01*
X153598000Y-68762465D01*
X153598000Y-69045135D01*
X153653147Y-69322374D01*
X153761320Y-69583527D01*
X153918363Y-69818559D01*
X154118241Y-70018437D01*
X154353273Y-70175480D01*
X154614426Y-70283653D01*
X154891665Y-70338800D01*
X155174335Y-70338800D01*
X155451574Y-70283653D01*
X155712727Y-70175480D01*
X155947759Y-70018437D01*
X156147637Y-69818559D01*
X156304680Y-69583527D01*
X156412853Y-69322374D01*
X156468000Y-69045135D01*
X156468000Y-68762465D01*
X156412853Y-68485226D01*
X156304680Y-68224073D01*
X156147637Y-67989041D01*
X155947759Y-67789163D01*
X155712727Y-67632120D01*
X155451574Y-67523947D01*
X155174335Y-67468800D01*
X154891665Y-67468800D01*
X154614426Y-67523947D01*
X154353273Y-67632120D01*
X154118241Y-67789163D01*
X153918363Y-67989041D01*
X153761320Y-68224073D01*
X153653147Y-68485226D01*
X153598000Y-68762465D01*
X149869136Y-68762465D01*
X153424692Y-65206909D01*
X164801519Y-65206909D01*
X164922186Y-65436800D01*
X166116000Y-65436800D01*
X166116000Y-64243645D01*
X166370000Y-64243645D01*
X166370000Y-65436800D01*
X168656000Y-65436800D01*
X168656000Y-64243645D01*
X168910000Y-64243645D01*
X168910000Y-65436800D01*
X171196000Y-65436800D01*
X171196000Y-64243645D01*
X171450000Y-64243645D01*
X171450000Y-65436800D01*
X173736000Y-65436800D01*
X173736000Y-64243645D01*
X173506110Y-64122324D01*
X173358901Y-64166975D01*
X173096080Y-64292159D01*
X172862731Y-64466212D01*
X172667822Y-64682445D01*
X172593000Y-64808055D01*
X172518178Y-64682445D01*
X172323269Y-64466212D01*
X172089920Y-64292159D01*
X171827099Y-64166975D01*
X171679890Y-64122324D01*
X171450000Y-64243645D01*
X171196000Y-64243645D01*
X170966110Y-64122324D01*
X170818901Y-64166975D01*
X170556080Y-64292159D01*
X170322731Y-64466212D01*
X170127822Y-64682445D01*
X170053000Y-64808055D01*
X169978178Y-64682445D01*
X169783269Y-64466212D01*
X169549920Y-64292159D01*
X169287099Y-64166975D01*
X169139890Y-64122324D01*
X168910000Y-64243645D01*
X168656000Y-64243645D01*
X168426110Y-64122324D01*
X168278901Y-64166975D01*
X168016080Y-64292159D01*
X167782731Y-64466212D01*
X167587822Y-64682445D01*
X167513000Y-64808055D01*
X167438178Y-64682445D01*
X167243269Y-64466212D01*
X167009920Y-64292159D01*
X166747099Y-64166975D01*
X166599890Y-64122324D01*
X166370000Y-64243645D01*
X166116000Y-64243645D01*
X165886110Y-64122324D01*
X165738901Y-64166975D01*
X165476080Y-64292159D01*
X165242731Y-64466212D01*
X165047822Y-64682445D01*
X164898843Y-64932548D01*
X164801519Y-65206909D01*
X153424692Y-65206909D01*
X156217802Y-62413800D01*
X176392099Y-62413800D01*
X178231508Y-64253210D01*
X177996368Y-64410325D01*
X177789525Y-64617168D01*
X177673000Y-64791560D01*
X177556475Y-64617168D01*
X177349632Y-64410325D01*
X177106411Y-64247810D01*
X176836158Y-64135868D01*
X176549260Y-64078800D01*
X176256740Y-64078800D01*
X175969842Y-64135868D01*
X175699589Y-64247810D01*
X175456368Y-64410325D01*
X175249525Y-64617168D01*
X175127805Y-64799334D01*
X175058178Y-64682445D01*
X174863269Y-64466212D01*
X174629920Y-64292159D01*
X174367099Y-64166975D01*
X174219890Y-64122324D01*
X173990000Y-64243645D01*
X173990000Y-65436800D01*
X174010000Y-65436800D01*
X174010000Y-65690800D01*
X173990000Y-65690800D01*
X173990000Y-65710800D01*
X173736000Y-65710800D01*
X173736000Y-65690800D01*
X171450000Y-65690800D01*
X171450000Y-65710800D01*
X171196000Y-65710800D01*
X171196000Y-65690800D01*
X168910000Y-65690800D01*
X168910000Y-65710800D01*
X168656000Y-65710800D01*
X168656000Y-65690800D01*
X166370000Y-65690800D01*
X166370000Y-65710800D01*
X166116000Y-65710800D01*
X166116000Y-65690800D01*
X164922186Y-65690800D01*
X164801519Y-65920691D01*
X164898843Y-66195052D01*
X165047822Y-66445155D01*
X165242731Y-66661388D01*
X165472406Y-66832700D01*
X165296368Y-66950325D01*
X165089525Y-67157168D01*
X164927010Y-67400389D01*
X164815068Y-67670642D01*
X164758000Y-67957540D01*
X164758000Y-68250060D01*
X164815068Y-68536958D01*
X164927010Y-68807211D01*
X165089525Y-69050432D01*
X165296368Y-69257275D01*
X165331276Y-69280600D01*
X164041162Y-69280600D01*
X164088000Y-69045135D01*
X164088000Y-68762465D01*
X164032853Y-68485226D01*
X163924680Y-68224073D01*
X163767637Y-67989041D01*
X163567759Y-67789163D01*
X163332727Y-67632120D01*
X163071574Y-67523947D01*
X162794335Y-67468800D01*
X162511665Y-67468800D01*
X162234426Y-67523947D01*
X161973273Y-67632120D01*
X161738241Y-67789163D01*
X161538363Y-67989041D01*
X161381320Y-68224073D01*
X161273147Y-68485226D01*
X161218000Y-68762465D01*
X161218000Y-69045135D01*
X161264838Y-69280600D01*
X157725022Y-69280600D01*
X157687699Y-69276924D01*
X157650376Y-69280600D01*
X157650367Y-69280600D01*
X157538714Y-69291597D01*
X157424648Y-69326198D01*
X157395453Y-69335054D01*
X157263423Y-69405626D01*
X157190131Y-69465776D01*
X157147699Y-69500599D01*
X157123901Y-69529597D01*
X148630703Y-78022796D01*
X148601699Y-78046599D01*
X148556025Y-78102254D01*
X148506726Y-78162324D01*
X148453199Y-78262465D01*
X148436154Y-78294354D01*
X148392697Y-78437615D01*
X148381700Y-78549268D01*
X148381700Y-78549278D01*
X148378024Y-78586600D01*
X148381700Y-78623922D01*
X148381701Y-97384497D01*
X142325986Y-103440213D01*
X142169419Y-103375361D01*
X141795581Y-103301000D01*
X141414419Y-103301000D01*
X141040581Y-103375361D01*
X140688434Y-103521225D01*
X140371509Y-103732987D01*
X140101987Y-104002509D01*
X139890225Y-104319434D01*
X139744361Y-104671581D01*
X139670000Y-105045419D01*
X139670000Y-105426581D01*
X139744361Y-105800419D01*
X139890225Y-106152566D01*
X140101987Y-106469491D01*
X140371509Y-106739013D01*
X140688434Y-106950775D01*
X141040581Y-107096639D01*
X141414419Y-107171000D01*
X141795581Y-107171000D01*
X142169419Y-107096639D01*
X142521566Y-106950775D01*
X142838491Y-106739013D01*
X143108013Y-106469491D01*
X143313940Y-106161298D01*
X149839903Y-106161298D01*
X150653000Y-106974395D01*
X151466097Y-106161298D01*
X151394514Y-105917329D01*
X151139004Y-105796429D01*
X150864816Y-105727700D01*
X150582488Y-105713783D01*
X150302870Y-105755213D01*
X150036708Y-105850397D01*
X149911486Y-105917329D01*
X149839903Y-106161298D01*
X143313940Y-106161298D01*
X143319775Y-106152566D01*
X143465639Y-105800419D01*
X143540000Y-105426581D01*
X143540000Y-105045419D01*
X143465639Y-104671581D01*
X143400787Y-104515014D01*
X145903136Y-102012665D01*
X149218000Y-102012665D01*
X149218000Y-102295335D01*
X149273147Y-102572574D01*
X149381320Y-102833727D01*
X149538363Y-103068759D01*
X149738241Y-103268637D01*
X149973273Y-103425680D01*
X150234426Y-103533853D01*
X150511665Y-103589000D01*
X150794335Y-103589000D01*
X151071574Y-103533853D01*
X151332727Y-103425680D01*
X151567759Y-103268637D01*
X151767637Y-103068759D01*
X151924680Y-102833727D01*
X152032853Y-102572574D01*
X152088000Y-102295335D01*
X152088000Y-102012665D01*
X152032853Y-101735426D01*
X151924680Y-101474273D01*
X151767637Y-101239241D01*
X151567759Y-101039363D01*
X151332727Y-100882320D01*
X151071574Y-100774147D01*
X150794335Y-100719000D01*
X150511665Y-100719000D01*
X150234426Y-100774147D01*
X149973273Y-100882320D01*
X149738241Y-101039363D01*
X149538363Y-101239241D01*
X149381320Y-101474273D01*
X149273147Y-101735426D01*
X149218000Y-102012665D01*
X145903136Y-102012665D01*
X149652703Y-98263099D01*
X149681701Y-98239301D01*
X149776674Y-98123576D01*
X149847246Y-97991547D01*
X149867527Y-97924688D01*
X149996957Y-98011171D01*
X150249011Y-98115575D01*
X150516589Y-98168800D01*
X150789411Y-98168800D01*
X151056989Y-98115575D01*
X151309043Y-98011171D01*
X151535886Y-97859599D01*
X151728799Y-97666686D01*
X151880371Y-97439843D01*
X151984775Y-97187789D01*
X152038000Y-96920211D01*
X152038000Y-96647389D01*
X151984775Y-96379811D01*
X151880371Y-96127757D01*
X151728799Y-95900914D01*
X151535886Y-95708001D01*
X151309043Y-95556429D01*
X151056989Y-95452025D01*
X150789411Y-95398800D01*
X150516589Y-95398800D01*
X150249011Y-95452025D01*
X149996957Y-95556429D01*
X149901700Y-95620078D01*
X149901700Y-93067522D01*
X149996957Y-93131171D01*
X150249011Y-93235575D01*
X150516589Y-93288800D01*
X150789411Y-93288800D01*
X151056989Y-93235575D01*
X151309043Y-93131171D01*
X151535886Y-92979599D01*
X151728799Y-92786686D01*
X151880371Y-92559843D01*
X151984775Y-92307789D01*
X152038000Y-92040211D01*
X152038000Y-91767389D01*
X151984775Y-91499811D01*
X151880371Y-91247757D01*
X151728799Y-91020914D01*
X151535886Y-90828001D01*
X151309043Y-90676429D01*
X151056989Y-90572025D01*
X150789411Y-90518800D01*
X150516589Y-90518800D01*
X150249011Y-90572025D01*
X149996957Y-90676429D01*
X149901700Y-90740078D01*
X149901700Y-87627657D01*
X149973273Y-87675480D01*
X150234426Y-87783653D01*
X150511665Y-87838800D01*
X150794335Y-87838800D01*
X151071574Y-87783653D01*
X151332727Y-87675480D01*
X151567759Y-87518437D01*
X151767637Y-87318559D01*
X151924680Y-87083527D01*
X152032853Y-86822374D01*
X152088000Y-86545135D01*
X152088000Y-86262465D01*
X152032853Y-85985226D01*
X151924680Y-85724073D01*
X151767637Y-85489041D01*
X151567759Y-85289163D01*
X151332727Y-85132120D01*
X151071574Y-85023947D01*
X150794335Y-84968800D01*
X150511665Y-84968800D01*
X150234426Y-85023947D01*
X149973273Y-85132120D01*
X149901700Y-85179943D01*
X149901700Y-82607118D01*
X149911486Y-82640471D01*
X150166996Y-82761371D01*
X150441184Y-82830100D01*
X150723512Y-82844017D01*
X151003130Y-82802587D01*
X151269292Y-82707403D01*
X151394514Y-82640471D01*
X151466097Y-82396502D01*
X150653000Y-81583405D01*
X150638858Y-81597548D01*
X150459253Y-81417943D01*
X150473395Y-81403800D01*
X150832605Y-81403800D01*
X151645702Y-82216897D01*
X151889671Y-82145314D01*
X152010571Y-81889804D01*
X152079300Y-81615616D01*
X152093217Y-81333288D01*
X152051787Y-81053670D01*
X151956603Y-80787508D01*
X151889671Y-80662286D01*
X151645702Y-80590703D01*
X150832605Y-81403800D01*
X150473395Y-81403800D01*
X150459253Y-81389658D01*
X150638858Y-81210053D01*
X150653000Y-81224195D01*
X151466097Y-80411098D01*
X151394514Y-80167129D01*
X151139004Y-80046229D01*
X150864816Y-79977500D01*
X150582488Y-79963583D01*
X150302870Y-80005013D01*
X150036708Y-80100197D01*
X149911486Y-80167129D01*
X149901700Y-80200482D01*
X149901700Y-78901401D01*
X154214928Y-74588174D01*
X154214928Y-74953800D01*
X154227188Y-75078282D01*
X154263498Y-75197980D01*
X154322463Y-75308294D01*
X154401815Y-75404985D01*
X154498506Y-75484337D01*
X154608820Y-75543302D01*
X154728518Y-75579612D01*
X154736961Y-75580443D01*
X154538363Y-75779041D01*
X154381320Y-76014073D01*
X154273147Y-76275226D01*
X154218000Y-76552465D01*
X154218000Y-76835135D01*
X154273147Y-77112374D01*
X154381320Y-77373527D01*
X154538363Y-77608559D01*
X154738241Y-77808437D01*
X154898842Y-77915747D01*
X154903997Y-77968086D01*
X154914167Y-78001613D01*
X154738241Y-78119163D01*
X154538363Y-78319041D01*
X154381320Y-78554073D01*
X154273147Y-78815226D01*
X154218000Y-79092465D01*
X154218000Y-79375135D01*
X154273147Y-79652374D01*
X154381320Y-79913527D01*
X154525977Y-80130022D01*
X153998102Y-80657897D01*
X153969099Y-80681699D01*
X153930279Y-80729002D01*
X153874126Y-80797424D01*
X153819778Y-80899101D01*
X153803554Y-80929454D01*
X153760097Y-81072715D01*
X153749100Y-81184368D01*
X153749100Y-81184378D01*
X153745424Y-81221700D01*
X153749100Y-81259022D01*
X153749101Y-105065367D01*
X153745424Y-105102700D01*
X153749101Y-105140033D01*
X153760098Y-105251686D01*
X153765297Y-105268826D01*
X153803554Y-105394946D01*
X153874126Y-105526976D01*
X153943538Y-105611554D01*
X153969100Y-105642701D01*
X153998097Y-105666499D01*
X154564501Y-106232903D01*
X154538363Y-106259041D01*
X154381320Y-106494073D01*
X154273147Y-106755226D01*
X154218000Y-107032465D01*
X154218000Y-107315135D01*
X154273147Y-107592374D01*
X154381320Y-107853527D01*
X154538363Y-108088559D01*
X154738241Y-108288437D01*
X154973273Y-108445480D01*
X155234426Y-108553653D01*
X155511665Y-108608800D01*
X155794335Y-108608800D01*
X156071574Y-108553653D01*
X156332727Y-108445480D01*
X156567759Y-108288437D01*
X156767637Y-108088559D01*
X156924680Y-107853527D01*
X157032853Y-107592374D01*
X157088000Y-107315135D01*
X157088000Y-107032465D01*
X157032853Y-106755226D01*
X156994983Y-106663800D01*
X159463199Y-106663800D01*
X161630901Y-108831503D01*
X161654699Y-108860501D01*
X161683697Y-108884299D01*
X161770423Y-108955474D01*
X161854432Y-109000378D01*
X161902453Y-109026046D01*
X162045714Y-109069503D01*
X162157367Y-109080500D01*
X162157377Y-109080500D01*
X162194700Y-109084176D01*
X162232023Y-109080500D01*
X177353878Y-109080500D01*
X177391200Y-109084176D01*
X177428522Y-109080500D01*
X177428533Y-109080500D01*
X177540186Y-109069503D01*
X177683447Y-109026046D01*
X177815476Y-108955474D01*
X177931201Y-108860501D01*
X177955004Y-108831497D01*
X179302697Y-107483804D01*
X179456368Y-107637475D01*
X179699589Y-107799990D01*
X179969842Y-107911932D01*
X180256740Y-107969000D01*
X180549260Y-107969000D01*
X180836158Y-107911932D01*
X181106411Y-107799990D01*
X181349632Y-107637475D01*
X181556475Y-107430632D01*
X181673000Y-107256240D01*
X181789525Y-107430632D01*
X181996368Y-107637475D01*
X182239589Y-107799990D01*
X182509842Y-107911932D01*
X182796740Y-107969000D01*
X183089260Y-107969000D01*
X183376158Y-107911932D01*
X183646411Y-107799990D01*
X183889632Y-107637475D01*
X184096475Y-107430632D01*
X184258990Y-107187411D01*
X184370932Y-106917158D01*
X184428000Y-106630260D01*
X184428000Y-106337740D01*
X184370932Y-106050842D01*
X184258990Y-105780589D01*
X184096475Y-105537368D01*
X183889632Y-105330525D01*
X183715240Y-105214000D01*
X183889632Y-105097475D01*
X184096475Y-104890632D01*
X184258990Y-104647411D01*
X184370932Y-104377158D01*
X184428000Y-104090260D01*
X184428000Y-103797740D01*
X184370932Y-103510842D01*
X184258990Y-103240589D01*
X184096475Y-102997368D01*
X184091654Y-102992547D01*
X185351403Y-101732799D01*
X185380401Y-101709001D01*
X185408119Y-101675226D01*
X185475374Y-101593277D01*
X185545946Y-101461247D01*
X185559521Y-101416492D01*
X189590256Y-101416492D01*
X189590256Y-101935542D01*
X189691517Y-102444618D01*
X189890149Y-102924158D01*
X190178518Y-103355732D01*
X190545541Y-103722755D01*
X190977115Y-104011124D01*
X191456655Y-104209756D01*
X191965731Y-104311017D01*
X192484781Y-104311017D01*
X192993857Y-104209756D01*
X193473397Y-104011124D01*
X193904971Y-103722755D01*
X194271994Y-103355732D01*
X194560363Y-102924158D01*
X194758995Y-102444618D01*
X194860256Y-101935542D01*
X194860256Y-101416492D01*
X194758995Y-100907416D01*
X194560363Y-100427876D01*
X194271994Y-99996302D01*
X193904971Y-99629279D01*
X193473397Y-99340910D01*
X192993857Y-99142278D01*
X192484781Y-99041017D01*
X191965731Y-99041017D01*
X191456655Y-99142278D01*
X190977115Y-99340910D01*
X190545541Y-99629279D01*
X190178518Y-99996302D01*
X189890149Y-100427876D01*
X189691517Y-100907416D01*
X189590256Y-101416492D01*
X185559521Y-101416492D01*
X185563311Y-101404000D01*
X185589403Y-101317986D01*
X185600400Y-101206333D01*
X185600400Y-101206323D01*
X185604076Y-101169001D01*
X185600400Y-101131678D01*
X185600400Y-95036825D01*
X193562495Y-95036825D01*
X193723323Y-95269282D01*
X193926412Y-95465897D01*
X194163956Y-95619114D01*
X194426827Y-95723043D01*
X194704923Y-95773692D01*
X194846834Y-95778339D01*
X195030812Y-95602847D01*
X194733197Y-94492136D01*
X193622486Y-94789750D01*
X193562495Y-95036825D01*
X185600400Y-95036825D01*
X185600400Y-94360427D01*
X193381254Y-94360427D01*
X193556746Y-94544405D01*
X194667457Y-94246790D01*
X194369843Y-93136079D01*
X194122768Y-93076088D01*
X193890311Y-93236916D01*
X193693696Y-93440005D01*
X193540479Y-93677549D01*
X193436550Y-93940420D01*
X193385901Y-94218516D01*
X193381254Y-94360427D01*
X185600400Y-94360427D01*
X185600400Y-92341872D01*
X186203000Y-92341872D01*
X186327482Y-92329612D01*
X186447180Y-92293302D01*
X186557494Y-92234337D01*
X186654185Y-92154985D01*
X186733537Y-92058294D01*
X186792502Y-91947980D01*
X186808117Y-91896502D01*
X188089903Y-91896502D01*
X188161486Y-92140471D01*
X188416996Y-92261371D01*
X188691184Y-92330100D01*
X188973512Y-92344017D01*
X189253130Y-92302587D01*
X189519292Y-92207403D01*
X189644514Y-92140471D01*
X189716097Y-91896502D01*
X188903000Y-91083405D01*
X188089903Y-91896502D01*
X186808117Y-91896502D01*
X186828812Y-91828282D01*
X186841072Y-91703800D01*
X186841072Y-90974312D01*
X187462783Y-90974312D01*
X187504213Y-91253930D01*
X187599397Y-91520092D01*
X187666329Y-91645314D01*
X187910298Y-91716897D01*
X188723395Y-90903800D01*
X189082605Y-90903800D01*
X189895702Y-91716897D01*
X190139671Y-91645314D01*
X190260571Y-91389804D01*
X190329300Y-91115616D01*
X190343217Y-90833288D01*
X190301787Y-90553670D01*
X190206603Y-90287508D01*
X190139671Y-90162286D01*
X189895702Y-90090703D01*
X189082605Y-90903800D01*
X188723395Y-90903800D01*
X187910298Y-90090703D01*
X187666329Y-90162286D01*
X187545429Y-90417796D01*
X187476700Y-90691984D01*
X187462783Y-90974312D01*
X186841072Y-90974312D01*
X186841072Y-90103800D01*
X186828812Y-89979318D01*
X186808118Y-89911098D01*
X188089903Y-89911098D01*
X188903000Y-90724195D01*
X189716097Y-89911098D01*
X189644514Y-89667129D01*
X189389004Y-89546229D01*
X189114816Y-89477500D01*
X188832488Y-89463583D01*
X188552870Y-89505013D01*
X188286708Y-89600197D01*
X188161486Y-89667129D01*
X188089903Y-89911098D01*
X186808118Y-89911098D01*
X186792502Y-89859620D01*
X186733537Y-89749306D01*
X186654185Y-89652615D01*
X186557494Y-89573263D01*
X186447180Y-89514298D01*
X186327482Y-89477988D01*
X186203000Y-89465728D01*
X184603000Y-89465728D01*
X184478518Y-89477988D01*
X184358820Y-89514298D01*
X184248506Y-89573263D01*
X184151815Y-89652615D01*
X184129053Y-89680351D01*
X176836804Y-82388103D01*
X176826819Y-82375936D01*
X176902853Y-82192374D01*
X176942837Y-81991364D01*
X178130401Y-80803800D01*
X178914928Y-80803800D01*
X178914928Y-83003800D01*
X178927188Y-83128282D01*
X178963498Y-83247980D01*
X179022463Y-83358294D01*
X179101815Y-83454985D01*
X179198506Y-83534337D01*
X179308820Y-83593302D01*
X179428518Y-83629612D01*
X179553000Y-83641872D01*
X181753000Y-83641872D01*
X181877482Y-83629612D01*
X181997180Y-83593302D01*
X182107494Y-83534337D01*
X182204185Y-83454985D01*
X182283537Y-83358294D01*
X182342502Y-83247980D01*
X182378812Y-83128282D01*
X182391072Y-83003800D01*
X182391072Y-80803800D01*
X182378812Y-80679318D01*
X182342502Y-80559620D01*
X182283537Y-80449306D01*
X182204185Y-80352615D01*
X182107494Y-80273263D01*
X181997180Y-80214298D01*
X181877482Y-80177988D01*
X181753000Y-80165728D01*
X179553000Y-80165728D01*
X179428518Y-80177988D01*
X179308820Y-80214298D01*
X179198506Y-80273263D01*
X179101815Y-80352615D01*
X179022463Y-80449306D01*
X178963498Y-80559620D01*
X178927188Y-80679318D01*
X178914928Y-80803800D01*
X178130401Y-80803800D01*
X181164004Y-77770198D01*
X181193001Y-77746401D01*
X181287974Y-77630676D01*
X181358546Y-77498647D01*
X181402003Y-77355386D01*
X181413000Y-77243733D01*
X181413000Y-77243732D01*
X181416677Y-77206400D01*
X181413000Y-77169067D01*
X181413000Y-75846948D01*
X181474831Y-75821337D01*
X181651001Y-75703624D01*
X181651000Y-79189077D01*
X181647324Y-79226400D01*
X181651000Y-79263722D01*
X181651000Y-79263732D01*
X181661997Y-79375385D01*
X181701539Y-79505739D01*
X181705454Y-79518646D01*
X181776026Y-79650676D01*
X181798450Y-79677999D01*
X181870999Y-79766401D01*
X181900002Y-79790204D01*
X182838800Y-80729002D01*
X182862599Y-80758001D01*
X182978324Y-80852974D01*
X183110353Y-80923546D01*
X183253614Y-80967003D01*
X183365267Y-80978000D01*
X183365276Y-80978000D01*
X183402599Y-80981676D01*
X183439922Y-80978000D01*
X183914928Y-80978000D01*
X183914928Y-82753800D01*
X183927188Y-82878282D01*
X183963498Y-82997980D01*
X184022463Y-83108294D01*
X184101815Y-83204985D01*
X184198506Y-83284337D01*
X184308820Y-83343302D01*
X184428518Y-83379612D01*
X184553000Y-83391872D01*
X186753000Y-83391872D01*
X186877482Y-83379612D01*
X186997180Y-83343302D01*
X187107494Y-83284337D01*
X187204185Y-83204985D01*
X187283537Y-83108294D01*
X187342502Y-82997980D01*
X187378812Y-82878282D01*
X187391072Y-82753800D01*
X187391072Y-81723073D01*
X189044710Y-83376711D01*
X189004939Y-83368800D01*
X188801061Y-83368800D01*
X188601102Y-83408574D01*
X188412744Y-83486595D01*
X188243226Y-83599863D01*
X188099063Y-83744026D01*
X187985795Y-83913544D01*
X187907774Y-84101902D01*
X187868000Y-84301861D01*
X187868000Y-84505739D01*
X187907774Y-84705698D01*
X187985795Y-84894056D01*
X188099063Y-85063574D01*
X188243226Y-85207737D01*
X188412744Y-85321005D01*
X188601102Y-85399026D01*
X188801061Y-85438800D01*
X188863199Y-85438800D01*
X194356069Y-90931672D01*
X194397861Y-90976545D01*
X194439265Y-91006391D01*
X194478723Y-91038773D01*
X194532817Y-91067687D01*
X194970166Y-91321833D01*
X194853363Y-91438636D01*
X194696320Y-91673668D01*
X194588147Y-91934821D01*
X194533000Y-92212060D01*
X194533000Y-92494730D01*
X194588147Y-92771969D01*
X194684393Y-93004327D01*
X194615188Y-93070339D01*
X194888740Y-94091245D01*
X194837141Y-94142844D01*
X195016749Y-94322452D01*
X195247954Y-94091246D01*
X195719007Y-93965028D01*
X195673131Y-94216917D01*
X195672359Y-94240488D01*
X194978543Y-94426396D01*
X195276157Y-95537107D01*
X195523232Y-95597098D01*
X195755689Y-95436270D01*
X195952304Y-95233181D01*
X195968891Y-95207465D01*
X196010553Y-95267683D01*
X196213642Y-95464298D01*
X196451186Y-95617515D01*
X196714057Y-95721444D01*
X196929495Y-95760681D01*
X196872608Y-95898019D01*
X196817461Y-96175258D01*
X196817461Y-96457928D01*
X196872608Y-96735167D01*
X196980781Y-96996320D01*
X197137824Y-97231352D01*
X197337702Y-97431230D01*
X197572734Y-97588273D01*
X197833887Y-97696446D01*
X198111126Y-97751593D01*
X198393796Y-97751593D01*
X198671035Y-97696446D01*
X198932188Y-97588273D01*
X199167220Y-97431230D01*
X199367098Y-97231352D01*
X199524141Y-96996320D01*
X199632314Y-96735167D01*
X199687461Y-96457928D01*
X199687461Y-96175258D01*
X199632314Y-95898019D01*
X199575590Y-95761076D01*
X199816035Y-95713248D01*
X200077188Y-95605075D01*
X200312220Y-95448032D01*
X200512098Y-95248154D01*
X200615504Y-95093395D01*
X205436083Y-95093395D01*
X205473405Y-95097071D01*
X205510727Y-95093395D01*
X205510738Y-95093395D01*
X205622391Y-95082398D01*
X205765652Y-95038941D01*
X205897681Y-94968369D01*
X206013406Y-94873396D01*
X206037209Y-94844392D01*
X210929024Y-89952578D01*
X199621729Y-109560000D01*
X134382279Y-109560000D01*
X134284576Y-109550420D01*
X134221643Y-109531420D01*
X134163594Y-109500554D01*
X134112657Y-109459011D01*
X134070752Y-109408356D01*
X134039485Y-109350529D01*
X134020044Y-109287728D01*
X134010000Y-109192165D01*
X134010000Y-108146702D01*
X149839903Y-108146702D01*
X149911486Y-108390671D01*
X150166996Y-108511571D01*
X150441184Y-108580300D01*
X150723512Y-108594217D01*
X151003130Y-108552787D01*
X151269292Y-108457603D01*
X151394514Y-108390671D01*
X151466097Y-108146702D01*
X150653000Y-107333605D01*
X149839903Y-108146702D01*
X134010000Y-108146702D01*
X134010000Y-107224512D01*
X149212783Y-107224512D01*
X149254213Y-107504130D01*
X149349397Y-107770292D01*
X149416329Y-107895514D01*
X149660298Y-107967097D01*
X150473395Y-107154000D01*
X150832605Y-107154000D01*
X151645702Y-107967097D01*
X151889671Y-107895514D01*
X152010571Y-107640004D01*
X152079300Y-107365816D01*
X152093217Y-107083488D01*
X152051787Y-106803870D01*
X151956603Y-106537708D01*
X151889671Y-106412486D01*
X151645702Y-106340903D01*
X150832605Y-107154000D01*
X150473395Y-107154000D01*
X149660298Y-106340903D01*
X149416329Y-106412486D01*
X149295429Y-106667996D01*
X149226700Y-106942184D01*
X149212783Y-107224512D01*
X134010000Y-107224512D01*
X134010000Y-100045419D01*
X139670000Y-100045419D01*
X139670000Y-100426581D01*
X139744361Y-100800419D01*
X139890225Y-101152566D01*
X140101987Y-101469491D01*
X140371509Y-101739013D01*
X140688434Y-101950775D01*
X141040581Y-102096639D01*
X141414419Y-102171000D01*
X141795581Y-102171000D01*
X142169419Y-102096639D01*
X142521566Y-101950775D01*
X142838491Y-101739013D01*
X143108013Y-101469491D01*
X143319775Y-101152566D01*
X143465639Y-100800419D01*
X143540000Y-100426581D01*
X143540000Y-100045419D01*
X143465639Y-99671581D01*
X143319775Y-99319434D01*
X143108013Y-99002509D01*
X142838491Y-98732987D01*
X142521566Y-98521225D01*
X142169419Y-98375361D01*
X141795581Y-98301000D01*
X141414419Y-98301000D01*
X141040581Y-98375361D01*
X140688434Y-98521225D01*
X140371509Y-98732987D01*
X140101987Y-99002509D01*
X139890225Y-99319434D01*
X139744361Y-99671581D01*
X139670000Y-100045419D01*
X134010000Y-100045419D01*
X134010000Y-85045419D01*
X139670000Y-85045419D01*
X139670000Y-85426581D01*
X139744361Y-85800419D01*
X139890225Y-86152566D01*
X140101987Y-86469491D01*
X140371509Y-86739013D01*
X140688434Y-86950775D01*
X141040581Y-87096639D01*
X141414419Y-87171000D01*
X141795581Y-87171000D01*
X142169419Y-87096639D01*
X142521566Y-86950775D01*
X142838491Y-86739013D01*
X143108013Y-86469491D01*
X143319775Y-86152566D01*
X143465639Y-85800419D01*
X143540000Y-85426581D01*
X143540000Y-85045419D01*
X143465639Y-84671581D01*
X143319775Y-84319434D01*
X143108013Y-84002509D01*
X142838491Y-83732987D01*
X142521566Y-83521225D01*
X142169419Y-83375361D01*
X141795581Y-83301000D01*
X141414419Y-83301000D01*
X141040581Y-83375361D01*
X140688434Y-83521225D01*
X140371509Y-83732987D01*
X140101987Y-84002509D01*
X139890225Y-84319434D01*
X139744361Y-84671581D01*
X139670000Y-85045419D01*
X134010000Y-85045419D01*
X134010000Y-78936000D01*
X139666928Y-78936000D01*
X139666928Y-81536000D01*
X139679188Y-81660482D01*
X139715498Y-81780180D01*
X139774463Y-81890494D01*
X139853815Y-81987185D01*
X139950506Y-82066537D01*
X140060820Y-82125502D01*
X140180518Y-82161812D01*
X140305000Y-82174072D01*
X142905000Y-82174072D01*
X143029482Y-82161812D01*
X143149180Y-82125502D01*
X143259494Y-82066537D01*
X143356185Y-81987185D01*
X143435537Y-81890494D01*
X143494502Y-81780180D01*
X143530812Y-81660482D01*
X143543072Y-81536000D01*
X143543072Y-78936000D01*
X143530812Y-78811518D01*
X143494502Y-78691820D01*
X143435537Y-78581506D01*
X143356185Y-78484815D01*
X143259494Y-78405463D01*
X143149180Y-78346498D01*
X143029482Y-78310188D01*
X142905000Y-78297928D01*
X140305000Y-78297928D01*
X140180518Y-78310188D01*
X140060820Y-78346498D01*
X139950506Y-78405463D01*
X139853815Y-78484815D01*
X139774463Y-78581506D01*
X139715498Y-78691820D01*
X139679188Y-78811518D01*
X139666928Y-78936000D01*
X134010000Y-78936000D01*
X134010000Y-72817955D01*
X136418450Y-72817955D01*
X136814634Y-73338350D01*
X137529612Y-73728548D01*
X138306976Y-73971764D01*
X139116853Y-74058651D01*
X139928118Y-73985869D01*
X140709597Y-73756215D01*
X141431256Y-73378515D01*
X141491366Y-73338350D01*
X141887550Y-72817955D01*
X139153000Y-70083405D01*
X136418450Y-72817955D01*
X134010000Y-72817955D01*
X134010000Y-69867653D01*
X134998149Y-69867653D01*
X135070931Y-70678918D01*
X135300585Y-71460397D01*
X135678285Y-72182056D01*
X135718450Y-72242166D01*
X136238845Y-72638350D01*
X138973395Y-69903800D01*
X139332605Y-69903800D01*
X142067155Y-72638350D01*
X142587550Y-72242166D01*
X142977748Y-71527188D01*
X143220964Y-70749824D01*
X143307851Y-69939947D01*
X143235069Y-69128682D01*
X143005415Y-68347203D01*
X142627715Y-67625544D01*
X142587550Y-67565434D01*
X142067155Y-67169250D01*
X139332605Y-69903800D01*
X138973395Y-69903800D01*
X136238845Y-67169250D01*
X135718450Y-67565434D01*
X135328252Y-68280412D01*
X135085036Y-69057776D01*
X134998149Y-69867653D01*
X134010000Y-69867653D01*
X134010000Y-66989645D01*
X136418450Y-66989645D01*
X139153000Y-69724195D01*
X141887550Y-66989645D01*
X141491366Y-66469250D01*
X140776388Y-66079052D01*
X139999024Y-65835836D01*
X139189147Y-65748949D01*
X138377882Y-65821731D01*
X137596403Y-66051385D01*
X136874744Y-66429085D01*
X136814634Y-66469250D01*
X136418450Y-66989645D01*
X134010000Y-66989645D01*
X134010000Y-64997816D01*
X137811352Y-63781768D01*
X142105484Y-62571553D01*
X146439234Y-61511939D01*
X150807316Y-60604217D01*
X155204445Y-59849487D01*
X159625221Y-59248677D01*
X164064238Y-58802520D01*
X168516165Y-58511550D01*
X172975530Y-58376127D01*
X177436893Y-58396418D01*
G37*
X177436893Y-58396418D02*
X181894818Y-58572394D01*
X186343904Y-58903844D01*
X190778726Y-59390364D01*
X195193826Y-60031355D01*
X199583891Y-60826045D01*
X203943576Y-61773468D01*
X208267481Y-62872450D01*
X212551905Y-64122104D01*
X215239998Y-64995518D01*
X215239999Y-79915997D01*
X214266793Y-78942792D01*
X214242990Y-78913788D01*
X214127265Y-78818815D01*
X213995236Y-78748243D01*
X213851975Y-78704786D01*
X213740322Y-78693789D01*
X213740311Y-78693789D01*
X213702989Y-78690113D01*
X213665667Y-78693789D01*
X210017791Y-78693789D01*
X204391957Y-73067955D01*
X206418450Y-73067955D01*
X206814634Y-73588350D01*
X207529612Y-73978548D01*
X208306976Y-74221764D01*
X209116853Y-74308651D01*
X209928118Y-74235869D01*
X210709597Y-74006215D01*
X211431256Y-73628515D01*
X211491366Y-73588350D01*
X211887550Y-73067955D01*
X209153000Y-70333405D01*
X206418450Y-73067955D01*
X204391957Y-73067955D01*
X201441655Y-70117653D01*
X204998149Y-70117653D01*
X205070931Y-70928918D01*
X205300585Y-71710397D01*
X205678285Y-72432056D01*
X205718450Y-72492166D01*
X206238845Y-72888350D01*
X208973395Y-70153800D01*
X209332605Y-70153800D01*
X212067155Y-72888350D01*
X212587550Y-72492166D01*
X212977748Y-71777188D01*
X213220964Y-70999824D01*
X213307851Y-70189947D01*
X213235069Y-69378682D01*
X213005415Y-68597203D01*
X212627715Y-67875544D01*
X212587550Y-67815434D01*
X212067155Y-67419250D01*
X209332605Y-70153800D01*
X208973395Y-70153800D01*
X206238845Y-67419250D01*
X205718450Y-67815434D01*
X205328252Y-68530412D01*
X205085036Y-69307776D01*
X204998149Y-70117653D01*
X201441655Y-70117653D01*
X201415141Y-70091140D01*
X201473512Y-70094017D01*
X201753130Y-70052587D01*
X202019292Y-69957403D01*
X202144514Y-69890471D01*
X202216097Y-69646502D01*
X201403000Y-68833405D01*
X201388858Y-68847548D01*
X201209253Y-68667943D01*
X201223395Y-68653800D01*
X201582605Y-68653800D01*
X202395702Y-69466897D01*
X202639671Y-69395314D01*
X202760571Y-69139804D01*
X202829300Y-68865616D01*
X202843217Y-68583288D01*
X202801787Y-68303670D01*
X202706603Y-68037508D01*
X202639671Y-67912286D01*
X202395702Y-67840703D01*
X201582605Y-68653800D01*
X201223395Y-68653800D01*
X200410298Y-67840703D01*
X200166329Y-67912286D01*
X200045429Y-68167796D01*
X199976700Y-68441984D01*
X199966801Y-68642800D01*
X198985099Y-67661098D01*
X200589903Y-67661098D01*
X201403000Y-68474195D01*
X202216097Y-67661098D01*
X202144514Y-67417129D01*
X201889004Y-67296229D01*
X201663268Y-67239645D01*
X206418450Y-67239645D01*
X209153000Y-69974195D01*
X211887550Y-67239645D01*
X211491366Y-66719250D01*
X210776388Y-66329052D01*
X209999024Y-66085836D01*
X209189147Y-65998949D01*
X208377882Y-66071731D01*
X207596403Y-66301385D01*
X206874744Y-66679085D01*
X206814634Y-66719250D01*
X206418450Y-67239645D01*
X201663268Y-67239645D01*
X201614816Y-67227500D01*
X201332488Y-67213583D01*
X201052870Y-67255013D01*
X200786708Y-67350197D01*
X200661486Y-67417129D01*
X200589903Y-67661098D01*
X198985099Y-67661098D01*
X198438000Y-67113999D01*
X198438000Y-67051861D01*
X198398226Y-66851902D01*
X198320205Y-66663544D01*
X198206937Y-66494026D01*
X198062774Y-66349863D01*
X197893256Y-66236595D01*
X197704898Y-66158574D01*
X197504939Y-66118800D01*
X197301061Y-66118800D01*
X197101102Y-66158574D01*
X196912744Y-66236595D01*
X196743226Y-66349863D01*
X196599063Y-66494026D01*
X196485795Y-66663544D01*
X196407774Y-66851902D01*
X196368000Y-67051861D01*
X196368000Y-67255739D01*
X196407774Y-67455698D01*
X196485795Y-67644056D01*
X196599063Y-67813574D01*
X196743226Y-67957737D01*
X196912744Y-68071005D01*
X197101102Y-68149026D01*
X197301061Y-68188800D01*
X197363199Y-68188800D01*
X205068198Y-75893800D01*
X203690322Y-75893800D01*
X203652999Y-75890124D01*
X203615676Y-75893800D01*
X203615667Y-75893800D01*
X203504014Y-75904797D01*
X203360753Y-75948254D01*
X203228723Y-76018826D01*
X203167225Y-76069297D01*
X203112999Y-76113799D01*
X203089201Y-76142797D01*
X200708000Y-78523999D01*
X200708000Y-78262465D01*
X200652853Y-77985226D01*
X200544680Y-77724073D01*
X200387637Y-77489041D01*
X200187759Y-77289163D01*
X199952727Y-77132120D01*
X199691574Y-77023947D01*
X199414335Y-76968800D01*
X199131665Y-76968800D01*
X198854426Y-77023947D01*
X198593273Y-77132120D01*
X198358241Y-77289163D01*
X198158363Y-77489041D01*
X198001320Y-77724073D01*
X197893147Y-77985226D01*
X197838000Y-78262465D01*
X197838000Y-78545135D01*
X197893147Y-78822374D01*
X198001320Y-79083527D01*
X198041593Y-79143800D01*
X197467802Y-79143800D01*
X193000600Y-74676599D01*
X193000600Y-69856876D01*
X193103273Y-69925480D01*
X193364426Y-70033653D01*
X193641665Y-70088800D01*
X193924335Y-70088800D01*
X194201574Y-70033653D01*
X194462727Y-69925480D01*
X194697759Y-69768437D01*
X194897637Y-69568559D01*
X195054680Y-69333527D01*
X195162853Y-69072374D01*
X195218000Y-68795135D01*
X195218000Y-68512465D01*
X195162853Y-68235226D01*
X195054680Y-67974073D01*
X194897637Y-67739041D01*
X194697759Y-67539163D01*
X194462727Y-67382120D01*
X194201574Y-67273947D01*
X193924335Y-67218800D01*
X193641665Y-67218800D01*
X193364426Y-67273947D01*
X193103273Y-67382120D01*
X192868241Y-67539163D01*
X192668363Y-67739041D01*
X192511320Y-67974073D01*
X192434188Y-68160286D01*
X190691304Y-66417403D01*
X190667501Y-66388399D01*
X190551776Y-66293426D01*
X190434170Y-66230563D01*
X190530932Y-65996958D01*
X190588000Y-65710060D01*
X190588000Y-65417540D01*
X190530932Y-65130642D01*
X190418990Y-64860389D01*
X190256475Y-64617168D01*
X190049632Y-64410325D01*
X189806411Y-64247810D01*
X189536158Y-64135868D01*
X189249260Y-64078800D01*
X188956740Y-64078800D01*
X188669842Y-64135868D01*
X188399589Y-64247810D01*
X188156368Y-64410325D01*
X187949525Y-64617168D01*
X187827805Y-64799334D01*
X187758178Y-64682445D01*
X187563269Y-64466212D01*
X187329920Y-64292159D01*
X187067099Y-64166975D01*
X186919890Y-64122324D01*
X186690000Y-64243645D01*
X186690000Y-65436800D01*
X186710000Y-65436800D01*
X186710000Y-65690800D01*
X186690000Y-65690800D01*
X186690000Y-67976800D01*
X186710000Y-67976800D01*
X186710000Y-68230800D01*
X186690000Y-68230800D01*
X186690000Y-68250800D01*
X186436000Y-68250800D01*
X186436000Y-68230800D01*
X186416000Y-68230800D01*
X186416000Y-67976800D01*
X186436000Y-67976800D01*
X186436000Y-65690800D01*
X186416000Y-65690800D01*
X186416000Y-65436800D01*
X186436000Y-65436800D01*
X186436000Y-64243645D01*
X186206110Y-64122324D01*
X186108001Y-64152082D01*
X186108001Y-63314816D01*
X186112041Y-63273800D01*
X186108001Y-63232782D01*
X186095919Y-63110112D01*
X186048173Y-62952714D01*
X185970637Y-62807655D01*
X185866292Y-62680510D01*
X185834428Y-62654361D01*
X185427093Y-62247025D01*
X185398226Y-62101902D01*
X185320205Y-61913544D01*
X185206937Y-61744026D01*
X185062774Y-61599863D01*
X184893256Y-61486595D01*
X184704898Y-61408574D01*
X184504939Y-61368800D01*
X184301061Y-61368800D01*
X184101102Y-61408574D01*
X183912744Y-61486595D01*
X183782231Y-61573801D01*
X183386453Y-61573801D01*
X183338255Y-61541596D01*
X183149897Y-61463575D01*
X182949938Y-61423801D01*
X182746060Y-61423801D01*
X182546101Y-61463575D01*
X182357743Y-61541596D01*
X182188225Y-61654864D01*
X182044062Y-61799027D01*
X181930794Y-61968545D01*
X181852773Y-62156903D01*
X181812999Y-62356862D01*
X181812999Y-62560740D01*
X181852773Y-62760699D01*
X181930794Y-62949057D01*
X182012999Y-63072086D01*
X182013000Y-64175981D01*
X181916158Y-64135868D01*
X181629260Y-64078800D01*
X181336740Y-64078800D01*
X181116592Y-64122590D01*
X177636804Y-60642803D01*
X177613001Y-60613799D01*
X177497276Y-60518826D01*
X177365247Y-60448254D01*
X177221986Y-60404797D01*
X177110333Y-60393800D01*
X177110322Y-60393800D01*
X177073000Y-60390124D01*
X177035678Y-60393800D01*
X155440323Y-60393800D01*
X155403000Y-60390124D01*
X155365677Y-60393800D01*
X155365667Y-60393800D01*
X155254014Y-60404797D01*
X155111079Y-60448155D01*
X155110753Y-60448254D01*
X154978723Y-60518826D01*
X154898951Y-60584294D01*
X154862999Y-60613799D01*
X154839201Y-60642797D01*
X144773498Y-70708501D01*
X144744500Y-70732299D01*
X144720702Y-70761297D01*
X144720701Y-70761298D01*
X144649526Y-70848024D01*
X144578954Y-70980054D01*
X144571163Y-71005739D01*
X144538066Y-71114850D01*
X144535498Y-71123315D01*
X144520824Y-71272300D01*
X144524501Y-71309633D01*
X144524500Y-86241698D01*
X142325986Y-88440213D01*
X142169419Y-88375361D01*
X141795581Y-88301000D01*
X141414419Y-88301000D01*
X141040581Y-88375361D01*
X140688434Y-88521225D01*
X140371509Y-88732987D01*
X140101987Y-89002509D01*
X139890225Y-89319434D01*
X139744361Y-89671581D01*
X139670000Y-90045419D01*
X139670000Y-90426581D01*
X139744361Y-90800419D01*
X139890225Y-91152566D01*
X140101987Y-91469491D01*
X140371509Y-91739013D01*
X140688434Y-91950775D01*
X141040581Y-92096639D01*
X141414419Y-92171000D01*
X141795581Y-92171000D01*
X142169419Y-92096639D01*
X142521566Y-91950775D01*
X142838491Y-91739013D01*
X143108013Y-91469491D01*
X143319775Y-91152566D01*
X143465639Y-90800419D01*
X143540000Y-90426581D01*
X143540000Y-90045419D01*
X143465639Y-89671581D01*
X143400787Y-89515014D01*
X145393000Y-87522802D01*
X145393000Y-90373198D01*
X142325986Y-93440213D01*
X142169419Y-93375361D01*
X141795581Y-93301000D01*
X141414419Y-93301000D01*
X141040581Y-93375361D01*
X140688434Y-93521225D01*
X140371509Y-93732987D01*
X140101987Y-94002509D01*
X139890225Y-94319434D01*
X139744361Y-94671581D01*
X139670000Y-95045419D01*
X139670000Y-95426581D01*
X139744361Y-95800419D01*
X139890225Y-96152566D01*
X140101987Y-96469491D01*
X140371509Y-96739013D01*
X140688434Y-96950775D01*
X141040581Y-97096639D01*
X141414419Y-97171000D01*
X141795581Y-97171000D01*
X142169419Y-97096639D01*
X142521566Y-96950775D01*
X142838491Y-96739013D01*
X143108013Y-96469491D01*
X143319775Y-96152566D01*
X143465639Y-95800419D01*
X143540000Y-95426581D01*
X143540000Y-95045419D01*
X143465639Y-94671581D01*
X143400787Y-94515014D01*
X146664004Y-91251798D01*
X146693001Y-91228001D01*
X146787974Y-91112276D01*
X146858546Y-90980247D01*
X146902003Y-90836986D01*
X146913000Y-90725333D01*
X146913000Y-90725324D01*
X146916676Y-90688001D01*
X146913000Y-90650678D01*
X146913000Y-71718601D01*
X149869136Y-68762465D01*
X153598000Y-68762465D01*
X153598000Y-69045135D01*
X153653147Y-69322374D01*
X153761320Y-69583527D01*
X153918363Y-69818559D01*
X154118241Y-70018437D01*
X154353273Y-70175480D01*
X154614426Y-70283653D01*
X154891665Y-70338800D01*
X155174335Y-70338800D01*
X155451574Y-70283653D01*
X155712727Y-70175480D01*
X155947759Y-70018437D01*
X156147637Y-69818559D01*
X156304680Y-69583527D01*
X156412853Y-69322374D01*
X156468000Y-69045135D01*
X156468000Y-68762465D01*
X156412853Y-68485226D01*
X156304680Y-68224073D01*
X156147637Y-67989041D01*
X155947759Y-67789163D01*
X155712727Y-67632120D01*
X155451574Y-67523947D01*
X155174335Y-67468800D01*
X154891665Y-67468800D01*
X154614426Y-67523947D01*
X154353273Y-67632120D01*
X154118241Y-67789163D01*
X153918363Y-67989041D01*
X153761320Y-68224073D01*
X153653147Y-68485226D01*
X153598000Y-68762465D01*
X149869136Y-68762465D01*
X153424692Y-65206909D01*
X164801519Y-65206909D01*
X164922186Y-65436800D01*
X166116000Y-65436800D01*
X166116000Y-64243645D01*
X166370000Y-64243645D01*
X166370000Y-65436800D01*
X168656000Y-65436800D01*
X168656000Y-64243645D01*
X168910000Y-64243645D01*
X168910000Y-65436800D01*
X171196000Y-65436800D01*
X171196000Y-64243645D01*
X171450000Y-64243645D01*
X171450000Y-65436800D01*
X173736000Y-65436800D01*
X173736000Y-64243645D01*
X173506110Y-64122324D01*
X173358901Y-64166975D01*
X173096080Y-64292159D01*
X172862731Y-64466212D01*
X172667822Y-64682445D01*
X172593000Y-64808055D01*
X172518178Y-64682445D01*
X172323269Y-64466212D01*
X172089920Y-64292159D01*
X171827099Y-64166975D01*
X171679890Y-64122324D01*
X171450000Y-64243645D01*
X171196000Y-64243645D01*
X170966110Y-64122324D01*
X170818901Y-64166975D01*
X170556080Y-64292159D01*
X170322731Y-64466212D01*
X170127822Y-64682445D01*
X170053000Y-64808055D01*
X169978178Y-64682445D01*
X169783269Y-64466212D01*
X169549920Y-64292159D01*
X169287099Y-64166975D01*
X169139890Y-64122324D01*
X168910000Y-64243645D01*
X168656000Y-64243645D01*
X168426110Y-64122324D01*
X168278901Y-64166975D01*
X168016080Y-64292159D01*
X167782731Y-64466212D01*
X167587822Y-64682445D01*
X167513000Y-64808055D01*
X167438178Y-64682445D01*
X167243269Y-64466212D01*
X167009920Y-64292159D01*
X166747099Y-64166975D01*
X166599890Y-64122324D01*
X166370000Y-64243645D01*
X166116000Y-64243645D01*
X165886110Y-64122324D01*
X165738901Y-64166975D01*
X165476080Y-64292159D01*
X165242731Y-64466212D01*
X165047822Y-64682445D01*
X164898843Y-64932548D01*
X164801519Y-65206909D01*
X153424692Y-65206909D01*
X156217802Y-62413800D01*
X176392099Y-62413800D01*
X178231508Y-64253210D01*
X177996368Y-64410325D01*
X177789525Y-64617168D01*
X177673000Y-64791560D01*
X177556475Y-64617168D01*
X177349632Y-64410325D01*
X177106411Y-64247810D01*
X176836158Y-64135868D01*
X176549260Y-64078800D01*
X176256740Y-64078800D01*
X175969842Y-64135868D01*
X175699589Y-64247810D01*
X175456368Y-64410325D01*
X175249525Y-64617168D01*
X175127805Y-64799334D01*
X175058178Y-64682445D01*
X174863269Y-64466212D01*
X174629920Y-64292159D01*
X174367099Y-64166975D01*
X174219890Y-64122324D01*
X173990000Y-64243645D01*
X173990000Y-65436800D01*
X174010000Y-65436800D01*
X174010000Y-65690800D01*
X173990000Y-65690800D01*
X173990000Y-65710800D01*
X173736000Y-65710800D01*
X173736000Y-65690800D01*
X171450000Y-65690800D01*
X171450000Y-65710800D01*
X171196000Y-65710800D01*
X171196000Y-65690800D01*
X168910000Y-65690800D01*
X168910000Y-65710800D01*
X168656000Y-65710800D01*
X168656000Y-65690800D01*
X166370000Y-65690800D01*
X166370000Y-65710800D01*
X166116000Y-65710800D01*
X166116000Y-65690800D01*
X164922186Y-65690800D01*
X164801519Y-65920691D01*
X164898843Y-66195052D01*
X165047822Y-66445155D01*
X165242731Y-66661388D01*
X165472406Y-66832700D01*
X165296368Y-66950325D01*
X165089525Y-67157168D01*
X164927010Y-67400389D01*
X164815068Y-67670642D01*
X164758000Y-67957540D01*
X164758000Y-68250060D01*
X164815068Y-68536958D01*
X164927010Y-68807211D01*
X165089525Y-69050432D01*
X165296368Y-69257275D01*
X165331276Y-69280600D01*
X164041162Y-69280600D01*
X164088000Y-69045135D01*
X164088000Y-68762465D01*
X164032853Y-68485226D01*
X163924680Y-68224073D01*
X163767637Y-67989041D01*
X163567759Y-67789163D01*
X163332727Y-67632120D01*
X163071574Y-67523947D01*
X162794335Y-67468800D01*
X162511665Y-67468800D01*
X162234426Y-67523947D01*
X161973273Y-67632120D01*
X161738241Y-67789163D01*
X161538363Y-67989041D01*
X161381320Y-68224073D01*
X161273147Y-68485226D01*
X161218000Y-68762465D01*
X161218000Y-69045135D01*
X161264838Y-69280600D01*
X157725022Y-69280600D01*
X157687699Y-69276924D01*
X157650376Y-69280600D01*
X157650367Y-69280600D01*
X157538714Y-69291597D01*
X157424648Y-69326198D01*
X157395453Y-69335054D01*
X157263423Y-69405626D01*
X157190131Y-69465776D01*
X157147699Y-69500599D01*
X157123901Y-69529597D01*
X148630703Y-78022796D01*
X148601699Y-78046599D01*
X148556025Y-78102254D01*
X148506726Y-78162324D01*
X148453199Y-78262465D01*
X148436154Y-78294354D01*
X148392697Y-78437615D01*
X148381700Y-78549268D01*
X148381700Y-78549278D01*
X148378024Y-78586600D01*
X148381700Y-78623922D01*
X148381701Y-97384497D01*
X142325986Y-103440213D01*
X142169419Y-103375361D01*
X141795581Y-103301000D01*
X141414419Y-103301000D01*
X141040581Y-103375361D01*
X140688434Y-103521225D01*
X140371509Y-103732987D01*
X140101987Y-104002509D01*
X139890225Y-104319434D01*
X139744361Y-104671581D01*
X139670000Y-105045419D01*
X139670000Y-105426581D01*
X139744361Y-105800419D01*
X139890225Y-106152566D01*
X140101987Y-106469491D01*
X140371509Y-106739013D01*
X140688434Y-106950775D01*
X141040581Y-107096639D01*
X141414419Y-107171000D01*
X141795581Y-107171000D01*
X142169419Y-107096639D01*
X142521566Y-106950775D01*
X142838491Y-106739013D01*
X143108013Y-106469491D01*
X143313940Y-106161298D01*
X149839903Y-106161298D01*
X150653000Y-106974395D01*
X151466097Y-106161298D01*
X151394514Y-105917329D01*
X151139004Y-105796429D01*
X150864816Y-105727700D01*
X150582488Y-105713783D01*
X150302870Y-105755213D01*
X150036708Y-105850397D01*
X149911486Y-105917329D01*
X149839903Y-106161298D01*
X143313940Y-106161298D01*
X143319775Y-106152566D01*
X143465639Y-105800419D01*
X143540000Y-105426581D01*
X143540000Y-105045419D01*
X143465639Y-104671581D01*
X143400787Y-104515014D01*
X145903136Y-102012665D01*
X149218000Y-102012665D01*
X149218000Y-102295335D01*
X149273147Y-102572574D01*
X149381320Y-102833727D01*
X149538363Y-103068759D01*
X149738241Y-103268637D01*
X149973273Y-103425680D01*
X150234426Y-103533853D01*
X150511665Y-103589000D01*
X150794335Y-103589000D01*
X151071574Y-103533853D01*
X151332727Y-103425680D01*
X151567759Y-103268637D01*
X151767637Y-103068759D01*
X151924680Y-102833727D01*
X152032853Y-102572574D01*
X152088000Y-102295335D01*
X152088000Y-102012665D01*
X152032853Y-101735426D01*
X151924680Y-101474273D01*
X151767637Y-101239241D01*
X151567759Y-101039363D01*
X151332727Y-100882320D01*
X151071574Y-100774147D01*
X150794335Y-100719000D01*
X150511665Y-100719000D01*
X150234426Y-100774147D01*
X149973273Y-100882320D01*
X149738241Y-101039363D01*
X149538363Y-101239241D01*
X149381320Y-101474273D01*
X149273147Y-101735426D01*
X149218000Y-102012665D01*
X145903136Y-102012665D01*
X149652703Y-98263099D01*
X149681701Y-98239301D01*
X149776674Y-98123576D01*
X149847246Y-97991547D01*
X149867527Y-97924688D01*
X149996957Y-98011171D01*
X150249011Y-98115575D01*
X150516589Y-98168800D01*
X150789411Y-98168800D01*
X151056989Y-98115575D01*
X151309043Y-98011171D01*
X151535886Y-97859599D01*
X151728799Y-97666686D01*
X151880371Y-97439843D01*
X151984775Y-97187789D01*
X152038000Y-96920211D01*
X152038000Y-96647389D01*
X151984775Y-96379811D01*
X151880371Y-96127757D01*
X151728799Y-95900914D01*
X151535886Y-95708001D01*
X151309043Y-95556429D01*
X151056989Y-95452025D01*
X150789411Y-95398800D01*
X150516589Y-95398800D01*
X150249011Y-95452025D01*
X149996957Y-95556429D01*
X149901700Y-95620078D01*
X149901700Y-93067522D01*
X149996957Y-93131171D01*
X150249011Y-93235575D01*
X150516589Y-93288800D01*
X150789411Y-93288800D01*
X151056989Y-93235575D01*
X151309043Y-93131171D01*
X151535886Y-92979599D01*
X151728799Y-92786686D01*
X151880371Y-92559843D01*
X151984775Y-92307789D01*
X152038000Y-92040211D01*
X152038000Y-91767389D01*
X151984775Y-91499811D01*
X151880371Y-91247757D01*
X151728799Y-91020914D01*
X151535886Y-90828001D01*
X151309043Y-90676429D01*
X151056989Y-90572025D01*
X150789411Y-90518800D01*
X150516589Y-90518800D01*
X150249011Y-90572025D01*
X149996957Y-90676429D01*
X149901700Y-90740078D01*
X149901700Y-87627657D01*
X149973273Y-87675480D01*
X150234426Y-87783653D01*
X150511665Y-87838800D01*
X150794335Y-87838800D01*
X151071574Y-87783653D01*
X151332727Y-87675480D01*
X151567759Y-87518437D01*
X151767637Y-87318559D01*
X151924680Y-87083527D01*
X152032853Y-86822374D01*
X152088000Y-86545135D01*
X152088000Y-86262465D01*
X152032853Y-85985226D01*
X151924680Y-85724073D01*
X151767637Y-85489041D01*
X151567759Y-85289163D01*
X151332727Y-85132120D01*
X151071574Y-85023947D01*
X150794335Y-84968800D01*
X150511665Y-84968800D01*
X150234426Y-85023947D01*
X149973273Y-85132120D01*
X149901700Y-85179943D01*
X149901700Y-82607118D01*
X149911486Y-82640471D01*
X150166996Y-82761371D01*
X150441184Y-82830100D01*
X150723512Y-82844017D01*
X151003130Y-82802587D01*
X151269292Y-82707403D01*
X151394514Y-82640471D01*
X151466097Y-82396502D01*
X150653000Y-81583405D01*
X150638858Y-81597548D01*
X150459253Y-81417943D01*
X150473395Y-81403800D01*
X150832605Y-81403800D01*
X151645702Y-82216897D01*
X151889671Y-82145314D01*
X152010571Y-81889804D01*
X152079300Y-81615616D01*
X152093217Y-81333288D01*
X152051787Y-81053670D01*
X151956603Y-80787508D01*
X151889671Y-80662286D01*
X151645702Y-80590703D01*
X150832605Y-81403800D01*
X150473395Y-81403800D01*
X150459253Y-81389658D01*
X150638858Y-81210053D01*
X150653000Y-81224195D01*
X151466097Y-80411098D01*
X151394514Y-80167129D01*
X151139004Y-80046229D01*
X150864816Y-79977500D01*
X150582488Y-79963583D01*
X150302870Y-80005013D01*
X150036708Y-80100197D01*
X149911486Y-80167129D01*
X149901700Y-80200482D01*
X149901700Y-78901401D01*
X154214928Y-74588174D01*
X154214928Y-74953800D01*
X154227188Y-75078282D01*
X154263498Y-75197980D01*
X154322463Y-75308294D01*
X154401815Y-75404985D01*
X154498506Y-75484337D01*
X154608820Y-75543302D01*
X154728518Y-75579612D01*
X154736961Y-75580443D01*
X154538363Y-75779041D01*
X154381320Y-76014073D01*
X154273147Y-76275226D01*
X154218000Y-76552465D01*
X154218000Y-76835135D01*
X154273147Y-77112374D01*
X154381320Y-77373527D01*
X154538363Y-77608559D01*
X154738241Y-77808437D01*
X154898842Y-77915747D01*
X154903997Y-77968086D01*
X154914167Y-78001613D01*
X154738241Y-78119163D01*
X154538363Y-78319041D01*
X154381320Y-78554073D01*
X154273147Y-78815226D01*
X154218000Y-79092465D01*
X154218000Y-79375135D01*
X154273147Y-79652374D01*
X154381320Y-79913527D01*
X154525977Y-80130022D01*
X153998102Y-80657897D01*
X153969099Y-80681699D01*
X153930279Y-80729002D01*
X153874126Y-80797424D01*
X153819778Y-80899101D01*
X153803554Y-80929454D01*
X153760097Y-81072715D01*
X153749100Y-81184368D01*
X153749100Y-81184378D01*
X153745424Y-81221700D01*
X153749100Y-81259022D01*
X153749101Y-105065367D01*
X153745424Y-105102700D01*
X153749101Y-105140033D01*
X153760098Y-105251686D01*
X153765297Y-105268826D01*
X153803554Y-105394946D01*
X153874126Y-105526976D01*
X153943538Y-105611554D01*
X153969100Y-105642701D01*
X153998097Y-105666499D01*
X154564501Y-106232903D01*
X154538363Y-106259041D01*
X154381320Y-106494073D01*
X154273147Y-106755226D01*
X154218000Y-107032465D01*
X154218000Y-107315135D01*
X154273147Y-107592374D01*
X154381320Y-107853527D01*
X154538363Y-108088559D01*
X154738241Y-108288437D01*
X154973273Y-108445480D01*
X155234426Y-108553653D01*
X155511665Y-108608800D01*
X155794335Y-108608800D01*
X156071574Y-108553653D01*
X156332727Y-108445480D01*
X156567759Y-108288437D01*
X156767637Y-108088559D01*
X156924680Y-107853527D01*
X157032853Y-107592374D01*
X157088000Y-107315135D01*
X157088000Y-107032465D01*
X157032853Y-106755226D01*
X156994983Y-106663800D01*
X159463199Y-106663800D01*
X161630901Y-108831503D01*
X161654699Y-108860501D01*
X161683697Y-108884299D01*
X161770423Y-108955474D01*
X161854432Y-109000378D01*
X161902453Y-109026046D01*
X162045714Y-109069503D01*
X162157367Y-109080500D01*
X162157377Y-109080500D01*
X162194700Y-109084176D01*
X162232023Y-109080500D01*
X177353878Y-109080500D01*
X177391200Y-109084176D01*
X177428522Y-109080500D01*
X177428533Y-109080500D01*
X177540186Y-109069503D01*
X177683447Y-109026046D01*
X177815476Y-108955474D01*
X177931201Y-108860501D01*
X177955004Y-108831497D01*
X179302697Y-107483804D01*
X179456368Y-107637475D01*
X179699589Y-107799990D01*
X179969842Y-107911932D01*
X180256740Y-107969000D01*
X180549260Y-107969000D01*
X180836158Y-107911932D01*
X181106411Y-107799990D01*
X181349632Y-107637475D01*
X181556475Y-107430632D01*
X181673000Y-107256240D01*
X181789525Y-107430632D01*
X181996368Y-107637475D01*
X182239589Y-107799990D01*
X182509842Y-107911932D01*
X182796740Y-107969000D01*
X183089260Y-107969000D01*
X183376158Y-107911932D01*
X183646411Y-107799990D01*
X183889632Y-107637475D01*
X184096475Y-107430632D01*
X184258990Y-107187411D01*
X184370932Y-106917158D01*
X184428000Y-106630260D01*
X184428000Y-106337740D01*
X184370932Y-106050842D01*
X184258990Y-105780589D01*
X184096475Y-105537368D01*
X183889632Y-105330525D01*
X183715240Y-105214000D01*
X183889632Y-105097475D01*
X184096475Y-104890632D01*
X184258990Y-104647411D01*
X184370932Y-104377158D01*
X184428000Y-104090260D01*
X184428000Y-103797740D01*
X184370932Y-103510842D01*
X184258990Y-103240589D01*
X184096475Y-102997368D01*
X184091654Y-102992547D01*
X185351403Y-101732799D01*
X185380401Y-101709001D01*
X185408119Y-101675226D01*
X185475374Y-101593277D01*
X185545946Y-101461247D01*
X185559521Y-101416492D01*
X189590256Y-101416492D01*
X189590256Y-101935542D01*
X189691517Y-102444618D01*
X189890149Y-102924158D01*
X190178518Y-103355732D01*
X190545541Y-103722755D01*
X190977115Y-104011124D01*
X191456655Y-104209756D01*
X191965731Y-104311017D01*
X192484781Y-104311017D01*
X192993857Y-104209756D01*
X193473397Y-104011124D01*
X193904971Y-103722755D01*
X194271994Y-103355732D01*
X194560363Y-102924158D01*
X194758995Y-102444618D01*
X194860256Y-101935542D01*
X194860256Y-101416492D01*
X194758995Y-100907416D01*
X194560363Y-100427876D01*
X194271994Y-99996302D01*
X193904971Y-99629279D01*
X193473397Y-99340910D01*
X192993857Y-99142278D01*
X192484781Y-99041017D01*
X191965731Y-99041017D01*
X191456655Y-99142278D01*
X190977115Y-99340910D01*
X190545541Y-99629279D01*
X190178518Y-99996302D01*
X189890149Y-100427876D01*
X189691517Y-100907416D01*
X189590256Y-101416492D01*
X185559521Y-101416492D01*
X185563311Y-101404000D01*
X185589403Y-101317986D01*
X185600400Y-101206333D01*
X185600400Y-101206323D01*
X185604076Y-101169001D01*
X185600400Y-101131678D01*
X185600400Y-95036825D01*
X193562495Y-95036825D01*
X193723323Y-95269282D01*
X193926412Y-95465897D01*
X194163956Y-95619114D01*
X194426827Y-95723043D01*
X194704923Y-95773692D01*
X194846834Y-95778339D01*
X195030812Y-95602847D01*
X194733197Y-94492136D01*
X193622486Y-94789750D01*
X193562495Y-95036825D01*
X185600400Y-95036825D01*
X185600400Y-94360427D01*
X193381254Y-94360427D01*
X193556746Y-94544405D01*
X194667457Y-94246790D01*
X194369843Y-93136079D01*
X194122768Y-93076088D01*
X193890311Y-93236916D01*
X193693696Y-93440005D01*
X193540479Y-93677549D01*
X193436550Y-93940420D01*
X193385901Y-94218516D01*
X193381254Y-94360427D01*
X185600400Y-94360427D01*
X185600400Y-92341872D01*
X186203000Y-92341872D01*
X186327482Y-92329612D01*
X186447180Y-92293302D01*
X186557494Y-92234337D01*
X186654185Y-92154985D01*
X186733537Y-92058294D01*
X186792502Y-91947980D01*
X186808117Y-91896502D01*
X188089903Y-91896502D01*
X188161486Y-92140471D01*
X188416996Y-92261371D01*
X188691184Y-92330100D01*
X188973512Y-92344017D01*
X189253130Y-92302587D01*
X189519292Y-92207403D01*
X189644514Y-92140471D01*
X189716097Y-91896502D01*
X188903000Y-91083405D01*
X188089903Y-91896502D01*
X186808117Y-91896502D01*
X186828812Y-91828282D01*
X186841072Y-91703800D01*
X186841072Y-90974312D01*
X187462783Y-90974312D01*
X187504213Y-91253930D01*
X187599397Y-91520092D01*
X187666329Y-91645314D01*
X187910298Y-91716897D01*
X188723395Y-90903800D01*
X189082605Y-90903800D01*
X189895702Y-91716897D01*
X190139671Y-91645314D01*
X190260571Y-91389804D01*
X190329300Y-91115616D01*
X190343217Y-90833288D01*
X190301787Y-90553670D01*
X190206603Y-90287508D01*
X190139671Y-90162286D01*
X189895702Y-90090703D01*
X189082605Y-90903800D01*
X188723395Y-90903800D01*
X187910298Y-90090703D01*
X187666329Y-90162286D01*
X187545429Y-90417796D01*
X187476700Y-90691984D01*
X187462783Y-90974312D01*
X186841072Y-90974312D01*
X186841072Y-90103800D01*
X186828812Y-89979318D01*
X186808118Y-89911098D01*
X188089903Y-89911098D01*
X188903000Y-90724195D01*
X189716097Y-89911098D01*
X189644514Y-89667129D01*
X189389004Y-89546229D01*
X189114816Y-89477500D01*
X188832488Y-89463583D01*
X188552870Y-89505013D01*
X188286708Y-89600197D01*
X188161486Y-89667129D01*
X188089903Y-89911098D01*
X186808118Y-89911098D01*
X186792502Y-89859620D01*
X186733537Y-89749306D01*
X186654185Y-89652615D01*
X186557494Y-89573263D01*
X186447180Y-89514298D01*
X186327482Y-89477988D01*
X186203000Y-89465728D01*
X184603000Y-89465728D01*
X184478518Y-89477988D01*
X184358820Y-89514298D01*
X184248506Y-89573263D01*
X184151815Y-89652615D01*
X184129053Y-89680351D01*
X176836804Y-82388103D01*
X176826819Y-82375936D01*
X176902853Y-82192374D01*
X176942837Y-81991364D01*
X178130401Y-80803800D01*
X178914928Y-80803800D01*
X178914928Y-83003800D01*
X178927188Y-83128282D01*
X178963498Y-83247980D01*
X179022463Y-83358294D01*
X179101815Y-83454985D01*
X179198506Y-83534337D01*
X179308820Y-83593302D01*
X179428518Y-83629612D01*
X179553000Y-83641872D01*
X181753000Y-83641872D01*
X181877482Y-83629612D01*
X181997180Y-83593302D01*
X182107494Y-83534337D01*
X182204185Y-83454985D01*
X182283537Y-83358294D01*
X182342502Y-83247980D01*
X182378812Y-83128282D01*
X182391072Y-83003800D01*
X182391072Y-80803800D01*
X182378812Y-80679318D01*
X182342502Y-80559620D01*
X182283537Y-80449306D01*
X182204185Y-80352615D01*
X182107494Y-80273263D01*
X181997180Y-80214298D01*
X181877482Y-80177988D01*
X181753000Y-80165728D01*
X179553000Y-80165728D01*
X179428518Y-80177988D01*
X179308820Y-80214298D01*
X179198506Y-80273263D01*
X179101815Y-80352615D01*
X179022463Y-80449306D01*
X178963498Y-80559620D01*
X178927188Y-80679318D01*
X178914928Y-80803800D01*
X178130401Y-80803800D01*
X181164004Y-77770198D01*
X181193001Y-77746401D01*
X181287974Y-77630676D01*
X181358546Y-77498647D01*
X181402003Y-77355386D01*
X181413000Y-77243733D01*
X181413000Y-77243732D01*
X181416677Y-77206400D01*
X181413000Y-77169067D01*
X181413000Y-75846948D01*
X181474831Y-75821337D01*
X181651001Y-75703624D01*
X181651000Y-79189077D01*
X181647324Y-79226400D01*
X181651000Y-79263722D01*
X181651000Y-79263732D01*
X181661997Y-79375385D01*
X181701539Y-79505739D01*
X181705454Y-79518646D01*
X181776026Y-79650676D01*
X181798450Y-79677999D01*
X181870999Y-79766401D01*
X181900002Y-79790204D01*
X182838800Y-80729002D01*
X182862599Y-80758001D01*
X182978324Y-80852974D01*
X183110353Y-80923546D01*
X183253614Y-80967003D01*
X183365267Y-80978000D01*
X183365276Y-80978000D01*
X183402599Y-80981676D01*
X183439922Y-80978000D01*
X183914928Y-80978000D01*
X183914928Y-82753800D01*
X183927188Y-82878282D01*
X183963498Y-82997980D01*
X184022463Y-83108294D01*
X184101815Y-83204985D01*
X184198506Y-83284337D01*
X184308820Y-83343302D01*
X184428518Y-83379612D01*
X184553000Y-83391872D01*
X186753000Y-83391872D01*
X186877482Y-83379612D01*
X186997180Y-83343302D01*
X187107494Y-83284337D01*
X187204185Y-83204985D01*
X187283537Y-83108294D01*
X187342502Y-82997980D01*
X187378812Y-82878282D01*
X187391072Y-82753800D01*
X187391072Y-81723073D01*
X189044710Y-83376711D01*
X189004939Y-83368800D01*
X188801061Y-83368800D01*
X188601102Y-83408574D01*
X188412744Y-83486595D01*
X188243226Y-83599863D01*
X188099063Y-83744026D01*
X187985795Y-83913544D01*
X187907774Y-84101902D01*
X187868000Y-84301861D01*
X187868000Y-84505739D01*
X187907774Y-84705698D01*
X187985795Y-84894056D01*
X188099063Y-85063574D01*
X188243226Y-85207737D01*
X188412744Y-85321005D01*
X188601102Y-85399026D01*
X188801061Y-85438800D01*
X188863199Y-85438800D01*
X194356069Y-90931672D01*
X194397861Y-90976545D01*
X194439265Y-91006391D01*
X194478723Y-91038773D01*
X194532817Y-91067687D01*
X194970166Y-91321833D01*
X194853363Y-91438636D01*
X194696320Y-91673668D01*
X194588147Y-91934821D01*
X194533000Y-92212060D01*
X194533000Y-92494730D01*
X194588147Y-92771969D01*
X194684393Y-93004327D01*
X194615188Y-93070339D01*
X194888740Y-94091245D01*
X194837141Y-94142844D01*
X195016749Y-94322452D01*
X195247954Y-94091246D01*
X195719007Y-93965028D01*
X195673131Y-94216917D01*
X195672359Y-94240488D01*
X194978543Y-94426396D01*
X195276157Y-95537107D01*
X195523232Y-95597098D01*
X195755689Y-95436270D01*
X195952304Y-95233181D01*
X195968891Y-95207465D01*
X196010553Y-95267683D01*
X196213642Y-95464298D01*
X196451186Y-95617515D01*
X196714057Y-95721444D01*
X196929495Y-95760681D01*
X196872608Y-95898019D01*
X196817461Y-96175258D01*
X196817461Y-96457928D01*
X196872608Y-96735167D01*
X196980781Y-96996320D01*
X197137824Y-97231352D01*
X197337702Y-97431230D01*
X197572734Y-97588273D01*
X197833887Y-97696446D01*
X198111126Y-97751593D01*
X198393796Y-97751593D01*
X198671035Y-97696446D01*
X198932188Y-97588273D01*
X199167220Y-97431230D01*
X199367098Y-97231352D01*
X199524141Y-96996320D01*
X199632314Y-96735167D01*
X199687461Y-96457928D01*
X199687461Y-96175258D01*
X199632314Y-95898019D01*
X199575590Y-95761076D01*
X199816035Y-95713248D01*
X200077188Y-95605075D01*
X200312220Y-95448032D01*
X200512098Y-95248154D01*
X200615504Y-95093395D01*
X205436083Y-95093395D01*
X205473405Y-95097071D01*
X205510727Y-95093395D01*
X205510738Y-95093395D01*
X205622391Y-95082398D01*
X205765652Y-95038941D01*
X205897681Y-94968369D01*
X206013406Y-94873396D01*
X206037209Y-94844392D01*
X210929024Y-89952578D01*
X199621729Y-109560000D01*
X134382279Y-109560000D01*
X134284576Y-109550420D01*
X134221643Y-109531420D01*
X134163594Y-109500554D01*
X134112657Y-109459011D01*
X134070752Y-109408356D01*
X134039485Y-109350529D01*
X134020044Y-109287728D01*
X134010000Y-109192165D01*
X134010000Y-108146702D01*
X149839903Y-108146702D01*
X149911486Y-108390671D01*
X150166996Y-108511571D01*
X150441184Y-108580300D01*
X150723512Y-108594217D01*
X151003130Y-108552787D01*
X151269292Y-108457603D01*
X151394514Y-108390671D01*
X151466097Y-108146702D01*
X150653000Y-107333605D01*
X149839903Y-108146702D01*
X134010000Y-108146702D01*
X134010000Y-107224512D01*
X149212783Y-107224512D01*
X149254213Y-107504130D01*
X149349397Y-107770292D01*
X149416329Y-107895514D01*
X149660298Y-107967097D01*
X150473395Y-107154000D01*
X150832605Y-107154000D01*
X151645702Y-107967097D01*
X151889671Y-107895514D01*
X152010571Y-107640004D01*
X152079300Y-107365816D01*
X152093217Y-107083488D01*
X152051787Y-106803870D01*
X151956603Y-106537708D01*
X151889671Y-106412486D01*
X151645702Y-106340903D01*
X150832605Y-107154000D01*
X150473395Y-107154000D01*
X149660298Y-106340903D01*
X149416329Y-106412486D01*
X149295429Y-106667996D01*
X149226700Y-106942184D01*
X149212783Y-107224512D01*
X134010000Y-107224512D01*
X134010000Y-100045419D01*
X139670000Y-100045419D01*
X139670000Y-100426581D01*
X139744361Y-100800419D01*
X139890225Y-101152566D01*
X140101987Y-101469491D01*
X140371509Y-101739013D01*
X140688434Y-101950775D01*
X141040581Y-102096639D01*
X141414419Y-102171000D01*
X141795581Y-102171000D01*
X142169419Y-102096639D01*
X142521566Y-101950775D01*
X142838491Y-101739013D01*
X143108013Y-101469491D01*
X143319775Y-101152566D01*
X143465639Y-100800419D01*
X143540000Y-100426581D01*
X143540000Y-100045419D01*
X143465639Y-99671581D01*
X143319775Y-99319434D01*
X143108013Y-99002509D01*
X142838491Y-98732987D01*
X142521566Y-98521225D01*
X142169419Y-98375361D01*
X141795581Y-98301000D01*
X141414419Y-98301000D01*
X141040581Y-98375361D01*
X140688434Y-98521225D01*
X140371509Y-98732987D01*
X140101987Y-99002509D01*
X139890225Y-99319434D01*
X139744361Y-99671581D01*
X139670000Y-100045419D01*
X134010000Y-100045419D01*
X134010000Y-85045419D01*
X139670000Y-85045419D01*
X139670000Y-85426581D01*
X139744361Y-85800419D01*
X139890225Y-86152566D01*
X140101987Y-86469491D01*
X140371509Y-86739013D01*
X140688434Y-86950775D01*
X141040581Y-87096639D01*
X141414419Y-87171000D01*
X141795581Y-87171000D01*
X142169419Y-87096639D01*
X142521566Y-86950775D01*
X142838491Y-86739013D01*
X143108013Y-86469491D01*
X143319775Y-86152566D01*
X143465639Y-85800419D01*
X143540000Y-85426581D01*
X143540000Y-85045419D01*
X143465639Y-84671581D01*
X143319775Y-84319434D01*
X143108013Y-84002509D01*
X142838491Y-83732987D01*
X142521566Y-83521225D01*
X142169419Y-83375361D01*
X141795581Y-83301000D01*
X141414419Y-83301000D01*
X141040581Y-83375361D01*
X140688434Y-83521225D01*
X140371509Y-83732987D01*
X140101987Y-84002509D01*
X139890225Y-84319434D01*
X139744361Y-84671581D01*
X139670000Y-85045419D01*
X134010000Y-85045419D01*
X134010000Y-78936000D01*
X139666928Y-78936000D01*
X139666928Y-81536000D01*
X139679188Y-81660482D01*
X139715498Y-81780180D01*
X139774463Y-81890494D01*
X139853815Y-81987185D01*
X139950506Y-82066537D01*
X140060820Y-82125502D01*
X140180518Y-82161812D01*
X140305000Y-82174072D01*
X142905000Y-82174072D01*
X143029482Y-82161812D01*
X143149180Y-82125502D01*
X143259494Y-82066537D01*
X143356185Y-81987185D01*
X143435537Y-81890494D01*
X143494502Y-81780180D01*
X143530812Y-81660482D01*
X143543072Y-81536000D01*
X143543072Y-78936000D01*
X143530812Y-78811518D01*
X143494502Y-78691820D01*
X143435537Y-78581506D01*
X143356185Y-78484815D01*
X143259494Y-78405463D01*
X143149180Y-78346498D01*
X143029482Y-78310188D01*
X142905000Y-78297928D01*
X140305000Y-78297928D01*
X140180518Y-78310188D01*
X140060820Y-78346498D01*
X139950506Y-78405463D01*
X139853815Y-78484815D01*
X139774463Y-78581506D01*
X139715498Y-78691820D01*
X139679188Y-78811518D01*
X139666928Y-78936000D01*
X134010000Y-78936000D01*
X134010000Y-72817955D01*
X136418450Y-72817955D01*
X136814634Y-73338350D01*
X137529612Y-73728548D01*
X138306976Y-73971764D01*
X139116853Y-74058651D01*
X139928118Y-73985869D01*
X140709597Y-73756215D01*
X141431256Y-73378515D01*
X141491366Y-73338350D01*
X141887550Y-72817955D01*
X139153000Y-70083405D01*
X136418450Y-72817955D01*
X134010000Y-72817955D01*
X134010000Y-69867653D01*
X134998149Y-69867653D01*
X135070931Y-70678918D01*
X135300585Y-71460397D01*
X135678285Y-72182056D01*
X135718450Y-72242166D01*
X136238845Y-72638350D01*
X138973395Y-69903800D01*
X139332605Y-69903800D01*
X142067155Y-72638350D01*
X142587550Y-72242166D01*
X142977748Y-71527188D01*
X143220964Y-70749824D01*
X143307851Y-69939947D01*
X143235069Y-69128682D01*
X143005415Y-68347203D01*
X142627715Y-67625544D01*
X142587550Y-67565434D01*
X142067155Y-67169250D01*
X139332605Y-69903800D01*
X138973395Y-69903800D01*
X136238845Y-67169250D01*
X135718450Y-67565434D01*
X135328252Y-68280412D01*
X135085036Y-69057776D01*
X134998149Y-69867653D01*
X134010000Y-69867653D01*
X134010000Y-66989645D01*
X136418450Y-66989645D01*
X139153000Y-69724195D01*
X141887550Y-66989645D01*
X141491366Y-66469250D01*
X140776388Y-66079052D01*
X139999024Y-65835836D01*
X139189147Y-65748949D01*
X138377882Y-65821731D01*
X137596403Y-66051385D01*
X136874744Y-66429085D01*
X136814634Y-66469250D01*
X136418450Y-66989645D01*
X134010000Y-66989645D01*
X134010000Y-64997816D01*
X137811352Y-63781768D01*
X142105484Y-62571553D01*
X146439234Y-61511939D01*
X150807316Y-60604217D01*
X155204445Y-59849487D01*
X159625221Y-59248677D01*
X164064238Y-58802520D01*
X168516165Y-58511550D01*
X172975530Y-58376127D01*
X177436893Y-58396418D01*
G36*
X166589200Y-99164802D02*
G01*
X166612999Y-99193801D01*
X166728724Y-99288774D01*
X166860753Y-99359346D01*
X167004014Y-99402803D01*
X167115667Y-99413800D01*
X167115676Y-99413800D01*
X167152999Y-99417476D01*
X167190322Y-99413800D01*
X168838199Y-99413800D01*
X169123001Y-99698603D01*
X169123001Y-100186832D01*
X168969891Y-100132519D01*
X168740000Y-100253186D01*
X168740000Y-101447000D01*
X168760000Y-101447000D01*
X168760000Y-101701000D01*
X168740000Y-101701000D01*
X168740000Y-101721000D01*
X168486000Y-101721000D01*
X168486000Y-101701000D01*
X168466000Y-101701000D01*
X168466000Y-101447000D01*
X168486000Y-101447000D01*
X168486000Y-100253186D01*
X168256109Y-100132519D01*
X167981748Y-100229843D01*
X167731645Y-100378822D01*
X167515412Y-100573731D01*
X167341359Y-100807080D01*
X167312297Y-100868095D01*
X164380199Y-97935997D01*
X164387637Y-97928559D01*
X164544680Y-97693527D01*
X164652853Y-97432374D01*
X164686686Y-97262287D01*
X166589200Y-99164802D01*
G37*
X166589200Y-99164802D02*
X166612999Y-99193801D01*
X166728724Y-99288774D01*
X166860753Y-99359346D01*
X167004014Y-99402803D01*
X167115667Y-99413800D01*
X167115676Y-99413800D01*
X167152999Y-99417476D01*
X167190322Y-99413800D01*
X168838199Y-99413800D01*
X169123001Y-99698603D01*
X169123001Y-100186832D01*
X168969891Y-100132519D01*
X168740000Y-100253186D01*
X168740000Y-101447000D01*
X168760000Y-101447000D01*
X168760000Y-101701000D01*
X168740000Y-101701000D01*
X168740000Y-101721000D01*
X168486000Y-101721000D01*
X168486000Y-101701000D01*
X168466000Y-101701000D01*
X168466000Y-101447000D01*
X168486000Y-101447000D01*
X168486000Y-100253186D01*
X168256109Y-100132519D01*
X167981748Y-100229843D01*
X167731645Y-100378822D01*
X167515412Y-100573731D01*
X167341359Y-100807080D01*
X167312297Y-100868095D01*
X164380199Y-97935997D01*
X164387637Y-97928559D01*
X164544680Y-97693527D01*
X164652853Y-97432374D01*
X164686686Y-97262287D01*
X166589200Y-99164802D01*
G36*
X170393001Y-95963603D02*
G01*
X170393000Y-98818999D01*
X169716803Y-98142802D01*
X169693001Y-98113799D01*
X169577276Y-98018826D01*
X169445247Y-97948254D01*
X169301986Y-97904797D01*
X169190333Y-97893800D01*
X169190322Y-97893800D01*
X169153000Y-97890124D01*
X169115678Y-97893800D01*
X167467802Y-97893800D01*
X167262063Y-97688061D01*
X167416996Y-97761371D01*
X167691184Y-97830100D01*
X167973512Y-97844017D01*
X168253130Y-97802587D01*
X168519292Y-97707403D01*
X168644514Y-97640471D01*
X168716097Y-97396502D01*
X167903000Y-96583405D01*
X167888858Y-96597548D01*
X167709253Y-96417943D01*
X167723395Y-96403800D01*
X168082605Y-96403800D01*
X168895702Y-97216897D01*
X169139671Y-97145314D01*
X169260571Y-96889804D01*
X169329300Y-96615616D01*
X169343217Y-96333288D01*
X169301787Y-96053670D01*
X169206603Y-95787508D01*
X169139671Y-95662286D01*
X168895702Y-95590703D01*
X168082605Y-96403800D01*
X167723395Y-96403800D01*
X166910298Y-95590703D01*
X166666329Y-95662286D01*
X166545429Y-95917796D01*
X166476700Y-96191984D01*
X166462783Y-96474312D01*
X166504213Y-96753930D01*
X166599397Y-97020092D01*
X166605487Y-97031485D01*
X164985100Y-95411098D01*
X167089903Y-95411098D01*
X167903000Y-96224195D01*
X168716097Y-95411098D01*
X168644514Y-95167129D01*
X168389004Y-95046229D01*
X168114816Y-94977500D01*
X167832488Y-94963583D01*
X167552870Y-95005013D01*
X167286708Y-95100197D01*
X167161486Y-95167129D01*
X167089903Y-95411098D01*
X164985100Y-95411098D01*
X164966804Y-95392803D01*
X164943001Y-95363799D01*
X164827276Y-95268826D01*
X164695247Y-95198254D01*
X164551986Y-95154797D01*
X164544335Y-95154043D01*
X164544680Y-95153527D01*
X164652853Y-94892374D01*
X164708000Y-94615135D01*
X164708000Y-94332465D01*
X164652853Y-94055226D01*
X164544680Y-93794073D01*
X164387637Y-93559041D01*
X164187759Y-93359163D01*
X163955241Y-93203800D01*
X164187759Y-93048437D01*
X164387637Y-92848559D01*
X164544680Y-92613527D01*
X164652853Y-92352374D01*
X164708000Y-92075135D01*
X164708000Y-91792465D01*
X164652853Y-91515226D01*
X164544680Y-91254073D01*
X164387637Y-91019041D01*
X164187759Y-90819163D01*
X163952727Y-90662120D01*
X163942135Y-90657733D01*
X164128131Y-90546185D01*
X164336519Y-90357214D01*
X164504037Y-90131220D01*
X164522197Y-90092798D01*
X170393001Y-95963603D01*
G37*
X170393001Y-95963603D02*
X170393000Y-98818999D01*
X169716803Y-98142802D01*
X169693001Y-98113799D01*
X169577276Y-98018826D01*
X169445247Y-97948254D01*
X169301986Y-97904797D01*
X169190333Y-97893800D01*
X169190322Y-97893800D01*
X169153000Y-97890124D01*
X169115678Y-97893800D01*
X167467802Y-97893800D01*
X167262063Y-97688061D01*
X167416996Y-97761371D01*
X167691184Y-97830100D01*
X167973512Y-97844017D01*
X168253130Y-97802587D01*
X168519292Y-97707403D01*
X168644514Y-97640471D01*
X168716097Y-97396502D01*
X167903000Y-96583405D01*
X167888858Y-96597548D01*
X167709253Y-96417943D01*
X167723395Y-96403800D01*
X168082605Y-96403800D01*
X168895702Y-97216897D01*
X169139671Y-97145314D01*
X169260571Y-96889804D01*
X169329300Y-96615616D01*
X169343217Y-96333288D01*
X169301787Y-96053670D01*
X169206603Y-95787508D01*
X169139671Y-95662286D01*
X168895702Y-95590703D01*
X168082605Y-96403800D01*
X167723395Y-96403800D01*
X166910298Y-95590703D01*
X166666329Y-95662286D01*
X166545429Y-95917796D01*
X166476700Y-96191984D01*
X166462783Y-96474312D01*
X166504213Y-96753930D01*
X166599397Y-97020092D01*
X166605487Y-97031485D01*
X164985100Y-95411098D01*
X167089903Y-95411098D01*
X167903000Y-96224195D01*
X168716097Y-95411098D01*
X168644514Y-95167129D01*
X168389004Y-95046229D01*
X168114816Y-94977500D01*
X167832488Y-94963583D01*
X167552870Y-95005013D01*
X167286708Y-95100197D01*
X167161486Y-95167129D01*
X167089903Y-95411098D01*
X164985100Y-95411098D01*
X164966804Y-95392803D01*
X164943001Y-95363799D01*
X164827276Y-95268826D01*
X164695247Y-95198254D01*
X164551986Y-95154797D01*
X164544335Y-95154043D01*
X164544680Y-95153527D01*
X164652853Y-94892374D01*
X164708000Y-94615135D01*
X164708000Y-94332465D01*
X164652853Y-94055226D01*
X164544680Y-93794073D01*
X164387637Y-93559041D01*
X164187759Y-93359163D01*
X163955241Y-93203800D01*
X164187759Y-93048437D01*
X164387637Y-92848559D01*
X164544680Y-92613527D01*
X164652853Y-92352374D01*
X164708000Y-92075135D01*
X164708000Y-91792465D01*
X164652853Y-91515226D01*
X164544680Y-91254073D01*
X164387637Y-91019041D01*
X164187759Y-90819163D01*
X163952727Y-90662120D01*
X163942135Y-90657733D01*
X164128131Y-90546185D01*
X164336519Y-90357214D01*
X164504037Y-90131220D01*
X164522197Y-90092798D01*
X170393001Y-95963603D01*
G36*
X197175970Y-94089646D02*
G01*
X197124371Y-94141245D01*
X197303979Y-94320853D01*
X197535184Y-94089648D01*
X198008035Y-93962948D01*
X197962461Y-94192060D01*
X197962461Y-94238119D01*
X197355578Y-94400734D01*
X197303979Y-94349135D01*
X197124371Y-94528743D01*
X197355576Y-94759948D01*
X197453313Y-95124707D01*
X197337702Y-95201956D01*
X197237816Y-95301842D01*
X197020427Y-94490537D01*
X196214223Y-94706559D01*
X196260099Y-94454670D01*
X196260871Y-94431099D01*
X196864882Y-94269254D01*
X196916481Y-94320853D01*
X197096089Y-94141245D01*
X196864884Y-93910040D01*
X196767147Y-93545281D01*
X196882759Y-93468032D01*
X196982644Y-93368147D01*
X197175970Y-94089646D01*
G37*
X197175970Y-94089646D02*
X197124371Y-94141245D01*
X197303979Y-94320853D01*
X197535184Y-94089648D01*
X198008035Y-93962948D01*
X197962461Y-94192060D01*
X197962461Y-94238119D01*
X197355578Y-94400734D01*
X197303979Y-94349135D01*
X197124371Y-94528743D01*
X197355576Y-94759948D01*
X197453313Y-95124707D01*
X197337702Y-95201956D01*
X197237816Y-95301842D01*
X197020427Y-94490537D01*
X196214223Y-94706559D01*
X196260099Y-94454670D01*
X196260871Y-94431099D01*
X196864882Y-94269254D01*
X196916481Y-94320853D01*
X197096089Y-94141245D01*
X196864884Y-93910040D01*
X196767147Y-93545281D01*
X196882759Y-93468032D01*
X196982644Y-93368147D01*
X197175970Y-94089646D01*
G36*
X158828026Y-85095176D02*
G01*
X158858346Y-85132120D01*
X158922999Y-85210901D01*
X158952003Y-85234704D01*
X162183174Y-88465876D01*
X162041963Y-88656380D01*
X161921754Y-88910713D01*
X161881096Y-89044761D01*
X162003085Y-89266800D01*
X163146000Y-89266800D01*
X163146000Y-89246800D01*
X163400000Y-89246800D01*
X163400000Y-89266800D01*
X163420000Y-89266800D01*
X163420000Y-89520800D01*
X163400000Y-89520800D01*
X163400000Y-89540800D01*
X163146000Y-89540800D01*
X163146000Y-89520800D01*
X162003085Y-89520800D01*
X161881096Y-89742839D01*
X161921754Y-89876887D01*
X162041963Y-90131220D01*
X162209481Y-90357214D01*
X162417869Y-90546185D01*
X162603865Y-90657733D01*
X162593273Y-90662120D01*
X162358241Y-90819163D01*
X162158363Y-91019041D01*
X162001320Y-91254073D01*
X161893147Y-91515226D01*
X161838000Y-91792465D01*
X161838000Y-92075135D01*
X161893147Y-92352374D01*
X162001320Y-92613527D01*
X162158363Y-92848559D01*
X162358241Y-93048437D01*
X162590759Y-93203800D01*
X162358241Y-93359163D01*
X162158363Y-93559041D01*
X162001320Y-93794073D01*
X161893147Y-94055226D01*
X161838000Y-94332465D01*
X161838000Y-94615135D01*
X161893147Y-94892374D01*
X161997291Y-95143800D01*
X158814800Y-95143800D01*
X158814800Y-85070432D01*
X158828026Y-85095176D01*
G37*
X158828026Y-85095176D02*
X158858346Y-85132120D01*
X158922999Y-85210901D01*
X158952003Y-85234704D01*
X162183174Y-88465876D01*
X162041963Y-88656380D01*
X161921754Y-88910713D01*
X161881096Y-89044761D01*
X162003085Y-89266800D01*
X163146000Y-89266800D01*
X163146000Y-89246800D01*
X163400000Y-89246800D01*
X163400000Y-89266800D01*
X163420000Y-89266800D01*
X163420000Y-89520800D01*
X163400000Y-89520800D01*
X163400000Y-89540800D01*
X163146000Y-89540800D01*
X163146000Y-89520800D01*
X162003085Y-89520800D01*
X161881096Y-89742839D01*
X161921754Y-89876887D01*
X162041963Y-90131220D01*
X162209481Y-90357214D01*
X162417869Y-90546185D01*
X162603865Y-90657733D01*
X162593273Y-90662120D01*
X162358241Y-90819163D01*
X162158363Y-91019041D01*
X162001320Y-91254073D01*
X161893147Y-91515226D01*
X161838000Y-91792465D01*
X161838000Y-92075135D01*
X161893147Y-92352374D01*
X162001320Y-92613527D01*
X162158363Y-92848559D01*
X162358241Y-93048437D01*
X162590759Y-93203800D01*
X162358241Y-93359163D01*
X162158363Y-93559041D01*
X162001320Y-93794073D01*
X161893147Y-94055226D01*
X161838000Y-94332465D01*
X161838000Y-94615135D01*
X161893147Y-94892374D01*
X161997291Y-95143800D01*
X158814800Y-95143800D01*
X158814800Y-85070432D01*
X158828026Y-85095176D01*
G36*
X155780000Y-91806800D02*
G01*
X155800000Y-91806800D01*
X155800000Y-92060800D01*
X155780000Y-92060800D01*
X155780000Y-92080800D01*
X155526000Y-92080800D01*
X155526000Y-92060800D01*
X155506000Y-92060800D01*
X155506000Y-91806800D01*
X155526000Y-91806800D01*
X155526000Y-91786800D01*
X155780000Y-91786800D01*
X155780000Y-91806800D01*
G37*
X155780000Y-91806800D02*
X155800000Y-91806800D01*
X155800000Y-92060800D01*
X155780000Y-92060800D01*
X155780000Y-92080800D01*
X155526000Y-92080800D01*
X155526000Y-92060800D01*
X155506000Y-92060800D01*
X155506000Y-91806800D01*
X155526000Y-91806800D01*
X155526000Y-91786800D01*
X155780000Y-91786800D01*
X155780000Y-91806800D01*
G36*
X191480601Y-69356303D02*
G01*
X191480600Y-74954077D01*
X191476924Y-74991400D01*
X191480600Y-75028722D01*
X191480600Y-75028732D01*
X191491597Y-75140385D01*
X191533675Y-75279100D01*
X191535054Y-75283646D01*
X191605626Y-75415676D01*
X191645471Y-75464226D01*
X191700599Y-75531401D01*
X191729603Y-75555204D01*
X196589200Y-80414802D01*
X196612999Y-80443801D01*
X196728724Y-80538774D01*
X196860753Y-80609346D01*
X197004014Y-80652803D01*
X197115667Y-80663800D01*
X197115675Y-80663800D01*
X197153000Y-80667476D01*
X197190325Y-80663800D01*
X200365678Y-80663800D01*
X200403000Y-80667476D01*
X200440322Y-80663800D01*
X200440333Y-80663800D01*
X200551986Y-80652803D01*
X200695247Y-80609346D01*
X200827276Y-80538774D01*
X200943001Y-80443801D01*
X200966804Y-80414797D01*
X202238679Y-79142923D01*
X202191517Y-79256781D01*
X202090256Y-79765857D01*
X202090256Y-80284907D01*
X202191517Y-80793983D01*
X202390149Y-81273523D01*
X202678518Y-81705097D01*
X203045541Y-82072120D01*
X203477115Y-82360489D01*
X203956655Y-82559121D01*
X204465731Y-82660382D01*
X204984781Y-82660382D01*
X205493857Y-82559121D01*
X205973397Y-82360489D01*
X206404971Y-82072120D01*
X206771994Y-81705097D01*
X207060363Y-81273523D01*
X207258995Y-80793983D01*
X207360256Y-80284907D01*
X207360256Y-79765857D01*
X207340392Y-79665994D01*
X208089200Y-80414802D01*
X208112999Y-80443801D01*
X208141997Y-80467599D01*
X208228723Y-80538774D01*
X208360753Y-80609346D01*
X208504014Y-80652803D01*
X208585198Y-80660799D01*
X211893001Y-83968603D01*
X211893000Y-85338998D01*
X205641799Y-91590200D01*
X202439741Y-91590200D01*
X202602220Y-91481635D01*
X202802098Y-91281757D01*
X202959141Y-91046725D01*
X203067314Y-90785572D01*
X203122461Y-90508333D01*
X203122461Y-90225663D01*
X203067314Y-89948424D01*
X203010590Y-89811481D01*
X203251035Y-89763653D01*
X203512188Y-89655480D01*
X203747220Y-89498437D01*
X203947098Y-89298559D01*
X204104141Y-89063527D01*
X204212314Y-88802374D01*
X204267461Y-88525135D01*
X204267461Y-88242465D01*
X204212314Y-87965226D01*
X204104141Y-87704073D01*
X203947098Y-87469041D01*
X203747220Y-87269163D01*
X203512188Y-87112120D01*
X203251035Y-87003947D01*
X203014042Y-86956806D01*
X203076680Y-86798374D01*
X203127329Y-86520278D01*
X203131976Y-86378367D01*
X202956484Y-86194389D01*
X201935578Y-86467941D01*
X201883979Y-86416342D01*
X201704371Y-86595950D01*
X201935576Y-86827155D01*
X202033313Y-87191914D01*
X201917702Y-87269163D01*
X201817816Y-87369049D01*
X201624490Y-86647549D01*
X201676089Y-86595950D01*
X201496481Y-86416342D01*
X201265276Y-86647547D01*
X200860139Y-86756103D01*
X201039745Y-86445018D01*
X201534687Y-86312398D01*
X201237073Y-85201687D01*
X200989998Y-85141696D01*
X200757541Y-85302524D01*
X200619193Y-85445428D01*
X200083157Y-85135947D01*
X201482418Y-85135947D01*
X201780033Y-86246658D01*
X202890744Y-85949044D01*
X202950735Y-85701969D01*
X202789907Y-85469512D01*
X202586818Y-85272897D01*
X202349274Y-85119680D01*
X202086403Y-85015751D01*
X201808307Y-84965102D01*
X201666396Y-84960455D01*
X201482418Y-85135947D01*
X200083157Y-85135947D01*
X199429216Y-84758394D01*
X199315282Y-84706770D01*
X199193465Y-84678367D01*
X199068448Y-84674274D01*
X198945035Y-84694650D01*
X198827968Y-84738711D01*
X198721746Y-84804763D01*
X198630452Y-84890270D01*
X198557594Y-84991944D01*
X198181245Y-85643800D01*
X195435917Y-85643800D01*
X190443436Y-80651320D01*
X190454898Y-80649040D01*
X190643256Y-80571019D01*
X190812774Y-80457751D01*
X190956937Y-80313588D01*
X191070205Y-80144070D01*
X191148226Y-79955712D01*
X191186407Y-79763763D01*
X191234426Y-79783653D01*
X191511665Y-79838800D01*
X191794335Y-79838800D01*
X192071574Y-79783653D01*
X192332727Y-79675480D01*
X192567759Y-79518437D01*
X192767637Y-79318559D01*
X192924680Y-79083527D01*
X193032853Y-78822374D01*
X193088000Y-78545135D01*
X193088000Y-78262465D01*
X193032853Y-77985226D01*
X192924680Y-77724073D01*
X192767637Y-77489041D01*
X192567759Y-77289163D01*
X192332727Y-77132120D01*
X192071574Y-77023947D01*
X191794335Y-76968800D01*
X191511665Y-76968800D01*
X191234426Y-77023947D01*
X190973273Y-77132120D01*
X190738241Y-77289163D01*
X190538363Y-77489041D01*
X190413000Y-77676660D01*
X190413000Y-75607511D01*
X190456937Y-75563574D01*
X190570205Y-75394056D01*
X190648226Y-75205698D01*
X190688000Y-75005739D01*
X190688000Y-74801861D01*
X190648226Y-74601902D01*
X190570205Y-74413544D01*
X190456937Y-74244026D01*
X190312774Y-74099863D01*
X190143256Y-73986595D01*
X189954898Y-73908574D01*
X189863854Y-73890464D01*
X189866677Y-73861800D01*
X189863000Y-73824467D01*
X189863000Y-69591872D01*
X189953000Y-69591872D01*
X190077482Y-69579612D01*
X190197180Y-69543302D01*
X190307494Y-69484337D01*
X190404185Y-69404985D01*
X190483537Y-69308294D01*
X190542502Y-69197980D01*
X190578812Y-69078282D01*
X190591072Y-68953800D01*
X190591072Y-68466773D01*
X191480601Y-69356303D01*
G37*
X191480601Y-69356303D02*
X191480600Y-74954077D01*
X191476924Y-74991400D01*
X191480600Y-75028722D01*
X191480600Y-75028732D01*
X191491597Y-75140385D01*
X191533675Y-75279100D01*
X191535054Y-75283646D01*
X191605626Y-75415676D01*
X191645471Y-75464226D01*
X191700599Y-75531401D01*
X191729603Y-75555204D01*
X196589200Y-80414802D01*
X196612999Y-80443801D01*
X196728724Y-80538774D01*
X196860753Y-80609346D01*
X197004014Y-80652803D01*
X197115667Y-80663800D01*
X197115675Y-80663800D01*
X197153000Y-80667476D01*
X197190325Y-80663800D01*
X200365678Y-80663800D01*
X200403000Y-80667476D01*
X200440322Y-80663800D01*
X200440333Y-80663800D01*
X200551986Y-80652803D01*
X200695247Y-80609346D01*
X200827276Y-80538774D01*
X200943001Y-80443801D01*
X200966804Y-80414797D01*
X202238679Y-79142923D01*
X202191517Y-79256781D01*
X202090256Y-79765857D01*
X202090256Y-80284907D01*
X202191517Y-80793983D01*
X202390149Y-81273523D01*
X202678518Y-81705097D01*
X203045541Y-82072120D01*
X203477115Y-82360489D01*
X203956655Y-82559121D01*
X204465731Y-82660382D01*
X204984781Y-82660382D01*
X205493857Y-82559121D01*
X205973397Y-82360489D01*
X206404971Y-82072120D01*
X206771994Y-81705097D01*
X207060363Y-81273523D01*
X207258995Y-80793983D01*
X207360256Y-80284907D01*
X207360256Y-79765857D01*
X207340392Y-79665994D01*
X208089200Y-80414802D01*
X208112999Y-80443801D01*
X208141997Y-80467599D01*
X208228723Y-80538774D01*
X208360753Y-80609346D01*
X208504014Y-80652803D01*
X208585198Y-80660799D01*
X211893001Y-83968603D01*
X211893000Y-85338998D01*
X205641799Y-91590200D01*
X202439741Y-91590200D01*
X202602220Y-91481635D01*
X202802098Y-91281757D01*
X202959141Y-91046725D01*
X203067314Y-90785572D01*
X203122461Y-90508333D01*
X203122461Y-90225663D01*
X203067314Y-89948424D01*
X203010590Y-89811481D01*
X203251035Y-89763653D01*
X203512188Y-89655480D01*
X203747220Y-89498437D01*
X203947098Y-89298559D01*
X204104141Y-89063527D01*
X204212314Y-88802374D01*
X204267461Y-88525135D01*
X204267461Y-88242465D01*
X204212314Y-87965226D01*
X204104141Y-87704073D01*
X203947098Y-87469041D01*
X203747220Y-87269163D01*
X203512188Y-87112120D01*
X203251035Y-87003947D01*
X203014042Y-86956806D01*
X203076680Y-86798374D01*
X203127329Y-86520278D01*
X203131976Y-86378367D01*
X202956484Y-86194389D01*
X201935578Y-86467941D01*
X201883979Y-86416342D01*
X201704371Y-86595950D01*
X201935576Y-86827155D01*
X202033313Y-87191914D01*
X201917702Y-87269163D01*
X201817816Y-87369049D01*
X201624490Y-86647549D01*
X201676089Y-86595950D01*
X201496481Y-86416342D01*
X201265276Y-86647547D01*
X200860139Y-86756103D01*
X201039745Y-86445018D01*
X201534687Y-86312398D01*
X201237073Y-85201687D01*
X200989998Y-85141696D01*
X200757541Y-85302524D01*
X200619193Y-85445428D01*
X200083157Y-85135947D01*
X201482418Y-85135947D01*
X201780033Y-86246658D01*
X202890744Y-85949044D01*
X202950735Y-85701969D01*
X202789907Y-85469512D01*
X202586818Y-85272897D01*
X202349274Y-85119680D01*
X202086403Y-85015751D01*
X201808307Y-84965102D01*
X201666396Y-84960455D01*
X201482418Y-85135947D01*
X200083157Y-85135947D01*
X199429216Y-84758394D01*
X199315282Y-84706770D01*
X199193465Y-84678367D01*
X199068448Y-84674274D01*
X198945035Y-84694650D01*
X198827968Y-84738711D01*
X198721746Y-84804763D01*
X198630452Y-84890270D01*
X198557594Y-84991944D01*
X198181245Y-85643800D01*
X195435917Y-85643800D01*
X190443436Y-80651320D01*
X190454898Y-80649040D01*
X190643256Y-80571019D01*
X190812774Y-80457751D01*
X190956937Y-80313588D01*
X191070205Y-80144070D01*
X191148226Y-79955712D01*
X191186407Y-79763763D01*
X191234426Y-79783653D01*
X191511665Y-79838800D01*
X191794335Y-79838800D01*
X192071574Y-79783653D01*
X192332727Y-79675480D01*
X192567759Y-79518437D01*
X192767637Y-79318559D01*
X192924680Y-79083527D01*
X193032853Y-78822374D01*
X193088000Y-78545135D01*
X193088000Y-78262465D01*
X193032853Y-77985226D01*
X192924680Y-77724073D01*
X192767637Y-77489041D01*
X192567759Y-77289163D01*
X192332727Y-77132120D01*
X192071574Y-77023947D01*
X191794335Y-76968800D01*
X191511665Y-76968800D01*
X191234426Y-77023947D01*
X190973273Y-77132120D01*
X190738241Y-77289163D01*
X190538363Y-77489041D01*
X190413000Y-77676660D01*
X190413000Y-75607511D01*
X190456937Y-75563574D01*
X190570205Y-75394056D01*
X190648226Y-75205698D01*
X190688000Y-75005739D01*
X190688000Y-74801861D01*
X190648226Y-74601902D01*
X190570205Y-74413544D01*
X190456937Y-74244026D01*
X190312774Y-74099863D01*
X190143256Y-73986595D01*
X189954898Y-73908574D01*
X189863854Y-73890464D01*
X189866677Y-73861800D01*
X189863000Y-73824467D01*
X189863000Y-69591872D01*
X189953000Y-69591872D01*
X190077482Y-69579612D01*
X190197180Y-69543302D01*
X190307494Y-69484337D01*
X190404185Y-69404985D01*
X190483537Y-69308294D01*
X190542502Y-69197980D01*
X190578812Y-69078282D01*
X190591072Y-68953800D01*
X190591072Y-68466773D01*
X191480601Y-69356303D01*
G36*
X199465970Y-90123249D02*
G01*
X199414371Y-90174848D01*
X199593979Y-90354456D01*
X199825184Y-90123251D01*
X200298035Y-89996551D01*
X200252461Y-90225663D01*
X200252461Y-90271722D01*
X199645578Y-90434337D01*
X199593979Y-90382738D01*
X199414371Y-90562346D01*
X199645576Y-90793551D01*
X199743313Y-91158310D01*
X199627702Y-91235559D01*
X199527816Y-91335445D01*
X199334490Y-90613945D01*
X199386089Y-90562346D01*
X199206481Y-90382738D01*
X198975276Y-90613943D01*
X198502426Y-90740643D01*
X198548000Y-90511531D01*
X198548000Y-90465471D01*
X199154882Y-90302857D01*
X199206481Y-90354456D01*
X199386089Y-90174848D01*
X199154884Y-89943643D01*
X199057147Y-89578884D01*
X199172759Y-89501635D01*
X199272644Y-89401750D01*
X199465970Y-90123249D01*
G37*
X199465970Y-90123249D02*
X199414371Y-90174848D01*
X199593979Y-90354456D01*
X199825184Y-90123251D01*
X200298035Y-89996551D01*
X200252461Y-90225663D01*
X200252461Y-90271722D01*
X199645578Y-90434337D01*
X199593979Y-90382738D01*
X199414371Y-90562346D01*
X199645576Y-90793551D01*
X199743313Y-91158310D01*
X199627702Y-91235559D01*
X199527816Y-91335445D01*
X199334490Y-90613945D01*
X199386089Y-90562346D01*
X199206481Y-90382738D01*
X198975276Y-90613943D01*
X198502426Y-90740643D01*
X198548000Y-90511531D01*
X198548000Y-90465471D01*
X199154882Y-90302857D01*
X199206481Y-90354456D01*
X199386089Y-90174848D01*
X199154884Y-89943643D01*
X199057147Y-89578884D01*
X199172759Y-89501635D01*
X199272644Y-89401750D01*
X199465970Y-90123249D01*
G36*
X200610970Y-88140051D02*
G01*
X200559371Y-88191650D01*
X200738979Y-88371258D01*
X200970184Y-88140053D01*
X201443035Y-88013353D01*
X201397461Y-88242465D01*
X201397461Y-88288524D01*
X200790578Y-88451139D01*
X200738979Y-88399540D01*
X200559371Y-88579148D01*
X200790576Y-88810353D01*
X200888313Y-89175112D01*
X200772702Y-89252361D01*
X200672816Y-89352247D01*
X200479490Y-88630747D01*
X200531089Y-88579148D01*
X200351481Y-88399540D01*
X200120276Y-88630745D01*
X199647426Y-88757445D01*
X199693000Y-88528333D01*
X199693000Y-88482273D01*
X200299882Y-88319659D01*
X200351481Y-88371258D01*
X200531089Y-88191650D01*
X200299884Y-87960445D01*
X200257068Y-87800654D01*
X200436673Y-87489568D01*
X200610970Y-88140051D01*
G37*
X200610970Y-88140051D02*
X200559371Y-88191650D01*
X200738979Y-88371258D01*
X200970184Y-88140053D01*
X201443035Y-88013353D01*
X201397461Y-88242465D01*
X201397461Y-88288524D01*
X200790578Y-88451139D01*
X200738979Y-88399540D01*
X200559371Y-88579148D01*
X200790576Y-88810353D01*
X200888313Y-89175112D01*
X200772702Y-89252361D01*
X200672816Y-89352247D01*
X200479490Y-88630747D01*
X200531089Y-88579148D01*
X200351481Y-88399540D01*
X200120276Y-88630745D01*
X199647426Y-88757445D01*
X199693000Y-88528333D01*
X199693000Y-88482273D01*
X200299882Y-88319659D01*
X200351481Y-88371258D01*
X200531089Y-88191650D01*
X200299884Y-87960445D01*
X200257068Y-87800654D01*
X200436673Y-87489568D01*
X200610970Y-88140051D01*
G36*
X172709525Y-69050432D02*
G01*
X172916368Y-69257275D01*
X173159589Y-69419790D01*
X173429842Y-69531732D01*
X173716740Y-69588800D01*
X174009260Y-69588800D01*
X174296158Y-69531732D01*
X174566411Y-69419790D01*
X174773630Y-69281331D01*
X175282401Y-69790102D01*
X175306199Y-69819101D01*
X175335197Y-69842899D01*
X175421923Y-69914074D01*
X175532653Y-69973261D01*
X175553953Y-69984646D01*
X175697214Y-70028103D01*
X175808867Y-70039100D01*
X175808876Y-70039100D01*
X175846199Y-70042776D01*
X175883522Y-70039100D01*
X177424838Y-70039100D01*
X177428853Y-70041246D01*
X177572114Y-70084703D01*
X177683767Y-70095700D01*
X177683777Y-70095700D01*
X177721099Y-70099376D01*
X177758422Y-70095700D01*
X179020099Y-70095700D01*
X179868000Y-70943602D01*
X179868000Y-71005739D01*
X179907774Y-71205698D01*
X179985795Y-71394056D01*
X180099063Y-71563574D01*
X180189878Y-71654389D01*
X180186326Y-71656763D01*
X180042163Y-71800926D01*
X179928895Y-71970444D01*
X179850874Y-72158802D01*
X179811100Y-72358761D01*
X179811100Y-72562639D01*
X179846372Y-72739966D01*
X179831169Y-72746263D01*
X179547002Y-72936137D01*
X179305337Y-73177802D01*
X179115463Y-73461969D01*
X178984675Y-73777719D01*
X178918000Y-74112917D01*
X178918000Y-74454683D01*
X178984675Y-74789881D01*
X179115463Y-75105631D01*
X179305337Y-75389798D01*
X179547002Y-75631463D01*
X179831169Y-75821337D01*
X179893000Y-75846948D01*
X179893000Y-76891598D01*
X176640853Y-80143745D01*
X176794680Y-79913527D01*
X176902853Y-79652374D01*
X176958000Y-79375135D01*
X176958000Y-79092465D01*
X176902853Y-78815226D01*
X176794680Y-78554073D01*
X176637637Y-78319041D01*
X176437759Y-78119163D01*
X176283000Y-78015757D01*
X176283000Y-77911843D01*
X176437759Y-77808437D01*
X176637637Y-77608559D01*
X176794680Y-77373527D01*
X176902853Y-77112374D01*
X176958000Y-76835135D01*
X176958000Y-76552465D01*
X176902853Y-76275226D01*
X176794680Y-76014073D01*
X176637637Y-75779041D01*
X176437759Y-75579163D01*
X176202727Y-75422120D01*
X176192135Y-75417733D01*
X176378131Y-75306185D01*
X176586519Y-75117214D01*
X176754037Y-74891220D01*
X176874246Y-74636887D01*
X176914904Y-74502839D01*
X176792915Y-74280800D01*
X175650000Y-74280800D01*
X175650000Y-74300800D01*
X175396000Y-74300800D01*
X175396000Y-74280800D01*
X175376000Y-74280800D01*
X175376000Y-74026800D01*
X175396000Y-74026800D01*
X175396000Y-72883176D01*
X175650000Y-72883176D01*
X175650000Y-74026800D01*
X176792915Y-74026800D01*
X176914904Y-73804761D01*
X176874246Y-73670713D01*
X176754037Y-73416380D01*
X176586519Y-73190386D01*
X176378131Y-73001415D01*
X176136881Y-72856730D01*
X175872040Y-72761891D01*
X175650000Y-72883176D01*
X175396000Y-72883176D01*
X175173960Y-72761891D01*
X174909119Y-72856730D01*
X174667869Y-73001415D01*
X174459481Y-73190386D01*
X174291963Y-73416380D01*
X174235242Y-73536388D01*
X174206937Y-73494026D01*
X174062774Y-73349863D01*
X173893256Y-73236595D01*
X173704898Y-73158574D01*
X173504939Y-73118800D01*
X173442802Y-73118800D01*
X172083000Y-71758999D01*
X172083000Y-69381978D01*
X172269632Y-69257275D01*
X172476475Y-69050432D01*
X172593000Y-68876040D01*
X172709525Y-69050432D01*
G37*
X172709525Y-69050432D02*
X172916368Y-69257275D01*
X173159589Y-69419790D01*
X173429842Y-69531732D01*
X173716740Y-69588800D01*
X174009260Y-69588800D01*
X174296158Y-69531732D01*
X174566411Y-69419790D01*
X174773630Y-69281331D01*
X175282401Y-69790102D01*
X175306199Y-69819101D01*
X175335197Y-69842899D01*
X175421923Y-69914074D01*
X175532653Y-69973261D01*
X175553953Y-69984646D01*
X175697214Y-70028103D01*
X175808867Y-70039100D01*
X175808876Y-70039100D01*
X175846199Y-70042776D01*
X175883522Y-70039100D01*
X177424838Y-70039100D01*
X177428853Y-70041246D01*
X177572114Y-70084703D01*
X177683767Y-70095700D01*
X177683777Y-70095700D01*
X177721099Y-70099376D01*
X177758422Y-70095700D01*
X179020099Y-70095700D01*
X179868000Y-70943602D01*
X179868000Y-71005739D01*
X179907774Y-71205698D01*
X179985795Y-71394056D01*
X180099063Y-71563574D01*
X180189878Y-71654389D01*
X180186326Y-71656763D01*
X180042163Y-71800926D01*
X179928895Y-71970444D01*
X179850874Y-72158802D01*
X179811100Y-72358761D01*
X179811100Y-72562639D01*
X179846372Y-72739966D01*
X179831169Y-72746263D01*
X179547002Y-72936137D01*
X179305337Y-73177802D01*
X179115463Y-73461969D01*
X178984675Y-73777719D01*
X178918000Y-74112917D01*
X178918000Y-74454683D01*
X178984675Y-74789881D01*
X179115463Y-75105631D01*
X179305337Y-75389798D01*
X179547002Y-75631463D01*
X179831169Y-75821337D01*
X179893000Y-75846948D01*
X179893000Y-76891598D01*
X176640853Y-80143745D01*
X176794680Y-79913527D01*
X176902853Y-79652374D01*
X176958000Y-79375135D01*
X176958000Y-79092465D01*
X176902853Y-78815226D01*
X176794680Y-78554073D01*
X176637637Y-78319041D01*
X176437759Y-78119163D01*
X176283000Y-78015757D01*
X176283000Y-77911843D01*
X176437759Y-77808437D01*
X176637637Y-77608559D01*
X176794680Y-77373527D01*
X176902853Y-77112374D01*
X176958000Y-76835135D01*
X176958000Y-76552465D01*
X176902853Y-76275226D01*
X176794680Y-76014073D01*
X176637637Y-75779041D01*
X176437759Y-75579163D01*
X176202727Y-75422120D01*
X176192135Y-75417733D01*
X176378131Y-75306185D01*
X176586519Y-75117214D01*
X176754037Y-74891220D01*
X176874246Y-74636887D01*
X176914904Y-74502839D01*
X176792915Y-74280800D01*
X175650000Y-74280800D01*
X175650000Y-74300800D01*
X175396000Y-74300800D01*
X175396000Y-74280800D01*
X175376000Y-74280800D01*
X175376000Y-74026800D01*
X175396000Y-74026800D01*
X175396000Y-72883176D01*
X175650000Y-72883176D01*
X175650000Y-74026800D01*
X176792915Y-74026800D01*
X176914904Y-73804761D01*
X176874246Y-73670713D01*
X176754037Y-73416380D01*
X176586519Y-73190386D01*
X176378131Y-73001415D01*
X176136881Y-72856730D01*
X175872040Y-72761891D01*
X175650000Y-72883176D01*
X175396000Y-72883176D01*
X175173960Y-72761891D01*
X174909119Y-72856730D01*
X174667869Y-73001415D01*
X174459481Y-73190386D01*
X174291963Y-73416380D01*
X174235242Y-73536388D01*
X174206937Y-73494026D01*
X174062774Y-73349863D01*
X173893256Y-73236595D01*
X173704898Y-73158574D01*
X173504939Y-73118800D01*
X173442802Y-73118800D01*
X172083000Y-71758999D01*
X172083000Y-69381978D01*
X172269632Y-69257275D01*
X172476475Y-69050432D01*
X172593000Y-68876040D01*
X172709525Y-69050432D01*
G36*
X185367822Y-68985155D02*
G01*
X185562731Y-69201388D01*
X185661116Y-69274773D01*
X185520463Y-69415426D01*
X185407195Y-69584944D01*
X185329174Y-69773302D01*
X185289400Y-69973261D01*
X185289400Y-70177139D01*
X185329174Y-70377098D01*
X185407195Y-70565456D01*
X185520463Y-70734974D01*
X185664626Y-70879137D01*
X185834144Y-70992405D01*
X186022502Y-71070426D01*
X186222461Y-71110200D01*
X186426339Y-71110200D01*
X186626298Y-71070426D01*
X186814656Y-70992405D01*
X186984174Y-70879137D01*
X187128337Y-70734974D01*
X187241605Y-70565456D01*
X187319626Y-70377098D01*
X187359400Y-70177139D01*
X187359400Y-70115001D01*
X187958172Y-69516230D01*
X188008820Y-69543302D01*
X188128518Y-69579612D01*
X188253000Y-69591872D01*
X188343001Y-69591872D01*
X188343000Y-73546998D01*
X187300966Y-74589032D01*
X187321325Y-74539881D01*
X187388000Y-74204683D01*
X187388000Y-73862917D01*
X187321325Y-73527719D01*
X187190537Y-73211969D01*
X187000663Y-72927802D01*
X186758998Y-72686137D01*
X186474831Y-72496263D01*
X186159081Y-72365475D01*
X185823883Y-72298800D01*
X185482117Y-72298800D01*
X185146919Y-72365475D01*
X184831169Y-72496263D01*
X184547002Y-72686137D01*
X184305337Y-72927802D01*
X184115463Y-73211969D01*
X183984675Y-73527719D01*
X183918000Y-73862917D01*
X183918000Y-74204683D01*
X183984675Y-74539881D01*
X184115463Y-74855631D01*
X184305337Y-75139798D01*
X184547002Y-75381463D01*
X184831169Y-75571337D01*
X185146919Y-75702125D01*
X185482117Y-75768800D01*
X185823883Y-75768800D01*
X186159081Y-75702125D01*
X186208233Y-75681766D01*
X183560599Y-78329400D01*
X183498461Y-78329400D01*
X183298502Y-78369174D01*
X183171000Y-78421987D01*
X183171000Y-74062923D01*
X183174676Y-74025600D01*
X183171000Y-73988277D01*
X183171000Y-73988267D01*
X183160003Y-73876614D01*
X183116546Y-73733353D01*
X183045974Y-73601324D01*
X182951001Y-73485599D01*
X182922003Y-73461801D01*
X181881100Y-72420899D01*
X181881100Y-72358761D01*
X181841326Y-72158802D01*
X181763305Y-71970444D01*
X181650037Y-71800926D01*
X181559222Y-71710111D01*
X181562774Y-71707737D01*
X181706937Y-71563574D01*
X181820205Y-71394056D01*
X181898226Y-71205698D01*
X181919897Y-71096747D01*
X182028848Y-71075076D01*
X182217206Y-70997055D01*
X182386724Y-70883787D01*
X182530887Y-70739624D01*
X182644155Y-70570106D01*
X182722176Y-70381748D01*
X182761950Y-70181789D01*
X182761950Y-69977911D01*
X182722176Y-69777952D01*
X182644155Y-69589594D01*
X182530887Y-69420076D01*
X182392738Y-69281927D01*
X182429632Y-69257275D01*
X182636475Y-69050432D01*
X182753000Y-68876040D01*
X182869525Y-69050432D01*
X183076368Y-69257275D01*
X183319589Y-69419790D01*
X183589842Y-69531732D01*
X183876740Y-69588800D01*
X184169260Y-69588800D01*
X184456158Y-69531732D01*
X184726411Y-69419790D01*
X184969632Y-69257275D01*
X185176475Y-69050432D01*
X185298195Y-68868266D01*
X185367822Y-68985155D01*
G37*
X185367822Y-68985155D02*
X185562731Y-69201388D01*
X185661116Y-69274773D01*
X185520463Y-69415426D01*
X185407195Y-69584944D01*
X185329174Y-69773302D01*
X185289400Y-69973261D01*
X185289400Y-70177139D01*
X185329174Y-70377098D01*
X185407195Y-70565456D01*
X185520463Y-70734974D01*
X185664626Y-70879137D01*
X185834144Y-70992405D01*
X186022502Y-71070426D01*
X186222461Y-71110200D01*
X186426339Y-71110200D01*
X186626298Y-71070426D01*
X186814656Y-70992405D01*
X186984174Y-70879137D01*
X187128337Y-70734974D01*
X187241605Y-70565456D01*
X187319626Y-70377098D01*
X187359400Y-70177139D01*
X187359400Y-70115001D01*
X187958172Y-69516230D01*
X188008820Y-69543302D01*
X188128518Y-69579612D01*
X188253000Y-69591872D01*
X188343001Y-69591872D01*
X188343000Y-73546998D01*
X187300966Y-74589032D01*
X187321325Y-74539881D01*
X187388000Y-74204683D01*
X187388000Y-73862917D01*
X187321325Y-73527719D01*
X187190537Y-73211969D01*
X187000663Y-72927802D01*
X186758998Y-72686137D01*
X186474831Y-72496263D01*
X186159081Y-72365475D01*
X185823883Y-72298800D01*
X185482117Y-72298800D01*
X185146919Y-72365475D01*
X184831169Y-72496263D01*
X184547002Y-72686137D01*
X184305337Y-72927802D01*
X184115463Y-73211969D01*
X183984675Y-73527719D01*
X183918000Y-73862917D01*
X183918000Y-74204683D01*
X183984675Y-74539881D01*
X184115463Y-74855631D01*
X184305337Y-75139798D01*
X184547002Y-75381463D01*
X184831169Y-75571337D01*
X185146919Y-75702125D01*
X185482117Y-75768800D01*
X185823883Y-75768800D01*
X186159081Y-75702125D01*
X186208233Y-75681766D01*
X183560599Y-78329400D01*
X183498461Y-78329400D01*
X183298502Y-78369174D01*
X183171000Y-78421987D01*
X183171000Y-74062923D01*
X183174676Y-74025600D01*
X183171000Y-73988277D01*
X183171000Y-73988267D01*
X183160003Y-73876614D01*
X183116546Y-73733353D01*
X183045974Y-73601324D01*
X182951001Y-73485599D01*
X182922003Y-73461801D01*
X181881100Y-72420899D01*
X181881100Y-72358761D01*
X181841326Y-72158802D01*
X181763305Y-71970444D01*
X181650037Y-71800926D01*
X181559222Y-71710111D01*
X181562774Y-71707737D01*
X181706937Y-71563574D01*
X181820205Y-71394056D01*
X181898226Y-71205698D01*
X181919897Y-71096747D01*
X182028848Y-71075076D01*
X182217206Y-70997055D01*
X182386724Y-70883787D01*
X182530887Y-70739624D01*
X182644155Y-70570106D01*
X182722176Y-70381748D01*
X182761950Y-70181789D01*
X182761950Y-69977911D01*
X182722176Y-69777952D01*
X182644155Y-69589594D01*
X182530887Y-69420076D01*
X182392738Y-69281927D01*
X182429632Y-69257275D01*
X182636475Y-69050432D01*
X182753000Y-68876040D01*
X182869525Y-69050432D01*
X183076368Y-69257275D01*
X183319589Y-69419790D01*
X183589842Y-69531732D01*
X183876740Y-69588800D01*
X184169260Y-69588800D01*
X184456158Y-69531732D01*
X184726411Y-69419790D01*
X184969632Y-69257275D01*
X185176475Y-69050432D01*
X185298195Y-68868266D01*
X185367822Y-68985155D01*
M02*
