G04 #@! TF.GenerationSoftware,KiCad,Pcbnew,5.1.5-52549c5~84~ubuntu18.04.1*
G04 #@! TF.CreationDate,2020-03-05T18:32:34-05:00*
G04 #@! TF.ProjectId,imac_g3_333mhz_slot_loading_J20_adapter_board,696d6163-5f67-4335-9f33-33336d687a5f,rev?*
G04 #@! TF.SameCoordinates,Original*
G04 #@! TF.FileFunction,Copper,L2,Bot*
G04 #@! TF.FilePolarity,Positive*
%FSLAX46Y46*%
G04 Gerber Fmt 4.6, Leading zero omitted, Abs format (unit mm)*
G04 Created by KiCad (PCBNEW 5.1.5-52549c5~84~ubuntu18.04.1) date 2020-03-05 18:32:34*
%MOMM*%
%LPD*%
G04 APERTURE LIST*
%ADD10C,2.000000*%
%ADD11R,1.600000X1.600000*%
%ADD12C,1.600000*%
%ADD13C,4.000000*%
%ADD14O,1.700000X1.700000*%
%ADD15R,1.700000X1.700000*%
%ADD16O,1.600000X1.600000*%
%ADD17C,1.500000*%
%ADD18O,2.200000X2.200000*%
%ADD19R,2.200000X2.200000*%
%ADD20C,7.000001*%
%ADD21R,2.600000X2.600000*%
%ADD22C,2.600000*%
%ADD23C,0.100000*%
%ADD24C,0.800000*%
%ADD25C,0.250000*%
%ADD26C,0.254000*%
G04 APERTURE END LIST*
D10*
X206756000Y-77216000D03*
X206756000Y-87216000D03*
X212852000Y-77376000D03*
X212852000Y-87376000D03*
X161544000Y-93820000D03*
X161544000Y-83820000D03*
X161544000Y-80104000D03*
X161544000Y-70104000D03*
D11*
X178943000Y-98044000D03*
D12*
X176653000Y-98044000D03*
X174363000Y-98044000D03*
X172073000Y-98044000D03*
X169783000Y-98044000D03*
X180088000Y-100024000D03*
X177798000Y-100024000D03*
X175508000Y-100024000D03*
X173218000Y-100024000D03*
X170928000Y-100024000D03*
X178943000Y-102004000D03*
X176653000Y-102004000D03*
X174363000Y-102004000D03*
X172073000Y-102004000D03*
X169783000Y-102004000D03*
D13*
X162128000Y-99464000D03*
X187128000Y-99464000D03*
D14*
X166243000Y-65563800D03*
X166243000Y-68103800D03*
X168783000Y-65563800D03*
X168783000Y-68103800D03*
X171323000Y-65563800D03*
X171323000Y-68103800D03*
X173863000Y-65563800D03*
X173863000Y-68103800D03*
X176403000Y-65563800D03*
X176403000Y-68103800D03*
X178943000Y-65563800D03*
X178943000Y-68103800D03*
X181483000Y-65563800D03*
X181483000Y-68103800D03*
X184023000Y-65563800D03*
X184023000Y-68103800D03*
X186563000Y-65563800D03*
X186563000Y-68103800D03*
X189103000Y-65563800D03*
D15*
X189103000Y-68103800D03*
D11*
X194526000Y-65328800D03*
D16*
X202146000Y-98348800D03*
X194526000Y-67868800D03*
X202146000Y-95808800D03*
X194526000Y-70408800D03*
X202146000Y-93268800D03*
X194526000Y-72948800D03*
X202146000Y-90728800D03*
X194526000Y-75488800D03*
X202146000Y-88188800D03*
X194526000Y-78028800D03*
X202146000Y-85648800D03*
X194526000Y-80568800D03*
X202146000Y-83108800D03*
X194526000Y-83108800D03*
X202146000Y-80568800D03*
X194526000Y-85648800D03*
X202146000Y-78028800D03*
X194526000Y-88188800D03*
X202146000Y-75488800D03*
X194526000Y-90728800D03*
X202146000Y-72948800D03*
X194526000Y-93268800D03*
X202146000Y-70408800D03*
X194526000Y-95808800D03*
X202146000Y-67868800D03*
X194526000Y-98348800D03*
X202146000Y-65328800D03*
X156845000Y-65405000D03*
X149225000Y-98425000D03*
X156845000Y-67945000D03*
X149225000Y-95885000D03*
X156845000Y-70485000D03*
X149225000Y-93345000D03*
X156845000Y-73025000D03*
X149225000Y-90805000D03*
X156845000Y-75565000D03*
X149225000Y-88265000D03*
X156845000Y-78105000D03*
X149225000Y-85725000D03*
X156845000Y-80645000D03*
X149225000Y-83185000D03*
X156845000Y-83185000D03*
X149225000Y-80645000D03*
X156845000Y-85725000D03*
X149225000Y-78105000D03*
X156845000Y-88265000D03*
X149225000Y-75565000D03*
X156845000Y-90805000D03*
X149225000Y-73025000D03*
X156845000Y-93345000D03*
X149225000Y-70485000D03*
X156845000Y-95885000D03*
X149225000Y-67945000D03*
X156845000Y-98425000D03*
D11*
X149225000Y-65405000D03*
D17*
X195580000Y-105664000D03*
X200460000Y-105664000D03*
X154232000Y-105664000D03*
X149352000Y-105664000D03*
D18*
X177292000Y-91440000D03*
D19*
X169672000Y-91440000D03*
X169672000Y-84836000D03*
D18*
X177292000Y-84836000D03*
D12*
X169672000Y-78740000D03*
D16*
X177292000Y-78740000D03*
D11*
X182372000Y-79756000D03*
D16*
X189992000Y-87376000D03*
X182372000Y-82296000D03*
X189992000Y-84836000D03*
X182372000Y-84836000D03*
X189992000Y-82296000D03*
X182372000Y-87376000D03*
X189992000Y-79756000D03*
D20*
X209550000Y-69850000D03*
D12*
X205740000Y-105156000D03*
D16*
X213360000Y-105156000D03*
D21*
X141605000Y-70104000D03*
D22*
X141605000Y-75104000D03*
X141605000Y-80104000D03*
X141605000Y-85104000D03*
X141605000Y-90104000D03*
X141605000Y-95104000D03*
D11*
X208280000Y-94996000D03*
D12*
X211780000Y-94996000D03*
X138740000Y-105156000D03*
D11*
X142240000Y-105156000D03*
G04 #@! TA.AperFunction,SMDPad,CuDef*
D23*
G36*
X175626000Y-107429398D02*
G01*
X175601466Y-107429398D01*
X175552635Y-107424588D01*
X175504510Y-107415016D01*
X175457555Y-107400772D01*
X175412222Y-107381995D01*
X175368949Y-107358864D01*
X175328150Y-107331604D01*
X175290221Y-107300476D01*
X175255524Y-107265779D01*
X175224396Y-107227850D01*
X175197136Y-107187051D01*
X175174005Y-107143778D01*
X175155228Y-107098445D01*
X175140984Y-107051490D01*
X175131412Y-107003365D01*
X175126602Y-106954534D01*
X175126602Y-106930000D01*
X175126000Y-106930000D01*
X175126000Y-106430000D01*
X175126602Y-106430000D01*
X175126602Y-106405466D01*
X175131412Y-106356635D01*
X175140984Y-106308510D01*
X175155228Y-106261555D01*
X175174005Y-106216222D01*
X175197136Y-106172949D01*
X175224396Y-106132150D01*
X175255524Y-106094221D01*
X175290221Y-106059524D01*
X175328150Y-106028396D01*
X175368949Y-106001136D01*
X175412222Y-105978005D01*
X175457555Y-105959228D01*
X175504510Y-105944984D01*
X175552635Y-105935412D01*
X175601466Y-105930602D01*
X175626000Y-105930602D01*
X175626000Y-105930000D01*
X176126000Y-105930000D01*
X176126000Y-107430000D01*
X175626000Y-107430000D01*
X175626000Y-107429398D01*
G37*
G04 #@! TD.AperFunction*
G04 #@! TA.AperFunction,SMDPad,CuDef*
G36*
X176426000Y-105930000D02*
G01*
X176926000Y-105930000D01*
X176926000Y-105930602D01*
X176950534Y-105930602D01*
X176999365Y-105935412D01*
X177047490Y-105944984D01*
X177094445Y-105959228D01*
X177139778Y-105978005D01*
X177183051Y-106001136D01*
X177223850Y-106028396D01*
X177261779Y-106059524D01*
X177296476Y-106094221D01*
X177327604Y-106132150D01*
X177354864Y-106172949D01*
X177377995Y-106216222D01*
X177396772Y-106261555D01*
X177411016Y-106308510D01*
X177420588Y-106356635D01*
X177425398Y-106405466D01*
X177425398Y-106430000D01*
X177426000Y-106430000D01*
X177426000Y-106930000D01*
X177425398Y-106930000D01*
X177425398Y-106954534D01*
X177420588Y-107003365D01*
X177411016Y-107051490D01*
X177396772Y-107098445D01*
X177377995Y-107143778D01*
X177354864Y-107187051D01*
X177327604Y-107227850D01*
X177296476Y-107265779D01*
X177261779Y-107300476D01*
X177223850Y-107331604D01*
X177183051Y-107358864D01*
X177139778Y-107381995D01*
X177094445Y-107400772D01*
X177047490Y-107415016D01*
X176999365Y-107424588D01*
X176950534Y-107429398D01*
X176926000Y-107429398D01*
X176926000Y-107430000D01*
X176426000Y-107430000D01*
X176426000Y-105930000D01*
G37*
G04 #@! TD.AperFunction*
G04 #@! TA.AperFunction,SMDPad,CuDef*
G36*
X166774000Y-105930000D02*
G01*
X167274000Y-105930000D01*
X167274000Y-105930602D01*
X167298534Y-105930602D01*
X167347365Y-105935412D01*
X167395490Y-105944984D01*
X167442445Y-105959228D01*
X167487778Y-105978005D01*
X167531051Y-106001136D01*
X167571850Y-106028396D01*
X167609779Y-106059524D01*
X167644476Y-106094221D01*
X167675604Y-106132150D01*
X167702864Y-106172949D01*
X167725995Y-106216222D01*
X167744772Y-106261555D01*
X167759016Y-106308510D01*
X167768588Y-106356635D01*
X167773398Y-106405466D01*
X167773398Y-106430000D01*
X167774000Y-106430000D01*
X167774000Y-106930000D01*
X167773398Y-106930000D01*
X167773398Y-106954534D01*
X167768588Y-107003365D01*
X167759016Y-107051490D01*
X167744772Y-107098445D01*
X167725995Y-107143778D01*
X167702864Y-107187051D01*
X167675604Y-107227850D01*
X167644476Y-107265779D01*
X167609779Y-107300476D01*
X167571850Y-107331604D01*
X167531051Y-107358864D01*
X167487778Y-107381995D01*
X167442445Y-107400772D01*
X167395490Y-107415016D01*
X167347365Y-107424588D01*
X167298534Y-107429398D01*
X167274000Y-107429398D01*
X167274000Y-107430000D01*
X166774000Y-107430000D01*
X166774000Y-105930000D01*
G37*
G04 #@! TD.AperFunction*
G04 #@! TA.AperFunction,SMDPad,CuDef*
G36*
X165974000Y-107429398D02*
G01*
X165949466Y-107429398D01*
X165900635Y-107424588D01*
X165852510Y-107415016D01*
X165805555Y-107400772D01*
X165760222Y-107381995D01*
X165716949Y-107358864D01*
X165676150Y-107331604D01*
X165638221Y-107300476D01*
X165603524Y-107265779D01*
X165572396Y-107227850D01*
X165545136Y-107187051D01*
X165522005Y-107143778D01*
X165503228Y-107098445D01*
X165488984Y-107051490D01*
X165479412Y-107003365D01*
X165474602Y-106954534D01*
X165474602Y-106930000D01*
X165474000Y-106930000D01*
X165474000Y-106430000D01*
X165474602Y-106430000D01*
X165474602Y-106405466D01*
X165479412Y-106356635D01*
X165488984Y-106308510D01*
X165503228Y-106261555D01*
X165522005Y-106216222D01*
X165545136Y-106172949D01*
X165572396Y-106132150D01*
X165603524Y-106094221D01*
X165638221Y-106059524D01*
X165676150Y-106028396D01*
X165716949Y-106001136D01*
X165760222Y-105978005D01*
X165805555Y-105959228D01*
X165852510Y-105944984D01*
X165900635Y-105935412D01*
X165949466Y-105930602D01*
X165974000Y-105930602D01*
X165974000Y-105930000D01*
X166474000Y-105930000D01*
X166474000Y-107430000D01*
X165974000Y-107430000D01*
X165974000Y-107429398D01*
G37*
G04 #@! TD.AperFunction*
D24*
X173605200Y-94861200D03*
X179937900Y-86937700D03*
D25*
X168415600Y-66739100D02*
X168783000Y-66739100D01*
X169672000Y-78740000D02*
X167607700Y-76675700D01*
X167607700Y-76675700D02*
X167607700Y-67547000D01*
X167607700Y-67547000D02*
X168415600Y-66739100D01*
X168415600Y-66739100D02*
X167418300Y-65741800D01*
X167418300Y-65741800D02*
X167418300Y-65563800D01*
X166243000Y-65563800D02*
X167418300Y-65563800D01*
X189992000Y-79756000D02*
X191117300Y-79756000D01*
X191117300Y-79756000D02*
X194331900Y-82970600D01*
X194331900Y-82970600D02*
X194526000Y-82970600D01*
X168783000Y-65563800D02*
X168783000Y-66739100D01*
X202146000Y-80568800D02*
X201020700Y-80568800D01*
X194526000Y-83108800D02*
X194526000Y-82970600D01*
X201020700Y-80568800D02*
X198618900Y-82970600D01*
X198618900Y-82970600D02*
X194526000Y-82970600D01*
X203403200Y-80568800D02*
X202146000Y-80568800D01*
X161544000Y-83820000D02*
X161544000Y-89805000D01*
X161544000Y-89805000D02*
X169783000Y-98044000D01*
X203403200Y-80568800D02*
X206756000Y-77216000D01*
X203403200Y-80568800D02*
X203403200Y-86619200D01*
X203403200Y-86619200D02*
X211780000Y-94996000D01*
X149225000Y-83185000D02*
X149225000Y-84310300D01*
X138740000Y-105156000D02*
X146828000Y-97068000D01*
X146828000Y-97068000D02*
X146828000Y-86426000D01*
X146828000Y-86426000D02*
X148943700Y-84310300D01*
X148943700Y-84310300D02*
X149225000Y-84310300D01*
X186563000Y-65563800D02*
X186563000Y-68103800D01*
X194526000Y-85648800D02*
X194526000Y-86774100D01*
X195580000Y-105664000D02*
X195651300Y-105592700D01*
X195651300Y-105592700D02*
X195651300Y-87618000D01*
X195651300Y-87618000D02*
X194807400Y-86774100D01*
X194807400Y-86774100D02*
X194526000Y-86774100D01*
X149225000Y-85725000D02*
X149225000Y-86850300D01*
X149352000Y-105664000D02*
X148099700Y-104411700D01*
X148099700Y-104411700D02*
X148099700Y-87694200D01*
X148099700Y-87694200D02*
X148943600Y-86850300D01*
X148943600Y-86850300D02*
X149225000Y-86850300D01*
X153838800Y-89659500D02*
X156503300Y-86995000D01*
X156503300Y-86995000D02*
X157236800Y-86995000D01*
X157236800Y-86995000D02*
X158261400Y-85970400D01*
X158261400Y-85970400D02*
X158261400Y-73386600D01*
X158261400Y-73386600D02*
X161544000Y-70104000D01*
X154232000Y-105664000D02*
X154232000Y-90052700D01*
X154232000Y-90052700D02*
X153838800Y-89659500D01*
X153838800Y-89659500D02*
X149494200Y-89659500D01*
X149494200Y-89659500D02*
X149225000Y-89390300D01*
X149225000Y-88265000D02*
X149225000Y-89390300D01*
X169958300Y-68103800D02*
X169958300Y-67736500D01*
X169958300Y-67736500D02*
X170766400Y-66928400D01*
X170766400Y-66928400D02*
X174352400Y-66928400D01*
X174352400Y-66928400D02*
X175202800Y-67778800D01*
X175202800Y-67778800D02*
X175202800Y-79752800D01*
X175202800Y-79752800D02*
X179212600Y-83762600D01*
X179212600Y-83762600D02*
X179212600Y-96649100D01*
X179212600Y-96649100D02*
X178943000Y-96918700D01*
X178943000Y-98044000D02*
X178943000Y-96918700D01*
X168783000Y-68103800D02*
X169958300Y-68103800D01*
X171323000Y-69279100D02*
X171323000Y-92579000D01*
X171323000Y-92579000D02*
X173605200Y-94861200D01*
X171323000Y-68103800D02*
X171323000Y-69279100D01*
X173863000Y-68103800D02*
X173863000Y-79049900D01*
X173863000Y-79049900D02*
X178762300Y-83949200D01*
X178762300Y-83949200D02*
X178762300Y-93644700D01*
X178762300Y-93644700D02*
X174363000Y-98044000D01*
X177292000Y-86261300D02*
X174330600Y-89222700D01*
X174330600Y-89222700D02*
X174330600Y-95598100D01*
X174330600Y-95598100D02*
X173218000Y-96710700D01*
X173218000Y-96710700D02*
X173218000Y-100024000D01*
X177292000Y-84836000D02*
X177292000Y-86261300D01*
X156845000Y-67945000D02*
X157970300Y-67945000D01*
X175626000Y-106680000D02*
X174550100Y-107755900D01*
X174550100Y-107755900D02*
X165335300Y-107755900D01*
X165335300Y-107755900D02*
X159321400Y-101742000D01*
X159321400Y-101742000D02*
X159321400Y-74300600D01*
X159321400Y-74300600D02*
X162870600Y-70751400D01*
X162870600Y-70751400D02*
X162870600Y-69517300D01*
X162870600Y-69517300D02*
X161298300Y-67945000D01*
X161298300Y-67945000D02*
X157970300Y-67945000D01*
X176403000Y-68103800D02*
X176403000Y-69279100D01*
X176403000Y-69279100D02*
X176126400Y-69555700D01*
X176126400Y-69555700D02*
X176126400Y-79462700D01*
X176126400Y-79462700D02*
X179937900Y-83274200D01*
X179937900Y-83274200D02*
X179937900Y-86937700D01*
X165974000Y-106680000D02*
X159800200Y-100506200D01*
X159800200Y-100506200D02*
X159800200Y-74458700D01*
X159800200Y-74458700D02*
X163371000Y-70887900D01*
X163371000Y-70887900D02*
X163371000Y-69380800D01*
X163371000Y-69380800D02*
X159395200Y-65405000D01*
X159395200Y-65405000D02*
X156845000Y-65405000D01*
X184023000Y-65563800D02*
X184023000Y-66739100D01*
X194526000Y-80568800D02*
X194526000Y-79443500D01*
X194526000Y-79443500D02*
X194244700Y-79443500D01*
X194244700Y-79443500D02*
X185198300Y-70397100D01*
X185198300Y-70397100D02*
X185198300Y-67547000D01*
X185198300Y-67547000D02*
X184390400Y-66739100D01*
X184390400Y-66739100D02*
X184023000Y-66739100D01*
X202146000Y-85648800D02*
X202146000Y-86774100D01*
X208280000Y-94996000D02*
X208280000Y-92626800D01*
X208280000Y-92626800D02*
X202427300Y-86774100D01*
X202427300Y-86774100D02*
X202146000Y-86774100D01*
X213360000Y-104030700D02*
X208280000Y-98950700D01*
X208280000Y-98950700D02*
X208280000Y-94996000D01*
X213360000Y-105156000D02*
X213360000Y-104030700D01*
X189992000Y-81170700D02*
X189787500Y-81170700D01*
X189787500Y-81170700D02*
X180304900Y-71688100D01*
X180304900Y-71688100D02*
X180304900Y-67733500D01*
X180304900Y-67733500D02*
X179310500Y-66739100D01*
X179310500Y-66739100D02*
X178943000Y-66739100D01*
X178943000Y-65563800D02*
X178943000Y-66739100D01*
X189992000Y-82296000D02*
X189992000Y-81170700D01*
X194526000Y-95808800D02*
X194526000Y-94683500D01*
X182372000Y-82296000D02*
X182372000Y-82810900D01*
X182372000Y-82810900D02*
X194244600Y-94683500D01*
X194244600Y-94683500D02*
X194526000Y-94683500D01*
X156845000Y-85725000D02*
X155719700Y-85725000D01*
X155719700Y-85725000D02*
X150639700Y-80645000D01*
X150639700Y-80645000D02*
X149225000Y-80645000D01*
X169672000Y-84836000D02*
X169672000Y-91440000D01*
X177292000Y-78740000D02*
X177292000Y-79865300D01*
X182372000Y-84836000D02*
X182372000Y-83710700D01*
X182372000Y-83710700D02*
X181137400Y-83710700D01*
X181137400Y-83710700D02*
X177292000Y-79865300D01*
X202146000Y-88188800D02*
X201020700Y-88188800D01*
X141605000Y-70104000D02*
X143230300Y-70104000D01*
X143230300Y-70104000D02*
X143230300Y-69291300D01*
X143230300Y-69291300D02*
X148246500Y-64275100D01*
X148246500Y-64275100D02*
X174236800Y-64275100D01*
X174236800Y-64275100D02*
X175227600Y-65265900D01*
X175227600Y-65265900D02*
X175227600Y-66089400D01*
X175227600Y-66089400D02*
X176066600Y-66928400D01*
X176066600Y-66928400D02*
X176928600Y-66928400D01*
X176928600Y-66928400D02*
X177673000Y-67672800D01*
X177673000Y-67672800D02*
X177673000Y-71568600D01*
X177673000Y-71568600D02*
X189525800Y-83421400D01*
X189525800Y-83421400D02*
X190304600Y-83421400D01*
X190304600Y-83421400D02*
X191262000Y-84378800D01*
X191262000Y-84378800D02*
X197210700Y-84378800D01*
X197210700Y-84378800D02*
X201020700Y-88188800D01*
X202146000Y-89314100D02*
X202350500Y-89314100D01*
X202350500Y-89314100D02*
X205740000Y-92703600D01*
X205740000Y-92703600D02*
X205740000Y-105156000D01*
X202146000Y-88188800D02*
X202146000Y-89314100D01*
X176926000Y-106680000D02*
X176926000Y-102277000D01*
X176926000Y-102277000D02*
X176653000Y-102004000D01*
X167274000Y-106680000D02*
X169783000Y-104171000D01*
X169783000Y-104171000D02*
X169783000Y-102004000D01*
D26*
G36*
X177436893Y-58396418D02*
G01*
X181894818Y-58572394D01*
X186343904Y-58903844D01*
X190778726Y-59390364D01*
X195193826Y-60031355D01*
X199583891Y-60826045D01*
X203943576Y-61773468D01*
X208267481Y-62872450D01*
X212551905Y-64122104D01*
X215239998Y-64995518D01*
X215240001Y-109203711D01*
X215230420Y-109301424D01*
X215211420Y-109364357D01*
X215180554Y-109422406D01*
X215139011Y-109473343D01*
X215088356Y-109515248D01*
X215030529Y-109546515D01*
X214967728Y-109565956D01*
X214872212Y-109575995D01*
X134382349Y-109560007D01*
X134284576Y-109550420D01*
X134221643Y-109531420D01*
X134163594Y-109500554D01*
X134112657Y-109459011D01*
X134070752Y-109408356D01*
X134039485Y-109350529D01*
X134020044Y-109287728D01*
X134010000Y-109192165D01*
X134010000Y-106148702D01*
X137926903Y-106148702D01*
X137998486Y-106392671D01*
X138253996Y-106513571D01*
X138528184Y-106582300D01*
X138810512Y-106596217D01*
X139090130Y-106554787D01*
X139356292Y-106459603D01*
X139481514Y-106392671D01*
X139553097Y-106148702D01*
X138740000Y-105335605D01*
X137926903Y-106148702D01*
X134010000Y-106148702D01*
X134010000Y-105226512D01*
X137299783Y-105226512D01*
X137341213Y-105506130D01*
X137436397Y-105772292D01*
X137503329Y-105897514D01*
X137747298Y-105969097D01*
X138560395Y-105156000D01*
X138919605Y-105156000D01*
X139732702Y-105969097D01*
X139976671Y-105897514D01*
X140097571Y-105642004D01*
X140166300Y-105367816D01*
X140180217Y-105085488D01*
X140138787Y-104805870D01*
X140043603Y-104539708D01*
X139976671Y-104414486D01*
X139777340Y-104356000D01*
X140801928Y-104356000D01*
X140801928Y-105956000D01*
X140814188Y-106080482D01*
X140850498Y-106200180D01*
X140909463Y-106310494D01*
X140988815Y-106407185D01*
X141085506Y-106486537D01*
X141195820Y-106545502D01*
X141315518Y-106581812D01*
X141440000Y-106594072D01*
X143040000Y-106594072D01*
X143164482Y-106581812D01*
X143284180Y-106545502D01*
X143394494Y-106486537D01*
X143491185Y-106407185D01*
X143570537Y-106310494D01*
X143629502Y-106200180D01*
X143665812Y-106080482D01*
X143678072Y-105956000D01*
X143678072Y-104356000D01*
X143665812Y-104231518D01*
X143629502Y-104111820D01*
X143570537Y-104001506D01*
X143491185Y-103904815D01*
X143394494Y-103825463D01*
X143284180Y-103766498D01*
X143164482Y-103730188D01*
X143040000Y-103717928D01*
X141440000Y-103717928D01*
X141315518Y-103730188D01*
X141195820Y-103766498D01*
X141085506Y-103825463D01*
X140988815Y-103904815D01*
X140909463Y-104001506D01*
X140850498Y-104111820D01*
X140814188Y-104231518D01*
X140801928Y-104356000D01*
X139777340Y-104356000D01*
X139732702Y-104342903D01*
X138919605Y-105156000D01*
X138560395Y-105156000D01*
X137747298Y-104342903D01*
X137503329Y-104414486D01*
X137382429Y-104669996D01*
X137313700Y-104944184D01*
X137299783Y-105226512D01*
X134010000Y-105226512D01*
X134010000Y-104163298D01*
X137926903Y-104163298D01*
X138740000Y-104976395D01*
X139553097Y-104163298D01*
X139481514Y-103919329D01*
X139226004Y-103798429D01*
X138951816Y-103729700D01*
X138669488Y-103715783D01*
X138389870Y-103757213D01*
X138123708Y-103852397D01*
X137998486Y-103919329D01*
X137926903Y-104163298D01*
X134010000Y-104163298D01*
X134010000Y-94913419D01*
X139670000Y-94913419D01*
X139670000Y-95294581D01*
X139744361Y-95668419D01*
X139890225Y-96020566D01*
X140101987Y-96337491D01*
X140371509Y-96607013D01*
X140688434Y-96818775D01*
X141040581Y-96964639D01*
X141414419Y-97039000D01*
X141795581Y-97039000D01*
X142169419Y-96964639D01*
X142521566Y-96818775D01*
X142838491Y-96607013D01*
X143108013Y-96337491D01*
X143319775Y-96020566D01*
X143465639Y-95668419D01*
X143540000Y-95294581D01*
X143540000Y-94913419D01*
X143465639Y-94539581D01*
X143319775Y-94187434D01*
X143108013Y-93870509D01*
X142838491Y-93600987D01*
X142521566Y-93389225D01*
X142169419Y-93243361D01*
X141795581Y-93169000D01*
X141414419Y-93169000D01*
X141040581Y-93243361D01*
X140688434Y-93389225D01*
X140371509Y-93600987D01*
X140101987Y-93870509D01*
X139890225Y-94187434D01*
X139744361Y-94539581D01*
X139670000Y-94913419D01*
X134010000Y-94913419D01*
X134010000Y-89913419D01*
X139670000Y-89913419D01*
X139670000Y-90294581D01*
X139744361Y-90668419D01*
X139890225Y-91020566D01*
X140101987Y-91337491D01*
X140371509Y-91607013D01*
X140688434Y-91818775D01*
X141040581Y-91964639D01*
X141414419Y-92039000D01*
X141795581Y-92039000D01*
X142169419Y-91964639D01*
X142521566Y-91818775D01*
X142838491Y-91607013D01*
X143108013Y-91337491D01*
X143319775Y-91020566D01*
X143465639Y-90668419D01*
X143540000Y-90294581D01*
X143540000Y-89913419D01*
X143465639Y-89539581D01*
X143319775Y-89187434D01*
X143108013Y-88870509D01*
X142838491Y-88600987D01*
X142521566Y-88389225D01*
X142169419Y-88243361D01*
X141795581Y-88169000D01*
X141414419Y-88169000D01*
X141040581Y-88243361D01*
X140688434Y-88389225D01*
X140371509Y-88600987D01*
X140101987Y-88870509D01*
X139890225Y-89187434D01*
X139744361Y-89539581D01*
X139670000Y-89913419D01*
X134010000Y-89913419D01*
X134010000Y-84913419D01*
X139670000Y-84913419D01*
X139670000Y-85294581D01*
X139744361Y-85668419D01*
X139890225Y-86020566D01*
X140101987Y-86337491D01*
X140371509Y-86607013D01*
X140688434Y-86818775D01*
X141040581Y-86964639D01*
X141414419Y-87039000D01*
X141795581Y-87039000D01*
X142169419Y-86964639D01*
X142521566Y-86818775D01*
X142838491Y-86607013D01*
X143108013Y-86337491D01*
X143319775Y-86020566D01*
X143465639Y-85668419D01*
X143540000Y-85294581D01*
X143540000Y-84913419D01*
X143465639Y-84539581D01*
X143319775Y-84187434D01*
X143108013Y-83870509D01*
X142838491Y-83600987D01*
X142521566Y-83389225D01*
X142169419Y-83243361D01*
X141795581Y-83169000D01*
X141414419Y-83169000D01*
X141040581Y-83243361D01*
X140688434Y-83389225D01*
X140371509Y-83600987D01*
X140101987Y-83870509D01*
X139890225Y-84187434D01*
X139744361Y-84539581D01*
X139670000Y-84913419D01*
X134010000Y-84913419D01*
X134010000Y-79913419D01*
X139670000Y-79913419D01*
X139670000Y-80294581D01*
X139744361Y-80668419D01*
X139890225Y-81020566D01*
X140101987Y-81337491D01*
X140371509Y-81607013D01*
X140688434Y-81818775D01*
X141040581Y-81964639D01*
X141414419Y-82039000D01*
X141795581Y-82039000D01*
X142169419Y-81964639D01*
X142521566Y-81818775D01*
X142838491Y-81607013D01*
X143108013Y-81337491D01*
X143319775Y-81020566D01*
X143465639Y-80668419D01*
X143540000Y-80294581D01*
X143540000Y-79913419D01*
X143465639Y-79539581D01*
X143319775Y-79187434D01*
X143108013Y-78870509D01*
X142838491Y-78600987D01*
X142521566Y-78389225D01*
X142169419Y-78243361D01*
X141795581Y-78169000D01*
X141414419Y-78169000D01*
X141040581Y-78243361D01*
X140688434Y-78389225D01*
X140371509Y-78600987D01*
X140101987Y-78870509D01*
X139890225Y-79187434D01*
X139744361Y-79539581D01*
X139670000Y-79913419D01*
X134010000Y-79913419D01*
X134010000Y-74913419D01*
X139670000Y-74913419D01*
X139670000Y-75294581D01*
X139744361Y-75668419D01*
X139890225Y-76020566D01*
X140101987Y-76337491D01*
X140371509Y-76607013D01*
X140688434Y-76818775D01*
X141040581Y-76964639D01*
X141414419Y-77039000D01*
X141795581Y-77039000D01*
X142169419Y-76964639D01*
X142521566Y-76818775D01*
X142838491Y-76607013D01*
X143108013Y-76337491D01*
X143319775Y-76020566D01*
X143465639Y-75668419D01*
X143540000Y-75294581D01*
X143540000Y-74913419D01*
X143465639Y-74539581D01*
X143319775Y-74187434D01*
X143108013Y-73870509D01*
X142838491Y-73600987D01*
X142521566Y-73389225D01*
X142169419Y-73243361D01*
X141795581Y-73169000D01*
X141414419Y-73169000D01*
X141040581Y-73243361D01*
X140688434Y-73389225D01*
X140371509Y-73600987D01*
X140101987Y-73870509D01*
X139890225Y-74187434D01*
X139744361Y-74539581D01*
X139670000Y-74913419D01*
X134010000Y-74913419D01*
X134010000Y-68804000D01*
X139666928Y-68804000D01*
X139666928Y-71404000D01*
X139679188Y-71528482D01*
X139715498Y-71648180D01*
X139774463Y-71758494D01*
X139853815Y-71855185D01*
X139950506Y-71934537D01*
X140060820Y-71993502D01*
X140180518Y-72029812D01*
X140305000Y-72042072D01*
X142905000Y-72042072D01*
X143029482Y-72029812D01*
X143149180Y-71993502D01*
X143259494Y-71934537D01*
X143356185Y-71855185D01*
X143435537Y-71758494D01*
X143494502Y-71648180D01*
X143530812Y-71528482D01*
X143543072Y-71404000D01*
X143543072Y-70798575D01*
X143654576Y-70738974D01*
X143770301Y-70644001D01*
X143865274Y-70528276D01*
X143935846Y-70396247D01*
X143979303Y-70252986D01*
X143993977Y-70104000D01*
X143990300Y-70066667D01*
X143990300Y-69606101D01*
X147786928Y-65809474D01*
X147786928Y-66205000D01*
X147799188Y-66329482D01*
X147835498Y-66449180D01*
X147894463Y-66559494D01*
X147973815Y-66656185D01*
X148070506Y-66735537D01*
X148180820Y-66794502D01*
X148300518Y-66830812D01*
X148308961Y-66831643D01*
X148110363Y-67030241D01*
X147953320Y-67265273D01*
X147845147Y-67526426D01*
X147790000Y-67803665D01*
X147790000Y-68086335D01*
X147845147Y-68363574D01*
X147953320Y-68624727D01*
X148110363Y-68859759D01*
X148310241Y-69059637D01*
X148542759Y-69215000D01*
X148310241Y-69370363D01*
X148110363Y-69570241D01*
X147953320Y-69805273D01*
X147845147Y-70066426D01*
X147790000Y-70343665D01*
X147790000Y-70626335D01*
X147845147Y-70903574D01*
X147953320Y-71164727D01*
X148110363Y-71399759D01*
X148310241Y-71599637D01*
X148542759Y-71755000D01*
X148310241Y-71910363D01*
X148110363Y-72110241D01*
X147953320Y-72345273D01*
X147845147Y-72606426D01*
X147790000Y-72883665D01*
X147790000Y-73166335D01*
X147845147Y-73443574D01*
X147953320Y-73704727D01*
X148110363Y-73939759D01*
X148310241Y-74139637D01*
X148542759Y-74295000D01*
X148310241Y-74450363D01*
X148110363Y-74650241D01*
X147953320Y-74885273D01*
X147845147Y-75146426D01*
X147790000Y-75423665D01*
X147790000Y-75706335D01*
X147845147Y-75983574D01*
X147953320Y-76244727D01*
X148110363Y-76479759D01*
X148310241Y-76679637D01*
X148542759Y-76835000D01*
X148310241Y-76990363D01*
X148110363Y-77190241D01*
X147953320Y-77425273D01*
X147845147Y-77686426D01*
X147790000Y-77963665D01*
X147790000Y-78246335D01*
X147845147Y-78523574D01*
X147953320Y-78784727D01*
X148110363Y-79019759D01*
X148310241Y-79219637D01*
X148542759Y-79375000D01*
X148310241Y-79530363D01*
X148110363Y-79730241D01*
X147953320Y-79965273D01*
X147845147Y-80226426D01*
X147790000Y-80503665D01*
X147790000Y-80786335D01*
X147845147Y-81063574D01*
X147953320Y-81324727D01*
X148110363Y-81559759D01*
X148310241Y-81759637D01*
X148545273Y-81916680D01*
X148555865Y-81921067D01*
X148369869Y-82032615D01*
X148161481Y-82221586D01*
X147993963Y-82447580D01*
X147873754Y-82701913D01*
X147833096Y-82835961D01*
X147955085Y-83058000D01*
X149098000Y-83058000D01*
X149098000Y-83038000D01*
X149352000Y-83038000D01*
X149352000Y-83058000D01*
X150494915Y-83058000D01*
X150616904Y-82835961D01*
X150576246Y-82701913D01*
X150456037Y-82447580D01*
X150288519Y-82221586D01*
X150080131Y-82032615D01*
X149894135Y-81921067D01*
X149904727Y-81916680D01*
X150139759Y-81759637D01*
X150339637Y-81559759D01*
X150395721Y-81475823D01*
X155155901Y-86236003D01*
X155179699Y-86265001D01*
X155208697Y-86288799D01*
X155295423Y-86359974D01*
X155418993Y-86426024D01*
X155427453Y-86430546D01*
X155570714Y-86474003D01*
X155623053Y-86479158D01*
X155730363Y-86639759D01*
X155757051Y-86666447D01*
X153523999Y-88899500D01*
X150515414Y-88899500D01*
X150604853Y-88683574D01*
X150660000Y-88406335D01*
X150660000Y-88123665D01*
X150604853Y-87846426D01*
X150496680Y-87585273D01*
X150339637Y-87350241D01*
X150139759Y-87150363D01*
X149963833Y-87032813D01*
X149974003Y-86999286D01*
X149979158Y-86946947D01*
X150139759Y-86839637D01*
X150339637Y-86639759D01*
X150496680Y-86404727D01*
X150604853Y-86143574D01*
X150660000Y-85866335D01*
X150660000Y-85583665D01*
X150604853Y-85306426D01*
X150496680Y-85045273D01*
X150339637Y-84810241D01*
X150139759Y-84610363D01*
X149904727Y-84453320D01*
X149894135Y-84448933D01*
X150080131Y-84337385D01*
X150288519Y-84148414D01*
X150456037Y-83922420D01*
X150576246Y-83668087D01*
X150616904Y-83534039D01*
X150494915Y-83312000D01*
X149352000Y-83312000D01*
X149352000Y-83332000D01*
X149098000Y-83332000D01*
X149098000Y-83312000D01*
X147955085Y-83312000D01*
X147833096Y-83534039D01*
X147873754Y-83668087D01*
X147993963Y-83922420D01*
X148161481Y-84148414D01*
X148369869Y-84337385D01*
X148555865Y-84448933D01*
X148545273Y-84453320D01*
X148310241Y-84610363D01*
X148110363Y-84810241D01*
X147953320Y-85045273D01*
X147845147Y-85306426D01*
X147790000Y-85583665D01*
X147790000Y-85866335D01*
X147845147Y-86143574D01*
X147953320Y-86404727D01*
X148097937Y-86621162D01*
X147588698Y-87130401D01*
X147559700Y-87154199D01*
X147535902Y-87183197D01*
X147535901Y-87183198D01*
X147464726Y-87269924D01*
X147394154Y-87401954D01*
X147371177Y-87477701D01*
X147350698Y-87545214D01*
X147345551Y-87597474D01*
X147336024Y-87694200D01*
X147339701Y-87731533D01*
X147339700Y-104374378D01*
X147336024Y-104411700D01*
X147339700Y-104449022D01*
X147339700Y-104449032D01*
X147350697Y-104560685D01*
X147382545Y-104665674D01*
X147394154Y-104703946D01*
X147464726Y-104835976D01*
X147498021Y-104876546D01*
X147559699Y-104951701D01*
X147588703Y-104975504D01*
X147995833Y-105382635D01*
X147967000Y-105527589D01*
X147967000Y-105800411D01*
X148020225Y-106067989D01*
X148124629Y-106320043D01*
X148276201Y-106546886D01*
X148469114Y-106739799D01*
X148695957Y-106891371D01*
X148948011Y-106995775D01*
X149215589Y-107049000D01*
X149488411Y-107049000D01*
X149755989Y-106995775D01*
X150008043Y-106891371D01*
X150234886Y-106739799D01*
X150427799Y-106546886D01*
X150579371Y-106320043D01*
X150683775Y-106067989D01*
X150737000Y-105800411D01*
X150737000Y-105527589D01*
X150683775Y-105260011D01*
X150579371Y-105007957D01*
X150427799Y-104781114D01*
X150234886Y-104588201D01*
X150008043Y-104436629D01*
X149755989Y-104332225D01*
X149488411Y-104279000D01*
X149215589Y-104279000D01*
X149070635Y-104307833D01*
X148859700Y-104096899D01*
X148859700Y-99815450D01*
X149083665Y-99860000D01*
X149366335Y-99860000D01*
X149643574Y-99804853D01*
X149904727Y-99696680D01*
X150139759Y-99539637D01*
X150339637Y-99339759D01*
X150496680Y-99104727D01*
X150604853Y-98843574D01*
X150660000Y-98566335D01*
X150660000Y-98283665D01*
X150604853Y-98006426D01*
X150496680Y-97745273D01*
X150339637Y-97510241D01*
X150139759Y-97310363D01*
X149907241Y-97155000D01*
X150139759Y-96999637D01*
X150339637Y-96799759D01*
X150496680Y-96564727D01*
X150604853Y-96303574D01*
X150660000Y-96026335D01*
X150660000Y-95743665D01*
X150604853Y-95466426D01*
X150496680Y-95205273D01*
X150339637Y-94970241D01*
X150139759Y-94770363D01*
X149907241Y-94615000D01*
X150139759Y-94459637D01*
X150339637Y-94259759D01*
X150496680Y-94024727D01*
X150604853Y-93763574D01*
X150660000Y-93486335D01*
X150660000Y-93203665D01*
X150604853Y-92926426D01*
X150496680Y-92665273D01*
X150339637Y-92430241D01*
X150139759Y-92230363D01*
X149907241Y-92075000D01*
X150139759Y-91919637D01*
X150339637Y-91719759D01*
X150496680Y-91484727D01*
X150604853Y-91223574D01*
X150660000Y-90946335D01*
X150660000Y-90663665D01*
X150611432Y-90419500D01*
X153472001Y-90419500D01*
X153472000Y-104506091D01*
X153349114Y-104588201D01*
X153156201Y-104781114D01*
X153004629Y-105007957D01*
X152900225Y-105260011D01*
X152847000Y-105527589D01*
X152847000Y-105800411D01*
X152900225Y-106067989D01*
X153004629Y-106320043D01*
X153156201Y-106546886D01*
X153349114Y-106739799D01*
X153575957Y-106891371D01*
X153828011Y-106995775D01*
X154095589Y-107049000D01*
X154368411Y-107049000D01*
X154635989Y-106995775D01*
X154888043Y-106891371D01*
X155114886Y-106739799D01*
X155307799Y-106546886D01*
X155459371Y-106320043D01*
X155563775Y-106067989D01*
X155617000Y-105800411D01*
X155617000Y-105527589D01*
X155563775Y-105260011D01*
X155459371Y-105007957D01*
X155307799Y-104781114D01*
X155114886Y-104588201D01*
X154992000Y-104506091D01*
X154992000Y-90090025D01*
X154995676Y-90052700D01*
X154992000Y-90015375D01*
X154992000Y-90015367D01*
X154981003Y-89903714D01*
X154937546Y-89760453D01*
X154894040Y-89679061D01*
X155595372Y-88977730D01*
X155730363Y-89179759D01*
X155930241Y-89379637D01*
X156162759Y-89535000D01*
X155930241Y-89690363D01*
X155730363Y-89890241D01*
X155573320Y-90125273D01*
X155465147Y-90386426D01*
X155410000Y-90663665D01*
X155410000Y-90946335D01*
X155465147Y-91223574D01*
X155573320Y-91484727D01*
X155730363Y-91719759D01*
X155930241Y-91919637D01*
X156162759Y-92075000D01*
X155930241Y-92230363D01*
X155730363Y-92430241D01*
X155573320Y-92665273D01*
X155465147Y-92926426D01*
X155410000Y-93203665D01*
X155410000Y-93486335D01*
X155465147Y-93763574D01*
X155573320Y-94024727D01*
X155730363Y-94259759D01*
X155930241Y-94459637D01*
X156162759Y-94615000D01*
X155930241Y-94770363D01*
X155730363Y-94970241D01*
X155573320Y-95205273D01*
X155465147Y-95466426D01*
X155410000Y-95743665D01*
X155410000Y-96026335D01*
X155465147Y-96303574D01*
X155573320Y-96564727D01*
X155730363Y-96799759D01*
X155930241Y-96999637D01*
X156162759Y-97155000D01*
X155930241Y-97310363D01*
X155730363Y-97510241D01*
X155573320Y-97745273D01*
X155465147Y-98006426D01*
X155410000Y-98283665D01*
X155410000Y-98566335D01*
X155465147Y-98843574D01*
X155573320Y-99104727D01*
X155730363Y-99339759D01*
X155930241Y-99539637D01*
X156165273Y-99696680D01*
X156426426Y-99804853D01*
X156703665Y-99860000D01*
X156986335Y-99860000D01*
X157263574Y-99804853D01*
X157524727Y-99696680D01*
X157759759Y-99539637D01*
X157959637Y-99339759D01*
X158116680Y-99104727D01*
X158224853Y-98843574D01*
X158280000Y-98566335D01*
X158280000Y-98283665D01*
X158224853Y-98006426D01*
X158116680Y-97745273D01*
X157959637Y-97510241D01*
X157759759Y-97310363D01*
X157527241Y-97155000D01*
X157759759Y-96999637D01*
X157959637Y-96799759D01*
X158116680Y-96564727D01*
X158224853Y-96303574D01*
X158280000Y-96026335D01*
X158280000Y-95743665D01*
X158224853Y-95466426D01*
X158116680Y-95205273D01*
X157959637Y-94970241D01*
X157759759Y-94770363D01*
X157527241Y-94615000D01*
X157759759Y-94459637D01*
X157959637Y-94259759D01*
X158116680Y-94024727D01*
X158224853Y-93763574D01*
X158280000Y-93486335D01*
X158280000Y-93203665D01*
X158224853Y-92926426D01*
X158116680Y-92665273D01*
X157959637Y-92430241D01*
X157759759Y-92230363D01*
X157527241Y-92075000D01*
X157759759Y-91919637D01*
X157959637Y-91719759D01*
X158116680Y-91484727D01*
X158224853Y-91223574D01*
X158280000Y-90946335D01*
X158280000Y-90663665D01*
X158224853Y-90386426D01*
X158116680Y-90125273D01*
X157959637Y-89890241D01*
X157759759Y-89690363D01*
X157527241Y-89535000D01*
X157759759Y-89379637D01*
X157959637Y-89179759D01*
X158116680Y-88944727D01*
X158224853Y-88683574D01*
X158280000Y-88406335D01*
X158280000Y-88123665D01*
X158224853Y-87846426D01*
X158116680Y-87585273D01*
X157959637Y-87350241D01*
X157957999Y-87348603D01*
X158561401Y-86745201D01*
X158561400Y-101704678D01*
X158557724Y-101742000D01*
X158561400Y-101779322D01*
X158561400Y-101779332D01*
X158572397Y-101890985D01*
X158600841Y-101984753D01*
X158615854Y-102034246D01*
X158686426Y-102166276D01*
X158726271Y-102214826D01*
X158781399Y-102282001D01*
X158810403Y-102305804D01*
X164771501Y-108266903D01*
X164795299Y-108295901D01*
X164824297Y-108319699D01*
X164911023Y-108390874D01*
X165043053Y-108461446D01*
X165186314Y-108504903D01*
X165297967Y-108515900D01*
X165297977Y-108515900D01*
X165335300Y-108519576D01*
X165372623Y-108515900D01*
X174512778Y-108515900D01*
X174550100Y-108519576D01*
X174587422Y-108515900D01*
X174587433Y-108515900D01*
X174699086Y-108504903D01*
X174842347Y-108461446D01*
X174974376Y-108390874D01*
X175090101Y-108295901D01*
X175113904Y-108266898D01*
X175348814Y-108031988D01*
X175356377Y-108034282D01*
X175452510Y-108053404D01*
X175576991Y-108065664D01*
X175601550Y-108065664D01*
X175626000Y-108068072D01*
X176126000Y-108068072D01*
X176250482Y-108055812D01*
X176276000Y-108048071D01*
X176301518Y-108055812D01*
X176426000Y-108068072D01*
X176926000Y-108068072D01*
X176950450Y-108065664D01*
X176975009Y-108065664D01*
X177099490Y-108053404D01*
X177195623Y-108034282D01*
X177315319Y-107997973D01*
X177405875Y-107960464D01*
X177516192Y-107901498D01*
X177597691Y-107847042D01*
X177694382Y-107767690D01*
X177763690Y-107698382D01*
X177843042Y-107601691D01*
X177897498Y-107520192D01*
X177956464Y-107409875D01*
X177993973Y-107319319D01*
X178030282Y-107199623D01*
X178049404Y-107103490D01*
X178061664Y-106979009D01*
X178061664Y-106954450D01*
X178064072Y-106930000D01*
X178064072Y-106430000D01*
X178061664Y-106405550D01*
X178061664Y-106380991D01*
X178049404Y-106256510D01*
X178030282Y-106160377D01*
X177993973Y-106040681D01*
X177956464Y-105950125D01*
X177897498Y-105839808D01*
X177843042Y-105758309D01*
X177763690Y-105661618D01*
X177694382Y-105592310D01*
X177686000Y-105585431D01*
X177686000Y-103000396D01*
X177767637Y-102918759D01*
X177798000Y-102873317D01*
X177828363Y-102918759D01*
X178028241Y-103118637D01*
X178263273Y-103275680D01*
X178524426Y-103383853D01*
X178801665Y-103439000D01*
X179084335Y-103439000D01*
X179361574Y-103383853D01*
X179622727Y-103275680D01*
X179857759Y-103118637D01*
X180057637Y-102918759D01*
X180214680Y-102683727D01*
X180322853Y-102422574D01*
X180378000Y-102145335D01*
X180378000Y-101862665D01*
X180322853Y-101585426D01*
X180266047Y-101448284D01*
X180438130Y-101422787D01*
X180704292Y-101327603D01*
X180829514Y-101260671D01*
X180901097Y-101016702D01*
X180088000Y-100203605D01*
X180073858Y-100217748D01*
X179894253Y-100038143D01*
X179908395Y-100024000D01*
X180267605Y-100024000D01*
X181080702Y-100837097D01*
X181324671Y-100765514D01*
X181445571Y-100510004D01*
X181514300Y-100235816D01*
X181528217Y-99953488D01*
X181486787Y-99673870D01*
X181391603Y-99407708D01*
X181324671Y-99282486D01*
X181080702Y-99210903D01*
X180267605Y-100024000D01*
X179908395Y-100024000D01*
X179894253Y-100009858D01*
X180073858Y-99830253D01*
X180088000Y-99844395D01*
X180727920Y-99204475D01*
X184493000Y-99204475D01*
X184493000Y-99723525D01*
X184594261Y-100232601D01*
X184792893Y-100712141D01*
X185081262Y-101143715D01*
X185448285Y-101510738D01*
X185879859Y-101799107D01*
X186359399Y-101997739D01*
X186868475Y-102099000D01*
X187387525Y-102099000D01*
X187896601Y-101997739D01*
X188376141Y-101799107D01*
X188807715Y-101510738D01*
X189174738Y-101143715D01*
X189463107Y-100712141D01*
X189661739Y-100232601D01*
X189763000Y-99723525D01*
X189763000Y-99204475D01*
X189661739Y-98695399D01*
X189463107Y-98215859D01*
X189174738Y-97784285D01*
X188807715Y-97417262D01*
X188376141Y-97128893D01*
X187896601Y-96930261D01*
X187387525Y-96829000D01*
X186868475Y-96829000D01*
X186359399Y-96930261D01*
X185879859Y-97128893D01*
X185448285Y-97417262D01*
X185081262Y-97784285D01*
X184792893Y-98215859D01*
X184594261Y-98695399D01*
X184493000Y-99204475D01*
X180727920Y-99204475D01*
X180901097Y-99031298D01*
X180829514Y-98787329D01*
X180574004Y-98666429D01*
X180381072Y-98618068D01*
X180381072Y-97244000D01*
X180368812Y-97119518D01*
X180332502Y-96999820D01*
X180273537Y-96889506D01*
X180194185Y-96792815D01*
X180097494Y-96713463D01*
X179987180Y-96654498D01*
X179976076Y-96651130D01*
X179976276Y-96649100D01*
X179972600Y-96611777D01*
X179972600Y-87972700D01*
X180039839Y-87972700D01*
X180239798Y-87932926D01*
X180428156Y-87854905D01*
X180597674Y-87741637D01*
X180741837Y-87597474D01*
X180855105Y-87427956D01*
X180933126Y-87239598D01*
X180972900Y-87039639D01*
X180972900Y-86835761D01*
X180933126Y-86635802D01*
X180855105Y-86447444D01*
X180741837Y-86277926D01*
X180697900Y-86233989D01*
X180697900Y-84333180D01*
X180713124Y-84345674D01*
X180845153Y-84416246D01*
X180984004Y-84458365D01*
X180937000Y-84694665D01*
X180937000Y-84977335D01*
X180992147Y-85254574D01*
X181100320Y-85515727D01*
X181257363Y-85750759D01*
X181457241Y-85950637D01*
X181689759Y-86106000D01*
X181457241Y-86261363D01*
X181257363Y-86461241D01*
X181100320Y-86696273D01*
X180992147Y-86957426D01*
X180937000Y-87234665D01*
X180937000Y-87517335D01*
X180992147Y-87794574D01*
X181100320Y-88055727D01*
X181257363Y-88290759D01*
X181457241Y-88490637D01*
X181692273Y-88647680D01*
X181953426Y-88755853D01*
X182230665Y-88811000D01*
X182513335Y-88811000D01*
X182790574Y-88755853D01*
X183051727Y-88647680D01*
X183286759Y-88490637D01*
X183486637Y-88290759D01*
X183643680Y-88055727D01*
X183751853Y-87794574D01*
X183807000Y-87517335D01*
X183807000Y-87234665D01*
X183751853Y-86957426D01*
X183643680Y-86696273D01*
X183486637Y-86461241D01*
X183286759Y-86261363D01*
X183054241Y-86106000D01*
X183286759Y-85950637D01*
X183486637Y-85750759D01*
X183643680Y-85515727D01*
X183748637Y-85262338D01*
X193398937Y-94912639D01*
X193254320Y-95129073D01*
X193146147Y-95390226D01*
X193091000Y-95667465D01*
X193091000Y-95950135D01*
X193146147Y-96227374D01*
X193254320Y-96488527D01*
X193411363Y-96723559D01*
X193611241Y-96923437D01*
X193843759Y-97078800D01*
X193611241Y-97234163D01*
X193411363Y-97434041D01*
X193254320Y-97669073D01*
X193146147Y-97930226D01*
X193091000Y-98207465D01*
X193091000Y-98490135D01*
X193146147Y-98767374D01*
X193254320Y-99028527D01*
X193411363Y-99263559D01*
X193611241Y-99463437D01*
X193846273Y-99620480D01*
X194107426Y-99728653D01*
X194384665Y-99783800D01*
X194667335Y-99783800D01*
X194891300Y-99739250D01*
X194891300Y-104458450D01*
X194697114Y-104588201D01*
X194504201Y-104781114D01*
X194352629Y-105007957D01*
X194248225Y-105260011D01*
X194195000Y-105527589D01*
X194195000Y-105800411D01*
X194248225Y-106067989D01*
X194352629Y-106320043D01*
X194504201Y-106546886D01*
X194697114Y-106739799D01*
X194923957Y-106891371D01*
X195176011Y-106995775D01*
X195443589Y-107049000D01*
X195716411Y-107049000D01*
X195983989Y-106995775D01*
X196236043Y-106891371D01*
X196462886Y-106739799D01*
X196655799Y-106546886D01*
X196807371Y-106320043D01*
X196911775Y-106067989D01*
X196965000Y-105800411D01*
X196965000Y-105527589D01*
X199075000Y-105527589D01*
X199075000Y-105800411D01*
X199128225Y-106067989D01*
X199232629Y-106320043D01*
X199384201Y-106546886D01*
X199577114Y-106739799D01*
X199803957Y-106891371D01*
X200056011Y-106995775D01*
X200323589Y-107049000D01*
X200596411Y-107049000D01*
X200863989Y-106995775D01*
X201116043Y-106891371D01*
X201342886Y-106739799D01*
X201535799Y-106546886D01*
X201687371Y-106320043D01*
X201791775Y-106067989D01*
X201845000Y-105800411D01*
X201845000Y-105527589D01*
X201791775Y-105260011D01*
X201687371Y-105007957D01*
X201535799Y-104781114D01*
X201342886Y-104588201D01*
X201116043Y-104436629D01*
X200863989Y-104332225D01*
X200596411Y-104279000D01*
X200323589Y-104279000D01*
X200056011Y-104332225D01*
X199803957Y-104436629D01*
X199577114Y-104588201D01*
X199384201Y-104781114D01*
X199232629Y-105007957D01*
X199128225Y-105260011D01*
X199075000Y-105527589D01*
X196965000Y-105527589D01*
X196911775Y-105260011D01*
X196807371Y-105007957D01*
X196655799Y-104781114D01*
X196462886Y-104588201D01*
X196411300Y-104553732D01*
X196411300Y-87655323D01*
X196414976Y-87618000D01*
X196411300Y-87580677D01*
X196411300Y-87580667D01*
X196400303Y-87469014D01*
X196356846Y-87325753D01*
X196286274Y-87193724D01*
X196191301Y-87077999D01*
X196162303Y-87054201D01*
X195653063Y-86544962D01*
X195797680Y-86328527D01*
X195905853Y-86067374D01*
X195961000Y-85790135D01*
X195961000Y-85507465D01*
X195905853Y-85230226D01*
X195867983Y-85138800D01*
X196895899Y-85138800D01*
X200456901Y-88699803D01*
X200480699Y-88728801D01*
X200596424Y-88823774D01*
X200728453Y-88894346D01*
X200871714Y-88937803D01*
X200924053Y-88942958D01*
X201031363Y-89103559D01*
X201231241Y-89303437D01*
X201391842Y-89410747D01*
X201396997Y-89463086D01*
X201407167Y-89496613D01*
X201231241Y-89614163D01*
X201031363Y-89814041D01*
X200874320Y-90049073D01*
X200766147Y-90310226D01*
X200711000Y-90587465D01*
X200711000Y-90870135D01*
X200766147Y-91147374D01*
X200874320Y-91408527D01*
X201031363Y-91643559D01*
X201231241Y-91843437D01*
X201463759Y-91998800D01*
X201231241Y-92154163D01*
X201031363Y-92354041D01*
X200874320Y-92589073D01*
X200766147Y-92850226D01*
X200711000Y-93127465D01*
X200711000Y-93410135D01*
X200766147Y-93687374D01*
X200874320Y-93948527D01*
X201031363Y-94183559D01*
X201231241Y-94383437D01*
X201463759Y-94538800D01*
X201231241Y-94694163D01*
X201031363Y-94894041D01*
X200874320Y-95129073D01*
X200766147Y-95390226D01*
X200711000Y-95667465D01*
X200711000Y-95950135D01*
X200766147Y-96227374D01*
X200874320Y-96488527D01*
X201031363Y-96723559D01*
X201231241Y-96923437D01*
X201463759Y-97078800D01*
X201231241Y-97234163D01*
X201031363Y-97434041D01*
X200874320Y-97669073D01*
X200766147Y-97930226D01*
X200711000Y-98207465D01*
X200711000Y-98490135D01*
X200766147Y-98767374D01*
X200874320Y-99028527D01*
X201031363Y-99263559D01*
X201231241Y-99463437D01*
X201466273Y-99620480D01*
X201727426Y-99728653D01*
X202004665Y-99783800D01*
X202287335Y-99783800D01*
X202564574Y-99728653D01*
X202825727Y-99620480D01*
X203060759Y-99463437D01*
X203260637Y-99263559D01*
X203417680Y-99028527D01*
X203525853Y-98767374D01*
X203581000Y-98490135D01*
X203581000Y-98207465D01*
X203525853Y-97930226D01*
X203417680Y-97669073D01*
X203260637Y-97434041D01*
X203060759Y-97234163D01*
X202828241Y-97078800D01*
X203060759Y-96923437D01*
X203260637Y-96723559D01*
X203417680Y-96488527D01*
X203525853Y-96227374D01*
X203581000Y-95950135D01*
X203581000Y-95667465D01*
X203525853Y-95390226D01*
X203417680Y-95129073D01*
X203260637Y-94894041D01*
X203060759Y-94694163D01*
X202828241Y-94538800D01*
X203060759Y-94383437D01*
X203260637Y-94183559D01*
X203417680Y-93948527D01*
X203525853Y-93687374D01*
X203581000Y-93410135D01*
X203581000Y-93127465D01*
X203525853Y-92850226D01*
X203417680Y-92589073D01*
X203260637Y-92354041D01*
X203060759Y-92154163D01*
X202828241Y-91998800D01*
X203060759Y-91843437D01*
X203260637Y-91643559D01*
X203398632Y-91437034D01*
X204980000Y-93018402D01*
X204980001Y-103937956D01*
X204825241Y-104041363D01*
X204625363Y-104241241D01*
X204468320Y-104476273D01*
X204360147Y-104737426D01*
X204305000Y-105014665D01*
X204305000Y-105297335D01*
X204360147Y-105574574D01*
X204468320Y-105835727D01*
X204625363Y-106070759D01*
X204825241Y-106270637D01*
X205060273Y-106427680D01*
X205321426Y-106535853D01*
X205598665Y-106591000D01*
X205881335Y-106591000D01*
X206158574Y-106535853D01*
X206419727Y-106427680D01*
X206654759Y-106270637D01*
X206854637Y-106070759D01*
X207011680Y-105835727D01*
X207119853Y-105574574D01*
X207175000Y-105297335D01*
X207175000Y-105014665D01*
X207119853Y-104737426D01*
X207011680Y-104476273D01*
X206854637Y-104241241D01*
X206654759Y-104041363D01*
X206500000Y-103937957D01*
X206500000Y-92740923D01*
X206503676Y-92703600D01*
X206500000Y-92666277D01*
X206500000Y-92666267D01*
X206489003Y-92554614D01*
X206445546Y-92411353D01*
X206374974Y-92279324D01*
X206280001Y-92163599D01*
X206251004Y-92139802D01*
X203237699Y-89126497D01*
X203260637Y-89103559D01*
X203417680Y-88868527D01*
X203426246Y-88847847D01*
X207520001Y-92941603D01*
X207520001Y-93557928D01*
X207480000Y-93557928D01*
X207355518Y-93570188D01*
X207235820Y-93606498D01*
X207125506Y-93665463D01*
X207028815Y-93744815D01*
X206949463Y-93841506D01*
X206890498Y-93951820D01*
X206854188Y-94071518D01*
X206841928Y-94196000D01*
X206841928Y-95796000D01*
X206854188Y-95920482D01*
X206890498Y-96040180D01*
X206949463Y-96150494D01*
X207028815Y-96247185D01*
X207125506Y-96326537D01*
X207235820Y-96385502D01*
X207355518Y-96421812D01*
X207480000Y-96434072D01*
X207520001Y-96434072D01*
X207520000Y-98913377D01*
X207516324Y-98950700D01*
X207520000Y-98988022D01*
X207520000Y-98988032D01*
X207530997Y-99099685D01*
X207548880Y-99158637D01*
X207574454Y-99242946D01*
X207645026Y-99374976D01*
X207671889Y-99407708D01*
X207739999Y-99490701D01*
X207769003Y-99514504D01*
X212370551Y-104116053D01*
X212245363Y-104241241D01*
X212088320Y-104476273D01*
X211980147Y-104737426D01*
X211925000Y-105014665D01*
X211925000Y-105297335D01*
X211980147Y-105574574D01*
X212088320Y-105835727D01*
X212245363Y-106070759D01*
X212445241Y-106270637D01*
X212680273Y-106427680D01*
X212941426Y-106535853D01*
X213218665Y-106591000D01*
X213501335Y-106591000D01*
X213778574Y-106535853D01*
X214039727Y-106427680D01*
X214274759Y-106270637D01*
X214474637Y-106070759D01*
X214631680Y-105835727D01*
X214739853Y-105574574D01*
X214795000Y-105297335D01*
X214795000Y-105014665D01*
X214739853Y-104737426D01*
X214631680Y-104476273D01*
X214474637Y-104241241D01*
X214274759Y-104041363D01*
X214114158Y-103934053D01*
X214109003Y-103881714D01*
X214065546Y-103738453D01*
X214054575Y-103717928D01*
X213994974Y-103606423D01*
X213923799Y-103519697D01*
X213900001Y-103490699D01*
X213871003Y-103466901D01*
X209040000Y-98635899D01*
X209040000Y-96434072D01*
X209080000Y-96434072D01*
X209204482Y-96421812D01*
X209324180Y-96385502D01*
X209434494Y-96326537D01*
X209531185Y-96247185D01*
X209610537Y-96150494D01*
X209669502Y-96040180D01*
X209685117Y-95988702D01*
X210966903Y-95988702D01*
X211038486Y-96232671D01*
X211293996Y-96353571D01*
X211568184Y-96422300D01*
X211850512Y-96436217D01*
X212130130Y-96394787D01*
X212396292Y-96299603D01*
X212521514Y-96232671D01*
X212593097Y-95988702D01*
X211780000Y-95175605D01*
X210966903Y-95988702D01*
X209685117Y-95988702D01*
X209705812Y-95920482D01*
X209718072Y-95796000D01*
X209718072Y-95066512D01*
X210339783Y-95066512D01*
X210381213Y-95346130D01*
X210476397Y-95612292D01*
X210543329Y-95737514D01*
X210787298Y-95809097D01*
X211600395Y-94996000D01*
X211959605Y-94996000D01*
X212772702Y-95809097D01*
X213016671Y-95737514D01*
X213137571Y-95482004D01*
X213206300Y-95207816D01*
X213220217Y-94925488D01*
X213178787Y-94645870D01*
X213083603Y-94379708D01*
X213016671Y-94254486D01*
X212772702Y-94182903D01*
X211959605Y-94996000D01*
X211600395Y-94996000D01*
X210787298Y-94182903D01*
X210543329Y-94254486D01*
X210422429Y-94509996D01*
X210353700Y-94784184D01*
X210339783Y-95066512D01*
X209718072Y-95066512D01*
X209718072Y-94196000D01*
X209705812Y-94071518D01*
X209685118Y-94003298D01*
X210966903Y-94003298D01*
X211780000Y-94816395D01*
X212593097Y-94003298D01*
X212521514Y-93759329D01*
X212266004Y-93638429D01*
X211991816Y-93569700D01*
X211709488Y-93555783D01*
X211429870Y-93597213D01*
X211163708Y-93692397D01*
X211038486Y-93759329D01*
X210966903Y-94003298D01*
X209685118Y-94003298D01*
X209669502Y-93951820D01*
X209610537Y-93841506D01*
X209531185Y-93744815D01*
X209434494Y-93665463D01*
X209324180Y-93606498D01*
X209204482Y-93570188D01*
X209080000Y-93557928D01*
X209040000Y-93557928D01*
X209040000Y-92664125D01*
X209043676Y-92626800D01*
X209040000Y-92589475D01*
X209040000Y-92589467D01*
X209029003Y-92477814D01*
X208985546Y-92334553D01*
X208914974Y-92202524D01*
X208820001Y-92086799D01*
X208791003Y-92063001D01*
X203782969Y-87054967D01*
X205121000Y-87054967D01*
X205121000Y-87377033D01*
X205183832Y-87692912D01*
X205307082Y-87990463D01*
X205486013Y-88258252D01*
X205713748Y-88485987D01*
X205981537Y-88664918D01*
X206279088Y-88788168D01*
X206594967Y-88851000D01*
X206917033Y-88851000D01*
X207232912Y-88788168D01*
X207530463Y-88664918D01*
X207798252Y-88485987D01*
X208025987Y-88258252D01*
X208204918Y-87990463D01*
X208328168Y-87692912D01*
X208391000Y-87377033D01*
X208391000Y-87214967D01*
X211217000Y-87214967D01*
X211217000Y-87537033D01*
X211279832Y-87852912D01*
X211403082Y-88150463D01*
X211582013Y-88418252D01*
X211809748Y-88645987D01*
X212077537Y-88824918D01*
X212375088Y-88948168D01*
X212690967Y-89011000D01*
X213013033Y-89011000D01*
X213328912Y-88948168D01*
X213626463Y-88824918D01*
X213894252Y-88645987D01*
X214121987Y-88418252D01*
X214300918Y-88150463D01*
X214424168Y-87852912D01*
X214487000Y-87537033D01*
X214487000Y-87214967D01*
X214424168Y-86899088D01*
X214300918Y-86601537D01*
X214121987Y-86333748D01*
X213894252Y-86106013D01*
X213626463Y-85927082D01*
X213328912Y-85803832D01*
X213013033Y-85741000D01*
X212690967Y-85741000D01*
X212375088Y-85803832D01*
X212077537Y-85927082D01*
X211809748Y-86106013D01*
X211582013Y-86333748D01*
X211403082Y-86601537D01*
X211279832Y-86899088D01*
X211217000Y-87214967D01*
X208391000Y-87214967D01*
X208391000Y-87054967D01*
X208328168Y-86739088D01*
X208204918Y-86441537D01*
X208025987Y-86173748D01*
X207798252Y-85946013D01*
X207530463Y-85767082D01*
X207232912Y-85643832D01*
X206917033Y-85581000D01*
X206594967Y-85581000D01*
X206279088Y-85643832D01*
X205981537Y-85767082D01*
X205713748Y-85946013D01*
X205486013Y-86173748D01*
X205307082Y-86441537D01*
X205183832Y-86739088D01*
X205121000Y-87054967D01*
X203782969Y-87054967D01*
X203273023Y-86545022D01*
X203417680Y-86328527D01*
X203525853Y-86067374D01*
X203581000Y-85790135D01*
X203581000Y-85507465D01*
X203525853Y-85230226D01*
X203417680Y-84969073D01*
X203260637Y-84734041D01*
X203060759Y-84534163D01*
X202828241Y-84378800D01*
X203060759Y-84223437D01*
X203260637Y-84023559D01*
X203417680Y-83788527D01*
X203525853Y-83527374D01*
X203581000Y-83250135D01*
X203581000Y-82967465D01*
X203525853Y-82690226D01*
X203417680Y-82429073D01*
X203260637Y-82194041D01*
X203060759Y-81994163D01*
X202825727Y-81837120D01*
X202815135Y-81832733D01*
X203001131Y-81721185D01*
X203209519Y-81532214D01*
X203377037Y-81306220D01*
X203497246Y-81051887D01*
X203537904Y-80917839D01*
X203415915Y-80695800D01*
X202273000Y-80695800D01*
X202273000Y-80715800D01*
X202019000Y-80715800D01*
X202019000Y-80695800D01*
X200876085Y-80695800D01*
X200754096Y-80917839D01*
X200794754Y-81051887D01*
X200914963Y-81306220D01*
X201082481Y-81532214D01*
X201290869Y-81721185D01*
X201476865Y-81832733D01*
X201466273Y-81837120D01*
X201231241Y-81994163D01*
X201031363Y-82194041D01*
X200874320Y-82429073D01*
X200766147Y-82690226D01*
X200711000Y-82967465D01*
X200711000Y-83250135D01*
X200766147Y-83527374D01*
X200874320Y-83788527D01*
X201031363Y-84023559D01*
X201231241Y-84223437D01*
X201463759Y-84378800D01*
X201231241Y-84534163D01*
X201031363Y-84734041D01*
X200874320Y-84969073D01*
X200766147Y-85230226D01*
X200711000Y-85507465D01*
X200711000Y-85790135D01*
X200766147Y-86067374D01*
X200874320Y-86328527D01*
X201031363Y-86563559D01*
X201231241Y-86763437D01*
X201391842Y-86870747D01*
X201396997Y-86923086D01*
X201407167Y-86956613D01*
X201231241Y-87074163D01*
X201106053Y-87199351D01*
X197774504Y-83867803D01*
X197750701Y-83838799D01*
X197634976Y-83743826D01*
X197502947Y-83673254D01*
X197359686Y-83629797D01*
X197248033Y-83618800D01*
X197248022Y-83618800D01*
X197210700Y-83615124D01*
X197173378Y-83618800D01*
X195864526Y-83618800D01*
X195877246Y-83591887D01*
X195917904Y-83457839D01*
X195795915Y-83235800D01*
X194653000Y-83235800D01*
X194653000Y-83255800D01*
X194399000Y-83255800D01*
X194399000Y-83235800D01*
X193256085Y-83235800D01*
X193134096Y-83457839D01*
X193174754Y-83591887D01*
X193187474Y-83618800D01*
X191576802Y-83618800D01*
X191131520Y-83173519D01*
X191263680Y-82975727D01*
X191371853Y-82714574D01*
X191427000Y-82437335D01*
X191427000Y-82154665D01*
X191371853Y-81877426D01*
X191263680Y-81616273D01*
X191106637Y-81381241D01*
X190906759Y-81181363D01*
X190746158Y-81074053D01*
X190745688Y-81069276D01*
X190741003Y-81021714D01*
X190728252Y-80979680D01*
X190847131Y-80908385D01*
X191055519Y-80719414D01*
X191223037Y-80493420D01*
X191343246Y-80239087D01*
X191383904Y-80105039D01*
X191261915Y-79883000D01*
X190119000Y-79883000D01*
X190119000Y-79903000D01*
X189865000Y-79903000D01*
X189865000Y-79883000D01*
X189845000Y-79883000D01*
X189845000Y-79629000D01*
X189865000Y-79629000D01*
X189865000Y-78485376D01*
X190119000Y-78485376D01*
X190119000Y-79629000D01*
X191261915Y-79629000D01*
X191383904Y-79406961D01*
X191343246Y-79272913D01*
X191223037Y-79018580D01*
X191055519Y-78792586D01*
X190847131Y-78603615D01*
X190605881Y-78458930D01*
X190341040Y-78364091D01*
X190119000Y-78485376D01*
X189865000Y-78485376D01*
X189642960Y-78364091D01*
X189378119Y-78458930D01*
X189136869Y-78603615D01*
X188928481Y-78792586D01*
X188760963Y-79018580D01*
X188744665Y-79053063D01*
X181064900Y-71373299D01*
X181064900Y-69534727D01*
X181336740Y-69588800D01*
X181629260Y-69588800D01*
X181916158Y-69531732D01*
X182186411Y-69419790D01*
X182429632Y-69257275D01*
X182636475Y-69050432D01*
X182753000Y-68876040D01*
X182869525Y-69050432D01*
X183076368Y-69257275D01*
X183319589Y-69419790D01*
X183589842Y-69531732D01*
X183876740Y-69588800D01*
X184169260Y-69588800D01*
X184438300Y-69535284D01*
X184438300Y-70359777D01*
X184434624Y-70397100D01*
X184438300Y-70434422D01*
X184438300Y-70434432D01*
X184449297Y-70546085D01*
X184478999Y-70644001D01*
X184492754Y-70689346D01*
X184563326Y-70821376D01*
X184589282Y-70853003D01*
X184658299Y-70937101D01*
X184687303Y-70960904D01*
X193398977Y-79672579D01*
X193254320Y-79889073D01*
X193146147Y-80150226D01*
X193091000Y-80427465D01*
X193091000Y-80710135D01*
X193146147Y-80987374D01*
X193254320Y-81248527D01*
X193411363Y-81483559D01*
X193611241Y-81683437D01*
X193846273Y-81840480D01*
X193856865Y-81844867D01*
X193670869Y-81956415D01*
X193462481Y-82145386D01*
X193294963Y-82371380D01*
X193174754Y-82625713D01*
X193134096Y-82759761D01*
X193256085Y-82981800D01*
X194399000Y-82981800D01*
X194399000Y-82961800D01*
X194653000Y-82961800D01*
X194653000Y-82981800D01*
X195795915Y-82981800D01*
X195917904Y-82759761D01*
X195877246Y-82625713D01*
X195757037Y-82371380D01*
X195589519Y-82145386D01*
X195381131Y-81956415D01*
X195195135Y-81844867D01*
X195205727Y-81840480D01*
X195440759Y-81683437D01*
X195640637Y-81483559D01*
X195797680Y-81248527D01*
X195905853Y-80987374D01*
X195961000Y-80710135D01*
X195961000Y-80427465D01*
X195905853Y-80150226D01*
X195797680Y-79889073D01*
X195640637Y-79654041D01*
X195440759Y-79454163D01*
X195280158Y-79346853D01*
X195279695Y-79342147D01*
X195275003Y-79294514D01*
X195264833Y-79260987D01*
X195440759Y-79143437D01*
X195640637Y-78943559D01*
X195797680Y-78708527D01*
X195905853Y-78447374D01*
X195961000Y-78170135D01*
X195961000Y-77887465D01*
X195905853Y-77610226D01*
X195797680Y-77349073D01*
X195640637Y-77114041D01*
X195440759Y-76914163D01*
X195208241Y-76758800D01*
X195440759Y-76603437D01*
X195640637Y-76403559D01*
X195797680Y-76168527D01*
X195905853Y-75907374D01*
X195961000Y-75630135D01*
X195961000Y-75347465D01*
X195905853Y-75070226D01*
X195797680Y-74809073D01*
X195640637Y-74574041D01*
X195440759Y-74374163D01*
X195208241Y-74218800D01*
X195440759Y-74063437D01*
X195640637Y-73863559D01*
X195797680Y-73628527D01*
X195905853Y-73367374D01*
X195961000Y-73090135D01*
X195961000Y-72807465D01*
X195905853Y-72530226D01*
X195797680Y-72269073D01*
X195640637Y-72034041D01*
X195440759Y-71834163D01*
X195208241Y-71678800D01*
X195440759Y-71523437D01*
X195640637Y-71323559D01*
X195797680Y-71088527D01*
X195905853Y-70827374D01*
X195961000Y-70550135D01*
X195961000Y-70267465D01*
X195905853Y-69990226D01*
X195797680Y-69729073D01*
X195640637Y-69494041D01*
X195440759Y-69294163D01*
X195208241Y-69138800D01*
X195440759Y-68983437D01*
X195640637Y-68783559D01*
X195797680Y-68548527D01*
X195905853Y-68287374D01*
X195961000Y-68010135D01*
X195961000Y-67727465D01*
X195905853Y-67450226D01*
X195797680Y-67189073D01*
X195640637Y-66954041D01*
X195442039Y-66755443D01*
X195450482Y-66754612D01*
X195570180Y-66718302D01*
X195680494Y-66659337D01*
X195777185Y-66579985D01*
X195856537Y-66483294D01*
X195915502Y-66372980D01*
X195951812Y-66253282D01*
X195964072Y-66128800D01*
X195964072Y-65187465D01*
X200711000Y-65187465D01*
X200711000Y-65470135D01*
X200766147Y-65747374D01*
X200874320Y-66008527D01*
X201031363Y-66243559D01*
X201231241Y-66443437D01*
X201463759Y-66598800D01*
X201231241Y-66754163D01*
X201031363Y-66954041D01*
X200874320Y-67189073D01*
X200766147Y-67450226D01*
X200711000Y-67727465D01*
X200711000Y-68010135D01*
X200766147Y-68287374D01*
X200874320Y-68548527D01*
X201031363Y-68783559D01*
X201231241Y-68983437D01*
X201463759Y-69138800D01*
X201231241Y-69294163D01*
X201031363Y-69494041D01*
X200874320Y-69729073D01*
X200766147Y-69990226D01*
X200711000Y-70267465D01*
X200711000Y-70550135D01*
X200766147Y-70827374D01*
X200874320Y-71088527D01*
X201031363Y-71323559D01*
X201231241Y-71523437D01*
X201463759Y-71678800D01*
X201231241Y-71834163D01*
X201031363Y-72034041D01*
X200874320Y-72269073D01*
X200766147Y-72530226D01*
X200711000Y-72807465D01*
X200711000Y-73090135D01*
X200766147Y-73367374D01*
X200874320Y-73628527D01*
X201031363Y-73863559D01*
X201231241Y-74063437D01*
X201463759Y-74218800D01*
X201231241Y-74374163D01*
X201031363Y-74574041D01*
X200874320Y-74809073D01*
X200766147Y-75070226D01*
X200711000Y-75347465D01*
X200711000Y-75630135D01*
X200766147Y-75907374D01*
X200874320Y-76168527D01*
X201031363Y-76403559D01*
X201231241Y-76603437D01*
X201463759Y-76758800D01*
X201231241Y-76914163D01*
X201031363Y-77114041D01*
X200874320Y-77349073D01*
X200766147Y-77610226D01*
X200711000Y-77887465D01*
X200711000Y-78170135D01*
X200766147Y-78447374D01*
X200874320Y-78708527D01*
X201031363Y-78943559D01*
X201231241Y-79143437D01*
X201466273Y-79300480D01*
X201476865Y-79304867D01*
X201290869Y-79416415D01*
X201082481Y-79605386D01*
X200914963Y-79831380D01*
X200794754Y-80085713D01*
X200754096Y-80219761D01*
X200876085Y-80441800D01*
X202019000Y-80441800D01*
X202019000Y-80421800D01*
X202273000Y-80421800D01*
X202273000Y-80441800D01*
X203415915Y-80441800D01*
X203537904Y-80219761D01*
X203497246Y-80085713D01*
X203377037Y-79831380D01*
X203209519Y-79605386D01*
X203001131Y-79416415D01*
X202815135Y-79304867D01*
X202825727Y-79300480D01*
X203060759Y-79143437D01*
X203260637Y-78943559D01*
X203417680Y-78708527D01*
X203525853Y-78447374D01*
X203544941Y-78351413D01*
X205800192Y-78351413D01*
X205895956Y-78615814D01*
X206185571Y-78756704D01*
X206497108Y-78838384D01*
X206818595Y-78857718D01*
X207137675Y-78813961D01*
X207442088Y-78708795D01*
X207616044Y-78615814D01*
X207653857Y-78511413D01*
X211896192Y-78511413D01*
X211991956Y-78775814D01*
X212281571Y-78916704D01*
X212593108Y-78998384D01*
X212914595Y-79017718D01*
X213233675Y-78973961D01*
X213538088Y-78868795D01*
X213712044Y-78775814D01*
X213807808Y-78511413D01*
X212852000Y-77555605D01*
X211896192Y-78511413D01*
X207653857Y-78511413D01*
X207711808Y-78351413D01*
X206756000Y-77395605D01*
X205800192Y-78351413D01*
X203544941Y-78351413D01*
X203581000Y-78170135D01*
X203581000Y-77887465D01*
X203525853Y-77610226D01*
X203417680Y-77349073D01*
X203370589Y-77278595D01*
X205114282Y-77278595D01*
X205158039Y-77597675D01*
X205263205Y-77902088D01*
X205356186Y-78076044D01*
X205620587Y-78171808D01*
X206576395Y-77216000D01*
X206935605Y-77216000D01*
X207891413Y-78171808D01*
X208155814Y-78076044D01*
X208296704Y-77786429D01*
X208378384Y-77474892D01*
X208380566Y-77438595D01*
X211210282Y-77438595D01*
X211254039Y-77757675D01*
X211359205Y-78062088D01*
X211452186Y-78236044D01*
X211716587Y-78331808D01*
X212672395Y-77376000D01*
X213031605Y-77376000D01*
X213987413Y-78331808D01*
X214251814Y-78236044D01*
X214392704Y-77946429D01*
X214474384Y-77634892D01*
X214493718Y-77313405D01*
X214449961Y-76994325D01*
X214344795Y-76689912D01*
X214251814Y-76515956D01*
X213987413Y-76420192D01*
X213031605Y-77376000D01*
X212672395Y-77376000D01*
X211716587Y-76420192D01*
X211452186Y-76515956D01*
X211311296Y-76805571D01*
X211229616Y-77117108D01*
X211210282Y-77438595D01*
X208380566Y-77438595D01*
X208397718Y-77153405D01*
X208353961Y-76834325D01*
X208248795Y-76529912D01*
X208155814Y-76355956D01*
X207891413Y-76260192D01*
X206935605Y-77216000D01*
X206576395Y-77216000D01*
X205620587Y-76260192D01*
X205356186Y-76355956D01*
X205215296Y-76645571D01*
X205133616Y-76957108D01*
X205114282Y-77278595D01*
X203370589Y-77278595D01*
X203260637Y-77114041D01*
X203060759Y-76914163D01*
X202828241Y-76758800D01*
X203060759Y-76603437D01*
X203260637Y-76403559D01*
X203417680Y-76168527D01*
X203454105Y-76080587D01*
X205800192Y-76080587D01*
X206756000Y-77036395D01*
X207551808Y-76240587D01*
X211896192Y-76240587D01*
X212852000Y-77196395D01*
X213807808Y-76240587D01*
X213712044Y-75976186D01*
X213422429Y-75835296D01*
X213110892Y-75753616D01*
X212789405Y-75734282D01*
X212470325Y-75778039D01*
X212165912Y-75883205D01*
X211991956Y-75976186D01*
X211896192Y-76240587D01*
X207551808Y-76240587D01*
X207711808Y-76080587D01*
X207616044Y-75816186D01*
X207326429Y-75675296D01*
X207014892Y-75593616D01*
X206693405Y-75574282D01*
X206374325Y-75618039D01*
X206069912Y-75723205D01*
X205895956Y-75816186D01*
X205800192Y-76080587D01*
X203454105Y-76080587D01*
X203525853Y-75907374D01*
X203581000Y-75630135D01*
X203581000Y-75347465D01*
X203525853Y-75070226D01*
X203417680Y-74809073D01*
X203260637Y-74574041D01*
X203060759Y-74374163D01*
X202828241Y-74218800D01*
X203060759Y-74063437D01*
X203260637Y-73863559D01*
X203417680Y-73628527D01*
X203525853Y-73367374D01*
X203581000Y-73090135D01*
X203581000Y-72807465D01*
X203572385Y-72764155D01*
X206815450Y-72764155D01*
X207211634Y-73284550D01*
X207926612Y-73674748D01*
X208703976Y-73917964D01*
X209513853Y-74004851D01*
X210325118Y-73932069D01*
X211106597Y-73702415D01*
X211828256Y-73324715D01*
X211888366Y-73284550D01*
X212284550Y-72764155D01*
X209550000Y-70029605D01*
X206815450Y-72764155D01*
X203572385Y-72764155D01*
X203525853Y-72530226D01*
X203417680Y-72269073D01*
X203260637Y-72034041D01*
X203060759Y-71834163D01*
X202828241Y-71678800D01*
X203060759Y-71523437D01*
X203260637Y-71323559D01*
X203417680Y-71088527D01*
X203525853Y-70827374D01*
X203581000Y-70550135D01*
X203581000Y-70267465D01*
X203525853Y-69990226D01*
X203452797Y-69813853D01*
X205395149Y-69813853D01*
X205467931Y-70625118D01*
X205697585Y-71406597D01*
X206075285Y-72128256D01*
X206115450Y-72188366D01*
X206635845Y-72584550D01*
X209370395Y-69850000D01*
X209729605Y-69850000D01*
X212464155Y-72584550D01*
X212984550Y-72188366D01*
X213374748Y-71473388D01*
X213617964Y-70696024D01*
X213704851Y-69886147D01*
X213632069Y-69074882D01*
X213402415Y-68293403D01*
X213024715Y-67571744D01*
X212984550Y-67511634D01*
X212464155Y-67115450D01*
X209729605Y-69850000D01*
X209370395Y-69850000D01*
X206635845Y-67115450D01*
X206115450Y-67511634D01*
X205725252Y-68226612D01*
X205482036Y-69003976D01*
X205395149Y-69813853D01*
X203452797Y-69813853D01*
X203417680Y-69729073D01*
X203260637Y-69494041D01*
X203060759Y-69294163D01*
X202828241Y-69138800D01*
X203060759Y-68983437D01*
X203260637Y-68783559D01*
X203417680Y-68548527D01*
X203525853Y-68287374D01*
X203581000Y-68010135D01*
X203581000Y-67727465D01*
X203525853Y-67450226D01*
X203417680Y-67189073D01*
X203260637Y-66954041D01*
X203242441Y-66935845D01*
X206815450Y-66935845D01*
X209550000Y-69670395D01*
X212284550Y-66935845D01*
X211888366Y-66415450D01*
X211173388Y-66025252D01*
X210396024Y-65782036D01*
X209586147Y-65695149D01*
X208774882Y-65767931D01*
X207993403Y-65997585D01*
X207271744Y-66375285D01*
X207211634Y-66415450D01*
X206815450Y-66935845D01*
X203242441Y-66935845D01*
X203060759Y-66754163D01*
X202828241Y-66598800D01*
X203060759Y-66443437D01*
X203260637Y-66243559D01*
X203417680Y-66008527D01*
X203525853Y-65747374D01*
X203581000Y-65470135D01*
X203581000Y-65187465D01*
X203525853Y-64910226D01*
X203417680Y-64649073D01*
X203260637Y-64414041D01*
X203060759Y-64214163D01*
X202825727Y-64057120D01*
X202564574Y-63948947D01*
X202287335Y-63893800D01*
X202004665Y-63893800D01*
X201727426Y-63948947D01*
X201466273Y-64057120D01*
X201231241Y-64214163D01*
X201031363Y-64414041D01*
X200874320Y-64649073D01*
X200766147Y-64910226D01*
X200711000Y-65187465D01*
X195964072Y-65187465D01*
X195964072Y-64528800D01*
X195951812Y-64404318D01*
X195915502Y-64284620D01*
X195856537Y-64174306D01*
X195777185Y-64077615D01*
X195680494Y-63998263D01*
X195570180Y-63939298D01*
X195450482Y-63902988D01*
X195326000Y-63890728D01*
X193726000Y-63890728D01*
X193601518Y-63902988D01*
X193481820Y-63939298D01*
X193371506Y-63998263D01*
X193274815Y-64077615D01*
X193195463Y-64174306D01*
X193136498Y-64284620D01*
X193100188Y-64404318D01*
X193087928Y-64528800D01*
X193087928Y-66128800D01*
X193100188Y-66253282D01*
X193136498Y-66372980D01*
X193195463Y-66483294D01*
X193274815Y-66579985D01*
X193371506Y-66659337D01*
X193481820Y-66718302D01*
X193601518Y-66754612D01*
X193609961Y-66755443D01*
X193411363Y-66954041D01*
X193254320Y-67189073D01*
X193146147Y-67450226D01*
X193091000Y-67727465D01*
X193091000Y-68010135D01*
X193146147Y-68287374D01*
X193254320Y-68548527D01*
X193411363Y-68783559D01*
X193611241Y-68983437D01*
X193843759Y-69138800D01*
X193611241Y-69294163D01*
X193411363Y-69494041D01*
X193254320Y-69729073D01*
X193146147Y-69990226D01*
X193091000Y-70267465D01*
X193091000Y-70550135D01*
X193146147Y-70827374D01*
X193254320Y-71088527D01*
X193411363Y-71323559D01*
X193611241Y-71523437D01*
X193843759Y-71678800D01*
X193611241Y-71834163D01*
X193411363Y-72034041D01*
X193254320Y-72269073D01*
X193146147Y-72530226D01*
X193091000Y-72807465D01*
X193091000Y-73090135D01*
X193146147Y-73367374D01*
X193254320Y-73628527D01*
X193411363Y-73863559D01*
X193611241Y-74063437D01*
X193843759Y-74218800D01*
X193611241Y-74374163D01*
X193411363Y-74574041D01*
X193254320Y-74809073D01*
X193146147Y-75070226D01*
X193091000Y-75347465D01*
X193091000Y-75630135D01*
X193146147Y-75907374D01*
X193254320Y-76168527D01*
X193411363Y-76403559D01*
X193611241Y-76603437D01*
X193843759Y-76758800D01*
X193611241Y-76914163D01*
X193411363Y-77114041D01*
X193254320Y-77349073D01*
X193245754Y-77369752D01*
X185958300Y-70082299D01*
X185958300Y-69452708D01*
X186058901Y-69500625D01*
X186206110Y-69545276D01*
X186436000Y-69423955D01*
X186436000Y-68230800D01*
X186416000Y-68230800D01*
X186416000Y-67976800D01*
X186436000Y-67976800D01*
X186436000Y-65690800D01*
X186416000Y-65690800D01*
X186416000Y-65436800D01*
X186436000Y-65436800D01*
X186436000Y-64243645D01*
X186690000Y-64243645D01*
X186690000Y-65436800D01*
X186710000Y-65436800D01*
X186710000Y-65690800D01*
X186690000Y-65690800D01*
X186690000Y-67976800D01*
X186710000Y-67976800D01*
X186710000Y-68230800D01*
X186690000Y-68230800D01*
X186690000Y-69423955D01*
X186919890Y-69545276D01*
X187067099Y-69500625D01*
X187329920Y-69375441D01*
X187563269Y-69201388D01*
X187639034Y-69117334D01*
X187663498Y-69197980D01*
X187722463Y-69308294D01*
X187801815Y-69404985D01*
X187898506Y-69484337D01*
X188008820Y-69543302D01*
X188128518Y-69579612D01*
X188253000Y-69591872D01*
X189953000Y-69591872D01*
X190077482Y-69579612D01*
X190197180Y-69543302D01*
X190307494Y-69484337D01*
X190404185Y-69404985D01*
X190483537Y-69308294D01*
X190542502Y-69197980D01*
X190578812Y-69078282D01*
X190591072Y-68953800D01*
X190591072Y-67253800D01*
X190578812Y-67129318D01*
X190542502Y-67009620D01*
X190483537Y-66899306D01*
X190404185Y-66802615D01*
X190307494Y-66723263D01*
X190197180Y-66664298D01*
X190124620Y-66642287D01*
X190256475Y-66510432D01*
X190418990Y-66267211D01*
X190530932Y-65996958D01*
X190588000Y-65710060D01*
X190588000Y-65417540D01*
X190530932Y-65130642D01*
X190418990Y-64860389D01*
X190256475Y-64617168D01*
X190049632Y-64410325D01*
X189806411Y-64247810D01*
X189536158Y-64135868D01*
X189249260Y-64078800D01*
X188956740Y-64078800D01*
X188669842Y-64135868D01*
X188399589Y-64247810D01*
X188156368Y-64410325D01*
X187949525Y-64617168D01*
X187827805Y-64799334D01*
X187758178Y-64682445D01*
X187563269Y-64466212D01*
X187329920Y-64292159D01*
X187067099Y-64166975D01*
X186919890Y-64122324D01*
X186690000Y-64243645D01*
X186436000Y-64243645D01*
X186206110Y-64122324D01*
X186058901Y-64166975D01*
X185796080Y-64292159D01*
X185562731Y-64466212D01*
X185367822Y-64682445D01*
X185298195Y-64799334D01*
X185176475Y-64617168D01*
X184969632Y-64410325D01*
X184726411Y-64247810D01*
X184456158Y-64135868D01*
X184169260Y-64078800D01*
X183876740Y-64078800D01*
X183589842Y-64135868D01*
X183319589Y-64247810D01*
X183076368Y-64410325D01*
X182869525Y-64617168D01*
X182753000Y-64791560D01*
X182636475Y-64617168D01*
X182429632Y-64410325D01*
X182186411Y-64247810D01*
X181916158Y-64135868D01*
X181629260Y-64078800D01*
X181336740Y-64078800D01*
X181049842Y-64135868D01*
X180779589Y-64247810D01*
X180536368Y-64410325D01*
X180329525Y-64617168D01*
X180213000Y-64791560D01*
X180096475Y-64617168D01*
X179889632Y-64410325D01*
X179646411Y-64247810D01*
X179376158Y-64135868D01*
X179089260Y-64078800D01*
X178796740Y-64078800D01*
X178509842Y-64135868D01*
X178239589Y-64247810D01*
X177996368Y-64410325D01*
X177789525Y-64617168D01*
X177673000Y-64791560D01*
X177556475Y-64617168D01*
X177349632Y-64410325D01*
X177106411Y-64247810D01*
X176836158Y-64135868D01*
X176549260Y-64078800D01*
X176256740Y-64078800D01*
X175969842Y-64135868D01*
X175699589Y-64247810D01*
X175456368Y-64410325D01*
X175451597Y-64415096D01*
X174800604Y-63764102D01*
X174776801Y-63735099D01*
X174661076Y-63640126D01*
X174529047Y-63569554D01*
X174385786Y-63526097D01*
X174274133Y-63515100D01*
X174274122Y-63515100D01*
X174236800Y-63511424D01*
X174199478Y-63515100D01*
X148283822Y-63515100D01*
X148246499Y-63511424D01*
X148209176Y-63515100D01*
X148209167Y-63515100D01*
X148097514Y-63526097D01*
X147974949Y-63563276D01*
X147954253Y-63569554D01*
X147822223Y-63640126D01*
X147788414Y-63667873D01*
X147706499Y-63735099D01*
X147682701Y-63764097D01*
X143203347Y-68243452D01*
X143149180Y-68214498D01*
X143029482Y-68178188D01*
X142905000Y-68165928D01*
X140305000Y-68165928D01*
X140180518Y-68178188D01*
X140060820Y-68214498D01*
X139950506Y-68273463D01*
X139853815Y-68352815D01*
X139774463Y-68449506D01*
X139715498Y-68559820D01*
X139679188Y-68679518D01*
X139666928Y-68804000D01*
X134010000Y-68804000D01*
X134010000Y-64997816D01*
X137811352Y-63781768D01*
X142105484Y-62571553D01*
X146439234Y-61511939D01*
X150807316Y-60604217D01*
X155204445Y-59849487D01*
X159625221Y-59248677D01*
X164064238Y-58802520D01*
X168516165Y-58511550D01*
X172975530Y-58376127D01*
X177436893Y-58396418D01*
G37*
X177436893Y-58396418D02*
X181894818Y-58572394D01*
X186343904Y-58903844D01*
X190778726Y-59390364D01*
X195193826Y-60031355D01*
X199583891Y-60826045D01*
X203943576Y-61773468D01*
X208267481Y-62872450D01*
X212551905Y-64122104D01*
X215239998Y-64995518D01*
X215240001Y-109203711D01*
X215230420Y-109301424D01*
X215211420Y-109364357D01*
X215180554Y-109422406D01*
X215139011Y-109473343D01*
X215088356Y-109515248D01*
X215030529Y-109546515D01*
X214967728Y-109565956D01*
X214872212Y-109575995D01*
X134382349Y-109560007D01*
X134284576Y-109550420D01*
X134221643Y-109531420D01*
X134163594Y-109500554D01*
X134112657Y-109459011D01*
X134070752Y-109408356D01*
X134039485Y-109350529D01*
X134020044Y-109287728D01*
X134010000Y-109192165D01*
X134010000Y-106148702D01*
X137926903Y-106148702D01*
X137998486Y-106392671D01*
X138253996Y-106513571D01*
X138528184Y-106582300D01*
X138810512Y-106596217D01*
X139090130Y-106554787D01*
X139356292Y-106459603D01*
X139481514Y-106392671D01*
X139553097Y-106148702D01*
X138740000Y-105335605D01*
X137926903Y-106148702D01*
X134010000Y-106148702D01*
X134010000Y-105226512D01*
X137299783Y-105226512D01*
X137341213Y-105506130D01*
X137436397Y-105772292D01*
X137503329Y-105897514D01*
X137747298Y-105969097D01*
X138560395Y-105156000D01*
X138919605Y-105156000D01*
X139732702Y-105969097D01*
X139976671Y-105897514D01*
X140097571Y-105642004D01*
X140166300Y-105367816D01*
X140180217Y-105085488D01*
X140138787Y-104805870D01*
X140043603Y-104539708D01*
X139976671Y-104414486D01*
X139777340Y-104356000D01*
X140801928Y-104356000D01*
X140801928Y-105956000D01*
X140814188Y-106080482D01*
X140850498Y-106200180D01*
X140909463Y-106310494D01*
X140988815Y-106407185D01*
X141085506Y-106486537D01*
X141195820Y-106545502D01*
X141315518Y-106581812D01*
X141440000Y-106594072D01*
X143040000Y-106594072D01*
X143164482Y-106581812D01*
X143284180Y-106545502D01*
X143394494Y-106486537D01*
X143491185Y-106407185D01*
X143570537Y-106310494D01*
X143629502Y-106200180D01*
X143665812Y-106080482D01*
X143678072Y-105956000D01*
X143678072Y-104356000D01*
X143665812Y-104231518D01*
X143629502Y-104111820D01*
X143570537Y-104001506D01*
X143491185Y-103904815D01*
X143394494Y-103825463D01*
X143284180Y-103766498D01*
X143164482Y-103730188D01*
X143040000Y-103717928D01*
X141440000Y-103717928D01*
X141315518Y-103730188D01*
X141195820Y-103766498D01*
X141085506Y-103825463D01*
X140988815Y-103904815D01*
X140909463Y-104001506D01*
X140850498Y-104111820D01*
X140814188Y-104231518D01*
X140801928Y-104356000D01*
X139777340Y-104356000D01*
X139732702Y-104342903D01*
X138919605Y-105156000D01*
X138560395Y-105156000D01*
X137747298Y-104342903D01*
X137503329Y-104414486D01*
X137382429Y-104669996D01*
X137313700Y-104944184D01*
X137299783Y-105226512D01*
X134010000Y-105226512D01*
X134010000Y-104163298D01*
X137926903Y-104163298D01*
X138740000Y-104976395D01*
X139553097Y-104163298D01*
X139481514Y-103919329D01*
X139226004Y-103798429D01*
X138951816Y-103729700D01*
X138669488Y-103715783D01*
X138389870Y-103757213D01*
X138123708Y-103852397D01*
X137998486Y-103919329D01*
X137926903Y-104163298D01*
X134010000Y-104163298D01*
X134010000Y-94913419D01*
X139670000Y-94913419D01*
X139670000Y-95294581D01*
X139744361Y-95668419D01*
X139890225Y-96020566D01*
X140101987Y-96337491D01*
X140371509Y-96607013D01*
X140688434Y-96818775D01*
X141040581Y-96964639D01*
X141414419Y-97039000D01*
X141795581Y-97039000D01*
X142169419Y-96964639D01*
X142521566Y-96818775D01*
X142838491Y-96607013D01*
X143108013Y-96337491D01*
X143319775Y-96020566D01*
X143465639Y-95668419D01*
X143540000Y-95294581D01*
X143540000Y-94913419D01*
X143465639Y-94539581D01*
X143319775Y-94187434D01*
X143108013Y-93870509D01*
X142838491Y-93600987D01*
X142521566Y-93389225D01*
X142169419Y-93243361D01*
X141795581Y-93169000D01*
X141414419Y-93169000D01*
X141040581Y-93243361D01*
X140688434Y-93389225D01*
X140371509Y-93600987D01*
X140101987Y-93870509D01*
X139890225Y-94187434D01*
X139744361Y-94539581D01*
X139670000Y-94913419D01*
X134010000Y-94913419D01*
X134010000Y-89913419D01*
X139670000Y-89913419D01*
X139670000Y-90294581D01*
X139744361Y-90668419D01*
X139890225Y-91020566D01*
X140101987Y-91337491D01*
X140371509Y-91607013D01*
X140688434Y-91818775D01*
X141040581Y-91964639D01*
X141414419Y-92039000D01*
X141795581Y-92039000D01*
X142169419Y-91964639D01*
X142521566Y-91818775D01*
X142838491Y-91607013D01*
X143108013Y-91337491D01*
X143319775Y-91020566D01*
X143465639Y-90668419D01*
X143540000Y-90294581D01*
X143540000Y-89913419D01*
X143465639Y-89539581D01*
X143319775Y-89187434D01*
X143108013Y-88870509D01*
X142838491Y-88600987D01*
X142521566Y-88389225D01*
X142169419Y-88243361D01*
X141795581Y-88169000D01*
X141414419Y-88169000D01*
X141040581Y-88243361D01*
X140688434Y-88389225D01*
X140371509Y-88600987D01*
X140101987Y-88870509D01*
X139890225Y-89187434D01*
X139744361Y-89539581D01*
X139670000Y-89913419D01*
X134010000Y-89913419D01*
X134010000Y-84913419D01*
X139670000Y-84913419D01*
X139670000Y-85294581D01*
X139744361Y-85668419D01*
X139890225Y-86020566D01*
X140101987Y-86337491D01*
X140371509Y-86607013D01*
X140688434Y-86818775D01*
X141040581Y-86964639D01*
X141414419Y-87039000D01*
X141795581Y-87039000D01*
X142169419Y-86964639D01*
X142521566Y-86818775D01*
X142838491Y-86607013D01*
X143108013Y-86337491D01*
X143319775Y-86020566D01*
X143465639Y-85668419D01*
X143540000Y-85294581D01*
X143540000Y-84913419D01*
X143465639Y-84539581D01*
X143319775Y-84187434D01*
X143108013Y-83870509D01*
X142838491Y-83600987D01*
X142521566Y-83389225D01*
X142169419Y-83243361D01*
X141795581Y-83169000D01*
X141414419Y-83169000D01*
X141040581Y-83243361D01*
X140688434Y-83389225D01*
X140371509Y-83600987D01*
X140101987Y-83870509D01*
X139890225Y-84187434D01*
X139744361Y-84539581D01*
X139670000Y-84913419D01*
X134010000Y-84913419D01*
X134010000Y-79913419D01*
X139670000Y-79913419D01*
X139670000Y-80294581D01*
X139744361Y-80668419D01*
X139890225Y-81020566D01*
X140101987Y-81337491D01*
X140371509Y-81607013D01*
X140688434Y-81818775D01*
X141040581Y-81964639D01*
X141414419Y-82039000D01*
X141795581Y-82039000D01*
X142169419Y-81964639D01*
X142521566Y-81818775D01*
X142838491Y-81607013D01*
X143108013Y-81337491D01*
X143319775Y-81020566D01*
X143465639Y-80668419D01*
X143540000Y-80294581D01*
X143540000Y-79913419D01*
X143465639Y-79539581D01*
X143319775Y-79187434D01*
X143108013Y-78870509D01*
X142838491Y-78600987D01*
X142521566Y-78389225D01*
X142169419Y-78243361D01*
X141795581Y-78169000D01*
X141414419Y-78169000D01*
X141040581Y-78243361D01*
X140688434Y-78389225D01*
X140371509Y-78600987D01*
X140101987Y-78870509D01*
X139890225Y-79187434D01*
X139744361Y-79539581D01*
X139670000Y-79913419D01*
X134010000Y-79913419D01*
X134010000Y-74913419D01*
X139670000Y-74913419D01*
X139670000Y-75294581D01*
X139744361Y-75668419D01*
X139890225Y-76020566D01*
X140101987Y-76337491D01*
X140371509Y-76607013D01*
X140688434Y-76818775D01*
X141040581Y-76964639D01*
X141414419Y-77039000D01*
X141795581Y-77039000D01*
X142169419Y-76964639D01*
X142521566Y-76818775D01*
X142838491Y-76607013D01*
X143108013Y-76337491D01*
X143319775Y-76020566D01*
X143465639Y-75668419D01*
X143540000Y-75294581D01*
X143540000Y-74913419D01*
X143465639Y-74539581D01*
X143319775Y-74187434D01*
X143108013Y-73870509D01*
X142838491Y-73600987D01*
X142521566Y-73389225D01*
X142169419Y-73243361D01*
X141795581Y-73169000D01*
X141414419Y-73169000D01*
X141040581Y-73243361D01*
X140688434Y-73389225D01*
X140371509Y-73600987D01*
X140101987Y-73870509D01*
X139890225Y-74187434D01*
X139744361Y-74539581D01*
X139670000Y-74913419D01*
X134010000Y-74913419D01*
X134010000Y-68804000D01*
X139666928Y-68804000D01*
X139666928Y-71404000D01*
X139679188Y-71528482D01*
X139715498Y-71648180D01*
X139774463Y-71758494D01*
X139853815Y-71855185D01*
X139950506Y-71934537D01*
X140060820Y-71993502D01*
X140180518Y-72029812D01*
X140305000Y-72042072D01*
X142905000Y-72042072D01*
X143029482Y-72029812D01*
X143149180Y-71993502D01*
X143259494Y-71934537D01*
X143356185Y-71855185D01*
X143435537Y-71758494D01*
X143494502Y-71648180D01*
X143530812Y-71528482D01*
X143543072Y-71404000D01*
X143543072Y-70798575D01*
X143654576Y-70738974D01*
X143770301Y-70644001D01*
X143865274Y-70528276D01*
X143935846Y-70396247D01*
X143979303Y-70252986D01*
X143993977Y-70104000D01*
X143990300Y-70066667D01*
X143990300Y-69606101D01*
X147786928Y-65809474D01*
X147786928Y-66205000D01*
X147799188Y-66329482D01*
X147835498Y-66449180D01*
X147894463Y-66559494D01*
X147973815Y-66656185D01*
X148070506Y-66735537D01*
X148180820Y-66794502D01*
X148300518Y-66830812D01*
X148308961Y-66831643D01*
X148110363Y-67030241D01*
X147953320Y-67265273D01*
X147845147Y-67526426D01*
X147790000Y-67803665D01*
X147790000Y-68086335D01*
X147845147Y-68363574D01*
X147953320Y-68624727D01*
X148110363Y-68859759D01*
X148310241Y-69059637D01*
X148542759Y-69215000D01*
X148310241Y-69370363D01*
X148110363Y-69570241D01*
X147953320Y-69805273D01*
X147845147Y-70066426D01*
X147790000Y-70343665D01*
X147790000Y-70626335D01*
X147845147Y-70903574D01*
X147953320Y-71164727D01*
X148110363Y-71399759D01*
X148310241Y-71599637D01*
X148542759Y-71755000D01*
X148310241Y-71910363D01*
X148110363Y-72110241D01*
X147953320Y-72345273D01*
X147845147Y-72606426D01*
X147790000Y-72883665D01*
X147790000Y-73166335D01*
X147845147Y-73443574D01*
X147953320Y-73704727D01*
X148110363Y-73939759D01*
X148310241Y-74139637D01*
X148542759Y-74295000D01*
X148310241Y-74450363D01*
X148110363Y-74650241D01*
X147953320Y-74885273D01*
X147845147Y-75146426D01*
X147790000Y-75423665D01*
X147790000Y-75706335D01*
X147845147Y-75983574D01*
X147953320Y-76244727D01*
X148110363Y-76479759D01*
X148310241Y-76679637D01*
X148542759Y-76835000D01*
X148310241Y-76990363D01*
X148110363Y-77190241D01*
X147953320Y-77425273D01*
X147845147Y-77686426D01*
X147790000Y-77963665D01*
X147790000Y-78246335D01*
X147845147Y-78523574D01*
X147953320Y-78784727D01*
X148110363Y-79019759D01*
X148310241Y-79219637D01*
X148542759Y-79375000D01*
X148310241Y-79530363D01*
X148110363Y-79730241D01*
X147953320Y-79965273D01*
X147845147Y-80226426D01*
X147790000Y-80503665D01*
X147790000Y-80786335D01*
X147845147Y-81063574D01*
X147953320Y-81324727D01*
X148110363Y-81559759D01*
X148310241Y-81759637D01*
X148545273Y-81916680D01*
X148555865Y-81921067D01*
X148369869Y-82032615D01*
X148161481Y-82221586D01*
X147993963Y-82447580D01*
X147873754Y-82701913D01*
X147833096Y-82835961D01*
X147955085Y-83058000D01*
X149098000Y-83058000D01*
X149098000Y-83038000D01*
X149352000Y-83038000D01*
X149352000Y-83058000D01*
X150494915Y-83058000D01*
X150616904Y-82835961D01*
X150576246Y-82701913D01*
X150456037Y-82447580D01*
X150288519Y-82221586D01*
X150080131Y-82032615D01*
X149894135Y-81921067D01*
X149904727Y-81916680D01*
X150139759Y-81759637D01*
X150339637Y-81559759D01*
X150395721Y-81475823D01*
X155155901Y-86236003D01*
X155179699Y-86265001D01*
X155208697Y-86288799D01*
X155295423Y-86359974D01*
X155418993Y-86426024D01*
X155427453Y-86430546D01*
X155570714Y-86474003D01*
X155623053Y-86479158D01*
X155730363Y-86639759D01*
X155757051Y-86666447D01*
X153523999Y-88899500D01*
X150515414Y-88899500D01*
X150604853Y-88683574D01*
X150660000Y-88406335D01*
X150660000Y-88123665D01*
X150604853Y-87846426D01*
X150496680Y-87585273D01*
X150339637Y-87350241D01*
X150139759Y-87150363D01*
X149963833Y-87032813D01*
X149974003Y-86999286D01*
X149979158Y-86946947D01*
X150139759Y-86839637D01*
X150339637Y-86639759D01*
X150496680Y-86404727D01*
X150604853Y-86143574D01*
X150660000Y-85866335D01*
X150660000Y-85583665D01*
X150604853Y-85306426D01*
X150496680Y-85045273D01*
X150339637Y-84810241D01*
X150139759Y-84610363D01*
X149904727Y-84453320D01*
X149894135Y-84448933D01*
X150080131Y-84337385D01*
X150288519Y-84148414D01*
X150456037Y-83922420D01*
X150576246Y-83668087D01*
X150616904Y-83534039D01*
X150494915Y-83312000D01*
X149352000Y-83312000D01*
X149352000Y-83332000D01*
X149098000Y-83332000D01*
X149098000Y-83312000D01*
X147955085Y-83312000D01*
X147833096Y-83534039D01*
X147873754Y-83668087D01*
X147993963Y-83922420D01*
X148161481Y-84148414D01*
X148369869Y-84337385D01*
X148555865Y-84448933D01*
X148545273Y-84453320D01*
X148310241Y-84610363D01*
X148110363Y-84810241D01*
X147953320Y-85045273D01*
X147845147Y-85306426D01*
X147790000Y-85583665D01*
X147790000Y-85866335D01*
X147845147Y-86143574D01*
X147953320Y-86404727D01*
X148097937Y-86621162D01*
X147588698Y-87130401D01*
X147559700Y-87154199D01*
X147535902Y-87183197D01*
X147535901Y-87183198D01*
X147464726Y-87269924D01*
X147394154Y-87401954D01*
X147371177Y-87477701D01*
X147350698Y-87545214D01*
X147345551Y-87597474D01*
X147336024Y-87694200D01*
X147339701Y-87731533D01*
X147339700Y-104374378D01*
X147336024Y-104411700D01*
X147339700Y-104449022D01*
X147339700Y-104449032D01*
X147350697Y-104560685D01*
X147382545Y-104665674D01*
X147394154Y-104703946D01*
X147464726Y-104835976D01*
X147498021Y-104876546D01*
X147559699Y-104951701D01*
X147588703Y-104975504D01*
X147995833Y-105382635D01*
X147967000Y-105527589D01*
X147967000Y-105800411D01*
X148020225Y-106067989D01*
X148124629Y-106320043D01*
X148276201Y-106546886D01*
X148469114Y-106739799D01*
X148695957Y-106891371D01*
X148948011Y-106995775D01*
X149215589Y-107049000D01*
X149488411Y-107049000D01*
X149755989Y-106995775D01*
X150008043Y-106891371D01*
X150234886Y-106739799D01*
X150427799Y-106546886D01*
X150579371Y-106320043D01*
X150683775Y-106067989D01*
X150737000Y-105800411D01*
X150737000Y-105527589D01*
X150683775Y-105260011D01*
X150579371Y-105007957D01*
X150427799Y-104781114D01*
X150234886Y-104588201D01*
X150008043Y-104436629D01*
X149755989Y-104332225D01*
X149488411Y-104279000D01*
X149215589Y-104279000D01*
X149070635Y-104307833D01*
X148859700Y-104096899D01*
X148859700Y-99815450D01*
X149083665Y-99860000D01*
X149366335Y-99860000D01*
X149643574Y-99804853D01*
X149904727Y-99696680D01*
X150139759Y-99539637D01*
X150339637Y-99339759D01*
X150496680Y-99104727D01*
X150604853Y-98843574D01*
X150660000Y-98566335D01*
X150660000Y-98283665D01*
X150604853Y-98006426D01*
X150496680Y-97745273D01*
X150339637Y-97510241D01*
X150139759Y-97310363D01*
X149907241Y-97155000D01*
X150139759Y-96999637D01*
X150339637Y-96799759D01*
X150496680Y-96564727D01*
X150604853Y-96303574D01*
X150660000Y-96026335D01*
X150660000Y-95743665D01*
X150604853Y-95466426D01*
X150496680Y-95205273D01*
X150339637Y-94970241D01*
X150139759Y-94770363D01*
X149907241Y-94615000D01*
X150139759Y-94459637D01*
X150339637Y-94259759D01*
X150496680Y-94024727D01*
X150604853Y-93763574D01*
X150660000Y-93486335D01*
X150660000Y-93203665D01*
X150604853Y-92926426D01*
X150496680Y-92665273D01*
X150339637Y-92430241D01*
X150139759Y-92230363D01*
X149907241Y-92075000D01*
X150139759Y-91919637D01*
X150339637Y-91719759D01*
X150496680Y-91484727D01*
X150604853Y-91223574D01*
X150660000Y-90946335D01*
X150660000Y-90663665D01*
X150611432Y-90419500D01*
X153472001Y-90419500D01*
X153472000Y-104506091D01*
X153349114Y-104588201D01*
X153156201Y-104781114D01*
X153004629Y-105007957D01*
X152900225Y-105260011D01*
X152847000Y-105527589D01*
X152847000Y-105800411D01*
X152900225Y-106067989D01*
X153004629Y-106320043D01*
X153156201Y-106546886D01*
X153349114Y-106739799D01*
X153575957Y-106891371D01*
X153828011Y-106995775D01*
X154095589Y-107049000D01*
X154368411Y-107049000D01*
X154635989Y-106995775D01*
X154888043Y-106891371D01*
X155114886Y-106739799D01*
X155307799Y-106546886D01*
X155459371Y-106320043D01*
X155563775Y-106067989D01*
X155617000Y-105800411D01*
X155617000Y-105527589D01*
X155563775Y-105260011D01*
X155459371Y-105007957D01*
X155307799Y-104781114D01*
X155114886Y-104588201D01*
X154992000Y-104506091D01*
X154992000Y-90090025D01*
X154995676Y-90052700D01*
X154992000Y-90015375D01*
X154992000Y-90015367D01*
X154981003Y-89903714D01*
X154937546Y-89760453D01*
X154894040Y-89679061D01*
X155595372Y-88977730D01*
X155730363Y-89179759D01*
X155930241Y-89379637D01*
X156162759Y-89535000D01*
X155930241Y-89690363D01*
X155730363Y-89890241D01*
X155573320Y-90125273D01*
X155465147Y-90386426D01*
X155410000Y-90663665D01*
X155410000Y-90946335D01*
X155465147Y-91223574D01*
X155573320Y-91484727D01*
X155730363Y-91719759D01*
X155930241Y-91919637D01*
X156162759Y-92075000D01*
X155930241Y-92230363D01*
X155730363Y-92430241D01*
X155573320Y-92665273D01*
X155465147Y-92926426D01*
X155410000Y-93203665D01*
X155410000Y-93486335D01*
X155465147Y-93763574D01*
X155573320Y-94024727D01*
X155730363Y-94259759D01*
X155930241Y-94459637D01*
X156162759Y-94615000D01*
X155930241Y-94770363D01*
X155730363Y-94970241D01*
X155573320Y-95205273D01*
X155465147Y-95466426D01*
X155410000Y-95743665D01*
X155410000Y-96026335D01*
X155465147Y-96303574D01*
X155573320Y-96564727D01*
X155730363Y-96799759D01*
X155930241Y-96999637D01*
X156162759Y-97155000D01*
X155930241Y-97310363D01*
X155730363Y-97510241D01*
X155573320Y-97745273D01*
X155465147Y-98006426D01*
X155410000Y-98283665D01*
X155410000Y-98566335D01*
X155465147Y-98843574D01*
X155573320Y-99104727D01*
X155730363Y-99339759D01*
X155930241Y-99539637D01*
X156165273Y-99696680D01*
X156426426Y-99804853D01*
X156703665Y-99860000D01*
X156986335Y-99860000D01*
X157263574Y-99804853D01*
X157524727Y-99696680D01*
X157759759Y-99539637D01*
X157959637Y-99339759D01*
X158116680Y-99104727D01*
X158224853Y-98843574D01*
X158280000Y-98566335D01*
X158280000Y-98283665D01*
X158224853Y-98006426D01*
X158116680Y-97745273D01*
X157959637Y-97510241D01*
X157759759Y-97310363D01*
X157527241Y-97155000D01*
X157759759Y-96999637D01*
X157959637Y-96799759D01*
X158116680Y-96564727D01*
X158224853Y-96303574D01*
X158280000Y-96026335D01*
X158280000Y-95743665D01*
X158224853Y-95466426D01*
X158116680Y-95205273D01*
X157959637Y-94970241D01*
X157759759Y-94770363D01*
X157527241Y-94615000D01*
X157759759Y-94459637D01*
X157959637Y-94259759D01*
X158116680Y-94024727D01*
X158224853Y-93763574D01*
X158280000Y-93486335D01*
X158280000Y-93203665D01*
X158224853Y-92926426D01*
X158116680Y-92665273D01*
X157959637Y-92430241D01*
X157759759Y-92230363D01*
X157527241Y-92075000D01*
X157759759Y-91919637D01*
X157959637Y-91719759D01*
X158116680Y-91484727D01*
X158224853Y-91223574D01*
X158280000Y-90946335D01*
X158280000Y-90663665D01*
X158224853Y-90386426D01*
X158116680Y-90125273D01*
X157959637Y-89890241D01*
X157759759Y-89690363D01*
X157527241Y-89535000D01*
X157759759Y-89379637D01*
X157959637Y-89179759D01*
X158116680Y-88944727D01*
X158224853Y-88683574D01*
X158280000Y-88406335D01*
X158280000Y-88123665D01*
X158224853Y-87846426D01*
X158116680Y-87585273D01*
X157959637Y-87350241D01*
X157957999Y-87348603D01*
X158561401Y-86745201D01*
X158561400Y-101704678D01*
X158557724Y-101742000D01*
X158561400Y-101779322D01*
X158561400Y-101779332D01*
X158572397Y-101890985D01*
X158600841Y-101984753D01*
X158615854Y-102034246D01*
X158686426Y-102166276D01*
X158726271Y-102214826D01*
X158781399Y-102282001D01*
X158810403Y-102305804D01*
X164771501Y-108266903D01*
X164795299Y-108295901D01*
X164824297Y-108319699D01*
X164911023Y-108390874D01*
X165043053Y-108461446D01*
X165186314Y-108504903D01*
X165297967Y-108515900D01*
X165297977Y-108515900D01*
X165335300Y-108519576D01*
X165372623Y-108515900D01*
X174512778Y-108515900D01*
X174550100Y-108519576D01*
X174587422Y-108515900D01*
X174587433Y-108515900D01*
X174699086Y-108504903D01*
X174842347Y-108461446D01*
X174974376Y-108390874D01*
X175090101Y-108295901D01*
X175113904Y-108266898D01*
X175348814Y-108031988D01*
X175356377Y-108034282D01*
X175452510Y-108053404D01*
X175576991Y-108065664D01*
X175601550Y-108065664D01*
X175626000Y-108068072D01*
X176126000Y-108068072D01*
X176250482Y-108055812D01*
X176276000Y-108048071D01*
X176301518Y-108055812D01*
X176426000Y-108068072D01*
X176926000Y-108068072D01*
X176950450Y-108065664D01*
X176975009Y-108065664D01*
X177099490Y-108053404D01*
X177195623Y-108034282D01*
X177315319Y-107997973D01*
X177405875Y-107960464D01*
X177516192Y-107901498D01*
X177597691Y-107847042D01*
X177694382Y-107767690D01*
X177763690Y-107698382D01*
X177843042Y-107601691D01*
X177897498Y-107520192D01*
X177956464Y-107409875D01*
X177993973Y-107319319D01*
X178030282Y-107199623D01*
X178049404Y-107103490D01*
X178061664Y-106979009D01*
X178061664Y-106954450D01*
X178064072Y-106930000D01*
X178064072Y-106430000D01*
X178061664Y-106405550D01*
X178061664Y-106380991D01*
X178049404Y-106256510D01*
X178030282Y-106160377D01*
X177993973Y-106040681D01*
X177956464Y-105950125D01*
X177897498Y-105839808D01*
X177843042Y-105758309D01*
X177763690Y-105661618D01*
X177694382Y-105592310D01*
X177686000Y-105585431D01*
X177686000Y-103000396D01*
X177767637Y-102918759D01*
X177798000Y-102873317D01*
X177828363Y-102918759D01*
X178028241Y-103118637D01*
X178263273Y-103275680D01*
X178524426Y-103383853D01*
X178801665Y-103439000D01*
X179084335Y-103439000D01*
X179361574Y-103383853D01*
X179622727Y-103275680D01*
X179857759Y-103118637D01*
X180057637Y-102918759D01*
X180214680Y-102683727D01*
X180322853Y-102422574D01*
X180378000Y-102145335D01*
X180378000Y-101862665D01*
X180322853Y-101585426D01*
X180266047Y-101448284D01*
X180438130Y-101422787D01*
X180704292Y-101327603D01*
X180829514Y-101260671D01*
X180901097Y-101016702D01*
X180088000Y-100203605D01*
X180073858Y-100217748D01*
X179894253Y-100038143D01*
X179908395Y-100024000D01*
X180267605Y-100024000D01*
X181080702Y-100837097D01*
X181324671Y-100765514D01*
X181445571Y-100510004D01*
X181514300Y-100235816D01*
X181528217Y-99953488D01*
X181486787Y-99673870D01*
X181391603Y-99407708D01*
X181324671Y-99282486D01*
X181080702Y-99210903D01*
X180267605Y-100024000D01*
X179908395Y-100024000D01*
X179894253Y-100009858D01*
X180073858Y-99830253D01*
X180088000Y-99844395D01*
X180727920Y-99204475D01*
X184493000Y-99204475D01*
X184493000Y-99723525D01*
X184594261Y-100232601D01*
X184792893Y-100712141D01*
X185081262Y-101143715D01*
X185448285Y-101510738D01*
X185879859Y-101799107D01*
X186359399Y-101997739D01*
X186868475Y-102099000D01*
X187387525Y-102099000D01*
X187896601Y-101997739D01*
X188376141Y-101799107D01*
X188807715Y-101510738D01*
X189174738Y-101143715D01*
X189463107Y-100712141D01*
X189661739Y-100232601D01*
X189763000Y-99723525D01*
X189763000Y-99204475D01*
X189661739Y-98695399D01*
X189463107Y-98215859D01*
X189174738Y-97784285D01*
X188807715Y-97417262D01*
X188376141Y-97128893D01*
X187896601Y-96930261D01*
X187387525Y-96829000D01*
X186868475Y-96829000D01*
X186359399Y-96930261D01*
X185879859Y-97128893D01*
X185448285Y-97417262D01*
X185081262Y-97784285D01*
X184792893Y-98215859D01*
X184594261Y-98695399D01*
X184493000Y-99204475D01*
X180727920Y-99204475D01*
X180901097Y-99031298D01*
X180829514Y-98787329D01*
X180574004Y-98666429D01*
X180381072Y-98618068D01*
X180381072Y-97244000D01*
X180368812Y-97119518D01*
X180332502Y-96999820D01*
X180273537Y-96889506D01*
X180194185Y-96792815D01*
X180097494Y-96713463D01*
X179987180Y-96654498D01*
X179976076Y-96651130D01*
X179976276Y-96649100D01*
X179972600Y-96611777D01*
X179972600Y-87972700D01*
X180039839Y-87972700D01*
X180239798Y-87932926D01*
X180428156Y-87854905D01*
X180597674Y-87741637D01*
X180741837Y-87597474D01*
X180855105Y-87427956D01*
X180933126Y-87239598D01*
X180972900Y-87039639D01*
X180972900Y-86835761D01*
X180933126Y-86635802D01*
X180855105Y-86447444D01*
X180741837Y-86277926D01*
X180697900Y-86233989D01*
X180697900Y-84333180D01*
X180713124Y-84345674D01*
X180845153Y-84416246D01*
X180984004Y-84458365D01*
X180937000Y-84694665D01*
X180937000Y-84977335D01*
X180992147Y-85254574D01*
X181100320Y-85515727D01*
X181257363Y-85750759D01*
X181457241Y-85950637D01*
X181689759Y-86106000D01*
X181457241Y-86261363D01*
X181257363Y-86461241D01*
X181100320Y-86696273D01*
X180992147Y-86957426D01*
X180937000Y-87234665D01*
X180937000Y-87517335D01*
X180992147Y-87794574D01*
X181100320Y-88055727D01*
X181257363Y-88290759D01*
X181457241Y-88490637D01*
X181692273Y-88647680D01*
X181953426Y-88755853D01*
X182230665Y-88811000D01*
X182513335Y-88811000D01*
X182790574Y-88755853D01*
X183051727Y-88647680D01*
X183286759Y-88490637D01*
X183486637Y-88290759D01*
X183643680Y-88055727D01*
X183751853Y-87794574D01*
X183807000Y-87517335D01*
X183807000Y-87234665D01*
X183751853Y-86957426D01*
X183643680Y-86696273D01*
X183486637Y-86461241D01*
X183286759Y-86261363D01*
X183054241Y-86106000D01*
X183286759Y-85950637D01*
X183486637Y-85750759D01*
X183643680Y-85515727D01*
X183748637Y-85262338D01*
X193398937Y-94912639D01*
X193254320Y-95129073D01*
X193146147Y-95390226D01*
X193091000Y-95667465D01*
X193091000Y-95950135D01*
X193146147Y-96227374D01*
X193254320Y-96488527D01*
X193411363Y-96723559D01*
X193611241Y-96923437D01*
X193843759Y-97078800D01*
X193611241Y-97234163D01*
X193411363Y-97434041D01*
X193254320Y-97669073D01*
X193146147Y-97930226D01*
X193091000Y-98207465D01*
X193091000Y-98490135D01*
X193146147Y-98767374D01*
X193254320Y-99028527D01*
X193411363Y-99263559D01*
X193611241Y-99463437D01*
X193846273Y-99620480D01*
X194107426Y-99728653D01*
X194384665Y-99783800D01*
X194667335Y-99783800D01*
X194891300Y-99739250D01*
X194891300Y-104458450D01*
X194697114Y-104588201D01*
X194504201Y-104781114D01*
X194352629Y-105007957D01*
X194248225Y-105260011D01*
X194195000Y-105527589D01*
X194195000Y-105800411D01*
X194248225Y-106067989D01*
X194352629Y-106320043D01*
X194504201Y-106546886D01*
X194697114Y-106739799D01*
X194923957Y-106891371D01*
X195176011Y-106995775D01*
X195443589Y-107049000D01*
X195716411Y-107049000D01*
X195983989Y-106995775D01*
X196236043Y-106891371D01*
X196462886Y-106739799D01*
X196655799Y-106546886D01*
X196807371Y-106320043D01*
X196911775Y-106067989D01*
X196965000Y-105800411D01*
X196965000Y-105527589D01*
X199075000Y-105527589D01*
X199075000Y-105800411D01*
X199128225Y-106067989D01*
X199232629Y-106320043D01*
X199384201Y-106546886D01*
X199577114Y-106739799D01*
X199803957Y-106891371D01*
X200056011Y-106995775D01*
X200323589Y-107049000D01*
X200596411Y-107049000D01*
X200863989Y-106995775D01*
X201116043Y-106891371D01*
X201342886Y-106739799D01*
X201535799Y-106546886D01*
X201687371Y-106320043D01*
X201791775Y-106067989D01*
X201845000Y-105800411D01*
X201845000Y-105527589D01*
X201791775Y-105260011D01*
X201687371Y-105007957D01*
X201535799Y-104781114D01*
X201342886Y-104588201D01*
X201116043Y-104436629D01*
X200863989Y-104332225D01*
X200596411Y-104279000D01*
X200323589Y-104279000D01*
X200056011Y-104332225D01*
X199803957Y-104436629D01*
X199577114Y-104588201D01*
X199384201Y-104781114D01*
X199232629Y-105007957D01*
X199128225Y-105260011D01*
X199075000Y-105527589D01*
X196965000Y-105527589D01*
X196911775Y-105260011D01*
X196807371Y-105007957D01*
X196655799Y-104781114D01*
X196462886Y-104588201D01*
X196411300Y-104553732D01*
X196411300Y-87655323D01*
X196414976Y-87618000D01*
X196411300Y-87580677D01*
X196411300Y-87580667D01*
X196400303Y-87469014D01*
X196356846Y-87325753D01*
X196286274Y-87193724D01*
X196191301Y-87077999D01*
X196162303Y-87054201D01*
X195653063Y-86544962D01*
X195797680Y-86328527D01*
X195905853Y-86067374D01*
X195961000Y-85790135D01*
X195961000Y-85507465D01*
X195905853Y-85230226D01*
X195867983Y-85138800D01*
X196895899Y-85138800D01*
X200456901Y-88699803D01*
X200480699Y-88728801D01*
X200596424Y-88823774D01*
X200728453Y-88894346D01*
X200871714Y-88937803D01*
X200924053Y-88942958D01*
X201031363Y-89103559D01*
X201231241Y-89303437D01*
X201391842Y-89410747D01*
X201396997Y-89463086D01*
X201407167Y-89496613D01*
X201231241Y-89614163D01*
X201031363Y-89814041D01*
X200874320Y-90049073D01*
X200766147Y-90310226D01*
X200711000Y-90587465D01*
X200711000Y-90870135D01*
X200766147Y-91147374D01*
X200874320Y-91408527D01*
X201031363Y-91643559D01*
X201231241Y-91843437D01*
X201463759Y-91998800D01*
X201231241Y-92154163D01*
X201031363Y-92354041D01*
X200874320Y-92589073D01*
X200766147Y-92850226D01*
X200711000Y-93127465D01*
X200711000Y-93410135D01*
X200766147Y-93687374D01*
X200874320Y-93948527D01*
X201031363Y-94183559D01*
X201231241Y-94383437D01*
X201463759Y-94538800D01*
X201231241Y-94694163D01*
X201031363Y-94894041D01*
X200874320Y-95129073D01*
X200766147Y-95390226D01*
X200711000Y-95667465D01*
X200711000Y-95950135D01*
X200766147Y-96227374D01*
X200874320Y-96488527D01*
X201031363Y-96723559D01*
X201231241Y-96923437D01*
X201463759Y-97078800D01*
X201231241Y-97234163D01*
X201031363Y-97434041D01*
X200874320Y-97669073D01*
X200766147Y-97930226D01*
X200711000Y-98207465D01*
X200711000Y-98490135D01*
X200766147Y-98767374D01*
X200874320Y-99028527D01*
X201031363Y-99263559D01*
X201231241Y-99463437D01*
X201466273Y-99620480D01*
X201727426Y-99728653D01*
X202004665Y-99783800D01*
X202287335Y-99783800D01*
X202564574Y-99728653D01*
X202825727Y-99620480D01*
X203060759Y-99463437D01*
X203260637Y-99263559D01*
X203417680Y-99028527D01*
X203525853Y-98767374D01*
X203581000Y-98490135D01*
X203581000Y-98207465D01*
X203525853Y-97930226D01*
X203417680Y-97669073D01*
X203260637Y-97434041D01*
X203060759Y-97234163D01*
X202828241Y-97078800D01*
X203060759Y-96923437D01*
X203260637Y-96723559D01*
X203417680Y-96488527D01*
X203525853Y-96227374D01*
X203581000Y-95950135D01*
X203581000Y-95667465D01*
X203525853Y-95390226D01*
X203417680Y-95129073D01*
X203260637Y-94894041D01*
X203060759Y-94694163D01*
X202828241Y-94538800D01*
X203060759Y-94383437D01*
X203260637Y-94183559D01*
X203417680Y-93948527D01*
X203525853Y-93687374D01*
X203581000Y-93410135D01*
X203581000Y-93127465D01*
X203525853Y-92850226D01*
X203417680Y-92589073D01*
X203260637Y-92354041D01*
X203060759Y-92154163D01*
X202828241Y-91998800D01*
X203060759Y-91843437D01*
X203260637Y-91643559D01*
X203398632Y-91437034D01*
X204980000Y-93018402D01*
X204980001Y-103937956D01*
X204825241Y-104041363D01*
X204625363Y-104241241D01*
X204468320Y-104476273D01*
X204360147Y-104737426D01*
X204305000Y-105014665D01*
X204305000Y-105297335D01*
X204360147Y-105574574D01*
X204468320Y-105835727D01*
X204625363Y-106070759D01*
X204825241Y-106270637D01*
X205060273Y-106427680D01*
X205321426Y-106535853D01*
X205598665Y-106591000D01*
X205881335Y-106591000D01*
X206158574Y-106535853D01*
X206419727Y-106427680D01*
X206654759Y-106270637D01*
X206854637Y-106070759D01*
X207011680Y-105835727D01*
X207119853Y-105574574D01*
X207175000Y-105297335D01*
X207175000Y-105014665D01*
X207119853Y-104737426D01*
X207011680Y-104476273D01*
X206854637Y-104241241D01*
X206654759Y-104041363D01*
X206500000Y-103937957D01*
X206500000Y-92740923D01*
X206503676Y-92703600D01*
X206500000Y-92666277D01*
X206500000Y-92666267D01*
X206489003Y-92554614D01*
X206445546Y-92411353D01*
X206374974Y-92279324D01*
X206280001Y-92163599D01*
X206251004Y-92139802D01*
X203237699Y-89126497D01*
X203260637Y-89103559D01*
X203417680Y-88868527D01*
X203426246Y-88847847D01*
X207520001Y-92941603D01*
X207520001Y-93557928D01*
X207480000Y-93557928D01*
X207355518Y-93570188D01*
X207235820Y-93606498D01*
X207125506Y-93665463D01*
X207028815Y-93744815D01*
X206949463Y-93841506D01*
X206890498Y-93951820D01*
X206854188Y-94071518D01*
X206841928Y-94196000D01*
X206841928Y-95796000D01*
X206854188Y-95920482D01*
X206890498Y-96040180D01*
X206949463Y-96150494D01*
X207028815Y-96247185D01*
X207125506Y-96326537D01*
X207235820Y-96385502D01*
X207355518Y-96421812D01*
X207480000Y-96434072D01*
X207520001Y-96434072D01*
X207520000Y-98913377D01*
X207516324Y-98950700D01*
X207520000Y-98988022D01*
X207520000Y-98988032D01*
X207530997Y-99099685D01*
X207548880Y-99158637D01*
X207574454Y-99242946D01*
X207645026Y-99374976D01*
X207671889Y-99407708D01*
X207739999Y-99490701D01*
X207769003Y-99514504D01*
X212370551Y-104116053D01*
X212245363Y-104241241D01*
X212088320Y-104476273D01*
X211980147Y-104737426D01*
X211925000Y-105014665D01*
X211925000Y-105297335D01*
X211980147Y-105574574D01*
X212088320Y-105835727D01*
X212245363Y-106070759D01*
X212445241Y-106270637D01*
X212680273Y-106427680D01*
X212941426Y-106535853D01*
X213218665Y-106591000D01*
X213501335Y-106591000D01*
X213778574Y-106535853D01*
X214039727Y-106427680D01*
X214274759Y-106270637D01*
X214474637Y-106070759D01*
X214631680Y-105835727D01*
X214739853Y-105574574D01*
X214795000Y-105297335D01*
X214795000Y-105014665D01*
X214739853Y-104737426D01*
X214631680Y-104476273D01*
X214474637Y-104241241D01*
X214274759Y-104041363D01*
X214114158Y-103934053D01*
X214109003Y-103881714D01*
X214065546Y-103738453D01*
X214054575Y-103717928D01*
X213994974Y-103606423D01*
X213923799Y-103519697D01*
X213900001Y-103490699D01*
X213871003Y-103466901D01*
X209040000Y-98635899D01*
X209040000Y-96434072D01*
X209080000Y-96434072D01*
X209204482Y-96421812D01*
X209324180Y-96385502D01*
X209434494Y-96326537D01*
X209531185Y-96247185D01*
X209610537Y-96150494D01*
X209669502Y-96040180D01*
X209685117Y-95988702D01*
X210966903Y-95988702D01*
X211038486Y-96232671D01*
X211293996Y-96353571D01*
X211568184Y-96422300D01*
X211850512Y-96436217D01*
X212130130Y-96394787D01*
X212396292Y-96299603D01*
X212521514Y-96232671D01*
X212593097Y-95988702D01*
X211780000Y-95175605D01*
X210966903Y-95988702D01*
X209685117Y-95988702D01*
X209705812Y-95920482D01*
X209718072Y-95796000D01*
X209718072Y-95066512D01*
X210339783Y-95066512D01*
X210381213Y-95346130D01*
X210476397Y-95612292D01*
X210543329Y-95737514D01*
X210787298Y-95809097D01*
X211600395Y-94996000D01*
X211959605Y-94996000D01*
X212772702Y-95809097D01*
X213016671Y-95737514D01*
X213137571Y-95482004D01*
X213206300Y-95207816D01*
X213220217Y-94925488D01*
X213178787Y-94645870D01*
X213083603Y-94379708D01*
X213016671Y-94254486D01*
X212772702Y-94182903D01*
X211959605Y-94996000D01*
X211600395Y-94996000D01*
X210787298Y-94182903D01*
X210543329Y-94254486D01*
X210422429Y-94509996D01*
X210353700Y-94784184D01*
X210339783Y-95066512D01*
X209718072Y-95066512D01*
X209718072Y-94196000D01*
X209705812Y-94071518D01*
X209685118Y-94003298D01*
X210966903Y-94003298D01*
X211780000Y-94816395D01*
X212593097Y-94003298D01*
X212521514Y-93759329D01*
X212266004Y-93638429D01*
X211991816Y-93569700D01*
X211709488Y-93555783D01*
X211429870Y-93597213D01*
X211163708Y-93692397D01*
X211038486Y-93759329D01*
X210966903Y-94003298D01*
X209685118Y-94003298D01*
X209669502Y-93951820D01*
X209610537Y-93841506D01*
X209531185Y-93744815D01*
X209434494Y-93665463D01*
X209324180Y-93606498D01*
X209204482Y-93570188D01*
X209080000Y-93557928D01*
X209040000Y-93557928D01*
X209040000Y-92664125D01*
X209043676Y-92626800D01*
X209040000Y-92589475D01*
X209040000Y-92589467D01*
X209029003Y-92477814D01*
X208985546Y-92334553D01*
X208914974Y-92202524D01*
X208820001Y-92086799D01*
X208791003Y-92063001D01*
X203782969Y-87054967D01*
X205121000Y-87054967D01*
X205121000Y-87377033D01*
X205183832Y-87692912D01*
X205307082Y-87990463D01*
X205486013Y-88258252D01*
X205713748Y-88485987D01*
X205981537Y-88664918D01*
X206279088Y-88788168D01*
X206594967Y-88851000D01*
X206917033Y-88851000D01*
X207232912Y-88788168D01*
X207530463Y-88664918D01*
X207798252Y-88485987D01*
X208025987Y-88258252D01*
X208204918Y-87990463D01*
X208328168Y-87692912D01*
X208391000Y-87377033D01*
X208391000Y-87214967D01*
X211217000Y-87214967D01*
X211217000Y-87537033D01*
X211279832Y-87852912D01*
X211403082Y-88150463D01*
X211582013Y-88418252D01*
X211809748Y-88645987D01*
X212077537Y-88824918D01*
X212375088Y-88948168D01*
X212690967Y-89011000D01*
X213013033Y-89011000D01*
X213328912Y-88948168D01*
X213626463Y-88824918D01*
X213894252Y-88645987D01*
X214121987Y-88418252D01*
X214300918Y-88150463D01*
X214424168Y-87852912D01*
X214487000Y-87537033D01*
X214487000Y-87214967D01*
X214424168Y-86899088D01*
X214300918Y-86601537D01*
X214121987Y-86333748D01*
X213894252Y-86106013D01*
X213626463Y-85927082D01*
X213328912Y-85803832D01*
X213013033Y-85741000D01*
X212690967Y-85741000D01*
X212375088Y-85803832D01*
X212077537Y-85927082D01*
X211809748Y-86106013D01*
X211582013Y-86333748D01*
X211403082Y-86601537D01*
X211279832Y-86899088D01*
X211217000Y-87214967D01*
X208391000Y-87214967D01*
X208391000Y-87054967D01*
X208328168Y-86739088D01*
X208204918Y-86441537D01*
X208025987Y-86173748D01*
X207798252Y-85946013D01*
X207530463Y-85767082D01*
X207232912Y-85643832D01*
X206917033Y-85581000D01*
X206594967Y-85581000D01*
X206279088Y-85643832D01*
X205981537Y-85767082D01*
X205713748Y-85946013D01*
X205486013Y-86173748D01*
X205307082Y-86441537D01*
X205183832Y-86739088D01*
X205121000Y-87054967D01*
X203782969Y-87054967D01*
X203273023Y-86545022D01*
X203417680Y-86328527D01*
X203525853Y-86067374D01*
X203581000Y-85790135D01*
X203581000Y-85507465D01*
X203525853Y-85230226D01*
X203417680Y-84969073D01*
X203260637Y-84734041D01*
X203060759Y-84534163D01*
X202828241Y-84378800D01*
X203060759Y-84223437D01*
X203260637Y-84023559D01*
X203417680Y-83788527D01*
X203525853Y-83527374D01*
X203581000Y-83250135D01*
X203581000Y-82967465D01*
X203525853Y-82690226D01*
X203417680Y-82429073D01*
X203260637Y-82194041D01*
X203060759Y-81994163D01*
X202825727Y-81837120D01*
X202815135Y-81832733D01*
X203001131Y-81721185D01*
X203209519Y-81532214D01*
X203377037Y-81306220D01*
X203497246Y-81051887D01*
X203537904Y-80917839D01*
X203415915Y-80695800D01*
X202273000Y-80695800D01*
X202273000Y-80715800D01*
X202019000Y-80715800D01*
X202019000Y-80695800D01*
X200876085Y-80695800D01*
X200754096Y-80917839D01*
X200794754Y-81051887D01*
X200914963Y-81306220D01*
X201082481Y-81532214D01*
X201290869Y-81721185D01*
X201476865Y-81832733D01*
X201466273Y-81837120D01*
X201231241Y-81994163D01*
X201031363Y-82194041D01*
X200874320Y-82429073D01*
X200766147Y-82690226D01*
X200711000Y-82967465D01*
X200711000Y-83250135D01*
X200766147Y-83527374D01*
X200874320Y-83788527D01*
X201031363Y-84023559D01*
X201231241Y-84223437D01*
X201463759Y-84378800D01*
X201231241Y-84534163D01*
X201031363Y-84734041D01*
X200874320Y-84969073D01*
X200766147Y-85230226D01*
X200711000Y-85507465D01*
X200711000Y-85790135D01*
X200766147Y-86067374D01*
X200874320Y-86328527D01*
X201031363Y-86563559D01*
X201231241Y-86763437D01*
X201391842Y-86870747D01*
X201396997Y-86923086D01*
X201407167Y-86956613D01*
X201231241Y-87074163D01*
X201106053Y-87199351D01*
X197774504Y-83867803D01*
X197750701Y-83838799D01*
X197634976Y-83743826D01*
X197502947Y-83673254D01*
X197359686Y-83629797D01*
X197248033Y-83618800D01*
X197248022Y-83618800D01*
X197210700Y-83615124D01*
X197173378Y-83618800D01*
X195864526Y-83618800D01*
X195877246Y-83591887D01*
X195917904Y-83457839D01*
X195795915Y-83235800D01*
X194653000Y-83235800D01*
X194653000Y-83255800D01*
X194399000Y-83255800D01*
X194399000Y-83235800D01*
X193256085Y-83235800D01*
X193134096Y-83457839D01*
X193174754Y-83591887D01*
X193187474Y-83618800D01*
X191576802Y-83618800D01*
X191131520Y-83173519D01*
X191263680Y-82975727D01*
X191371853Y-82714574D01*
X191427000Y-82437335D01*
X191427000Y-82154665D01*
X191371853Y-81877426D01*
X191263680Y-81616273D01*
X191106637Y-81381241D01*
X190906759Y-81181363D01*
X190746158Y-81074053D01*
X190745688Y-81069276D01*
X190741003Y-81021714D01*
X190728252Y-80979680D01*
X190847131Y-80908385D01*
X191055519Y-80719414D01*
X191223037Y-80493420D01*
X191343246Y-80239087D01*
X191383904Y-80105039D01*
X191261915Y-79883000D01*
X190119000Y-79883000D01*
X190119000Y-79903000D01*
X189865000Y-79903000D01*
X189865000Y-79883000D01*
X189845000Y-79883000D01*
X189845000Y-79629000D01*
X189865000Y-79629000D01*
X189865000Y-78485376D01*
X190119000Y-78485376D01*
X190119000Y-79629000D01*
X191261915Y-79629000D01*
X191383904Y-79406961D01*
X191343246Y-79272913D01*
X191223037Y-79018580D01*
X191055519Y-78792586D01*
X190847131Y-78603615D01*
X190605881Y-78458930D01*
X190341040Y-78364091D01*
X190119000Y-78485376D01*
X189865000Y-78485376D01*
X189642960Y-78364091D01*
X189378119Y-78458930D01*
X189136869Y-78603615D01*
X188928481Y-78792586D01*
X188760963Y-79018580D01*
X188744665Y-79053063D01*
X181064900Y-71373299D01*
X181064900Y-69534727D01*
X181336740Y-69588800D01*
X181629260Y-69588800D01*
X181916158Y-69531732D01*
X182186411Y-69419790D01*
X182429632Y-69257275D01*
X182636475Y-69050432D01*
X182753000Y-68876040D01*
X182869525Y-69050432D01*
X183076368Y-69257275D01*
X183319589Y-69419790D01*
X183589842Y-69531732D01*
X183876740Y-69588800D01*
X184169260Y-69588800D01*
X184438300Y-69535284D01*
X184438300Y-70359777D01*
X184434624Y-70397100D01*
X184438300Y-70434422D01*
X184438300Y-70434432D01*
X184449297Y-70546085D01*
X184478999Y-70644001D01*
X184492754Y-70689346D01*
X184563326Y-70821376D01*
X184589282Y-70853003D01*
X184658299Y-70937101D01*
X184687303Y-70960904D01*
X193398977Y-79672579D01*
X193254320Y-79889073D01*
X193146147Y-80150226D01*
X193091000Y-80427465D01*
X193091000Y-80710135D01*
X193146147Y-80987374D01*
X193254320Y-81248527D01*
X193411363Y-81483559D01*
X193611241Y-81683437D01*
X193846273Y-81840480D01*
X193856865Y-81844867D01*
X193670869Y-81956415D01*
X193462481Y-82145386D01*
X193294963Y-82371380D01*
X193174754Y-82625713D01*
X193134096Y-82759761D01*
X193256085Y-82981800D01*
X194399000Y-82981800D01*
X194399000Y-82961800D01*
X194653000Y-82961800D01*
X194653000Y-82981800D01*
X195795915Y-82981800D01*
X195917904Y-82759761D01*
X195877246Y-82625713D01*
X195757037Y-82371380D01*
X195589519Y-82145386D01*
X195381131Y-81956415D01*
X195195135Y-81844867D01*
X195205727Y-81840480D01*
X195440759Y-81683437D01*
X195640637Y-81483559D01*
X195797680Y-81248527D01*
X195905853Y-80987374D01*
X195961000Y-80710135D01*
X195961000Y-80427465D01*
X195905853Y-80150226D01*
X195797680Y-79889073D01*
X195640637Y-79654041D01*
X195440759Y-79454163D01*
X195280158Y-79346853D01*
X195279695Y-79342147D01*
X195275003Y-79294514D01*
X195264833Y-79260987D01*
X195440759Y-79143437D01*
X195640637Y-78943559D01*
X195797680Y-78708527D01*
X195905853Y-78447374D01*
X195961000Y-78170135D01*
X195961000Y-77887465D01*
X195905853Y-77610226D01*
X195797680Y-77349073D01*
X195640637Y-77114041D01*
X195440759Y-76914163D01*
X195208241Y-76758800D01*
X195440759Y-76603437D01*
X195640637Y-76403559D01*
X195797680Y-76168527D01*
X195905853Y-75907374D01*
X195961000Y-75630135D01*
X195961000Y-75347465D01*
X195905853Y-75070226D01*
X195797680Y-74809073D01*
X195640637Y-74574041D01*
X195440759Y-74374163D01*
X195208241Y-74218800D01*
X195440759Y-74063437D01*
X195640637Y-73863559D01*
X195797680Y-73628527D01*
X195905853Y-73367374D01*
X195961000Y-73090135D01*
X195961000Y-72807465D01*
X195905853Y-72530226D01*
X195797680Y-72269073D01*
X195640637Y-72034041D01*
X195440759Y-71834163D01*
X195208241Y-71678800D01*
X195440759Y-71523437D01*
X195640637Y-71323559D01*
X195797680Y-71088527D01*
X195905853Y-70827374D01*
X195961000Y-70550135D01*
X195961000Y-70267465D01*
X195905853Y-69990226D01*
X195797680Y-69729073D01*
X195640637Y-69494041D01*
X195440759Y-69294163D01*
X195208241Y-69138800D01*
X195440759Y-68983437D01*
X195640637Y-68783559D01*
X195797680Y-68548527D01*
X195905853Y-68287374D01*
X195961000Y-68010135D01*
X195961000Y-67727465D01*
X195905853Y-67450226D01*
X195797680Y-67189073D01*
X195640637Y-66954041D01*
X195442039Y-66755443D01*
X195450482Y-66754612D01*
X195570180Y-66718302D01*
X195680494Y-66659337D01*
X195777185Y-66579985D01*
X195856537Y-66483294D01*
X195915502Y-66372980D01*
X195951812Y-66253282D01*
X195964072Y-66128800D01*
X195964072Y-65187465D01*
X200711000Y-65187465D01*
X200711000Y-65470135D01*
X200766147Y-65747374D01*
X200874320Y-66008527D01*
X201031363Y-66243559D01*
X201231241Y-66443437D01*
X201463759Y-66598800D01*
X201231241Y-66754163D01*
X201031363Y-66954041D01*
X200874320Y-67189073D01*
X200766147Y-67450226D01*
X200711000Y-67727465D01*
X200711000Y-68010135D01*
X200766147Y-68287374D01*
X200874320Y-68548527D01*
X201031363Y-68783559D01*
X201231241Y-68983437D01*
X201463759Y-69138800D01*
X201231241Y-69294163D01*
X201031363Y-69494041D01*
X200874320Y-69729073D01*
X200766147Y-69990226D01*
X200711000Y-70267465D01*
X200711000Y-70550135D01*
X200766147Y-70827374D01*
X200874320Y-71088527D01*
X201031363Y-71323559D01*
X201231241Y-71523437D01*
X201463759Y-71678800D01*
X201231241Y-71834163D01*
X201031363Y-72034041D01*
X200874320Y-72269073D01*
X200766147Y-72530226D01*
X200711000Y-72807465D01*
X200711000Y-73090135D01*
X200766147Y-73367374D01*
X200874320Y-73628527D01*
X201031363Y-73863559D01*
X201231241Y-74063437D01*
X201463759Y-74218800D01*
X201231241Y-74374163D01*
X201031363Y-74574041D01*
X200874320Y-74809073D01*
X200766147Y-75070226D01*
X200711000Y-75347465D01*
X200711000Y-75630135D01*
X200766147Y-75907374D01*
X200874320Y-76168527D01*
X201031363Y-76403559D01*
X201231241Y-76603437D01*
X201463759Y-76758800D01*
X201231241Y-76914163D01*
X201031363Y-77114041D01*
X200874320Y-77349073D01*
X200766147Y-77610226D01*
X200711000Y-77887465D01*
X200711000Y-78170135D01*
X200766147Y-78447374D01*
X200874320Y-78708527D01*
X201031363Y-78943559D01*
X201231241Y-79143437D01*
X201466273Y-79300480D01*
X201476865Y-79304867D01*
X201290869Y-79416415D01*
X201082481Y-79605386D01*
X200914963Y-79831380D01*
X200794754Y-80085713D01*
X200754096Y-80219761D01*
X200876085Y-80441800D01*
X202019000Y-80441800D01*
X202019000Y-80421800D01*
X202273000Y-80421800D01*
X202273000Y-80441800D01*
X203415915Y-80441800D01*
X203537904Y-80219761D01*
X203497246Y-80085713D01*
X203377037Y-79831380D01*
X203209519Y-79605386D01*
X203001131Y-79416415D01*
X202815135Y-79304867D01*
X202825727Y-79300480D01*
X203060759Y-79143437D01*
X203260637Y-78943559D01*
X203417680Y-78708527D01*
X203525853Y-78447374D01*
X203544941Y-78351413D01*
X205800192Y-78351413D01*
X205895956Y-78615814D01*
X206185571Y-78756704D01*
X206497108Y-78838384D01*
X206818595Y-78857718D01*
X207137675Y-78813961D01*
X207442088Y-78708795D01*
X207616044Y-78615814D01*
X207653857Y-78511413D01*
X211896192Y-78511413D01*
X211991956Y-78775814D01*
X212281571Y-78916704D01*
X212593108Y-78998384D01*
X212914595Y-79017718D01*
X213233675Y-78973961D01*
X213538088Y-78868795D01*
X213712044Y-78775814D01*
X213807808Y-78511413D01*
X212852000Y-77555605D01*
X211896192Y-78511413D01*
X207653857Y-78511413D01*
X207711808Y-78351413D01*
X206756000Y-77395605D01*
X205800192Y-78351413D01*
X203544941Y-78351413D01*
X203581000Y-78170135D01*
X203581000Y-77887465D01*
X203525853Y-77610226D01*
X203417680Y-77349073D01*
X203370589Y-77278595D01*
X205114282Y-77278595D01*
X205158039Y-77597675D01*
X205263205Y-77902088D01*
X205356186Y-78076044D01*
X205620587Y-78171808D01*
X206576395Y-77216000D01*
X206935605Y-77216000D01*
X207891413Y-78171808D01*
X208155814Y-78076044D01*
X208296704Y-77786429D01*
X208378384Y-77474892D01*
X208380566Y-77438595D01*
X211210282Y-77438595D01*
X211254039Y-77757675D01*
X211359205Y-78062088D01*
X211452186Y-78236044D01*
X211716587Y-78331808D01*
X212672395Y-77376000D01*
X213031605Y-77376000D01*
X213987413Y-78331808D01*
X214251814Y-78236044D01*
X214392704Y-77946429D01*
X214474384Y-77634892D01*
X214493718Y-77313405D01*
X214449961Y-76994325D01*
X214344795Y-76689912D01*
X214251814Y-76515956D01*
X213987413Y-76420192D01*
X213031605Y-77376000D01*
X212672395Y-77376000D01*
X211716587Y-76420192D01*
X211452186Y-76515956D01*
X211311296Y-76805571D01*
X211229616Y-77117108D01*
X211210282Y-77438595D01*
X208380566Y-77438595D01*
X208397718Y-77153405D01*
X208353961Y-76834325D01*
X208248795Y-76529912D01*
X208155814Y-76355956D01*
X207891413Y-76260192D01*
X206935605Y-77216000D01*
X206576395Y-77216000D01*
X205620587Y-76260192D01*
X205356186Y-76355956D01*
X205215296Y-76645571D01*
X205133616Y-76957108D01*
X205114282Y-77278595D01*
X203370589Y-77278595D01*
X203260637Y-77114041D01*
X203060759Y-76914163D01*
X202828241Y-76758800D01*
X203060759Y-76603437D01*
X203260637Y-76403559D01*
X203417680Y-76168527D01*
X203454105Y-76080587D01*
X205800192Y-76080587D01*
X206756000Y-77036395D01*
X207551808Y-76240587D01*
X211896192Y-76240587D01*
X212852000Y-77196395D01*
X213807808Y-76240587D01*
X213712044Y-75976186D01*
X213422429Y-75835296D01*
X213110892Y-75753616D01*
X212789405Y-75734282D01*
X212470325Y-75778039D01*
X212165912Y-75883205D01*
X211991956Y-75976186D01*
X211896192Y-76240587D01*
X207551808Y-76240587D01*
X207711808Y-76080587D01*
X207616044Y-75816186D01*
X207326429Y-75675296D01*
X207014892Y-75593616D01*
X206693405Y-75574282D01*
X206374325Y-75618039D01*
X206069912Y-75723205D01*
X205895956Y-75816186D01*
X205800192Y-76080587D01*
X203454105Y-76080587D01*
X203525853Y-75907374D01*
X203581000Y-75630135D01*
X203581000Y-75347465D01*
X203525853Y-75070226D01*
X203417680Y-74809073D01*
X203260637Y-74574041D01*
X203060759Y-74374163D01*
X202828241Y-74218800D01*
X203060759Y-74063437D01*
X203260637Y-73863559D01*
X203417680Y-73628527D01*
X203525853Y-73367374D01*
X203581000Y-73090135D01*
X203581000Y-72807465D01*
X203572385Y-72764155D01*
X206815450Y-72764155D01*
X207211634Y-73284550D01*
X207926612Y-73674748D01*
X208703976Y-73917964D01*
X209513853Y-74004851D01*
X210325118Y-73932069D01*
X211106597Y-73702415D01*
X211828256Y-73324715D01*
X211888366Y-73284550D01*
X212284550Y-72764155D01*
X209550000Y-70029605D01*
X206815450Y-72764155D01*
X203572385Y-72764155D01*
X203525853Y-72530226D01*
X203417680Y-72269073D01*
X203260637Y-72034041D01*
X203060759Y-71834163D01*
X202828241Y-71678800D01*
X203060759Y-71523437D01*
X203260637Y-71323559D01*
X203417680Y-71088527D01*
X203525853Y-70827374D01*
X203581000Y-70550135D01*
X203581000Y-70267465D01*
X203525853Y-69990226D01*
X203452797Y-69813853D01*
X205395149Y-69813853D01*
X205467931Y-70625118D01*
X205697585Y-71406597D01*
X206075285Y-72128256D01*
X206115450Y-72188366D01*
X206635845Y-72584550D01*
X209370395Y-69850000D01*
X209729605Y-69850000D01*
X212464155Y-72584550D01*
X212984550Y-72188366D01*
X213374748Y-71473388D01*
X213617964Y-70696024D01*
X213704851Y-69886147D01*
X213632069Y-69074882D01*
X213402415Y-68293403D01*
X213024715Y-67571744D01*
X212984550Y-67511634D01*
X212464155Y-67115450D01*
X209729605Y-69850000D01*
X209370395Y-69850000D01*
X206635845Y-67115450D01*
X206115450Y-67511634D01*
X205725252Y-68226612D01*
X205482036Y-69003976D01*
X205395149Y-69813853D01*
X203452797Y-69813853D01*
X203417680Y-69729073D01*
X203260637Y-69494041D01*
X203060759Y-69294163D01*
X202828241Y-69138800D01*
X203060759Y-68983437D01*
X203260637Y-68783559D01*
X203417680Y-68548527D01*
X203525853Y-68287374D01*
X203581000Y-68010135D01*
X203581000Y-67727465D01*
X203525853Y-67450226D01*
X203417680Y-67189073D01*
X203260637Y-66954041D01*
X203242441Y-66935845D01*
X206815450Y-66935845D01*
X209550000Y-69670395D01*
X212284550Y-66935845D01*
X211888366Y-66415450D01*
X211173388Y-66025252D01*
X210396024Y-65782036D01*
X209586147Y-65695149D01*
X208774882Y-65767931D01*
X207993403Y-65997585D01*
X207271744Y-66375285D01*
X207211634Y-66415450D01*
X206815450Y-66935845D01*
X203242441Y-66935845D01*
X203060759Y-66754163D01*
X202828241Y-66598800D01*
X203060759Y-66443437D01*
X203260637Y-66243559D01*
X203417680Y-66008527D01*
X203525853Y-65747374D01*
X203581000Y-65470135D01*
X203581000Y-65187465D01*
X203525853Y-64910226D01*
X203417680Y-64649073D01*
X203260637Y-64414041D01*
X203060759Y-64214163D01*
X202825727Y-64057120D01*
X202564574Y-63948947D01*
X202287335Y-63893800D01*
X202004665Y-63893800D01*
X201727426Y-63948947D01*
X201466273Y-64057120D01*
X201231241Y-64214163D01*
X201031363Y-64414041D01*
X200874320Y-64649073D01*
X200766147Y-64910226D01*
X200711000Y-65187465D01*
X195964072Y-65187465D01*
X195964072Y-64528800D01*
X195951812Y-64404318D01*
X195915502Y-64284620D01*
X195856537Y-64174306D01*
X195777185Y-64077615D01*
X195680494Y-63998263D01*
X195570180Y-63939298D01*
X195450482Y-63902988D01*
X195326000Y-63890728D01*
X193726000Y-63890728D01*
X193601518Y-63902988D01*
X193481820Y-63939298D01*
X193371506Y-63998263D01*
X193274815Y-64077615D01*
X193195463Y-64174306D01*
X193136498Y-64284620D01*
X193100188Y-64404318D01*
X193087928Y-64528800D01*
X193087928Y-66128800D01*
X193100188Y-66253282D01*
X193136498Y-66372980D01*
X193195463Y-66483294D01*
X193274815Y-66579985D01*
X193371506Y-66659337D01*
X193481820Y-66718302D01*
X193601518Y-66754612D01*
X193609961Y-66755443D01*
X193411363Y-66954041D01*
X193254320Y-67189073D01*
X193146147Y-67450226D01*
X193091000Y-67727465D01*
X193091000Y-68010135D01*
X193146147Y-68287374D01*
X193254320Y-68548527D01*
X193411363Y-68783559D01*
X193611241Y-68983437D01*
X193843759Y-69138800D01*
X193611241Y-69294163D01*
X193411363Y-69494041D01*
X193254320Y-69729073D01*
X193146147Y-69990226D01*
X193091000Y-70267465D01*
X193091000Y-70550135D01*
X193146147Y-70827374D01*
X193254320Y-71088527D01*
X193411363Y-71323559D01*
X193611241Y-71523437D01*
X193843759Y-71678800D01*
X193611241Y-71834163D01*
X193411363Y-72034041D01*
X193254320Y-72269073D01*
X193146147Y-72530226D01*
X193091000Y-72807465D01*
X193091000Y-73090135D01*
X193146147Y-73367374D01*
X193254320Y-73628527D01*
X193411363Y-73863559D01*
X193611241Y-74063437D01*
X193843759Y-74218800D01*
X193611241Y-74374163D01*
X193411363Y-74574041D01*
X193254320Y-74809073D01*
X193146147Y-75070226D01*
X193091000Y-75347465D01*
X193091000Y-75630135D01*
X193146147Y-75907374D01*
X193254320Y-76168527D01*
X193411363Y-76403559D01*
X193611241Y-76603437D01*
X193843759Y-76758800D01*
X193611241Y-76914163D01*
X193411363Y-77114041D01*
X193254320Y-77349073D01*
X193245754Y-77369752D01*
X185958300Y-70082299D01*
X185958300Y-69452708D01*
X186058901Y-69500625D01*
X186206110Y-69545276D01*
X186436000Y-69423955D01*
X186436000Y-68230800D01*
X186416000Y-68230800D01*
X186416000Y-67976800D01*
X186436000Y-67976800D01*
X186436000Y-65690800D01*
X186416000Y-65690800D01*
X186416000Y-65436800D01*
X186436000Y-65436800D01*
X186436000Y-64243645D01*
X186690000Y-64243645D01*
X186690000Y-65436800D01*
X186710000Y-65436800D01*
X186710000Y-65690800D01*
X186690000Y-65690800D01*
X186690000Y-67976800D01*
X186710000Y-67976800D01*
X186710000Y-68230800D01*
X186690000Y-68230800D01*
X186690000Y-69423955D01*
X186919890Y-69545276D01*
X187067099Y-69500625D01*
X187329920Y-69375441D01*
X187563269Y-69201388D01*
X187639034Y-69117334D01*
X187663498Y-69197980D01*
X187722463Y-69308294D01*
X187801815Y-69404985D01*
X187898506Y-69484337D01*
X188008820Y-69543302D01*
X188128518Y-69579612D01*
X188253000Y-69591872D01*
X189953000Y-69591872D01*
X190077482Y-69579612D01*
X190197180Y-69543302D01*
X190307494Y-69484337D01*
X190404185Y-69404985D01*
X190483537Y-69308294D01*
X190542502Y-69197980D01*
X190578812Y-69078282D01*
X190591072Y-68953800D01*
X190591072Y-67253800D01*
X190578812Y-67129318D01*
X190542502Y-67009620D01*
X190483537Y-66899306D01*
X190404185Y-66802615D01*
X190307494Y-66723263D01*
X190197180Y-66664298D01*
X190124620Y-66642287D01*
X190256475Y-66510432D01*
X190418990Y-66267211D01*
X190530932Y-65996958D01*
X190588000Y-65710060D01*
X190588000Y-65417540D01*
X190530932Y-65130642D01*
X190418990Y-64860389D01*
X190256475Y-64617168D01*
X190049632Y-64410325D01*
X189806411Y-64247810D01*
X189536158Y-64135868D01*
X189249260Y-64078800D01*
X188956740Y-64078800D01*
X188669842Y-64135868D01*
X188399589Y-64247810D01*
X188156368Y-64410325D01*
X187949525Y-64617168D01*
X187827805Y-64799334D01*
X187758178Y-64682445D01*
X187563269Y-64466212D01*
X187329920Y-64292159D01*
X187067099Y-64166975D01*
X186919890Y-64122324D01*
X186690000Y-64243645D01*
X186436000Y-64243645D01*
X186206110Y-64122324D01*
X186058901Y-64166975D01*
X185796080Y-64292159D01*
X185562731Y-64466212D01*
X185367822Y-64682445D01*
X185298195Y-64799334D01*
X185176475Y-64617168D01*
X184969632Y-64410325D01*
X184726411Y-64247810D01*
X184456158Y-64135868D01*
X184169260Y-64078800D01*
X183876740Y-64078800D01*
X183589842Y-64135868D01*
X183319589Y-64247810D01*
X183076368Y-64410325D01*
X182869525Y-64617168D01*
X182753000Y-64791560D01*
X182636475Y-64617168D01*
X182429632Y-64410325D01*
X182186411Y-64247810D01*
X181916158Y-64135868D01*
X181629260Y-64078800D01*
X181336740Y-64078800D01*
X181049842Y-64135868D01*
X180779589Y-64247810D01*
X180536368Y-64410325D01*
X180329525Y-64617168D01*
X180213000Y-64791560D01*
X180096475Y-64617168D01*
X179889632Y-64410325D01*
X179646411Y-64247810D01*
X179376158Y-64135868D01*
X179089260Y-64078800D01*
X178796740Y-64078800D01*
X178509842Y-64135868D01*
X178239589Y-64247810D01*
X177996368Y-64410325D01*
X177789525Y-64617168D01*
X177673000Y-64791560D01*
X177556475Y-64617168D01*
X177349632Y-64410325D01*
X177106411Y-64247810D01*
X176836158Y-64135868D01*
X176549260Y-64078800D01*
X176256740Y-64078800D01*
X175969842Y-64135868D01*
X175699589Y-64247810D01*
X175456368Y-64410325D01*
X175451597Y-64415096D01*
X174800604Y-63764102D01*
X174776801Y-63735099D01*
X174661076Y-63640126D01*
X174529047Y-63569554D01*
X174385786Y-63526097D01*
X174274133Y-63515100D01*
X174274122Y-63515100D01*
X174236800Y-63511424D01*
X174199478Y-63515100D01*
X148283822Y-63515100D01*
X148246499Y-63511424D01*
X148209176Y-63515100D01*
X148209167Y-63515100D01*
X148097514Y-63526097D01*
X147974949Y-63563276D01*
X147954253Y-63569554D01*
X147822223Y-63640126D01*
X147788414Y-63667873D01*
X147706499Y-63735099D01*
X147682701Y-63764097D01*
X143203347Y-68243452D01*
X143149180Y-68214498D01*
X143029482Y-68178188D01*
X142905000Y-68165928D01*
X140305000Y-68165928D01*
X140180518Y-68178188D01*
X140060820Y-68214498D01*
X139950506Y-68273463D01*
X139853815Y-68352815D01*
X139774463Y-68449506D01*
X139715498Y-68559820D01*
X139679188Y-68679518D01*
X139666928Y-68804000D01*
X134010000Y-68804000D01*
X134010000Y-64997816D01*
X137811352Y-63781768D01*
X142105484Y-62571553D01*
X146439234Y-61511939D01*
X150807316Y-60604217D01*
X155204445Y-59849487D01*
X159625221Y-59248677D01*
X164064238Y-58802520D01*
X168516165Y-58511550D01*
X172975530Y-58376127D01*
X177436893Y-58396418D01*
G36*
X164801519Y-65206909D02*
G01*
X164922186Y-65436800D01*
X166116000Y-65436800D01*
X166116000Y-65416800D01*
X166370000Y-65416800D01*
X166370000Y-65436800D01*
X168656000Y-65436800D01*
X168656000Y-65416800D01*
X168910000Y-65416800D01*
X168910000Y-65436800D01*
X171196000Y-65436800D01*
X171196000Y-65416800D01*
X171450000Y-65416800D01*
X171450000Y-65436800D01*
X173736000Y-65436800D01*
X173736000Y-65416800D01*
X173990000Y-65416800D01*
X173990000Y-65436800D01*
X174010000Y-65436800D01*
X174010000Y-65690800D01*
X173990000Y-65690800D01*
X173990000Y-65710800D01*
X173736000Y-65710800D01*
X173736000Y-65690800D01*
X171450000Y-65690800D01*
X171450000Y-65710800D01*
X171196000Y-65710800D01*
X171196000Y-65690800D01*
X168910000Y-65690800D01*
X168910000Y-65710800D01*
X168656000Y-65710800D01*
X168656000Y-65690800D01*
X166370000Y-65690800D01*
X166370000Y-65710800D01*
X166116000Y-65710800D01*
X166116000Y-65690800D01*
X164922186Y-65690800D01*
X164801519Y-65920691D01*
X164898843Y-66195052D01*
X165047822Y-66445155D01*
X165242731Y-66661388D01*
X165472406Y-66832700D01*
X165296368Y-66950325D01*
X165089525Y-67157168D01*
X164927010Y-67400389D01*
X164815068Y-67670642D01*
X164758000Y-67957540D01*
X164758000Y-68250060D01*
X164815068Y-68536958D01*
X164927010Y-68807211D01*
X165089525Y-69050432D01*
X165296368Y-69257275D01*
X165539589Y-69419790D01*
X165809842Y-69531732D01*
X166096740Y-69588800D01*
X166389260Y-69588800D01*
X166676158Y-69531732D01*
X166946411Y-69419790D01*
X167189632Y-69257275D01*
X167396475Y-69050432D01*
X167513000Y-68876040D01*
X167629525Y-69050432D01*
X167836368Y-69257275D01*
X168079589Y-69419790D01*
X168349842Y-69531732D01*
X168636740Y-69588800D01*
X168929260Y-69588800D01*
X169216158Y-69531732D01*
X169486411Y-69419790D01*
X169729632Y-69257275D01*
X169936475Y-69050432D01*
X170053000Y-68876040D01*
X170169525Y-69050432D01*
X170376368Y-69257275D01*
X170563000Y-69381978D01*
X170563000Y-77669393D01*
X170485097Y-77747296D01*
X170413514Y-77503329D01*
X170158004Y-77382429D01*
X169883816Y-77313700D01*
X169601488Y-77299783D01*
X169321870Y-77341213D01*
X169055708Y-77436397D01*
X168930486Y-77503329D01*
X168858903Y-77747298D01*
X169672000Y-78560395D01*
X169686143Y-78546253D01*
X169865748Y-78725858D01*
X169851605Y-78740000D01*
X169865748Y-78754143D01*
X169686143Y-78933748D01*
X169672000Y-78919605D01*
X168858903Y-79732702D01*
X168930486Y-79976671D01*
X169185996Y-80097571D01*
X169460184Y-80166300D01*
X169742512Y-80180217D01*
X170022130Y-80138787D01*
X170288292Y-80043603D01*
X170413514Y-79976671D01*
X170485097Y-79732704D01*
X170563000Y-79810607D01*
X170563001Y-83097928D01*
X168572000Y-83097928D01*
X168447518Y-83110188D01*
X168327820Y-83146498D01*
X168217506Y-83205463D01*
X168120815Y-83284815D01*
X168041463Y-83381506D01*
X167982498Y-83491820D01*
X167946188Y-83611518D01*
X167933928Y-83736000D01*
X167933928Y-85936000D01*
X167946188Y-86060482D01*
X167982498Y-86180180D01*
X168041463Y-86290494D01*
X168120815Y-86387185D01*
X168217506Y-86466537D01*
X168327820Y-86525502D01*
X168447518Y-86561812D01*
X168572000Y-86574072D01*
X168912000Y-86574072D01*
X168912001Y-89701928D01*
X168572000Y-89701928D01*
X168447518Y-89714188D01*
X168327820Y-89750498D01*
X168217506Y-89809463D01*
X168120815Y-89888815D01*
X168041463Y-89985506D01*
X167982498Y-90095820D01*
X167946188Y-90215518D01*
X167933928Y-90340000D01*
X167933928Y-92540000D01*
X167946188Y-92664482D01*
X167982498Y-92784180D01*
X168041463Y-92894494D01*
X168120815Y-92991185D01*
X168217506Y-93070537D01*
X168327820Y-93129502D01*
X168447518Y-93165812D01*
X168572000Y-93178072D01*
X170772000Y-93178072D01*
X170840522Y-93171323D01*
X172570200Y-94901002D01*
X172570200Y-94963139D01*
X172609974Y-95163098D01*
X172687995Y-95351456D01*
X172801263Y-95520974D01*
X172945426Y-95665137D01*
X173091295Y-95762603D01*
X172707002Y-96146896D01*
X172677999Y-96170699D01*
X172627140Y-96232671D01*
X172583026Y-96286424D01*
X172573821Y-96303646D01*
X172512454Y-96418454D01*
X172468997Y-96561715D01*
X172459536Y-96657774D01*
X172214335Y-96609000D01*
X171931665Y-96609000D01*
X171654426Y-96664147D01*
X171393273Y-96772320D01*
X171158241Y-96929363D01*
X170958363Y-97129241D01*
X170871628Y-97259049D01*
X170775702Y-97230903D01*
X169962605Y-98044000D01*
X169976748Y-98058143D01*
X169797143Y-98237748D01*
X169783000Y-98223605D01*
X168969903Y-99036702D01*
X169041486Y-99280671D01*
X169296996Y-99401571D01*
X169571184Y-99470300D01*
X169601748Y-99471807D01*
X169570429Y-99537996D01*
X169501700Y-99812184D01*
X169487783Y-100094512D01*
X169529213Y-100374130D01*
X169601742Y-100576941D01*
X169364426Y-100624147D01*
X169103273Y-100732320D01*
X168868241Y-100889363D01*
X168668363Y-101089241D01*
X168511320Y-101324273D01*
X168403147Y-101585426D01*
X168348000Y-101862665D01*
X168348000Y-102145335D01*
X168403147Y-102422574D01*
X168511320Y-102683727D01*
X168668363Y-102918759D01*
X168868241Y-103118637D01*
X169023000Y-103222044D01*
X169023000Y-103856198D01*
X167551186Y-105328012D01*
X167543623Y-105325718D01*
X167447490Y-105306596D01*
X167323009Y-105294336D01*
X167298450Y-105294336D01*
X167274000Y-105291928D01*
X166774000Y-105291928D01*
X166649518Y-105304188D01*
X166624000Y-105311929D01*
X166598482Y-105304188D01*
X166474000Y-105291928D01*
X165974000Y-105291928D01*
X165949550Y-105294336D01*
X165924991Y-105294336D01*
X165800510Y-105306596D01*
X165704377Y-105325718D01*
X165696814Y-105328012D01*
X162454483Y-102085681D01*
X162896601Y-101997739D01*
X163376141Y-101799107D01*
X163807715Y-101510738D01*
X164174738Y-101143715D01*
X164463107Y-100712141D01*
X164661739Y-100232601D01*
X164763000Y-99723525D01*
X164763000Y-99204475D01*
X164661739Y-98695399D01*
X164463107Y-98215859D01*
X164395389Y-98114512D01*
X168342783Y-98114512D01*
X168384213Y-98394130D01*
X168479397Y-98660292D01*
X168546329Y-98785514D01*
X168790298Y-98857097D01*
X169603395Y-98044000D01*
X168790298Y-97230903D01*
X168546329Y-97302486D01*
X168425429Y-97557996D01*
X168356700Y-97832184D01*
X168342783Y-98114512D01*
X164395389Y-98114512D01*
X164174738Y-97784285D01*
X163807715Y-97417262D01*
X163376141Y-97128893D01*
X163188811Y-97051298D01*
X168969903Y-97051298D01*
X169783000Y-97864395D01*
X170596097Y-97051298D01*
X170524514Y-96807329D01*
X170269004Y-96686429D01*
X169994816Y-96617700D01*
X169712488Y-96603783D01*
X169432870Y-96645213D01*
X169166708Y-96740397D01*
X169041486Y-96807329D01*
X168969903Y-97051298D01*
X163188811Y-97051298D01*
X162896601Y-96930261D01*
X162387525Y-96829000D01*
X161868475Y-96829000D01*
X161359399Y-96930261D01*
X160879859Y-97128893D01*
X160560200Y-97342483D01*
X160560200Y-95129043D01*
X160769537Y-95268918D01*
X161067088Y-95392168D01*
X161382967Y-95455000D01*
X161705033Y-95455000D01*
X162020912Y-95392168D01*
X162318463Y-95268918D01*
X162586252Y-95089987D01*
X162813987Y-94862252D01*
X162992918Y-94594463D01*
X163116168Y-94296912D01*
X163179000Y-93981033D01*
X163179000Y-93658967D01*
X163116168Y-93343088D01*
X162992918Y-93045537D01*
X162813987Y-92777748D01*
X162586252Y-92550013D01*
X162318463Y-92371082D01*
X162020912Y-92247832D01*
X161705033Y-92185000D01*
X161382967Y-92185000D01*
X161067088Y-92247832D01*
X160769537Y-92371082D01*
X160560200Y-92510957D01*
X160560200Y-84983408D01*
X160588193Y-84955415D01*
X160683956Y-85219814D01*
X160973571Y-85360704D01*
X161285108Y-85442384D01*
X161606595Y-85461718D01*
X161925675Y-85417961D01*
X162230088Y-85312795D01*
X162404044Y-85219814D01*
X162499808Y-84955413D01*
X161544000Y-83999605D01*
X161529858Y-84013748D01*
X161350253Y-83834143D01*
X161364395Y-83820000D01*
X161723605Y-83820000D01*
X162679413Y-84775808D01*
X162943814Y-84680044D01*
X163084704Y-84390429D01*
X163166384Y-84078892D01*
X163185718Y-83757405D01*
X163141961Y-83438325D01*
X163036795Y-83133912D01*
X162943814Y-82959956D01*
X162679413Y-82864192D01*
X161723605Y-83820000D01*
X161364395Y-83820000D01*
X161350253Y-83805858D01*
X161529858Y-83626253D01*
X161544000Y-83640395D01*
X162499808Y-82684587D01*
X162404044Y-82420186D01*
X162114429Y-82279296D01*
X161802892Y-82197616D01*
X161481405Y-82178282D01*
X161162325Y-82222039D01*
X160857912Y-82327205D01*
X160683956Y-82420186D01*
X160588193Y-82684585D01*
X160560200Y-82656592D01*
X160560200Y-81267408D01*
X160588193Y-81239415D01*
X160683956Y-81503814D01*
X160973571Y-81644704D01*
X161285108Y-81726384D01*
X161606595Y-81745718D01*
X161925675Y-81701961D01*
X162230088Y-81596795D01*
X162404044Y-81503814D01*
X162499808Y-81239413D01*
X161544000Y-80283605D01*
X161529858Y-80297748D01*
X161350253Y-80118143D01*
X161364395Y-80104000D01*
X161723605Y-80104000D01*
X162679413Y-81059808D01*
X162943814Y-80964044D01*
X163084704Y-80674429D01*
X163166384Y-80362892D01*
X163185718Y-80041405D01*
X163141961Y-79722325D01*
X163036795Y-79417912D01*
X162943814Y-79243956D01*
X162679413Y-79148192D01*
X161723605Y-80104000D01*
X161364395Y-80104000D01*
X161350253Y-80089858D01*
X161529858Y-79910253D01*
X161544000Y-79924395D01*
X162499808Y-78968587D01*
X162442555Y-78810512D01*
X168231783Y-78810512D01*
X168273213Y-79090130D01*
X168368397Y-79356292D01*
X168435329Y-79481514D01*
X168679298Y-79553097D01*
X169492395Y-78740000D01*
X168679298Y-77926903D01*
X168435329Y-77998486D01*
X168314429Y-78253996D01*
X168245700Y-78528184D01*
X168231783Y-78810512D01*
X162442555Y-78810512D01*
X162404044Y-78704186D01*
X162114429Y-78563296D01*
X161802892Y-78481616D01*
X161481405Y-78462282D01*
X161162325Y-78506039D01*
X160857912Y-78611205D01*
X160683956Y-78704186D01*
X160588193Y-78968585D01*
X160560200Y-78940592D01*
X160560200Y-74773501D01*
X163882004Y-71451698D01*
X163911001Y-71427901D01*
X164005974Y-71312176D01*
X164076546Y-71180147D01*
X164120003Y-71036886D01*
X164131000Y-70925233D01*
X164131000Y-70925225D01*
X164134676Y-70887900D01*
X164131000Y-70850575D01*
X164131000Y-69418122D01*
X164134676Y-69380799D01*
X164131000Y-69343476D01*
X164131000Y-69343467D01*
X164120003Y-69231814D01*
X164076546Y-69088553D01*
X164005974Y-68956524D01*
X163911001Y-68840799D01*
X163882003Y-68817001D01*
X160100101Y-65035100D01*
X164862465Y-65035100D01*
X164801519Y-65206909D01*
G37*
X164801519Y-65206909D02*
X164922186Y-65436800D01*
X166116000Y-65436800D01*
X166116000Y-65416800D01*
X166370000Y-65416800D01*
X166370000Y-65436800D01*
X168656000Y-65436800D01*
X168656000Y-65416800D01*
X168910000Y-65416800D01*
X168910000Y-65436800D01*
X171196000Y-65436800D01*
X171196000Y-65416800D01*
X171450000Y-65416800D01*
X171450000Y-65436800D01*
X173736000Y-65436800D01*
X173736000Y-65416800D01*
X173990000Y-65416800D01*
X173990000Y-65436800D01*
X174010000Y-65436800D01*
X174010000Y-65690800D01*
X173990000Y-65690800D01*
X173990000Y-65710800D01*
X173736000Y-65710800D01*
X173736000Y-65690800D01*
X171450000Y-65690800D01*
X171450000Y-65710800D01*
X171196000Y-65710800D01*
X171196000Y-65690800D01*
X168910000Y-65690800D01*
X168910000Y-65710800D01*
X168656000Y-65710800D01*
X168656000Y-65690800D01*
X166370000Y-65690800D01*
X166370000Y-65710800D01*
X166116000Y-65710800D01*
X166116000Y-65690800D01*
X164922186Y-65690800D01*
X164801519Y-65920691D01*
X164898843Y-66195052D01*
X165047822Y-66445155D01*
X165242731Y-66661388D01*
X165472406Y-66832700D01*
X165296368Y-66950325D01*
X165089525Y-67157168D01*
X164927010Y-67400389D01*
X164815068Y-67670642D01*
X164758000Y-67957540D01*
X164758000Y-68250060D01*
X164815068Y-68536958D01*
X164927010Y-68807211D01*
X165089525Y-69050432D01*
X165296368Y-69257275D01*
X165539589Y-69419790D01*
X165809842Y-69531732D01*
X166096740Y-69588800D01*
X166389260Y-69588800D01*
X166676158Y-69531732D01*
X166946411Y-69419790D01*
X167189632Y-69257275D01*
X167396475Y-69050432D01*
X167513000Y-68876040D01*
X167629525Y-69050432D01*
X167836368Y-69257275D01*
X168079589Y-69419790D01*
X168349842Y-69531732D01*
X168636740Y-69588800D01*
X168929260Y-69588800D01*
X169216158Y-69531732D01*
X169486411Y-69419790D01*
X169729632Y-69257275D01*
X169936475Y-69050432D01*
X170053000Y-68876040D01*
X170169525Y-69050432D01*
X170376368Y-69257275D01*
X170563000Y-69381978D01*
X170563000Y-77669393D01*
X170485097Y-77747296D01*
X170413514Y-77503329D01*
X170158004Y-77382429D01*
X169883816Y-77313700D01*
X169601488Y-77299783D01*
X169321870Y-77341213D01*
X169055708Y-77436397D01*
X168930486Y-77503329D01*
X168858903Y-77747298D01*
X169672000Y-78560395D01*
X169686143Y-78546253D01*
X169865748Y-78725858D01*
X169851605Y-78740000D01*
X169865748Y-78754143D01*
X169686143Y-78933748D01*
X169672000Y-78919605D01*
X168858903Y-79732702D01*
X168930486Y-79976671D01*
X169185996Y-80097571D01*
X169460184Y-80166300D01*
X169742512Y-80180217D01*
X170022130Y-80138787D01*
X170288292Y-80043603D01*
X170413514Y-79976671D01*
X170485097Y-79732704D01*
X170563000Y-79810607D01*
X170563001Y-83097928D01*
X168572000Y-83097928D01*
X168447518Y-83110188D01*
X168327820Y-83146498D01*
X168217506Y-83205463D01*
X168120815Y-83284815D01*
X168041463Y-83381506D01*
X167982498Y-83491820D01*
X167946188Y-83611518D01*
X167933928Y-83736000D01*
X167933928Y-85936000D01*
X167946188Y-86060482D01*
X167982498Y-86180180D01*
X168041463Y-86290494D01*
X168120815Y-86387185D01*
X168217506Y-86466537D01*
X168327820Y-86525502D01*
X168447518Y-86561812D01*
X168572000Y-86574072D01*
X168912000Y-86574072D01*
X168912001Y-89701928D01*
X168572000Y-89701928D01*
X168447518Y-89714188D01*
X168327820Y-89750498D01*
X168217506Y-89809463D01*
X168120815Y-89888815D01*
X168041463Y-89985506D01*
X167982498Y-90095820D01*
X167946188Y-90215518D01*
X167933928Y-90340000D01*
X167933928Y-92540000D01*
X167946188Y-92664482D01*
X167982498Y-92784180D01*
X168041463Y-92894494D01*
X168120815Y-92991185D01*
X168217506Y-93070537D01*
X168327820Y-93129502D01*
X168447518Y-93165812D01*
X168572000Y-93178072D01*
X170772000Y-93178072D01*
X170840522Y-93171323D01*
X172570200Y-94901002D01*
X172570200Y-94963139D01*
X172609974Y-95163098D01*
X172687995Y-95351456D01*
X172801263Y-95520974D01*
X172945426Y-95665137D01*
X173091295Y-95762603D01*
X172707002Y-96146896D01*
X172677999Y-96170699D01*
X172627140Y-96232671D01*
X172583026Y-96286424D01*
X172573821Y-96303646D01*
X172512454Y-96418454D01*
X172468997Y-96561715D01*
X172459536Y-96657774D01*
X172214335Y-96609000D01*
X171931665Y-96609000D01*
X171654426Y-96664147D01*
X171393273Y-96772320D01*
X171158241Y-96929363D01*
X170958363Y-97129241D01*
X170871628Y-97259049D01*
X170775702Y-97230903D01*
X169962605Y-98044000D01*
X169976748Y-98058143D01*
X169797143Y-98237748D01*
X169783000Y-98223605D01*
X168969903Y-99036702D01*
X169041486Y-99280671D01*
X169296996Y-99401571D01*
X169571184Y-99470300D01*
X169601748Y-99471807D01*
X169570429Y-99537996D01*
X169501700Y-99812184D01*
X169487783Y-100094512D01*
X169529213Y-100374130D01*
X169601742Y-100576941D01*
X169364426Y-100624147D01*
X169103273Y-100732320D01*
X168868241Y-100889363D01*
X168668363Y-101089241D01*
X168511320Y-101324273D01*
X168403147Y-101585426D01*
X168348000Y-101862665D01*
X168348000Y-102145335D01*
X168403147Y-102422574D01*
X168511320Y-102683727D01*
X168668363Y-102918759D01*
X168868241Y-103118637D01*
X169023000Y-103222044D01*
X169023000Y-103856198D01*
X167551186Y-105328012D01*
X167543623Y-105325718D01*
X167447490Y-105306596D01*
X167323009Y-105294336D01*
X167298450Y-105294336D01*
X167274000Y-105291928D01*
X166774000Y-105291928D01*
X166649518Y-105304188D01*
X166624000Y-105311929D01*
X166598482Y-105304188D01*
X166474000Y-105291928D01*
X165974000Y-105291928D01*
X165949550Y-105294336D01*
X165924991Y-105294336D01*
X165800510Y-105306596D01*
X165704377Y-105325718D01*
X165696814Y-105328012D01*
X162454483Y-102085681D01*
X162896601Y-101997739D01*
X163376141Y-101799107D01*
X163807715Y-101510738D01*
X164174738Y-101143715D01*
X164463107Y-100712141D01*
X164661739Y-100232601D01*
X164763000Y-99723525D01*
X164763000Y-99204475D01*
X164661739Y-98695399D01*
X164463107Y-98215859D01*
X164395389Y-98114512D01*
X168342783Y-98114512D01*
X168384213Y-98394130D01*
X168479397Y-98660292D01*
X168546329Y-98785514D01*
X168790298Y-98857097D01*
X169603395Y-98044000D01*
X168790298Y-97230903D01*
X168546329Y-97302486D01*
X168425429Y-97557996D01*
X168356700Y-97832184D01*
X168342783Y-98114512D01*
X164395389Y-98114512D01*
X164174738Y-97784285D01*
X163807715Y-97417262D01*
X163376141Y-97128893D01*
X163188811Y-97051298D01*
X168969903Y-97051298D01*
X169783000Y-97864395D01*
X170596097Y-97051298D01*
X170524514Y-96807329D01*
X170269004Y-96686429D01*
X169994816Y-96617700D01*
X169712488Y-96603783D01*
X169432870Y-96645213D01*
X169166708Y-96740397D01*
X169041486Y-96807329D01*
X168969903Y-97051298D01*
X163188811Y-97051298D01*
X162896601Y-96930261D01*
X162387525Y-96829000D01*
X161868475Y-96829000D01*
X161359399Y-96930261D01*
X160879859Y-97128893D01*
X160560200Y-97342483D01*
X160560200Y-95129043D01*
X160769537Y-95268918D01*
X161067088Y-95392168D01*
X161382967Y-95455000D01*
X161705033Y-95455000D01*
X162020912Y-95392168D01*
X162318463Y-95268918D01*
X162586252Y-95089987D01*
X162813987Y-94862252D01*
X162992918Y-94594463D01*
X163116168Y-94296912D01*
X163179000Y-93981033D01*
X163179000Y-93658967D01*
X163116168Y-93343088D01*
X162992918Y-93045537D01*
X162813987Y-92777748D01*
X162586252Y-92550013D01*
X162318463Y-92371082D01*
X162020912Y-92247832D01*
X161705033Y-92185000D01*
X161382967Y-92185000D01*
X161067088Y-92247832D01*
X160769537Y-92371082D01*
X160560200Y-92510957D01*
X160560200Y-84983408D01*
X160588193Y-84955415D01*
X160683956Y-85219814D01*
X160973571Y-85360704D01*
X161285108Y-85442384D01*
X161606595Y-85461718D01*
X161925675Y-85417961D01*
X162230088Y-85312795D01*
X162404044Y-85219814D01*
X162499808Y-84955413D01*
X161544000Y-83999605D01*
X161529858Y-84013748D01*
X161350253Y-83834143D01*
X161364395Y-83820000D01*
X161723605Y-83820000D01*
X162679413Y-84775808D01*
X162943814Y-84680044D01*
X163084704Y-84390429D01*
X163166384Y-84078892D01*
X163185718Y-83757405D01*
X163141961Y-83438325D01*
X163036795Y-83133912D01*
X162943814Y-82959956D01*
X162679413Y-82864192D01*
X161723605Y-83820000D01*
X161364395Y-83820000D01*
X161350253Y-83805858D01*
X161529858Y-83626253D01*
X161544000Y-83640395D01*
X162499808Y-82684587D01*
X162404044Y-82420186D01*
X162114429Y-82279296D01*
X161802892Y-82197616D01*
X161481405Y-82178282D01*
X161162325Y-82222039D01*
X160857912Y-82327205D01*
X160683956Y-82420186D01*
X160588193Y-82684585D01*
X160560200Y-82656592D01*
X160560200Y-81267408D01*
X160588193Y-81239415D01*
X160683956Y-81503814D01*
X160973571Y-81644704D01*
X161285108Y-81726384D01*
X161606595Y-81745718D01*
X161925675Y-81701961D01*
X162230088Y-81596795D01*
X162404044Y-81503814D01*
X162499808Y-81239413D01*
X161544000Y-80283605D01*
X161529858Y-80297748D01*
X161350253Y-80118143D01*
X161364395Y-80104000D01*
X161723605Y-80104000D01*
X162679413Y-81059808D01*
X162943814Y-80964044D01*
X163084704Y-80674429D01*
X163166384Y-80362892D01*
X163185718Y-80041405D01*
X163141961Y-79722325D01*
X163036795Y-79417912D01*
X162943814Y-79243956D01*
X162679413Y-79148192D01*
X161723605Y-80104000D01*
X161364395Y-80104000D01*
X161350253Y-80089858D01*
X161529858Y-79910253D01*
X161544000Y-79924395D01*
X162499808Y-78968587D01*
X162442555Y-78810512D01*
X168231783Y-78810512D01*
X168273213Y-79090130D01*
X168368397Y-79356292D01*
X168435329Y-79481514D01*
X168679298Y-79553097D01*
X169492395Y-78740000D01*
X168679298Y-77926903D01*
X168435329Y-77998486D01*
X168314429Y-78253996D01*
X168245700Y-78528184D01*
X168231783Y-78810512D01*
X162442555Y-78810512D01*
X162404044Y-78704186D01*
X162114429Y-78563296D01*
X161802892Y-78481616D01*
X161481405Y-78462282D01*
X161162325Y-78506039D01*
X160857912Y-78611205D01*
X160683956Y-78704186D01*
X160588193Y-78968585D01*
X160560200Y-78940592D01*
X160560200Y-74773501D01*
X163882004Y-71451698D01*
X163911001Y-71427901D01*
X164005974Y-71312176D01*
X164076546Y-71180147D01*
X164120003Y-71036886D01*
X164131000Y-70925233D01*
X164131000Y-70925225D01*
X164134676Y-70887900D01*
X164131000Y-70850575D01*
X164131000Y-69418122D01*
X164134676Y-69380799D01*
X164131000Y-69343476D01*
X164131000Y-69343467D01*
X164120003Y-69231814D01*
X164076546Y-69088553D01*
X164005974Y-68956524D01*
X163911001Y-68840799D01*
X163882003Y-68817001D01*
X160100101Y-65035100D01*
X164862465Y-65035100D01*
X164801519Y-65206909D01*
G36*
X171121748Y-100009858D02*
G01*
X171107605Y-100024000D01*
X171121748Y-100038143D01*
X170942143Y-100217748D01*
X170928000Y-100203605D01*
X170913858Y-100217748D01*
X170734253Y-100038143D01*
X170748395Y-100024000D01*
X170734253Y-100009858D01*
X170913858Y-99830253D01*
X170928000Y-99844395D01*
X170942143Y-99830253D01*
X171121748Y-100009858D01*
G37*
X171121748Y-100009858D02*
X171107605Y-100024000D01*
X171121748Y-100038143D01*
X170942143Y-100217748D01*
X170928000Y-100203605D01*
X170913858Y-100217748D01*
X170734253Y-100038143D01*
X170748395Y-100024000D01*
X170734253Y-100009858D01*
X170913858Y-99830253D01*
X170928000Y-99844395D01*
X170942143Y-99830253D01*
X171121748Y-100009858D01*
G36*
X177991748Y-100009858D02*
G01*
X177977605Y-100024000D01*
X177991748Y-100038143D01*
X177812143Y-100217748D01*
X177798000Y-100203605D01*
X177783858Y-100217748D01*
X177604253Y-100038143D01*
X177618395Y-100024000D01*
X177604253Y-100009858D01*
X177783858Y-99830253D01*
X177798000Y-99844395D01*
X177812143Y-99830253D01*
X177991748Y-100009858D01*
G37*
X177991748Y-100009858D02*
X177977605Y-100024000D01*
X177991748Y-100038143D01*
X177812143Y-100217748D01*
X177798000Y-100203605D01*
X177783858Y-100217748D01*
X177604253Y-100038143D01*
X177618395Y-100024000D01*
X177604253Y-100009858D01*
X177783858Y-99830253D01*
X177798000Y-99844395D01*
X177812143Y-99830253D01*
X177991748Y-100009858D01*
G36*
X175701748Y-100009858D02*
G01*
X175687605Y-100024000D01*
X175701748Y-100038143D01*
X175522143Y-100217748D01*
X175508000Y-100203605D01*
X175493858Y-100217748D01*
X175314253Y-100038143D01*
X175328395Y-100024000D01*
X175314253Y-100009858D01*
X175493858Y-99830253D01*
X175508000Y-99844395D01*
X175522143Y-99830253D01*
X175701748Y-100009858D01*
G37*
X175701748Y-100009858D02*
X175687605Y-100024000D01*
X175701748Y-100038143D01*
X175522143Y-100217748D01*
X175508000Y-100203605D01*
X175493858Y-100217748D01*
X175314253Y-100038143D01*
X175328395Y-100024000D01*
X175314253Y-100009858D01*
X175493858Y-99830253D01*
X175508000Y-99844395D01*
X175522143Y-99830253D01*
X175701748Y-100009858D01*
G36*
X155410000Y-65263665D02*
G01*
X155410000Y-65546335D01*
X155465147Y-65823574D01*
X155573320Y-66084727D01*
X155730363Y-66319759D01*
X155930241Y-66519637D01*
X156162759Y-66675000D01*
X155930241Y-66830363D01*
X155730363Y-67030241D01*
X155573320Y-67265273D01*
X155465147Y-67526426D01*
X155410000Y-67803665D01*
X155410000Y-68086335D01*
X155465147Y-68363574D01*
X155573320Y-68624727D01*
X155730363Y-68859759D01*
X155930241Y-69059637D01*
X156162759Y-69215000D01*
X155930241Y-69370363D01*
X155730363Y-69570241D01*
X155573320Y-69805273D01*
X155465147Y-70066426D01*
X155410000Y-70343665D01*
X155410000Y-70626335D01*
X155465147Y-70903574D01*
X155573320Y-71164727D01*
X155730363Y-71399759D01*
X155930241Y-71599637D01*
X156162759Y-71755000D01*
X155930241Y-71910363D01*
X155730363Y-72110241D01*
X155573320Y-72345273D01*
X155465147Y-72606426D01*
X155410000Y-72883665D01*
X155410000Y-73166335D01*
X155465147Y-73443574D01*
X155573320Y-73704727D01*
X155730363Y-73939759D01*
X155930241Y-74139637D01*
X156162759Y-74295000D01*
X155930241Y-74450363D01*
X155730363Y-74650241D01*
X155573320Y-74885273D01*
X155465147Y-75146426D01*
X155410000Y-75423665D01*
X155410000Y-75706335D01*
X155465147Y-75983574D01*
X155573320Y-76244727D01*
X155730363Y-76479759D01*
X155930241Y-76679637D01*
X156162759Y-76835000D01*
X155930241Y-76990363D01*
X155730363Y-77190241D01*
X155573320Y-77425273D01*
X155465147Y-77686426D01*
X155410000Y-77963665D01*
X155410000Y-78246335D01*
X155465147Y-78523574D01*
X155573320Y-78784727D01*
X155730363Y-79019759D01*
X155930241Y-79219637D01*
X156165273Y-79376680D01*
X156175865Y-79381067D01*
X155989869Y-79492615D01*
X155781481Y-79681586D01*
X155613963Y-79907580D01*
X155493754Y-80161913D01*
X155453096Y-80295961D01*
X155575085Y-80518000D01*
X156718000Y-80518000D01*
X156718000Y-80498000D01*
X156972000Y-80498000D01*
X156972000Y-80518000D01*
X156992000Y-80518000D01*
X156992000Y-80772000D01*
X156972000Y-80772000D01*
X156972000Y-80792000D01*
X156718000Y-80792000D01*
X156718000Y-80772000D01*
X155575085Y-80772000D01*
X155453096Y-80994039D01*
X155493754Y-81128087D01*
X155613963Y-81382420D01*
X155781481Y-81608414D01*
X155989869Y-81797385D01*
X156175865Y-81908933D01*
X156165273Y-81913320D01*
X155930241Y-82070363D01*
X155730363Y-82270241D01*
X155573320Y-82505273D01*
X155465147Y-82766426D01*
X155410000Y-83043665D01*
X155410000Y-83326335D01*
X155465147Y-83603574D01*
X155573320Y-83864727D01*
X155730363Y-84099759D01*
X155930241Y-84299637D01*
X156162759Y-84455000D01*
X155930241Y-84610363D01*
X155805053Y-84735551D01*
X151203504Y-80134003D01*
X151179701Y-80104999D01*
X151063976Y-80010026D01*
X150931947Y-79939454D01*
X150788686Y-79895997D01*
X150677033Y-79885000D01*
X150677022Y-79885000D01*
X150639700Y-79881324D01*
X150602378Y-79885000D01*
X150443043Y-79885000D01*
X150339637Y-79730241D01*
X150139759Y-79530363D01*
X149907241Y-79375000D01*
X150139759Y-79219637D01*
X150339637Y-79019759D01*
X150496680Y-78784727D01*
X150604853Y-78523574D01*
X150660000Y-78246335D01*
X150660000Y-77963665D01*
X150604853Y-77686426D01*
X150496680Y-77425273D01*
X150339637Y-77190241D01*
X150139759Y-76990363D01*
X149907241Y-76835000D01*
X150139759Y-76679637D01*
X150339637Y-76479759D01*
X150496680Y-76244727D01*
X150604853Y-75983574D01*
X150660000Y-75706335D01*
X150660000Y-75423665D01*
X150604853Y-75146426D01*
X150496680Y-74885273D01*
X150339637Y-74650241D01*
X150139759Y-74450363D01*
X149907241Y-74295000D01*
X150139759Y-74139637D01*
X150339637Y-73939759D01*
X150496680Y-73704727D01*
X150604853Y-73443574D01*
X150660000Y-73166335D01*
X150660000Y-72883665D01*
X150604853Y-72606426D01*
X150496680Y-72345273D01*
X150339637Y-72110241D01*
X150139759Y-71910363D01*
X149907241Y-71755000D01*
X150139759Y-71599637D01*
X150339637Y-71399759D01*
X150496680Y-71164727D01*
X150604853Y-70903574D01*
X150660000Y-70626335D01*
X150660000Y-70343665D01*
X150604853Y-70066426D01*
X150496680Y-69805273D01*
X150339637Y-69570241D01*
X150139759Y-69370363D01*
X149907241Y-69215000D01*
X150139759Y-69059637D01*
X150339637Y-68859759D01*
X150496680Y-68624727D01*
X150604853Y-68363574D01*
X150660000Y-68086335D01*
X150660000Y-67803665D01*
X150604853Y-67526426D01*
X150496680Y-67265273D01*
X150339637Y-67030241D01*
X150141039Y-66831643D01*
X150149482Y-66830812D01*
X150269180Y-66794502D01*
X150379494Y-66735537D01*
X150476185Y-66656185D01*
X150555537Y-66559494D01*
X150614502Y-66449180D01*
X150650812Y-66329482D01*
X150663072Y-66205000D01*
X150663072Y-65035100D01*
X155455465Y-65035100D01*
X155410000Y-65263665D01*
G37*
X155410000Y-65263665D02*
X155410000Y-65546335D01*
X155465147Y-65823574D01*
X155573320Y-66084727D01*
X155730363Y-66319759D01*
X155930241Y-66519637D01*
X156162759Y-66675000D01*
X155930241Y-66830363D01*
X155730363Y-67030241D01*
X155573320Y-67265273D01*
X155465147Y-67526426D01*
X155410000Y-67803665D01*
X155410000Y-68086335D01*
X155465147Y-68363574D01*
X155573320Y-68624727D01*
X155730363Y-68859759D01*
X155930241Y-69059637D01*
X156162759Y-69215000D01*
X155930241Y-69370363D01*
X155730363Y-69570241D01*
X155573320Y-69805273D01*
X155465147Y-70066426D01*
X155410000Y-70343665D01*
X155410000Y-70626335D01*
X155465147Y-70903574D01*
X155573320Y-71164727D01*
X155730363Y-71399759D01*
X155930241Y-71599637D01*
X156162759Y-71755000D01*
X155930241Y-71910363D01*
X155730363Y-72110241D01*
X155573320Y-72345273D01*
X155465147Y-72606426D01*
X155410000Y-72883665D01*
X155410000Y-73166335D01*
X155465147Y-73443574D01*
X155573320Y-73704727D01*
X155730363Y-73939759D01*
X155930241Y-74139637D01*
X156162759Y-74295000D01*
X155930241Y-74450363D01*
X155730363Y-74650241D01*
X155573320Y-74885273D01*
X155465147Y-75146426D01*
X155410000Y-75423665D01*
X155410000Y-75706335D01*
X155465147Y-75983574D01*
X155573320Y-76244727D01*
X155730363Y-76479759D01*
X155930241Y-76679637D01*
X156162759Y-76835000D01*
X155930241Y-76990363D01*
X155730363Y-77190241D01*
X155573320Y-77425273D01*
X155465147Y-77686426D01*
X155410000Y-77963665D01*
X155410000Y-78246335D01*
X155465147Y-78523574D01*
X155573320Y-78784727D01*
X155730363Y-79019759D01*
X155930241Y-79219637D01*
X156165273Y-79376680D01*
X156175865Y-79381067D01*
X155989869Y-79492615D01*
X155781481Y-79681586D01*
X155613963Y-79907580D01*
X155493754Y-80161913D01*
X155453096Y-80295961D01*
X155575085Y-80518000D01*
X156718000Y-80518000D01*
X156718000Y-80498000D01*
X156972000Y-80498000D01*
X156972000Y-80518000D01*
X156992000Y-80518000D01*
X156992000Y-80772000D01*
X156972000Y-80772000D01*
X156972000Y-80792000D01*
X156718000Y-80792000D01*
X156718000Y-80772000D01*
X155575085Y-80772000D01*
X155453096Y-80994039D01*
X155493754Y-81128087D01*
X155613963Y-81382420D01*
X155781481Y-81608414D01*
X155989869Y-81797385D01*
X156175865Y-81908933D01*
X156165273Y-81913320D01*
X155930241Y-82070363D01*
X155730363Y-82270241D01*
X155573320Y-82505273D01*
X155465147Y-82766426D01*
X155410000Y-83043665D01*
X155410000Y-83326335D01*
X155465147Y-83603574D01*
X155573320Y-83864727D01*
X155730363Y-84099759D01*
X155930241Y-84299637D01*
X156162759Y-84455000D01*
X155930241Y-84610363D01*
X155805053Y-84735551D01*
X151203504Y-80134003D01*
X151179701Y-80104999D01*
X151063976Y-80010026D01*
X150931947Y-79939454D01*
X150788686Y-79895997D01*
X150677033Y-79885000D01*
X150677022Y-79885000D01*
X150639700Y-79881324D01*
X150602378Y-79885000D01*
X150443043Y-79885000D01*
X150339637Y-79730241D01*
X150139759Y-79530363D01*
X149907241Y-79375000D01*
X150139759Y-79219637D01*
X150339637Y-79019759D01*
X150496680Y-78784727D01*
X150604853Y-78523574D01*
X150660000Y-78246335D01*
X150660000Y-77963665D01*
X150604853Y-77686426D01*
X150496680Y-77425273D01*
X150339637Y-77190241D01*
X150139759Y-76990363D01*
X149907241Y-76835000D01*
X150139759Y-76679637D01*
X150339637Y-76479759D01*
X150496680Y-76244727D01*
X150604853Y-75983574D01*
X150660000Y-75706335D01*
X150660000Y-75423665D01*
X150604853Y-75146426D01*
X150496680Y-74885273D01*
X150339637Y-74650241D01*
X150139759Y-74450363D01*
X149907241Y-74295000D01*
X150139759Y-74139637D01*
X150339637Y-73939759D01*
X150496680Y-73704727D01*
X150604853Y-73443574D01*
X150660000Y-73166335D01*
X150660000Y-72883665D01*
X150604853Y-72606426D01*
X150496680Y-72345273D01*
X150339637Y-72110241D01*
X150139759Y-71910363D01*
X149907241Y-71755000D01*
X150139759Y-71599637D01*
X150339637Y-71399759D01*
X150496680Y-71164727D01*
X150604853Y-70903574D01*
X150660000Y-70626335D01*
X150660000Y-70343665D01*
X150604853Y-70066426D01*
X150496680Y-69805273D01*
X150339637Y-69570241D01*
X150139759Y-69370363D01*
X149907241Y-69215000D01*
X150139759Y-69059637D01*
X150339637Y-68859759D01*
X150496680Y-68624727D01*
X150604853Y-68363574D01*
X150660000Y-68086335D01*
X150660000Y-67803665D01*
X150604853Y-67526426D01*
X150496680Y-67265273D01*
X150339637Y-67030241D01*
X150141039Y-66831643D01*
X150149482Y-66830812D01*
X150269180Y-66794502D01*
X150379494Y-66735537D01*
X150476185Y-66656185D01*
X150555537Y-66559494D01*
X150614502Y-66449180D01*
X150650812Y-66329482D01*
X150663072Y-66205000D01*
X150663072Y-65035100D01*
X155455465Y-65035100D01*
X155410000Y-65263665D01*
M02*
