G04 #@! TF.GenerationSoftware,KiCad,Pcbnew,5.1.5-52549c5~84~ubuntu18.04.1*
G04 #@! TF.CreationDate,2020-03-28T23:02:45-04:00*
G04 #@! TF.ProjectId,imac_g3_333mhz_slot_loading_J20_adapter_board,696d6163-5f67-4335-9f33-33336d687a5f,2*
G04 #@! TF.SameCoordinates,Original*
G04 #@! TF.FileFunction,Soldermask,Top*
G04 #@! TF.FilePolarity,Negative*
%FSLAX46Y46*%
G04 Gerber Fmt 4.6, Leading zero omitted, Abs format (unit mm)*
G04 Created by KiCad (PCBNEW 5.1.5-52549c5~84~ubuntu18.04.1) date 2020-03-28 23:02:45*
%MOMM*%
%LPD*%
G04 APERTURE LIST*
%ADD10C,0.100000*%
G04 APERTURE END LIST*
D10*
G36*
X163521228Y-106355503D02*
G01*
X163676100Y-106419653D01*
X163815481Y-106512785D01*
X163934015Y-106631319D01*
X164027147Y-106770700D01*
X164091297Y-106925572D01*
X164124000Y-107089984D01*
X164124000Y-107257616D01*
X164091297Y-107422028D01*
X164027147Y-107576900D01*
X163934015Y-107716281D01*
X163815481Y-107834815D01*
X163676100Y-107927947D01*
X163521228Y-107992097D01*
X163356816Y-108024800D01*
X163189184Y-108024800D01*
X163024772Y-107992097D01*
X162869900Y-107927947D01*
X162730519Y-107834815D01*
X162611985Y-107716281D01*
X162518853Y-107576900D01*
X162454703Y-107422028D01*
X162422000Y-107257616D01*
X162422000Y-107089984D01*
X162454703Y-106925572D01*
X162518853Y-106770700D01*
X162611985Y-106631319D01*
X162730519Y-106512785D01*
X162869900Y-106419653D01*
X163024772Y-106355503D01*
X163189184Y-106322800D01*
X163356816Y-106322800D01*
X163521228Y-106355503D01*
G37*
G36*
X155901228Y-106355503D02*
G01*
X156056100Y-106419653D01*
X156195481Y-106512785D01*
X156314015Y-106631319D01*
X156407147Y-106770700D01*
X156471297Y-106925572D01*
X156504000Y-107089984D01*
X156504000Y-107257616D01*
X156471297Y-107422028D01*
X156407147Y-107576900D01*
X156314015Y-107716281D01*
X156195481Y-107834815D01*
X156056100Y-107927947D01*
X155901228Y-107992097D01*
X155736816Y-108024800D01*
X155569184Y-108024800D01*
X155404772Y-107992097D01*
X155249900Y-107927947D01*
X155110519Y-107834815D01*
X154991985Y-107716281D01*
X154898853Y-107576900D01*
X154834703Y-107422028D01*
X154802000Y-107257616D01*
X154802000Y-107089984D01*
X154834703Y-106925572D01*
X154898853Y-106770700D01*
X154991985Y-106631319D01*
X155110519Y-106512785D01*
X155249900Y-106419653D01*
X155404772Y-106355503D01*
X155569184Y-106322800D01*
X155736816Y-106322800D01*
X155901228Y-106355503D01*
G37*
G36*
X150901228Y-106335703D02*
G01*
X151056100Y-106399853D01*
X151195481Y-106492985D01*
X151314015Y-106611519D01*
X151407147Y-106750900D01*
X151471297Y-106905772D01*
X151504000Y-107070184D01*
X151504000Y-107237816D01*
X151471297Y-107402228D01*
X151407147Y-107557100D01*
X151314015Y-107696481D01*
X151195481Y-107815015D01*
X151056100Y-107908147D01*
X150901228Y-107972297D01*
X150736816Y-108005000D01*
X150569184Y-108005000D01*
X150404772Y-107972297D01*
X150249900Y-107908147D01*
X150110519Y-107815015D01*
X149991985Y-107696481D01*
X149898853Y-107557100D01*
X149834703Y-107402228D01*
X149802000Y-107237816D01*
X149802000Y-107070184D01*
X149834703Y-106905772D01*
X149898853Y-106750900D01*
X149991985Y-106611519D01*
X150110519Y-106492985D01*
X150249900Y-106399853D01*
X150404772Y-106335703D01*
X150569184Y-106303000D01*
X150736816Y-106303000D01*
X150901228Y-106335703D01*
G37*
G36*
X168726512Y-105757927D02*
G01*
X168875812Y-105787624D01*
X169039784Y-105855544D01*
X169187354Y-105954147D01*
X169312853Y-106079646D01*
X169411456Y-106227216D01*
X169479376Y-106391188D01*
X169507998Y-106535082D01*
X169514000Y-106565258D01*
X169514000Y-106742742D01*
X169513190Y-106746812D01*
X169479376Y-106916812D01*
X169411456Y-107080784D01*
X169312853Y-107228354D01*
X169187354Y-107353853D01*
X169039784Y-107452456D01*
X168875812Y-107520376D01*
X168726512Y-107550073D01*
X168701742Y-107555000D01*
X168524258Y-107555000D01*
X168499488Y-107550073D01*
X168350188Y-107520376D01*
X168186216Y-107452456D01*
X168038646Y-107353853D01*
X167913147Y-107228354D01*
X167814544Y-107080784D01*
X167746624Y-106916812D01*
X167712810Y-106746812D01*
X167712000Y-106742742D01*
X167712000Y-106565258D01*
X167718002Y-106535082D01*
X167746624Y-106391188D01*
X167814544Y-106227216D01*
X167913147Y-106079646D01*
X168038646Y-105954147D01*
X168186216Y-105855544D01*
X168350188Y-105787624D01*
X168499488Y-105757927D01*
X168524258Y-105753000D01*
X168701742Y-105753000D01*
X168726512Y-105757927D01*
G37*
G36*
X172054000Y-107555000D02*
G01*
X170252000Y-107555000D01*
X170252000Y-105753000D01*
X172054000Y-105753000D01*
X172054000Y-107555000D01*
G37*
G36*
X183056512Y-105587927D02*
G01*
X183205812Y-105617624D01*
X183369784Y-105685544D01*
X183517354Y-105784147D01*
X183642853Y-105909646D01*
X183741456Y-106057216D01*
X183809376Y-106221188D01*
X183829587Y-106322800D01*
X183843191Y-106391189D01*
X183844000Y-106395259D01*
X183844000Y-106572741D01*
X183809376Y-106746812D01*
X183741456Y-106910784D01*
X183642853Y-107058354D01*
X183517354Y-107183853D01*
X183369784Y-107282456D01*
X183205812Y-107350376D01*
X183056512Y-107380073D01*
X183031742Y-107385000D01*
X182854258Y-107385000D01*
X182829488Y-107380073D01*
X182680188Y-107350376D01*
X182516216Y-107282456D01*
X182368646Y-107183853D01*
X182243147Y-107058354D01*
X182144544Y-106910784D01*
X182076624Y-106746812D01*
X182042000Y-106572741D01*
X182042000Y-106395259D01*
X182042810Y-106391189D01*
X182056413Y-106322800D01*
X182076624Y-106221188D01*
X182144544Y-106057216D01*
X182243147Y-105909646D01*
X182368646Y-105784147D01*
X182516216Y-105685544D01*
X182680188Y-105617624D01*
X182829488Y-105587927D01*
X182854258Y-105583000D01*
X183031742Y-105583000D01*
X183056512Y-105587927D01*
G37*
G36*
X180516512Y-105587927D02*
G01*
X180665812Y-105617624D01*
X180829784Y-105685544D01*
X180977354Y-105784147D01*
X181102853Y-105909646D01*
X181201456Y-106057216D01*
X181269376Y-106221188D01*
X181289587Y-106322800D01*
X181303191Y-106391189D01*
X181304000Y-106395259D01*
X181304000Y-106572741D01*
X181269376Y-106746812D01*
X181201456Y-106910784D01*
X181102853Y-107058354D01*
X180977354Y-107183853D01*
X180829784Y-107282456D01*
X180665812Y-107350376D01*
X180516512Y-107380073D01*
X180491742Y-107385000D01*
X180314258Y-107385000D01*
X180289488Y-107380073D01*
X180140188Y-107350376D01*
X179976216Y-107282456D01*
X179828646Y-107183853D01*
X179703147Y-107058354D01*
X179604544Y-106910784D01*
X179536624Y-106746812D01*
X179502000Y-106572741D01*
X179502000Y-106395259D01*
X179502810Y-106391189D01*
X179516413Y-106322800D01*
X179536624Y-106221188D01*
X179604544Y-106057216D01*
X179703147Y-105909646D01*
X179828646Y-105784147D01*
X179976216Y-105685544D01*
X180140188Y-105617624D01*
X180289488Y-105587927D01*
X180314258Y-105583000D01*
X180491742Y-105583000D01*
X180516512Y-105587927D01*
G37*
G36*
X141999072Y-103936918D02*
G01*
X142230411Y-104032741D01*
X142244939Y-104038759D01*
X142356328Y-104113187D01*
X142466211Y-104186609D01*
X142654391Y-104374789D01*
X142802242Y-104596063D01*
X142904082Y-104841928D01*
X142956000Y-105102937D01*
X142956000Y-105369063D01*
X142939484Y-105452095D01*
X142904082Y-105630072D01*
X142802241Y-105875939D01*
X142779718Y-105909647D01*
X142654391Y-106097211D01*
X142466211Y-106285391D01*
X142390914Y-106335703D01*
X142244939Y-106433241D01*
X142244938Y-106433242D01*
X142244937Y-106433242D01*
X141999072Y-106535082D01*
X141738063Y-106587000D01*
X141471937Y-106587000D01*
X141210928Y-106535082D01*
X140965063Y-106433242D01*
X140965062Y-106433242D01*
X140965061Y-106433241D01*
X140819086Y-106335703D01*
X140743789Y-106285391D01*
X140555609Y-106097211D01*
X140430282Y-105909647D01*
X140407759Y-105875939D01*
X140305918Y-105630072D01*
X140270516Y-105452095D01*
X140254000Y-105369063D01*
X140254000Y-105102937D01*
X140305918Y-104841928D01*
X140407758Y-104596063D01*
X140555609Y-104374789D01*
X140743789Y-104186609D01*
X140853672Y-104113187D01*
X140965061Y-104038759D01*
X140979590Y-104032741D01*
X141210928Y-103936918D01*
X141471937Y-103885000D01*
X141738063Y-103885000D01*
X141999072Y-103936918D01*
G37*
G36*
X155901228Y-103815503D02*
G01*
X156056100Y-103879653D01*
X156195481Y-103972785D01*
X156314015Y-104091319D01*
X156407147Y-104230700D01*
X156471297Y-104385572D01*
X156504000Y-104549984D01*
X156504000Y-104717616D01*
X156471297Y-104882028D01*
X156407147Y-105036900D01*
X156314015Y-105176281D01*
X156195481Y-105294815D01*
X156056100Y-105387947D01*
X155901228Y-105452097D01*
X155736816Y-105484800D01*
X155569184Y-105484800D01*
X155404772Y-105452097D01*
X155249900Y-105387947D01*
X155110519Y-105294815D01*
X154991985Y-105176281D01*
X154898853Y-105036900D01*
X154834703Y-104882028D01*
X154802000Y-104717616D01*
X154802000Y-104549984D01*
X154834703Y-104385572D01*
X154898853Y-104230700D01*
X154991985Y-104091319D01*
X155110519Y-103972785D01*
X155249900Y-103879653D01*
X155404772Y-103815503D01*
X155569184Y-103782800D01*
X155736816Y-103782800D01*
X155901228Y-103815503D01*
G37*
G36*
X163521228Y-103815503D02*
G01*
X163676100Y-103879653D01*
X163815481Y-103972785D01*
X163934015Y-104091319D01*
X164027147Y-104230700D01*
X164091297Y-104385572D01*
X164124000Y-104549984D01*
X164124000Y-104717616D01*
X164091297Y-104882028D01*
X164027147Y-105036900D01*
X163934015Y-105176281D01*
X163815481Y-105294815D01*
X163676100Y-105387947D01*
X163521228Y-105452097D01*
X163356816Y-105484800D01*
X163189184Y-105484800D01*
X163024772Y-105452097D01*
X162869900Y-105387947D01*
X162730519Y-105294815D01*
X162611985Y-105176281D01*
X162518853Y-105036900D01*
X162454703Y-104882028D01*
X162422000Y-104717616D01*
X162422000Y-104549984D01*
X162454703Y-104385572D01*
X162518853Y-104230700D01*
X162611985Y-104091319D01*
X162730519Y-103972785D01*
X162869900Y-103879653D01*
X163024772Y-103815503D01*
X163189184Y-103782800D01*
X163356816Y-103782800D01*
X163521228Y-103815503D01*
G37*
G36*
X168726512Y-103217927D02*
G01*
X168875812Y-103247624D01*
X169039784Y-103315544D01*
X169187354Y-103414147D01*
X169312853Y-103539646D01*
X169411456Y-103687216D01*
X169479376Y-103851188D01*
X169509073Y-104000488D01*
X169514000Y-104025258D01*
X169514000Y-104202742D01*
X169513190Y-104206812D01*
X169479376Y-104376812D01*
X169411456Y-104540784D01*
X169312853Y-104688354D01*
X169187354Y-104813853D01*
X169039784Y-104912456D01*
X168875812Y-104980376D01*
X168726512Y-105010073D01*
X168701742Y-105015000D01*
X168524258Y-105015000D01*
X168499488Y-105010073D01*
X168350188Y-104980376D01*
X168186216Y-104912456D01*
X168038646Y-104813853D01*
X167913147Y-104688354D01*
X167814544Y-104540784D01*
X167746624Y-104376812D01*
X167712810Y-104206812D01*
X167712000Y-104202742D01*
X167712000Y-104025258D01*
X167716927Y-104000488D01*
X167746624Y-103851188D01*
X167814544Y-103687216D01*
X167913147Y-103539646D01*
X168038646Y-103414147D01*
X168186216Y-103315544D01*
X168350188Y-103247624D01*
X168499488Y-103217927D01*
X168524258Y-103213000D01*
X168701742Y-103213000D01*
X168726512Y-103217927D01*
G37*
G36*
X171266512Y-103217927D02*
G01*
X171415812Y-103247624D01*
X171579784Y-103315544D01*
X171727354Y-103414147D01*
X171852853Y-103539646D01*
X171951456Y-103687216D01*
X172019376Y-103851188D01*
X172049073Y-104000488D01*
X172054000Y-104025258D01*
X172054000Y-104202742D01*
X172053190Y-104206812D01*
X172019376Y-104376812D01*
X171951456Y-104540784D01*
X171852853Y-104688354D01*
X171727354Y-104813853D01*
X171579784Y-104912456D01*
X171415812Y-104980376D01*
X171266512Y-105010073D01*
X171241742Y-105015000D01*
X171064258Y-105015000D01*
X171039488Y-105010073D01*
X170890188Y-104980376D01*
X170726216Y-104912456D01*
X170578646Y-104813853D01*
X170453147Y-104688354D01*
X170354544Y-104540784D01*
X170286624Y-104376812D01*
X170252810Y-104206812D01*
X170252000Y-104202742D01*
X170252000Y-104025258D01*
X170256927Y-104000488D01*
X170286624Y-103851188D01*
X170354544Y-103687216D01*
X170453147Y-103539646D01*
X170578646Y-103414147D01*
X170726216Y-103315544D01*
X170890188Y-103247624D01*
X171039488Y-103217927D01*
X171064258Y-103213000D01*
X171241742Y-103213000D01*
X171266512Y-103217927D01*
G37*
G36*
X180516512Y-103047927D02*
G01*
X180665812Y-103077624D01*
X180829784Y-103145544D01*
X180977354Y-103244147D01*
X181102853Y-103369646D01*
X181201456Y-103517216D01*
X181269376Y-103681188D01*
X181289587Y-103782800D01*
X181303191Y-103851189D01*
X181304000Y-103855259D01*
X181304000Y-104032741D01*
X181269376Y-104206812D01*
X181201456Y-104370784D01*
X181102853Y-104518354D01*
X180977354Y-104643853D01*
X180829784Y-104742456D01*
X180665812Y-104810376D01*
X180516512Y-104840073D01*
X180491742Y-104845000D01*
X180314258Y-104845000D01*
X180289488Y-104840073D01*
X180140188Y-104810376D01*
X179976216Y-104742456D01*
X179828646Y-104643853D01*
X179703147Y-104518354D01*
X179604544Y-104370784D01*
X179536624Y-104206812D01*
X179502000Y-104032741D01*
X179502000Y-103855259D01*
X179502810Y-103851189D01*
X179516413Y-103782800D01*
X179536624Y-103681188D01*
X179604544Y-103517216D01*
X179703147Y-103369646D01*
X179828646Y-103244147D01*
X179976216Y-103145544D01*
X180140188Y-103077624D01*
X180289488Y-103047927D01*
X180314258Y-103043000D01*
X180491742Y-103043000D01*
X180516512Y-103047927D01*
G37*
G36*
X183056512Y-103047927D02*
G01*
X183205812Y-103077624D01*
X183369784Y-103145544D01*
X183517354Y-103244147D01*
X183642853Y-103369646D01*
X183741456Y-103517216D01*
X183809376Y-103681188D01*
X183829587Y-103782800D01*
X183843191Y-103851189D01*
X183844000Y-103855259D01*
X183844000Y-104032741D01*
X183809376Y-104206812D01*
X183741456Y-104370784D01*
X183642853Y-104518354D01*
X183517354Y-104643853D01*
X183369784Y-104742456D01*
X183205812Y-104810376D01*
X183056512Y-104840073D01*
X183031742Y-104845000D01*
X182854258Y-104845000D01*
X182829488Y-104840073D01*
X182680188Y-104810376D01*
X182516216Y-104742456D01*
X182368646Y-104643853D01*
X182243147Y-104518354D01*
X182144544Y-104370784D01*
X182076624Y-104206812D01*
X182042000Y-104032741D01*
X182042000Y-103855259D01*
X182042810Y-103851189D01*
X182056413Y-103782800D01*
X182076624Y-103681188D01*
X182144544Y-103517216D01*
X182243147Y-103369646D01*
X182368646Y-103244147D01*
X182516216Y-103145544D01*
X182680188Y-103077624D01*
X182829488Y-103047927D01*
X182854258Y-103043000D01*
X183031742Y-103043000D01*
X183056512Y-103047927D01*
G37*
G36*
X192823510Y-99703835D02*
G01*
X193060571Y-99802029D01*
X193196769Y-99858444D01*
X193532692Y-100082901D01*
X193818372Y-100368581D01*
X194021779Y-100673000D01*
X194042830Y-100704506D01*
X194197438Y-101077763D01*
X194276256Y-101474010D01*
X194276256Y-101878024D01*
X194197438Y-102274271D01*
X194042830Y-102647528D01*
X194042829Y-102647530D01*
X193818372Y-102983453D01*
X193532692Y-103269133D01*
X193196769Y-103493590D01*
X193196768Y-103493591D01*
X193196767Y-103493591D01*
X192823510Y-103648199D01*
X192427263Y-103727017D01*
X192023249Y-103727017D01*
X191627002Y-103648199D01*
X191253745Y-103493591D01*
X191253744Y-103493591D01*
X191253743Y-103493590D01*
X190917820Y-103269133D01*
X190632140Y-102983453D01*
X190407683Y-102647530D01*
X190407682Y-102647528D01*
X190253074Y-102274271D01*
X190174256Y-101878024D01*
X190174256Y-101474010D01*
X190253074Y-101077763D01*
X190407682Y-100704506D01*
X190428734Y-100673000D01*
X190632140Y-100368581D01*
X190917820Y-100082901D01*
X191253743Y-99858444D01*
X191389941Y-99802029D01*
X191627002Y-99703835D01*
X192023249Y-99625017D01*
X192427263Y-99625017D01*
X192823510Y-99703835D01*
G37*
G36*
X150901228Y-101335703D02*
G01*
X151056100Y-101399853D01*
X151195481Y-101492985D01*
X151314015Y-101611519D01*
X151407147Y-101750900D01*
X151471297Y-101905772D01*
X151504000Y-102070184D01*
X151504000Y-102237816D01*
X151471297Y-102402228D01*
X151407147Y-102557100D01*
X151314015Y-102696481D01*
X151195481Y-102815015D01*
X151056100Y-102908147D01*
X150901228Y-102972297D01*
X150736816Y-103005000D01*
X150569184Y-103005000D01*
X150404772Y-102972297D01*
X150249900Y-102908147D01*
X150110519Y-102815015D01*
X149991985Y-102696481D01*
X149898853Y-102557100D01*
X149834703Y-102402228D01*
X149802000Y-102237816D01*
X149802000Y-102070184D01*
X149834703Y-101905772D01*
X149898853Y-101750900D01*
X149991985Y-101611519D01*
X150110519Y-101492985D01*
X150249900Y-101399853D01*
X150404772Y-101335703D01*
X150569184Y-101303000D01*
X150736816Y-101303000D01*
X150901228Y-101335703D01*
G37*
G36*
X163521228Y-101275503D02*
G01*
X163676100Y-101339653D01*
X163815481Y-101432785D01*
X163934015Y-101551319D01*
X164027147Y-101690700D01*
X164091297Y-101845572D01*
X164124000Y-102009984D01*
X164124000Y-102177616D01*
X164091297Y-102342028D01*
X164027147Y-102496900D01*
X163934015Y-102636281D01*
X163815481Y-102754815D01*
X163676100Y-102847947D01*
X163521228Y-102912097D01*
X163356816Y-102944800D01*
X163189184Y-102944800D01*
X163024772Y-102912097D01*
X162869900Y-102847947D01*
X162730519Y-102754815D01*
X162611985Y-102636281D01*
X162518853Y-102496900D01*
X162454703Y-102342028D01*
X162422000Y-102177616D01*
X162422000Y-102009984D01*
X162454703Y-101845572D01*
X162518853Y-101690700D01*
X162611985Y-101551319D01*
X162730519Y-101432785D01*
X162869900Y-101339653D01*
X163024772Y-101275503D01*
X163189184Y-101242800D01*
X163356816Y-101242800D01*
X163521228Y-101275503D01*
G37*
G36*
X155901228Y-101275503D02*
G01*
X156056100Y-101339653D01*
X156195481Y-101432785D01*
X156314015Y-101551319D01*
X156407147Y-101690700D01*
X156471297Y-101845572D01*
X156504000Y-102009984D01*
X156504000Y-102177616D01*
X156471297Y-102342028D01*
X156407147Y-102496900D01*
X156314015Y-102636281D01*
X156195481Y-102754815D01*
X156056100Y-102847947D01*
X155901228Y-102912097D01*
X155736816Y-102944800D01*
X155569184Y-102944800D01*
X155404772Y-102912097D01*
X155249900Y-102847947D01*
X155110519Y-102754815D01*
X154991985Y-102636281D01*
X154898853Y-102496900D01*
X154834703Y-102342028D01*
X154802000Y-102177616D01*
X154802000Y-102009984D01*
X154834703Y-101845572D01*
X154898853Y-101690700D01*
X154991985Y-101551319D01*
X155110519Y-101432785D01*
X155249900Y-101339653D01*
X155404772Y-101275503D01*
X155569184Y-101242800D01*
X155736816Y-101242800D01*
X155901228Y-101275503D01*
G37*
G36*
X171266512Y-100677927D02*
G01*
X171415812Y-100707624D01*
X171579784Y-100775544D01*
X171727354Y-100874147D01*
X171852853Y-100999646D01*
X171951456Y-101147216D01*
X172019376Y-101311188D01*
X172043653Y-101433241D01*
X172054000Y-101485258D01*
X172054000Y-101662742D01*
X172053190Y-101666812D01*
X172019376Y-101836812D01*
X171951456Y-102000784D01*
X171852853Y-102148354D01*
X171727354Y-102273853D01*
X171579784Y-102372456D01*
X171415812Y-102440376D01*
X171266512Y-102470073D01*
X171241742Y-102475000D01*
X171064258Y-102475000D01*
X171039488Y-102470073D01*
X170890188Y-102440376D01*
X170726216Y-102372456D01*
X170578646Y-102273853D01*
X170453147Y-102148354D01*
X170354544Y-102000784D01*
X170286624Y-101836812D01*
X170252810Y-101666812D01*
X170252000Y-101662742D01*
X170252000Y-101485258D01*
X170262347Y-101433241D01*
X170286624Y-101311188D01*
X170354544Y-101147216D01*
X170453147Y-100999646D01*
X170578646Y-100874147D01*
X170726216Y-100775544D01*
X170890188Y-100707624D01*
X171039488Y-100677927D01*
X171064258Y-100673000D01*
X171241742Y-100673000D01*
X171266512Y-100677927D01*
G37*
G36*
X168726512Y-100677927D02*
G01*
X168875812Y-100707624D01*
X169039784Y-100775544D01*
X169187354Y-100874147D01*
X169312853Y-100999646D01*
X169411456Y-101147216D01*
X169479376Y-101311188D01*
X169503653Y-101433241D01*
X169514000Y-101485258D01*
X169514000Y-101662742D01*
X169513190Y-101666812D01*
X169479376Y-101836812D01*
X169411456Y-102000784D01*
X169312853Y-102148354D01*
X169187354Y-102273853D01*
X169039784Y-102372456D01*
X168875812Y-102440376D01*
X168726512Y-102470073D01*
X168701742Y-102475000D01*
X168524258Y-102475000D01*
X168499488Y-102470073D01*
X168350188Y-102440376D01*
X168186216Y-102372456D01*
X168038646Y-102273853D01*
X167913147Y-102148354D01*
X167814544Y-102000784D01*
X167746624Y-101836812D01*
X167712810Y-101666812D01*
X167712000Y-101662742D01*
X167712000Y-101485258D01*
X167722347Y-101433241D01*
X167746624Y-101311188D01*
X167814544Y-101147216D01*
X167913147Y-100999646D01*
X168038646Y-100874147D01*
X168186216Y-100775544D01*
X168350188Y-100707624D01*
X168499488Y-100677927D01*
X168524258Y-100673000D01*
X168701742Y-100673000D01*
X168726512Y-100677927D01*
G37*
G36*
X183056512Y-100507927D02*
G01*
X183205812Y-100537624D01*
X183369784Y-100605544D01*
X183517354Y-100704147D01*
X183642853Y-100829646D01*
X183741456Y-100977216D01*
X183809376Y-101141188D01*
X183829587Y-101242800D01*
X183844000Y-101315258D01*
X183844000Y-101492742D01*
X183839073Y-101517512D01*
X183809376Y-101666812D01*
X183741456Y-101830784D01*
X183642853Y-101978354D01*
X183517354Y-102103853D01*
X183369784Y-102202456D01*
X183205812Y-102270376D01*
X183056512Y-102300073D01*
X183031742Y-102305000D01*
X182854258Y-102305000D01*
X182829488Y-102300073D01*
X182680188Y-102270376D01*
X182516216Y-102202456D01*
X182368646Y-102103853D01*
X182243147Y-101978354D01*
X182144544Y-101830784D01*
X182076624Y-101666812D01*
X182046927Y-101517512D01*
X182042000Y-101492742D01*
X182042000Y-101315258D01*
X182056413Y-101242800D01*
X182076624Y-101141188D01*
X182144544Y-100977216D01*
X182243147Y-100829646D01*
X182368646Y-100704147D01*
X182516216Y-100605544D01*
X182680188Y-100537624D01*
X182829488Y-100507927D01*
X182854258Y-100503000D01*
X183031742Y-100503000D01*
X183056512Y-100507927D01*
G37*
G36*
X181304000Y-102305000D02*
G01*
X179502000Y-102305000D01*
X179502000Y-100503000D01*
X181304000Y-100503000D01*
X181304000Y-102305000D01*
G37*
G36*
X141999072Y-98936918D02*
G01*
X142244939Y-99038759D01*
X142356328Y-99113187D01*
X142466211Y-99186609D01*
X142654391Y-99374789D01*
X142802242Y-99596063D01*
X142904082Y-99841928D01*
X142956000Y-100102937D01*
X142956000Y-100369063D01*
X142904082Y-100630072D01*
X142802242Y-100875937D01*
X142654391Y-101097211D01*
X142466211Y-101285391D01*
X142390914Y-101335703D01*
X142244939Y-101433241D01*
X142244938Y-101433242D01*
X142244937Y-101433242D01*
X141999072Y-101535082D01*
X141738063Y-101587000D01*
X141471937Y-101587000D01*
X141210928Y-101535082D01*
X140965063Y-101433242D01*
X140965062Y-101433242D01*
X140965061Y-101433241D01*
X140819086Y-101335703D01*
X140743789Y-101285391D01*
X140555609Y-101097211D01*
X140407758Y-100875937D01*
X140305918Y-100630072D01*
X140254000Y-100369063D01*
X140254000Y-100102937D01*
X140305918Y-99841928D01*
X140407758Y-99596063D01*
X140555609Y-99374789D01*
X140743789Y-99186609D01*
X140853672Y-99113187D01*
X140965061Y-99038759D01*
X141210928Y-98936918D01*
X141471937Y-98885000D01*
X141738063Y-98885000D01*
X141999072Y-98936918D01*
G37*
G36*
X163521228Y-98735503D02*
G01*
X163676100Y-98799653D01*
X163815481Y-98892785D01*
X163934015Y-99011319D01*
X164027147Y-99150700D01*
X164091297Y-99305572D01*
X164124000Y-99469984D01*
X164124000Y-99637616D01*
X164091297Y-99802028D01*
X164027147Y-99956900D01*
X163934015Y-100096281D01*
X163815481Y-100214815D01*
X163676100Y-100307947D01*
X163521228Y-100372097D01*
X163356816Y-100404800D01*
X163189184Y-100404800D01*
X163024772Y-100372097D01*
X162869900Y-100307947D01*
X162730519Y-100214815D01*
X162611985Y-100096281D01*
X162518853Y-99956900D01*
X162454703Y-99802028D01*
X162422000Y-99637616D01*
X162422000Y-99469984D01*
X162454703Y-99305572D01*
X162518853Y-99150700D01*
X162611985Y-99011319D01*
X162730519Y-98892785D01*
X162869900Y-98799653D01*
X163024772Y-98735503D01*
X163189184Y-98702800D01*
X163356816Y-98702800D01*
X163521228Y-98735503D01*
G37*
G36*
X155901228Y-98735503D02*
G01*
X156056100Y-98799653D01*
X156195481Y-98892785D01*
X156314015Y-99011319D01*
X156407147Y-99150700D01*
X156471297Y-99305572D01*
X156504000Y-99469984D01*
X156504000Y-99637616D01*
X156471297Y-99802028D01*
X156407147Y-99956900D01*
X156314015Y-100096281D01*
X156195481Y-100214815D01*
X156056100Y-100307947D01*
X155901228Y-100372097D01*
X155736816Y-100404800D01*
X155569184Y-100404800D01*
X155404772Y-100372097D01*
X155249900Y-100307947D01*
X155110519Y-100214815D01*
X154991985Y-100096281D01*
X154898853Y-99956900D01*
X154834703Y-99802028D01*
X154802000Y-99637616D01*
X154802000Y-99469984D01*
X154834703Y-99305572D01*
X154898853Y-99150700D01*
X154991985Y-99011319D01*
X155110519Y-98892785D01*
X155249900Y-98799653D01*
X155404772Y-98735503D01*
X155569184Y-98702800D01*
X155736816Y-98702800D01*
X155901228Y-98735503D01*
G37*
G36*
X163521228Y-96195503D02*
G01*
X163676100Y-96259653D01*
X163815481Y-96352785D01*
X163934015Y-96471319D01*
X164027147Y-96610700D01*
X164091297Y-96765572D01*
X164124000Y-96929984D01*
X164124000Y-97097616D01*
X164091297Y-97262028D01*
X164027147Y-97416900D01*
X163934015Y-97556281D01*
X163815481Y-97674815D01*
X163676100Y-97767947D01*
X163521228Y-97832097D01*
X163356816Y-97864800D01*
X163189184Y-97864800D01*
X163024772Y-97832097D01*
X162869900Y-97767947D01*
X162730519Y-97674815D01*
X162611985Y-97556281D01*
X162518853Y-97416900D01*
X162454703Y-97262028D01*
X162422000Y-97097616D01*
X162422000Y-96929984D01*
X162454703Y-96765572D01*
X162518853Y-96610700D01*
X162611985Y-96471319D01*
X162730519Y-96352785D01*
X162869900Y-96259653D01*
X163024772Y-96195503D01*
X163189184Y-96162800D01*
X163356816Y-96162800D01*
X163521228Y-96195503D01*
G37*
G36*
X155901228Y-96195503D02*
G01*
X156056100Y-96259653D01*
X156195481Y-96352785D01*
X156314015Y-96471319D01*
X156407147Y-96610700D01*
X156471297Y-96765572D01*
X156504000Y-96929984D01*
X156504000Y-97097616D01*
X156471297Y-97262028D01*
X156407147Y-97416900D01*
X156314015Y-97556281D01*
X156195481Y-97674815D01*
X156056100Y-97767947D01*
X155901228Y-97832097D01*
X155736816Y-97864800D01*
X155569184Y-97864800D01*
X155404772Y-97832097D01*
X155249900Y-97767947D01*
X155110519Y-97674815D01*
X154991985Y-97556281D01*
X154898853Y-97416900D01*
X154834703Y-97262028D01*
X154802000Y-97097616D01*
X154802000Y-96929984D01*
X154834703Y-96765572D01*
X154898853Y-96610700D01*
X154991985Y-96471319D01*
X155110519Y-96352785D01*
X155249900Y-96259653D01*
X155404772Y-96195503D01*
X155569184Y-96162800D01*
X155736816Y-96162800D01*
X155901228Y-96195503D01*
G37*
G36*
X150886642Y-96013581D02*
G01*
X151032414Y-96073962D01*
X151032416Y-96073963D01*
X151163608Y-96161622D01*
X151275178Y-96273192D01*
X151360180Y-96400408D01*
X151362838Y-96404386D01*
X151423219Y-96550158D01*
X151454000Y-96704907D01*
X151454000Y-96862693D01*
X151423219Y-97017442D01*
X151365019Y-97157948D01*
X151362837Y-97163216D01*
X151275178Y-97294408D01*
X151163608Y-97405978D01*
X151032416Y-97493637D01*
X151032415Y-97493638D01*
X151032414Y-97493638D01*
X150886642Y-97554019D01*
X150731893Y-97584800D01*
X150574107Y-97584800D01*
X150419358Y-97554019D01*
X150273586Y-97493638D01*
X150273585Y-97493638D01*
X150273584Y-97493637D01*
X150142392Y-97405978D01*
X150030822Y-97294408D01*
X149943163Y-97163216D01*
X149940981Y-97157948D01*
X149882781Y-97017442D01*
X149852000Y-96862693D01*
X149852000Y-96704907D01*
X149882781Y-96550158D01*
X149943162Y-96404386D01*
X149945820Y-96400408D01*
X150030822Y-96273192D01*
X150142392Y-96161622D01*
X150273584Y-96073963D01*
X150273586Y-96073962D01*
X150419358Y-96013581D01*
X150574107Y-95982800D01*
X150731893Y-95982800D01*
X150886642Y-96013581D01*
G37*
G36*
X168151228Y-95585503D02*
G01*
X168306100Y-95649653D01*
X168445481Y-95742785D01*
X168564015Y-95861319D01*
X168657147Y-96000700D01*
X168721297Y-96155572D01*
X168754000Y-96319984D01*
X168754000Y-96487616D01*
X168721297Y-96652028D01*
X168657147Y-96806900D01*
X168564015Y-96946281D01*
X168445481Y-97064815D01*
X168306100Y-97157947D01*
X168151228Y-97222097D01*
X167986816Y-97254800D01*
X167819184Y-97254800D01*
X167654772Y-97222097D01*
X167499900Y-97157947D01*
X167360519Y-97064815D01*
X167241985Y-96946281D01*
X167148853Y-96806900D01*
X167084703Y-96652028D01*
X167052000Y-96487616D01*
X167052000Y-96319984D01*
X167084703Y-96155572D01*
X167148853Y-96000700D01*
X167241985Y-95861319D01*
X167360519Y-95742785D01*
X167499900Y-95649653D01*
X167654772Y-95585503D01*
X167819184Y-95552800D01*
X167986816Y-95552800D01*
X168151228Y-95585503D01*
G37*
G36*
X198500689Y-95498296D02*
G01*
X198655561Y-95562446D01*
X198794942Y-95655578D01*
X198913476Y-95774112D01*
X199006608Y-95913493D01*
X199070758Y-96068365D01*
X199103461Y-96232777D01*
X199103461Y-96400409D01*
X199070758Y-96564821D01*
X199006608Y-96719693D01*
X198913476Y-96859074D01*
X198794942Y-96977608D01*
X198655561Y-97070740D01*
X198500689Y-97134890D01*
X198336277Y-97167593D01*
X198168645Y-97167593D01*
X198004233Y-97134890D01*
X197849361Y-97070740D01*
X197709980Y-96977608D01*
X197591446Y-96859074D01*
X197498314Y-96719693D01*
X197434164Y-96564821D01*
X197401461Y-96400409D01*
X197401461Y-96232777D01*
X197434164Y-96068365D01*
X197498314Y-95913493D01*
X197591446Y-95774112D01*
X197709980Y-95655578D01*
X197849361Y-95562446D01*
X198004233Y-95498296D01*
X198168645Y-95465593D01*
X198336277Y-95465593D01*
X198500689Y-95498296D01*
G37*
G36*
X141965776Y-93930295D02*
G01*
X141999072Y-93936918D01*
X142244939Y-94038759D01*
X142319179Y-94088365D01*
X142466211Y-94186609D01*
X142654391Y-94374789D01*
X142683804Y-94418809D01*
X142794731Y-94584821D01*
X142802242Y-94596063D01*
X142904082Y-94841928D01*
X142956000Y-95102937D01*
X142956000Y-95369063D01*
X142904082Y-95630072D01*
X142802242Y-95875937D01*
X142654391Y-96097211D01*
X142466211Y-96285391D01*
X142365349Y-96352785D01*
X142244939Y-96433241D01*
X142244938Y-96433242D01*
X142244937Y-96433242D01*
X141999072Y-96535082D01*
X141738063Y-96587000D01*
X141471937Y-96587000D01*
X141210928Y-96535082D01*
X140965063Y-96433242D01*
X140965062Y-96433242D01*
X140965061Y-96433241D01*
X140844651Y-96352785D01*
X140743789Y-96285391D01*
X140555609Y-96097211D01*
X140407758Y-95875937D01*
X140305918Y-95630072D01*
X140254000Y-95369063D01*
X140254000Y-95102937D01*
X140305918Y-94841928D01*
X140407758Y-94596063D01*
X140415270Y-94584821D01*
X140526196Y-94418809D01*
X140555609Y-94374789D01*
X140743789Y-94186609D01*
X140890821Y-94088365D01*
X140965061Y-94038759D01*
X141210928Y-93936918D01*
X141244224Y-93930295D01*
X141471937Y-93885000D01*
X141738063Y-93885000D01*
X141965776Y-93930295D01*
G37*
G36*
X163521228Y-93655503D02*
G01*
X163676100Y-93719653D01*
X163815481Y-93812785D01*
X163934015Y-93931319D01*
X164027147Y-94070700D01*
X164091297Y-94225572D01*
X164124000Y-94389984D01*
X164124000Y-94557616D01*
X164091297Y-94722028D01*
X164027147Y-94876900D01*
X163934015Y-95016281D01*
X163815481Y-95134815D01*
X163676100Y-95227947D01*
X163521228Y-95292097D01*
X163356816Y-95324800D01*
X163189184Y-95324800D01*
X163024772Y-95292097D01*
X162869900Y-95227947D01*
X162730519Y-95134815D01*
X162611985Y-95016281D01*
X162518853Y-94876900D01*
X162454703Y-94722028D01*
X162422000Y-94557616D01*
X162422000Y-94389984D01*
X162454703Y-94225572D01*
X162518853Y-94070700D01*
X162611985Y-93931319D01*
X162730519Y-93812785D01*
X162869900Y-93719653D01*
X163024772Y-93655503D01*
X163189184Y-93622800D01*
X163356816Y-93622800D01*
X163521228Y-93655503D01*
G37*
G36*
X155901228Y-93655503D02*
G01*
X156056100Y-93719653D01*
X156195481Y-93812785D01*
X156314015Y-93931319D01*
X156407147Y-94070700D01*
X156471297Y-94225572D01*
X156504000Y-94389984D01*
X156504000Y-94557616D01*
X156471297Y-94722028D01*
X156407147Y-94876900D01*
X156314015Y-95016281D01*
X156195481Y-95134815D01*
X156056100Y-95227947D01*
X155901228Y-95292097D01*
X155736816Y-95324800D01*
X155569184Y-95324800D01*
X155404772Y-95292097D01*
X155249900Y-95227947D01*
X155110519Y-95134815D01*
X154991985Y-95016281D01*
X154898853Y-94876900D01*
X154834703Y-94722028D01*
X154802000Y-94557616D01*
X154802000Y-94389984D01*
X154834703Y-94225572D01*
X154898853Y-94070700D01*
X154991985Y-93931319D01*
X155110519Y-93812785D01*
X155249900Y-93719653D01*
X155404772Y-93655503D01*
X155569184Y-93622800D01*
X155736816Y-93622800D01*
X155901228Y-93655503D01*
G37*
G36*
X195071228Y-93518296D02*
G01*
X195226100Y-93582446D01*
X195365481Y-93675578D01*
X195484015Y-93794112D01*
X195577147Y-93933493D01*
X195641297Y-94088365D01*
X195674000Y-94252777D01*
X195674000Y-94420409D01*
X195641297Y-94584821D01*
X195577147Y-94739693D01*
X195484015Y-94879074D01*
X195365481Y-94997608D01*
X195226100Y-95090740D01*
X195071228Y-95154890D01*
X194906816Y-95187593D01*
X194739184Y-95187593D01*
X194574772Y-95154890D01*
X194419900Y-95090740D01*
X194280519Y-94997608D01*
X194161985Y-94879074D01*
X194068853Y-94739693D01*
X194004703Y-94584821D01*
X193972000Y-94420409D01*
X193972000Y-94252777D01*
X194004703Y-94088365D01*
X194068853Y-93933493D01*
X194161985Y-93794112D01*
X194280519Y-93675578D01*
X194419900Y-93582446D01*
X194574772Y-93518296D01*
X194739184Y-93485593D01*
X194906816Y-93485593D01*
X195071228Y-93518296D01*
G37*
G36*
X197358458Y-93516697D02*
G01*
X197513330Y-93580847D01*
X197652711Y-93673979D01*
X197771245Y-93792513D01*
X197864377Y-93931894D01*
X197928527Y-94086766D01*
X197961230Y-94251178D01*
X197961230Y-94418810D01*
X197928527Y-94583222D01*
X197864377Y-94738094D01*
X197771245Y-94877475D01*
X197652711Y-94996009D01*
X197513330Y-95089141D01*
X197358458Y-95153291D01*
X197194046Y-95185994D01*
X197026414Y-95185994D01*
X196862002Y-95153291D01*
X196707130Y-95089141D01*
X196567749Y-94996009D01*
X196449215Y-94877475D01*
X196356083Y-94738094D01*
X196291933Y-94583222D01*
X196259230Y-94418810D01*
X196259230Y-94251178D01*
X196291933Y-94086766D01*
X196356083Y-93931894D01*
X196449215Y-93792513D01*
X196567749Y-93673979D01*
X196707130Y-93580847D01*
X196862002Y-93516697D01*
X197026414Y-93483994D01*
X197194046Y-93483994D01*
X197358458Y-93516697D01*
G37*
G36*
X199645689Y-93515098D02*
G01*
X199800561Y-93579248D01*
X199939942Y-93672380D01*
X200058476Y-93790914D01*
X200151608Y-93930295D01*
X200215758Y-94085167D01*
X200248461Y-94249579D01*
X200248461Y-94417211D01*
X200215758Y-94581623D01*
X200151608Y-94736495D01*
X200058476Y-94875876D01*
X199939942Y-94994410D01*
X199800561Y-95087542D01*
X199645689Y-95151692D01*
X199481277Y-95184395D01*
X199313645Y-95184395D01*
X199149233Y-95151692D01*
X198994361Y-95087542D01*
X198854980Y-94994410D01*
X198736446Y-94875876D01*
X198643314Y-94736495D01*
X198579164Y-94581623D01*
X198546461Y-94417211D01*
X198546461Y-94249579D01*
X198579164Y-94085167D01*
X198643314Y-93930295D01*
X198736446Y-93790914D01*
X198854980Y-93672380D01*
X198994361Y-93579248D01*
X199149233Y-93515098D01*
X199313645Y-93482395D01*
X199481277Y-93482395D01*
X199645689Y-93515098D01*
G37*
G36*
X173415199Y-92203754D02*
G01*
X173427450Y-92204356D01*
X173445869Y-92204356D01*
X173468149Y-92206550D01*
X173552233Y-92223276D01*
X173573660Y-92229776D01*
X173652858Y-92262580D01*
X173658303Y-92265491D01*
X173658309Y-92265493D01*
X173667169Y-92270229D01*
X173667173Y-92270232D01*
X173672614Y-92273140D01*
X173743899Y-92320771D01*
X173761204Y-92334972D01*
X173821828Y-92395596D01*
X173836029Y-92412901D01*
X173883660Y-92484186D01*
X173886568Y-92489627D01*
X173886571Y-92489631D01*
X173891307Y-92498491D01*
X173891309Y-92498497D01*
X173894220Y-92503942D01*
X173927024Y-92583140D01*
X173933524Y-92604567D01*
X173950250Y-92688651D01*
X173952444Y-92710931D01*
X173952444Y-92729350D01*
X173953046Y-92741601D01*
X173954852Y-92759939D01*
X173954852Y-93247660D01*
X173953263Y-93263799D01*
X173950348Y-93273408D01*
X173945610Y-93282272D01*
X173939237Y-93290037D01*
X173926794Y-93300248D01*
X173916425Y-93307178D01*
X173899098Y-93324505D01*
X173885485Y-93344880D01*
X173876109Y-93367520D01*
X173871329Y-93391553D01*
X173871330Y-93416057D01*
X173876112Y-93440090D01*
X173885490Y-93462729D01*
X173899105Y-93483102D01*
X173916432Y-93500429D01*
X173926802Y-93507358D01*
X173939237Y-93517563D01*
X173945610Y-93525328D01*
X173950348Y-93534192D01*
X173953263Y-93543801D01*
X173954852Y-93559940D01*
X173954852Y-94047662D01*
X173953046Y-94065999D01*
X173952444Y-94078250D01*
X173952444Y-94096669D01*
X173950250Y-94118949D01*
X173933524Y-94203033D01*
X173927024Y-94224460D01*
X173894220Y-94303658D01*
X173891309Y-94309103D01*
X173891307Y-94309109D01*
X173886571Y-94317969D01*
X173886568Y-94317973D01*
X173883660Y-94323414D01*
X173836029Y-94394699D01*
X173821828Y-94412004D01*
X173761204Y-94472628D01*
X173743899Y-94486829D01*
X173672614Y-94534460D01*
X173667173Y-94537368D01*
X173667169Y-94537371D01*
X173658309Y-94542107D01*
X173658303Y-94542109D01*
X173652858Y-94545020D01*
X173573660Y-94577824D01*
X173552233Y-94584324D01*
X173468149Y-94601050D01*
X173445869Y-94603244D01*
X173427450Y-94603244D01*
X173415199Y-94603846D01*
X173396862Y-94605652D01*
X172909138Y-94605652D01*
X172890801Y-94603846D01*
X172878550Y-94603244D01*
X172860131Y-94603244D01*
X172837851Y-94601050D01*
X172753767Y-94584324D01*
X172732340Y-94577824D01*
X172653142Y-94545020D01*
X172647697Y-94542109D01*
X172647691Y-94542107D01*
X172638831Y-94537371D01*
X172638827Y-94537368D01*
X172633386Y-94534460D01*
X172562101Y-94486829D01*
X172544796Y-94472628D01*
X172484172Y-94412004D01*
X172469971Y-94394699D01*
X172422340Y-94323414D01*
X172419432Y-94317973D01*
X172419429Y-94317969D01*
X172414693Y-94309109D01*
X172414691Y-94309103D01*
X172411780Y-94303658D01*
X172378976Y-94224460D01*
X172372476Y-94203033D01*
X172355750Y-94118949D01*
X172353556Y-94096669D01*
X172353556Y-94078250D01*
X172352954Y-94065999D01*
X172351148Y-94047662D01*
X172351148Y-93559940D01*
X172352737Y-93543801D01*
X172355652Y-93534192D01*
X172360390Y-93525328D01*
X172366763Y-93517563D01*
X172379206Y-93507352D01*
X172389575Y-93500422D01*
X172406902Y-93483095D01*
X172420515Y-93462720D01*
X172429891Y-93440080D01*
X172434671Y-93416047D01*
X172434670Y-93391543D01*
X172429888Y-93367510D01*
X172420510Y-93344871D01*
X172406895Y-93324498D01*
X172389568Y-93307171D01*
X172379198Y-93300242D01*
X172366763Y-93290037D01*
X172360390Y-93282272D01*
X172355652Y-93273408D01*
X172352737Y-93263799D01*
X172351148Y-93247660D01*
X172351148Y-92759939D01*
X172352954Y-92741601D01*
X172353556Y-92729350D01*
X172353556Y-92710931D01*
X172355750Y-92688651D01*
X172372476Y-92604567D01*
X172378976Y-92583140D01*
X172411780Y-92503942D01*
X172414691Y-92498497D01*
X172414693Y-92498491D01*
X172419429Y-92489631D01*
X172419432Y-92489627D01*
X172422340Y-92484186D01*
X172469971Y-92412901D01*
X172484172Y-92395596D01*
X172544796Y-92334972D01*
X172562101Y-92320771D01*
X172633386Y-92273140D01*
X172638827Y-92270232D01*
X172638831Y-92270229D01*
X172647691Y-92265493D01*
X172647697Y-92265491D01*
X172653142Y-92262580D01*
X172732340Y-92229776D01*
X172753767Y-92223276D01*
X172837851Y-92206550D01*
X172860131Y-92204356D01*
X172878550Y-92204356D01*
X172890801Y-92203754D01*
X172909139Y-92201948D01*
X173396861Y-92201948D01*
X173415199Y-92203754D01*
G37*
G36*
X178915199Y-91953754D02*
G01*
X178927450Y-91954356D01*
X178945869Y-91954356D01*
X178968149Y-91956550D01*
X179052233Y-91973276D01*
X179073660Y-91979776D01*
X179152858Y-92012580D01*
X179158303Y-92015491D01*
X179158309Y-92015493D01*
X179167169Y-92020229D01*
X179167173Y-92020232D01*
X179172614Y-92023140D01*
X179243899Y-92070771D01*
X179261204Y-92084972D01*
X179321828Y-92145596D01*
X179336029Y-92162901D01*
X179383660Y-92234186D01*
X179386568Y-92239627D01*
X179386571Y-92239631D01*
X179391307Y-92248491D01*
X179391309Y-92248497D01*
X179394220Y-92253942D01*
X179427024Y-92333140D01*
X179433524Y-92354567D01*
X179450250Y-92438651D01*
X179452444Y-92460931D01*
X179452444Y-92479350D01*
X179453046Y-92491601D01*
X179454852Y-92509939D01*
X179454852Y-92997660D01*
X179453263Y-93013799D01*
X179450348Y-93023408D01*
X179445610Y-93032272D01*
X179439237Y-93040037D01*
X179426794Y-93050248D01*
X179416425Y-93057178D01*
X179399098Y-93074505D01*
X179385485Y-93094880D01*
X179376109Y-93117520D01*
X179371329Y-93141553D01*
X179371330Y-93166057D01*
X179376112Y-93190090D01*
X179385490Y-93212729D01*
X179399105Y-93233102D01*
X179416432Y-93250429D01*
X179426802Y-93257358D01*
X179439237Y-93267563D01*
X179445610Y-93275328D01*
X179450348Y-93284192D01*
X179453263Y-93293801D01*
X179454852Y-93309940D01*
X179454852Y-93797662D01*
X179453046Y-93815999D01*
X179452444Y-93828250D01*
X179452444Y-93846669D01*
X179450250Y-93868949D01*
X179433524Y-93953033D01*
X179427024Y-93974460D01*
X179394220Y-94053658D01*
X179391309Y-94059103D01*
X179391307Y-94059109D01*
X179386571Y-94067969D01*
X179386568Y-94067973D01*
X179383660Y-94073414D01*
X179336029Y-94144699D01*
X179321828Y-94162004D01*
X179261204Y-94222628D01*
X179243899Y-94236829D01*
X179172614Y-94284460D01*
X179167173Y-94287368D01*
X179167169Y-94287371D01*
X179158309Y-94292107D01*
X179158303Y-94292109D01*
X179152858Y-94295020D01*
X179073660Y-94327824D01*
X179052233Y-94334324D01*
X178968149Y-94351050D01*
X178945869Y-94353244D01*
X178927450Y-94353244D01*
X178915199Y-94353846D01*
X178896862Y-94355652D01*
X178409138Y-94355652D01*
X178390801Y-94353846D01*
X178378550Y-94353244D01*
X178360131Y-94353244D01*
X178337851Y-94351050D01*
X178253767Y-94334324D01*
X178232340Y-94327824D01*
X178153142Y-94295020D01*
X178147697Y-94292109D01*
X178147691Y-94292107D01*
X178138831Y-94287371D01*
X178138827Y-94287368D01*
X178133386Y-94284460D01*
X178062101Y-94236829D01*
X178044796Y-94222628D01*
X177984172Y-94162004D01*
X177969971Y-94144699D01*
X177922340Y-94073414D01*
X177919432Y-94067973D01*
X177919429Y-94067969D01*
X177914693Y-94059109D01*
X177914691Y-94059103D01*
X177911780Y-94053658D01*
X177878976Y-93974460D01*
X177872476Y-93953033D01*
X177855750Y-93868949D01*
X177853556Y-93846669D01*
X177853556Y-93828250D01*
X177852954Y-93815999D01*
X177851148Y-93797662D01*
X177851148Y-93309940D01*
X177852737Y-93293801D01*
X177855652Y-93284192D01*
X177860390Y-93275328D01*
X177866763Y-93267563D01*
X177879206Y-93257352D01*
X177889575Y-93250422D01*
X177906902Y-93233095D01*
X177920515Y-93212720D01*
X177929891Y-93190080D01*
X177934671Y-93166047D01*
X177934670Y-93141543D01*
X177929888Y-93117510D01*
X177920510Y-93094871D01*
X177906895Y-93074498D01*
X177889568Y-93057171D01*
X177879198Y-93050242D01*
X177866763Y-93040037D01*
X177860390Y-93032272D01*
X177855652Y-93023408D01*
X177852737Y-93013799D01*
X177851148Y-92997660D01*
X177851148Y-92509939D01*
X177852954Y-92491601D01*
X177853556Y-92479350D01*
X177853556Y-92460931D01*
X177855750Y-92438651D01*
X177872476Y-92354567D01*
X177878976Y-92333140D01*
X177911780Y-92253942D01*
X177914691Y-92248497D01*
X177914693Y-92248491D01*
X177919429Y-92239631D01*
X177919432Y-92239627D01*
X177922340Y-92234186D01*
X177969971Y-92162901D01*
X177984172Y-92145596D01*
X178044796Y-92084972D01*
X178062101Y-92070771D01*
X178133386Y-92023140D01*
X178138827Y-92020232D01*
X178138831Y-92020229D01*
X178147691Y-92015493D01*
X178147697Y-92015491D01*
X178153142Y-92012580D01*
X178232340Y-91979776D01*
X178253767Y-91973276D01*
X178337851Y-91956550D01*
X178360131Y-91954356D01*
X178378550Y-91954356D01*
X178390801Y-91953754D01*
X178409139Y-91951948D01*
X178896861Y-91951948D01*
X178915199Y-91953754D01*
G37*
G36*
X196216228Y-91535098D02*
G01*
X196371100Y-91599248D01*
X196510481Y-91692380D01*
X196629015Y-91810914D01*
X196722147Y-91950295D01*
X196786297Y-92105167D01*
X196819000Y-92269579D01*
X196819000Y-92437211D01*
X196786297Y-92601623D01*
X196722147Y-92756495D01*
X196629015Y-92895876D01*
X196510481Y-93014410D01*
X196371100Y-93107542D01*
X196216228Y-93171692D01*
X196051816Y-93204395D01*
X195884184Y-93204395D01*
X195719772Y-93171692D01*
X195564900Y-93107542D01*
X195425519Y-93014410D01*
X195306985Y-92895876D01*
X195213853Y-92756495D01*
X195149703Y-92601623D01*
X195117000Y-92437211D01*
X195117000Y-92269579D01*
X195149703Y-92105167D01*
X195213853Y-91950295D01*
X195306985Y-91810914D01*
X195425519Y-91692380D01*
X195564900Y-91599248D01*
X195719772Y-91535098D01*
X195884184Y-91502395D01*
X196051816Y-91502395D01*
X196216228Y-91535098D01*
G37*
G36*
X198503458Y-91533498D02*
G01*
X198658330Y-91597648D01*
X198797711Y-91690780D01*
X198916245Y-91809314D01*
X199009377Y-91948695D01*
X199073527Y-92103567D01*
X199106230Y-92267979D01*
X199106230Y-92435611D01*
X199073527Y-92600023D01*
X199009377Y-92754895D01*
X198916245Y-92894276D01*
X198797711Y-93012810D01*
X198658330Y-93105942D01*
X198503458Y-93170092D01*
X198339046Y-93202795D01*
X198171414Y-93202795D01*
X198007002Y-93170092D01*
X197852130Y-93105942D01*
X197712749Y-93012810D01*
X197594215Y-92894276D01*
X197501083Y-92754895D01*
X197436933Y-92600023D01*
X197404230Y-92435611D01*
X197404230Y-92267979D01*
X197436933Y-92103567D01*
X197501083Y-91948695D01*
X197594215Y-91809314D01*
X197712749Y-91690780D01*
X197852130Y-91597648D01*
X198007002Y-91533498D01*
X198171414Y-91500795D01*
X198339046Y-91500795D01*
X198503458Y-91533498D01*
G37*
G36*
X200790689Y-91531899D02*
G01*
X200945561Y-91596049D01*
X201084942Y-91689181D01*
X201203476Y-91807715D01*
X201296608Y-91947096D01*
X201360758Y-92101968D01*
X201393461Y-92266380D01*
X201393461Y-92434012D01*
X201360758Y-92598424D01*
X201296608Y-92753296D01*
X201203476Y-92892677D01*
X201084942Y-93011211D01*
X200945561Y-93104343D01*
X200790689Y-93168493D01*
X200626277Y-93201196D01*
X200458645Y-93201196D01*
X200294233Y-93168493D01*
X200139361Y-93104343D01*
X199999980Y-93011211D01*
X199881446Y-92892677D01*
X199788314Y-92753296D01*
X199724164Y-92598424D01*
X199691461Y-92434012D01*
X199691461Y-92266380D01*
X199724164Y-92101968D01*
X199788314Y-91947096D01*
X199881446Y-91807715D01*
X199999980Y-91689181D01*
X200139361Y-91596049D01*
X200294233Y-91531899D01*
X200458645Y-91499196D01*
X200626277Y-91499196D01*
X200790689Y-91531899D01*
G37*
G36*
X163521228Y-91115503D02*
G01*
X163676100Y-91179653D01*
X163815481Y-91272785D01*
X163934015Y-91391319D01*
X164027147Y-91530700D01*
X164091297Y-91685572D01*
X164124000Y-91849984D01*
X164124000Y-92017616D01*
X164091297Y-92182028D01*
X164027147Y-92336900D01*
X163934015Y-92476281D01*
X163815481Y-92594815D01*
X163676100Y-92687947D01*
X163521228Y-92752097D01*
X163356816Y-92784800D01*
X163189184Y-92784800D01*
X163024772Y-92752097D01*
X162869900Y-92687947D01*
X162730519Y-92594815D01*
X162611985Y-92476281D01*
X162518853Y-92336900D01*
X162454703Y-92182028D01*
X162422000Y-92017616D01*
X162422000Y-91849984D01*
X162454703Y-91685572D01*
X162518853Y-91530700D01*
X162611985Y-91391319D01*
X162730519Y-91272785D01*
X162869900Y-91179653D01*
X163024772Y-91115503D01*
X163189184Y-91082800D01*
X163356816Y-91082800D01*
X163521228Y-91115503D01*
G37*
G36*
X155901228Y-91115503D02*
G01*
X156056100Y-91179653D01*
X156195481Y-91272785D01*
X156314015Y-91391319D01*
X156407147Y-91530700D01*
X156471297Y-91685572D01*
X156504000Y-91849984D01*
X156504000Y-92017616D01*
X156471297Y-92182028D01*
X156407147Y-92336900D01*
X156314015Y-92476281D01*
X156195481Y-92594815D01*
X156056100Y-92687947D01*
X155901228Y-92752097D01*
X155736816Y-92784800D01*
X155569184Y-92784800D01*
X155404772Y-92752097D01*
X155249900Y-92687947D01*
X155110519Y-92594815D01*
X154991985Y-92476281D01*
X154898853Y-92336900D01*
X154834703Y-92182028D01*
X154802000Y-92017616D01*
X154802000Y-91849984D01*
X154834703Y-91685572D01*
X154898853Y-91530700D01*
X154991985Y-91391319D01*
X155110519Y-91272785D01*
X155249900Y-91179653D01*
X155404772Y-91115503D01*
X155569184Y-91082800D01*
X155736816Y-91082800D01*
X155901228Y-91115503D01*
G37*
G36*
X150886642Y-91133581D02*
G01*
X151032414Y-91193962D01*
X151032416Y-91193963D01*
X151163608Y-91281622D01*
X151275178Y-91393192D01*
X151362837Y-91524384D01*
X151362838Y-91524386D01*
X151423219Y-91670158D01*
X151454000Y-91824907D01*
X151454000Y-91982693D01*
X151423219Y-92137442D01*
X151367011Y-92273140D01*
X151362837Y-92283216D01*
X151275178Y-92414408D01*
X151163608Y-92525978D01*
X151032416Y-92613637D01*
X151032415Y-92613638D01*
X151032414Y-92613638D01*
X150886642Y-92674019D01*
X150731893Y-92704800D01*
X150574107Y-92704800D01*
X150419358Y-92674019D01*
X150273586Y-92613638D01*
X150273585Y-92613638D01*
X150273584Y-92613637D01*
X150142392Y-92525978D01*
X150030822Y-92414408D01*
X149943163Y-92283216D01*
X149938989Y-92273140D01*
X149882781Y-92137442D01*
X149852000Y-91982693D01*
X149852000Y-91824907D01*
X149882781Y-91670158D01*
X149943162Y-91524386D01*
X149943163Y-91524384D01*
X150030822Y-91393192D01*
X150142392Y-91281622D01*
X150273584Y-91193963D01*
X150273586Y-91193962D01*
X150419358Y-91133581D01*
X150574107Y-91102800D01*
X150731893Y-91102800D01*
X150886642Y-91133581D01*
G37*
G36*
X189151228Y-90085503D02*
G01*
X189306100Y-90149653D01*
X189445481Y-90242785D01*
X189564015Y-90361319D01*
X189657147Y-90500700D01*
X189721297Y-90655572D01*
X189754000Y-90819984D01*
X189754000Y-90987616D01*
X189721297Y-91152028D01*
X189657147Y-91306900D01*
X189564015Y-91446281D01*
X189445481Y-91564815D01*
X189306100Y-91657947D01*
X189151228Y-91722097D01*
X188986816Y-91754800D01*
X188819184Y-91754800D01*
X188654772Y-91722097D01*
X188499900Y-91657947D01*
X188360519Y-91564815D01*
X188241985Y-91446281D01*
X188148853Y-91306900D01*
X188084703Y-91152028D01*
X188052000Y-90987616D01*
X188052000Y-90819984D01*
X188084703Y-90655572D01*
X188148853Y-90500700D01*
X188241985Y-90361319D01*
X188360519Y-90242785D01*
X188499900Y-90149653D01*
X188654772Y-90085503D01*
X188819184Y-90052800D01*
X188986816Y-90052800D01*
X189151228Y-90085503D01*
G37*
G36*
X186254000Y-91754800D02*
G01*
X184552000Y-91754800D01*
X184552000Y-90052800D01*
X186254000Y-90052800D01*
X186254000Y-91754800D01*
G37*
G36*
X141999072Y-88936918D02*
G01*
X142228692Y-89032029D01*
X142244939Y-89038759D01*
X142254002Y-89044815D01*
X142398170Y-89141145D01*
X142466212Y-89186610D01*
X142654390Y-89374788D01*
X142772733Y-89551899D01*
X142802242Y-89596063D01*
X142904082Y-89841928D01*
X142956000Y-90102937D01*
X142956000Y-90369063D01*
X142929816Y-90500700D01*
X142904082Y-90630072D01*
X142802241Y-90875939D01*
X142777694Y-90912676D01*
X142654391Y-91097211D01*
X142466211Y-91285391D01*
X142356328Y-91358813D01*
X142244939Y-91433241D01*
X142244938Y-91433242D01*
X142244937Y-91433242D01*
X141999072Y-91535082D01*
X141738063Y-91587000D01*
X141471937Y-91587000D01*
X141210928Y-91535082D01*
X140965063Y-91433242D01*
X140965062Y-91433242D01*
X140965061Y-91433241D01*
X140853672Y-91358813D01*
X140743789Y-91285391D01*
X140555609Y-91097211D01*
X140432306Y-90912676D01*
X140407759Y-90875939D01*
X140305918Y-90630072D01*
X140280184Y-90500700D01*
X140254000Y-90369063D01*
X140254000Y-90102937D01*
X140305918Y-89841928D01*
X140407758Y-89596063D01*
X140437268Y-89551899D01*
X140555610Y-89374788D01*
X140743788Y-89186610D01*
X140811831Y-89141145D01*
X140955998Y-89044815D01*
X140965061Y-89038759D01*
X140981309Y-89032029D01*
X141210928Y-88936918D01*
X141471937Y-88885000D01*
X141738063Y-88885000D01*
X141999072Y-88936918D01*
G37*
G36*
X197361228Y-89551899D02*
G01*
X197516100Y-89616049D01*
X197655481Y-89709181D01*
X197774015Y-89827715D01*
X197867147Y-89967096D01*
X197931297Y-90121968D01*
X197964000Y-90286380D01*
X197964000Y-90454012D01*
X197931297Y-90618424D01*
X197867147Y-90773296D01*
X197774015Y-90912677D01*
X197655481Y-91031211D01*
X197516100Y-91124343D01*
X197361228Y-91188493D01*
X197196816Y-91221196D01*
X197029184Y-91221196D01*
X196864772Y-91188493D01*
X196709900Y-91124343D01*
X196570519Y-91031211D01*
X196451985Y-90912677D01*
X196358853Y-90773296D01*
X196294703Y-90618424D01*
X196262000Y-90454012D01*
X196262000Y-90286380D01*
X196294703Y-90121968D01*
X196358853Y-89967096D01*
X196451985Y-89827715D01*
X196570519Y-89709181D01*
X196709900Y-89616049D01*
X196864772Y-89551899D01*
X197029184Y-89519196D01*
X197196816Y-89519196D01*
X197361228Y-89551899D01*
G37*
G36*
X199648458Y-89550300D02*
G01*
X199803330Y-89614450D01*
X199942711Y-89707582D01*
X200061245Y-89826116D01*
X200154377Y-89965497D01*
X200218527Y-90120369D01*
X200251230Y-90284781D01*
X200251230Y-90452413D01*
X200218527Y-90616825D01*
X200154377Y-90771697D01*
X200061245Y-90911078D01*
X199942711Y-91029612D01*
X199803330Y-91122744D01*
X199648458Y-91186894D01*
X199484046Y-91219597D01*
X199316414Y-91219597D01*
X199152002Y-91186894D01*
X198997130Y-91122744D01*
X198857749Y-91029612D01*
X198739215Y-90911078D01*
X198646083Y-90771697D01*
X198581933Y-90616825D01*
X198549230Y-90452413D01*
X198549230Y-90284781D01*
X198581933Y-90120369D01*
X198646083Y-89965497D01*
X198739215Y-89826116D01*
X198857749Y-89707582D01*
X198997130Y-89614450D01*
X199152002Y-89550300D01*
X199316414Y-89517597D01*
X199484046Y-89517597D01*
X199648458Y-89550300D01*
G37*
G36*
X201935689Y-89548701D02*
G01*
X202090561Y-89612851D01*
X202229942Y-89705983D01*
X202348476Y-89824517D01*
X202441608Y-89963898D01*
X202505758Y-90118770D01*
X202538461Y-90283182D01*
X202538461Y-90450814D01*
X202505758Y-90615226D01*
X202441608Y-90770098D01*
X202348476Y-90909479D01*
X202229942Y-91028013D01*
X202090561Y-91121145D01*
X201935689Y-91185295D01*
X201771277Y-91217998D01*
X201603645Y-91217998D01*
X201439233Y-91185295D01*
X201284361Y-91121145D01*
X201144980Y-91028013D01*
X201026446Y-90909479D01*
X200933314Y-90770098D01*
X200869164Y-90615226D01*
X200836461Y-90450814D01*
X200836461Y-90283182D01*
X200869164Y-90118770D01*
X200933314Y-89963898D01*
X201026446Y-89824517D01*
X201144980Y-89705983D01*
X201284361Y-89612851D01*
X201439233Y-89548701D01*
X201603645Y-89515998D01*
X201771277Y-89515998D01*
X201935689Y-89548701D01*
G37*
G36*
X163521228Y-88575503D02*
G01*
X163676100Y-88639653D01*
X163815481Y-88732785D01*
X163934015Y-88851319D01*
X164027147Y-88990700D01*
X164091297Y-89145572D01*
X164124000Y-89309984D01*
X164124000Y-89477616D01*
X164091297Y-89642028D01*
X164027147Y-89796900D01*
X163934015Y-89936281D01*
X163815481Y-90054815D01*
X163676100Y-90147947D01*
X163521228Y-90212097D01*
X163356816Y-90244800D01*
X163189184Y-90244800D01*
X163024772Y-90212097D01*
X162869900Y-90147947D01*
X162730519Y-90054815D01*
X162611985Y-89936281D01*
X162518853Y-89796900D01*
X162454703Y-89642028D01*
X162422000Y-89477616D01*
X162422000Y-89309984D01*
X162454703Y-89145572D01*
X162518853Y-88990700D01*
X162611985Y-88851319D01*
X162730519Y-88732785D01*
X162869900Y-88639653D01*
X163024772Y-88575503D01*
X163189184Y-88542800D01*
X163356816Y-88542800D01*
X163521228Y-88575503D01*
G37*
G36*
X155901228Y-88575503D02*
G01*
X156056100Y-88639653D01*
X156195481Y-88732785D01*
X156314015Y-88851319D01*
X156407147Y-88990700D01*
X156471297Y-89145572D01*
X156504000Y-89309984D01*
X156504000Y-89477616D01*
X156471297Y-89642028D01*
X156407147Y-89796900D01*
X156314015Y-89936281D01*
X156195481Y-90054815D01*
X156056100Y-90147947D01*
X155901228Y-90212097D01*
X155736816Y-90244800D01*
X155569184Y-90244800D01*
X155404772Y-90212097D01*
X155249900Y-90147947D01*
X155110519Y-90054815D01*
X154991985Y-89936281D01*
X154898853Y-89796900D01*
X154834703Y-89642028D01*
X154802000Y-89477616D01*
X154802000Y-89309984D01*
X154834703Y-89145572D01*
X154898853Y-88990700D01*
X154991985Y-88851319D01*
X155110519Y-88732785D01*
X155249900Y-88639653D01*
X155404772Y-88575503D01*
X155569184Y-88542800D01*
X155736816Y-88542800D01*
X155901228Y-88575503D01*
G37*
G36*
X168151228Y-87965503D02*
G01*
X168306100Y-88029653D01*
X168445481Y-88122785D01*
X168564015Y-88241319D01*
X168657147Y-88380700D01*
X168721297Y-88535572D01*
X168754000Y-88699984D01*
X168754000Y-88867616D01*
X168721297Y-89032028D01*
X168657147Y-89186900D01*
X168564015Y-89326281D01*
X168445481Y-89444815D01*
X168306100Y-89537947D01*
X168151228Y-89602097D01*
X167986816Y-89634800D01*
X167819184Y-89634800D01*
X167654772Y-89602097D01*
X167499900Y-89537947D01*
X167360519Y-89444815D01*
X167241985Y-89326281D01*
X167148853Y-89186900D01*
X167084703Y-89032028D01*
X167052000Y-88867616D01*
X167052000Y-88699984D01*
X167084703Y-88535572D01*
X167148853Y-88380700D01*
X167241985Y-88241319D01*
X167360519Y-88122785D01*
X167499900Y-88029653D01*
X167654772Y-87965503D01*
X167819184Y-87932800D01*
X167986816Y-87932800D01*
X168151228Y-87965503D01*
G37*
G36*
X198506228Y-87568701D02*
G01*
X198661100Y-87632851D01*
X198800481Y-87725983D01*
X198919015Y-87844517D01*
X199012147Y-87983898D01*
X199076297Y-88138770D01*
X199109000Y-88303182D01*
X199109000Y-88470814D01*
X199076297Y-88635226D01*
X199012147Y-88790098D01*
X198919015Y-88929479D01*
X198800481Y-89048013D01*
X198661100Y-89141145D01*
X198506228Y-89205295D01*
X198341816Y-89237998D01*
X198174184Y-89237998D01*
X198009772Y-89205295D01*
X197854900Y-89141145D01*
X197715519Y-89048013D01*
X197596985Y-88929479D01*
X197503853Y-88790098D01*
X197439703Y-88635226D01*
X197407000Y-88470814D01*
X197407000Y-88303182D01*
X197439703Y-88138770D01*
X197503853Y-87983898D01*
X197596985Y-87844517D01*
X197715519Y-87725983D01*
X197854900Y-87632851D01*
X198009772Y-87568701D01*
X198174184Y-87535998D01*
X198341816Y-87535998D01*
X198506228Y-87568701D01*
G37*
G36*
X200793458Y-87567102D02*
G01*
X200948330Y-87631252D01*
X201087711Y-87724384D01*
X201206245Y-87842918D01*
X201299377Y-87982299D01*
X201363527Y-88137171D01*
X201396230Y-88301583D01*
X201396230Y-88469215D01*
X201363527Y-88633627D01*
X201299377Y-88788499D01*
X201206245Y-88927880D01*
X201087711Y-89046414D01*
X200948330Y-89139546D01*
X200793458Y-89203696D01*
X200629046Y-89236399D01*
X200461414Y-89236399D01*
X200297002Y-89203696D01*
X200142130Y-89139546D01*
X200002749Y-89046414D01*
X199884215Y-88927880D01*
X199791083Y-88788499D01*
X199726933Y-88633627D01*
X199694230Y-88469215D01*
X199694230Y-88301583D01*
X199726933Y-88137171D01*
X199791083Y-87982299D01*
X199884215Y-87842918D01*
X200002749Y-87724384D01*
X200142130Y-87631252D01*
X200297002Y-87567102D01*
X200461414Y-87534399D01*
X200629046Y-87534399D01*
X200793458Y-87567102D01*
G37*
G36*
X203080689Y-87565503D02*
G01*
X203235561Y-87629653D01*
X203374942Y-87722785D01*
X203493476Y-87841319D01*
X203586608Y-87980700D01*
X203650758Y-88135572D01*
X203683461Y-88299984D01*
X203683461Y-88467616D01*
X203650758Y-88632028D01*
X203586608Y-88786900D01*
X203493476Y-88926281D01*
X203374942Y-89044815D01*
X203235561Y-89137947D01*
X203080689Y-89202097D01*
X202916277Y-89234800D01*
X202748645Y-89234800D01*
X202584233Y-89202097D01*
X202429361Y-89137947D01*
X202289980Y-89044815D01*
X202171446Y-88926281D01*
X202078314Y-88786900D01*
X202014164Y-88632028D01*
X201981461Y-88467616D01*
X201981461Y-88299984D01*
X202014164Y-88135572D01*
X202078314Y-87980700D01*
X202171446Y-87841319D01*
X202289980Y-87722785D01*
X202429361Y-87629653D01*
X202584233Y-87565503D01*
X202748645Y-87532800D01*
X202916277Y-87532800D01*
X203080689Y-87565503D01*
G37*
G36*
X163521228Y-86035503D02*
G01*
X163676100Y-86099653D01*
X163815481Y-86192785D01*
X163934015Y-86311319D01*
X164027147Y-86450700D01*
X164091297Y-86605572D01*
X164124000Y-86769984D01*
X164124000Y-86937616D01*
X164091297Y-87102028D01*
X164027147Y-87256900D01*
X163934015Y-87396281D01*
X163815481Y-87514815D01*
X163676100Y-87607947D01*
X163521228Y-87672097D01*
X163356816Y-87704800D01*
X163189184Y-87704800D01*
X163024772Y-87672097D01*
X162869900Y-87607947D01*
X162730519Y-87514815D01*
X162611985Y-87396281D01*
X162518853Y-87256900D01*
X162454703Y-87102028D01*
X162422000Y-86937616D01*
X162422000Y-86769984D01*
X162454703Y-86605572D01*
X162518853Y-86450700D01*
X162611985Y-86311319D01*
X162730519Y-86192785D01*
X162869900Y-86099653D01*
X163024772Y-86035503D01*
X163189184Y-86002800D01*
X163356816Y-86002800D01*
X163521228Y-86035503D01*
G37*
G36*
X155901228Y-86035503D02*
G01*
X156056100Y-86099653D01*
X156195481Y-86192785D01*
X156314015Y-86311319D01*
X156407147Y-86450700D01*
X156471297Y-86605572D01*
X156504000Y-86769984D01*
X156504000Y-86937616D01*
X156471297Y-87102028D01*
X156407147Y-87256900D01*
X156314015Y-87396281D01*
X156195481Y-87514815D01*
X156056100Y-87607947D01*
X155901228Y-87672097D01*
X155736816Y-87704800D01*
X155569184Y-87704800D01*
X155404772Y-87672097D01*
X155249900Y-87607947D01*
X155110519Y-87514815D01*
X154991985Y-87396281D01*
X154898853Y-87256900D01*
X154834703Y-87102028D01*
X154802000Y-86937616D01*
X154802000Y-86769984D01*
X154834703Y-86605572D01*
X154898853Y-86450700D01*
X154991985Y-86311319D01*
X155110519Y-86192785D01*
X155249900Y-86099653D01*
X155404772Y-86035503D01*
X155569184Y-86002800D01*
X155736816Y-86002800D01*
X155901228Y-86035503D01*
G37*
G36*
X200565488Y-86092312D02*
G01*
X199714488Y-87566288D01*
X198240512Y-86715288D01*
X199091512Y-85241312D01*
X200565488Y-86092312D01*
G37*
G36*
X150901228Y-85585503D02*
G01*
X151056100Y-85649653D01*
X151195481Y-85742785D01*
X151314015Y-85861319D01*
X151407147Y-86000700D01*
X151471297Y-86155572D01*
X151504000Y-86319984D01*
X151504000Y-86487616D01*
X151471297Y-86652028D01*
X151407147Y-86806900D01*
X151314015Y-86946281D01*
X151195481Y-87064815D01*
X151056100Y-87157947D01*
X150901228Y-87222097D01*
X150736816Y-87254800D01*
X150569184Y-87254800D01*
X150404772Y-87222097D01*
X150249900Y-87157947D01*
X150110519Y-87064815D01*
X149991985Y-86946281D01*
X149898853Y-86806900D01*
X149834703Y-86652028D01*
X149802000Y-86487616D01*
X149802000Y-86319984D01*
X149834703Y-86155572D01*
X149898853Y-86000700D01*
X149991985Y-85861319D01*
X150110519Y-85742785D01*
X150249900Y-85649653D01*
X150404772Y-85585503D01*
X150569184Y-85552800D01*
X150736816Y-85552800D01*
X150901228Y-85585503D01*
G37*
G36*
X201938458Y-85583904D02*
G01*
X202093330Y-85648054D01*
X202232711Y-85741186D01*
X202351245Y-85859720D01*
X202444377Y-85999101D01*
X202508527Y-86153973D01*
X202541230Y-86318385D01*
X202541230Y-86486017D01*
X202508527Y-86650429D01*
X202444377Y-86805301D01*
X202351245Y-86944682D01*
X202232711Y-87063216D01*
X202093330Y-87156348D01*
X201938458Y-87220498D01*
X201774046Y-87253201D01*
X201606414Y-87253201D01*
X201442002Y-87220498D01*
X201287130Y-87156348D01*
X201147749Y-87063216D01*
X201029215Y-86944682D01*
X200936083Y-86805301D01*
X200871933Y-86650429D01*
X200839230Y-86486017D01*
X200839230Y-86318385D01*
X200871933Y-86153973D01*
X200936083Y-85999101D01*
X201029215Y-85859720D01*
X201147749Y-85741186D01*
X201287130Y-85648054D01*
X201442002Y-85583904D01*
X201606414Y-85551201D01*
X201774046Y-85551201D01*
X201938458Y-85583904D01*
G37*
G36*
X141999072Y-83936918D02*
G01*
X142244939Y-84038759D01*
X142285067Y-84065572D01*
X142466211Y-84186609D01*
X142654391Y-84374789D01*
X142727813Y-84484672D01*
X142779501Y-84562028D01*
X142802242Y-84596063D01*
X142904082Y-84841928D01*
X142956000Y-85102937D01*
X142956000Y-85369063D01*
X142904082Y-85630072D01*
X142802242Y-85875937D01*
X142654391Y-86097211D01*
X142466211Y-86285391D01*
X142356328Y-86358813D01*
X142244939Y-86433241D01*
X142244938Y-86433242D01*
X142244937Y-86433242D01*
X141999072Y-86535082D01*
X141738063Y-86587000D01*
X141471937Y-86587000D01*
X141210928Y-86535082D01*
X140965063Y-86433242D01*
X140965062Y-86433242D01*
X140965061Y-86433241D01*
X140853672Y-86358813D01*
X140743789Y-86285391D01*
X140555609Y-86097211D01*
X140407758Y-85875937D01*
X140305918Y-85630072D01*
X140254000Y-85369063D01*
X140254000Y-85102937D01*
X140305918Y-84841928D01*
X140407758Y-84596063D01*
X140430500Y-84562028D01*
X140482187Y-84484672D01*
X140555609Y-84374789D01*
X140743789Y-84186609D01*
X140924933Y-84065572D01*
X140965061Y-84038759D01*
X141210928Y-83936918D01*
X141471937Y-83885000D01*
X141738063Y-83885000D01*
X141999072Y-83936918D01*
G37*
G36*
X163521228Y-83495503D02*
G01*
X163676100Y-83559653D01*
X163815481Y-83652785D01*
X163934015Y-83771319D01*
X164027147Y-83910700D01*
X164091297Y-84065572D01*
X164124000Y-84229984D01*
X164124000Y-84397616D01*
X164091297Y-84562028D01*
X164027147Y-84716900D01*
X163934015Y-84856281D01*
X163815481Y-84974815D01*
X163676100Y-85067947D01*
X163521228Y-85132097D01*
X163356816Y-85164800D01*
X163189184Y-85164800D01*
X163024772Y-85132097D01*
X162869900Y-85067947D01*
X162730519Y-84974815D01*
X162611985Y-84856281D01*
X162518853Y-84716900D01*
X162454703Y-84562028D01*
X162422000Y-84397616D01*
X162422000Y-84229984D01*
X162454703Y-84065572D01*
X162518853Y-83910700D01*
X162611985Y-83771319D01*
X162730519Y-83652785D01*
X162869900Y-83559653D01*
X163024772Y-83495503D01*
X163189184Y-83462800D01*
X163356816Y-83462800D01*
X163521228Y-83495503D01*
G37*
G36*
X155901228Y-83495503D02*
G01*
X156056100Y-83559653D01*
X156195481Y-83652785D01*
X156314015Y-83771319D01*
X156407147Y-83910700D01*
X156471297Y-84065572D01*
X156504000Y-84229984D01*
X156504000Y-84397616D01*
X156471297Y-84562028D01*
X156407147Y-84716900D01*
X156314015Y-84856281D01*
X156195481Y-84974815D01*
X156056100Y-85067947D01*
X155901228Y-85132097D01*
X155736816Y-85164800D01*
X155569184Y-85164800D01*
X155404772Y-85132097D01*
X155249900Y-85067947D01*
X155110519Y-84974815D01*
X154991985Y-84856281D01*
X154898853Y-84716900D01*
X154834703Y-84562028D01*
X154802000Y-84397616D01*
X154802000Y-84229984D01*
X154834703Y-84065572D01*
X154898853Y-83910700D01*
X154991985Y-83771319D01*
X155110519Y-83652785D01*
X155249900Y-83559653D01*
X155404772Y-83495503D01*
X155569184Y-83462800D01*
X155736816Y-83462800D01*
X155901228Y-83495503D01*
G37*
G36*
X181804000Y-83054800D02*
G01*
X179502000Y-83054800D01*
X179502000Y-80752800D01*
X181804000Y-80752800D01*
X181804000Y-83054800D01*
G37*
G36*
X186804000Y-82804800D02*
G01*
X184502000Y-82804800D01*
X184502000Y-80502800D01*
X186804000Y-80502800D01*
X186804000Y-82804800D01*
G37*
G36*
X168151228Y-80955503D02*
G01*
X168306100Y-81019653D01*
X168445481Y-81112785D01*
X168564015Y-81231319D01*
X168657147Y-81370700D01*
X168721297Y-81525572D01*
X168754000Y-81689984D01*
X168754000Y-81857616D01*
X168721297Y-82022028D01*
X168657147Y-82176900D01*
X168564015Y-82316281D01*
X168445481Y-82434815D01*
X168306100Y-82527947D01*
X168151228Y-82592097D01*
X167986816Y-82624800D01*
X167819184Y-82624800D01*
X167654772Y-82592097D01*
X167499900Y-82527947D01*
X167360519Y-82434815D01*
X167241985Y-82316281D01*
X167148853Y-82176900D01*
X167084703Y-82022028D01*
X167052000Y-81857616D01*
X167052000Y-81689984D01*
X167084703Y-81525572D01*
X167148853Y-81370700D01*
X167241985Y-81231319D01*
X167360519Y-81112785D01*
X167499900Y-81019653D01*
X167654772Y-80955503D01*
X167819184Y-80922800D01*
X167986816Y-80922800D01*
X168151228Y-80955503D01*
G37*
G36*
X163521228Y-80955503D02*
G01*
X163676100Y-81019653D01*
X163815481Y-81112785D01*
X163934015Y-81231319D01*
X164027147Y-81370700D01*
X164091297Y-81525572D01*
X164124000Y-81689984D01*
X164124000Y-81857616D01*
X164091297Y-82022028D01*
X164027147Y-82176900D01*
X163934015Y-82316281D01*
X163815481Y-82434815D01*
X163676100Y-82527947D01*
X163521228Y-82592097D01*
X163356816Y-82624800D01*
X163189184Y-82624800D01*
X163024772Y-82592097D01*
X162869900Y-82527947D01*
X162730519Y-82434815D01*
X162611985Y-82316281D01*
X162518853Y-82176900D01*
X162454703Y-82022028D01*
X162422000Y-81857616D01*
X162422000Y-81689984D01*
X162454703Y-81525572D01*
X162518853Y-81370700D01*
X162611985Y-81231319D01*
X162730519Y-81112785D01*
X162869900Y-81019653D01*
X163024772Y-80955503D01*
X163189184Y-80922800D01*
X163356816Y-80922800D01*
X163521228Y-80955503D01*
G37*
G36*
X155901228Y-80955503D02*
G01*
X156056100Y-81019653D01*
X156195481Y-81112785D01*
X156314015Y-81231319D01*
X156407147Y-81370700D01*
X156471297Y-81525572D01*
X156504000Y-81689984D01*
X156504000Y-81857616D01*
X156471297Y-82022028D01*
X156407147Y-82176900D01*
X156314015Y-82316281D01*
X156195481Y-82434815D01*
X156056100Y-82527947D01*
X155901228Y-82592097D01*
X155736816Y-82624800D01*
X155569184Y-82624800D01*
X155404772Y-82592097D01*
X155249900Y-82527947D01*
X155110519Y-82434815D01*
X154991985Y-82316281D01*
X154898853Y-82176900D01*
X154834703Y-82022028D01*
X154802000Y-81857616D01*
X154802000Y-81689984D01*
X154834703Y-81525572D01*
X154898853Y-81370700D01*
X154991985Y-81231319D01*
X155110519Y-81112785D01*
X155249900Y-81019653D01*
X155404772Y-80955503D01*
X155569184Y-80922800D01*
X155736816Y-80922800D01*
X155901228Y-80955503D01*
G37*
G36*
X175771228Y-80955503D02*
G01*
X175926100Y-81019653D01*
X176065481Y-81112785D01*
X176184015Y-81231319D01*
X176277147Y-81370700D01*
X176341297Y-81525572D01*
X176374000Y-81689984D01*
X176374000Y-81857616D01*
X176341297Y-82022028D01*
X176277147Y-82176900D01*
X176184015Y-82316281D01*
X176065481Y-82434815D01*
X175926100Y-82527947D01*
X175771228Y-82592097D01*
X175606816Y-82624800D01*
X175439184Y-82624800D01*
X175274772Y-82592097D01*
X175119900Y-82527947D01*
X174980519Y-82434815D01*
X174861985Y-82316281D01*
X174768853Y-82176900D01*
X174704703Y-82022028D01*
X174672000Y-81857616D01*
X174672000Y-81689984D01*
X174704703Y-81525572D01*
X174768853Y-81370700D01*
X174861985Y-81231319D01*
X174980519Y-81112785D01*
X175119900Y-81019653D01*
X175274772Y-80955503D01*
X175439184Y-80922800D01*
X175606816Y-80922800D01*
X175771228Y-80955503D01*
G37*
G36*
X150901228Y-80585503D02*
G01*
X151056100Y-80649653D01*
X151195481Y-80742785D01*
X151314015Y-80861319D01*
X151407147Y-81000700D01*
X151471297Y-81155572D01*
X151504000Y-81319984D01*
X151504000Y-81487616D01*
X151471297Y-81652028D01*
X151407147Y-81806900D01*
X151314015Y-81946281D01*
X151195481Y-82064815D01*
X151056100Y-82157947D01*
X150901228Y-82222097D01*
X150736816Y-82254800D01*
X150569184Y-82254800D01*
X150404772Y-82222097D01*
X150249900Y-82157947D01*
X150110519Y-82064815D01*
X149991985Y-81946281D01*
X149898853Y-81806900D01*
X149834703Y-81652028D01*
X149802000Y-81487616D01*
X149802000Y-81319984D01*
X149834703Y-81155572D01*
X149898853Y-81000700D01*
X149991985Y-80861319D01*
X150110519Y-80742785D01*
X150249900Y-80649653D01*
X150404772Y-80585503D01*
X150569184Y-80552800D01*
X150736816Y-80552800D01*
X150901228Y-80585503D01*
G37*
G36*
X205323510Y-78053200D02*
G01*
X205696767Y-78207808D01*
X205696769Y-78207809D01*
X206032692Y-78432266D01*
X206318372Y-78717946D01*
X206497194Y-78985571D01*
X206542830Y-79053871D01*
X206697438Y-79427128D01*
X206776256Y-79823375D01*
X206776256Y-80227389D01*
X206697438Y-80623636D01*
X206598986Y-80861320D01*
X206542829Y-80996895D01*
X206318372Y-81332818D01*
X206032692Y-81618498D01*
X205696769Y-81842955D01*
X205696768Y-81842956D01*
X205696767Y-81842956D01*
X205323510Y-81997564D01*
X204927263Y-82076382D01*
X204523249Y-82076382D01*
X204127002Y-81997564D01*
X203753745Y-81842956D01*
X203753744Y-81842956D01*
X203753743Y-81842955D01*
X203417820Y-81618498D01*
X203132140Y-81332818D01*
X202907683Y-80996895D01*
X202851526Y-80861320D01*
X202753074Y-80623636D01*
X202674256Y-80227389D01*
X202674256Y-79823375D01*
X202753074Y-79427128D01*
X202907682Y-79053871D01*
X202953319Y-78985571D01*
X203132140Y-78717946D01*
X203417820Y-78432266D01*
X203753743Y-78207809D01*
X203753745Y-78207808D01*
X204127002Y-78053200D01*
X204523249Y-77974382D01*
X204927263Y-77974382D01*
X205323510Y-78053200D01*
G37*
G36*
X142956000Y-81587000D02*
G01*
X140254000Y-81587000D01*
X140254000Y-78885000D01*
X142956000Y-78885000D01*
X142956000Y-81587000D01*
G37*
G36*
X175771228Y-78415503D02*
G01*
X175926100Y-78479653D01*
X176065481Y-78572785D01*
X176184015Y-78691319D01*
X176277147Y-78830700D01*
X176341297Y-78985572D01*
X176374000Y-79149984D01*
X176374000Y-79317616D01*
X176341297Y-79482028D01*
X176277147Y-79636900D01*
X176184015Y-79776281D01*
X176065481Y-79894815D01*
X175926100Y-79987947D01*
X175771228Y-80052097D01*
X175606816Y-80084800D01*
X175439184Y-80084800D01*
X175274772Y-80052097D01*
X175119900Y-79987947D01*
X174980519Y-79894815D01*
X174861985Y-79776281D01*
X174768853Y-79636900D01*
X174704703Y-79482028D01*
X174672000Y-79317616D01*
X174672000Y-79149984D01*
X174704703Y-78985572D01*
X174768853Y-78830700D01*
X174861985Y-78691319D01*
X174980519Y-78572785D01*
X175119900Y-78479653D01*
X175274772Y-78415503D01*
X175439184Y-78382800D01*
X175606816Y-78382800D01*
X175771228Y-78415503D01*
G37*
G36*
X155901228Y-78415503D02*
G01*
X156056100Y-78479653D01*
X156195481Y-78572785D01*
X156314015Y-78691319D01*
X156407147Y-78830700D01*
X156471297Y-78985572D01*
X156504000Y-79149984D01*
X156504000Y-79317616D01*
X156471297Y-79482028D01*
X156407147Y-79636900D01*
X156314015Y-79776281D01*
X156195481Y-79894815D01*
X156056100Y-79987947D01*
X155901228Y-80052097D01*
X155736816Y-80084800D01*
X155569184Y-80084800D01*
X155404772Y-80052097D01*
X155249900Y-79987947D01*
X155110519Y-79894815D01*
X154991985Y-79776281D01*
X154898853Y-79636900D01*
X154834703Y-79482028D01*
X154802000Y-79317616D01*
X154802000Y-79149984D01*
X154834703Y-78985572D01*
X154898853Y-78830700D01*
X154991985Y-78691319D01*
X155110519Y-78572785D01*
X155249900Y-78479653D01*
X155404772Y-78415503D01*
X155569184Y-78382800D01*
X155736816Y-78382800D01*
X155901228Y-78415503D01*
G37*
G36*
X163521228Y-78415503D02*
G01*
X163676100Y-78479653D01*
X163815481Y-78572785D01*
X163934015Y-78691319D01*
X164027147Y-78830700D01*
X164091297Y-78985572D01*
X164124000Y-79149984D01*
X164124000Y-79317616D01*
X164091297Y-79482028D01*
X164027147Y-79636900D01*
X163934015Y-79776281D01*
X163815481Y-79894815D01*
X163676100Y-79987947D01*
X163521228Y-80052097D01*
X163356816Y-80084800D01*
X163189184Y-80084800D01*
X163024772Y-80052097D01*
X162869900Y-79987947D01*
X162730519Y-79894815D01*
X162611985Y-79776281D01*
X162518853Y-79636900D01*
X162454703Y-79482028D01*
X162422000Y-79317616D01*
X162422000Y-79149984D01*
X162454703Y-78985572D01*
X162518853Y-78830700D01*
X162611985Y-78691319D01*
X162730519Y-78572785D01*
X162869900Y-78479653D01*
X163024772Y-78415503D01*
X163189184Y-78382800D01*
X163356816Y-78382800D01*
X163521228Y-78415503D01*
G37*
G36*
X168151228Y-78415503D02*
G01*
X168306100Y-78479653D01*
X168445481Y-78572785D01*
X168564015Y-78691319D01*
X168657147Y-78830700D01*
X168721297Y-78985572D01*
X168754000Y-79149984D01*
X168754000Y-79317616D01*
X168721297Y-79482028D01*
X168657147Y-79636900D01*
X168564015Y-79776281D01*
X168445481Y-79894815D01*
X168306100Y-79987947D01*
X168151228Y-80052097D01*
X167986816Y-80084800D01*
X167819184Y-80084800D01*
X167654772Y-80052097D01*
X167499900Y-79987947D01*
X167360519Y-79894815D01*
X167241985Y-79776281D01*
X167148853Y-79636900D01*
X167084703Y-79482028D01*
X167052000Y-79317616D01*
X167052000Y-79149984D01*
X167084703Y-78985572D01*
X167148853Y-78830700D01*
X167241985Y-78691319D01*
X167360519Y-78572785D01*
X167499900Y-78479653D01*
X167654772Y-78415503D01*
X167819184Y-78382800D01*
X167986816Y-78382800D01*
X168151228Y-78415503D01*
G37*
G36*
X191901228Y-77585503D02*
G01*
X192056100Y-77649653D01*
X192195481Y-77742785D01*
X192314015Y-77861319D01*
X192407147Y-78000700D01*
X192471297Y-78155572D01*
X192504000Y-78319984D01*
X192504000Y-78487616D01*
X192471297Y-78652028D01*
X192407147Y-78806900D01*
X192314015Y-78946281D01*
X192195481Y-79064815D01*
X192056100Y-79157947D01*
X191901228Y-79222097D01*
X191736816Y-79254800D01*
X191569184Y-79254800D01*
X191404772Y-79222097D01*
X191249900Y-79157947D01*
X191110519Y-79064815D01*
X190991985Y-78946281D01*
X190898853Y-78806900D01*
X190834703Y-78652028D01*
X190802000Y-78487616D01*
X190802000Y-78319984D01*
X190834703Y-78155572D01*
X190898853Y-78000700D01*
X190991985Y-77861319D01*
X191110519Y-77742785D01*
X191249900Y-77649653D01*
X191404772Y-77585503D01*
X191569184Y-77552800D01*
X191736816Y-77552800D01*
X191901228Y-77585503D01*
G37*
G36*
X199521228Y-77585503D02*
G01*
X199676100Y-77649653D01*
X199815481Y-77742785D01*
X199934015Y-77861319D01*
X200027147Y-78000700D01*
X200091297Y-78155572D01*
X200124000Y-78319984D01*
X200124000Y-78487616D01*
X200091297Y-78652028D01*
X200027147Y-78806900D01*
X199934015Y-78946281D01*
X199815481Y-79064815D01*
X199676100Y-79157947D01*
X199521228Y-79222097D01*
X199356816Y-79254800D01*
X199189184Y-79254800D01*
X199024772Y-79222097D01*
X198869900Y-79157947D01*
X198730519Y-79064815D01*
X198611985Y-78946281D01*
X198518853Y-78806900D01*
X198454703Y-78652028D01*
X198422000Y-78487616D01*
X198422000Y-78319984D01*
X198454703Y-78155572D01*
X198518853Y-78000700D01*
X198611985Y-77861319D01*
X198730519Y-77742785D01*
X198869900Y-77649653D01*
X199024772Y-77585503D01*
X199189184Y-77552800D01*
X199356816Y-77552800D01*
X199521228Y-77585503D01*
G37*
G36*
X155901228Y-75875503D02*
G01*
X156056100Y-75939653D01*
X156195481Y-76032785D01*
X156314015Y-76151319D01*
X156407147Y-76290700D01*
X156471297Y-76445572D01*
X156504000Y-76609984D01*
X156504000Y-76777616D01*
X156471297Y-76942028D01*
X156407147Y-77096900D01*
X156314015Y-77236281D01*
X156195481Y-77354815D01*
X156056100Y-77447947D01*
X155901228Y-77512097D01*
X155736816Y-77544800D01*
X155569184Y-77544800D01*
X155404772Y-77512097D01*
X155249900Y-77447947D01*
X155110519Y-77354815D01*
X154991985Y-77236281D01*
X154898853Y-77096900D01*
X154834703Y-76942028D01*
X154802000Y-76777616D01*
X154802000Y-76609984D01*
X154834703Y-76445572D01*
X154898853Y-76290700D01*
X154991985Y-76151319D01*
X155110519Y-76032785D01*
X155249900Y-75939653D01*
X155404772Y-75875503D01*
X155569184Y-75842800D01*
X155736816Y-75842800D01*
X155901228Y-75875503D01*
G37*
G36*
X168151228Y-75875503D02*
G01*
X168306100Y-75939653D01*
X168445481Y-76032785D01*
X168564015Y-76151319D01*
X168657147Y-76290700D01*
X168721297Y-76445572D01*
X168754000Y-76609984D01*
X168754000Y-76777616D01*
X168721297Y-76942028D01*
X168657147Y-77096900D01*
X168564015Y-77236281D01*
X168445481Y-77354815D01*
X168306100Y-77447947D01*
X168151228Y-77512097D01*
X167986816Y-77544800D01*
X167819184Y-77544800D01*
X167654772Y-77512097D01*
X167499900Y-77447947D01*
X167360519Y-77354815D01*
X167241985Y-77236281D01*
X167148853Y-77096900D01*
X167084703Y-76942028D01*
X167052000Y-76777616D01*
X167052000Y-76609984D01*
X167084703Y-76445572D01*
X167148853Y-76290700D01*
X167241985Y-76151319D01*
X167360519Y-76032785D01*
X167499900Y-75939653D01*
X167654772Y-75875503D01*
X167819184Y-75842800D01*
X167986816Y-75842800D01*
X168151228Y-75875503D01*
G37*
G36*
X175771228Y-75875503D02*
G01*
X175926100Y-75939653D01*
X176065481Y-76032785D01*
X176184015Y-76151319D01*
X176277147Y-76290700D01*
X176341297Y-76445572D01*
X176374000Y-76609984D01*
X176374000Y-76777616D01*
X176341297Y-76942028D01*
X176277147Y-77096900D01*
X176184015Y-77236281D01*
X176065481Y-77354815D01*
X175926100Y-77447947D01*
X175771228Y-77512097D01*
X175606816Y-77544800D01*
X175439184Y-77544800D01*
X175274772Y-77512097D01*
X175119900Y-77447947D01*
X174980519Y-77354815D01*
X174861985Y-77236281D01*
X174768853Y-77096900D01*
X174704703Y-76942028D01*
X174672000Y-76777616D01*
X174672000Y-76609984D01*
X174704703Y-76445572D01*
X174768853Y-76290700D01*
X174861985Y-76151319D01*
X174980519Y-76032785D01*
X175119900Y-75939653D01*
X175274772Y-75875503D01*
X175439184Y-75842800D01*
X175606816Y-75842800D01*
X175771228Y-75875503D01*
G37*
G36*
X163521228Y-75875503D02*
G01*
X163676100Y-75939653D01*
X163815481Y-76032785D01*
X163934015Y-76151319D01*
X164027147Y-76290700D01*
X164091297Y-76445572D01*
X164124000Y-76609984D01*
X164124000Y-76777616D01*
X164091297Y-76942028D01*
X164027147Y-77096900D01*
X163934015Y-77236281D01*
X163815481Y-77354815D01*
X163676100Y-77447947D01*
X163521228Y-77512097D01*
X163356816Y-77544800D01*
X163189184Y-77544800D01*
X163024772Y-77512097D01*
X162869900Y-77447947D01*
X162730519Y-77354815D01*
X162611985Y-77236281D01*
X162518853Y-77096900D01*
X162454703Y-76942028D01*
X162422000Y-76777616D01*
X162422000Y-76609984D01*
X162454703Y-76445572D01*
X162518853Y-76290700D01*
X162611985Y-76151319D01*
X162730519Y-76032785D01*
X162869900Y-75939653D01*
X163024772Y-75875503D01*
X163189184Y-75842800D01*
X163356816Y-75842800D01*
X163521228Y-75875503D01*
G37*
G36*
X180877549Y-73154916D02*
G01*
X180988734Y-73177032D01*
X181198203Y-73263797D01*
X181386720Y-73389760D01*
X181547040Y-73550080D01*
X181673003Y-73738597D01*
X181673004Y-73738599D01*
X181759768Y-73948067D01*
X181804000Y-74170435D01*
X181804000Y-74397165D01*
X181803032Y-74402029D01*
X181759768Y-74619534D01*
X181673003Y-74829003D01*
X181547040Y-75017520D01*
X181386720Y-75177840D01*
X181198203Y-75303803D01*
X180988734Y-75390568D01*
X180877549Y-75412684D01*
X180766365Y-75434800D01*
X180539635Y-75434800D01*
X180428451Y-75412684D01*
X180317266Y-75390568D01*
X180107797Y-75303803D01*
X179919280Y-75177840D01*
X179758960Y-75017520D01*
X179632997Y-74829003D01*
X179546232Y-74619534D01*
X179502968Y-74402029D01*
X179502000Y-74397165D01*
X179502000Y-74170435D01*
X179546232Y-73948067D01*
X179632996Y-73738599D01*
X179632997Y-73738597D01*
X179758960Y-73550080D01*
X179919280Y-73389760D01*
X180107797Y-73263797D01*
X180317266Y-73177032D01*
X180428451Y-73154916D01*
X180539635Y-73132800D01*
X180766365Y-73132800D01*
X180877549Y-73154916D01*
G37*
G36*
X185877549Y-72904916D02*
G01*
X185988734Y-72927032D01*
X186198203Y-73013797D01*
X186386720Y-73139760D01*
X186547040Y-73300080D01*
X186673003Y-73488597D01*
X186759768Y-73698066D01*
X186770238Y-73750703D01*
X186801044Y-73905572D01*
X186804000Y-73920436D01*
X186804000Y-74147164D01*
X186759768Y-74369534D01*
X186673003Y-74579003D01*
X186547040Y-74767520D01*
X186386720Y-74927840D01*
X186198203Y-75053803D01*
X185988734Y-75140568D01*
X185877549Y-75162684D01*
X185766365Y-75184800D01*
X185539635Y-75184800D01*
X185428451Y-75162684D01*
X185317266Y-75140568D01*
X185107797Y-75053803D01*
X184919280Y-74927840D01*
X184758960Y-74767520D01*
X184632997Y-74579003D01*
X184546232Y-74369534D01*
X184502000Y-74147164D01*
X184502000Y-73920436D01*
X184504957Y-73905572D01*
X184535762Y-73750703D01*
X184546232Y-73698066D01*
X184632997Y-73488597D01*
X184758960Y-73300080D01*
X184919280Y-73139760D01*
X185107797Y-73013797D01*
X185317266Y-72927032D01*
X185428451Y-72904916D01*
X185539635Y-72882800D01*
X185766365Y-72882800D01*
X185877549Y-72904916D01*
G37*
G36*
X175771228Y-73335503D02*
G01*
X175926100Y-73399653D01*
X176065481Y-73492785D01*
X176184015Y-73611319D01*
X176277147Y-73750700D01*
X176341297Y-73905572D01*
X176374000Y-74069984D01*
X176374000Y-74237616D01*
X176341297Y-74402028D01*
X176277147Y-74556900D01*
X176184015Y-74696281D01*
X176065481Y-74814815D01*
X175926100Y-74907947D01*
X175771228Y-74972097D01*
X175606816Y-75004800D01*
X175439184Y-75004800D01*
X175274772Y-74972097D01*
X175119900Y-74907947D01*
X174980519Y-74814815D01*
X174861985Y-74696281D01*
X174768853Y-74556900D01*
X174704703Y-74402028D01*
X174672000Y-74237616D01*
X174672000Y-74069984D01*
X174704703Y-73905572D01*
X174768853Y-73750700D01*
X174861985Y-73611319D01*
X174980519Y-73492785D01*
X175119900Y-73399653D01*
X175274772Y-73335503D01*
X175439184Y-73302800D01*
X175606816Y-73302800D01*
X175771228Y-73335503D01*
G37*
G36*
X156504000Y-75004800D02*
G01*
X154802000Y-75004800D01*
X154802000Y-73302800D01*
X156504000Y-73302800D01*
X156504000Y-75004800D01*
G37*
G36*
X168754000Y-75004800D02*
G01*
X167052000Y-75004800D01*
X167052000Y-73302800D01*
X168754000Y-73302800D01*
X168754000Y-75004800D01*
G37*
G36*
X163521228Y-73335503D02*
G01*
X163676100Y-73399653D01*
X163815481Y-73492785D01*
X163934015Y-73611319D01*
X164027147Y-73750700D01*
X164091297Y-73905572D01*
X164124000Y-74069984D01*
X164124000Y-74237616D01*
X164091297Y-74402028D01*
X164027147Y-74556900D01*
X163934015Y-74696281D01*
X163815481Y-74814815D01*
X163676100Y-74907947D01*
X163521228Y-74972097D01*
X163356816Y-75004800D01*
X163189184Y-75004800D01*
X163024772Y-74972097D01*
X162869900Y-74907947D01*
X162730519Y-74814815D01*
X162611985Y-74696281D01*
X162518853Y-74556900D01*
X162454703Y-74402028D01*
X162422000Y-74237616D01*
X162422000Y-74069984D01*
X162454703Y-73905572D01*
X162518853Y-73750700D01*
X162611985Y-73611319D01*
X162730519Y-73492785D01*
X162869900Y-73399653D01*
X163024772Y-73335503D01*
X163189184Y-73302800D01*
X163356816Y-73302800D01*
X163521228Y-73335503D01*
G37*
G36*
X210188787Y-66739262D02*
G01*
X210188790Y-66739263D01*
X210188789Y-66739263D01*
X210835029Y-67006944D01*
X211416631Y-67395558D01*
X211911242Y-67890169D01*
X212299856Y-68471771D01*
X212409972Y-68737615D01*
X212567538Y-69118013D01*
X212704000Y-69804056D01*
X212704000Y-70503544D01*
X212567538Y-71189587D01*
X212567537Y-71189589D01*
X212299856Y-71835829D01*
X211911242Y-72417431D01*
X211416631Y-72912042D01*
X210835029Y-73300656D01*
X210462892Y-73454800D01*
X210188787Y-73568338D01*
X209502744Y-73704800D01*
X208803256Y-73704800D01*
X208117213Y-73568338D01*
X207843108Y-73454800D01*
X207470971Y-73300656D01*
X206889369Y-72912042D01*
X206394758Y-72417431D01*
X206006144Y-71835829D01*
X205738463Y-71189589D01*
X205738462Y-71189587D01*
X205602000Y-70503544D01*
X205602000Y-69804056D01*
X205738462Y-69118013D01*
X205896028Y-68737615D01*
X206006144Y-68471771D01*
X206394758Y-67890169D01*
X206889369Y-67395558D01*
X207470971Y-67006944D01*
X208117211Y-66739263D01*
X208117210Y-66739263D01*
X208117213Y-66739262D01*
X208803256Y-66602800D01*
X209502744Y-66602800D01*
X210188787Y-66739262D01*
G37*
G36*
X140188787Y-66489262D02*
G01*
X140188790Y-66489263D01*
X140188789Y-66489263D01*
X140835029Y-66756944D01*
X141416631Y-67145558D01*
X141911242Y-67640169D01*
X142299856Y-68221771D01*
X142427770Y-68530584D01*
X142567538Y-68868013D01*
X142704000Y-69554056D01*
X142704000Y-70253544D01*
X142567538Y-70939587D01*
X142567537Y-70939589D01*
X142299856Y-71585829D01*
X141911242Y-72167431D01*
X141416631Y-72662042D01*
X140835029Y-73050656D01*
X140529930Y-73177032D01*
X140188787Y-73318338D01*
X139502744Y-73454800D01*
X138803256Y-73454800D01*
X138117213Y-73318338D01*
X137776070Y-73177032D01*
X137470971Y-73050656D01*
X136889369Y-72662042D01*
X136394758Y-72167431D01*
X136006144Y-71585829D01*
X135738463Y-70939589D01*
X135738462Y-70939587D01*
X135602000Y-70253544D01*
X135602000Y-69554056D01*
X135738462Y-68868013D01*
X135878230Y-68530584D01*
X136006144Y-68221771D01*
X136394758Y-67640169D01*
X136889369Y-67145558D01*
X137470971Y-66756944D01*
X138117211Y-66489263D01*
X138117210Y-66489263D01*
X138117213Y-66489262D01*
X138803256Y-66352800D01*
X139502744Y-66352800D01*
X140188787Y-66489262D01*
G37*
G36*
X162901228Y-68085503D02*
G01*
X163056100Y-68149653D01*
X163195481Y-68242785D01*
X163314015Y-68361319D01*
X163407147Y-68500700D01*
X163471297Y-68655572D01*
X163504000Y-68819984D01*
X163504000Y-68987616D01*
X163471297Y-69152028D01*
X163407147Y-69306900D01*
X163314015Y-69446281D01*
X163195481Y-69564815D01*
X163056100Y-69657947D01*
X162901228Y-69722097D01*
X162736816Y-69754800D01*
X162569184Y-69754800D01*
X162404772Y-69722097D01*
X162249900Y-69657947D01*
X162110519Y-69564815D01*
X161991985Y-69446281D01*
X161898853Y-69306900D01*
X161834703Y-69152028D01*
X161802000Y-68987616D01*
X161802000Y-68819984D01*
X161834703Y-68655572D01*
X161898853Y-68500700D01*
X161991985Y-68361319D01*
X162110519Y-68242785D01*
X162249900Y-68149653D01*
X162404772Y-68085503D01*
X162569184Y-68052800D01*
X162736816Y-68052800D01*
X162901228Y-68085503D01*
G37*
G36*
X155281228Y-68085503D02*
G01*
X155436100Y-68149653D01*
X155575481Y-68242785D01*
X155694015Y-68361319D01*
X155787147Y-68500700D01*
X155851297Y-68655572D01*
X155884000Y-68819984D01*
X155884000Y-68987616D01*
X155851297Y-69152028D01*
X155787147Y-69306900D01*
X155694015Y-69446281D01*
X155575481Y-69564815D01*
X155436100Y-69657947D01*
X155281228Y-69722097D01*
X155116816Y-69754800D01*
X154949184Y-69754800D01*
X154784772Y-69722097D01*
X154629900Y-69657947D01*
X154490519Y-69564815D01*
X154371985Y-69446281D01*
X154278853Y-69306900D01*
X154214703Y-69152028D01*
X154182000Y-68987616D01*
X154182000Y-68819984D01*
X154214703Y-68655572D01*
X154278853Y-68500700D01*
X154371985Y-68361319D01*
X154490519Y-68242785D01*
X154629900Y-68149653D01*
X154784772Y-68085503D01*
X154949184Y-68052800D01*
X155116816Y-68052800D01*
X155281228Y-68085503D01*
G37*
G36*
X201651228Y-67835503D02*
G01*
X201806100Y-67899653D01*
X201945481Y-67992785D01*
X202064015Y-68111319D01*
X202157147Y-68250700D01*
X202221297Y-68405572D01*
X202254000Y-68569984D01*
X202254000Y-68737616D01*
X202221297Y-68902028D01*
X202157147Y-69056900D01*
X202064015Y-69196281D01*
X201945481Y-69314815D01*
X201806100Y-69407947D01*
X201651228Y-69472097D01*
X201486816Y-69504800D01*
X201319184Y-69504800D01*
X201154772Y-69472097D01*
X200999900Y-69407947D01*
X200860519Y-69314815D01*
X200741985Y-69196281D01*
X200648853Y-69056900D01*
X200584703Y-68902028D01*
X200552000Y-68737616D01*
X200552000Y-68569984D01*
X200584703Y-68405572D01*
X200648853Y-68250700D01*
X200741985Y-68111319D01*
X200860519Y-67992785D01*
X200999900Y-67899653D01*
X201154772Y-67835503D01*
X201319184Y-67802800D01*
X201486816Y-67802800D01*
X201651228Y-67835503D01*
G37*
G36*
X194031228Y-67835503D02*
G01*
X194186100Y-67899653D01*
X194325481Y-67992785D01*
X194444015Y-68111319D01*
X194537147Y-68250700D01*
X194601297Y-68405572D01*
X194634000Y-68569984D01*
X194634000Y-68737616D01*
X194601297Y-68902028D01*
X194537147Y-69056900D01*
X194444015Y-69196281D01*
X194325481Y-69314815D01*
X194186100Y-69407947D01*
X194031228Y-69472097D01*
X193866816Y-69504800D01*
X193699184Y-69504800D01*
X193534772Y-69472097D01*
X193379900Y-69407947D01*
X193240519Y-69314815D01*
X193121985Y-69196281D01*
X193028853Y-69056900D01*
X192964703Y-68902028D01*
X192932000Y-68737616D01*
X192932000Y-68569984D01*
X192964703Y-68405572D01*
X193028853Y-68250700D01*
X193121985Y-68111319D01*
X193240519Y-67992785D01*
X193379900Y-67899653D01*
X193534772Y-67835503D01*
X193699184Y-67802800D01*
X193866816Y-67802800D01*
X194031228Y-67835503D01*
G37*
G36*
X173976512Y-67207727D02*
G01*
X174125812Y-67237424D01*
X174289784Y-67305344D01*
X174437354Y-67403947D01*
X174562853Y-67529446D01*
X174661456Y-67677016D01*
X174729376Y-67840988D01*
X174764000Y-68015059D01*
X174764000Y-68192541D01*
X174729376Y-68366612D01*
X174661456Y-68530584D01*
X174562853Y-68678154D01*
X174437354Y-68803653D01*
X174289784Y-68902256D01*
X174125812Y-68970176D01*
X173976512Y-68999873D01*
X173951742Y-69004800D01*
X173774258Y-69004800D01*
X173749488Y-68999873D01*
X173600188Y-68970176D01*
X173436216Y-68902256D01*
X173288646Y-68803653D01*
X173163147Y-68678154D01*
X173064544Y-68530584D01*
X172996624Y-68366612D01*
X172962000Y-68192541D01*
X172962000Y-68015059D01*
X172996624Y-67840988D01*
X173064544Y-67677016D01*
X173163147Y-67529446D01*
X173288646Y-67403947D01*
X173436216Y-67305344D01*
X173600188Y-67237424D01*
X173749488Y-67207727D01*
X173774258Y-67202800D01*
X173951742Y-67202800D01*
X173976512Y-67207727D01*
G37*
G36*
X186676512Y-67207727D02*
G01*
X186825812Y-67237424D01*
X186989784Y-67305344D01*
X187137354Y-67403947D01*
X187262853Y-67529446D01*
X187361456Y-67677016D01*
X187429376Y-67840988D01*
X187464000Y-68015059D01*
X187464000Y-68192541D01*
X187429376Y-68366612D01*
X187361456Y-68530584D01*
X187262853Y-68678154D01*
X187137354Y-68803653D01*
X186989784Y-68902256D01*
X186825812Y-68970176D01*
X186676512Y-68999873D01*
X186651742Y-69004800D01*
X186474258Y-69004800D01*
X186449488Y-68999873D01*
X186300188Y-68970176D01*
X186136216Y-68902256D01*
X185988646Y-68803653D01*
X185863147Y-68678154D01*
X185764544Y-68530584D01*
X185696624Y-68366612D01*
X185662000Y-68192541D01*
X185662000Y-68015059D01*
X185696624Y-67840988D01*
X185764544Y-67677016D01*
X185863147Y-67529446D01*
X185988646Y-67403947D01*
X186136216Y-67305344D01*
X186300188Y-67237424D01*
X186449488Y-67207727D01*
X186474258Y-67202800D01*
X186651742Y-67202800D01*
X186676512Y-67207727D01*
G37*
G36*
X168896512Y-67207727D02*
G01*
X169045812Y-67237424D01*
X169209784Y-67305344D01*
X169357354Y-67403947D01*
X169482853Y-67529446D01*
X169581456Y-67677016D01*
X169649376Y-67840988D01*
X169684000Y-68015059D01*
X169684000Y-68192541D01*
X169649376Y-68366612D01*
X169581456Y-68530584D01*
X169482853Y-68678154D01*
X169357354Y-68803653D01*
X169209784Y-68902256D01*
X169045812Y-68970176D01*
X168896512Y-68999873D01*
X168871742Y-69004800D01*
X168694258Y-69004800D01*
X168669488Y-68999873D01*
X168520188Y-68970176D01*
X168356216Y-68902256D01*
X168208646Y-68803653D01*
X168083147Y-68678154D01*
X167984544Y-68530584D01*
X167916624Y-68366612D01*
X167882000Y-68192541D01*
X167882000Y-68015059D01*
X167916624Y-67840988D01*
X167984544Y-67677016D01*
X168083147Y-67529446D01*
X168208646Y-67403947D01*
X168356216Y-67305344D01*
X168520188Y-67237424D01*
X168669488Y-67207727D01*
X168694258Y-67202800D01*
X168871742Y-67202800D01*
X168896512Y-67207727D01*
G37*
G36*
X190004000Y-69004800D02*
G01*
X188202000Y-69004800D01*
X188202000Y-67202800D01*
X190004000Y-67202800D01*
X190004000Y-69004800D01*
G37*
G36*
X176516512Y-67207727D02*
G01*
X176665812Y-67237424D01*
X176829784Y-67305344D01*
X176977354Y-67403947D01*
X177102853Y-67529446D01*
X177201456Y-67677016D01*
X177269376Y-67840988D01*
X177304000Y-68015059D01*
X177304000Y-68192541D01*
X177269376Y-68366612D01*
X177201456Y-68530584D01*
X177102853Y-68678154D01*
X176977354Y-68803653D01*
X176829784Y-68902256D01*
X176665812Y-68970176D01*
X176516512Y-68999873D01*
X176491742Y-69004800D01*
X176314258Y-69004800D01*
X176289488Y-68999873D01*
X176140188Y-68970176D01*
X175976216Y-68902256D01*
X175828646Y-68803653D01*
X175703147Y-68678154D01*
X175604544Y-68530584D01*
X175536624Y-68366612D01*
X175502000Y-68192541D01*
X175502000Y-68015059D01*
X175536624Y-67840988D01*
X175604544Y-67677016D01*
X175703147Y-67529446D01*
X175828646Y-67403947D01*
X175976216Y-67305344D01*
X176140188Y-67237424D01*
X176289488Y-67207727D01*
X176314258Y-67202800D01*
X176491742Y-67202800D01*
X176516512Y-67207727D01*
G37*
G36*
X179056512Y-67207727D02*
G01*
X179205812Y-67237424D01*
X179369784Y-67305344D01*
X179517354Y-67403947D01*
X179642853Y-67529446D01*
X179741456Y-67677016D01*
X179809376Y-67840988D01*
X179844000Y-68015059D01*
X179844000Y-68192541D01*
X179809376Y-68366612D01*
X179741456Y-68530584D01*
X179642853Y-68678154D01*
X179517354Y-68803653D01*
X179369784Y-68902256D01*
X179205812Y-68970176D01*
X179056512Y-68999873D01*
X179031742Y-69004800D01*
X178854258Y-69004800D01*
X178829488Y-68999873D01*
X178680188Y-68970176D01*
X178516216Y-68902256D01*
X178368646Y-68803653D01*
X178243147Y-68678154D01*
X178144544Y-68530584D01*
X178076624Y-68366612D01*
X178042000Y-68192541D01*
X178042000Y-68015059D01*
X178076624Y-67840988D01*
X178144544Y-67677016D01*
X178243147Y-67529446D01*
X178368646Y-67403947D01*
X178516216Y-67305344D01*
X178680188Y-67237424D01*
X178829488Y-67207727D01*
X178854258Y-67202800D01*
X179031742Y-67202800D01*
X179056512Y-67207727D01*
G37*
G36*
X181596512Y-67207727D02*
G01*
X181745812Y-67237424D01*
X181909784Y-67305344D01*
X182057354Y-67403947D01*
X182182853Y-67529446D01*
X182281456Y-67677016D01*
X182349376Y-67840988D01*
X182384000Y-68015059D01*
X182384000Y-68192541D01*
X182349376Y-68366612D01*
X182281456Y-68530584D01*
X182182853Y-68678154D01*
X182057354Y-68803653D01*
X181909784Y-68902256D01*
X181745812Y-68970176D01*
X181596512Y-68999873D01*
X181571742Y-69004800D01*
X181394258Y-69004800D01*
X181369488Y-68999873D01*
X181220188Y-68970176D01*
X181056216Y-68902256D01*
X180908646Y-68803653D01*
X180783147Y-68678154D01*
X180684544Y-68530584D01*
X180616624Y-68366612D01*
X180582000Y-68192541D01*
X180582000Y-68015059D01*
X180616624Y-67840988D01*
X180684544Y-67677016D01*
X180783147Y-67529446D01*
X180908646Y-67403947D01*
X181056216Y-67305344D01*
X181220188Y-67237424D01*
X181369488Y-67207727D01*
X181394258Y-67202800D01*
X181571742Y-67202800D01*
X181596512Y-67207727D01*
G37*
G36*
X166356512Y-67207727D02*
G01*
X166505812Y-67237424D01*
X166669784Y-67305344D01*
X166817354Y-67403947D01*
X166942853Y-67529446D01*
X167041456Y-67677016D01*
X167109376Y-67840988D01*
X167144000Y-68015059D01*
X167144000Y-68192541D01*
X167109376Y-68366612D01*
X167041456Y-68530584D01*
X166942853Y-68678154D01*
X166817354Y-68803653D01*
X166669784Y-68902256D01*
X166505812Y-68970176D01*
X166356512Y-68999873D01*
X166331742Y-69004800D01*
X166154258Y-69004800D01*
X166129488Y-68999873D01*
X165980188Y-68970176D01*
X165816216Y-68902256D01*
X165668646Y-68803653D01*
X165543147Y-68678154D01*
X165444544Y-68530584D01*
X165376624Y-68366612D01*
X165342000Y-68192541D01*
X165342000Y-68015059D01*
X165376624Y-67840988D01*
X165444544Y-67677016D01*
X165543147Y-67529446D01*
X165668646Y-67403947D01*
X165816216Y-67305344D01*
X165980188Y-67237424D01*
X166129488Y-67207727D01*
X166154258Y-67202800D01*
X166331742Y-67202800D01*
X166356512Y-67207727D01*
G37*
G36*
X171436512Y-67207727D02*
G01*
X171585812Y-67237424D01*
X171749784Y-67305344D01*
X171897354Y-67403947D01*
X172022853Y-67529446D01*
X172121456Y-67677016D01*
X172189376Y-67840988D01*
X172224000Y-68015059D01*
X172224000Y-68192541D01*
X172189376Y-68366612D01*
X172121456Y-68530584D01*
X172022853Y-68678154D01*
X171897354Y-68803653D01*
X171749784Y-68902256D01*
X171585812Y-68970176D01*
X171436512Y-68999873D01*
X171411742Y-69004800D01*
X171234258Y-69004800D01*
X171209488Y-68999873D01*
X171060188Y-68970176D01*
X170896216Y-68902256D01*
X170748646Y-68803653D01*
X170623147Y-68678154D01*
X170524544Y-68530584D01*
X170456624Y-68366612D01*
X170422000Y-68192541D01*
X170422000Y-68015059D01*
X170456624Y-67840988D01*
X170524544Y-67677016D01*
X170623147Y-67529446D01*
X170748646Y-67403947D01*
X170896216Y-67305344D01*
X171060188Y-67237424D01*
X171209488Y-67207727D01*
X171234258Y-67202800D01*
X171411742Y-67202800D01*
X171436512Y-67207727D01*
G37*
G36*
X184136512Y-67207727D02*
G01*
X184285812Y-67237424D01*
X184449784Y-67305344D01*
X184597354Y-67403947D01*
X184722853Y-67529446D01*
X184821456Y-67677016D01*
X184889376Y-67840988D01*
X184924000Y-68015059D01*
X184924000Y-68192541D01*
X184889376Y-68366612D01*
X184821456Y-68530584D01*
X184722853Y-68678154D01*
X184597354Y-68803653D01*
X184449784Y-68902256D01*
X184285812Y-68970176D01*
X184136512Y-68999873D01*
X184111742Y-69004800D01*
X183934258Y-69004800D01*
X183909488Y-68999873D01*
X183760188Y-68970176D01*
X183596216Y-68902256D01*
X183448646Y-68803653D01*
X183323147Y-68678154D01*
X183224544Y-68530584D01*
X183156624Y-68366612D01*
X183122000Y-68192541D01*
X183122000Y-68015059D01*
X183156624Y-67840988D01*
X183224544Y-67677016D01*
X183323147Y-67529446D01*
X183448646Y-67403947D01*
X183596216Y-67305344D01*
X183760188Y-67237424D01*
X183909488Y-67207727D01*
X183934258Y-67202800D01*
X184111742Y-67202800D01*
X184136512Y-67207727D01*
G37*
G36*
X173976512Y-64667727D02*
G01*
X174125812Y-64697424D01*
X174289784Y-64765344D01*
X174437354Y-64863947D01*
X174562853Y-64989446D01*
X174661456Y-65137016D01*
X174729376Y-65300988D01*
X174764000Y-65475059D01*
X174764000Y-65652541D01*
X174729376Y-65826612D01*
X174661456Y-65990584D01*
X174562853Y-66138154D01*
X174437354Y-66263653D01*
X174289784Y-66362256D01*
X174125812Y-66430176D01*
X173976512Y-66459873D01*
X173951742Y-66464800D01*
X173774258Y-66464800D01*
X173749488Y-66459873D01*
X173600188Y-66430176D01*
X173436216Y-66362256D01*
X173288646Y-66263653D01*
X173163147Y-66138154D01*
X173064544Y-65990584D01*
X172996624Y-65826612D01*
X172962000Y-65652541D01*
X172962000Y-65475059D01*
X172996624Y-65300988D01*
X173064544Y-65137016D01*
X173163147Y-64989446D01*
X173288646Y-64863947D01*
X173436216Y-64765344D01*
X173600188Y-64697424D01*
X173749488Y-64667727D01*
X173774258Y-64662800D01*
X173951742Y-64662800D01*
X173976512Y-64667727D01*
G37*
G36*
X189216512Y-64667727D02*
G01*
X189365812Y-64697424D01*
X189529784Y-64765344D01*
X189677354Y-64863947D01*
X189802853Y-64989446D01*
X189901456Y-65137016D01*
X189969376Y-65300988D01*
X190004000Y-65475059D01*
X190004000Y-65652541D01*
X189969376Y-65826612D01*
X189901456Y-65990584D01*
X189802853Y-66138154D01*
X189677354Y-66263653D01*
X189529784Y-66362256D01*
X189365812Y-66430176D01*
X189216512Y-66459873D01*
X189191742Y-66464800D01*
X189014258Y-66464800D01*
X188989488Y-66459873D01*
X188840188Y-66430176D01*
X188676216Y-66362256D01*
X188528646Y-66263653D01*
X188403147Y-66138154D01*
X188304544Y-65990584D01*
X188236624Y-65826612D01*
X188202000Y-65652541D01*
X188202000Y-65475059D01*
X188236624Y-65300988D01*
X188304544Y-65137016D01*
X188403147Y-64989446D01*
X188528646Y-64863947D01*
X188676216Y-64765344D01*
X188840188Y-64697424D01*
X188989488Y-64667727D01*
X189014258Y-64662800D01*
X189191742Y-64662800D01*
X189216512Y-64667727D01*
G37*
G36*
X168896512Y-64667727D02*
G01*
X169045812Y-64697424D01*
X169209784Y-64765344D01*
X169357354Y-64863947D01*
X169482853Y-64989446D01*
X169581456Y-65137016D01*
X169649376Y-65300988D01*
X169684000Y-65475059D01*
X169684000Y-65652541D01*
X169649376Y-65826612D01*
X169581456Y-65990584D01*
X169482853Y-66138154D01*
X169357354Y-66263653D01*
X169209784Y-66362256D01*
X169045812Y-66430176D01*
X168896512Y-66459873D01*
X168871742Y-66464800D01*
X168694258Y-66464800D01*
X168669488Y-66459873D01*
X168520188Y-66430176D01*
X168356216Y-66362256D01*
X168208646Y-66263653D01*
X168083147Y-66138154D01*
X167984544Y-65990584D01*
X167916624Y-65826612D01*
X167882000Y-65652541D01*
X167882000Y-65475059D01*
X167916624Y-65300988D01*
X167984544Y-65137016D01*
X168083147Y-64989446D01*
X168208646Y-64863947D01*
X168356216Y-64765344D01*
X168520188Y-64697424D01*
X168669488Y-64667727D01*
X168694258Y-64662800D01*
X168871742Y-64662800D01*
X168896512Y-64667727D01*
G37*
G36*
X186676512Y-64667727D02*
G01*
X186825812Y-64697424D01*
X186989784Y-64765344D01*
X187137354Y-64863947D01*
X187262853Y-64989446D01*
X187361456Y-65137016D01*
X187429376Y-65300988D01*
X187464000Y-65475059D01*
X187464000Y-65652541D01*
X187429376Y-65826612D01*
X187361456Y-65990584D01*
X187262853Y-66138154D01*
X187137354Y-66263653D01*
X186989784Y-66362256D01*
X186825812Y-66430176D01*
X186676512Y-66459873D01*
X186651742Y-66464800D01*
X186474258Y-66464800D01*
X186449488Y-66459873D01*
X186300188Y-66430176D01*
X186136216Y-66362256D01*
X185988646Y-66263653D01*
X185863147Y-66138154D01*
X185764544Y-65990584D01*
X185696624Y-65826612D01*
X185662000Y-65652541D01*
X185662000Y-65475059D01*
X185696624Y-65300988D01*
X185764544Y-65137016D01*
X185863147Y-64989446D01*
X185988646Y-64863947D01*
X186136216Y-64765344D01*
X186300188Y-64697424D01*
X186449488Y-64667727D01*
X186474258Y-64662800D01*
X186651742Y-64662800D01*
X186676512Y-64667727D01*
G37*
G36*
X184136512Y-64667727D02*
G01*
X184285812Y-64697424D01*
X184449784Y-64765344D01*
X184597354Y-64863947D01*
X184722853Y-64989446D01*
X184821456Y-65137016D01*
X184889376Y-65300988D01*
X184924000Y-65475059D01*
X184924000Y-65652541D01*
X184889376Y-65826612D01*
X184821456Y-65990584D01*
X184722853Y-66138154D01*
X184597354Y-66263653D01*
X184449784Y-66362256D01*
X184285812Y-66430176D01*
X184136512Y-66459873D01*
X184111742Y-66464800D01*
X183934258Y-66464800D01*
X183909488Y-66459873D01*
X183760188Y-66430176D01*
X183596216Y-66362256D01*
X183448646Y-66263653D01*
X183323147Y-66138154D01*
X183224544Y-65990584D01*
X183156624Y-65826612D01*
X183122000Y-65652541D01*
X183122000Y-65475059D01*
X183156624Y-65300988D01*
X183224544Y-65137016D01*
X183323147Y-64989446D01*
X183448646Y-64863947D01*
X183596216Y-64765344D01*
X183760188Y-64697424D01*
X183909488Y-64667727D01*
X183934258Y-64662800D01*
X184111742Y-64662800D01*
X184136512Y-64667727D01*
G37*
G36*
X181596512Y-64667727D02*
G01*
X181745812Y-64697424D01*
X181909784Y-64765344D01*
X182057354Y-64863947D01*
X182182853Y-64989446D01*
X182281456Y-65137016D01*
X182349376Y-65300988D01*
X182384000Y-65475059D01*
X182384000Y-65652541D01*
X182349376Y-65826612D01*
X182281456Y-65990584D01*
X182182853Y-66138154D01*
X182057354Y-66263653D01*
X181909784Y-66362256D01*
X181745812Y-66430176D01*
X181596512Y-66459873D01*
X181571742Y-66464800D01*
X181394258Y-66464800D01*
X181369488Y-66459873D01*
X181220188Y-66430176D01*
X181056216Y-66362256D01*
X180908646Y-66263653D01*
X180783147Y-66138154D01*
X180684544Y-65990584D01*
X180616624Y-65826612D01*
X180582000Y-65652541D01*
X180582000Y-65475059D01*
X180616624Y-65300988D01*
X180684544Y-65137016D01*
X180783147Y-64989446D01*
X180908646Y-64863947D01*
X181056216Y-64765344D01*
X181220188Y-64697424D01*
X181369488Y-64667727D01*
X181394258Y-64662800D01*
X181571742Y-64662800D01*
X181596512Y-64667727D01*
G37*
G36*
X179056512Y-64667727D02*
G01*
X179205812Y-64697424D01*
X179369784Y-64765344D01*
X179517354Y-64863947D01*
X179642853Y-64989446D01*
X179741456Y-65137016D01*
X179809376Y-65300988D01*
X179844000Y-65475059D01*
X179844000Y-65652541D01*
X179809376Y-65826612D01*
X179741456Y-65990584D01*
X179642853Y-66138154D01*
X179517354Y-66263653D01*
X179369784Y-66362256D01*
X179205812Y-66430176D01*
X179056512Y-66459873D01*
X179031742Y-66464800D01*
X178854258Y-66464800D01*
X178829488Y-66459873D01*
X178680188Y-66430176D01*
X178516216Y-66362256D01*
X178368646Y-66263653D01*
X178243147Y-66138154D01*
X178144544Y-65990584D01*
X178076624Y-65826612D01*
X178042000Y-65652541D01*
X178042000Y-65475059D01*
X178076624Y-65300988D01*
X178144544Y-65137016D01*
X178243147Y-64989446D01*
X178368646Y-64863947D01*
X178516216Y-64765344D01*
X178680188Y-64697424D01*
X178829488Y-64667727D01*
X178854258Y-64662800D01*
X179031742Y-64662800D01*
X179056512Y-64667727D01*
G37*
G36*
X176516512Y-64667727D02*
G01*
X176665812Y-64697424D01*
X176829784Y-64765344D01*
X176977354Y-64863947D01*
X177102853Y-64989446D01*
X177201456Y-65137016D01*
X177269376Y-65300988D01*
X177304000Y-65475059D01*
X177304000Y-65652541D01*
X177269376Y-65826612D01*
X177201456Y-65990584D01*
X177102853Y-66138154D01*
X176977354Y-66263653D01*
X176829784Y-66362256D01*
X176665812Y-66430176D01*
X176516512Y-66459873D01*
X176491742Y-66464800D01*
X176314258Y-66464800D01*
X176289488Y-66459873D01*
X176140188Y-66430176D01*
X175976216Y-66362256D01*
X175828646Y-66263653D01*
X175703147Y-66138154D01*
X175604544Y-65990584D01*
X175536624Y-65826612D01*
X175502000Y-65652541D01*
X175502000Y-65475059D01*
X175536624Y-65300988D01*
X175604544Y-65137016D01*
X175703147Y-64989446D01*
X175828646Y-64863947D01*
X175976216Y-64765344D01*
X176140188Y-64697424D01*
X176289488Y-64667727D01*
X176314258Y-64662800D01*
X176491742Y-64662800D01*
X176516512Y-64667727D01*
G37*
G36*
X171436512Y-64667727D02*
G01*
X171585812Y-64697424D01*
X171749784Y-64765344D01*
X171897354Y-64863947D01*
X172022853Y-64989446D01*
X172121456Y-65137016D01*
X172189376Y-65300988D01*
X172224000Y-65475059D01*
X172224000Y-65652541D01*
X172189376Y-65826612D01*
X172121456Y-65990584D01*
X172022853Y-66138154D01*
X171897354Y-66263653D01*
X171749784Y-66362256D01*
X171585812Y-66430176D01*
X171436512Y-66459873D01*
X171411742Y-66464800D01*
X171234258Y-66464800D01*
X171209488Y-66459873D01*
X171060188Y-66430176D01*
X170896216Y-66362256D01*
X170748646Y-66263653D01*
X170623147Y-66138154D01*
X170524544Y-65990584D01*
X170456624Y-65826612D01*
X170422000Y-65652541D01*
X170422000Y-65475059D01*
X170456624Y-65300988D01*
X170524544Y-65137016D01*
X170623147Y-64989446D01*
X170748646Y-64863947D01*
X170896216Y-64765344D01*
X171060188Y-64697424D01*
X171209488Y-64667727D01*
X171234258Y-64662800D01*
X171411742Y-64662800D01*
X171436512Y-64667727D01*
G37*
G36*
X166356512Y-64667727D02*
G01*
X166505812Y-64697424D01*
X166669784Y-64765344D01*
X166817354Y-64863947D01*
X166942853Y-64989446D01*
X167041456Y-65137016D01*
X167109376Y-65300988D01*
X167144000Y-65475059D01*
X167144000Y-65652541D01*
X167109376Y-65826612D01*
X167041456Y-65990584D01*
X166942853Y-66138154D01*
X166817354Y-66263653D01*
X166669784Y-66362256D01*
X166505812Y-66430176D01*
X166356512Y-66459873D01*
X166331742Y-66464800D01*
X166154258Y-66464800D01*
X166129488Y-66459873D01*
X165980188Y-66430176D01*
X165816216Y-66362256D01*
X165668646Y-66263653D01*
X165543147Y-66138154D01*
X165444544Y-65990584D01*
X165376624Y-65826612D01*
X165342000Y-65652541D01*
X165342000Y-65475059D01*
X165376624Y-65300988D01*
X165444544Y-65137016D01*
X165543147Y-64989446D01*
X165668646Y-64863947D01*
X165816216Y-64765344D01*
X165980188Y-64697424D01*
X166129488Y-64667727D01*
X166154258Y-64662800D01*
X166331742Y-64662800D01*
X166356512Y-64667727D01*
G37*
M02*
