M48
; DRILL file {KiCad 5.1.5-52549c5~84~ubuntu18.04.1} date Thu 05 Mar 2020 06:32:51 PM EST
; FORMAT={-:-/ absolute / inch / decimal}
; #@! TF.CreationDate,2020-03-05T18:32:51-05:00
; #@! TF.GenerationSoftware,Kicad,Pcbnew,5.1.5-52549c5~84~ubuntu18.04.1
FMAT,2
INCH
T1C0.0157
T2C0.0315
T3C0.0394
T4C0.0433
T5C0.0512
T6C0.1260
T7C0.1600
%
G90
G05
T1
X6.8349Y-3.7347
X7.0842Y-3.4227
T2
X7.18Y-3.14
X7.18Y-3.24
X7.18Y-3.34
X7.18Y-3.44
X7.48Y-3.14
X7.48Y-3.24
X7.48Y-3.34
X7.48Y-3.44
X5.88Y-4.16
X6.0721Y-4.16
X7.7Y-4.16
X7.8921Y-4.16
X5.4622Y-4.14
X5.6Y-4.14
X8.2Y-3.74
X8.3378Y-3.74
X8.1Y-4.14
X8.4Y-4.14
X7.6585Y-2.572
X7.6585Y-2.672
X7.6585Y-2.772
X7.6585Y-2.872
X7.6585Y-2.972
X7.6585Y-3.072
X7.6585Y-3.172
X7.6585Y-3.272
X7.6585Y-3.372
X7.6585Y-3.472
X7.6585Y-3.572
X7.6585Y-3.672
X7.6585Y-3.772
X7.6585Y-3.872
X7.9585Y-2.572
X7.9585Y-2.672
X7.9585Y-2.772
X7.9585Y-2.872
X7.9585Y-2.972
X7.9585Y-3.072
X7.9585Y-3.172
X7.9585Y-3.272
X7.9585Y-3.372
X7.9585Y-3.472
X7.9585Y-3.572
X7.9585Y-3.672
X7.9585Y-3.772
X7.9585Y-3.872
X6.68Y-3.1
X6.98Y-3.1
X5.875Y-2.575
X5.875Y-2.675
X5.875Y-2.775
X5.875Y-2.875
X5.875Y-2.975
X5.875Y-3.075
X5.875Y-3.175
X5.875Y-3.275
X5.875Y-3.375
X5.875Y-3.475
X5.875Y-3.575
X5.875Y-3.675
X5.875Y-3.775
X5.875Y-3.875
X6.175Y-2.575
X6.175Y-2.675
X6.175Y-2.775
X6.175Y-2.875
X6.175Y-2.975
X6.175Y-3.075
X6.175Y-3.175
X6.175Y-3.275
X6.175Y-3.375
X6.175Y-3.475
X6.175Y-3.575
X6.175Y-3.675
X6.175Y-3.775
X6.175Y-3.875
T3
X6.36Y-2.76
X6.36Y-3.1537
X8.14Y-3.04
X8.14Y-3.4337
X6.6844Y-3.86
X6.6844Y-4.0159
X6.7294Y-3.938
X6.7745Y-3.86
X6.7745Y-4.0159
X6.8196Y-3.938
X6.8647Y-3.86
X6.8647Y-4.0159
X6.9098Y-3.938
X6.9548Y-3.86
X6.9548Y-4.0159
X6.9999Y-3.938
X7.045Y-3.86
X7.045Y-4.0159
X7.0901Y-3.938
X8.38Y-3.0463
X8.38Y-3.44
X6.36Y-3.3
X6.36Y-3.6937
X6.545Y-2.5813
X6.545Y-2.6813
X6.645Y-2.5813
X6.645Y-2.6813
X6.745Y-2.5813
X6.745Y-2.6813
X6.845Y-2.5813
X6.845Y-2.6813
X6.945Y-2.5813
X6.945Y-2.6813
X7.045Y-2.5813
X7.045Y-2.6813
X7.145Y-2.5813
X7.145Y-2.6813
X7.245Y-2.5813
X7.245Y-2.6813
X7.345Y-2.5813
X7.345Y-2.6813
X7.445Y-2.5813
X7.445Y-2.6813
T4
X6.68Y-3.6
X6.98Y-3.6
X6.68Y-3.34
X6.98Y-3.34
T5
X5.575Y-2.76
X5.575Y-2.9569
X5.575Y-3.1537
X5.575Y-3.3506
X5.575Y-3.5474
X5.575Y-3.7443
T6
X6.383Y-3.9159
X7.3672Y-3.9159
T7
X8.25Y-2.75
T0
M30
