M48
; DRILL file {KiCad 5.1.5-52549c5~86~ubuntu18.04.1} date Thu 16 Apr 2020 10:40:06 PM EDT
; FORMAT={-:-/ absolute / inch / decimal}
; #@! TF.CreationDate,2020-04-16T22:40:06-04:00
; #@! TF.GenerationSoftware,Kicad,Pcbnew,5.1.5-52549c5~86~ubuntu18.04.1
FMAT,2
INCH
T1C0.0157
T2C0.0315
T3C0.0394
T4C0.0433
T5C0.0512
T6C0.1260
T7C0.1378
T8C0.1600
%
G90
G05
T1
X6.0119Y-2.7364
X6.0474Y-3.1655
X6.1872Y-3.2707
X6.2718Y-4.2482
X6.2796Y-2.7127
X6.3741Y-2.8072
X6.5119Y-3.7364
X6.5218Y-3.884
X6.5316Y-3.6379
X6.5316Y-3.6872
X6.5415Y-3.9135
X6.5808Y-3.697
X6.5867Y-2.7836
X6.6497Y-3.9332
X6.6681Y-2.8536
X6.6989Y-3.8643
X6.8269Y-2.9194
X6.8269Y-3.1261
X6.9206Y-3.622
X6.9844Y-2.9588
X7.0041Y-3.0376
X7.1025Y-3.323
X7.1199Y-2.8528
X7.1222Y-2.7915
X7.1546Y-2.759
X7.1689Y-3.5616
X7.1987Y-2.459
X7.2206Y-3.2639
X7.2284Y-3.1246
X7.2501Y-3.382
X7.26Y-2.4568
X7.3356Y-2.7589
X7.3571Y-3.0546
X7.4371Y-3.323
X7.4667Y-2.949
X7.4863Y-3.136
X7.5159Y-3.7364
X7.5749Y-3.6773
X7.5848Y-3.5789
X7.7226Y-3.0179
X7.7718Y-2.6439
X8.2836Y-3.2836
T2
X6.6104Y-2.9194
X6.6104Y-3.0194
X6.6104Y-3.1194
X6.6104Y-3.2194
X6.9104Y-2.9194
X6.9104Y-3.0194
X6.9104Y-3.1194
X6.9104Y-3.2194
X7.2993Y-3.5789
X7.4371Y-3.5789
X5.9312Y-3.6183
X5.9312Y-3.8104
X5.9312Y-3.2049
X5.9312Y-3.4017
X6.1037Y-2.7127
X6.4037Y-2.7127
X6.6104Y-3.4954
X6.6104Y-3.7954
X5.9312Y-4.0218
X5.9312Y-4.2187
X6.1281Y-2.9194
X6.1281Y-3.0194
X6.1281Y-3.1194
X6.1281Y-3.2194
X6.1281Y-3.3194
X6.1281Y-3.4194
X6.1281Y-3.5194
X6.1281Y-3.6194
X6.1281Y-3.7194
X6.1281Y-3.8194
X6.1281Y-3.9194
X6.1281Y-4.0194
X6.1281Y-4.1194
X6.1281Y-4.2194
X6.4281Y-2.9194
X6.4281Y-3.0194
X6.4281Y-3.1194
X6.4281Y-3.2194
X6.4281Y-3.3194
X6.4281Y-3.4194
X6.4281Y-3.5194
X6.4281Y-3.6194
X6.4281Y-3.7194
X6.4281Y-3.8194
X6.4281Y-3.9194
X6.4281Y-4.0194
X6.4281Y-4.1194
X6.4281Y-4.2194
X7.5454Y-3.0868
X7.8454Y-3.0868
X7.6293Y-2.7029
X7.9293Y-2.7029
T3
X7.1025Y-3.9923
X7.1025Y-4.0923
X7.1025Y-4.1923
X7.2025Y-3.9923
X7.2025Y-4.0923
X7.2025Y-4.1923
X6.6383Y-3.999
X6.6383Y-4.099
X6.6383Y-4.199
X6.7383Y-3.999
X6.7383Y-4.099
X6.7383Y-4.199
X6.545Y-2.5813
X6.545Y-2.6813
X6.645Y-2.5813
X6.645Y-2.6813
X6.745Y-2.5813
X6.745Y-2.6813
X6.845Y-2.5813
X6.845Y-2.6813
X6.945Y-2.5813
X6.945Y-2.6813
X7.045Y-2.5813
X7.045Y-2.6813
X7.145Y-2.5813
X7.145Y-2.6813
X7.245Y-2.5813
X7.245Y-2.6813
X7.345Y-2.5813
X7.345Y-2.6813
X7.445Y-2.5813
X7.445Y-2.6813
X7.6702Y-3.714
X7.7153Y-3.636
X7.7602Y-3.714
X7.7604Y-3.5579
X7.8052Y-3.792
X7.8053Y-3.6359
X7.8054Y-3.4798
X7.8503Y-3.7139
X7.8504Y-3.5578
X7.8505Y-3.4017
X7.8954Y-3.6358
X7.8955Y-3.4797
X7.9405Y-3.5578
X7.9406Y-3.4017
X7.9855Y-3.4797
T4
X7.1123Y-2.9246
X7.1123Y-3.2246
X7.3092Y-2.9147
X7.3092Y-3.2147
T5
X5.575Y-3.1589
X5.575Y-3.3557
X5.575Y-3.5526
X5.575Y-3.7494
X5.575Y-3.9463
X5.575Y-4.1431
T6
X7.5679Y-4.003
X8.06Y-3.1506
T7
X5.4785Y-2.7521
T8
X8.2344Y-2.762
T0
M30
