G04 #@! TF.GenerationSoftware,KiCad,Pcbnew,5.1.5-52549c5~86~ubuntu18.04.1*
G04 #@! TF.CreationDate,2020-04-16T22:39:54-04:00*
G04 #@! TF.ProjectId,imac_g3_333mhz_slot_loading_J20_adapter_board,696d6163-5f67-4335-9f33-33336d687a5f,3*
G04 #@! TF.SameCoordinates,Original*
G04 #@! TF.FileFunction,Legend,Bot*
G04 #@! TF.FilePolarity,Positive*
%FSLAX46Y46*%
G04 Gerber Fmt 4.6, Leading zero omitted, Abs format (unit mm)*
G04 Created by KiCad (PCBNEW 5.1.5-52549c5~86~ubuntu18.04.1) date 2020-04-16 22:39:54*
%MOMM*%
%LPD*%
G04 APERTURE LIST*
%ADD10C,0.150000*%
%ADD11C,0.120000*%
G04 APERTURE END LIST*
D10*
X158304190Y-70665704D02*
X158780380Y-70665704D01*
X157780380Y-70332371D02*
X158304190Y-70665704D01*
X157780380Y-70999038D01*
X158732761Y-71713323D02*
X158780380Y-71618085D01*
X158780380Y-71427609D01*
X158732761Y-71332371D01*
X158637523Y-71284752D01*
X158256571Y-71284752D01*
X158161333Y-71332371D01*
X158113714Y-71427609D01*
X158113714Y-71618085D01*
X158161333Y-71713323D01*
X158256571Y-71760942D01*
X158351809Y-71760942D01*
X158447047Y-71284752D01*
X158780380Y-72618085D02*
X158256571Y-72618085D01*
X158161333Y-72570466D01*
X158113714Y-72475228D01*
X158113714Y-72284752D01*
X158161333Y-72189514D01*
X158732761Y-72618085D02*
X158780380Y-72522847D01*
X158780380Y-72284752D01*
X158732761Y-72189514D01*
X158637523Y-72141895D01*
X158542285Y-72141895D01*
X158447047Y-72189514D01*
X158399428Y-72284752D01*
X158399428Y-72522847D01*
X158351809Y-72618085D01*
X158780380Y-73094276D02*
X157780380Y-73094276D01*
X158780380Y-73522847D02*
X158256571Y-73522847D01*
X158161333Y-73475228D01*
X158113714Y-73379990D01*
X158113714Y-73237133D01*
X158161333Y-73141895D01*
X158208952Y-73094276D01*
X158732761Y-74046657D02*
X158780380Y-74046657D01*
X158875619Y-73999038D01*
X158923238Y-73951419D01*
X158732761Y-75665704D02*
X158780380Y-75570466D01*
X158780380Y-75379990D01*
X158732761Y-75284752D01*
X158685142Y-75237133D01*
X158589904Y-75189514D01*
X158304190Y-75189514D01*
X158208952Y-75237133D01*
X158161333Y-75284752D01*
X158113714Y-75379990D01*
X158113714Y-75570466D01*
X158161333Y-75665704D01*
X158113714Y-76522847D02*
X158780380Y-76522847D01*
X158113714Y-76094276D02*
X158637523Y-76094276D01*
X158732761Y-76141895D01*
X158780380Y-76237133D01*
X158780380Y-76379990D01*
X158732761Y-76475228D01*
X158685142Y-76522847D01*
X158113714Y-76856180D02*
X158113714Y-77237133D01*
X157780380Y-76999038D02*
X158637523Y-76999038D01*
X158732761Y-77046657D01*
X158780380Y-77141895D01*
X158780380Y-77237133D01*
X158732761Y-77951419D02*
X158780380Y-77856180D01*
X158780380Y-77665704D01*
X158732761Y-77570466D01*
X158637523Y-77522847D01*
X158256571Y-77522847D01*
X158161333Y-77570466D01*
X158113714Y-77665704D01*
X158113714Y-77856180D01*
X158161333Y-77951419D01*
X158256571Y-77999038D01*
X158351809Y-77999038D01*
X158447047Y-77522847D01*
X158685142Y-78427609D02*
X158732761Y-78475228D01*
X158780380Y-78427609D01*
X158732761Y-78379990D01*
X158685142Y-78427609D01*
X158780380Y-78427609D01*
X158780380Y-79665704D02*
X157780380Y-79665704D01*
X157780380Y-79903800D01*
X157828000Y-80046657D01*
X157923238Y-80141895D01*
X158018476Y-80189514D01*
X158208952Y-80237133D01*
X158351809Y-80237133D01*
X158542285Y-80189514D01*
X158637523Y-80141895D01*
X158732761Y-80046657D01*
X158780380Y-79903800D01*
X158780380Y-79665704D01*
X158780380Y-80808561D02*
X158732761Y-80713323D01*
X158685142Y-80665704D01*
X158589904Y-80618085D01*
X158304190Y-80618085D01*
X158208952Y-80665704D01*
X158161333Y-80713323D01*
X158113714Y-80808561D01*
X158113714Y-80951419D01*
X158161333Y-81046657D01*
X158208952Y-81094276D01*
X158304190Y-81141895D01*
X158589904Y-81141895D01*
X158685142Y-81094276D01*
X158732761Y-81046657D01*
X158780380Y-80951419D01*
X158780380Y-80808561D01*
X158113714Y-81570466D02*
X158780380Y-81570466D01*
X158208952Y-81570466D02*
X158161333Y-81618085D01*
X158113714Y-81713323D01*
X158113714Y-81856180D01*
X158161333Y-81951419D01*
X158256571Y-81999038D01*
X158780380Y-81999038D01*
X157780380Y-82522847D02*
X157970857Y-82427609D01*
X158113714Y-82808561D02*
X158113714Y-83189514D01*
X157780380Y-82951419D02*
X158637523Y-82951419D01*
X158732761Y-82999038D01*
X158780380Y-83094276D01*
X158780380Y-83189514D01*
X158113714Y-84713323D02*
X158923238Y-84713323D01*
X159018476Y-84665704D01*
X159066095Y-84618085D01*
X159113714Y-84522847D01*
X159113714Y-84379990D01*
X159066095Y-84284752D01*
X158732761Y-84713323D02*
X158780380Y-84618085D01*
X158780380Y-84427609D01*
X158732761Y-84332371D01*
X158685142Y-84284752D01*
X158589904Y-84237133D01*
X158304190Y-84237133D01*
X158208952Y-84284752D01*
X158161333Y-84332371D01*
X158113714Y-84427609D01*
X158113714Y-84618085D01*
X158161333Y-84713323D01*
X158732761Y-85570466D02*
X158780380Y-85475228D01*
X158780380Y-85284752D01*
X158732761Y-85189514D01*
X158637523Y-85141895D01*
X158256571Y-85141895D01*
X158161333Y-85189514D01*
X158113714Y-85284752D01*
X158113714Y-85475228D01*
X158161333Y-85570466D01*
X158256571Y-85618085D01*
X158351809Y-85618085D01*
X158447047Y-85141895D01*
X158113714Y-85903800D02*
X158113714Y-86284752D01*
X157780380Y-86046657D02*
X158637523Y-86046657D01*
X158732761Y-86094276D01*
X158780380Y-86189514D01*
X158780380Y-86284752D01*
X158113714Y-87237133D02*
X158113714Y-87618085D01*
X157780380Y-87379990D02*
X158637523Y-87379990D01*
X158732761Y-87427609D01*
X158780380Y-87522847D01*
X158780380Y-87618085D01*
X158780380Y-88094276D02*
X158732761Y-87999038D01*
X158685142Y-87951419D01*
X158589904Y-87903800D01*
X158304190Y-87903800D01*
X158208952Y-87951419D01*
X158161333Y-87999038D01*
X158113714Y-88094276D01*
X158113714Y-88237133D01*
X158161333Y-88332371D01*
X158208952Y-88379990D01*
X158304190Y-88427609D01*
X158589904Y-88427609D01*
X158685142Y-88379990D01*
X158732761Y-88332371D01*
X158780380Y-88237133D01*
X158780380Y-88094276D01*
X158780380Y-88999038D02*
X158732761Y-88903800D01*
X158685142Y-88856180D01*
X158589904Y-88808561D01*
X158304190Y-88808561D01*
X158208952Y-88856180D01*
X158161333Y-88903800D01*
X158113714Y-88999038D01*
X158113714Y-89141895D01*
X158161333Y-89237133D01*
X158208952Y-89284752D01*
X158304190Y-89332371D01*
X158589904Y-89332371D01*
X158685142Y-89284752D01*
X158732761Y-89237133D01*
X158780380Y-89141895D01*
X158780380Y-88999038D01*
X158780380Y-90951419D02*
X158256571Y-90951419D01*
X158161333Y-90903800D01*
X158113714Y-90808561D01*
X158113714Y-90618085D01*
X158161333Y-90522847D01*
X158732761Y-90951419D02*
X158780380Y-90856180D01*
X158780380Y-90618085D01*
X158732761Y-90522847D01*
X158637523Y-90475228D01*
X158542285Y-90475228D01*
X158447047Y-90522847D01*
X158399428Y-90618085D01*
X158399428Y-90856180D01*
X158351809Y-90951419D01*
X158113714Y-91284752D02*
X158113714Y-91665704D01*
X157780380Y-91427609D02*
X158637523Y-91427609D01*
X158732761Y-91475228D01*
X158780380Y-91570466D01*
X158780380Y-91665704D01*
X158113714Y-91856180D02*
X158113714Y-92237133D01*
X157780380Y-91999038D02*
X158637523Y-91999038D01*
X158732761Y-92046657D01*
X158780380Y-92141895D01*
X158780380Y-92237133D01*
X158780380Y-92999038D02*
X158256571Y-92999038D01*
X158161333Y-92951419D01*
X158113714Y-92856180D01*
X158113714Y-92665704D01*
X158161333Y-92570466D01*
X158732761Y-92999038D02*
X158780380Y-92903800D01*
X158780380Y-92665704D01*
X158732761Y-92570466D01*
X158637523Y-92522847D01*
X158542285Y-92522847D01*
X158447047Y-92570466D01*
X158399428Y-92665704D01*
X158399428Y-92903800D01*
X158351809Y-92999038D01*
X158732761Y-93903800D02*
X158780380Y-93808561D01*
X158780380Y-93618085D01*
X158732761Y-93522847D01*
X158685142Y-93475228D01*
X158589904Y-93427609D01*
X158304190Y-93427609D01*
X158208952Y-93475228D01*
X158161333Y-93522847D01*
X158113714Y-93618085D01*
X158113714Y-93808561D01*
X158161333Y-93903800D01*
X158780380Y-94332371D02*
X157780380Y-94332371D01*
X158780380Y-94760942D02*
X158256571Y-94760942D01*
X158161333Y-94713323D01*
X158113714Y-94618085D01*
X158113714Y-94475228D01*
X158161333Y-94379990D01*
X158208952Y-94332371D01*
X158732761Y-95618085D02*
X158780380Y-95522847D01*
X158780380Y-95332371D01*
X158732761Y-95237133D01*
X158637523Y-95189514D01*
X158256571Y-95189514D01*
X158161333Y-95237133D01*
X158113714Y-95332371D01*
X158113714Y-95522847D01*
X158161333Y-95618085D01*
X158256571Y-95665704D01*
X158351809Y-95665704D01*
X158447047Y-95189514D01*
X158780380Y-96522847D02*
X157780380Y-96522847D01*
X158732761Y-96522847D02*
X158780380Y-96427609D01*
X158780380Y-96237133D01*
X158732761Y-96141895D01*
X158685142Y-96094276D01*
X158589904Y-96046657D01*
X158304190Y-96046657D01*
X158208952Y-96094276D01*
X158161333Y-96141895D01*
X158113714Y-96237133D01*
X158113714Y-96427609D01*
X158161333Y-96522847D01*
X158113714Y-97618085D02*
X158113714Y-97999038D01*
X157780380Y-97760942D02*
X158637523Y-97760942D01*
X158732761Y-97808561D01*
X158780380Y-97903800D01*
X158780380Y-97999038D01*
X158780380Y-98332371D02*
X157780380Y-98332371D01*
X158780380Y-98760942D02*
X158256571Y-98760942D01*
X158161333Y-98713323D01*
X158113714Y-98618085D01*
X158113714Y-98475228D01*
X158161333Y-98379990D01*
X158208952Y-98332371D01*
X158732761Y-99618085D02*
X158780380Y-99522847D01*
X158780380Y-99332371D01*
X158732761Y-99237133D01*
X158637523Y-99189514D01*
X158256571Y-99189514D01*
X158161333Y-99237133D01*
X158113714Y-99332371D01*
X158113714Y-99522847D01*
X158161333Y-99618085D01*
X158256571Y-99665704D01*
X158351809Y-99665704D01*
X158447047Y-99189514D01*
X158780380Y-100094276D02*
X158113714Y-100094276D01*
X158304190Y-100094276D02*
X158208952Y-100141895D01*
X158161333Y-100189514D01*
X158113714Y-100284752D01*
X158113714Y-100379990D01*
X158732761Y-101094276D02*
X158780380Y-100999038D01*
X158780380Y-100808561D01*
X158732761Y-100713323D01*
X158637523Y-100665704D01*
X158256571Y-100665704D01*
X158161333Y-100713323D01*
X158113714Y-100808561D01*
X158113714Y-100999038D01*
X158161333Y-101094276D01*
X158256571Y-101141895D01*
X158351809Y-101141895D01*
X158447047Y-100665704D01*
X158732761Y-101618085D02*
X158780380Y-101618085D01*
X158875619Y-101570466D01*
X158923238Y-101522847D01*
X160144666Y-66403800D02*
X160144666Y-66879990D01*
X160430380Y-66308561D02*
X159430380Y-66641895D01*
X160430380Y-66975228D01*
X160430380Y-67451419D02*
X160382761Y-67356180D01*
X160287523Y-67308561D01*
X159430380Y-67308561D01*
X160430380Y-68260942D02*
X159906571Y-68260942D01*
X159811333Y-68213323D01*
X159763714Y-68118085D01*
X159763714Y-67927609D01*
X159811333Y-67832371D01*
X160382761Y-68260942D02*
X160430380Y-68165704D01*
X160430380Y-67927609D01*
X160382761Y-67832371D01*
X160287523Y-67784752D01*
X160192285Y-67784752D01*
X160097047Y-67832371D01*
X160049428Y-67927609D01*
X160049428Y-68165704D01*
X160001809Y-68260942D01*
X160430380Y-69165704D02*
X159430380Y-69165704D01*
X160382761Y-69165704D02*
X160430380Y-69070466D01*
X160430380Y-68879990D01*
X160382761Y-68784752D01*
X160335142Y-68737133D01*
X160239904Y-68689514D01*
X159954190Y-68689514D01*
X159858952Y-68737133D01*
X159811333Y-68784752D01*
X159763714Y-68879990D01*
X159763714Y-69070466D01*
X159811333Y-69165704D01*
X160430380Y-70070466D02*
X159430380Y-70070466D01*
X160382761Y-70070466D02*
X160430380Y-69975228D01*
X160430380Y-69784752D01*
X160382761Y-69689514D01*
X160335142Y-69641895D01*
X160239904Y-69594276D01*
X159954190Y-69594276D01*
X159858952Y-69641895D01*
X159811333Y-69689514D01*
X159763714Y-69784752D01*
X159763714Y-69975228D01*
X159811333Y-70070466D01*
X160430380Y-70546657D02*
X159763714Y-70546657D01*
X159430380Y-70546657D02*
X159478000Y-70499038D01*
X159525619Y-70546657D01*
X159478000Y-70594276D01*
X159430380Y-70546657D01*
X159525619Y-70546657D01*
X159763714Y-71022847D02*
X160430380Y-71022847D01*
X159858952Y-71022847D02*
X159811333Y-71070466D01*
X159763714Y-71165704D01*
X159763714Y-71308561D01*
X159811333Y-71403800D01*
X159906571Y-71451419D01*
X160430380Y-71451419D01*
X160382761Y-71975228D02*
X160430380Y-71975228D01*
X160525619Y-71927609D01*
X160573238Y-71879990D01*
X159430380Y-73213323D02*
X159620857Y-73118085D01*
X160382761Y-74070466D02*
X160430380Y-73975228D01*
X160430380Y-73784752D01*
X160382761Y-73689514D01*
X160335142Y-73641895D01*
X160239904Y-73594276D01*
X159954190Y-73594276D01*
X159858952Y-73641895D01*
X159811333Y-73689514D01*
X159763714Y-73784752D01*
X159763714Y-73975228D01*
X159811333Y-74070466D01*
X160430380Y-74927609D02*
X159906571Y-74927609D01*
X159811333Y-74879990D01*
X159763714Y-74784752D01*
X159763714Y-74594276D01*
X159811333Y-74499038D01*
X160382761Y-74927609D02*
X160430380Y-74832371D01*
X160430380Y-74594276D01*
X160382761Y-74499038D01*
X160287523Y-74451419D01*
X160192285Y-74451419D01*
X160097047Y-74499038D01*
X160049428Y-74594276D01*
X160049428Y-74832371D01*
X160001809Y-74927609D01*
X159763714Y-75832371D02*
X160430380Y-75832371D01*
X159763714Y-75403800D02*
X160287523Y-75403800D01*
X160382761Y-75451419D01*
X160430380Y-75546657D01*
X160430380Y-75689514D01*
X160382761Y-75784752D01*
X160335142Y-75832371D01*
X160382761Y-76260942D02*
X160430380Y-76356180D01*
X160430380Y-76546657D01*
X160382761Y-76641895D01*
X160287523Y-76689514D01*
X160239904Y-76689514D01*
X160144666Y-76641895D01*
X160097047Y-76546657D01*
X160097047Y-76403799D01*
X160049428Y-76308561D01*
X159954190Y-76260942D01*
X159906571Y-76260942D01*
X159811333Y-76308561D01*
X159763714Y-76403799D01*
X159763714Y-76546657D01*
X159811333Y-76641895D01*
X160382761Y-77499038D02*
X160430380Y-77403799D01*
X160430380Y-77213323D01*
X160382761Y-77118085D01*
X160287523Y-77070466D01*
X159906571Y-77070466D01*
X159811333Y-77118085D01*
X159763714Y-77213323D01*
X159763714Y-77403799D01*
X159811333Y-77499038D01*
X159906571Y-77546657D01*
X160001809Y-77546657D01*
X160097047Y-77070466D01*
X160430380Y-78737133D02*
X159763714Y-78737133D01*
X159430380Y-78737133D02*
X159478000Y-78689514D01*
X159525619Y-78737133D01*
X159478000Y-78784752D01*
X159430380Y-78737133D01*
X159525619Y-78737133D01*
X159763714Y-79070466D02*
X159763714Y-79451419D01*
X159430380Y-79213323D02*
X160287523Y-79213323D01*
X160382761Y-79260942D01*
X160430380Y-79356180D01*
X160430380Y-79451419D01*
X159430380Y-79832371D02*
X159620857Y-79737133D01*
X160382761Y-80213323D02*
X160430380Y-80308561D01*
X160430380Y-80499038D01*
X160382761Y-80594276D01*
X160287523Y-80641895D01*
X160239904Y-80641895D01*
X160144666Y-80594276D01*
X160097047Y-80499038D01*
X160097047Y-80356180D01*
X160049428Y-80260942D01*
X159954190Y-80213323D01*
X159906571Y-80213323D01*
X159811333Y-80260942D01*
X159763714Y-80356180D01*
X159763714Y-80499038D01*
X159811333Y-80594276D01*
X160430380Y-82260942D02*
X159906571Y-82260942D01*
X159811333Y-82213323D01*
X159763714Y-82118085D01*
X159763714Y-81927609D01*
X159811333Y-81832371D01*
X160382761Y-82260942D02*
X160430380Y-82165704D01*
X160430380Y-81927609D01*
X160382761Y-81832371D01*
X160287523Y-81784752D01*
X160192285Y-81784752D01*
X160097047Y-81832371D01*
X160049428Y-81927609D01*
X160049428Y-82165704D01*
X160001809Y-82260942D01*
X160430380Y-82737133D02*
X159430380Y-82737133D01*
X159811333Y-82737133D02*
X159763714Y-82832371D01*
X159763714Y-83022847D01*
X159811333Y-83118085D01*
X159858952Y-83165704D01*
X159954190Y-83213323D01*
X160239904Y-83213323D01*
X160335142Y-83165704D01*
X160382761Y-83118085D01*
X160430380Y-83022847D01*
X160430380Y-82832371D01*
X160382761Y-82737133D01*
X160430380Y-83784752D02*
X160382761Y-83689514D01*
X160335142Y-83641895D01*
X160239904Y-83594276D01*
X159954190Y-83594276D01*
X159858952Y-83641895D01*
X159811333Y-83689514D01*
X159763714Y-83784752D01*
X159763714Y-83927609D01*
X159811333Y-84022847D01*
X159858952Y-84070466D01*
X159954190Y-84118085D01*
X160239904Y-84118085D01*
X160335142Y-84070466D01*
X160382761Y-84022847D01*
X160430380Y-83927609D01*
X160430380Y-83784752D01*
X159763714Y-84975228D02*
X160430380Y-84975228D01*
X159763714Y-84546657D02*
X160287523Y-84546657D01*
X160382761Y-84594276D01*
X160430380Y-84689514D01*
X160430380Y-84832371D01*
X160382761Y-84927609D01*
X160335142Y-84975228D01*
X159763714Y-85308561D02*
X159763714Y-85689514D01*
X159430380Y-85451419D02*
X160287523Y-85451419D01*
X160382761Y-85499038D01*
X160430380Y-85594276D01*
X160430380Y-85689514D01*
X159763714Y-86641895D02*
X159763714Y-87022847D01*
X159430380Y-86784752D02*
X160287523Y-86784752D01*
X160382761Y-86832371D01*
X160430380Y-86927609D01*
X160430380Y-87022847D01*
X160430380Y-87499038D02*
X160382761Y-87403799D01*
X160335142Y-87356180D01*
X160239904Y-87308561D01*
X159954190Y-87308561D01*
X159858952Y-87356180D01*
X159811333Y-87403799D01*
X159763714Y-87499038D01*
X159763714Y-87641895D01*
X159811333Y-87737133D01*
X159858952Y-87784752D01*
X159954190Y-87832371D01*
X160239904Y-87832371D01*
X160335142Y-87784752D01*
X160382761Y-87737133D01*
X160430380Y-87641895D01*
X160430380Y-87499038D01*
X160430380Y-89022847D02*
X159430380Y-89022847D01*
X159811333Y-89022847D02*
X159763714Y-89118085D01*
X159763714Y-89308561D01*
X159811333Y-89403799D01*
X159858952Y-89451419D01*
X159954190Y-89499038D01*
X160239904Y-89499038D01*
X160335142Y-89451419D01*
X160382761Y-89403799D01*
X160430380Y-89308561D01*
X160430380Y-89118085D01*
X160382761Y-89022847D01*
X160382761Y-90308561D02*
X160430380Y-90213323D01*
X160430380Y-90022847D01*
X160382761Y-89927609D01*
X160287523Y-89879990D01*
X159906571Y-89879990D01*
X159811333Y-89927609D01*
X159763714Y-90022847D01*
X159763714Y-90213323D01*
X159811333Y-90308561D01*
X159906571Y-90356180D01*
X160001809Y-90356180D01*
X160097047Y-89879990D01*
X160430380Y-91546657D02*
X159763714Y-91546657D01*
X159858952Y-91546657D02*
X159811333Y-91594276D01*
X159763714Y-91689514D01*
X159763714Y-91832371D01*
X159811333Y-91927609D01*
X159906571Y-91975228D01*
X160430380Y-91975228D01*
X159906571Y-91975228D02*
X159811333Y-92022847D01*
X159763714Y-92118085D01*
X159763714Y-92260942D01*
X159811333Y-92356180D01*
X159906571Y-92403799D01*
X160430380Y-92403799D01*
X160430380Y-93308561D02*
X159906571Y-93308561D01*
X159811333Y-93260942D01*
X159763714Y-93165704D01*
X159763714Y-92975228D01*
X159811333Y-92879990D01*
X160382761Y-93308561D02*
X160430380Y-93213323D01*
X160430380Y-92975228D01*
X160382761Y-92879990D01*
X160287523Y-92832371D01*
X160192285Y-92832371D01*
X160097047Y-92879990D01*
X160049428Y-92975228D01*
X160049428Y-93213323D01*
X160001809Y-93308561D01*
X159763714Y-94213323D02*
X160573238Y-94213323D01*
X160668476Y-94165704D01*
X160716095Y-94118085D01*
X160763714Y-94022847D01*
X160763714Y-93879990D01*
X160716095Y-93784752D01*
X160382761Y-94213323D02*
X160430380Y-94118085D01*
X160430380Y-93927609D01*
X160382761Y-93832371D01*
X160335142Y-93784752D01*
X160239904Y-93737133D01*
X159954190Y-93737133D01*
X159858952Y-93784752D01*
X159811333Y-93832371D01*
X159763714Y-93927609D01*
X159763714Y-94118085D01*
X159811333Y-94213323D01*
X160430380Y-94689514D02*
X159763714Y-94689514D01*
X159430380Y-94689514D02*
X159478000Y-94641895D01*
X159525619Y-94689514D01*
X159478000Y-94737133D01*
X159430380Y-94689514D01*
X159525619Y-94689514D01*
X160382761Y-95594276D02*
X160430380Y-95499038D01*
X160430380Y-95308561D01*
X160382761Y-95213323D01*
X160335142Y-95165704D01*
X160239904Y-95118085D01*
X159954190Y-95118085D01*
X159858952Y-95165704D01*
X159811333Y-95213323D01*
X159763714Y-95308561D01*
X159763714Y-95499038D01*
X159811333Y-95594276D01*
X159763714Y-96641895D02*
X159763714Y-97022847D01*
X160430380Y-96784752D02*
X159573238Y-96784752D01*
X159478000Y-96832371D01*
X159430380Y-96927609D01*
X159430380Y-97022847D01*
X160430380Y-97499038D02*
X160382761Y-97403799D01*
X160287523Y-97356180D01*
X159430380Y-97356180D01*
X159763714Y-97784752D02*
X160430380Y-98022847D01*
X159763714Y-98260942D02*
X160430380Y-98022847D01*
X160668476Y-97927609D01*
X160716095Y-97879990D01*
X160763714Y-97784752D01*
X160430380Y-98641895D02*
X159763714Y-98641895D01*
X159430380Y-98641895D02*
X159478000Y-98594276D01*
X159525619Y-98641895D01*
X159478000Y-98689514D01*
X159430380Y-98641895D01*
X159525619Y-98641895D01*
X159763714Y-99118085D02*
X160430380Y-99118085D01*
X159858952Y-99118085D02*
X159811333Y-99165704D01*
X159763714Y-99260942D01*
X159763714Y-99403799D01*
X159811333Y-99499038D01*
X159906571Y-99546657D01*
X160430380Y-99546657D01*
X159763714Y-100451419D02*
X160573238Y-100451419D01*
X160668476Y-100403799D01*
X160716095Y-100356180D01*
X160763714Y-100260942D01*
X160763714Y-100118085D01*
X160716095Y-100022847D01*
X160382761Y-100451419D02*
X160430380Y-100356180D01*
X160430380Y-100165704D01*
X160382761Y-100070466D01*
X160335142Y-100022847D01*
X160239904Y-99975228D01*
X159954190Y-99975228D01*
X159858952Y-100022847D01*
X159811333Y-100070466D01*
X159763714Y-100165704D01*
X159763714Y-100356180D01*
X159811333Y-100451419D01*
X160430380Y-102118085D02*
X159430380Y-102118085D01*
X160382761Y-102118085D02*
X160430380Y-102022847D01*
X160430380Y-101832371D01*
X160382761Y-101737133D01*
X160335142Y-101689514D01*
X160239904Y-101641895D01*
X159954190Y-101641895D01*
X159858952Y-101689514D01*
X159811333Y-101737133D01*
X159763714Y-101832371D01*
X159763714Y-102022847D01*
X159811333Y-102118085D01*
X160430380Y-102594276D02*
X159763714Y-102594276D01*
X159430380Y-102594276D02*
X159478000Y-102546657D01*
X159525619Y-102594276D01*
X159478000Y-102641895D01*
X159430380Y-102594276D01*
X159525619Y-102594276D01*
X159763714Y-103070466D02*
X160430380Y-103070466D01*
X159858952Y-103070466D02*
X159811333Y-103118085D01*
X159763714Y-103213323D01*
X159763714Y-103356180D01*
X159811333Y-103451419D01*
X159906571Y-103499038D01*
X160430380Y-103499038D01*
X159763714Y-103975228D02*
X160430380Y-103975228D01*
X159858952Y-103975228D02*
X159811333Y-104022847D01*
X159763714Y-104118085D01*
X159763714Y-104260942D01*
X159811333Y-104356180D01*
X159906571Y-104403799D01*
X160430380Y-104403799D01*
X160382761Y-105260942D02*
X160430380Y-105165704D01*
X160430380Y-104975228D01*
X160382761Y-104879990D01*
X160287523Y-104832371D01*
X159906571Y-104832371D01*
X159811333Y-104879990D01*
X159763714Y-104975228D01*
X159763714Y-105165704D01*
X159811333Y-105260942D01*
X159906571Y-105308561D01*
X160001809Y-105308561D01*
X160097047Y-104832371D01*
X160430380Y-105737133D02*
X159763714Y-105737133D01*
X159954190Y-105737133D02*
X159858952Y-105784752D01*
X159811333Y-105832371D01*
X159763714Y-105927609D01*
X159763714Y-106022847D01*
X160335142Y-106356180D02*
X160382761Y-106403799D01*
X160430380Y-106356180D01*
X160382761Y-106308561D01*
X160335142Y-106356180D01*
X160430380Y-106356180D01*
D11*
X190433000Y-69433800D02*
X190433000Y-68103800D01*
X189103000Y-69433800D02*
X190433000Y-69433800D01*
X190433000Y-66833800D02*
X190433000Y-64233800D01*
X187833000Y-66833800D02*
X190433000Y-66833800D01*
X187833000Y-69433800D02*
X187833000Y-66833800D01*
X190433000Y-64233800D02*
X164913000Y-64233800D01*
X187833000Y-69433800D02*
X164913000Y-69433800D01*
X164913000Y-69433800D02*
X164913000Y-64233800D01*
D10*
X191980619Y-67167133D02*
X191266333Y-67167133D01*
X191123476Y-67214752D01*
X191028238Y-67309990D01*
X190980619Y-67452847D01*
X190980619Y-67548085D01*
X191885380Y-66738561D02*
X191933000Y-66690942D01*
X191980619Y-66595704D01*
X191980619Y-66357609D01*
X191933000Y-66262371D01*
X191885380Y-66214752D01*
X191790142Y-66167133D01*
X191694904Y-66167133D01*
X191552047Y-66214752D01*
X190980619Y-66786180D01*
X190980619Y-66167133D01*
M02*
