G04 #@! TF.GenerationSoftware,KiCad,Pcbnew,5.1.5-52549c5~84~ubuntu18.04.1*
G04 #@! TF.CreationDate,2020-03-28T21:00:00-04:00*
G04 #@! TF.ProjectId,imac_g3_333mhz_slot_loading_J20_adapter_board,696d6163-5f67-4335-9f33-33336d687a5f,2*
G04 #@! TF.SameCoordinates,Original*
G04 #@! TF.FileFunction,Copper,L1,Top*
G04 #@! TF.FilePolarity,Positive*
%FSLAX46Y46*%
G04 Gerber Fmt 4.6, Leading zero omitted, Abs format (unit mm)*
G04 Created by KiCad (PCBNEW 5.1.5-52549c5~84~ubuntu18.04.1) date 2020-03-28 21:00:00*
%MOMM*%
%LPD*%
G04 APERTURE LIST*
%ADD10O,1.700000X1.700000*%
%ADD11R,1.700000X1.700000*%
%ADD12R,1.600000X1.600000*%
%ADD13O,1.600000X1.600000*%
%ADD14C,1.500000*%
%ADD15O,2.200000X2.200000*%
%ADD16R,2.200000X2.200000*%
%ADD17C,1.600000*%
%ADD18C,7.000001*%
%ADD19R,2.600000X2.600000*%
%ADD20C,2.600000*%
%ADD21C,0.100000*%
%ADD22C,7.000000*%
%ADD23C,4.000000*%
%ADD24C,0.800000*%
%ADD25C,0.250000*%
%ADD26C,0.200000*%
%ADD27C,0.500000*%
%ADD28C,0.254000*%
G04 APERTURE END LIST*
D10*
X166243000Y-65563800D03*
X166243000Y-68103800D03*
X168783000Y-65563800D03*
X168783000Y-68103800D03*
X171323000Y-65563800D03*
X171323000Y-68103800D03*
X173863000Y-65563800D03*
X173863000Y-68103800D03*
X176403000Y-65563800D03*
X176403000Y-68103800D03*
X178943000Y-65563800D03*
X178943000Y-68103800D03*
X181483000Y-65563800D03*
X181483000Y-68103800D03*
X184023000Y-65563800D03*
X184023000Y-68103800D03*
X186563000Y-65563800D03*
X186563000Y-68103800D03*
X189103000Y-65563800D03*
D11*
X189103000Y-68103800D03*
D12*
X155653000Y-74153800D03*
D13*
X163273000Y-107173800D03*
X155653000Y-76693800D03*
X163273000Y-104633800D03*
X155653000Y-79233800D03*
X163273000Y-102093800D03*
X155653000Y-81773800D03*
X163273000Y-99553800D03*
X155653000Y-84313800D03*
X163273000Y-97013800D03*
X155653000Y-86853800D03*
X163273000Y-94473800D03*
X155653000Y-89393800D03*
X163273000Y-91933800D03*
X155653000Y-91933800D03*
X163273000Y-89393800D03*
X155653000Y-94473800D03*
X163273000Y-86853800D03*
X155653000Y-97013800D03*
X163273000Y-84313800D03*
X155653000Y-99553800D03*
X163273000Y-81773800D03*
X155653000Y-102093800D03*
X163273000Y-79233800D03*
X155653000Y-104633800D03*
X163273000Y-76693800D03*
X155653000Y-107173800D03*
X163273000Y-74153800D03*
D14*
X150653000Y-91903800D03*
X150653000Y-96783800D03*
D15*
X180653000Y-74283800D03*
D16*
X180653000Y-81903800D03*
X185653000Y-81653800D03*
D15*
X185653000Y-74033800D03*
D17*
X167903000Y-96403800D03*
D13*
X167903000Y-88783800D03*
D12*
X167903000Y-74153800D03*
D13*
X175523000Y-81773800D03*
X167903000Y-76693800D03*
X175523000Y-79233800D03*
X167903000Y-79233800D03*
X175523000Y-76693800D03*
X167903000Y-81773800D03*
X175523000Y-74153800D03*
D18*
X209153000Y-70153800D03*
D13*
X199273000Y-78403800D03*
D17*
X191653000Y-78403800D03*
D19*
X141605000Y-80236000D03*
D20*
X141605000Y-85236000D03*
X141605000Y-90236000D03*
X141605000Y-95236000D03*
X141605000Y-100236000D03*
X141605000Y-105236000D03*
D12*
X185403000Y-90903800D03*
D17*
X188903000Y-90903800D03*
G04 #@! TA.AperFunction,SMDPad,CuDef*
D21*
G36*
X172403602Y-92753800D02*
G01*
X172403602Y-92729266D01*
X172408412Y-92680435D01*
X172417984Y-92632310D01*
X172432228Y-92585355D01*
X172451005Y-92540022D01*
X172474136Y-92496749D01*
X172501396Y-92455950D01*
X172532524Y-92418021D01*
X172567221Y-92383324D01*
X172605150Y-92352196D01*
X172645949Y-92324936D01*
X172689222Y-92301805D01*
X172734555Y-92283028D01*
X172781510Y-92268784D01*
X172829635Y-92259212D01*
X172878466Y-92254402D01*
X172903000Y-92254402D01*
X172903000Y-92253800D01*
X173403000Y-92253800D01*
X173403000Y-92254402D01*
X173427534Y-92254402D01*
X173476365Y-92259212D01*
X173524490Y-92268784D01*
X173571445Y-92283028D01*
X173616778Y-92301805D01*
X173660051Y-92324936D01*
X173700850Y-92352196D01*
X173738779Y-92383324D01*
X173773476Y-92418021D01*
X173804604Y-92455950D01*
X173831864Y-92496749D01*
X173854995Y-92540022D01*
X173873772Y-92585355D01*
X173888016Y-92632310D01*
X173897588Y-92680435D01*
X173902398Y-92729266D01*
X173902398Y-92753800D01*
X173903000Y-92753800D01*
X173903000Y-93253800D01*
X172403000Y-93253800D01*
X172403000Y-92753800D01*
X172403602Y-92753800D01*
G37*
G04 #@! TD.AperFunction*
G04 #@! TA.AperFunction,SMDPad,CuDef*
G36*
X173903000Y-93553800D02*
G01*
X173903000Y-94053800D01*
X173902398Y-94053800D01*
X173902398Y-94078334D01*
X173897588Y-94127165D01*
X173888016Y-94175290D01*
X173873772Y-94222245D01*
X173854995Y-94267578D01*
X173831864Y-94310851D01*
X173804604Y-94351650D01*
X173773476Y-94389579D01*
X173738779Y-94424276D01*
X173700850Y-94455404D01*
X173660051Y-94482664D01*
X173616778Y-94505795D01*
X173571445Y-94524572D01*
X173524490Y-94538816D01*
X173476365Y-94548388D01*
X173427534Y-94553198D01*
X173403000Y-94553198D01*
X173403000Y-94553800D01*
X172903000Y-94553800D01*
X172903000Y-94553198D01*
X172878466Y-94553198D01*
X172829635Y-94548388D01*
X172781510Y-94538816D01*
X172734555Y-94524572D01*
X172689222Y-94505795D01*
X172645949Y-94482664D01*
X172605150Y-94455404D01*
X172567221Y-94424276D01*
X172532524Y-94389579D01*
X172501396Y-94351650D01*
X172474136Y-94310851D01*
X172451005Y-94267578D01*
X172432228Y-94222245D01*
X172417984Y-94175290D01*
X172408412Y-94127165D01*
X172403602Y-94078334D01*
X172403602Y-94053800D01*
X172403000Y-94053800D01*
X172403000Y-93553800D01*
X173903000Y-93553800D01*
G37*
G04 #@! TD.AperFunction*
G04 #@! TA.AperFunction,SMDPad,CuDef*
G36*
X179403000Y-93303800D02*
G01*
X179403000Y-93803800D01*
X179402398Y-93803800D01*
X179402398Y-93828334D01*
X179397588Y-93877165D01*
X179388016Y-93925290D01*
X179373772Y-93972245D01*
X179354995Y-94017578D01*
X179331864Y-94060851D01*
X179304604Y-94101650D01*
X179273476Y-94139579D01*
X179238779Y-94174276D01*
X179200850Y-94205404D01*
X179160051Y-94232664D01*
X179116778Y-94255795D01*
X179071445Y-94274572D01*
X179024490Y-94288816D01*
X178976365Y-94298388D01*
X178927534Y-94303198D01*
X178903000Y-94303198D01*
X178903000Y-94303800D01*
X178403000Y-94303800D01*
X178403000Y-94303198D01*
X178378466Y-94303198D01*
X178329635Y-94298388D01*
X178281510Y-94288816D01*
X178234555Y-94274572D01*
X178189222Y-94255795D01*
X178145949Y-94232664D01*
X178105150Y-94205404D01*
X178067221Y-94174276D01*
X178032524Y-94139579D01*
X178001396Y-94101650D01*
X177974136Y-94060851D01*
X177951005Y-94017578D01*
X177932228Y-93972245D01*
X177917984Y-93925290D01*
X177908412Y-93877165D01*
X177903602Y-93828334D01*
X177903602Y-93803800D01*
X177903000Y-93803800D01*
X177903000Y-93303800D01*
X179403000Y-93303800D01*
G37*
G04 #@! TD.AperFunction*
G04 #@! TA.AperFunction,SMDPad,CuDef*
G36*
X177903602Y-92503800D02*
G01*
X177903602Y-92479266D01*
X177908412Y-92430435D01*
X177917984Y-92382310D01*
X177932228Y-92335355D01*
X177951005Y-92290022D01*
X177974136Y-92246749D01*
X178001396Y-92205950D01*
X178032524Y-92168021D01*
X178067221Y-92133324D01*
X178105150Y-92102196D01*
X178145949Y-92074936D01*
X178189222Y-92051805D01*
X178234555Y-92033028D01*
X178281510Y-92018784D01*
X178329635Y-92009212D01*
X178378466Y-92004402D01*
X178403000Y-92004402D01*
X178403000Y-92003800D01*
X178903000Y-92003800D01*
X178903000Y-92004402D01*
X178927534Y-92004402D01*
X178976365Y-92009212D01*
X179024490Y-92018784D01*
X179071445Y-92033028D01*
X179116778Y-92051805D01*
X179160051Y-92074936D01*
X179200850Y-92102196D01*
X179238779Y-92133324D01*
X179273476Y-92168021D01*
X179304604Y-92205950D01*
X179331864Y-92246749D01*
X179354995Y-92290022D01*
X179373772Y-92335355D01*
X179388016Y-92382310D01*
X179397588Y-92430435D01*
X179402398Y-92479266D01*
X179402398Y-92503800D01*
X179403000Y-92503800D01*
X179403000Y-93003800D01*
X177903000Y-93003800D01*
X177903000Y-92503800D01*
X177903602Y-92503800D01*
G37*
G04 #@! TD.AperFunction*
D11*
X171153000Y-106654000D03*
D10*
X168613000Y-106654000D03*
X171153000Y-104114000D03*
X168613000Y-104114000D03*
X171153000Y-101574000D03*
X168613000Y-101574000D03*
D22*
X139153000Y-69903800D03*
D11*
X180403000Y-101404000D03*
D10*
X182943000Y-101404000D03*
X180403000Y-103944000D03*
X182943000Y-103944000D03*
X180403000Y-106484000D03*
X182943000Y-106484000D03*
G04 #@! TA.AperFunction,ComponentPad*
D21*
G36*
X199695820Y-87496620D02*
G01*
X198310180Y-86696620D01*
X199110180Y-85310980D01*
X200495820Y-86110980D01*
X199695820Y-87496620D01*
G37*
G04 #@! TD.AperFunction*
D17*
X198258000Y-88386998D03*
X197113000Y-90370196D03*
X195968000Y-92353395D03*
X194823000Y-94336593D03*
X201690230Y-86402201D03*
X200545230Y-88385399D03*
X199400230Y-90368597D03*
X198255230Y-92351795D03*
X197110230Y-94334994D03*
X202832461Y-88383800D03*
X201687461Y-90366998D03*
X200542461Y-92350196D03*
X199397461Y-94333395D03*
X198252461Y-96316593D03*
D23*
X192225256Y-101676017D03*
X204725256Y-80025382D03*
D17*
X150653000Y-86403800D03*
X150653000Y-81403800D03*
X150653000Y-102154000D03*
X150653000Y-107154000D03*
D13*
X193783000Y-68653800D03*
D17*
X201403000Y-68653800D03*
X162653000Y-68903800D03*
D13*
X155033000Y-68903800D03*
D24*
X192653000Y-90903800D03*
X190903000Y-94903800D03*
X192403000Y-93403800D03*
X177403000Y-75153800D03*
X177903000Y-77153800D03*
X196153000Y-76653800D03*
X183403000Y-82903800D03*
X180403000Y-84403800D03*
X184153000Y-85903800D03*
X210403000Y-83403800D03*
X165653000Y-98653800D03*
X166153000Y-99403800D03*
X168903000Y-99903800D03*
X170153000Y-98153800D03*
X165903000Y-92403800D03*
X165403000Y-94903800D03*
X167153000Y-93903800D03*
X165903000Y-93653800D03*
X169368600Y-72481900D03*
X186870400Y-77587400D03*
X182090600Y-90464000D03*
X173403000Y-74153800D03*
X173403000Y-79403800D03*
X180903000Y-70903800D03*
X180846100Y-72460700D03*
X188903000Y-84403800D03*
X190153000Y-79653814D03*
X189653000Y-74903800D03*
X181726950Y-70079850D03*
X186324400Y-70075200D03*
X197403000Y-67153800D03*
X175783490Y-91997990D03*
X183600400Y-79364400D03*
X184403000Y-62403800D03*
X182847999Y-62458801D03*
X157155900Y-83075800D03*
D25*
X210403000Y-71403800D02*
X209153000Y-70153800D01*
X210403000Y-83403800D02*
X210403000Y-71403800D01*
X150653000Y-86403800D02*
X150653000Y-91903800D01*
X155653000Y-94473800D02*
X153223000Y-94473800D01*
X153223000Y-94473800D02*
X150653000Y-91903800D01*
X150653000Y-102154000D02*
X150653000Y-96783800D01*
X155653000Y-97013800D02*
X150883000Y-97013800D01*
X150883000Y-97013800D02*
X150653000Y-96783800D01*
X169368600Y-72481900D02*
X176379900Y-72481900D01*
X176379900Y-72481900D02*
X181485400Y-77587400D01*
X181485400Y-77587400D02*
X186870400Y-77587400D01*
X198258000Y-88387000D02*
X196851500Y-88387000D01*
X196851500Y-88387000D02*
X195460000Y-89778500D01*
X195460000Y-89778500D02*
X182776100Y-89778500D01*
X182776100Y-89778500D02*
X182090600Y-90464000D01*
X173403000Y-74153800D02*
X173403000Y-79403800D01*
X173403000Y-79403800D02*
X173403000Y-79403800D01*
X180903000Y-72403800D02*
X180846100Y-72460700D01*
X180903000Y-70903800D02*
X180903000Y-72403800D01*
D26*
X198255230Y-92351795D02*
X197850995Y-92351795D01*
D25*
X188903000Y-84403800D02*
X188903000Y-80903814D01*
X189753001Y-80053813D02*
X190153000Y-79653814D01*
X188903000Y-80903814D02*
X189753001Y-80053813D01*
X185653000Y-74033800D02*
X188783000Y-74033800D01*
X188783000Y-74033800D02*
X189653000Y-74903800D01*
X180403000Y-101404000D02*
X180403000Y-99499200D01*
X180403000Y-99499200D02*
X173657600Y-92753800D01*
X173657600Y-92753800D02*
X173153000Y-92753800D01*
X186245800Y-70153800D02*
X181800900Y-70153800D01*
X194634800Y-64385600D02*
X197003001Y-66753801D01*
X176403000Y-68103800D02*
X177578300Y-66928500D01*
X180307600Y-65028300D02*
X180950300Y-64385600D01*
X177578300Y-66928500D02*
X179339400Y-66928500D01*
X179339400Y-66928500D02*
X180307600Y-65960300D01*
X180307600Y-65960300D02*
X180307600Y-65028300D01*
X197003001Y-66753801D02*
X197403000Y-67153800D01*
X180950300Y-64385600D02*
X194634800Y-64385600D01*
X178653000Y-92503800D02*
X176289300Y-92503800D01*
X176289300Y-92503800D02*
X175783490Y-91997990D01*
X176000811Y-82953789D02*
X179590200Y-79364400D01*
X179590200Y-79364400D02*
X183034715Y-79364400D01*
X183034715Y-79364400D02*
X183600400Y-79364400D01*
X159553011Y-82953789D02*
X176000811Y-82953789D01*
X155653000Y-86853800D02*
X159553011Y-82953789D01*
X190305081Y-65563800D02*
X189103000Y-65563800D01*
X192368300Y-65563800D02*
X190305081Y-65563800D01*
X201905100Y-75100600D02*
X192368300Y-65563800D01*
X201905100Y-78864100D02*
X201905100Y-75100600D01*
X174153000Y-88403800D02*
X192365400Y-88403800D01*
X171353011Y-91203789D02*
X174153000Y-88403800D01*
X170153000Y-92267389D02*
X171216600Y-91203789D01*
X171216600Y-91203789D02*
X171353011Y-91203789D01*
X170153000Y-96903800D02*
X170153000Y-92267389D01*
X166153000Y-100903800D02*
X170153000Y-96903800D01*
X192365400Y-88403800D02*
X201905100Y-78864100D01*
X155653000Y-99553800D02*
X157003000Y-100903800D01*
X157003000Y-100903800D02*
X166153000Y-100903800D01*
D27*
X154654591Y-63312723D02*
X136653000Y-81314314D01*
X182847999Y-62458801D02*
X181994077Y-63312723D01*
X181994077Y-63312723D02*
X154654591Y-63312723D01*
X136653000Y-95284000D02*
X141605000Y-100236000D01*
X136653000Y-81314314D02*
X136653000Y-95284000D01*
D25*
X177390100Y-71756600D02*
X165755800Y-71756600D01*
X165755800Y-71756600D02*
X162653000Y-68653800D01*
X179227700Y-74283800D02*
X177390100Y-72446200D01*
X177390100Y-72446200D02*
X177390100Y-71756600D01*
X177390100Y-71756600D02*
X180307600Y-68839100D01*
X180307600Y-68839100D02*
X180307600Y-67578200D01*
X180307600Y-67578200D02*
X181146700Y-66739100D01*
X181146700Y-66739100D02*
X182039800Y-66739100D01*
X182039800Y-66739100D02*
X182847700Y-65931200D01*
X182847700Y-65931200D02*
X182847700Y-65563800D01*
X184023000Y-65563800D02*
X182847700Y-65563800D01*
X180653000Y-74283800D02*
X179227700Y-74283800D01*
X182078300Y-74283800D02*
X180653000Y-74283800D01*
X183503600Y-75709100D02*
X182078300Y-74283800D01*
X196953000Y-75709100D02*
X183503600Y-75709100D01*
X199273000Y-78403800D02*
X199273000Y-78029100D01*
X199273000Y-78029100D02*
X196953000Y-75709100D01*
X181483000Y-68103800D02*
X182658300Y-68103800D01*
X193783000Y-68653800D02*
X192657700Y-68653800D01*
X192657700Y-68653800D02*
X190932400Y-66928500D01*
X190932400Y-66928500D02*
X183466200Y-66928500D01*
X183466200Y-66928500D02*
X182658300Y-67736400D01*
X182658300Y-67736400D02*
X182658300Y-68103800D01*
X178943000Y-65563800D02*
X176403000Y-65563800D01*
X166243000Y-68103800D02*
X165067700Y-68103800D01*
X165067700Y-68103800D02*
X164477600Y-67513700D01*
X164477600Y-67513700D02*
X151266800Y-67513700D01*
X151266800Y-67513700D02*
X139979600Y-78800900D01*
X139979600Y-78800900D02*
X139979600Y-83610600D01*
X139979600Y-83610600D02*
X141605000Y-85236000D01*
X167903000Y-76693800D02*
X166777700Y-76693800D01*
X166777700Y-76693800D02*
X165652400Y-77819100D01*
X165652400Y-77819100D02*
X162412600Y-77819100D01*
X162412600Y-77819100D02*
X157155900Y-83075800D01*
X163273000Y-94473800D02*
X162147700Y-94473800D01*
X159900100Y-91100900D02*
X162147700Y-93348500D01*
X162147700Y-93348500D02*
X162147700Y-94473800D01*
X156665700Y-89393800D02*
X158193000Y-89393800D01*
X158193000Y-89393800D02*
X159900100Y-91100900D01*
X155653000Y-89393800D02*
X156665700Y-89393800D01*
X181365700Y-81903800D02*
X182078300Y-81903800D01*
X180653000Y-81903800D02*
X181365700Y-81903800D01*
X185653000Y-81653800D02*
X182328300Y-81653800D01*
X182328300Y-81653800D02*
X182078300Y-81903800D01*
X171353000Y-83403800D02*
X166488300Y-88268500D01*
X179865700Y-83403800D02*
X171353000Y-83403800D01*
X162732500Y-88268500D02*
X159900100Y-91100900D01*
X181365700Y-81903800D02*
X179865700Y-83403800D01*
X166488300Y-88268500D02*
X162732500Y-88268500D01*
X155653000Y-84313800D02*
X154527700Y-84313800D01*
X141605000Y-80236000D02*
X151153200Y-80236000D01*
X151153200Y-80236000D02*
X154527700Y-83610500D01*
X154527700Y-83610500D02*
X154527700Y-84313800D01*
X178153200Y-78403800D02*
X191653000Y-78403800D01*
X155653000Y-84313800D02*
X156943700Y-84313800D01*
X175972800Y-80584200D02*
X178153200Y-78403800D01*
X160673300Y-80584200D02*
X175972800Y-80584200D01*
X156943700Y-84313800D02*
X160673300Y-80584200D01*
X163273000Y-102093800D02*
X164398300Y-102093800D01*
X168613000Y-104114000D02*
X166418500Y-104114000D01*
X166418500Y-104114000D02*
X164398300Y-102093800D01*
X155033000Y-68653800D02*
X155033000Y-69779100D01*
X155033000Y-69779100D02*
X155653000Y-70399100D01*
X155653000Y-70399100D02*
X155653000Y-74153800D01*
X208189800Y-90367000D02*
X208403000Y-90153800D01*
X176952989Y-88853811D02*
X174153000Y-91653800D01*
X206153000Y-82403800D02*
X201521800Y-82403800D01*
X171403000Y-91653800D02*
X171403000Y-92713436D01*
X171403000Y-92713436D02*
X172743364Y-94053800D01*
X174153000Y-91653800D02*
X171403000Y-91653800D01*
X201687500Y-90367000D02*
X208189800Y-90367000D01*
X201521800Y-82403800D02*
X195071789Y-88853811D01*
X208403000Y-90153800D02*
X208403000Y-84653800D01*
X195071789Y-88853811D02*
X176952989Y-88853811D01*
X172743364Y-94053800D02*
X173153000Y-94053800D01*
X208403000Y-84653800D02*
X206153000Y-82403800D01*
X198252500Y-96316600D02*
X181165800Y-96316600D01*
X181165800Y-96316600D02*
X178653000Y-93803800D01*
X186153000Y-107154000D02*
X182943000Y-103944000D01*
X186153000Y-108903800D02*
X186153000Y-107154000D01*
X155653000Y-107173800D02*
X157883000Y-109403800D01*
X185653000Y-109403800D02*
X186153000Y-108903800D01*
X157883000Y-109403800D02*
X185653000Y-109403800D01*
X180523200Y-108903800D02*
X182943000Y-106484000D01*
X163273000Y-107173800D02*
X165003000Y-108903800D01*
X165003000Y-108903800D02*
X180523200Y-108903800D01*
D28*
G36*
X177436893Y-58396418D02*
G01*
X181894818Y-58572394D01*
X186343904Y-58903844D01*
X190778726Y-59390364D01*
X195193826Y-60031355D01*
X199583891Y-60826045D01*
X203943576Y-61773468D01*
X208267481Y-62872450D01*
X212551905Y-64122104D01*
X215239998Y-64995518D01*
X215239999Y-82477128D01*
X199621729Y-109560000D01*
X186571601Y-109560000D01*
X186663998Y-109467603D01*
X186693001Y-109443801D01*
X186787974Y-109328076D01*
X186858546Y-109196047D01*
X186902003Y-109052786D01*
X186913000Y-108941133D01*
X186913000Y-108941125D01*
X186916676Y-108903800D01*
X186913000Y-108866475D01*
X186913000Y-107191333D01*
X186916677Y-107154000D01*
X186902003Y-107005014D01*
X186858546Y-106861753D01*
X186787974Y-106729724D01*
X186716799Y-106642997D01*
X186693001Y-106613999D01*
X186664003Y-106590201D01*
X184384209Y-104310408D01*
X184428000Y-104090260D01*
X184428000Y-103797740D01*
X184370932Y-103510842D01*
X184258990Y-103240589D01*
X184096475Y-102997368D01*
X183889632Y-102790525D01*
X183715240Y-102674000D01*
X183889632Y-102557475D01*
X184096475Y-102350632D01*
X184258990Y-102107411D01*
X184370932Y-101837158D01*
X184428000Y-101550260D01*
X184428000Y-101416492D01*
X189590256Y-101416492D01*
X189590256Y-101935542D01*
X189691517Y-102444618D01*
X189890149Y-102924158D01*
X190178518Y-103355732D01*
X190545541Y-103722755D01*
X190977115Y-104011124D01*
X191456655Y-104209756D01*
X191965731Y-104311017D01*
X192484781Y-104311017D01*
X192993857Y-104209756D01*
X193473397Y-104011124D01*
X193904971Y-103722755D01*
X194271994Y-103355732D01*
X194560363Y-102924158D01*
X194758995Y-102444618D01*
X194860256Y-101935542D01*
X194860256Y-101416492D01*
X194758995Y-100907416D01*
X194560363Y-100427876D01*
X194271994Y-99996302D01*
X193904971Y-99629279D01*
X193473397Y-99340910D01*
X192993857Y-99142278D01*
X192484781Y-99041017D01*
X191965731Y-99041017D01*
X191456655Y-99142278D01*
X190977115Y-99340910D01*
X190545541Y-99629279D01*
X190178518Y-99996302D01*
X189890149Y-100427876D01*
X189691517Y-100907416D01*
X189590256Y-101416492D01*
X184428000Y-101416492D01*
X184428000Y-101257740D01*
X184370932Y-100970842D01*
X184258990Y-100700589D01*
X184096475Y-100457368D01*
X183889632Y-100250525D01*
X183646411Y-100088010D01*
X183376158Y-99976068D01*
X183089260Y-99919000D01*
X182796740Y-99919000D01*
X182509842Y-99976068D01*
X182239589Y-100088010D01*
X181996368Y-100250525D01*
X181864513Y-100382380D01*
X181842502Y-100309820D01*
X181783537Y-100199506D01*
X181704185Y-100102815D01*
X181607494Y-100023463D01*
X181497180Y-99964498D01*
X181377482Y-99928188D01*
X181253000Y-99915928D01*
X181163000Y-99915928D01*
X181163000Y-99536522D01*
X181166676Y-99499199D01*
X181163000Y-99461876D01*
X181163000Y-99461867D01*
X181152003Y-99350214D01*
X181108546Y-99206953D01*
X181037974Y-99074924D01*
X180943001Y-98959199D01*
X180914003Y-98935401D01*
X174518332Y-92539731D01*
X174507282Y-92484177D01*
X174470973Y-92364481D01*
X174464568Y-92349018D01*
X174577276Y-92288774D01*
X174693001Y-92193801D01*
X174716804Y-92164797D01*
X174753995Y-92127606D01*
X174788264Y-92299888D01*
X174866285Y-92488246D01*
X174979553Y-92657764D01*
X175123716Y-92801927D01*
X175293234Y-92915195D01*
X175481592Y-92993216D01*
X175681551Y-93032990D01*
X175740427Y-93032990D01*
X175749299Y-93043801D01*
X175865024Y-93138774D01*
X175997053Y-93209346D01*
X176140314Y-93252803D01*
X176251967Y-93263800D01*
X176251976Y-93263800D01*
X176289299Y-93267476D01*
X176326622Y-93263800D01*
X177268868Y-93263800D01*
X177264928Y-93303800D01*
X177264928Y-93803800D01*
X177267336Y-93828250D01*
X177267336Y-93852809D01*
X177279596Y-93977290D01*
X177298718Y-94073423D01*
X177335027Y-94193119D01*
X177372536Y-94283675D01*
X177431502Y-94393992D01*
X177485958Y-94475491D01*
X177565310Y-94572182D01*
X177634618Y-94641490D01*
X177731309Y-94720842D01*
X177812808Y-94775298D01*
X177923125Y-94834264D01*
X178013681Y-94871773D01*
X178133377Y-94908082D01*
X178229510Y-94927204D01*
X178353991Y-94939464D01*
X178378550Y-94939464D01*
X178403000Y-94941872D01*
X178716271Y-94941872D01*
X180602001Y-96827603D01*
X180625799Y-96856601D01*
X180741524Y-96951574D01*
X180873553Y-97022146D01*
X181016814Y-97065603D01*
X181128467Y-97076600D01*
X181128477Y-97076600D01*
X181165800Y-97080276D01*
X181203123Y-97076600D01*
X197034422Y-97076600D01*
X197137824Y-97231352D01*
X197337702Y-97431230D01*
X197572734Y-97588273D01*
X197833887Y-97696446D01*
X198111126Y-97751593D01*
X198393796Y-97751593D01*
X198671035Y-97696446D01*
X198932188Y-97588273D01*
X199167220Y-97431230D01*
X199367098Y-97231352D01*
X199524141Y-96996320D01*
X199632314Y-96735167D01*
X199687461Y-96457928D01*
X199687461Y-96175258D01*
X199632314Y-95898019D01*
X199575590Y-95761076D01*
X199816035Y-95713248D01*
X200077188Y-95605075D01*
X200312220Y-95448032D01*
X200512098Y-95248154D01*
X200669141Y-95013122D01*
X200777314Y-94751969D01*
X200832461Y-94474730D01*
X200832461Y-94192060D01*
X200777314Y-93914821D01*
X200720590Y-93777877D01*
X200961035Y-93730049D01*
X201222188Y-93621876D01*
X201457220Y-93464833D01*
X201657098Y-93264955D01*
X201814141Y-93029923D01*
X201922314Y-92768770D01*
X201977461Y-92491531D01*
X201977461Y-92208861D01*
X201922314Y-91931622D01*
X201865590Y-91794679D01*
X202106035Y-91746851D01*
X202367188Y-91638678D01*
X202602220Y-91481635D01*
X202802098Y-91281757D01*
X202905503Y-91127000D01*
X208152478Y-91127000D01*
X208189800Y-91130676D01*
X208227122Y-91127000D01*
X208227133Y-91127000D01*
X208338786Y-91116003D01*
X208482047Y-91072546D01*
X208614076Y-91001974D01*
X208729801Y-90907001D01*
X208753604Y-90877997D01*
X208913998Y-90717603D01*
X208943001Y-90693801D01*
X209037974Y-90578076D01*
X209108546Y-90446047D01*
X209152003Y-90302786D01*
X209163000Y-90191133D01*
X209163000Y-90191124D01*
X209166676Y-90153801D01*
X209163000Y-90116478D01*
X209163000Y-84691133D01*
X209166677Y-84653800D01*
X209152003Y-84504814D01*
X209108546Y-84361553D01*
X209037974Y-84229524D01*
X208966799Y-84142797D01*
X208943001Y-84113799D01*
X208914003Y-84090001D01*
X206716804Y-81892803D01*
X206693001Y-81863799D01*
X206649221Y-81827870D01*
X206771994Y-81705097D01*
X207060363Y-81273523D01*
X207258995Y-80793983D01*
X207360256Y-80284907D01*
X207360256Y-79765857D01*
X207258995Y-79256781D01*
X207060363Y-78777241D01*
X206771994Y-78345667D01*
X206404971Y-77978644D01*
X205973397Y-77690275D01*
X205493857Y-77491643D01*
X204984781Y-77390382D01*
X204465731Y-77390382D01*
X203956655Y-77491643D01*
X203477115Y-77690275D01*
X203045541Y-77978644D01*
X202678518Y-78345667D01*
X202665100Y-78365748D01*
X202665100Y-75137923D01*
X202668776Y-75100600D01*
X202665100Y-75063277D01*
X202665100Y-75063267D01*
X202654103Y-74951614D01*
X202610646Y-74808353D01*
X202596989Y-74782803D01*
X202540074Y-74676323D01*
X202468899Y-74589597D01*
X202445101Y-74560599D01*
X202416103Y-74536801D01*
X200947257Y-73067955D01*
X206418450Y-73067955D01*
X206814634Y-73588350D01*
X207529612Y-73978548D01*
X208306976Y-74221764D01*
X209116853Y-74308651D01*
X209928118Y-74235869D01*
X210709597Y-74006215D01*
X211431256Y-73628515D01*
X211491366Y-73588350D01*
X211887550Y-73067955D01*
X209153000Y-70333405D01*
X206418450Y-73067955D01*
X200947257Y-73067955D01*
X197996955Y-70117653D01*
X204998149Y-70117653D01*
X205070931Y-70928918D01*
X205300585Y-71710397D01*
X205678285Y-72432056D01*
X205718450Y-72492166D01*
X206238845Y-72888350D01*
X208973395Y-70153800D01*
X209332605Y-70153800D01*
X212067155Y-72888350D01*
X212587550Y-72492166D01*
X212977748Y-71777188D01*
X213220964Y-70999824D01*
X213307851Y-70189947D01*
X213235069Y-69378682D01*
X213005415Y-68597203D01*
X212627715Y-67875544D01*
X212587550Y-67815434D01*
X212067155Y-67419250D01*
X209332605Y-70153800D01*
X208973395Y-70153800D01*
X206238845Y-67419250D01*
X205718450Y-67815434D01*
X205328252Y-68530412D01*
X205085036Y-69307776D01*
X204998149Y-70117653D01*
X197996955Y-70117653D01*
X197525804Y-69646502D01*
X200589903Y-69646502D01*
X200661486Y-69890471D01*
X200916996Y-70011371D01*
X201191184Y-70080100D01*
X201473512Y-70094017D01*
X201753130Y-70052587D01*
X202019292Y-69957403D01*
X202144514Y-69890471D01*
X202216097Y-69646502D01*
X201403000Y-68833405D01*
X200589903Y-69646502D01*
X197525804Y-69646502D01*
X196603614Y-68724312D01*
X199962783Y-68724312D01*
X200004213Y-69003930D01*
X200099397Y-69270092D01*
X200166329Y-69395314D01*
X200410298Y-69466897D01*
X201223395Y-68653800D01*
X201582605Y-68653800D01*
X202395702Y-69466897D01*
X202639671Y-69395314D01*
X202760571Y-69139804D01*
X202829300Y-68865616D01*
X202843217Y-68583288D01*
X202801787Y-68303670D01*
X202706603Y-68037508D01*
X202639671Y-67912286D01*
X202395702Y-67840703D01*
X201582605Y-68653800D01*
X201223395Y-68653800D01*
X200410298Y-67840703D01*
X200166329Y-67912286D01*
X200045429Y-68167796D01*
X199976700Y-68441984D01*
X199962783Y-68724312D01*
X196603614Y-68724312D01*
X193024901Y-65145600D01*
X194319999Y-65145600D01*
X196368000Y-67193602D01*
X196368000Y-67255739D01*
X196407774Y-67455698D01*
X196485795Y-67644056D01*
X196599063Y-67813574D01*
X196743226Y-67957737D01*
X196912744Y-68071005D01*
X197101102Y-68149026D01*
X197301061Y-68188800D01*
X197504939Y-68188800D01*
X197704898Y-68149026D01*
X197893256Y-68071005D01*
X198062774Y-67957737D01*
X198206937Y-67813574D01*
X198308817Y-67661098D01*
X200589903Y-67661098D01*
X201403000Y-68474195D01*
X202216097Y-67661098D01*
X202144514Y-67417129D01*
X201889004Y-67296229D01*
X201663268Y-67239645D01*
X206418450Y-67239645D01*
X209153000Y-69974195D01*
X211887550Y-67239645D01*
X211491366Y-66719250D01*
X210776388Y-66329052D01*
X209999024Y-66085836D01*
X209189147Y-65998949D01*
X208377882Y-66071731D01*
X207596403Y-66301385D01*
X206874744Y-66679085D01*
X206814634Y-66719250D01*
X206418450Y-67239645D01*
X201663268Y-67239645D01*
X201614816Y-67227500D01*
X201332488Y-67213583D01*
X201052870Y-67255013D01*
X200786708Y-67350197D01*
X200661486Y-67417129D01*
X200589903Y-67661098D01*
X198308817Y-67661098D01*
X198320205Y-67644056D01*
X198398226Y-67455698D01*
X198438000Y-67255739D01*
X198438000Y-67051861D01*
X198398226Y-66851902D01*
X198320205Y-66663544D01*
X198206937Y-66494026D01*
X198062774Y-66349863D01*
X197893256Y-66236595D01*
X197704898Y-66158574D01*
X197504939Y-66118800D01*
X197442802Y-66118800D01*
X195198604Y-63874603D01*
X195174801Y-63845599D01*
X195059076Y-63750626D01*
X194927047Y-63680054D01*
X194783786Y-63636597D01*
X194672133Y-63625600D01*
X194672122Y-63625600D01*
X194634800Y-63621924D01*
X194597478Y-63625600D01*
X182932778Y-63625600D01*
X183093043Y-63465336D01*
X183149897Y-63454027D01*
X183338255Y-63376006D01*
X183507773Y-63262738D01*
X183651936Y-63118575D01*
X183652788Y-63117299D01*
X183743226Y-63207737D01*
X183912744Y-63321005D01*
X184101102Y-63399026D01*
X184301061Y-63438800D01*
X184504939Y-63438800D01*
X184704898Y-63399026D01*
X184893256Y-63321005D01*
X185062774Y-63207737D01*
X185206937Y-63063574D01*
X185320205Y-62894056D01*
X185398226Y-62705698D01*
X185438000Y-62505739D01*
X185438000Y-62301861D01*
X185398226Y-62101902D01*
X185320205Y-61913544D01*
X185206937Y-61744026D01*
X185062774Y-61599863D01*
X184893256Y-61486595D01*
X184704898Y-61408574D01*
X184504939Y-61368800D01*
X184301061Y-61368800D01*
X184101102Y-61408574D01*
X183912744Y-61486595D01*
X183743226Y-61599863D01*
X183599063Y-61744026D01*
X183598211Y-61745302D01*
X183507773Y-61654864D01*
X183338255Y-61541596D01*
X183149897Y-61463575D01*
X182949938Y-61423801D01*
X182746060Y-61423801D01*
X182546101Y-61463575D01*
X182357743Y-61541596D01*
X182188225Y-61654864D01*
X182044062Y-61799027D01*
X181930794Y-61968545D01*
X181852773Y-62156903D01*
X181841464Y-62213757D01*
X181627499Y-62427723D01*
X154698056Y-62427723D01*
X154654590Y-62423442D01*
X154611124Y-62427723D01*
X154611114Y-62427723D01*
X154481101Y-62440528D01*
X154314278Y-62491134D01*
X154160532Y-62573312D01*
X154136338Y-62593168D01*
X154059544Y-62656191D01*
X154059542Y-62656193D01*
X154025774Y-62683906D01*
X153998061Y-62717674D01*
X136057956Y-80657780D01*
X136024183Y-80685497D01*
X135913589Y-80820256D01*
X135831411Y-80974002D01*
X135807508Y-81052799D01*
X135781018Y-81140124D01*
X135780805Y-81140825D01*
X135768000Y-81270838D01*
X135768000Y-81270845D01*
X135763719Y-81314314D01*
X135768000Y-81357783D01*
X135768001Y-95240521D01*
X135763719Y-95284000D01*
X135780805Y-95457490D01*
X135831412Y-95624313D01*
X135913590Y-95778059D01*
X135996468Y-95879046D01*
X135996471Y-95879049D01*
X136024184Y-95912817D01*
X136057952Y-95940530D01*
X139757436Y-99640015D01*
X139744361Y-99671581D01*
X139670000Y-100045419D01*
X139670000Y-100426581D01*
X139744361Y-100800419D01*
X139890225Y-101152566D01*
X140101987Y-101469491D01*
X140371509Y-101739013D01*
X140688434Y-101950775D01*
X141040581Y-102096639D01*
X141414419Y-102171000D01*
X141795581Y-102171000D01*
X142169419Y-102096639D01*
X142521566Y-101950775D01*
X142838491Y-101739013D01*
X143108013Y-101469491D01*
X143319775Y-101152566D01*
X143465639Y-100800419D01*
X143540000Y-100426581D01*
X143540000Y-100045419D01*
X143465639Y-99671581D01*
X143319775Y-99319434D01*
X143108013Y-99002509D01*
X142838491Y-98732987D01*
X142521566Y-98521225D01*
X142169419Y-98375361D01*
X141795581Y-98301000D01*
X141414419Y-98301000D01*
X141040581Y-98375361D01*
X141009015Y-98388436D01*
X137665998Y-95045419D01*
X139670000Y-95045419D01*
X139670000Y-95426581D01*
X139744361Y-95800419D01*
X139890225Y-96152566D01*
X140101987Y-96469491D01*
X140371509Y-96739013D01*
X140688434Y-96950775D01*
X141040581Y-97096639D01*
X141414419Y-97171000D01*
X141795581Y-97171000D01*
X142169419Y-97096639D01*
X142521566Y-96950775D01*
X142838491Y-96739013D01*
X143108013Y-96469491D01*
X143319775Y-96152566D01*
X143465639Y-95800419D01*
X143540000Y-95426581D01*
X143540000Y-95045419D01*
X143465639Y-94671581D01*
X143319775Y-94319434D01*
X143108013Y-94002509D01*
X142838491Y-93732987D01*
X142521566Y-93521225D01*
X142169419Y-93375361D01*
X141795581Y-93301000D01*
X141414419Y-93301000D01*
X141040581Y-93375361D01*
X140688434Y-93521225D01*
X140371509Y-93732987D01*
X140101987Y-94002509D01*
X139890225Y-94319434D01*
X139744361Y-94671581D01*
X139670000Y-95045419D01*
X137665998Y-95045419D01*
X137538000Y-94917422D01*
X137538000Y-90045419D01*
X139670000Y-90045419D01*
X139670000Y-90426581D01*
X139744361Y-90800419D01*
X139890225Y-91152566D01*
X140101987Y-91469491D01*
X140371509Y-91739013D01*
X140688434Y-91950775D01*
X141040581Y-92096639D01*
X141414419Y-92171000D01*
X141795581Y-92171000D01*
X142169419Y-92096639D01*
X142521566Y-91950775D01*
X142838491Y-91739013D01*
X143108013Y-91469491D01*
X143319775Y-91152566D01*
X143465639Y-90800419D01*
X143540000Y-90426581D01*
X143540000Y-90045419D01*
X143465639Y-89671581D01*
X143319775Y-89319434D01*
X143108013Y-89002509D01*
X142838491Y-88732987D01*
X142521566Y-88521225D01*
X142169419Y-88375361D01*
X141795581Y-88301000D01*
X141414419Y-88301000D01*
X141040581Y-88375361D01*
X140688434Y-88521225D01*
X140371509Y-88732987D01*
X140101987Y-89002509D01*
X139890225Y-89319434D01*
X139744361Y-89671581D01*
X139670000Y-90045419D01*
X137538000Y-90045419D01*
X137538000Y-81680892D01*
X139219600Y-79999292D01*
X139219601Y-83573268D01*
X139215924Y-83610600D01*
X139219601Y-83647933D01*
X139230598Y-83759586D01*
X139237199Y-83781346D01*
X139274054Y-83902846D01*
X139344626Y-84034876D01*
X139405743Y-84109346D01*
X139439600Y-84150601D01*
X139468598Y-84174399D01*
X139809213Y-84515014D01*
X139744361Y-84671581D01*
X139670000Y-85045419D01*
X139670000Y-85426581D01*
X139744361Y-85800419D01*
X139890225Y-86152566D01*
X140101987Y-86469491D01*
X140371509Y-86739013D01*
X140688434Y-86950775D01*
X141040581Y-87096639D01*
X141414419Y-87171000D01*
X141795581Y-87171000D01*
X142169419Y-87096639D01*
X142521566Y-86950775D01*
X142838491Y-86739013D01*
X143108013Y-86469491D01*
X143319775Y-86152566D01*
X143465639Y-85800419D01*
X143540000Y-85426581D01*
X143540000Y-85045419D01*
X143465639Y-84671581D01*
X143319775Y-84319434D01*
X143108013Y-84002509D01*
X142838491Y-83732987D01*
X142521566Y-83521225D01*
X142169419Y-83375361D01*
X141795581Y-83301000D01*
X141414419Y-83301000D01*
X141040581Y-83375361D01*
X140884014Y-83440213D01*
X140739600Y-83295799D01*
X140739600Y-82396502D01*
X149839903Y-82396502D01*
X149911486Y-82640471D01*
X150166996Y-82761371D01*
X150441184Y-82830100D01*
X150723512Y-82844017D01*
X151003130Y-82802587D01*
X151269292Y-82707403D01*
X151394514Y-82640471D01*
X151466097Y-82396502D01*
X150653000Y-81583405D01*
X149839903Y-82396502D01*
X140739600Y-82396502D01*
X140739600Y-82174072D01*
X142905000Y-82174072D01*
X143029482Y-82161812D01*
X143149180Y-82125502D01*
X143259494Y-82066537D01*
X143356185Y-81987185D01*
X143435537Y-81890494D01*
X143494502Y-81780180D01*
X143530812Y-81660482D01*
X143543072Y-81536000D01*
X143543072Y-80996000D01*
X149275826Y-80996000D01*
X149226700Y-81191984D01*
X149212783Y-81474312D01*
X149254213Y-81753930D01*
X149349397Y-82020092D01*
X149416329Y-82145314D01*
X149660298Y-82216897D01*
X150473395Y-81403800D01*
X150459253Y-81389658D01*
X150638858Y-81210053D01*
X150653000Y-81224195D01*
X150667143Y-81210053D01*
X150846748Y-81389658D01*
X150832605Y-81403800D01*
X151645702Y-82216897D01*
X151889671Y-82145314D01*
X151921161Y-82078763D01*
X153767700Y-83925302D01*
X153767700Y-84276467D01*
X153764023Y-84313800D01*
X153778697Y-84462786D01*
X153822154Y-84606047D01*
X153892726Y-84738076D01*
X153987699Y-84853801D01*
X154103424Y-84948774D01*
X154235453Y-85019346D01*
X154378714Y-85062803D01*
X154431053Y-85067958D01*
X154538363Y-85228559D01*
X154738241Y-85428437D01*
X154970759Y-85583800D01*
X154738241Y-85739163D01*
X154538363Y-85939041D01*
X154381320Y-86174073D01*
X154273147Y-86435226D01*
X154218000Y-86712465D01*
X154218000Y-86995135D01*
X154273147Y-87272374D01*
X154381320Y-87533527D01*
X154538363Y-87768559D01*
X154738241Y-87968437D01*
X154970759Y-88123800D01*
X154738241Y-88279163D01*
X154538363Y-88479041D01*
X154381320Y-88714073D01*
X154273147Y-88975226D01*
X154218000Y-89252465D01*
X154218000Y-89535135D01*
X154273147Y-89812374D01*
X154381320Y-90073527D01*
X154538363Y-90308559D01*
X154738241Y-90508437D01*
X154973273Y-90665480D01*
X154983865Y-90669867D01*
X154797869Y-90781415D01*
X154589481Y-90970386D01*
X154421963Y-91196380D01*
X154301754Y-91450713D01*
X154261096Y-91584761D01*
X154383085Y-91806800D01*
X155526000Y-91806800D01*
X155526000Y-91786800D01*
X155780000Y-91786800D01*
X155780000Y-91806800D01*
X156922915Y-91806800D01*
X157044904Y-91584761D01*
X157004246Y-91450713D01*
X156884037Y-91196380D01*
X156716519Y-90970386D01*
X156508131Y-90781415D01*
X156322135Y-90669867D01*
X156332727Y-90665480D01*
X156567759Y-90508437D01*
X156767637Y-90308559D01*
X156871043Y-90153800D01*
X157878199Y-90153800D01*
X159336300Y-91611902D01*
X159360099Y-91640901D01*
X159389097Y-91664699D01*
X159389102Y-91664703D01*
X161387700Y-93663303D01*
X161387701Y-94436458D01*
X161384023Y-94473800D01*
X161398697Y-94622786D01*
X161442154Y-94766047D01*
X161512726Y-94898076D01*
X161607699Y-95013801D01*
X161723424Y-95108774D01*
X161855453Y-95179346D01*
X161998714Y-95222803D01*
X162051053Y-95227958D01*
X162158363Y-95388559D01*
X162358241Y-95588437D01*
X162590759Y-95743800D01*
X162358241Y-95899163D01*
X162158363Y-96099041D01*
X162001320Y-96334073D01*
X161893147Y-96595226D01*
X161838000Y-96872465D01*
X161838000Y-97155135D01*
X161893147Y-97432374D01*
X162001320Y-97693527D01*
X162158363Y-97928559D01*
X162358241Y-98128437D01*
X162590759Y-98283800D01*
X162358241Y-98439163D01*
X162158363Y-98639041D01*
X162001320Y-98874073D01*
X161893147Y-99135226D01*
X161838000Y-99412465D01*
X161838000Y-99695135D01*
X161893147Y-99972374D01*
X161964154Y-100143800D01*
X157317802Y-100143800D01*
X157051688Y-99877686D01*
X157088000Y-99695135D01*
X157088000Y-99412465D01*
X157032853Y-99135226D01*
X156924680Y-98874073D01*
X156767637Y-98639041D01*
X156567759Y-98439163D01*
X156335241Y-98283800D01*
X156567759Y-98128437D01*
X156767637Y-97928559D01*
X156924680Y-97693527D01*
X157032853Y-97432374D01*
X157088000Y-97155135D01*
X157088000Y-96872465D01*
X157032853Y-96595226D01*
X156924680Y-96334073D01*
X156767637Y-96099041D01*
X156567759Y-95899163D01*
X156335241Y-95743800D01*
X156567759Y-95588437D01*
X156767637Y-95388559D01*
X156924680Y-95153527D01*
X157032853Y-94892374D01*
X157088000Y-94615135D01*
X157088000Y-94332465D01*
X157032853Y-94055226D01*
X156924680Y-93794073D01*
X156767637Y-93559041D01*
X156567759Y-93359163D01*
X156332727Y-93202120D01*
X156322135Y-93197733D01*
X156508131Y-93086185D01*
X156716519Y-92897214D01*
X156884037Y-92671220D01*
X157004246Y-92416887D01*
X157044904Y-92282839D01*
X156922915Y-92060800D01*
X155780000Y-92060800D01*
X155780000Y-92080800D01*
X155526000Y-92080800D01*
X155526000Y-92060800D01*
X154383085Y-92060800D01*
X154261096Y-92282839D01*
X154301754Y-92416887D01*
X154421963Y-92671220D01*
X154589481Y-92897214D01*
X154797869Y-93086185D01*
X154983865Y-93197733D01*
X154973273Y-93202120D01*
X154738241Y-93359163D01*
X154538363Y-93559041D01*
X154434957Y-93713800D01*
X153537802Y-93713800D01*
X152009167Y-92185165D01*
X152038000Y-92040211D01*
X152038000Y-91767389D01*
X151984775Y-91499811D01*
X151880371Y-91247757D01*
X151728799Y-91020914D01*
X151535886Y-90828001D01*
X151413000Y-90745891D01*
X151413000Y-87621843D01*
X151567759Y-87518437D01*
X151767637Y-87318559D01*
X151924680Y-87083527D01*
X152032853Y-86822374D01*
X152088000Y-86545135D01*
X152088000Y-86262465D01*
X152032853Y-85985226D01*
X151924680Y-85724073D01*
X151767637Y-85489041D01*
X151567759Y-85289163D01*
X151332727Y-85132120D01*
X151071574Y-85023947D01*
X150794335Y-84968800D01*
X150511665Y-84968800D01*
X150234426Y-85023947D01*
X149973273Y-85132120D01*
X149738241Y-85289163D01*
X149538363Y-85489041D01*
X149381320Y-85724073D01*
X149273147Y-85985226D01*
X149218000Y-86262465D01*
X149218000Y-86545135D01*
X149273147Y-86822374D01*
X149381320Y-87083527D01*
X149538363Y-87318559D01*
X149738241Y-87518437D01*
X149893000Y-87621844D01*
X149893001Y-90745890D01*
X149770114Y-90828001D01*
X149577201Y-91020914D01*
X149425629Y-91247757D01*
X149321225Y-91499811D01*
X149268000Y-91767389D01*
X149268000Y-92040211D01*
X149321225Y-92307789D01*
X149425629Y-92559843D01*
X149577201Y-92786686D01*
X149770114Y-92979599D01*
X149996957Y-93131171D01*
X150249011Y-93235575D01*
X150516589Y-93288800D01*
X150789411Y-93288800D01*
X150934365Y-93259967D01*
X152659201Y-94984803D01*
X152682999Y-95013801D01*
X152798724Y-95108774D01*
X152930753Y-95179346D01*
X153074014Y-95222803D01*
X153185667Y-95233800D01*
X153185677Y-95233800D01*
X153223000Y-95237476D01*
X153260323Y-95233800D01*
X154434957Y-95233800D01*
X154538363Y-95388559D01*
X154738241Y-95588437D01*
X154970759Y-95743800D01*
X154738241Y-95899163D01*
X154538363Y-96099041D01*
X154434957Y-96253800D01*
X151932580Y-96253800D01*
X151880371Y-96127757D01*
X151728799Y-95900914D01*
X151535886Y-95708001D01*
X151309043Y-95556429D01*
X151056989Y-95452025D01*
X150789411Y-95398800D01*
X150516589Y-95398800D01*
X150249011Y-95452025D01*
X149996957Y-95556429D01*
X149770114Y-95708001D01*
X149577201Y-95900914D01*
X149425629Y-96127757D01*
X149321225Y-96379811D01*
X149268000Y-96647389D01*
X149268000Y-96920211D01*
X149321225Y-97187789D01*
X149425629Y-97439843D01*
X149577201Y-97666686D01*
X149770114Y-97859599D01*
X149893001Y-97941710D01*
X149893000Y-100935956D01*
X149738241Y-101039363D01*
X149538363Y-101239241D01*
X149381320Y-101474273D01*
X149273147Y-101735426D01*
X149218000Y-102012665D01*
X149218000Y-102295335D01*
X149273147Y-102572574D01*
X149381320Y-102833727D01*
X149538363Y-103068759D01*
X149738241Y-103268637D01*
X149973273Y-103425680D01*
X150234426Y-103533853D01*
X150511665Y-103589000D01*
X150794335Y-103589000D01*
X151071574Y-103533853D01*
X151332727Y-103425680D01*
X151567759Y-103268637D01*
X151767637Y-103068759D01*
X151924680Y-102833727D01*
X152032853Y-102572574D01*
X152088000Y-102295335D01*
X152088000Y-102012665D01*
X152032853Y-101735426D01*
X151924680Y-101474273D01*
X151767637Y-101239241D01*
X151567759Y-101039363D01*
X151413000Y-100935957D01*
X151413000Y-97941709D01*
X151535886Y-97859599D01*
X151621685Y-97773800D01*
X154434957Y-97773800D01*
X154538363Y-97928559D01*
X154738241Y-98128437D01*
X154970759Y-98283800D01*
X154738241Y-98439163D01*
X154538363Y-98639041D01*
X154381320Y-98874073D01*
X154273147Y-99135226D01*
X154218000Y-99412465D01*
X154218000Y-99695135D01*
X154273147Y-99972374D01*
X154381320Y-100233527D01*
X154538363Y-100468559D01*
X154738241Y-100668437D01*
X154970759Y-100823800D01*
X154738241Y-100979163D01*
X154538363Y-101179041D01*
X154381320Y-101414073D01*
X154273147Y-101675226D01*
X154218000Y-101952465D01*
X154218000Y-102235135D01*
X154273147Y-102512374D01*
X154381320Y-102773527D01*
X154538363Y-103008559D01*
X154738241Y-103208437D01*
X154970759Y-103363800D01*
X154738241Y-103519163D01*
X154538363Y-103719041D01*
X154381320Y-103954073D01*
X154273147Y-104215226D01*
X154218000Y-104492465D01*
X154218000Y-104775135D01*
X154273147Y-105052374D01*
X154381320Y-105313527D01*
X154538363Y-105548559D01*
X154738241Y-105748437D01*
X154970759Y-105903800D01*
X154738241Y-106059163D01*
X154538363Y-106259041D01*
X154381320Y-106494073D01*
X154273147Y-106755226D01*
X154218000Y-107032465D01*
X154218000Y-107315135D01*
X154273147Y-107592374D01*
X154381320Y-107853527D01*
X154538363Y-108088559D01*
X154738241Y-108288437D01*
X154973273Y-108445480D01*
X155234426Y-108553653D01*
X155511665Y-108608800D01*
X155794335Y-108608800D01*
X155976886Y-108572488D01*
X156964398Y-109560000D01*
X134382279Y-109560000D01*
X134284576Y-109550420D01*
X134221643Y-109531420D01*
X134163594Y-109500554D01*
X134112657Y-109459011D01*
X134070752Y-109408356D01*
X134039485Y-109350529D01*
X134020044Y-109287728D01*
X134010000Y-109192165D01*
X134010000Y-108146702D01*
X149839903Y-108146702D01*
X149911486Y-108390671D01*
X150166996Y-108511571D01*
X150441184Y-108580300D01*
X150723512Y-108594217D01*
X151003130Y-108552787D01*
X151269292Y-108457603D01*
X151394514Y-108390671D01*
X151466097Y-108146702D01*
X150653000Y-107333605D01*
X149839903Y-108146702D01*
X134010000Y-108146702D01*
X134010000Y-107224512D01*
X149212783Y-107224512D01*
X149254213Y-107504130D01*
X149349397Y-107770292D01*
X149416329Y-107895514D01*
X149660298Y-107967097D01*
X150473395Y-107154000D01*
X150832605Y-107154000D01*
X151645702Y-107967097D01*
X151889671Y-107895514D01*
X152010571Y-107640004D01*
X152079300Y-107365816D01*
X152093217Y-107083488D01*
X152051787Y-106803870D01*
X151956603Y-106537708D01*
X151889671Y-106412486D01*
X151645702Y-106340903D01*
X150832605Y-107154000D01*
X150473395Y-107154000D01*
X149660298Y-106340903D01*
X149416329Y-106412486D01*
X149295429Y-106667996D01*
X149226700Y-106942184D01*
X149212783Y-107224512D01*
X134010000Y-107224512D01*
X134010000Y-105045419D01*
X139670000Y-105045419D01*
X139670000Y-105426581D01*
X139744361Y-105800419D01*
X139890225Y-106152566D01*
X140101987Y-106469491D01*
X140371509Y-106739013D01*
X140688434Y-106950775D01*
X141040581Y-107096639D01*
X141414419Y-107171000D01*
X141795581Y-107171000D01*
X142169419Y-107096639D01*
X142521566Y-106950775D01*
X142838491Y-106739013D01*
X143108013Y-106469491D01*
X143313940Y-106161298D01*
X149839903Y-106161298D01*
X150653000Y-106974395D01*
X151466097Y-106161298D01*
X151394514Y-105917329D01*
X151139004Y-105796429D01*
X150864816Y-105727700D01*
X150582488Y-105713783D01*
X150302870Y-105755213D01*
X150036708Y-105850397D01*
X149911486Y-105917329D01*
X149839903Y-106161298D01*
X143313940Y-106161298D01*
X143319775Y-106152566D01*
X143465639Y-105800419D01*
X143540000Y-105426581D01*
X143540000Y-105045419D01*
X143465639Y-104671581D01*
X143319775Y-104319434D01*
X143108013Y-104002509D01*
X142838491Y-103732987D01*
X142521566Y-103521225D01*
X142169419Y-103375361D01*
X141795581Y-103301000D01*
X141414419Y-103301000D01*
X141040581Y-103375361D01*
X140688434Y-103521225D01*
X140371509Y-103732987D01*
X140101987Y-104002509D01*
X139890225Y-104319434D01*
X139744361Y-104671581D01*
X139670000Y-105045419D01*
X134010000Y-105045419D01*
X134010000Y-72817955D01*
X136418450Y-72817955D01*
X136814634Y-73338350D01*
X137529612Y-73728548D01*
X138306976Y-73971764D01*
X139116853Y-74058651D01*
X139928118Y-73985869D01*
X140709597Y-73756215D01*
X141431256Y-73378515D01*
X141491366Y-73338350D01*
X141887550Y-72817955D01*
X139153000Y-70083405D01*
X136418450Y-72817955D01*
X134010000Y-72817955D01*
X134010000Y-69867653D01*
X134998149Y-69867653D01*
X135070931Y-70678918D01*
X135300585Y-71460397D01*
X135678285Y-72182056D01*
X135718450Y-72242166D01*
X136238845Y-72638350D01*
X138973395Y-69903800D01*
X139332605Y-69903800D01*
X142067155Y-72638350D01*
X142587550Y-72242166D01*
X142977748Y-71527188D01*
X143220964Y-70749824D01*
X143307851Y-69939947D01*
X143235069Y-69128682D01*
X143005415Y-68347203D01*
X142627715Y-67625544D01*
X142587550Y-67565434D01*
X142067155Y-67169250D01*
X139332605Y-69903800D01*
X138973395Y-69903800D01*
X136238845Y-67169250D01*
X135718450Y-67565434D01*
X135328252Y-68280412D01*
X135085036Y-69057776D01*
X134998149Y-69867653D01*
X134010000Y-69867653D01*
X134010000Y-66989645D01*
X136418450Y-66989645D01*
X139153000Y-69724195D01*
X141887550Y-66989645D01*
X141491366Y-66469250D01*
X140776388Y-66079052D01*
X139999024Y-65835836D01*
X139189147Y-65748949D01*
X138377882Y-65821731D01*
X137596403Y-66051385D01*
X136874744Y-66429085D01*
X136814634Y-66469250D01*
X136418450Y-66989645D01*
X134010000Y-66989645D01*
X134010000Y-64997816D01*
X137811352Y-63781768D01*
X142105484Y-62571553D01*
X146439234Y-61511939D01*
X150807316Y-60604217D01*
X155204445Y-59849487D01*
X159625221Y-59248677D01*
X164064238Y-58802520D01*
X168516165Y-58511550D01*
X172975530Y-58376127D01*
X177436893Y-58396418D01*
G37*
X177436893Y-58396418D02*
X181894818Y-58572394D01*
X186343904Y-58903844D01*
X190778726Y-59390364D01*
X195193826Y-60031355D01*
X199583891Y-60826045D01*
X203943576Y-61773468D01*
X208267481Y-62872450D01*
X212551905Y-64122104D01*
X215239998Y-64995518D01*
X215239999Y-82477128D01*
X199621729Y-109560000D01*
X186571601Y-109560000D01*
X186663998Y-109467603D01*
X186693001Y-109443801D01*
X186787974Y-109328076D01*
X186858546Y-109196047D01*
X186902003Y-109052786D01*
X186913000Y-108941133D01*
X186913000Y-108941125D01*
X186916676Y-108903800D01*
X186913000Y-108866475D01*
X186913000Y-107191333D01*
X186916677Y-107154000D01*
X186902003Y-107005014D01*
X186858546Y-106861753D01*
X186787974Y-106729724D01*
X186716799Y-106642997D01*
X186693001Y-106613999D01*
X186664003Y-106590201D01*
X184384209Y-104310408D01*
X184428000Y-104090260D01*
X184428000Y-103797740D01*
X184370932Y-103510842D01*
X184258990Y-103240589D01*
X184096475Y-102997368D01*
X183889632Y-102790525D01*
X183715240Y-102674000D01*
X183889632Y-102557475D01*
X184096475Y-102350632D01*
X184258990Y-102107411D01*
X184370932Y-101837158D01*
X184428000Y-101550260D01*
X184428000Y-101416492D01*
X189590256Y-101416492D01*
X189590256Y-101935542D01*
X189691517Y-102444618D01*
X189890149Y-102924158D01*
X190178518Y-103355732D01*
X190545541Y-103722755D01*
X190977115Y-104011124D01*
X191456655Y-104209756D01*
X191965731Y-104311017D01*
X192484781Y-104311017D01*
X192993857Y-104209756D01*
X193473397Y-104011124D01*
X193904971Y-103722755D01*
X194271994Y-103355732D01*
X194560363Y-102924158D01*
X194758995Y-102444618D01*
X194860256Y-101935542D01*
X194860256Y-101416492D01*
X194758995Y-100907416D01*
X194560363Y-100427876D01*
X194271994Y-99996302D01*
X193904971Y-99629279D01*
X193473397Y-99340910D01*
X192993857Y-99142278D01*
X192484781Y-99041017D01*
X191965731Y-99041017D01*
X191456655Y-99142278D01*
X190977115Y-99340910D01*
X190545541Y-99629279D01*
X190178518Y-99996302D01*
X189890149Y-100427876D01*
X189691517Y-100907416D01*
X189590256Y-101416492D01*
X184428000Y-101416492D01*
X184428000Y-101257740D01*
X184370932Y-100970842D01*
X184258990Y-100700589D01*
X184096475Y-100457368D01*
X183889632Y-100250525D01*
X183646411Y-100088010D01*
X183376158Y-99976068D01*
X183089260Y-99919000D01*
X182796740Y-99919000D01*
X182509842Y-99976068D01*
X182239589Y-100088010D01*
X181996368Y-100250525D01*
X181864513Y-100382380D01*
X181842502Y-100309820D01*
X181783537Y-100199506D01*
X181704185Y-100102815D01*
X181607494Y-100023463D01*
X181497180Y-99964498D01*
X181377482Y-99928188D01*
X181253000Y-99915928D01*
X181163000Y-99915928D01*
X181163000Y-99536522D01*
X181166676Y-99499199D01*
X181163000Y-99461876D01*
X181163000Y-99461867D01*
X181152003Y-99350214D01*
X181108546Y-99206953D01*
X181037974Y-99074924D01*
X180943001Y-98959199D01*
X180914003Y-98935401D01*
X174518332Y-92539731D01*
X174507282Y-92484177D01*
X174470973Y-92364481D01*
X174464568Y-92349018D01*
X174577276Y-92288774D01*
X174693001Y-92193801D01*
X174716804Y-92164797D01*
X174753995Y-92127606D01*
X174788264Y-92299888D01*
X174866285Y-92488246D01*
X174979553Y-92657764D01*
X175123716Y-92801927D01*
X175293234Y-92915195D01*
X175481592Y-92993216D01*
X175681551Y-93032990D01*
X175740427Y-93032990D01*
X175749299Y-93043801D01*
X175865024Y-93138774D01*
X175997053Y-93209346D01*
X176140314Y-93252803D01*
X176251967Y-93263800D01*
X176251976Y-93263800D01*
X176289299Y-93267476D01*
X176326622Y-93263800D01*
X177268868Y-93263800D01*
X177264928Y-93303800D01*
X177264928Y-93803800D01*
X177267336Y-93828250D01*
X177267336Y-93852809D01*
X177279596Y-93977290D01*
X177298718Y-94073423D01*
X177335027Y-94193119D01*
X177372536Y-94283675D01*
X177431502Y-94393992D01*
X177485958Y-94475491D01*
X177565310Y-94572182D01*
X177634618Y-94641490D01*
X177731309Y-94720842D01*
X177812808Y-94775298D01*
X177923125Y-94834264D01*
X178013681Y-94871773D01*
X178133377Y-94908082D01*
X178229510Y-94927204D01*
X178353991Y-94939464D01*
X178378550Y-94939464D01*
X178403000Y-94941872D01*
X178716271Y-94941872D01*
X180602001Y-96827603D01*
X180625799Y-96856601D01*
X180741524Y-96951574D01*
X180873553Y-97022146D01*
X181016814Y-97065603D01*
X181128467Y-97076600D01*
X181128477Y-97076600D01*
X181165800Y-97080276D01*
X181203123Y-97076600D01*
X197034422Y-97076600D01*
X197137824Y-97231352D01*
X197337702Y-97431230D01*
X197572734Y-97588273D01*
X197833887Y-97696446D01*
X198111126Y-97751593D01*
X198393796Y-97751593D01*
X198671035Y-97696446D01*
X198932188Y-97588273D01*
X199167220Y-97431230D01*
X199367098Y-97231352D01*
X199524141Y-96996320D01*
X199632314Y-96735167D01*
X199687461Y-96457928D01*
X199687461Y-96175258D01*
X199632314Y-95898019D01*
X199575590Y-95761076D01*
X199816035Y-95713248D01*
X200077188Y-95605075D01*
X200312220Y-95448032D01*
X200512098Y-95248154D01*
X200669141Y-95013122D01*
X200777314Y-94751969D01*
X200832461Y-94474730D01*
X200832461Y-94192060D01*
X200777314Y-93914821D01*
X200720590Y-93777877D01*
X200961035Y-93730049D01*
X201222188Y-93621876D01*
X201457220Y-93464833D01*
X201657098Y-93264955D01*
X201814141Y-93029923D01*
X201922314Y-92768770D01*
X201977461Y-92491531D01*
X201977461Y-92208861D01*
X201922314Y-91931622D01*
X201865590Y-91794679D01*
X202106035Y-91746851D01*
X202367188Y-91638678D01*
X202602220Y-91481635D01*
X202802098Y-91281757D01*
X202905503Y-91127000D01*
X208152478Y-91127000D01*
X208189800Y-91130676D01*
X208227122Y-91127000D01*
X208227133Y-91127000D01*
X208338786Y-91116003D01*
X208482047Y-91072546D01*
X208614076Y-91001974D01*
X208729801Y-90907001D01*
X208753604Y-90877997D01*
X208913998Y-90717603D01*
X208943001Y-90693801D01*
X209037974Y-90578076D01*
X209108546Y-90446047D01*
X209152003Y-90302786D01*
X209163000Y-90191133D01*
X209163000Y-90191124D01*
X209166676Y-90153801D01*
X209163000Y-90116478D01*
X209163000Y-84691133D01*
X209166677Y-84653800D01*
X209152003Y-84504814D01*
X209108546Y-84361553D01*
X209037974Y-84229524D01*
X208966799Y-84142797D01*
X208943001Y-84113799D01*
X208914003Y-84090001D01*
X206716804Y-81892803D01*
X206693001Y-81863799D01*
X206649221Y-81827870D01*
X206771994Y-81705097D01*
X207060363Y-81273523D01*
X207258995Y-80793983D01*
X207360256Y-80284907D01*
X207360256Y-79765857D01*
X207258995Y-79256781D01*
X207060363Y-78777241D01*
X206771994Y-78345667D01*
X206404971Y-77978644D01*
X205973397Y-77690275D01*
X205493857Y-77491643D01*
X204984781Y-77390382D01*
X204465731Y-77390382D01*
X203956655Y-77491643D01*
X203477115Y-77690275D01*
X203045541Y-77978644D01*
X202678518Y-78345667D01*
X202665100Y-78365748D01*
X202665100Y-75137923D01*
X202668776Y-75100600D01*
X202665100Y-75063277D01*
X202665100Y-75063267D01*
X202654103Y-74951614D01*
X202610646Y-74808353D01*
X202596989Y-74782803D01*
X202540074Y-74676323D01*
X202468899Y-74589597D01*
X202445101Y-74560599D01*
X202416103Y-74536801D01*
X200947257Y-73067955D01*
X206418450Y-73067955D01*
X206814634Y-73588350D01*
X207529612Y-73978548D01*
X208306976Y-74221764D01*
X209116853Y-74308651D01*
X209928118Y-74235869D01*
X210709597Y-74006215D01*
X211431256Y-73628515D01*
X211491366Y-73588350D01*
X211887550Y-73067955D01*
X209153000Y-70333405D01*
X206418450Y-73067955D01*
X200947257Y-73067955D01*
X197996955Y-70117653D01*
X204998149Y-70117653D01*
X205070931Y-70928918D01*
X205300585Y-71710397D01*
X205678285Y-72432056D01*
X205718450Y-72492166D01*
X206238845Y-72888350D01*
X208973395Y-70153800D01*
X209332605Y-70153800D01*
X212067155Y-72888350D01*
X212587550Y-72492166D01*
X212977748Y-71777188D01*
X213220964Y-70999824D01*
X213307851Y-70189947D01*
X213235069Y-69378682D01*
X213005415Y-68597203D01*
X212627715Y-67875544D01*
X212587550Y-67815434D01*
X212067155Y-67419250D01*
X209332605Y-70153800D01*
X208973395Y-70153800D01*
X206238845Y-67419250D01*
X205718450Y-67815434D01*
X205328252Y-68530412D01*
X205085036Y-69307776D01*
X204998149Y-70117653D01*
X197996955Y-70117653D01*
X197525804Y-69646502D01*
X200589903Y-69646502D01*
X200661486Y-69890471D01*
X200916996Y-70011371D01*
X201191184Y-70080100D01*
X201473512Y-70094017D01*
X201753130Y-70052587D01*
X202019292Y-69957403D01*
X202144514Y-69890471D01*
X202216097Y-69646502D01*
X201403000Y-68833405D01*
X200589903Y-69646502D01*
X197525804Y-69646502D01*
X196603614Y-68724312D01*
X199962783Y-68724312D01*
X200004213Y-69003930D01*
X200099397Y-69270092D01*
X200166329Y-69395314D01*
X200410298Y-69466897D01*
X201223395Y-68653800D01*
X201582605Y-68653800D01*
X202395702Y-69466897D01*
X202639671Y-69395314D01*
X202760571Y-69139804D01*
X202829300Y-68865616D01*
X202843217Y-68583288D01*
X202801787Y-68303670D01*
X202706603Y-68037508D01*
X202639671Y-67912286D01*
X202395702Y-67840703D01*
X201582605Y-68653800D01*
X201223395Y-68653800D01*
X200410298Y-67840703D01*
X200166329Y-67912286D01*
X200045429Y-68167796D01*
X199976700Y-68441984D01*
X199962783Y-68724312D01*
X196603614Y-68724312D01*
X193024901Y-65145600D01*
X194319999Y-65145600D01*
X196368000Y-67193602D01*
X196368000Y-67255739D01*
X196407774Y-67455698D01*
X196485795Y-67644056D01*
X196599063Y-67813574D01*
X196743226Y-67957737D01*
X196912744Y-68071005D01*
X197101102Y-68149026D01*
X197301061Y-68188800D01*
X197504939Y-68188800D01*
X197704898Y-68149026D01*
X197893256Y-68071005D01*
X198062774Y-67957737D01*
X198206937Y-67813574D01*
X198308817Y-67661098D01*
X200589903Y-67661098D01*
X201403000Y-68474195D01*
X202216097Y-67661098D01*
X202144514Y-67417129D01*
X201889004Y-67296229D01*
X201663268Y-67239645D01*
X206418450Y-67239645D01*
X209153000Y-69974195D01*
X211887550Y-67239645D01*
X211491366Y-66719250D01*
X210776388Y-66329052D01*
X209999024Y-66085836D01*
X209189147Y-65998949D01*
X208377882Y-66071731D01*
X207596403Y-66301385D01*
X206874744Y-66679085D01*
X206814634Y-66719250D01*
X206418450Y-67239645D01*
X201663268Y-67239645D01*
X201614816Y-67227500D01*
X201332488Y-67213583D01*
X201052870Y-67255013D01*
X200786708Y-67350197D01*
X200661486Y-67417129D01*
X200589903Y-67661098D01*
X198308817Y-67661098D01*
X198320205Y-67644056D01*
X198398226Y-67455698D01*
X198438000Y-67255739D01*
X198438000Y-67051861D01*
X198398226Y-66851902D01*
X198320205Y-66663544D01*
X198206937Y-66494026D01*
X198062774Y-66349863D01*
X197893256Y-66236595D01*
X197704898Y-66158574D01*
X197504939Y-66118800D01*
X197442802Y-66118800D01*
X195198604Y-63874603D01*
X195174801Y-63845599D01*
X195059076Y-63750626D01*
X194927047Y-63680054D01*
X194783786Y-63636597D01*
X194672133Y-63625600D01*
X194672122Y-63625600D01*
X194634800Y-63621924D01*
X194597478Y-63625600D01*
X182932778Y-63625600D01*
X183093043Y-63465336D01*
X183149897Y-63454027D01*
X183338255Y-63376006D01*
X183507773Y-63262738D01*
X183651936Y-63118575D01*
X183652788Y-63117299D01*
X183743226Y-63207737D01*
X183912744Y-63321005D01*
X184101102Y-63399026D01*
X184301061Y-63438800D01*
X184504939Y-63438800D01*
X184704898Y-63399026D01*
X184893256Y-63321005D01*
X185062774Y-63207737D01*
X185206937Y-63063574D01*
X185320205Y-62894056D01*
X185398226Y-62705698D01*
X185438000Y-62505739D01*
X185438000Y-62301861D01*
X185398226Y-62101902D01*
X185320205Y-61913544D01*
X185206937Y-61744026D01*
X185062774Y-61599863D01*
X184893256Y-61486595D01*
X184704898Y-61408574D01*
X184504939Y-61368800D01*
X184301061Y-61368800D01*
X184101102Y-61408574D01*
X183912744Y-61486595D01*
X183743226Y-61599863D01*
X183599063Y-61744026D01*
X183598211Y-61745302D01*
X183507773Y-61654864D01*
X183338255Y-61541596D01*
X183149897Y-61463575D01*
X182949938Y-61423801D01*
X182746060Y-61423801D01*
X182546101Y-61463575D01*
X182357743Y-61541596D01*
X182188225Y-61654864D01*
X182044062Y-61799027D01*
X181930794Y-61968545D01*
X181852773Y-62156903D01*
X181841464Y-62213757D01*
X181627499Y-62427723D01*
X154698056Y-62427723D01*
X154654590Y-62423442D01*
X154611124Y-62427723D01*
X154611114Y-62427723D01*
X154481101Y-62440528D01*
X154314278Y-62491134D01*
X154160532Y-62573312D01*
X154136338Y-62593168D01*
X154059544Y-62656191D01*
X154059542Y-62656193D01*
X154025774Y-62683906D01*
X153998061Y-62717674D01*
X136057956Y-80657780D01*
X136024183Y-80685497D01*
X135913589Y-80820256D01*
X135831411Y-80974002D01*
X135807508Y-81052799D01*
X135781018Y-81140124D01*
X135780805Y-81140825D01*
X135768000Y-81270838D01*
X135768000Y-81270845D01*
X135763719Y-81314314D01*
X135768000Y-81357783D01*
X135768001Y-95240521D01*
X135763719Y-95284000D01*
X135780805Y-95457490D01*
X135831412Y-95624313D01*
X135913590Y-95778059D01*
X135996468Y-95879046D01*
X135996471Y-95879049D01*
X136024184Y-95912817D01*
X136057952Y-95940530D01*
X139757436Y-99640015D01*
X139744361Y-99671581D01*
X139670000Y-100045419D01*
X139670000Y-100426581D01*
X139744361Y-100800419D01*
X139890225Y-101152566D01*
X140101987Y-101469491D01*
X140371509Y-101739013D01*
X140688434Y-101950775D01*
X141040581Y-102096639D01*
X141414419Y-102171000D01*
X141795581Y-102171000D01*
X142169419Y-102096639D01*
X142521566Y-101950775D01*
X142838491Y-101739013D01*
X143108013Y-101469491D01*
X143319775Y-101152566D01*
X143465639Y-100800419D01*
X143540000Y-100426581D01*
X143540000Y-100045419D01*
X143465639Y-99671581D01*
X143319775Y-99319434D01*
X143108013Y-99002509D01*
X142838491Y-98732987D01*
X142521566Y-98521225D01*
X142169419Y-98375361D01*
X141795581Y-98301000D01*
X141414419Y-98301000D01*
X141040581Y-98375361D01*
X141009015Y-98388436D01*
X137665998Y-95045419D01*
X139670000Y-95045419D01*
X139670000Y-95426581D01*
X139744361Y-95800419D01*
X139890225Y-96152566D01*
X140101987Y-96469491D01*
X140371509Y-96739013D01*
X140688434Y-96950775D01*
X141040581Y-97096639D01*
X141414419Y-97171000D01*
X141795581Y-97171000D01*
X142169419Y-97096639D01*
X142521566Y-96950775D01*
X142838491Y-96739013D01*
X143108013Y-96469491D01*
X143319775Y-96152566D01*
X143465639Y-95800419D01*
X143540000Y-95426581D01*
X143540000Y-95045419D01*
X143465639Y-94671581D01*
X143319775Y-94319434D01*
X143108013Y-94002509D01*
X142838491Y-93732987D01*
X142521566Y-93521225D01*
X142169419Y-93375361D01*
X141795581Y-93301000D01*
X141414419Y-93301000D01*
X141040581Y-93375361D01*
X140688434Y-93521225D01*
X140371509Y-93732987D01*
X140101987Y-94002509D01*
X139890225Y-94319434D01*
X139744361Y-94671581D01*
X139670000Y-95045419D01*
X137665998Y-95045419D01*
X137538000Y-94917422D01*
X137538000Y-90045419D01*
X139670000Y-90045419D01*
X139670000Y-90426581D01*
X139744361Y-90800419D01*
X139890225Y-91152566D01*
X140101987Y-91469491D01*
X140371509Y-91739013D01*
X140688434Y-91950775D01*
X141040581Y-92096639D01*
X141414419Y-92171000D01*
X141795581Y-92171000D01*
X142169419Y-92096639D01*
X142521566Y-91950775D01*
X142838491Y-91739013D01*
X143108013Y-91469491D01*
X143319775Y-91152566D01*
X143465639Y-90800419D01*
X143540000Y-90426581D01*
X143540000Y-90045419D01*
X143465639Y-89671581D01*
X143319775Y-89319434D01*
X143108013Y-89002509D01*
X142838491Y-88732987D01*
X142521566Y-88521225D01*
X142169419Y-88375361D01*
X141795581Y-88301000D01*
X141414419Y-88301000D01*
X141040581Y-88375361D01*
X140688434Y-88521225D01*
X140371509Y-88732987D01*
X140101987Y-89002509D01*
X139890225Y-89319434D01*
X139744361Y-89671581D01*
X139670000Y-90045419D01*
X137538000Y-90045419D01*
X137538000Y-81680892D01*
X139219600Y-79999292D01*
X139219601Y-83573268D01*
X139215924Y-83610600D01*
X139219601Y-83647933D01*
X139230598Y-83759586D01*
X139237199Y-83781346D01*
X139274054Y-83902846D01*
X139344626Y-84034876D01*
X139405743Y-84109346D01*
X139439600Y-84150601D01*
X139468598Y-84174399D01*
X139809213Y-84515014D01*
X139744361Y-84671581D01*
X139670000Y-85045419D01*
X139670000Y-85426581D01*
X139744361Y-85800419D01*
X139890225Y-86152566D01*
X140101987Y-86469491D01*
X140371509Y-86739013D01*
X140688434Y-86950775D01*
X141040581Y-87096639D01*
X141414419Y-87171000D01*
X141795581Y-87171000D01*
X142169419Y-87096639D01*
X142521566Y-86950775D01*
X142838491Y-86739013D01*
X143108013Y-86469491D01*
X143319775Y-86152566D01*
X143465639Y-85800419D01*
X143540000Y-85426581D01*
X143540000Y-85045419D01*
X143465639Y-84671581D01*
X143319775Y-84319434D01*
X143108013Y-84002509D01*
X142838491Y-83732987D01*
X142521566Y-83521225D01*
X142169419Y-83375361D01*
X141795581Y-83301000D01*
X141414419Y-83301000D01*
X141040581Y-83375361D01*
X140884014Y-83440213D01*
X140739600Y-83295799D01*
X140739600Y-82396502D01*
X149839903Y-82396502D01*
X149911486Y-82640471D01*
X150166996Y-82761371D01*
X150441184Y-82830100D01*
X150723512Y-82844017D01*
X151003130Y-82802587D01*
X151269292Y-82707403D01*
X151394514Y-82640471D01*
X151466097Y-82396502D01*
X150653000Y-81583405D01*
X149839903Y-82396502D01*
X140739600Y-82396502D01*
X140739600Y-82174072D01*
X142905000Y-82174072D01*
X143029482Y-82161812D01*
X143149180Y-82125502D01*
X143259494Y-82066537D01*
X143356185Y-81987185D01*
X143435537Y-81890494D01*
X143494502Y-81780180D01*
X143530812Y-81660482D01*
X143543072Y-81536000D01*
X143543072Y-80996000D01*
X149275826Y-80996000D01*
X149226700Y-81191984D01*
X149212783Y-81474312D01*
X149254213Y-81753930D01*
X149349397Y-82020092D01*
X149416329Y-82145314D01*
X149660298Y-82216897D01*
X150473395Y-81403800D01*
X150459253Y-81389658D01*
X150638858Y-81210053D01*
X150653000Y-81224195D01*
X150667143Y-81210053D01*
X150846748Y-81389658D01*
X150832605Y-81403800D01*
X151645702Y-82216897D01*
X151889671Y-82145314D01*
X151921161Y-82078763D01*
X153767700Y-83925302D01*
X153767700Y-84276467D01*
X153764023Y-84313800D01*
X153778697Y-84462786D01*
X153822154Y-84606047D01*
X153892726Y-84738076D01*
X153987699Y-84853801D01*
X154103424Y-84948774D01*
X154235453Y-85019346D01*
X154378714Y-85062803D01*
X154431053Y-85067958D01*
X154538363Y-85228559D01*
X154738241Y-85428437D01*
X154970759Y-85583800D01*
X154738241Y-85739163D01*
X154538363Y-85939041D01*
X154381320Y-86174073D01*
X154273147Y-86435226D01*
X154218000Y-86712465D01*
X154218000Y-86995135D01*
X154273147Y-87272374D01*
X154381320Y-87533527D01*
X154538363Y-87768559D01*
X154738241Y-87968437D01*
X154970759Y-88123800D01*
X154738241Y-88279163D01*
X154538363Y-88479041D01*
X154381320Y-88714073D01*
X154273147Y-88975226D01*
X154218000Y-89252465D01*
X154218000Y-89535135D01*
X154273147Y-89812374D01*
X154381320Y-90073527D01*
X154538363Y-90308559D01*
X154738241Y-90508437D01*
X154973273Y-90665480D01*
X154983865Y-90669867D01*
X154797869Y-90781415D01*
X154589481Y-90970386D01*
X154421963Y-91196380D01*
X154301754Y-91450713D01*
X154261096Y-91584761D01*
X154383085Y-91806800D01*
X155526000Y-91806800D01*
X155526000Y-91786800D01*
X155780000Y-91786800D01*
X155780000Y-91806800D01*
X156922915Y-91806800D01*
X157044904Y-91584761D01*
X157004246Y-91450713D01*
X156884037Y-91196380D01*
X156716519Y-90970386D01*
X156508131Y-90781415D01*
X156322135Y-90669867D01*
X156332727Y-90665480D01*
X156567759Y-90508437D01*
X156767637Y-90308559D01*
X156871043Y-90153800D01*
X157878199Y-90153800D01*
X159336300Y-91611902D01*
X159360099Y-91640901D01*
X159389097Y-91664699D01*
X159389102Y-91664703D01*
X161387700Y-93663303D01*
X161387701Y-94436458D01*
X161384023Y-94473800D01*
X161398697Y-94622786D01*
X161442154Y-94766047D01*
X161512726Y-94898076D01*
X161607699Y-95013801D01*
X161723424Y-95108774D01*
X161855453Y-95179346D01*
X161998714Y-95222803D01*
X162051053Y-95227958D01*
X162158363Y-95388559D01*
X162358241Y-95588437D01*
X162590759Y-95743800D01*
X162358241Y-95899163D01*
X162158363Y-96099041D01*
X162001320Y-96334073D01*
X161893147Y-96595226D01*
X161838000Y-96872465D01*
X161838000Y-97155135D01*
X161893147Y-97432374D01*
X162001320Y-97693527D01*
X162158363Y-97928559D01*
X162358241Y-98128437D01*
X162590759Y-98283800D01*
X162358241Y-98439163D01*
X162158363Y-98639041D01*
X162001320Y-98874073D01*
X161893147Y-99135226D01*
X161838000Y-99412465D01*
X161838000Y-99695135D01*
X161893147Y-99972374D01*
X161964154Y-100143800D01*
X157317802Y-100143800D01*
X157051688Y-99877686D01*
X157088000Y-99695135D01*
X157088000Y-99412465D01*
X157032853Y-99135226D01*
X156924680Y-98874073D01*
X156767637Y-98639041D01*
X156567759Y-98439163D01*
X156335241Y-98283800D01*
X156567759Y-98128437D01*
X156767637Y-97928559D01*
X156924680Y-97693527D01*
X157032853Y-97432374D01*
X157088000Y-97155135D01*
X157088000Y-96872465D01*
X157032853Y-96595226D01*
X156924680Y-96334073D01*
X156767637Y-96099041D01*
X156567759Y-95899163D01*
X156335241Y-95743800D01*
X156567759Y-95588437D01*
X156767637Y-95388559D01*
X156924680Y-95153527D01*
X157032853Y-94892374D01*
X157088000Y-94615135D01*
X157088000Y-94332465D01*
X157032853Y-94055226D01*
X156924680Y-93794073D01*
X156767637Y-93559041D01*
X156567759Y-93359163D01*
X156332727Y-93202120D01*
X156322135Y-93197733D01*
X156508131Y-93086185D01*
X156716519Y-92897214D01*
X156884037Y-92671220D01*
X157004246Y-92416887D01*
X157044904Y-92282839D01*
X156922915Y-92060800D01*
X155780000Y-92060800D01*
X155780000Y-92080800D01*
X155526000Y-92080800D01*
X155526000Y-92060800D01*
X154383085Y-92060800D01*
X154261096Y-92282839D01*
X154301754Y-92416887D01*
X154421963Y-92671220D01*
X154589481Y-92897214D01*
X154797869Y-93086185D01*
X154983865Y-93197733D01*
X154973273Y-93202120D01*
X154738241Y-93359163D01*
X154538363Y-93559041D01*
X154434957Y-93713800D01*
X153537802Y-93713800D01*
X152009167Y-92185165D01*
X152038000Y-92040211D01*
X152038000Y-91767389D01*
X151984775Y-91499811D01*
X151880371Y-91247757D01*
X151728799Y-91020914D01*
X151535886Y-90828001D01*
X151413000Y-90745891D01*
X151413000Y-87621843D01*
X151567759Y-87518437D01*
X151767637Y-87318559D01*
X151924680Y-87083527D01*
X152032853Y-86822374D01*
X152088000Y-86545135D01*
X152088000Y-86262465D01*
X152032853Y-85985226D01*
X151924680Y-85724073D01*
X151767637Y-85489041D01*
X151567759Y-85289163D01*
X151332727Y-85132120D01*
X151071574Y-85023947D01*
X150794335Y-84968800D01*
X150511665Y-84968800D01*
X150234426Y-85023947D01*
X149973273Y-85132120D01*
X149738241Y-85289163D01*
X149538363Y-85489041D01*
X149381320Y-85724073D01*
X149273147Y-85985226D01*
X149218000Y-86262465D01*
X149218000Y-86545135D01*
X149273147Y-86822374D01*
X149381320Y-87083527D01*
X149538363Y-87318559D01*
X149738241Y-87518437D01*
X149893000Y-87621844D01*
X149893001Y-90745890D01*
X149770114Y-90828001D01*
X149577201Y-91020914D01*
X149425629Y-91247757D01*
X149321225Y-91499811D01*
X149268000Y-91767389D01*
X149268000Y-92040211D01*
X149321225Y-92307789D01*
X149425629Y-92559843D01*
X149577201Y-92786686D01*
X149770114Y-92979599D01*
X149996957Y-93131171D01*
X150249011Y-93235575D01*
X150516589Y-93288800D01*
X150789411Y-93288800D01*
X150934365Y-93259967D01*
X152659201Y-94984803D01*
X152682999Y-95013801D01*
X152798724Y-95108774D01*
X152930753Y-95179346D01*
X153074014Y-95222803D01*
X153185667Y-95233800D01*
X153185677Y-95233800D01*
X153223000Y-95237476D01*
X153260323Y-95233800D01*
X154434957Y-95233800D01*
X154538363Y-95388559D01*
X154738241Y-95588437D01*
X154970759Y-95743800D01*
X154738241Y-95899163D01*
X154538363Y-96099041D01*
X154434957Y-96253800D01*
X151932580Y-96253800D01*
X151880371Y-96127757D01*
X151728799Y-95900914D01*
X151535886Y-95708001D01*
X151309043Y-95556429D01*
X151056989Y-95452025D01*
X150789411Y-95398800D01*
X150516589Y-95398800D01*
X150249011Y-95452025D01*
X149996957Y-95556429D01*
X149770114Y-95708001D01*
X149577201Y-95900914D01*
X149425629Y-96127757D01*
X149321225Y-96379811D01*
X149268000Y-96647389D01*
X149268000Y-96920211D01*
X149321225Y-97187789D01*
X149425629Y-97439843D01*
X149577201Y-97666686D01*
X149770114Y-97859599D01*
X149893001Y-97941710D01*
X149893000Y-100935956D01*
X149738241Y-101039363D01*
X149538363Y-101239241D01*
X149381320Y-101474273D01*
X149273147Y-101735426D01*
X149218000Y-102012665D01*
X149218000Y-102295335D01*
X149273147Y-102572574D01*
X149381320Y-102833727D01*
X149538363Y-103068759D01*
X149738241Y-103268637D01*
X149973273Y-103425680D01*
X150234426Y-103533853D01*
X150511665Y-103589000D01*
X150794335Y-103589000D01*
X151071574Y-103533853D01*
X151332727Y-103425680D01*
X151567759Y-103268637D01*
X151767637Y-103068759D01*
X151924680Y-102833727D01*
X152032853Y-102572574D01*
X152088000Y-102295335D01*
X152088000Y-102012665D01*
X152032853Y-101735426D01*
X151924680Y-101474273D01*
X151767637Y-101239241D01*
X151567759Y-101039363D01*
X151413000Y-100935957D01*
X151413000Y-97941709D01*
X151535886Y-97859599D01*
X151621685Y-97773800D01*
X154434957Y-97773800D01*
X154538363Y-97928559D01*
X154738241Y-98128437D01*
X154970759Y-98283800D01*
X154738241Y-98439163D01*
X154538363Y-98639041D01*
X154381320Y-98874073D01*
X154273147Y-99135226D01*
X154218000Y-99412465D01*
X154218000Y-99695135D01*
X154273147Y-99972374D01*
X154381320Y-100233527D01*
X154538363Y-100468559D01*
X154738241Y-100668437D01*
X154970759Y-100823800D01*
X154738241Y-100979163D01*
X154538363Y-101179041D01*
X154381320Y-101414073D01*
X154273147Y-101675226D01*
X154218000Y-101952465D01*
X154218000Y-102235135D01*
X154273147Y-102512374D01*
X154381320Y-102773527D01*
X154538363Y-103008559D01*
X154738241Y-103208437D01*
X154970759Y-103363800D01*
X154738241Y-103519163D01*
X154538363Y-103719041D01*
X154381320Y-103954073D01*
X154273147Y-104215226D01*
X154218000Y-104492465D01*
X154218000Y-104775135D01*
X154273147Y-105052374D01*
X154381320Y-105313527D01*
X154538363Y-105548559D01*
X154738241Y-105748437D01*
X154970759Y-105903800D01*
X154738241Y-106059163D01*
X154538363Y-106259041D01*
X154381320Y-106494073D01*
X154273147Y-106755226D01*
X154218000Y-107032465D01*
X154218000Y-107315135D01*
X154273147Y-107592374D01*
X154381320Y-107853527D01*
X154538363Y-108088559D01*
X154738241Y-108288437D01*
X154973273Y-108445480D01*
X155234426Y-108553653D01*
X155511665Y-108608800D01*
X155794335Y-108608800D01*
X155976886Y-108572488D01*
X156964398Y-109560000D01*
X134382279Y-109560000D01*
X134284576Y-109550420D01*
X134221643Y-109531420D01*
X134163594Y-109500554D01*
X134112657Y-109459011D01*
X134070752Y-109408356D01*
X134039485Y-109350529D01*
X134020044Y-109287728D01*
X134010000Y-109192165D01*
X134010000Y-108146702D01*
X149839903Y-108146702D01*
X149911486Y-108390671D01*
X150166996Y-108511571D01*
X150441184Y-108580300D01*
X150723512Y-108594217D01*
X151003130Y-108552787D01*
X151269292Y-108457603D01*
X151394514Y-108390671D01*
X151466097Y-108146702D01*
X150653000Y-107333605D01*
X149839903Y-108146702D01*
X134010000Y-108146702D01*
X134010000Y-107224512D01*
X149212783Y-107224512D01*
X149254213Y-107504130D01*
X149349397Y-107770292D01*
X149416329Y-107895514D01*
X149660298Y-107967097D01*
X150473395Y-107154000D01*
X150832605Y-107154000D01*
X151645702Y-107967097D01*
X151889671Y-107895514D01*
X152010571Y-107640004D01*
X152079300Y-107365816D01*
X152093217Y-107083488D01*
X152051787Y-106803870D01*
X151956603Y-106537708D01*
X151889671Y-106412486D01*
X151645702Y-106340903D01*
X150832605Y-107154000D01*
X150473395Y-107154000D01*
X149660298Y-106340903D01*
X149416329Y-106412486D01*
X149295429Y-106667996D01*
X149226700Y-106942184D01*
X149212783Y-107224512D01*
X134010000Y-107224512D01*
X134010000Y-105045419D01*
X139670000Y-105045419D01*
X139670000Y-105426581D01*
X139744361Y-105800419D01*
X139890225Y-106152566D01*
X140101987Y-106469491D01*
X140371509Y-106739013D01*
X140688434Y-106950775D01*
X141040581Y-107096639D01*
X141414419Y-107171000D01*
X141795581Y-107171000D01*
X142169419Y-107096639D01*
X142521566Y-106950775D01*
X142838491Y-106739013D01*
X143108013Y-106469491D01*
X143313940Y-106161298D01*
X149839903Y-106161298D01*
X150653000Y-106974395D01*
X151466097Y-106161298D01*
X151394514Y-105917329D01*
X151139004Y-105796429D01*
X150864816Y-105727700D01*
X150582488Y-105713783D01*
X150302870Y-105755213D01*
X150036708Y-105850397D01*
X149911486Y-105917329D01*
X149839903Y-106161298D01*
X143313940Y-106161298D01*
X143319775Y-106152566D01*
X143465639Y-105800419D01*
X143540000Y-105426581D01*
X143540000Y-105045419D01*
X143465639Y-104671581D01*
X143319775Y-104319434D01*
X143108013Y-104002509D01*
X142838491Y-103732987D01*
X142521566Y-103521225D01*
X142169419Y-103375361D01*
X141795581Y-103301000D01*
X141414419Y-103301000D01*
X141040581Y-103375361D01*
X140688434Y-103521225D01*
X140371509Y-103732987D01*
X140101987Y-104002509D01*
X139890225Y-104319434D01*
X139744361Y-104671581D01*
X139670000Y-105045419D01*
X134010000Y-105045419D01*
X134010000Y-72817955D01*
X136418450Y-72817955D01*
X136814634Y-73338350D01*
X137529612Y-73728548D01*
X138306976Y-73971764D01*
X139116853Y-74058651D01*
X139928118Y-73985869D01*
X140709597Y-73756215D01*
X141431256Y-73378515D01*
X141491366Y-73338350D01*
X141887550Y-72817955D01*
X139153000Y-70083405D01*
X136418450Y-72817955D01*
X134010000Y-72817955D01*
X134010000Y-69867653D01*
X134998149Y-69867653D01*
X135070931Y-70678918D01*
X135300585Y-71460397D01*
X135678285Y-72182056D01*
X135718450Y-72242166D01*
X136238845Y-72638350D01*
X138973395Y-69903800D01*
X139332605Y-69903800D01*
X142067155Y-72638350D01*
X142587550Y-72242166D01*
X142977748Y-71527188D01*
X143220964Y-70749824D01*
X143307851Y-69939947D01*
X143235069Y-69128682D01*
X143005415Y-68347203D01*
X142627715Y-67625544D01*
X142587550Y-67565434D01*
X142067155Y-67169250D01*
X139332605Y-69903800D01*
X138973395Y-69903800D01*
X136238845Y-67169250D01*
X135718450Y-67565434D01*
X135328252Y-68280412D01*
X135085036Y-69057776D01*
X134998149Y-69867653D01*
X134010000Y-69867653D01*
X134010000Y-66989645D01*
X136418450Y-66989645D01*
X139153000Y-69724195D01*
X141887550Y-66989645D01*
X141491366Y-66469250D01*
X140776388Y-66079052D01*
X139999024Y-65835836D01*
X139189147Y-65748949D01*
X138377882Y-65821731D01*
X137596403Y-66051385D01*
X136874744Y-66429085D01*
X136814634Y-66469250D01*
X136418450Y-66989645D01*
X134010000Y-66989645D01*
X134010000Y-64997816D01*
X137811352Y-63781768D01*
X142105484Y-62571553D01*
X146439234Y-61511939D01*
X150807316Y-60604217D01*
X155204445Y-59849487D01*
X159625221Y-59248677D01*
X164064238Y-58802520D01*
X168516165Y-58511550D01*
X172975530Y-58376127D01*
X177436893Y-58396418D01*
G36*
X171772773Y-94158010D02*
G01*
X171779596Y-94227290D01*
X171798718Y-94323423D01*
X171835027Y-94443119D01*
X171872536Y-94533675D01*
X171931502Y-94643992D01*
X171985958Y-94725491D01*
X172065310Y-94822182D01*
X172134618Y-94891490D01*
X172231309Y-94970842D01*
X172312808Y-95025298D01*
X172423125Y-95084264D01*
X172513681Y-95121773D01*
X172633377Y-95158082D01*
X172729510Y-95177204D01*
X172853991Y-95189464D01*
X172878550Y-95189464D01*
X172903000Y-95191872D01*
X173403000Y-95191872D01*
X173427450Y-95189464D01*
X173452009Y-95189464D01*
X173576490Y-95177204D01*
X173672623Y-95158082D01*
X173792319Y-95121773D01*
X173882875Y-95084264D01*
X173993192Y-95025298D01*
X174074691Y-94970842D01*
X174171382Y-94891490D01*
X174240690Y-94822182D01*
X174320042Y-94725491D01*
X174374498Y-94643992D01*
X174408806Y-94579807D01*
X179643001Y-99814003D01*
X179643001Y-99915928D01*
X179553000Y-99915928D01*
X179428518Y-99928188D01*
X179308820Y-99964498D01*
X179198506Y-100023463D01*
X179101815Y-100102815D01*
X179022463Y-100199506D01*
X178963498Y-100309820D01*
X178927188Y-100429518D01*
X178914928Y-100554000D01*
X178914928Y-102254000D01*
X178927188Y-102378482D01*
X178963498Y-102498180D01*
X179022463Y-102608494D01*
X179101815Y-102705185D01*
X179198506Y-102784537D01*
X179308820Y-102843502D01*
X179381380Y-102865513D01*
X179249525Y-102997368D01*
X179087010Y-103240589D01*
X178975068Y-103510842D01*
X178918000Y-103797740D01*
X178918000Y-104090260D01*
X178975068Y-104377158D01*
X179087010Y-104647411D01*
X179249525Y-104890632D01*
X179456368Y-105097475D01*
X179630760Y-105214000D01*
X179456368Y-105330525D01*
X179249525Y-105537368D01*
X179087010Y-105780589D01*
X178975068Y-106050842D01*
X178918000Y-106337740D01*
X178918000Y-106630260D01*
X178975068Y-106917158D01*
X179087010Y-107187411D01*
X179249525Y-107430632D01*
X179456368Y-107637475D01*
X179699589Y-107799990D01*
X179969842Y-107911932D01*
X180256740Y-107969000D01*
X180383199Y-107969000D01*
X180208399Y-108143800D01*
X165317803Y-108143800D01*
X164671688Y-107497686D01*
X164708000Y-107315135D01*
X164708000Y-107032465D01*
X164652853Y-106755226D01*
X164544680Y-106494073D01*
X164387637Y-106259041D01*
X164187759Y-106059163D01*
X163955241Y-105903800D01*
X164187759Y-105748437D01*
X164387637Y-105548559D01*
X164544680Y-105313527D01*
X164652853Y-105052374D01*
X164708000Y-104775135D01*
X164708000Y-104492465D01*
X164652853Y-104215226D01*
X164544680Y-103954073D01*
X164387637Y-103719041D01*
X164187759Y-103519163D01*
X163955241Y-103363800D01*
X164187759Y-103208437D01*
X164312947Y-103083249D01*
X165854701Y-104625003D01*
X165878499Y-104654001D01*
X165994224Y-104748974D01*
X166126253Y-104819546D01*
X166269514Y-104863003D01*
X166381167Y-104874000D01*
X166381176Y-104874000D01*
X166418499Y-104877676D01*
X166455822Y-104874000D01*
X167334822Y-104874000D01*
X167459525Y-105060632D01*
X167666368Y-105267475D01*
X167840760Y-105384000D01*
X167666368Y-105500525D01*
X167459525Y-105707368D01*
X167297010Y-105950589D01*
X167185068Y-106220842D01*
X167128000Y-106507740D01*
X167128000Y-106800260D01*
X167185068Y-107087158D01*
X167297010Y-107357411D01*
X167459525Y-107600632D01*
X167666368Y-107807475D01*
X167909589Y-107969990D01*
X168179842Y-108081932D01*
X168466740Y-108139000D01*
X168759260Y-108139000D01*
X169046158Y-108081932D01*
X169316411Y-107969990D01*
X169559632Y-107807475D01*
X169691487Y-107675620D01*
X169713498Y-107748180D01*
X169772463Y-107858494D01*
X169851815Y-107955185D01*
X169948506Y-108034537D01*
X170058820Y-108093502D01*
X170178518Y-108129812D01*
X170303000Y-108142072D01*
X172003000Y-108142072D01*
X172127482Y-108129812D01*
X172247180Y-108093502D01*
X172357494Y-108034537D01*
X172454185Y-107955185D01*
X172533537Y-107858494D01*
X172592502Y-107748180D01*
X172628812Y-107628482D01*
X172641072Y-107504000D01*
X172641072Y-105804000D01*
X172628812Y-105679518D01*
X172592502Y-105559820D01*
X172533537Y-105449506D01*
X172454185Y-105352815D01*
X172357494Y-105273463D01*
X172247180Y-105214498D01*
X172174620Y-105192487D01*
X172306475Y-105060632D01*
X172468990Y-104817411D01*
X172580932Y-104547158D01*
X172638000Y-104260260D01*
X172638000Y-103967740D01*
X172580932Y-103680842D01*
X172468990Y-103410589D01*
X172306475Y-103167368D01*
X172099632Y-102960525D01*
X171925240Y-102844000D01*
X172099632Y-102727475D01*
X172306475Y-102520632D01*
X172468990Y-102277411D01*
X172580932Y-102007158D01*
X172638000Y-101720260D01*
X172638000Y-101427740D01*
X172580932Y-101140842D01*
X172468990Y-100870589D01*
X172306475Y-100627368D01*
X172099632Y-100420525D01*
X171856411Y-100258010D01*
X171586158Y-100146068D01*
X171299260Y-100089000D01*
X171006740Y-100089000D01*
X170719842Y-100146068D01*
X170449589Y-100258010D01*
X170206368Y-100420525D01*
X169999525Y-100627368D01*
X169881900Y-100803406D01*
X169710588Y-100573731D01*
X169494355Y-100378822D01*
X169244252Y-100229843D01*
X168969891Y-100132519D01*
X168740000Y-100253186D01*
X168740000Y-101447000D01*
X168760000Y-101447000D01*
X168760000Y-101701000D01*
X168740000Y-101701000D01*
X168740000Y-101721000D01*
X168486000Y-101721000D01*
X168486000Y-101701000D01*
X167292845Y-101701000D01*
X167171524Y-101930890D01*
X167216175Y-102078099D01*
X167341359Y-102340920D01*
X167515412Y-102574269D01*
X167731645Y-102769178D01*
X167848534Y-102838805D01*
X167666368Y-102960525D01*
X167459525Y-103167368D01*
X167334822Y-103354000D01*
X166733302Y-103354000D01*
X165043101Y-101663800D01*
X166115678Y-101663800D01*
X166153000Y-101667476D01*
X166190322Y-101663800D01*
X166190333Y-101663800D01*
X166301986Y-101652803D01*
X166445247Y-101609346D01*
X166577276Y-101538774D01*
X166693001Y-101443801D01*
X166716804Y-101414797D01*
X167390783Y-100740818D01*
X167341359Y-100807080D01*
X167216175Y-101069901D01*
X167171524Y-101217110D01*
X167292845Y-101447000D01*
X168486000Y-101447000D01*
X168486000Y-100253186D01*
X168256109Y-100132519D01*
X167981748Y-100229843D01*
X167783915Y-100347686D01*
X170664004Y-97467598D01*
X170693001Y-97443801D01*
X170787974Y-97328076D01*
X170858546Y-97196047D01*
X170902003Y-97052786D01*
X170913000Y-96941133D01*
X170913000Y-96941124D01*
X170916676Y-96903801D01*
X170913000Y-96866478D01*
X170913000Y-93298237D01*
X171772773Y-94158010D01*
G37*
X171772773Y-94158010D02*
X171779596Y-94227290D01*
X171798718Y-94323423D01*
X171835027Y-94443119D01*
X171872536Y-94533675D01*
X171931502Y-94643992D01*
X171985958Y-94725491D01*
X172065310Y-94822182D01*
X172134618Y-94891490D01*
X172231309Y-94970842D01*
X172312808Y-95025298D01*
X172423125Y-95084264D01*
X172513681Y-95121773D01*
X172633377Y-95158082D01*
X172729510Y-95177204D01*
X172853991Y-95189464D01*
X172878550Y-95189464D01*
X172903000Y-95191872D01*
X173403000Y-95191872D01*
X173427450Y-95189464D01*
X173452009Y-95189464D01*
X173576490Y-95177204D01*
X173672623Y-95158082D01*
X173792319Y-95121773D01*
X173882875Y-95084264D01*
X173993192Y-95025298D01*
X174074691Y-94970842D01*
X174171382Y-94891490D01*
X174240690Y-94822182D01*
X174320042Y-94725491D01*
X174374498Y-94643992D01*
X174408806Y-94579807D01*
X179643001Y-99814003D01*
X179643001Y-99915928D01*
X179553000Y-99915928D01*
X179428518Y-99928188D01*
X179308820Y-99964498D01*
X179198506Y-100023463D01*
X179101815Y-100102815D01*
X179022463Y-100199506D01*
X178963498Y-100309820D01*
X178927188Y-100429518D01*
X178914928Y-100554000D01*
X178914928Y-102254000D01*
X178927188Y-102378482D01*
X178963498Y-102498180D01*
X179022463Y-102608494D01*
X179101815Y-102705185D01*
X179198506Y-102784537D01*
X179308820Y-102843502D01*
X179381380Y-102865513D01*
X179249525Y-102997368D01*
X179087010Y-103240589D01*
X178975068Y-103510842D01*
X178918000Y-103797740D01*
X178918000Y-104090260D01*
X178975068Y-104377158D01*
X179087010Y-104647411D01*
X179249525Y-104890632D01*
X179456368Y-105097475D01*
X179630760Y-105214000D01*
X179456368Y-105330525D01*
X179249525Y-105537368D01*
X179087010Y-105780589D01*
X178975068Y-106050842D01*
X178918000Y-106337740D01*
X178918000Y-106630260D01*
X178975068Y-106917158D01*
X179087010Y-107187411D01*
X179249525Y-107430632D01*
X179456368Y-107637475D01*
X179699589Y-107799990D01*
X179969842Y-107911932D01*
X180256740Y-107969000D01*
X180383199Y-107969000D01*
X180208399Y-108143800D01*
X165317803Y-108143800D01*
X164671688Y-107497686D01*
X164708000Y-107315135D01*
X164708000Y-107032465D01*
X164652853Y-106755226D01*
X164544680Y-106494073D01*
X164387637Y-106259041D01*
X164187759Y-106059163D01*
X163955241Y-105903800D01*
X164187759Y-105748437D01*
X164387637Y-105548559D01*
X164544680Y-105313527D01*
X164652853Y-105052374D01*
X164708000Y-104775135D01*
X164708000Y-104492465D01*
X164652853Y-104215226D01*
X164544680Y-103954073D01*
X164387637Y-103719041D01*
X164187759Y-103519163D01*
X163955241Y-103363800D01*
X164187759Y-103208437D01*
X164312947Y-103083249D01*
X165854701Y-104625003D01*
X165878499Y-104654001D01*
X165994224Y-104748974D01*
X166126253Y-104819546D01*
X166269514Y-104863003D01*
X166381167Y-104874000D01*
X166381176Y-104874000D01*
X166418499Y-104877676D01*
X166455822Y-104874000D01*
X167334822Y-104874000D01*
X167459525Y-105060632D01*
X167666368Y-105267475D01*
X167840760Y-105384000D01*
X167666368Y-105500525D01*
X167459525Y-105707368D01*
X167297010Y-105950589D01*
X167185068Y-106220842D01*
X167128000Y-106507740D01*
X167128000Y-106800260D01*
X167185068Y-107087158D01*
X167297010Y-107357411D01*
X167459525Y-107600632D01*
X167666368Y-107807475D01*
X167909589Y-107969990D01*
X168179842Y-108081932D01*
X168466740Y-108139000D01*
X168759260Y-108139000D01*
X169046158Y-108081932D01*
X169316411Y-107969990D01*
X169559632Y-107807475D01*
X169691487Y-107675620D01*
X169713498Y-107748180D01*
X169772463Y-107858494D01*
X169851815Y-107955185D01*
X169948506Y-108034537D01*
X170058820Y-108093502D01*
X170178518Y-108129812D01*
X170303000Y-108142072D01*
X172003000Y-108142072D01*
X172127482Y-108129812D01*
X172247180Y-108093502D01*
X172357494Y-108034537D01*
X172454185Y-107955185D01*
X172533537Y-107858494D01*
X172592502Y-107748180D01*
X172628812Y-107628482D01*
X172641072Y-107504000D01*
X172641072Y-105804000D01*
X172628812Y-105679518D01*
X172592502Y-105559820D01*
X172533537Y-105449506D01*
X172454185Y-105352815D01*
X172357494Y-105273463D01*
X172247180Y-105214498D01*
X172174620Y-105192487D01*
X172306475Y-105060632D01*
X172468990Y-104817411D01*
X172580932Y-104547158D01*
X172638000Y-104260260D01*
X172638000Y-103967740D01*
X172580932Y-103680842D01*
X172468990Y-103410589D01*
X172306475Y-103167368D01*
X172099632Y-102960525D01*
X171925240Y-102844000D01*
X172099632Y-102727475D01*
X172306475Y-102520632D01*
X172468990Y-102277411D01*
X172580932Y-102007158D01*
X172638000Y-101720260D01*
X172638000Y-101427740D01*
X172580932Y-101140842D01*
X172468990Y-100870589D01*
X172306475Y-100627368D01*
X172099632Y-100420525D01*
X171856411Y-100258010D01*
X171586158Y-100146068D01*
X171299260Y-100089000D01*
X171006740Y-100089000D01*
X170719842Y-100146068D01*
X170449589Y-100258010D01*
X170206368Y-100420525D01*
X169999525Y-100627368D01*
X169881900Y-100803406D01*
X169710588Y-100573731D01*
X169494355Y-100378822D01*
X169244252Y-100229843D01*
X168969891Y-100132519D01*
X168740000Y-100253186D01*
X168740000Y-101447000D01*
X168760000Y-101447000D01*
X168760000Y-101701000D01*
X168740000Y-101701000D01*
X168740000Y-101721000D01*
X168486000Y-101721000D01*
X168486000Y-101701000D01*
X167292845Y-101701000D01*
X167171524Y-101930890D01*
X167216175Y-102078099D01*
X167341359Y-102340920D01*
X167515412Y-102574269D01*
X167731645Y-102769178D01*
X167848534Y-102838805D01*
X167666368Y-102960525D01*
X167459525Y-103167368D01*
X167334822Y-103354000D01*
X166733302Y-103354000D01*
X165043101Y-101663800D01*
X166115678Y-101663800D01*
X166153000Y-101667476D01*
X166190322Y-101663800D01*
X166190333Y-101663800D01*
X166301986Y-101652803D01*
X166445247Y-101609346D01*
X166577276Y-101538774D01*
X166693001Y-101443801D01*
X166716804Y-101414797D01*
X167390783Y-100740818D01*
X167341359Y-100807080D01*
X167216175Y-101069901D01*
X167171524Y-101217110D01*
X167292845Y-101447000D01*
X168486000Y-101447000D01*
X168486000Y-100253186D01*
X168256109Y-100132519D01*
X167981748Y-100229843D01*
X167783915Y-100347686D01*
X170664004Y-97467598D01*
X170693001Y-97443801D01*
X170787974Y-97328076D01*
X170858546Y-97196047D01*
X170902003Y-97052786D01*
X170913000Y-96941133D01*
X170913000Y-96941124D01*
X170916676Y-96903801D01*
X170913000Y-96866478D01*
X170913000Y-93298237D01*
X171772773Y-94158010D01*
G36*
X182939800Y-76220102D02*
G01*
X182963599Y-76249101D01*
X182992597Y-76272899D01*
X183079324Y-76344074D01*
X183211353Y-76414646D01*
X183354614Y-76458103D01*
X183503600Y-76472777D01*
X183540933Y-76469100D01*
X196638199Y-76469100D01*
X197969644Y-77800546D01*
X197893147Y-77985226D01*
X197838000Y-78262465D01*
X197838000Y-78545135D01*
X197893147Y-78822374D01*
X198001320Y-79083527D01*
X198158363Y-79318559D01*
X198358241Y-79518437D01*
X198593273Y-79675480D01*
X198854426Y-79783653D01*
X199131665Y-79838800D01*
X199414335Y-79838800D01*
X199691574Y-79783653D01*
X199952727Y-79675480D01*
X200152204Y-79542194D01*
X192050599Y-87643800D01*
X174190322Y-87643800D01*
X174152999Y-87640124D01*
X174115676Y-87643800D01*
X174115667Y-87643800D01*
X174004014Y-87654797D01*
X173860753Y-87698254D01*
X173728724Y-87768826D01*
X173728722Y-87768827D01*
X173728723Y-87768827D01*
X173641996Y-87840001D01*
X173641992Y-87840005D01*
X173612999Y-87863799D01*
X173589205Y-87892792D01*
X171009621Y-90472378D01*
X170924353Y-90498243D01*
X170792324Y-90568815D01*
X170676599Y-90663788D01*
X170652801Y-90692786D01*
X169641998Y-91703590D01*
X169613000Y-91727388D01*
X169589202Y-91756386D01*
X169589201Y-91756387D01*
X169518026Y-91843113D01*
X169447454Y-91975143D01*
X169421471Y-92060800D01*
X169403998Y-92118403D01*
X169394602Y-92213799D01*
X169389324Y-92267389D01*
X169393001Y-92304721D01*
X169393000Y-96588998D01*
X169316896Y-96665103D01*
X169329300Y-96615616D01*
X169343217Y-96333288D01*
X169301787Y-96053670D01*
X169206603Y-95787508D01*
X169139671Y-95662286D01*
X168895702Y-95590703D01*
X168082605Y-96403800D01*
X168096748Y-96417943D01*
X167917143Y-96597548D01*
X167903000Y-96583405D01*
X167089903Y-97396502D01*
X167161486Y-97640471D01*
X167416996Y-97761371D01*
X167691184Y-97830100D01*
X167973512Y-97844017D01*
X168166589Y-97815409D01*
X165838199Y-100143800D01*
X164581846Y-100143800D01*
X164652853Y-99972374D01*
X164708000Y-99695135D01*
X164708000Y-99412465D01*
X164652853Y-99135226D01*
X164544680Y-98874073D01*
X164387637Y-98639041D01*
X164187759Y-98439163D01*
X163955241Y-98283800D01*
X164187759Y-98128437D01*
X164387637Y-97928559D01*
X164544680Y-97693527D01*
X164652853Y-97432374D01*
X164708000Y-97155135D01*
X164708000Y-96872465D01*
X164652853Y-96595226D01*
X164602769Y-96474312D01*
X166462783Y-96474312D01*
X166504213Y-96753930D01*
X166599397Y-97020092D01*
X166666329Y-97145314D01*
X166910298Y-97216897D01*
X167723395Y-96403800D01*
X166910298Y-95590703D01*
X166666329Y-95662286D01*
X166545429Y-95917796D01*
X166476700Y-96191984D01*
X166462783Y-96474312D01*
X164602769Y-96474312D01*
X164544680Y-96334073D01*
X164387637Y-96099041D01*
X164187759Y-95899163D01*
X163955241Y-95743800D01*
X164187759Y-95588437D01*
X164365098Y-95411098D01*
X167089903Y-95411098D01*
X167903000Y-96224195D01*
X168716097Y-95411098D01*
X168644514Y-95167129D01*
X168389004Y-95046229D01*
X168114816Y-94977500D01*
X167832488Y-94963583D01*
X167552870Y-95005013D01*
X167286708Y-95100197D01*
X167161486Y-95167129D01*
X167089903Y-95411098D01*
X164365098Y-95411098D01*
X164387637Y-95388559D01*
X164544680Y-95153527D01*
X164652853Y-94892374D01*
X164708000Y-94615135D01*
X164708000Y-94332465D01*
X164652853Y-94055226D01*
X164544680Y-93794073D01*
X164387637Y-93559041D01*
X164187759Y-93359163D01*
X163955241Y-93203800D01*
X164187759Y-93048437D01*
X164387637Y-92848559D01*
X164544680Y-92613527D01*
X164652853Y-92352374D01*
X164708000Y-92075135D01*
X164708000Y-91792465D01*
X164652853Y-91515226D01*
X164544680Y-91254073D01*
X164387637Y-91019041D01*
X164187759Y-90819163D01*
X163952727Y-90662120D01*
X163942135Y-90657733D01*
X164128131Y-90546185D01*
X164336519Y-90357214D01*
X164504037Y-90131220D01*
X164624246Y-89876887D01*
X164664904Y-89742839D01*
X164542915Y-89520800D01*
X163400000Y-89520800D01*
X163400000Y-89540800D01*
X163146000Y-89540800D01*
X163146000Y-89520800D01*
X163126000Y-89520800D01*
X163126000Y-89266800D01*
X163146000Y-89266800D01*
X163146000Y-89246800D01*
X163400000Y-89246800D01*
X163400000Y-89266800D01*
X164542915Y-89266800D01*
X164664904Y-89044761D01*
X164659972Y-89028500D01*
X166450978Y-89028500D01*
X166488300Y-89032176D01*
X166489273Y-89032080D01*
X166523147Y-89202374D01*
X166631320Y-89463527D01*
X166788363Y-89698559D01*
X166988241Y-89898437D01*
X167223273Y-90055480D01*
X167484426Y-90163653D01*
X167761665Y-90218800D01*
X168044335Y-90218800D01*
X168321574Y-90163653D01*
X168582727Y-90055480D01*
X168817759Y-89898437D01*
X169017637Y-89698559D01*
X169174680Y-89463527D01*
X169282853Y-89202374D01*
X169338000Y-88925135D01*
X169338000Y-88642465D01*
X169282853Y-88365226D01*
X169174680Y-88104073D01*
X169017637Y-87869041D01*
X168817759Y-87669163D01*
X168582727Y-87512120D01*
X168396584Y-87435017D01*
X171667802Y-84163800D01*
X179828378Y-84163800D01*
X179865700Y-84167476D01*
X179903022Y-84163800D01*
X179903033Y-84163800D01*
X180014686Y-84152803D01*
X180157947Y-84109346D01*
X180289976Y-84038774D01*
X180405701Y-83943801D01*
X180429504Y-83914797D01*
X180702429Y-83641872D01*
X181753000Y-83641872D01*
X181877482Y-83629612D01*
X181997180Y-83593302D01*
X182107494Y-83534337D01*
X182204185Y-83454985D01*
X182283537Y-83358294D01*
X182342502Y-83247980D01*
X182378812Y-83128282D01*
X182391072Y-83003800D01*
X182391072Y-82598375D01*
X182502576Y-82538774D01*
X182618301Y-82443801D01*
X182642103Y-82414798D01*
X182643101Y-82413800D01*
X183914928Y-82413800D01*
X183914928Y-82753800D01*
X183927188Y-82878282D01*
X183963498Y-82997980D01*
X184022463Y-83108294D01*
X184101815Y-83204985D01*
X184198506Y-83284337D01*
X184308820Y-83343302D01*
X184428518Y-83379612D01*
X184553000Y-83391872D01*
X186753000Y-83391872D01*
X186877482Y-83379612D01*
X186997180Y-83343302D01*
X187107494Y-83284337D01*
X187204185Y-83204985D01*
X187283537Y-83108294D01*
X187342502Y-82997980D01*
X187378812Y-82878282D01*
X187391072Y-82753800D01*
X187391072Y-80553800D01*
X187378812Y-80429318D01*
X187342502Y-80309620D01*
X187283537Y-80199306D01*
X187204185Y-80102615D01*
X187107494Y-80023263D01*
X186997180Y-79964298D01*
X186877482Y-79927988D01*
X186753000Y-79915728D01*
X184553000Y-79915728D01*
X184471430Y-79923762D01*
X184517605Y-79854656D01*
X184595626Y-79666298D01*
X184635400Y-79466339D01*
X184635400Y-79262461D01*
X184615775Y-79163800D01*
X189235695Y-79163800D01*
X189157774Y-79351916D01*
X189118000Y-79551875D01*
X189118000Y-79614012D01*
X188391998Y-80340015D01*
X188363000Y-80363813D01*
X188339202Y-80392811D01*
X188339201Y-80392812D01*
X188268026Y-80479538D01*
X188197454Y-80611568D01*
X188153998Y-80754829D01*
X188139324Y-80903814D01*
X188143001Y-80941146D01*
X188143000Y-83700089D01*
X188099063Y-83744026D01*
X187985795Y-83913544D01*
X187907774Y-84101902D01*
X187868000Y-84301861D01*
X187868000Y-84505739D01*
X187907774Y-84705698D01*
X187985795Y-84894056D01*
X188099063Y-85063574D01*
X188243226Y-85207737D01*
X188412744Y-85321005D01*
X188601102Y-85399026D01*
X188801061Y-85438800D01*
X189004939Y-85438800D01*
X189204898Y-85399026D01*
X189393256Y-85321005D01*
X189562774Y-85207737D01*
X189706937Y-85063574D01*
X189820205Y-84894056D01*
X189898226Y-84705698D01*
X189938000Y-84505739D01*
X189938000Y-84301861D01*
X189898226Y-84101902D01*
X189820205Y-83913544D01*
X189706937Y-83744026D01*
X189663000Y-83700089D01*
X189663000Y-81218615D01*
X190192802Y-80688814D01*
X190254939Y-80688814D01*
X190454898Y-80649040D01*
X190643256Y-80571019D01*
X190812774Y-80457751D01*
X190956937Y-80313588D01*
X191070205Y-80144070D01*
X191148226Y-79955712D01*
X191186407Y-79763763D01*
X191234426Y-79783653D01*
X191511665Y-79838800D01*
X191794335Y-79838800D01*
X192071574Y-79783653D01*
X192332727Y-79675480D01*
X192567759Y-79518437D01*
X192767637Y-79318559D01*
X192924680Y-79083527D01*
X193032853Y-78822374D01*
X193088000Y-78545135D01*
X193088000Y-78262465D01*
X193032853Y-77985226D01*
X192924680Y-77724073D01*
X192767637Y-77489041D01*
X192567759Y-77289163D01*
X192332727Y-77132120D01*
X192071574Y-77023947D01*
X191794335Y-76968800D01*
X191511665Y-76968800D01*
X191234426Y-77023947D01*
X190973273Y-77132120D01*
X190738241Y-77289163D01*
X190538363Y-77489041D01*
X190434957Y-77643800D01*
X187905400Y-77643800D01*
X187905400Y-77485461D01*
X187865626Y-77285502D01*
X187787605Y-77097144D01*
X187674337Y-76927626D01*
X187530174Y-76783463D01*
X187360656Y-76670195D01*
X187172298Y-76592174D01*
X186972339Y-76552400D01*
X186768461Y-76552400D01*
X186568502Y-76592174D01*
X186380144Y-76670195D01*
X186210626Y-76783463D01*
X186166689Y-76827400D01*
X181800202Y-76827400D01*
X180963775Y-75990974D01*
X181159081Y-75952125D01*
X181474831Y-75821337D01*
X181758998Y-75631463D01*
X182000663Y-75389798D01*
X182044256Y-75324557D01*
X182939800Y-76220102D01*
G37*
X182939800Y-76220102D02*
X182963599Y-76249101D01*
X182992597Y-76272899D01*
X183079324Y-76344074D01*
X183211353Y-76414646D01*
X183354614Y-76458103D01*
X183503600Y-76472777D01*
X183540933Y-76469100D01*
X196638199Y-76469100D01*
X197969644Y-77800546D01*
X197893147Y-77985226D01*
X197838000Y-78262465D01*
X197838000Y-78545135D01*
X197893147Y-78822374D01*
X198001320Y-79083527D01*
X198158363Y-79318559D01*
X198358241Y-79518437D01*
X198593273Y-79675480D01*
X198854426Y-79783653D01*
X199131665Y-79838800D01*
X199414335Y-79838800D01*
X199691574Y-79783653D01*
X199952727Y-79675480D01*
X200152204Y-79542194D01*
X192050599Y-87643800D01*
X174190322Y-87643800D01*
X174152999Y-87640124D01*
X174115676Y-87643800D01*
X174115667Y-87643800D01*
X174004014Y-87654797D01*
X173860753Y-87698254D01*
X173728724Y-87768826D01*
X173728722Y-87768827D01*
X173728723Y-87768827D01*
X173641996Y-87840001D01*
X173641992Y-87840005D01*
X173612999Y-87863799D01*
X173589205Y-87892792D01*
X171009621Y-90472378D01*
X170924353Y-90498243D01*
X170792324Y-90568815D01*
X170676599Y-90663788D01*
X170652801Y-90692786D01*
X169641998Y-91703590D01*
X169613000Y-91727388D01*
X169589202Y-91756386D01*
X169589201Y-91756387D01*
X169518026Y-91843113D01*
X169447454Y-91975143D01*
X169421471Y-92060800D01*
X169403998Y-92118403D01*
X169394602Y-92213799D01*
X169389324Y-92267389D01*
X169393001Y-92304721D01*
X169393000Y-96588998D01*
X169316896Y-96665103D01*
X169329300Y-96615616D01*
X169343217Y-96333288D01*
X169301787Y-96053670D01*
X169206603Y-95787508D01*
X169139671Y-95662286D01*
X168895702Y-95590703D01*
X168082605Y-96403800D01*
X168096748Y-96417943D01*
X167917143Y-96597548D01*
X167903000Y-96583405D01*
X167089903Y-97396502D01*
X167161486Y-97640471D01*
X167416996Y-97761371D01*
X167691184Y-97830100D01*
X167973512Y-97844017D01*
X168166589Y-97815409D01*
X165838199Y-100143800D01*
X164581846Y-100143800D01*
X164652853Y-99972374D01*
X164708000Y-99695135D01*
X164708000Y-99412465D01*
X164652853Y-99135226D01*
X164544680Y-98874073D01*
X164387637Y-98639041D01*
X164187759Y-98439163D01*
X163955241Y-98283800D01*
X164187759Y-98128437D01*
X164387637Y-97928559D01*
X164544680Y-97693527D01*
X164652853Y-97432374D01*
X164708000Y-97155135D01*
X164708000Y-96872465D01*
X164652853Y-96595226D01*
X164602769Y-96474312D01*
X166462783Y-96474312D01*
X166504213Y-96753930D01*
X166599397Y-97020092D01*
X166666329Y-97145314D01*
X166910298Y-97216897D01*
X167723395Y-96403800D01*
X166910298Y-95590703D01*
X166666329Y-95662286D01*
X166545429Y-95917796D01*
X166476700Y-96191984D01*
X166462783Y-96474312D01*
X164602769Y-96474312D01*
X164544680Y-96334073D01*
X164387637Y-96099041D01*
X164187759Y-95899163D01*
X163955241Y-95743800D01*
X164187759Y-95588437D01*
X164365098Y-95411098D01*
X167089903Y-95411098D01*
X167903000Y-96224195D01*
X168716097Y-95411098D01*
X168644514Y-95167129D01*
X168389004Y-95046229D01*
X168114816Y-94977500D01*
X167832488Y-94963583D01*
X167552870Y-95005013D01*
X167286708Y-95100197D01*
X167161486Y-95167129D01*
X167089903Y-95411098D01*
X164365098Y-95411098D01*
X164387637Y-95388559D01*
X164544680Y-95153527D01*
X164652853Y-94892374D01*
X164708000Y-94615135D01*
X164708000Y-94332465D01*
X164652853Y-94055226D01*
X164544680Y-93794073D01*
X164387637Y-93559041D01*
X164187759Y-93359163D01*
X163955241Y-93203800D01*
X164187759Y-93048437D01*
X164387637Y-92848559D01*
X164544680Y-92613527D01*
X164652853Y-92352374D01*
X164708000Y-92075135D01*
X164708000Y-91792465D01*
X164652853Y-91515226D01*
X164544680Y-91254073D01*
X164387637Y-91019041D01*
X164187759Y-90819163D01*
X163952727Y-90662120D01*
X163942135Y-90657733D01*
X164128131Y-90546185D01*
X164336519Y-90357214D01*
X164504037Y-90131220D01*
X164624246Y-89876887D01*
X164664904Y-89742839D01*
X164542915Y-89520800D01*
X163400000Y-89520800D01*
X163400000Y-89540800D01*
X163146000Y-89540800D01*
X163146000Y-89520800D01*
X163126000Y-89520800D01*
X163126000Y-89266800D01*
X163146000Y-89266800D01*
X163146000Y-89246800D01*
X163400000Y-89246800D01*
X163400000Y-89266800D01*
X164542915Y-89266800D01*
X164664904Y-89044761D01*
X164659972Y-89028500D01*
X166450978Y-89028500D01*
X166488300Y-89032176D01*
X166489273Y-89032080D01*
X166523147Y-89202374D01*
X166631320Y-89463527D01*
X166788363Y-89698559D01*
X166988241Y-89898437D01*
X167223273Y-90055480D01*
X167484426Y-90163653D01*
X167761665Y-90218800D01*
X168044335Y-90218800D01*
X168321574Y-90163653D01*
X168582727Y-90055480D01*
X168817759Y-89898437D01*
X169017637Y-89698559D01*
X169174680Y-89463527D01*
X169282853Y-89202374D01*
X169338000Y-88925135D01*
X169338000Y-88642465D01*
X169282853Y-88365226D01*
X169174680Y-88104073D01*
X169017637Y-87869041D01*
X168817759Y-87669163D01*
X168582727Y-87512120D01*
X168396584Y-87435017D01*
X171667802Y-84163800D01*
X179828378Y-84163800D01*
X179865700Y-84167476D01*
X179903022Y-84163800D01*
X179903033Y-84163800D01*
X180014686Y-84152803D01*
X180157947Y-84109346D01*
X180289976Y-84038774D01*
X180405701Y-83943801D01*
X180429504Y-83914797D01*
X180702429Y-83641872D01*
X181753000Y-83641872D01*
X181877482Y-83629612D01*
X181997180Y-83593302D01*
X182107494Y-83534337D01*
X182204185Y-83454985D01*
X182283537Y-83358294D01*
X182342502Y-83247980D01*
X182378812Y-83128282D01*
X182391072Y-83003800D01*
X182391072Y-82598375D01*
X182502576Y-82538774D01*
X182618301Y-82443801D01*
X182642103Y-82414798D01*
X182643101Y-82413800D01*
X183914928Y-82413800D01*
X183914928Y-82753800D01*
X183927188Y-82878282D01*
X183963498Y-82997980D01*
X184022463Y-83108294D01*
X184101815Y-83204985D01*
X184198506Y-83284337D01*
X184308820Y-83343302D01*
X184428518Y-83379612D01*
X184553000Y-83391872D01*
X186753000Y-83391872D01*
X186877482Y-83379612D01*
X186997180Y-83343302D01*
X187107494Y-83284337D01*
X187204185Y-83204985D01*
X187283537Y-83108294D01*
X187342502Y-82997980D01*
X187378812Y-82878282D01*
X187391072Y-82753800D01*
X187391072Y-80553800D01*
X187378812Y-80429318D01*
X187342502Y-80309620D01*
X187283537Y-80199306D01*
X187204185Y-80102615D01*
X187107494Y-80023263D01*
X186997180Y-79964298D01*
X186877482Y-79927988D01*
X186753000Y-79915728D01*
X184553000Y-79915728D01*
X184471430Y-79923762D01*
X184517605Y-79854656D01*
X184595626Y-79666298D01*
X184635400Y-79466339D01*
X184635400Y-79262461D01*
X184615775Y-79163800D01*
X189235695Y-79163800D01*
X189157774Y-79351916D01*
X189118000Y-79551875D01*
X189118000Y-79614012D01*
X188391998Y-80340015D01*
X188363000Y-80363813D01*
X188339202Y-80392811D01*
X188339201Y-80392812D01*
X188268026Y-80479538D01*
X188197454Y-80611568D01*
X188153998Y-80754829D01*
X188139324Y-80903814D01*
X188143001Y-80941146D01*
X188143000Y-83700089D01*
X188099063Y-83744026D01*
X187985795Y-83913544D01*
X187907774Y-84101902D01*
X187868000Y-84301861D01*
X187868000Y-84505739D01*
X187907774Y-84705698D01*
X187985795Y-84894056D01*
X188099063Y-85063574D01*
X188243226Y-85207737D01*
X188412744Y-85321005D01*
X188601102Y-85399026D01*
X188801061Y-85438800D01*
X189004939Y-85438800D01*
X189204898Y-85399026D01*
X189393256Y-85321005D01*
X189562774Y-85207737D01*
X189706937Y-85063574D01*
X189820205Y-84894056D01*
X189898226Y-84705698D01*
X189938000Y-84505739D01*
X189938000Y-84301861D01*
X189898226Y-84101902D01*
X189820205Y-83913544D01*
X189706937Y-83744026D01*
X189663000Y-83700089D01*
X189663000Y-81218615D01*
X190192802Y-80688814D01*
X190254939Y-80688814D01*
X190454898Y-80649040D01*
X190643256Y-80571019D01*
X190812774Y-80457751D01*
X190956937Y-80313588D01*
X191070205Y-80144070D01*
X191148226Y-79955712D01*
X191186407Y-79763763D01*
X191234426Y-79783653D01*
X191511665Y-79838800D01*
X191794335Y-79838800D01*
X192071574Y-79783653D01*
X192332727Y-79675480D01*
X192567759Y-79518437D01*
X192767637Y-79318559D01*
X192924680Y-79083527D01*
X193032853Y-78822374D01*
X193088000Y-78545135D01*
X193088000Y-78262465D01*
X193032853Y-77985226D01*
X192924680Y-77724073D01*
X192767637Y-77489041D01*
X192567759Y-77289163D01*
X192332727Y-77132120D01*
X192071574Y-77023947D01*
X191794335Y-76968800D01*
X191511665Y-76968800D01*
X191234426Y-77023947D01*
X190973273Y-77132120D01*
X190738241Y-77289163D01*
X190538363Y-77489041D01*
X190434957Y-77643800D01*
X187905400Y-77643800D01*
X187905400Y-77485461D01*
X187865626Y-77285502D01*
X187787605Y-77097144D01*
X187674337Y-76927626D01*
X187530174Y-76783463D01*
X187360656Y-76670195D01*
X187172298Y-76592174D01*
X186972339Y-76552400D01*
X186768461Y-76552400D01*
X186568502Y-76592174D01*
X186380144Y-76670195D01*
X186210626Y-76783463D01*
X186166689Y-76827400D01*
X181800202Y-76827400D01*
X180963775Y-75990974D01*
X181159081Y-75952125D01*
X181474831Y-75821337D01*
X181758998Y-75631463D01*
X182000663Y-75389798D01*
X182044256Y-75324557D01*
X182939800Y-76220102D01*
G36*
X181430826Y-89660063D02*
G01*
X181286663Y-89804226D01*
X181173395Y-89973744D01*
X181095374Y-90162102D01*
X181055600Y-90362061D01*
X181055600Y-90565939D01*
X181095374Y-90765898D01*
X181173395Y-90954256D01*
X181286663Y-91123774D01*
X181430826Y-91267937D01*
X181600344Y-91381205D01*
X181788702Y-91459226D01*
X181988661Y-91499000D01*
X182192539Y-91499000D01*
X182392498Y-91459226D01*
X182580856Y-91381205D01*
X182750374Y-91267937D01*
X182894537Y-91123774D01*
X183007805Y-90954256D01*
X183085826Y-90765898D01*
X183125600Y-90565939D01*
X183125600Y-90538500D01*
X183964928Y-90538500D01*
X183964928Y-91703800D01*
X183977188Y-91828282D01*
X184013498Y-91947980D01*
X184072463Y-92058294D01*
X184151815Y-92154985D01*
X184248506Y-92234337D01*
X184358820Y-92293302D01*
X184478518Y-92329612D01*
X184603000Y-92341872D01*
X186203000Y-92341872D01*
X186327482Y-92329612D01*
X186447180Y-92293302D01*
X186557494Y-92234337D01*
X186654185Y-92154985D01*
X186733537Y-92058294D01*
X186792502Y-91947980D01*
X186808117Y-91896502D01*
X188089903Y-91896502D01*
X188161486Y-92140471D01*
X188416996Y-92261371D01*
X188691184Y-92330100D01*
X188973512Y-92344017D01*
X189253130Y-92302587D01*
X189519292Y-92207403D01*
X189644514Y-92140471D01*
X189716097Y-91896502D01*
X188903000Y-91083405D01*
X188089903Y-91896502D01*
X186808117Y-91896502D01*
X186828812Y-91828282D01*
X186841072Y-91703800D01*
X186841072Y-90538500D01*
X187515173Y-90538500D01*
X187476700Y-90691984D01*
X187462783Y-90974312D01*
X187504213Y-91253930D01*
X187599397Y-91520092D01*
X187666329Y-91645314D01*
X187910298Y-91716897D01*
X188723395Y-90903800D01*
X188709253Y-90889658D01*
X188888858Y-90710053D01*
X188903000Y-90724195D01*
X188917143Y-90710053D01*
X189096748Y-90889658D01*
X189082605Y-90903800D01*
X189895702Y-91716897D01*
X190139671Y-91645314D01*
X190260571Y-91389804D01*
X190329300Y-91115616D01*
X190343217Y-90833288D01*
X190301787Y-90553670D01*
X190296362Y-90538500D01*
X195422678Y-90538500D01*
X195460000Y-90542176D01*
X195497322Y-90538500D01*
X195497333Y-90538500D01*
X195608986Y-90527503D01*
X195678000Y-90506568D01*
X195678000Y-90511531D01*
X195733147Y-90788770D01*
X195789871Y-90925714D01*
X195549426Y-90973542D01*
X195288273Y-91081715D01*
X195053241Y-91238758D01*
X194853363Y-91438636D01*
X194696320Y-91673668D01*
X194588147Y-91934821D01*
X194533000Y-92212060D01*
X194533000Y-92494730D01*
X194588147Y-92771969D01*
X194684393Y-93004327D01*
X194615188Y-93070339D01*
X194888740Y-94091245D01*
X194837141Y-94142844D01*
X195016749Y-94322452D01*
X195247954Y-94091246D01*
X195719007Y-93965028D01*
X195673131Y-94216917D01*
X195672359Y-94240488D01*
X194978543Y-94426396D01*
X195276157Y-95537107D01*
X195356440Y-95556600D01*
X195018420Y-95556600D01*
X194733197Y-94492136D01*
X193622486Y-94789750D01*
X193562495Y-95036825D01*
X193723323Y-95269282D01*
X193926412Y-95465897D01*
X194067036Y-95556600D01*
X181480602Y-95556600D01*
X180284429Y-94360427D01*
X193381254Y-94360427D01*
X193556746Y-94544405D01*
X194667457Y-94246790D01*
X194369843Y-93136079D01*
X194122768Y-93076088D01*
X193890311Y-93236916D01*
X193693696Y-93440005D01*
X193540479Y-93677549D01*
X193436550Y-93940420D01*
X193385901Y-94218516D01*
X193381254Y-94360427D01*
X180284429Y-94360427D01*
X180004988Y-94080986D01*
X180007282Y-94073423D01*
X180026404Y-93977290D01*
X180038664Y-93852809D01*
X180038664Y-93828250D01*
X180041072Y-93803800D01*
X180041072Y-93303800D01*
X180028812Y-93179318D01*
X180021071Y-93153800D01*
X180028812Y-93128282D01*
X180041072Y-93003800D01*
X180041072Y-92503800D01*
X180038664Y-92479350D01*
X180038664Y-92454791D01*
X180026404Y-92330310D01*
X180007282Y-92234177D01*
X179970973Y-92114481D01*
X179933464Y-92023925D01*
X179874498Y-91913608D01*
X179820042Y-91832109D01*
X179740690Y-91735418D01*
X179671382Y-91666110D01*
X179574691Y-91586758D01*
X179493192Y-91532302D01*
X179382875Y-91473336D01*
X179292319Y-91435827D01*
X179172623Y-91399518D01*
X179076490Y-91380396D01*
X178952009Y-91368136D01*
X178927450Y-91368136D01*
X178903000Y-91365728D01*
X178403000Y-91365728D01*
X178378550Y-91368136D01*
X178353991Y-91368136D01*
X178229510Y-91380396D01*
X178133377Y-91399518D01*
X178013681Y-91435827D01*
X177923125Y-91473336D01*
X177812808Y-91532302D01*
X177731309Y-91586758D01*
X177634618Y-91666110D01*
X177565310Y-91735418D01*
X177558431Y-91743800D01*
X176788206Y-91743800D01*
X176778716Y-91696092D01*
X176700695Y-91507734D01*
X176587427Y-91338216D01*
X176443264Y-91194053D01*
X176273746Y-91080785D01*
X176085388Y-91002764D01*
X175913107Y-90968495D01*
X177267792Y-89613811D01*
X181500047Y-89613811D01*
X181430826Y-89660063D01*
G37*
X181430826Y-89660063D02*
X181286663Y-89804226D01*
X181173395Y-89973744D01*
X181095374Y-90162102D01*
X181055600Y-90362061D01*
X181055600Y-90565939D01*
X181095374Y-90765898D01*
X181173395Y-90954256D01*
X181286663Y-91123774D01*
X181430826Y-91267937D01*
X181600344Y-91381205D01*
X181788702Y-91459226D01*
X181988661Y-91499000D01*
X182192539Y-91499000D01*
X182392498Y-91459226D01*
X182580856Y-91381205D01*
X182750374Y-91267937D01*
X182894537Y-91123774D01*
X183007805Y-90954256D01*
X183085826Y-90765898D01*
X183125600Y-90565939D01*
X183125600Y-90538500D01*
X183964928Y-90538500D01*
X183964928Y-91703800D01*
X183977188Y-91828282D01*
X184013498Y-91947980D01*
X184072463Y-92058294D01*
X184151815Y-92154985D01*
X184248506Y-92234337D01*
X184358820Y-92293302D01*
X184478518Y-92329612D01*
X184603000Y-92341872D01*
X186203000Y-92341872D01*
X186327482Y-92329612D01*
X186447180Y-92293302D01*
X186557494Y-92234337D01*
X186654185Y-92154985D01*
X186733537Y-92058294D01*
X186792502Y-91947980D01*
X186808117Y-91896502D01*
X188089903Y-91896502D01*
X188161486Y-92140471D01*
X188416996Y-92261371D01*
X188691184Y-92330100D01*
X188973512Y-92344017D01*
X189253130Y-92302587D01*
X189519292Y-92207403D01*
X189644514Y-92140471D01*
X189716097Y-91896502D01*
X188903000Y-91083405D01*
X188089903Y-91896502D01*
X186808117Y-91896502D01*
X186828812Y-91828282D01*
X186841072Y-91703800D01*
X186841072Y-90538500D01*
X187515173Y-90538500D01*
X187476700Y-90691984D01*
X187462783Y-90974312D01*
X187504213Y-91253930D01*
X187599397Y-91520092D01*
X187666329Y-91645314D01*
X187910298Y-91716897D01*
X188723395Y-90903800D01*
X188709253Y-90889658D01*
X188888858Y-90710053D01*
X188903000Y-90724195D01*
X188917143Y-90710053D01*
X189096748Y-90889658D01*
X189082605Y-90903800D01*
X189895702Y-91716897D01*
X190139671Y-91645314D01*
X190260571Y-91389804D01*
X190329300Y-91115616D01*
X190343217Y-90833288D01*
X190301787Y-90553670D01*
X190296362Y-90538500D01*
X195422678Y-90538500D01*
X195460000Y-90542176D01*
X195497322Y-90538500D01*
X195497333Y-90538500D01*
X195608986Y-90527503D01*
X195678000Y-90506568D01*
X195678000Y-90511531D01*
X195733147Y-90788770D01*
X195789871Y-90925714D01*
X195549426Y-90973542D01*
X195288273Y-91081715D01*
X195053241Y-91238758D01*
X194853363Y-91438636D01*
X194696320Y-91673668D01*
X194588147Y-91934821D01*
X194533000Y-92212060D01*
X194533000Y-92494730D01*
X194588147Y-92771969D01*
X194684393Y-93004327D01*
X194615188Y-93070339D01*
X194888740Y-94091245D01*
X194837141Y-94142844D01*
X195016749Y-94322452D01*
X195247954Y-94091246D01*
X195719007Y-93965028D01*
X195673131Y-94216917D01*
X195672359Y-94240488D01*
X194978543Y-94426396D01*
X195276157Y-95537107D01*
X195356440Y-95556600D01*
X195018420Y-95556600D01*
X194733197Y-94492136D01*
X193622486Y-94789750D01*
X193562495Y-95036825D01*
X193723323Y-95269282D01*
X193926412Y-95465897D01*
X194067036Y-95556600D01*
X181480602Y-95556600D01*
X180284429Y-94360427D01*
X193381254Y-94360427D01*
X193556746Y-94544405D01*
X194667457Y-94246790D01*
X194369843Y-93136079D01*
X194122768Y-93076088D01*
X193890311Y-93236916D01*
X193693696Y-93440005D01*
X193540479Y-93677549D01*
X193436550Y-93940420D01*
X193385901Y-94218516D01*
X193381254Y-94360427D01*
X180284429Y-94360427D01*
X180004988Y-94080986D01*
X180007282Y-94073423D01*
X180026404Y-93977290D01*
X180038664Y-93852809D01*
X180038664Y-93828250D01*
X180041072Y-93803800D01*
X180041072Y-93303800D01*
X180028812Y-93179318D01*
X180021071Y-93153800D01*
X180028812Y-93128282D01*
X180041072Y-93003800D01*
X180041072Y-92503800D01*
X180038664Y-92479350D01*
X180038664Y-92454791D01*
X180026404Y-92330310D01*
X180007282Y-92234177D01*
X179970973Y-92114481D01*
X179933464Y-92023925D01*
X179874498Y-91913608D01*
X179820042Y-91832109D01*
X179740690Y-91735418D01*
X179671382Y-91666110D01*
X179574691Y-91586758D01*
X179493192Y-91532302D01*
X179382875Y-91473336D01*
X179292319Y-91435827D01*
X179172623Y-91399518D01*
X179076490Y-91380396D01*
X178952009Y-91368136D01*
X178927450Y-91368136D01*
X178903000Y-91365728D01*
X178403000Y-91365728D01*
X178378550Y-91368136D01*
X178353991Y-91368136D01*
X178229510Y-91380396D01*
X178133377Y-91399518D01*
X178013681Y-91435827D01*
X177923125Y-91473336D01*
X177812808Y-91532302D01*
X177731309Y-91586758D01*
X177634618Y-91666110D01*
X177565310Y-91735418D01*
X177558431Y-91743800D01*
X176788206Y-91743800D01*
X176778716Y-91696092D01*
X176700695Y-91507734D01*
X176587427Y-91338216D01*
X176443264Y-91194053D01*
X176273746Y-91080785D01*
X176085388Y-91002764D01*
X175913107Y-90968495D01*
X177267792Y-89613811D01*
X181500047Y-89613811D01*
X181430826Y-89660063D01*
G36*
X197175970Y-94089646D02*
G01*
X197124371Y-94141245D01*
X197303979Y-94320853D01*
X197535184Y-94089648D01*
X198008035Y-93962948D01*
X197962461Y-94192060D01*
X197962461Y-94238119D01*
X197355578Y-94400734D01*
X197303979Y-94349135D01*
X197124371Y-94528743D01*
X197355576Y-94759948D01*
X197453313Y-95124707D01*
X197337702Y-95201956D01*
X197237816Y-95301842D01*
X197020427Y-94490537D01*
X196214223Y-94706559D01*
X196260099Y-94454670D01*
X196260871Y-94431099D01*
X196864882Y-94269254D01*
X196916481Y-94320853D01*
X197096089Y-94141245D01*
X196864884Y-93910040D01*
X196767147Y-93545281D01*
X196882759Y-93468032D01*
X196982644Y-93368147D01*
X197175970Y-94089646D01*
G37*
X197175970Y-94089646D02*
X197124371Y-94141245D01*
X197303979Y-94320853D01*
X197535184Y-94089648D01*
X198008035Y-93962948D01*
X197962461Y-94192060D01*
X197962461Y-94238119D01*
X197355578Y-94400734D01*
X197303979Y-94349135D01*
X197124371Y-94528743D01*
X197355576Y-94759948D01*
X197453313Y-95124707D01*
X197337702Y-95201956D01*
X197237816Y-95301842D01*
X197020427Y-94490537D01*
X196214223Y-94706559D01*
X196260099Y-94454670D01*
X196260871Y-94431099D01*
X196864882Y-94269254D01*
X196916481Y-94320853D01*
X197096089Y-94141245D01*
X196864884Y-93910040D01*
X196767147Y-93545281D01*
X196882759Y-93468032D01*
X196982644Y-93368147D01*
X197175970Y-94089646D01*
G36*
X199465970Y-90123249D02*
G01*
X199414371Y-90174848D01*
X199593979Y-90354456D01*
X199825184Y-90123251D01*
X200298035Y-89996551D01*
X200252461Y-90225663D01*
X200252461Y-90271722D01*
X199645578Y-90434337D01*
X199593979Y-90382738D01*
X199414371Y-90562346D01*
X199645576Y-90793551D01*
X199743313Y-91158310D01*
X199627702Y-91235559D01*
X199527816Y-91335445D01*
X199334490Y-90613945D01*
X199386089Y-90562346D01*
X199206481Y-90382738D01*
X198975276Y-90613943D01*
X198502426Y-90740643D01*
X198548000Y-90511531D01*
X198548000Y-90465471D01*
X199154882Y-90302857D01*
X199206481Y-90354456D01*
X199386089Y-90174848D01*
X199154884Y-89943643D01*
X199057147Y-89578884D01*
X199172759Y-89501635D01*
X199272644Y-89401750D01*
X199465970Y-90123249D01*
G37*
X199465970Y-90123249D02*
X199414371Y-90174848D01*
X199593979Y-90354456D01*
X199825184Y-90123251D01*
X200298035Y-89996551D01*
X200252461Y-90225663D01*
X200252461Y-90271722D01*
X199645578Y-90434337D01*
X199593979Y-90382738D01*
X199414371Y-90562346D01*
X199645576Y-90793551D01*
X199743313Y-91158310D01*
X199627702Y-91235559D01*
X199527816Y-91335445D01*
X199334490Y-90613945D01*
X199386089Y-90562346D01*
X199206481Y-90382738D01*
X198975276Y-90613943D01*
X198502426Y-90740643D01*
X198548000Y-90511531D01*
X198548000Y-90465471D01*
X199154882Y-90302857D01*
X199206481Y-90354456D01*
X199386089Y-90174848D01*
X199154884Y-89943643D01*
X199057147Y-89578884D01*
X199172759Y-89501635D01*
X199272644Y-89401750D01*
X199465970Y-90123249D01*
G36*
X207643001Y-84968603D02*
G01*
X207643000Y-89607000D01*
X203584744Y-89607000D01*
X203747220Y-89498437D01*
X203947098Y-89298559D01*
X204104141Y-89063527D01*
X204212314Y-88802374D01*
X204267461Y-88525135D01*
X204267461Y-88242465D01*
X204212314Y-87965226D01*
X204104141Y-87704073D01*
X203947098Y-87469041D01*
X203747220Y-87269163D01*
X203512188Y-87112120D01*
X203251035Y-87003947D01*
X203014042Y-86956806D01*
X203076680Y-86798374D01*
X203127329Y-86520278D01*
X203131976Y-86378367D01*
X202956484Y-86194389D01*
X201935578Y-86467941D01*
X201883979Y-86416342D01*
X201704371Y-86595950D01*
X201935576Y-86827155D01*
X202033313Y-87191914D01*
X201917702Y-87269163D01*
X201817816Y-87369049D01*
X201624490Y-86647549D01*
X201676089Y-86595950D01*
X201496481Y-86416342D01*
X201265276Y-86647547D01*
X200860139Y-86756103D01*
X201039745Y-86445018D01*
X201534687Y-86312398D01*
X201237073Y-85201687D01*
X200989998Y-85141696D01*
X200757541Y-85302524D01*
X200619193Y-85445428D01*
X200083158Y-85135947D01*
X201482418Y-85135947D01*
X201780033Y-86246658D01*
X202890744Y-85949044D01*
X202950735Y-85701969D01*
X202789907Y-85469512D01*
X202586818Y-85272897D01*
X202349274Y-85119680D01*
X202086403Y-85015751D01*
X201808307Y-84965102D01*
X201666396Y-84960455D01*
X201482418Y-85135947D01*
X200083158Y-85135947D01*
X199944505Y-85055896D01*
X201836602Y-83163800D01*
X205838199Y-83163800D01*
X207643001Y-84968603D01*
G37*
X207643001Y-84968603D02*
X207643000Y-89607000D01*
X203584744Y-89607000D01*
X203747220Y-89498437D01*
X203947098Y-89298559D01*
X204104141Y-89063527D01*
X204212314Y-88802374D01*
X204267461Y-88525135D01*
X204267461Y-88242465D01*
X204212314Y-87965226D01*
X204104141Y-87704073D01*
X203947098Y-87469041D01*
X203747220Y-87269163D01*
X203512188Y-87112120D01*
X203251035Y-87003947D01*
X203014042Y-86956806D01*
X203076680Y-86798374D01*
X203127329Y-86520278D01*
X203131976Y-86378367D01*
X202956484Y-86194389D01*
X201935578Y-86467941D01*
X201883979Y-86416342D01*
X201704371Y-86595950D01*
X201935576Y-86827155D01*
X202033313Y-87191914D01*
X201917702Y-87269163D01*
X201817816Y-87369049D01*
X201624490Y-86647549D01*
X201676089Y-86595950D01*
X201496481Y-86416342D01*
X201265276Y-86647547D01*
X200860139Y-86756103D01*
X201039745Y-86445018D01*
X201534687Y-86312398D01*
X201237073Y-85201687D01*
X200989998Y-85141696D01*
X200757541Y-85302524D01*
X200619193Y-85445428D01*
X200083158Y-85135947D01*
X201482418Y-85135947D01*
X201780033Y-86246658D01*
X202890744Y-85949044D01*
X202950735Y-85701969D01*
X202789907Y-85469512D01*
X202586818Y-85272897D01*
X202349274Y-85119680D01*
X202086403Y-85015751D01*
X201808307Y-84965102D01*
X201666396Y-84960455D01*
X201482418Y-85135947D01*
X200083158Y-85135947D01*
X199944505Y-85055896D01*
X201836602Y-83163800D01*
X205838199Y-83163800D01*
X207643001Y-84968603D01*
G36*
X200610970Y-88140051D02*
G01*
X200559371Y-88191650D01*
X200738979Y-88371258D01*
X200970184Y-88140053D01*
X201443035Y-88013353D01*
X201397461Y-88242465D01*
X201397461Y-88288524D01*
X200790578Y-88451139D01*
X200738979Y-88399540D01*
X200559371Y-88579148D01*
X200790576Y-88810353D01*
X200888313Y-89175112D01*
X200772702Y-89252361D01*
X200672816Y-89352247D01*
X200479490Y-88630747D01*
X200531089Y-88579148D01*
X200351481Y-88399540D01*
X200120276Y-88630745D01*
X199647426Y-88757445D01*
X199693000Y-88528333D01*
X199693000Y-88482273D01*
X200299882Y-88319659D01*
X200351481Y-88371258D01*
X200531089Y-88191650D01*
X200299884Y-87960445D01*
X200257068Y-87800654D01*
X200436673Y-87489568D01*
X200610970Y-88140051D01*
G37*
X200610970Y-88140051D02*
X200559371Y-88191650D01*
X200738979Y-88371258D01*
X200970184Y-88140053D01*
X201443035Y-88013353D01*
X201397461Y-88242465D01*
X201397461Y-88288524D01*
X200790578Y-88451139D01*
X200738979Y-88399540D01*
X200559371Y-88579148D01*
X200790576Y-88810353D01*
X200888313Y-89175112D01*
X200772702Y-89252361D01*
X200672816Y-89352247D01*
X200479490Y-88630747D01*
X200531089Y-88579148D01*
X200351481Y-88399540D01*
X200120276Y-88630745D01*
X199647426Y-88757445D01*
X199693000Y-88528333D01*
X199693000Y-88482273D01*
X200299882Y-88319659D01*
X200351481Y-88371258D01*
X200531089Y-88191650D01*
X200299884Y-87960445D01*
X200257068Y-87800654D01*
X200436673Y-87489568D01*
X200610970Y-88140051D01*
G36*
X180466998Y-77643800D02*
G01*
X178190522Y-77643800D01*
X178153199Y-77640124D01*
X178115876Y-77643800D01*
X178115867Y-77643800D01*
X178004214Y-77654797D01*
X177860953Y-77698254D01*
X177728924Y-77768826D01*
X177613199Y-77863799D01*
X177589401Y-77892797D01*
X176833765Y-78648433D01*
X176794680Y-78554073D01*
X176637637Y-78319041D01*
X176437759Y-78119163D01*
X176205241Y-77963800D01*
X176437759Y-77808437D01*
X176637637Y-77608559D01*
X176794680Y-77373527D01*
X176902853Y-77112374D01*
X176958000Y-76835135D01*
X176958000Y-76552465D01*
X176902853Y-76275226D01*
X176794680Y-76014073D01*
X176637637Y-75779041D01*
X176437759Y-75579163D01*
X176202727Y-75422120D01*
X176192135Y-75417733D01*
X176378131Y-75306185D01*
X176586519Y-75117214D01*
X176754037Y-74891220D01*
X176874246Y-74636887D01*
X176914904Y-74502839D01*
X176792915Y-74280800D01*
X175650000Y-74280800D01*
X175650000Y-74300800D01*
X175396000Y-74300800D01*
X175396000Y-74280800D01*
X175376000Y-74280800D01*
X175376000Y-74026800D01*
X175396000Y-74026800D01*
X175396000Y-74006800D01*
X175650000Y-74006800D01*
X175650000Y-74026800D01*
X176792915Y-74026800D01*
X176813156Y-73989958D01*
X180466998Y-77643800D01*
G37*
X180466998Y-77643800D02*
X178190522Y-77643800D01*
X178153199Y-77640124D01*
X178115876Y-77643800D01*
X178115867Y-77643800D01*
X178004214Y-77654797D01*
X177860953Y-77698254D01*
X177728924Y-77768826D01*
X177613199Y-77863799D01*
X177589401Y-77892797D01*
X176833765Y-78648433D01*
X176794680Y-78554073D01*
X176637637Y-78319041D01*
X176437759Y-78119163D01*
X176205241Y-77963800D01*
X176437759Y-77808437D01*
X176637637Y-77608559D01*
X176794680Y-77373527D01*
X176902853Y-77112374D01*
X176958000Y-76835135D01*
X176958000Y-76552465D01*
X176902853Y-76275226D01*
X176794680Y-76014073D01*
X176637637Y-75779041D01*
X176437759Y-75579163D01*
X176202727Y-75422120D01*
X176192135Y-75417733D01*
X176378131Y-75306185D01*
X176586519Y-75117214D01*
X176754037Y-74891220D01*
X176874246Y-74636887D01*
X176914904Y-74502839D01*
X176792915Y-74280800D01*
X175650000Y-74280800D01*
X175650000Y-74300800D01*
X175396000Y-74300800D01*
X175396000Y-74280800D01*
X175376000Y-74280800D01*
X175376000Y-74026800D01*
X175396000Y-74026800D01*
X175396000Y-74006800D01*
X175650000Y-74006800D01*
X175650000Y-74026800D01*
X176792915Y-74026800D01*
X176813156Y-73989958D01*
X180466998Y-77643800D01*
G36*
X186690000Y-67976800D02*
G01*
X186710000Y-67976800D01*
X186710000Y-68230800D01*
X186690000Y-68230800D01*
X186690000Y-68250800D01*
X186436000Y-68250800D01*
X186436000Y-68230800D01*
X186416000Y-68230800D01*
X186416000Y-67976800D01*
X186436000Y-67976800D01*
X186436000Y-67956800D01*
X186690000Y-67956800D01*
X186690000Y-67976800D01*
G37*
X186690000Y-67976800D02*
X186710000Y-67976800D01*
X186710000Y-68230800D01*
X186690000Y-68230800D01*
X186690000Y-68250800D01*
X186436000Y-68250800D01*
X186436000Y-68230800D01*
X186416000Y-68230800D01*
X186416000Y-67976800D01*
X186436000Y-67976800D01*
X186436000Y-67956800D01*
X186690000Y-67956800D01*
X186690000Y-67976800D01*
G36*
X165476080Y-64292159D02*
G01*
X165242731Y-64466212D01*
X165047822Y-64682445D01*
X164898843Y-64932548D01*
X164801519Y-65206909D01*
X164922186Y-65436800D01*
X166116000Y-65436800D01*
X166116000Y-65416800D01*
X166370000Y-65416800D01*
X166370000Y-65436800D01*
X168656000Y-65436800D01*
X168656000Y-65416800D01*
X168910000Y-65416800D01*
X168910000Y-65436800D01*
X171196000Y-65436800D01*
X171196000Y-65416800D01*
X171450000Y-65416800D01*
X171450000Y-65436800D01*
X173736000Y-65436800D01*
X173736000Y-65416800D01*
X173990000Y-65416800D01*
X173990000Y-65436800D01*
X174010000Y-65436800D01*
X174010000Y-65690800D01*
X173990000Y-65690800D01*
X173990000Y-65710800D01*
X173736000Y-65710800D01*
X173736000Y-65690800D01*
X171450000Y-65690800D01*
X171450000Y-65710800D01*
X171196000Y-65710800D01*
X171196000Y-65690800D01*
X168910000Y-65690800D01*
X168910000Y-65710800D01*
X168656000Y-65710800D01*
X168656000Y-65690800D01*
X166370000Y-65690800D01*
X166370000Y-65710800D01*
X166116000Y-65710800D01*
X166116000Y-65690800D01*
X164922186Y-65690800D01*
X164801519Y-65920691D01*
X164898843Y-66195052D01*
X165047822Y-66445155D01*
X165242731Y-66661388D01*
X165472406Y-66832700D01*
X165296368Y-66950325D01*
X165142697Y-67103996D01*
X165041403Y-67002702D01*
X165017601Y-66973699D01*
X164901876Y-66878726D01*
X164769847Y-66808154D01*
X164626586Y-66764697D01*
X164514933Y-66753700D01*
X164514922Y-66753700D01*
X164477600Y-66750024D01*
X164440278Y-66753700D01*
X152465193Y-66753700D01*
X155021170Y-64197723D01*
X165674346Y-64197723D01*
X165476080Y-64292159D01*
G37*
X165476080Y-64292159D02*
X165242731Y-64466212D01*
X165047822Y-64682445D01*
X164898843Y-64932548D01*
X164801519Y-65206909D01*
X164922186Y-65436800D01*
X166116000Y-65436800D01*
X166116000Y-65416800D01*
X166370000Y-65416800D01*
X166370000Y-65436800D01*
X168656000Y-65436800D01*
X168656000Y-65416800D01*
X168910000Y-65416800D01*
X168910000Y-65436800D01*
X171196000Y-65436800D01*
X171196000Y-65416800D01*
X171450000Y-65416800D01*
X171450000Y-65436800D01*
X173736000Y-65436800D01*
X173736000Y-65416800D01*
X173990000Y-65416800D01*
X173990000Y-65436800D01*
X174010000Y-65436800D01*
X174010000Y-65690800D01*
X173990000Y-65690800D01*
X173990000Y-65710800D01*
X173736000Y-65710800D01*
X173736000Y-65690800D01*
X171450000Y-65690800D01*
X171450000Y-65710800D01*
X171196000Y-65710800D01*
X171196000Y-65690800D01*
X168910000Y-65690800D01*
X168910000Y-65710800D01*
X168656000Y-65710800D01*
X168656000Y-65690800D01*
X166370000Y-65690800D01*
X166370000Y-65710800D01*
X166116000Y-65710800D01*
X166116000Y-65690800D01*
X164922186Y-65690800D01*
X164801519Y-65920691D01*
X164898843Y-66195052D01*
X165047822Y-66445155D01*
X165242731Y-66661388D01*
X165472406Y-66832700D01*
X165296368Y-66950325D01*
X165142697Y-67103996D01*
X165041403Y-67002702D01*
X165017601Y-66973699D01*
X164901876Y-66878726D01*
X164769847Y-66808154D01*
X164626586Y-66764697D01*
X164514933Y-66753700D01*
X164514922Y-66753700D01*
X164477600Y-66750024D01*
X164440278Y-66753700D01*
X152465193Y-66753700D01*
X155021170Y-64197723D01*
X165674346Y-64197723D01*
X165476080Y-64292159D01*
G36*
X186690000Y-65436800D02*
G01*
X186710000Y-65436800D01*
X186710000Y-65690800D01*
X186690000Y-65690800D01*
X186690000Y-65710800D01*
X186436000Y-65710800D01*
X186436000Y-65690800D01*
X186416000Y-65690800D01*
X186416000Y-65436800D01*
X186436000Y-65436800D01*
X186436000Y-65416800D01*
X186690000Y-65416800D01*
X186690000Y-65436800D01*
G37*
X186690000Y-65436800D02*
X186710000Y-65436800D01*
X186710000Y-65690800D01*
X186690000Y-65690800D01*
X186690000Y-65710800D01*
X186436000Y-65710800D01*
X186436000Y-65690800D01*
X186416000Y-65690800D01*
X186416000Y-65436800D01*
X186436000Y-65436800D01*
X186436000Y-65416800D01*
X186690000Y-65416800D01*
X186690000Y-65436800D01*
M02*
