G04 #@! TF.GenerationSoftware,KiCad,Pcbnew,5.1.5-52549c5~84~ubuntu18.04.1*
G04 #@! TF.CreationDate,2020-03-05T18:32:34-05:00*
G04 #@! TF.ProjectId,imac_g3_333mhz_slot_loading_J20_adapter_board,696d6163-5f67-4335-9f33-33336d687a5f,rev?*
G04 #@! TF.SameCoordinates,Original*
G04 #@! TF.FileFunction,Legend,Top*
G04 #@! TF.FilePolarity,Positive*
%FSLAX46Y46*%
G04 Gerber Fmt 4.6, Leading zero omitted, Abs format (unit mm)*
G04 Created by KiCad (PCBNEW 5.1.5-52549c5~84~ubuntu18.04.1) date 2020-03-05 18:32:34*
%MOMM*%
%LPD*%
G04 APERTURE LIST*
%ADD10C,0.150000*%
%ADD11C,0.120000*%
G04 APERTURE END LIST*
D10*
X138200190Y-64968380D02*
X137866857Y-64492190D01*
X137628761Y-64968380D02*
X137628761Y-63968380D01*
X138009714Y-63968380D01*
X138104952Y-64016000D01*
X138152571Y-64063619D01*
X138200190Y-64158857D01*
X138200190Y-64301714D01*
X138152571Y-64396952D01*
X138104952Y-64444571D01*
X138009714Y-64492190D01*
X137628761Y-64492190D01*
X138771619Y-64968380D02*
X138676380Y-64920761D01*
X138628761Y-64873142D01*
X138581142Y-64777904D01*
X138581142Y-64492190D01*
X138628761Y-64396952D01*
X138676380Y-64349333D01*
X138771619Y-64301714D01*
X138914476Y-64301714D01*
X139009714Y-64349333D01*
X139057333Y-64396952D01*
X139104952Y-64492190D01*
X139104952Y-64777904D01*
X139057333Y-64873142D01*
X139009714Y-64920761D01*
X138914476Y-64968380D01*
X138771619Y-64968380D01*
X139962095Y-64920761D02*
X139866857Y-64968380D01*
X139676380Y-64968380D01*
X139581142Y-64920761D01*
X139533523Y-64873142D01*
X139485904Y-64777904D01*
X139485904Y-64492190D01*
X139533523Y-64396952D01*
X139581142Y-64349333D01*
X139676380Y-64301714D01*
X139866857Y-64301714D01*
X139962095Y-64349333D01*
X140390666Y-64968380D02*
X140390666Y-63968380D01*
X140485904Y-64587428D02*
X140771619Y-64968380D01*
X140771619Y-64301714D02*
X140390666Y-64682666D01*
X141104952Y-64301714D02*
X141343047Y-64968380D01*
X141581142Y-64301714D02*
X141343047Y-64968380D01*
X141247809Y-65206476D01*
X141200190Y-65254095D01*
X141104952Y-65301714D01*
X142724000Y-64968380D02*
X142724000Y-63968380D01*
X142724000Y-64444571D02*
X143295428Y-64444571D01*
X143295428Y-64968380D02*
X143295428Y-63968380D01*
X143771619Y-64968380D02*
X143771619Y-64301714D01*
X143771619Y-63968380D02*
X143724000Y-64016000D01*
X143771619Y-64063619D01*
X143819238Y-64016000D01*
X143771619Y-63968380D01*
X143771619Y-64063619D01*
X144390666Y-64968380D02*
X144295428Y-64920761D01*
X144247809Y-64825523D01*
X144247809Y-63968380D01*
X144914476Y-64968380D02*
X144819238Y-64920761D01*
X144771619Y-64825523D01*
X144771619Y-63968380D01*
X134564380Y-99226285D02*
X133564380Y-99226285D01*
X133564380Y-98845333D01*
X133612000Y-98750095D01*
X133659619Y-98702476D01*
X133754857Y-98654857D01*
X133897714Y-98654857D01*
X133992952Y-98702476D01*
X134040571Y-98750095D01*
X134088190Y-98845333D01*
X134088190Y-99226285D01*
X133564380Y-98321523D02*
X134564380Y-98083428D01*
X133850095Y-97892952D01*
X134564380Y-97702476D01*
X133564380Y-97464380D01*
X134564380Y-96512000D02*
X134088190Y-96845333D01*
X134564380Y-97083428D02*
X133564380Y-97083428D01*
X133564380Y-96702476D01*
X133612000Y-96607238D01*
X133659619Y-96559619D01*
X133754857Y-96512000D01*
X133897714Y-96512000D01*
X133992952Y-96559619D01*
X134040571Y-96607238D01*
X134088190Y-96702476D01*
X134088190Y-97083428D01*
X133516761Y-95369142D02*
X134802476Y-96226285D01*
X134564380Y-94559619D02*
X134564380Y-95035809D01*
X133564380Y-95035809D01*
X134040571Y-94226285D02*
X134040571Y-93892952D01*
X134564380Y-93750095D02*
X134564380Y-94226285D01*
X133564380Y-94226285D01*
X133564380Y-93750095D01*
X134564380Y-93321523D02*
X133564380Y-93321523D01*
X133564380Y-93083428D01*
X133612000Y-92940571D01*
X133707238Y-92845333D01*
X133802476Y-92797714D01*
X133992952Y-92750095D01*
X134135809Y-92750095D01*
X134326285Y-92797714D01*
X134421523Y-92845333D01*
X134516761Y-92940571D01*
X134564380Y-93083428D01*
X134564380Y-93321523D01*
X135072380Y-71556142D02*
X134072380Y-71556142D01*
X134072380Y-71175190D01*
X134120000Y-71079952D01*
X134167619Y-71032333D01*
X134262857Y-70984714D01*
X134405714Y-70984714D01*
X134500952Y-71032333D01*
X134548571Y-71079952D01*
X134596190Y-71175190D01*
X134596190Y-71556142D01*
X134072380Y-70651380D02*
X135072380Y-70413285D01*
X134358095Y-70222809D01*
X135072380Y-70032333D01*
X134072380Y-69794238D01*
X135072380Y-68841857D02*
X134596190Y-69175190D01*
X135072380Y-69413285D02*
X134072380Y-69413285D01*
X134072380Y-69032333D01*
X134120000Y-68937095D01*
X134167619Y-68889476D01*
X134262857Y-68841857D01*
X134405714Y-68841857D01*
X134500952Y-68889476D01*
X134548571Y-68937095D01*
X134596190Y-69032333D01*
X134596190Y-69413285D01*
X134691428Y-68413285D02*
X134691428Y-67651380D01*
X134548571Y-66841857D02*
X134596190Y-66699000D01*
X134643809Y-66651380D01*
X134739047Y-66603761D01*
X134881904Y-66603761D01*
X134977142Y-66651380D01*
X135024761Y-66699000D01*
X135072380Y-66794238D01*
X135072380Y-67175190D01*
X134072380Y-67175190D01*
X134072380Y-66841857D01*
X134120000Y-66746619D01*
X134167619Y-66699000D01*
X134262857Y-66651380D01*
X134358095Y-66651380D01*
X134453333Y-66699000D01*
X134500952Y-66746619D01*
X134548571Y-66841857D01*
X134548571Y-67175190D01*
X134072380Y-66318047D02*
X134072380Y-65746619D01*
X135072380Y-66032333D02*
X134072380Y-66032333D01*
X135072380Y-65413285D02*
X134072380Y-65413285D01*
X135072380Y-64841857D01*
X134072380Y-64841857D01*
X134516761Y-76469714D02*
X134564380Y-76326857D01*
X134564380Y-76088761D01*
X134516761Y-75993523D01*
X134469142Y-75945904D01*
X134373904Y-75898285D01*
X134278666Y-75898285D01*
X134183428Y-75945904D01*
X134135809Y-75993523D01*
X134088190Y-76088761D01*
X134040571Y-76279238D01*
X133992952Y-76374476D01*
X133945333Y-76422095D01*
X133850095Y-76469714D01*
X133754857Y-76469714D01*
X133659619Y-76422095D01*
X133612000Y-76374476D01*
X133564380Y-76279238D01*
X133564380Y-76041142D01*
X133612000Y-75898285D01*
X134564380Y-75469714D02*
X133564380Y-75469714D01*
X134564380Y-74898285D01*
X133564380Y-74898285D01*
X134516761Y-74469714D02*
X134564380Y-74326857D01*
X134564380Y-74088761D01*
X134516761Y-73993523D01*
X134469142Y-73945904D01*
X134373904Y-73898285D01*
X134278666Y-73898285D01*
X134183428Y-73945904D01*
X134135809Y-73993523D01*
X134088190Y-74088761D01*
X134040571Y-74279238D01*
X133992952Y-74374476D01*
X133945333Y-74422095D01*
X133850095Y-74469714D01*
X133754857Y-74469714D01*
X133659619Y-74422095D01*
X133612000Y-74374476D01*
X133564380Y-74279238D01*
X133564380Y-74041142D01*
X133612000Y-73898285D01*
X134564380Y-91201714D02*
X133564380Y-91201714D01*
X133564380Y-90963619D01*
X133612000Y-90820761D01*
X133707238Y-90725523D01*
X133802476Y-90677904D01*
X133992952Y-90630285D01*
X134135809Y-90630285D01*
X134326285Y-90677904D01*
X134421523Y-90725523D01*
X134516761Y-90820761D01*
X134564380Y-90963619D01*
X134564380Y-91201714D01*
X134469142Y-89630285D02*
X134516761Y-89677904D01*
X134564380Y-89820761D01*
X134564380Y-89916000D01*
X134516761Y-90058857D01*
X134421523Y-90154095D01*
X134326285Y-90201714D01*
X134135809Y-90249333D01*
X133992952Y-90249333D01*
X133802476Y-90201714D01*
X133707238Y-90154095D01*
X133612000Y-90058857D01*
X133564380Y-89916000D01*
X133564380Y-89820761D01*
X133612000Y-89677904D01*
X133659619Y-89630285D01*
X133564380Y-89011238D02*
X133564380Y-88820761D01*
X133612000Y-88725523D01*
X133707238Y-88630285D01*
X133897714Y-88582666D01*
X134231047Y-88582666D01*
X134421523Y-88630285D01*
X134516761Y-88725523D01*
X134564380Y-88820761D01*
X134564380Y-89011238D01*
X134516761Y-89106476D01*
X134421523Y-89201714D01*
X134231047Y-89249333D01*
X133897714Y-89249333D01*
X133707238Y-89201714D01*
X133612000Y-89106476D01*
X133564380Y-89011238D01*
X134564380Y-87010666D02*
X133564380Y-87010666D01*
X133564380Y-86629714D01*
X133612000Y-86534476D01*
X133659619Y-86486857D01*
X133754857Y-86439238D01*
X133897714Y-86439238D01*
X133992952Y-86486857D01*
X134040571Y-86534476D01*
X134088190Y-86629714D01*
X134088190Y-87010666D01*
X134564380Y-85439238D02*
X134088190Y-85772571D01*
X134564380Y-86010666D02*
X133564380Y-86010666D01*
X133564380Y-85629714D01*
X133612000Y-85534476D01*
X133659619Y-85486857D01*
X133754857Y-85439238D01*
X133897714Y-85439238D01*
X133992952Y-85486857D01*
X134040571Y-85534476D01*
X134088190Y-85629714D01*
X134088190Y-86010666D01*
X133564380Y-84820190D02*
X133564380Y-84629714D01*
X133612000Y-84534476D01*
X133707238Y-84439238D01*
X133897714Y-84391619D01*
X134231047Y-84391619D01*
X134421523Y-84439238D01*
X134516761Y-84534476D01*
X134564380Y-84629714D01*
X134564380Y-84820190D01*
X134516761Y-84915428D01*
X134421523Y-85010666D01*
X134231047Y-85058285D01*
X133897714Y-85058285D01*
X133707238Y-85010666D01*
X133612000Y-84915428D01*
X133564380Y-84820190D01*
X133564380Y-84105904D02*
X133564380Y-83534476D01*
X134564380Y-83820190D02*
X133564380Y-83820190D01*
X134183428Y-82025904D02*
X134183428Y-81264000D01*
X134564380Y-80264000D02*
X134564380Y-80835428D01*
X134564380Y-80549714D02*
X133564380Y-80549714D01*
X133707238Y-80644952D01*
X133802476Y-80740190D01*
X133850095Y-80835428D01*
X133564380Y-79644952D02*
X133564380Y-79549714D01*
X133612000Y-79454476D01*
X133659619Y-79406857D01*
X133754857Y-79359238D01*
X133945333Y-79311619D01*
X134183428Y-79311619D01*
X134373904Y-79359238D01*
X134469142Y-79406857D01*
X134516761Y-79454476D01*
X134564380Y-79549714D01*
X134564380Y-79644952D01*
X134516761Y-79740190D01*
X134469142Y-79787809D01*
X134373904Y-79835428D01*
X134183428Y-79883047D01*
X133945333Y-79883047D01*
X133754857Y-79835428D01*
X133659619Y-79787809D01*
X133612000Y-79740190D01*
X133564380Y-79644952D01*
X133564380Y-79025904D02*
X134564380Y-78692571D01*
X133564380Y-78359238D01*
X181618095Y-85812380D02*
X181951428Y-86812380D01*
X182284761Y-85812380D01*
X183141904Y-85860000D02*
X183046666Y-85812380D01*
X182903809Y-85812380D01*
X182760952Y-85860000D01*
X182665714Y-85955238D01*
X182618095Y-86050476D01*
X182570476Y-86240952D01*
X182570476Y-86383809D01*
X182618095Y-86574285D01*
X182665714Y-86669523D01*
X182760952Y-86764761D01*
X182903809Y-86812380D01*
X182999047Y-86812380D01*
X183141904Y-86764761D01*
X183189523Y-86717142D01*
X183189523Y-86383809D01*
X182999047Y-86383809D01*
X183570476Y-86526666D02*
X184046666Y-86526666D01*
X183475238Y-86812380D02*
X183808571Y-85812380D01*
X184141904Y-86812380D01*
X188622038Y-70667714D02*
X188574419Y-70810571D01*
X188574419Y-71048666D01*
X188622038Y-71143904D01*
X188669657Y-71191523D01*
X188764895Y-71239142D01*
X188860133Y-71239142D01*
X188955371Y-71191523D01*
X189002990Y-71143904D01*
X189050609Y-71048666D01*
X189098228Y-70858190D01*
X189145847Y-70762952D01*
X189193466Y-70715333D01*
X189288704Y-70667714D01*
X189383942Y-70667714D01*
X189479180Y-70715333D01*
X189526800Y-70762952D01*
X189574419Y-70858190D01*
X189574419Y-71096285D01*
X189526800Y-71239142D01*
X188574419Y-71667714D02*
X189574419Y-71667714D01*
X189574419Y-71905809D01*
X189526800Y-72048666D01*
X189431561Y-72143904D01*
X189336323Y-72191523D01*
X189145847Y-72239142D01*
X189002990Y-72239142D01*
X188812514Y-72191523D01*
X188717276Y-72143904D01*
X188622038Y-72048666D01*
X188574419Y-71905809D01*
X188574419Y-71667714D01*
X188860133Y-72620095D02*
X188860133Y-73096285D01*
X188574419Y-72524857D02*
X189574419Y-72858190D01*
X188574419Y-73191523D01*
X186859800Y-71120095D02*
X186907419Y-71024857D01*
X186907419Y-70882000D01*
X186859800Y-70739142D01*
X186764561Y-70643904D01*
X186669323Y-70596285D01*
X186478847Y-70548666D01*
X186335990Y-70548666D01*
X186145514Y-70596285D01*
X186050276Y-70643904D01*
X185955038Y-70739142D01*
X185907419Y-70882000D01*
X185907419Y-70977238D01*
X185955038Y-71120095D01*
X186002657Y-71167714D01*
X186335990Y-71167714D01*
X186335990Y-70977238D01*
X185907419Y-71596285D02*
X186907419Y-71596285D01*
X185907419Y-72167714D01*
X186907419Y-72167714D01*
X185907419Y-72643904D02*
X186907419Y-72643904D01*
X186907419Y-72882000D01*
X186859800Y-73024857D01*
X186764561Y-73120095D01*
X186669323Y-73167714D01*
X186478847Y-73215333D01*
X186335990Y-73215333D01*
X186145514Y-73167714D01*
X186050276Y-73120095D01*
X185955038Y-73024857D01*
X185907419Y-72882000D01*
X185907419Y-72643904D01*
X183367419Y-70469285D02*
X184367419Y-70469285D01*
X184367419Y-70707380D01*
X184319800Y-70850238D01*
X184224561Y-70945476D01*
X184129323Y-70993095D01*
X183938847Y-71040714D01*
X183795990Y-71040714D01*
X183605514Y-70993095D01*
X183510276Y-70945476D01*
X183415038Y-70850238D01*
X183367419Y-70707380D01*
X183367419Y-70469285D01*
X183462657Y-72040714D02*
X183415038Y-71993095D01*
X183367419Y-71850238D01*
X183367419Y-71755000D01*
X183415038Y-71612142D01*
X183510276Y-71516904D01*
X183605514Y-71469285D01*
X183795990Y-71421666D01*
X183938847Y-71421666D01*
X184129323Y-71469285D01*
X184224561Y-71516904D01*
X184319800Y-71612142D01*
X184367419Y-71755000D01*
X184367419Y-71850238D01*
X184319800Y-71993095D01*
X184272180Y-72040714D01*
X184367419Y-72659761D02*
X184367419Y-72850238D01*
X184319800Y-72945476D01*
X184224561Y-73040714D01*
X184034085Y-73088333D01*
X183700752Y-73088333D01*
X183510276Y-73040714D01*
X183415038Y-72945476D01*
X183367419Y-72850238D01*
X183367419Y-72659761D01*
X183415038Y-72564523D01*
X183510276Y-72469285D01*
X183700752Y-72421666D01*
X184034085Y-72421666D01*
X184224561Y-72469285D01*
X184319800Y-72564523D01*
X184367419Y-72659761D01*
X180700419Y-70469333D02*
X181700419Y-70469333D01*
X181700419Y-70850285D01*
X181652800Y-70945523D01*
X181605180Y-70993142D01*
X181509942Y-71040761D01*
X181367085Y-71040761D01*
X181271847Y-70993142D01*
X181224228Y-70945523D01*
X181176609Y-70850285D01*
X181176609Y-70469333D01*
X180700419Y-72040761D02*
X181176609Y-71707428D01*
X180700419Y-71469333D02*
X181700419Y-71469333D01*
X181700419Y-71850285D01*
X181652800Y-71945523D01*
X181605180Y-71993142D01*
X181509942Y-72040761D01*
X181367085Y-72040761D01*
X181271847Y-71993142D01*
X181224228Y-71945523D01*
X181176609Y-71850285D01*
X181176609Y-71469333D01*
X181700419Y-72659809D02*
X181700419Y-72850285D01*
X181652800Y-72945523D01*
X181557561Y-73040761D01*
X181367085Y-73088380D01*
X181033752Y-73088380D01*
X180843276Y-73040761D01*
X180748038Y-72945523D01*
X180700419Y-72850285D01*
X180700419Y-72659809D01*
X180748038Y-72564571D01*
X180843276Y-72469333D01*
X181033752Y-72421714D01*
X181367085Y-72421714D01*
X181557561Y-72469333D01*
X181652800Y-72564571D01*
X181700419Y-72659809D01*
X181700419Y-73374095D02*
X181700419Y-73945523D01*
X180700419Y-73659809D02*
X181700419Y-73659809D01*
X178414419Y-70445666D02*
X179414419Y-70445666D01*
X178938228Y-70445666D02*
X178938228Y-71017095D01*
X178414419Y-71017095D02*
X179414419Y-71017095D01*
X178795371Y-71493285D02*
X178795371Y-72255190D01*
X178462038Y-72683761D02*
X178414419Y-72826619D01*
X178414419Y-73064714D01*
X178462038Y-73159952D01*
X178509657Y-73207571D01*
X178604895Y-73255190D01*
X178700133Y-73255190D01*
X178795371Y-73207571D01*
X178842990Y-73159952D01*
X178890609Y-73064714D01*
X178938228Y-72874238D01*
X178985847Y-72779000D01*
X179033466Y-72731380D01*
X179128704Y-72683761D01*
X179223942Y-72683761D01*
X179319180Y-72731380D01*
X179366800Y-72779000D01*
X179414419Y-72874238D01*
X179414419Y-73112333D01*
X179366800Y-73255190D01*
X178890609Y-73874238D02*
X178414419Y-73874238D01*
X179414419Y-73540904D02*
X178890609Y-73874238D01*
X179414419Y-74207571D01*
X178414419Y-74540904D02*
X179414419Y-74540904D01*
X178414419Y-75112333D01*
X179414419Y-75112333D01*
X178509657Y-76159952D02*
X178462038Y-76112333D01*
X178414419Y-75969476D01*
X178414419Y-75874238D01*
X178462038Y-75731380D01*
X178557276Y-75636142D01*
X178652514Y-75588523D01*
X178842990Y-75540904D01*
X178985847Y-75540904D01*
X179176323Y-75588523D01*
X179271561Y-75636142D01*
X179366800Y-75731380D01*
X179414419Y-75874238D01*
X179414419Y-75969476D01*
X179366800Y-76112333D01*
X179319180Y-76159952D01*
X176747419Y-70398047D02*
X175747419Y-70731380D01*
X176747419Y-71064714D01*
X176128371Y-71398047D02*
X176128371Y-72159952D01*
X175795038Y-72588523D02*
X175747419Y-72731380D01*
X175747419Y-72969476D01*
X175795038Y-73064714D01*
X175842657Y-73112333D01*
X175937895Y-73159952D01*
X176033133Y-73159952D01*
X176128371Y-73112333D01*
X176175990Y-73064714D01*
X176223609Y-72969476D01*
X176271228Y-72779000D01*
X176318847Y-72683761D01*
X176366466Y-72636142D01*
X176461704Y-72588523D01*
X176556942Y-72588523D01*
X176652180Y-72636142D01*
X176699800Y-72683761D01*
X176747419Y-72779000D01*
X176747419Y-73017095D01*
X176699800Y-73159952D01*
X176223609Y-73779000D02*
X175747419Y-73779000D01*
X176747419Y-73445666D02*
X176223609Y-73779000D01*
X176747419Y-74112333D01*
X175747419Y-74445666D02*
X176747419Y-74445666D01*
X175747419Y-75017095D01*
X176747419Y-75017095D01*
X175842657Y-76064714D02*
X175795038Y-76017095D01*
X175747419Y-75874238D01*
X175747419Y-75779000D01*
X175795038Y-75636142D01*
X175890276Y-75540904D01*
X175985514Y-75493285D01*
X176175990Y-75445666D01*
X176318847Y-75445666D01*
X176509323Y-75493285D01*
X176604561Y-75540904D01*
X176699800Y-75636142D01*
X176747419Y-75779000D01*
X176747419Y-75874238D01*
X176699800Y-76017095D01*
X176652180Y-76064714D01*
X173731228Y-70953476D02*
X173683609Y-71096333D01*
X173635990Y-71143952D01*
X173540752Y-71191571D01*
X173397895Y-71191571D01*
X173302657Y-71143952D01*
X173255038Y-71096333D01*
X173207419Y-71001095D01*
X173207419Y-70620142D01*
X174207419Y-70620142D01*
X174207419Y-70953476D01*
X174159800Y-71048714D01*
X174112180Y-71096333D01*
X174016942Y-71143952D01*
X173921704Y-71143952D01*
X173826466Y-71096333D01*
X173778847Y-71048714D01*
X173731228Y-70953476D01*
X173731228Y-70620142D01*
X173207419Y-72096333D02*
X173207419Y-71620142D01*
X174207419Y-71620142D01*
X174207419Y-72429666D02*
X173397895Y-72429666D01*
X173302657Y-72477285D01*
X173255038Y-72524904D01*
X173207419Y-72620142D01*
X173207419Y-72810619D01*
X173255038Y-72905857D01*
X173302657Y-72953476D01*
X173397895Y-73001095D01*
X174207419Y-73001095D01*
X173731228Y-73477285D02*
X173731228Y-73810619D01*
X173207419Y-73953476D02*
X173207419Y-73477285D01*
X174207419Y-73477285D01*
X174207419Y-73953476D01*
X171746800Y-71104333D02*
X171794419Y-71009095D01*
X171794419Y-70866238D01*
X171746800Y-70723380D01*
X171651561Y-70628142D01*
X171556323Y-70580523D01*
X171365847Y-70532904D01*
X171222990Y-70532904D01*
X171032514Y-70580523D01*
X170937276Y-70628142D01*
X170842038Y-70723380D01*
X170794419Y-70866238D01*
X170794419Y-70961476D01*
X170842038Y-71104333D01*
X170889657Y-71151952D01*
X171222990Y-71151952D01*
X171222990Y-70961476D01*
X170794419Y-72151952D02*
X171270609Y-71818619D01*
X170794419Y-71580523D02*
X171794419Y-71580523D01*
X171794419Y-71961476D01*
X171746800Y-72056714D01*
X171699180Y-72104333D01*
X171603942Y-72151952D01*
X171461085Y-72151952D01*
X171365847Y-72104333D01*
X171318228Y-72056714D01*
X171270609Y-71961476D01*
X171270609Y-71580523D01*
X171318228Y-72580523D02*
X171318228Y-72913857D01*
X170794419Y-73056714D02*
X170794419Y-72580523D01*
X171794419Y-72580523D01*
X171794419Y-73056714D01*
X171318228Y-73485285D02*
X171318228Y-73818619D01*
X170794419Y-73961476D02*
X170794419Y-73485285D01*
X171794419Y-73485285D01*
X171794419Y-73961476D01*
X170794419Y-74390047D02*
X171794419Y-74390047D01*
X170794419Y-74961476D01*
X171794419Y-74961476D01*
X168254419Y-71239142D02*
X168730609Y-70905809D01*
X168254419Y-70667714D02*
X169254419Y-70667714D01*
X169254419Y-71048666D01*
X169206800Y-71143904D01*
X169159180Y-71191523D01*
X169063942Y-71239142D01*
X168921085Y-71239142D01*
X168825847Y-71191523D01*
X168778228Y-71143904D01*
X168730609Y-71048666D01*
X168730609Y-70667714D01*
X168778228Y-71667714D02*
X168778228Y-72001047D01*
X168254419Y-72143904D02*
X168254419Y-71667714D01*
X169254419Y-71667714D01*
X169254419Y-72143904D01*
X168254419Y-72572476D02*
X169254419Y-72572476D01*
X169254419Y-72810571D01*
X169206800Y-72953428D01*
X169111561Y-73048666D01*
X169016323Y-73096285D01*
X168825847Y-73143904D01*
X168682990Y-73143904D01*
X168492514Y-73096285D01*
X168397276Y-73048666D01*
X168302038Y-72953428D01*
X168254419Y-72810571D01*
X168254419Y-72572476D01*
X165714419Y-71009333D02*
X165714419Y-70533142D01*
X166714419Y-70533142D01*
X165714419Y-71342666D02*
X166714419Y-71342666D01*
X165714419Y-71818857D02*
X166714419Y-71818857D01*
X165714419Y-72390285D01*
X166714419Y-72390285D01*
X166238228Y-72866476D02*
X166238228Y-73199809D01*
X165714419Y-73342666D02*
X165714419Y-72866476D01*
X166714419Y-72866476D01*
X166714419Y-73342666D01*
X165762038Y-74485523D02*
X165714419Y-74628380D01*
X165714419Y-74866476D01*
X165762038Y-74961714D01*
X165809657Y-75009333D01*
X165904895Y-75056952D01*
X166000133Y-75056952D01*
X166095371Y-75009333D01*
X166142990Y-74961714D01*
X166190609Y-74866476D01*
X166238228Y-74676000D01*
X166285847Y-74580761D01*
X166333466Y-74533142D01*
X166428704Y-74485523D01*
X166523942Y-74485523D01*
X166619180Y-74533142D01*
X166666800Y-74580761D01*
X166714419Y-74676000D01*
X166714419Y-74914095D01*
X166666800Y-75056952D01*
X166238228Y-75485523D02*
X166238228Y-75818857D01*
X165714419Y-75961714D02*
X165714419Y-75485523D01*
X166714419Y-75485523D01*
X166714419Y-75961714D01*
X165714419Y-76390285D02*
X166714419Y-76390285D01*
X165714419Y-76961714D01*
X166714419Y-76961714D01*
X165762038Y-77390285D02*
X165714419Y-77533142D01*
X165714419Y-77771238D01*
X165762038Y-77866476D01*
X165809657Y-77914095D01*
X165904895Y-77961714D01*
X166000133Y-77961714D01*
X166095371Y-77914095D01*
X166142990Y-77866476D01*
X166190609Y-77771238D01*
X166238228Y-77580761D01*
X166285847Y-77485523D01*
X166333466Y-77437904D01*
X166428704Y-77390285D01*
X166523942Y-77390285D01*
X166619180Y-77437904D01*
X166666800Y-77485523D01*
X166714419Y-77580761D01*
X166714419Y-77818857D01*
X166666800Y-77961714D01*
X166238228Y-78390285D02*
X166238228Y-78723619D01*
X165714419Y-78866476D02*
X165714419Y-78390285D01*
X166714419Y-78390285D01*
X166714419Y-78866476D01*
X165666800Y-62979204D02*
X165619180Y-63074442D01*
X165619180Y-63217300D01*
X165666800Y-63360157D01*
X165762038Y-63455395D01*
X165857276Y-63503014D01*
X166047752Y-63550633D01*
X166190609Y-63550633D01*
X166381085Y-63503014D01*
X166476323Y-63455395D01*
X166571561Y-63360157D01*
X166619180Y-63217300D01*
X166619180Y-63122061D01*
X166571561Y-62979204D01*
X166523942Y-62931585D01*
X166190609Y-62931585D01*
X166190609Y-63122061D01*
X166619180Y-62503014D02*
X165619180Y-62503014D01*
X166619180Y-61931585D01*
X165619180Y-61931585D01*
X166619180Y-61455395D02*
X165619180Y-61455395D01*
X165619180Y-61217300D01*
X165666800Y-61074442D01*
X165762038Y-60979204D01*
X165857276Y-60931585D01*
X166047752Y-60883966D01*
X166190609Y-60883966D01*
X166381085Y-60931585D01*
X166476323Y-60979204D01*
X166571561Y-61074442D01*
X166619180Y-61217300D01*
X166619180Y-61455395D01*
X168206800Y-62836157D02*
X168159180Y-62931395D01*
X168159180Y-63074252D01*
X168206800Y-63217109D01*
X168302038Y-63312347D01*
X168397276Y-63359966D01*
X168587752Y-63407585D01*
X168730609Y-63407585D01*
X168921085Y-63359966D01*
X169016323Y-63312347D01*
X169111561Y-63217109D01*
X169159180Y-63074252D01*
X169159180Y-62979014D01*
X169111561Y-62836157D01*
X169063942Y-62788538D01*
X168730609Y-62788538D01*
X168730609Y-62979014D01*
X169159180Y-62359966D02*
X168159180Y-62359966D01*
X169159180Y-61788538D01*
X168159180Y-61788538D01*
X169159180Y-61312347D02*
X168159180Y-61312347D01*
X168159180Y-61074252D01*
X168206800Y-60931395D01*
X168302038Y-60836157D01*
X168397276Y-60788538D01*
X168587752Y-60740919D01*
X168730609Y-60740919D01*
X168921085Y-60788538D01*
X169016323Y-60836157D01*
X169111561Y-60931395D01*
X169159180Y-61074252D01*
X169159180Y-61312347D01*
X169159180Y-58979014D02*
X168682990Y-59312347D01*
X169159180Y-59550442D02*
X168159180Y-59550442D01*
X168159180Y-59169490D01*
X168206800Y-59074252D01*
X168254419Y-59026633D01*
X168349657Y-58979014D01*
X168492514Y-58979014D01*
X168587752Y-59026633D01*
X168635371Y-59074252D01*
X168682990Y-59169490D01*
X168682990Y-59550442D01*
X169159180Y-58550442D02*
X168159180Y-58550442D01*
X168159180Y-58312347D01*
X168206800Y-58169490D01*
X168302038Y-58074252D01*
X168397276Y-58026633D01*
X168587752Y-57979014D01*
X168730609Y-57979014D01*
X168921085Y-58026633D01*
X169016323Y-58074252D01*
X169111561Y-58169490D01*
X169159180Y-58312347D01*
X169159180Y-58550442D01*
X170746800Y-62836157D02*
X170699180Y-62931395D01*
X170699180Y-63074252D01*
X170746800Y-63217109D01*
X170842038Y-63312347D01*
X170937276Y-63359966D01*
X171127752Y-63407585D01*
X171270609Y-63407585D01*
X171461085Y-63359966D01*
X171556323Y-63312347D01*
X171651561Y-63217109D01*
X171699180Y-63074252D01*
X171699180Y-62979014D01*
X171651561Y-62836157D01*
X171603942Y-62788538D01*
X171270609Y-62788538D01*
X171270609Y-62979014D01*
X171699180Y-62359966D02*
X170699180Y-62359966D01*
X171699180Y-61788538D01*
X170699180Y-61788538D01*
X171699180Y-61312347D02*
X170699180Y-61312347D01*
X170699180Y-61074252D01*
X170746800Y-60931395D01*
X170842038Y-60836157D01*
X170937276Y-60788538D01*
X171127752Y-60740919D01*
X171270609Y-60740919D01*
X171461085Y-60788538D01*
X171556323Y-60836157D01*
X171651561Y-60931395D01*
X171699180Y-61074252D01*
X171699180Y-61312347D01*
X170746800Y-59026633D02*
X170699180Y-59121871D01*
X170699180Y-59264728D01*
X170746800Y-59407585D01*
X170842038Y-59502823D01*
X170937276Y-59550442D01*
X171127752Y-59598061D01*
X171270609Y-59598061D01*
X171461085Y-59550442D01*
X171556323Y-59502823D01*
X171651561Y-59407585D01*
X171699180Y-59264728D01*
X171699180Y-59169490D01*
X171651561Y-59026633D01*
X171603942Y-58979014D01*
X171270609Y-58979014D01*
X171270609Y-59169490D01*
X171699180Y-57979014D02*
X171222990Y-58312347D01*
X171699180Y-58550442D02*
X170699180Y-58550442D01*
X170699180Y-58169490D01*
X170746800Y-58074252D01*
X170794419Y-58026633D01*
X170889657Y-57979014D01*
X171032514Y-57979014D01*
X171127752Y-58026633D01*
X171175371Y-58074252D01*
X171222990Y-58169490D01*
X171222990Y-58550442D01*
X173286800Y-62867919D02*
X173239180Y-62963157D01*
X173239180Y-63106014D01*
X173286800Y-63248871D01*
X173382038Y-63344109D01*
X173477276Y-63391728D01*
X173667752Y-63439347D01*
X173810609Y-63439347D01*
X174001085Y-63391728D01*
X174096323Y-63344109D01*
X174191561Y-63248871D01*
X174239180Y-63106014D01*
X174239180Y-63010776D01*
X174191561Y-62867919D01*
X174143942Y-62820300D01*
X173810609Y-62820300D01*
X173810609Y-63010776D01*
X174239180Y-62391728D02*
X173239180Y-62391728D01*
X174239180Y-61820300D01*
X173239180Y-61820300D01*
X174239180Y-61344109D02*
X173239180Y-61344109D01*
X173239180Y-61106014D01*
X173286800Y-60963157D01*
X173382038Y-60867919D01*
X173477276Y-60820300D01*
X173667752Y-60772680D01*
X173810609Y-60772680D01*
X174001085Y-60820300D01*
X174096323Y-60867919D01*
X174191561Y-60963157D01*
X174239180Y-61106014D01*
X174239180Y-61344109D01*
X173715371Y-59248871D02*
X173762990Y-59106014D01*
X173810609Y-59058395D01*
X173905847Y-59010776D01*
X174048704Y-59010776D01*
X174143942Y-59058395D01*
X174191561Y-59106014D01*
X174239180Y-59201252D01*
X174239180Y-59582204D01*
X173239180Y-59582204D01*
X173239180Y-59248871D01*
X173286800Y-59153633D01*
X173334419Y-59106014D01*
X173429657Y-59058395D01*
X173524895Y-59058395D01*
X173620133Y-59106014D01*
X173667752Y-59153633D01*
X173715371Y-59248871D01*
X173715371Y-59582204D01*
X174239180Y-58106014D02*
X174239180Y-58582204D01*
X173239180Y-58582204D01*
X176982380Y-68516476D02*
X176982380Y-68992666D01*
X175982380Y-68992666D01*
X176982380Y-68183142D02*
X175982380Y-68183142D01*
X175982380Y-67802190D01*
X176030000Y-67706952D01*
X176077619Y-67659333D01*
X176172857Y-67611714D01*
X176315714Y-67611714D01*
X176410952Y-67659333D01*
X176458571Y-67706952D01*
X176506190Y-67802190D01*
X176506190Y-68183142D01*
X179319180Y-63352204D02*
X178319180Y-63352204D01*
X178319180Y-62971252D01*
X178366800Y-62876014D01*
X178414419Y-62828395D01*
X178509657Y-62780776D01*
X178652514Y-62780776D01*
X178747752Y-62828395D01*
X178795371Y-62876014D01*
X178842990Y-62971252D01*
X178842990Y-63352204D01*
X178795371Y-62018871D02*
X178795371Y-62352204D01*
X179319180Y-62352204D02*
X178319180Y-62352204D01*
X178319180Y-61876014D01*
X178319180Y-61590300D02*
X179319180Y-61352204D01*
X178604895Y-61161728D01*
X179319180Y-60971252D01*
X178319180Y-60733157D01*
X181351228Y-63217204D02*
X181351228Y-62455300D01*
X181732180Y-61455300D02*
X181732180Y-62026728D01*
X181732180Y-61741014D02*
X180732180Y-61741014D01*
X180875038Y-61836252D01*
X180970276Y-61931490D01*
X181017895Y-62026728D01*
X180732180Y-60836252D02*
X180732180Y-60741014D01*
X180779800Y-60645776D01*
X180827419Y-60598157D01*
X180922657Y-60550538D01*
X181113133Y-60502919D01*
X181351228Y-60502919D01*
X181541704Y-60550538D01*
X181636942Y-60598157D01*
X181684561Y-60645776D01*
X181732180Y-60741014D01*
X181732180Y-60836252D01*
X181684561Y-60931490D01*
X181636942Y-60979109D01*
X181541704Y-61026728D01*
X181351228Y-61074347D01*
X181113133Y-61074347D01*
X180922657Y-61026728D01*
X180827419Y-60979109D01*
X180779800Y-60931490D01*
X180732180Y-60836252D01*
X180732180Y-60217204D02*
X181732180Y-59883871D01*
X180732180Y-59550538D01*
X183399180Y-62899680D02*
X183399180Y-63375871D01*
X183875371Y-63423490D01*
X183827752Y-63375871D01*
X183780133Y-63280633D01*
X183780133Y-63042538D01*
X183827752Y-62947300D01*
X183875371Y-62899680D01*
X183970609Y-62852061D01*
X184208704Y-62852061D01*
X184303942Y-62899680D01*
X184351561Y-62947300D01*
X184399180Y-63042538D01*
X184399180Y-63280633D01*
X184351561Y-63375871D01*
X184303942Y-63423490D01*
X183399180Y-62566347D02*
X184399180Y-62233014D01*
X183399180Y-61899680D01*
X183399180Y-60947300D02*
X183399180Y-60375871D01*
X184399180Y-60661585D02*
X183399180Y-60661585D01*
X184399180Y-59471109D02*
X183922990Y-59804442D01*
X184399180Y-60042538D02*
X183399180Y-60042538D01*
X183399180Y-59661585D01*
X183446800Y-59566347D01*
X183494419Y-59518728D01*
X183589657Y-59471109D01*
X183732514Y-59471109D01*
X183827752Y-59518728D01*
X183875371Y-59566347D01*
X183922990Y-59661585D01*
X183922990Y-60042538D01*
X184399180Y-59042538D02*
X183399180Y-59042538D01*
X184399180Y-58471109D02*
X183827752Y-58899680D01*
X183399180Y-58471109D02*
X183970609Y-59042538D01*
X185986800Y-62852204D02*
X185939180Y-62947442D01*
X185939180Y-63090300D01*
X185986800Y-63233157D01*
X186082038Y-63328395D01*
X186177276Y-63376014D01*
X186367752Y-63423633D01*
X186510609Y-63423633D01*
X186701085Y-63376014D01*
X186796323Y-63328395D01*
X186891561Y-63233157D01*
X186939180Y-63090300D01*
X186939180Y-62995061D01*
X186891561Y-62852204D01*
X186843942Y-62804585D01*
X186510609Y-62804585D01*
X186510609Y-62995061D01*
X186939180Y-62376014D02*
X185939180Y-62376014D01*
X186939180Y-61804585D01*
X185939180Y-61804585D01*
X186939180Y-61328395D02*
X185939180Y-61328395D01*
X185939180Y-61090300D01*
X185986800Y-60947442D01*
X186082038Y-60852204D01*
X186177276Y-60804585D01*
X186367752Y-60756966D01*
X186510609Y-60756966D01*
X186701085Y-60804585D01*
X186796323Y-60852204D01*
X186891561Y-60947442D01*
X186939180Y-61090300D01*
X186939180Y-61328395D01*
X189685561Y-63280776D02*
X189733180Y-63137919D01*
X189733180Y-62899823D01*
X189685561Y-62804585D01*
X189637942Y-62756966D01*
X189542704Y-62709347D01*
X189447466Y-62709347D01*
X189352228Y-62756966D01*
X189304609Y-62804585D01*
X189256990Y-62899823D01*
X189209371Y-63090300D01*
X189161752Y-63185538D01*
X189114133Y-63233157D01*
X189018895Y-63280776D01*
X188923657Y-63280776D01*
X188828419Y-63233157D01*
X188780800Y-63185538D01*
X188733180Y-63090300D01*
X188733180Y-62852204D01*
X188780800Y-62709347D01*
X189637942Y-61709347D02*
X189685561Y-61756966D01*
X189733180Y-61899823D01*
X189733180Y-61995061D01*
X189685561Y-62137919D01*
X189590323Y-62233157D01*
X189495085Y-62280776D01*
X189304609Y-62328395D01*
X189161752Y-62328395D01*
X188971276Y-62280776D01*
X188876038Y-62233157D01*
X188780800Y-62137919D01*
X188733180Y-61995061D01*
X188733180Y-61899823D01*
X188780800Y-61756966D01*
X188828419Y-61709347D01*
X189733180Y-60804585D02*
X189733180Y-61280776D01*
X188733180Y-61280776D01*
D11*
X209376000Y-77596000D02*
X209376000Y-86836000D01*
X204136000Y-77596000D02*
X204136000Y-86836000D01*
X209376000Y-77596000D02*
X208012000Y-77596000D01*
X205500000Y-77596000D02*
X204136000Y-77596000D01*
X209376000Y-86836000D02*
X208012000Y-86836000D01*
X205500000Y-86836000D02*
X204136000Y-86836000D01*
X214108000Y-77756000D02*
X215472000Y-77756000D01*
X210232000Y-77756000D02*
X211596000Y-77756000D01*
X214108000Y-86996000D02*
X215472000Y-86996000D01*
X210232000Y-86996000D02*
X211596000Y-86996000D01*
X215472000Y-86996000D02*
X215472000Y-77756000D01*
X210232000Y-86996000D02*
X210232000Y-77756000D01*
X160288000Y-93440000D02*
X158924000Y-93440000D01*
X164164000Y-93440000D02*
X162800000Y-93440000D01*
X160288000Y-84200000D02*
X158924000Y-84200000D01*
X164164000Y-84200000D02*
X162800000Y-84200000D01*
X158924000Y-84200000D02*
X158924000Y-93440000D01*
X164164000Y-84200000D02*
X164164000Y-93440000D01*
X160288000Y-79724000D02*
X158924000Y-79724000D01*
X164164000Y-79724000D02*
X162800000Y-79724000D01*
X160288000Y-70484000D02*
X158924000Y-70484000D01*
X164164000Y-70484000D02*
X162800000Y-70484000D01*
X158924000Y-70484000D02*
X158924000Y-79724000D01*
X164164000Y-70484000D02*
X164164000Y-79724000D01*
X159143000Y-110294000D02*
X159143000Y-96404000D01*
X159143000Y-96404000D02*
X190113000Y-96404000D01*
X190113000Y-96404000D02*
X190113000Y-110294000D01*
X178693000Y-95509662D02*
X179193000Y-95509662D01*
X179193000Y-95509662D02*
X178943000Y-95942675D01*
X178943000Y-95942675D02*
X178693000Y-95509662D01*
X199336000Y-63998800D02*
G75*
G02X197336000Y-63998800I-1000000J0D01*
G01*
X197336000Y-63998800D02*
X195686000Y-63998800D01*
X195686000Y-63998800D02*
X195686000Y-99678800D01*
X195686000Y-99678800D02*
X200986000Y-99678800D01*
X200986000Y-99678800D02*
X200986000Y-63998800D01*
X200986000Y-63998800D02*
X199336000Y-63998800D01*
X155685000Y-64075000D02*
X154035000Y-64075000D01*
X155685000Y-99755000D02*
X155685000Y-64075000D01*
X150385000Y-99755000D02*
X155685000Y-99755000D01*
X150385000Y-64075000D02*
X150385000Y-99755000D01*
X152035000Y-64075000D02*
X150385000Y-64075000D01*
X154035000Y-64075000D02*
G75*
G02X152035000Y-64075000I-1000000J0D01*
G01*
X194895000Y-103139000D02*
X201145000Y-103139000D01*
X194895000Y-108189000D02*
X201145000Y-108189000D01*
X194895000Y-108189000D02*
G75*
G02X194895000Y-103139000I0J2525000D01*
G01*
X201145000Y-108189000D02*
G75*
G03X201145000Y-103139000I0J2525000D01*
G01*
X154917000Y-108189000D02*
G75*
G03X154917000Y-103139000I0J2525000D01*
G01*
X148667000Y-108189000D02*
G75*
G02X148667000Y-103139000I0J2525000D01*
G01*
X148667000Y-108189000D02*
X154917000Y-108189000D01*
X148667000Y-103139000D02*
X154917000Y-103139000D01*
X171542000Y-89970000D02*
X171542000Y-92910000D01*
X171782000Y-89970000D02*
X171782000Y-92910000D01*
X171662000Y-89970000D02*
X171662000Y-92910000D01*
X176202000Y-92910000D02*
X176202000Y-92780000D01*
X170762000Y-92910000D02*
X176202000Y-92910000D01*
X170762000Y-92780000D02*
X170762000Y-92910000D01*
X176202000Y-89970000D02*
X176202000Y-90100000D01*
X170762000Y-89970000D02*
X176202000Y-89970000D01*
X170762000Y-90100000D02*
X170762000Y-89970000D01*
X170762000Y-83496000D02*
X170762000Y-83366000D01*
X170762000Y-83366000D02*
X176202000Y-83366000D01*
X176202000Y-83366000D02*
X176202000Y-83496000D01*
X170762000Y-86176000D02*
X170762000Y-86306000D01*
X170762000Y-86306000D02*
X176202000Y-86306000D01*
X176202000Y-86306000D02*
X176202000Y-86176000D01*
X171662000Y-83366000D02*
X171662000Y-86306000D01*
X171782000Y-83366000D02*
X171782000Y-86306000D01*
X171542000Y-83366000D02*
X171542000Y-86306000D01*
X170212000Y-77700000D02*
X170212000Y-77370000D01*
X170212000Y-77370000D02*
X176752000Y-77370000D01*
X176752000Y-77370000D02*
X176752000Y-77700000D01*
X170212000Y-79780000D02*
X170212000Y-80110000D01*
X170212000Y-80110000D02*
X176752000Y-80110000D01*
X176752000Y-80110000D02*
X176752000Y-79780000D01*
X187182000Y-78426000D02*
G75*
G02X185182000Y-78426000I-1000000J0D01*
G01*
X185182000Y-78426000D02*
X183532000Y-78426000D01*
X183532000Y-78426000D02*
X183532000Y-88706000D01*
X183532000Y-88706000D02*
X188832000Y-88706000D01*
X188832000Y-88706000D02*
X188832000Y-78426000D01*
X188832000Y-78426000D02*
X187182000Y-78426000D01*
X206280000Y-104116000D02*
X206280000Y-103786000D01*
X206280000Y-103786000D02*
X212820000Y-103786000D01*
X212820000Y-103786000D02*
X212820000Y-104116000D01*
X206280000Y-106196000D02*
X206280000Y-106526000D01*
X206280000Y-106526000D02*
X212820000Y-106526000D01*
X212820000Y-106526000D02*
X212820000Y-106196000D01*
X143785000Y-70104000D02*
G75*
G03X143785000Y-70104000I-2180000J0D01*
G01*
X143785000Y-75104000D02*
G75*
G03X143785000Y-75104000I-2180000J0D01*
G01*
X143785000Y-80104000D02*
G75*
G03X143785000Y-80104000I-2180000J0D01*
G01*
X143785000Y-85104000D02*
G75*
G03X143785000Y-85104000I-2180000J0D01*
G01*
X143785000Y-90104000D02*
G75*
G03X143785000Y-90104000I-2180000J0D01*
G01*
X143785000Y-95104000D02*
G75*
G03X143785000Y-95104000I-2180000J0D01*
G01*
X137005000Y-67544000D02*
X137005000Y-97664000D01*
X138105000Y-67544000D02*
X138105000Y-97664000D01*
X145665000Y-67544000D02*
X145665000Y-97664000D01*
X136545000Y-67544000D02*
X136545000Y-97664000D01*
X145665000Y-67544000D02*
X136545000Y-67544000D01*
X145665000Y-97664000D02*
X136545000Y-97664000D01*
X142993000Y-71758000D02*
X142886000Y-71651000D01*
X140058000Y-68822000D02*
X139951000Y-68716000D01*
X143259000Y-71492000D02*
X143152000Y-71385000D01*
X140324000Y-68556000D02*
X140217000Y-68450000D01*
X142993000Y-76758000D02*
X142597000Y-76363000D01*
X140331000Y-74097000D02*
X139951000Y-73717000D01*
X143259000Y-76492000D02*
X142879000Y-76112000D01*
X140613000Y-73846000D02*
X140217000Y-73451000D01*
X142993000Y-81758000D02*
X142597000Y-81363000D01*
X140331000Y-79097000D02*
X139951000Y-78717000D01*
X143259000Y-81492000D02*
X142879000Y-81112000D01*
X140613000Y-78846000D02*
X140217000Y-78451000D01*
X142993000Y-86758000D02*
X142597000Y-86363000D01*
X140331000Y-84097000D02*
X139951000Y-83717000D01*
X143259000Y-86492000D02*
X142879000Y-86112000D01*
X140613000Y-83846000D02*
X140217000Y-83451000D01*
X142993000Y-91758000D02*
X142597000Y-91363000D01*
X140331000Y-89097000D02*
X139951000Y-88717000D01*
X143259000Y-91492000D02*
X142879000Y-91112000D01*
X140613000Y-88846000D02*
X140217000Y-88451000D01*
X142993000Y-96758000D02*
X142597000Y-96363000D01*
X140331000Y-94097000D02*
X139951000Y-93717000D01*
X143259000Y-96492000D02*
X142879000Y-96112000D01*
X140613000Y-93846000D02*
X140217000Y-93451000D01*
X136945000Y-67304000D02*
X136305000Y-67304000D01*
X136305000Y-67304000D02*
X136305000Y-67704000D01*
X214150000Y-94996000D02*
G75*
G03X214150000Y-94996000I-4120000J0D01*
G01*
X210030000Y-90916000D02*
X210030000Y-99076000D01*
X210070000Y-90916000D02*
X210070000Y-99076000D01*
X210110000Y-90916000D02*
X210110000Y-99076000D01*
X210150000Y-90917000D02*
X210150000Y-99075000D01*
X210190000Y-90919000D02*
X210190000Y-99073000D01*
X210230000Y-90920000D02*
X210230000Y-99072000D01*
X210270000Y-90922000D02*
X210270000Y-99070000D01*
X210310000Y-90925000D02*
X210310000Y-99067000D01*
X210350000Y-90928000D02*
X210350000Y-99064000D01*
X210390000Y-90931000D02*
X210390000Y-99061000D01*
X210430000Y-90935000D02*
X210430000Y-99057000D01*
X210470000Y-90939000D02*
X210470000Y-99053000D01*
X210510000Y-90944000D02*
X210510000Y-99048000D01*
X210550000Y-90948000D02*
X210550000Y-99044000D01*
X210590000Y-90954000D02*
X210590000Y-99038000D01*
X210630000Y-90959000D02*
X210630000Y-99033000D01*
X210670000Y-90966000D02*
X210670000Y-99026000D01*
X210710000Y-90972000D02*
X210710000Y-99020000D01*
X210751000Y-90979000D02*
X210751000Y-93956000D01*
X210751000Y-96036000D02*
X210751000Y-99013000D01*
X210791000Y-90986000D02*
X210791000Y-93956000D01*
X210791000Y-96036000D02*
X210791000Y-99006000D01*
X210831000Y-90994000D02*
X210831000Y-93956000D01*
X210831000Y-96036000D02*
X210831000Y-98998000D01*
X210871000Y-91002000D02*
X210871000Y-93956000D01*
X210871000Y-96036000D02*
X210871000Y-98990000D01*
X210911000Y-91011000D02*
X210911000Y-93956000D01*
X210911000Y-96036000D02*
X210911000Y-98981000D01*
X210951000Y-91020000D02*
X210951000Y-93956000D01*
X210951000Y-96036000D02*
X210951000Y-98972000D01*
X210991000Y-91029000D02*
X210991000Y-93956000D01*
X210991000Y-96036000D02*
X210991000Y-98963000D01*
X211031000Y-91039000D02*
X211031000Y-93956000D01*
X211031000Y-96036000D02*
X211031000Y-98953000D01*
X211071000Y-91049000D02*
X211071000Y-93956000D01*
X211071000Y-96036000D02*
X211071000Y-98943000D01*
X211111000Y-91060000D02*
X211111000Y-93956000D01*
X211111000Y-96036000D02*
X211111000Y-98932000D01*
X211151000Y-91071000D02*
X211151000Y-93956000D01*
X211151000Y-96036000D02*
X211151000Y-98921000D01*
X211191000Y-91082000D02*
X211191000Y-93956000D01*
X211191000Y-96036000D02*
X211191000Y-98910000D01*
X211231000Y-91094000D02*
X211231000Y-93956000D01*
X211231000Y-96036000D02*
X211231000Y-98898000D01*
X211271000Y-91107000D02*
X211271000Y-93956000D01*
X211271000Y-96036000D02*
X211271000Y-98885000D01*
X211311000Y-91119000D02*
X211311000Y-93956000D01*
X211311000Y-96036000D02*
X211311000Y-98873000D01*
X211351000Y-91133000D02*
X211351000Y-93956000D01*
X211351000Y-96036000D02*
X211351000Y-98859000D01*
X211391000Y-91146000D02*
X211391000Y-93956000D01*
X211391000Y-96036000D02*
X211391000Y-98846000D01*
X211431000Y-91161000D02*
X211431000Y-93956000D01*
X211431000Y-96036000D02*
X211431000Y-98831000D01*
X211471000Y-91175000D02*
X211471000Y-93956000D01*
X211471000Y-96036000D02*
X211471000Y-98817000D01*
X211511000Y-91191000D02*
X211511000Y-93956000D01*
X211511000Y-96036000D02*
X211511000Y-98801000D01*
X211551000Y-91206000D02*
X211551000Y-93956000D01*
X211551000Y-96036000D02*
X211551000Y-98786000D01*
X211591000Y-91222000D02*
X211591000Y-93956000D01*
X211591000Y-96036000D02*
X211591000Y-98770000D01*
X211631000Y-91239000D02*
X211631000Y-93956000D01*
X211631000Y-96036000D02*
X211631000Y-98753000D01*
X211671000Y-91256000D02*
X211671000Y-93956000D01*
X211671000Y-96036000D02*
X211671000Y-98736000D01*
X211711000Y-91274000D02*
X211711000Y-93956000D01*
X211711000Y-96036000D02*
X211711000Y-98718000D01*
X211751000Y-91292000D02*
X211751000Y-93956000D01*
X211751000Y-96036000D02*
X211751000Y-98700000D01*
X211791000Y-91310000D02*
X211791000Y-93956000D01*
X211791000Y-96036000D02*
X211791000Y-98682000D01*
X211831000Y-91330000D02*
X211831000Y-93956000D01*
X211831000Y-96036000D02*
X211831000Y-98662000D01*
X211871000Y-91349000D02*
X211871000Y-93956000D01*
X211871000Y-96036000D02*
X211871000Y-98643000D01*
X211911000Y-91369000D02*
X211911000Y-93956000D01*
X211911000Y-96036000D02*
X211911000Y-98623000D01*
X211951000Y-91390000D02*
X211951000Y-93956000D01*
X211951000Y-96036000D02*
X211951000Y-98602000D01*
X211991000Y-91412000D02*
X211991000Y-93956000D01*
X211991000Y-96036000D02*
X211991000Y-98580000D01*
X212031000Y-91434000D02*
X212031000Y-93956000D01*
X212031000Y-96036000D02*
X212031000Y-98558000D01*
X212071000Y-91456000D02*
X212071000Y-93956000D01*
X212071000Y-96036000D02*
X212071000Y-98536000D01*
X212111000Y-91479000D02*
X212111000Y-93956000D01*
X212111000Y-96036000D02*
X212111000Y-98513000D01*
X212151000Y-91503000D02*
X212151000Y-93956000D01*
X212151000Y-96036000D02*
X212151000Y-98489000D01*
X212191000Y-91527000D02*
X212191000Y-93956000D01*
X212191000Y-96036000D02*
X212191000Y-98465000D01*
X212231000Y-91552000D02*
X212231000Y-93956000D01*
X212231000Y-96036000D02*
X212231000Y-98440000D01*
X212271000Y-91578000D02*
X212271000Y-93956000D01*
X212271000Y-96036000D02*
X212271000Y-98414000D01*
X212311000Y-91604000D02*
X212311000Y-93956000D01*
X212311000Y-96036000D02*
X212311000Y-98388000D01*
X212351000Y-91631000D02*
X212351000Y-93956000D01*
X212351000Y-96036000D02*
X212351000Y-98361000D01*
X212391000Y-91658000D02*
X212391000Y-93956000D01*
X212391000Y-96036000D02*
X212391000Y-98334000D01*
X212431000Y-91687000D02*
X212431000Y-93956000D01*
X212431000Y-96036000D02*
X212431000Y-98305000D01*
X212471000Y-91716000D02*
X212471000Y-93956000D01*
X212471000Y-96036000D02*
X212471000Y-98276000D01*
X212511000Y-91746000D02*
X212511000Y-93956000D01*
X212511000Y-96036000D02*
X212511000Y-98246000D01*
X212551000Y-91776000D02*
X212551000Y-93956000D01*
X212551000Y-96036000D02*
X212551000Y-98216000D01*
X212591000Y-91807000D02*
X212591000Y-93956000D01*
X212591000Y-96036000D02*
X212591000Y-98185000D01*
X212631000Y-91840000D02*
X212631000Y-93956000D01*
X212631000Y-96036000D02*
X212631000Y-98152000D01*
X212671000Y-91872000D02*
X212671000Y-93956000D01*
X212671000Y-96036000D02*
X212671000Y-98120000D01*
X212711000Y-91906000D02*
X212711000Y-93956000D01*
X212711000Y-96036000D02*
X212711000Y-98086000D01*
X212751000Y-91941000D02*
X212751000Y-93956000D01*
X212751000Y-96036000D02*
X212751000Y-98051000D01*
X212791000Y-91977000D02*
X212791000Y-93956000D01*
X212791000Y-96036000D02*
X212791000Y-98015000D01*
X212831000Y-92013000D02*
X212831000Y-97979000D01*
X212871000Y-92051000D02*
X212871000Y-97941000D01*
X212911000Y-92089000D02*
X212911000Y-97903000D01*
X212951000Y-92129000D02*
X212951000Y-97863000D01*
X212991000Y-92170000D02*
X212991000Y-97822000D01*
X213031000Y-92212000D02*
X213031000Y-97780000D01*
X213071000Y-92255000D02*
X213071000Y-97737000D01*
X213111000Y-92299000D02*
X213111000Y-97693000D01*
X213151000Y-92345000D02*
X213151000Y-97647000D01*
X213191000Y-92392000D02*
X213191000Y-97600000D01*
X213231000Y-92440000D02*
X213231000Y-97552000D01*
X213271000Y-92491000D02*
X213271000Y-97501000D01*
X213311000Y-92542000D02*
X213311000Y-97450000D01*
X213351000Y-92596000D02*
X213351000Y-97396000D01*
X213391000Y-92651000D02*
X213391000Y-97341000D01*
X213431000Y-92709000D02*
X213431000Y-97283000D01*
X213471000Y-92768000D02*
X213471000Y-97224000D01*
X213511000Y-92830000D02*
X213511000Y-97162000D01*
X213551000Y-92894000D02*
X213551000Y-97098000D01*
X213591000Y-92962000D02*
X213591000Y-97030000D01*
X213631000Y-93032000D02*
X213631000Y-96960000D01*
X213671000Y-93106000D02*
X213671000Y-96886000D01*
X213711000Y-93183000D02*
X213711000Y-96809000D01*
X213751000Y-93265000D02*
X213751000Y-96727000D01*
X213791000Y-93351000D02*
X213791000Y-96641000D01*
X213831000Y-93444000D02*
X213831000Y-96548000D01*
X213871000Y-93543000D02*
X213871000Y-96449000D01*
X213911000Y-93650000D02*
X213911000Y-96342000D01*
X213951000Y-93767000D02*
X213951000Y-96225000D01*
X213991000Y-93898000D02*
X213991000Y-96094000D01*
X214031000Y-94048000D02*
X214031000Y-95944000D01*
X214071000Y-94228000D02*
X214071000Y-95764000D01*
X214111000Y-94463000D02*
X214111000Y-95529000D01*
X205620302Y-92681000D02*
X206420302Y-92681000D01*
X206020302Y-92281000D02*
X206020302Y-93081000D01*
X144499698Y-107871000D02*
X144499698Y-107071000D01*
X144899698Y-107471000D02*
X144099698Y-107471000D01*
X136409000Y-105689000D02*
X136409000Y-104623000D01*
X136449000Y-105924000D02*
X136449000Y-104388000D01*
X136489000Y-106104000D02*
X136489000Y-104208000D01*
X136529000Y-106254000D02*
X136529000Y-104058000D01*
X136569000Y-106385000D02*
X136569000Y-103927000D01*
X136609000Y-106502000D02*
X136609000Y-103810000D01*
X136649000Y-106609000D02*
X136649000Y-103703000D01*
X136689000Y-106708000D02*
X136689000Y-103604000D01*
X136729000Y-106801000D02*
X136729000Y-103511000D01*
X136769000Y-106887000D02*
X136769000Y-103425000D01*
X136809000Y-106969000D02*
X136809000Y-103343000D01*
X136849000Y-107046000D02*
X136849000Y-103266000D01*
X136889000Y-107120000D02*
X136889000Y-103192000D01*
X136929000Y-107190000D02*
X136929000Y-103122000D01*
X136969000Y-107258000D02*
X136969000Y-103054000D01*
X137009000Y-107322000D02*
X137009000Y-102990000D01*
X137049000Y-107384000D02*
X137049000Y-102928000D01*
X137089000Y-107443000D02*
X137089000Y-102869000D01*
X137129000Y-107501000D02*
X137129000Y-102811000D01*
X137169000Y-107556000D02*
X137169000Y-102756000D01*
X137209000Y-107610000D02*
X137209000Y-102702000D01*
X137249000Y-107661000D02*
X137249000Y-102651000D01*
X137289000Y-107712000D02*
X137289000Y-102600000D01*
X137329000Y-107760000D02*
X137329000Y-102552000D01*
X137369000Y-107807000D02*
X137369000Y-102505000D01*
X137409000Y-107853000D02*
X137409000Y-102459000D01*
X137449000Y-107897000D02*
X137449000Y-102415000D01*
X137489000Y-107940000D02*
X137489000Y-102372000D01*
X137529000Y-107982000D02*
X137529000Y-102330000D01*
X137569000Y-108023000D02*
X137569000Y-102289000D01*
X137609000Y-108063000D02*
X137609000Y-102249000D01*
X137649000Y-108101000D02*
X137649000Y-102211000D01*
X137689000Y-108139000D02*
X137689000Y-102173000D01*
X137729000Y-104116000D02*
X137729000Y-102137000D01*
X137729000Y-108175000D02*
X137729000Y-106196000D01*
X137769000Y-104116000D02*
X137769000Y-102101000D01*
X137769000Y-108211000D02*
X137769000Y-106196000D01*
X137809000Y-104116000D02*
X137809000Y-102066000D01*
X137809000Y-108246000D02*
X137809000Y-106196000D01*
X137849000Y-104116000D02*
X137849000Y-102032000D01*
X137849000Y-108280000D02*
X137849000Y-106196000D01*
X137889000Y-104116000D02*
X137889000Y-102000000D01*
X137889000Y-108312000D02*
X137889000Y-106196000D01*
X137929000Y-104116000D02*
X137929000Y-101967000D01*
X137929000Y-108345000D02*
X137929000Y-106196000D01*
X137969000Y-104116000D02*
X137969000Y-101936000D01*
X137969000Y-108376000D02*
X137969000Y-106196000D01*
X138009000Y-104116000D02*
X138009000Y-101906000D01*
X138009000Y-108406000D02*
X138009000Y-106196000D01*
X138049000Y-104116000D02*
X138049000Y-101876000D01*
X138049000Y-108436000D02*
X138049000Y-106196000D01*
X138089000Y-104116000D02*
X138089000Y-101847000D01*
X138089000Y-108465000D02*
X138089000Y-106196000D01*
X138129000Y-104116000D02*
X138129000Y-101818000D01*
X138129000Y-108494000D02*
X138129000Y-106196000D01*
X138169000Y-104116000D02*
X138169000Y-101791000D01*
X138169000Y-108521000D02*
X138169000Y-106196000D01*
X138209000Y-104116000D02*
X138209000Y-101764000D01*
X138209000Y-108548000D02*
X138209000Y-106196000D01*
X138249000Y-104116000D02*
X138249000Y-101738000D01*
X138249000Y-108574000D02*
X138249000Y-106196000D01*
X138289000Y-104116000D02*
X138289000Y-101712000D01*
X138289000Y-108600000D02*
X138289000Y-106196000D01*
X138329000Y-104116000D02*
X138329000Y-101687000D01*
X138329000Y-108625000D02*
X138329000Y-106196000D01*
X138369000Y-104116000D02*
X138369000Y-101663000D01*
X138369000Y-108649000D02*
X138369000Y-106196000D01*
X138409000Y-104116000D02*
X138409000Y-101639000D01*
X138409000Y-108673000D02*
X138409000Y-106196000D01*
X138449000Y-104116000D02*
X138449000Y-101616000D01*
X138449000Y-108696000D02*
X138449000Y-106196000D01*
X138489000Y-104116000D02*
X138489000Y-101594000D01*
X138489000Y-108718000D02*
X138489000Y-106196000D01*
X138529000Y-104116000D02*
X138529000Y-101572000D01*
X138529000Y-108740000D02*
X138529000Y-106196000D01*
X138569000Y-104116000D02*
X138569000Y-101550000D01*
X138569000Y-108762000D02*
X138569000Y-106196000D01*
X138609000Y-104116000D02*
X138609000Y-101529000D01*
X138609000Y-108783000D02*
X138609000Y-106196000D01*
X138649000Y-104116000D02*
X138649000Y-101509000D01*
X138649000Y-108803000D02*
X138649000Y-106196000D01*
X138689000Y-104116000D02*
X138689000Y-101490000D01*
X138689000Y-108822000D02*
X138689000Y-106196000D01*
X138729000Y-104116000D02*
X138729000Y-101470000D01*
X138729000Y-108842000D02*
X138729000Y-106196000D01*
X138769000Y-104116000D02*
X138769000Y-101452000D01*
X138769000Y-108860000D02*
X138769000Y-106196000D01*
X138809000Y-104116000D02*
X138809000Y-101434000D01*
X138809000Y-108878000D02*
X138809000Y-106196000D01*
X138849000Y-104116000D02*
X138849000Y-101416000D01*
X138849000Y-108896000D02*
X138849000Y-106196000D01*
X138889000Y-104116000D02*
X138889000Y-101399000D01*
X138889000Y-108913000D02*
X138889000Y-106196000D01*
X138929000Y-104116000D02*
X138929000Y-101382000D01*
X138929000Y-108930000D02*
X138929000Y-106196000D01*
X138969000Y-104116000D02*
X138969000Y-101366000D01*
X138969000Y-108946000D02*
X138969000Y-106196000D01*
X139009000Y-104116000D02*
X139009000Y-101351000D01*
X139009000Y-108961000D02*
X139009000Y-106196000D01*
X139049000Y-104116000D02*
X139049000Y-101335000D01*
X139049000Y-108977000D02*
X139049000Y-106196000D01*
X139089000Y-104116000D02*
X139089000Y-101321000D01*
X139089000Y-108991000D02*
X139089000Y-106196000D01*
X139129000Y-104116000D02*
X139129000Y-101306000D01*
X139129000Y-109006000D02*
X139129000Y-106196000D01*
X139169000Y-104116000D02*
X139169000Y-101293000D01*
X139169000Y-109019000D02*
X139169000Y-106196000D01*
X139209000Y-104116000D02*
X139209000Y-101279000D01*
X139209000Y-109033000D02*
X139209000Y-106196000D01*
X139249000Y-104116000D02*
X139249000Y-101267000D01*
X139249000Y-109045000D02*
X139249000Y-106196000D01*
X139289000Y-104116000D02*
X139289000Y-101254000D01*
X139289000Y-109058000D02*
X139289000Y-106196000D01*
X139329000Y-104116000D02*
X139329000Y-101242000D01*
X139329000Y-109070000D02*
X139329000Y-106196000D01*
X139369000Y-104116000D02*
X139369000Y-101231000D01*
X139369000Y-109081000D02*
X139369000Y-106196000D01*
X139409000Y-104116000D02*
X139409000Y-101220000D01*
X139409000Y-109092000D02*
X139409000Y-106196000D01*
X139449000Y-104116000D02*
X139449000Y-101209000D01*
X139449000Y-109103000D02*
X139449000Y-106196000D01*
X139489000Y-104116000D02*
X139489000Y-101199000D01*
X139489000Y-109113000D02*
X139489000Y-106196000D01*
X139529000Y-104116000D02*
X139529000Y-101189000D01*
X139529000Y-109123000D02*
X139529000Y-106196000D01*
X139569000Y-104116000D02*
X139569000Y-101180000D01*
X139569000Y-109132000D02*
X139569000Y-106196000D01*
X139609000Y-104116000D02*
X139609000Y-101171000D01*
X139609000Y-109141000D02*
X139609000Y-106196000D01*
X139649000Y-104116000D02*
X139649000Y-101162000D01*
X139649000Y-109150000D02*
X139649000Y-106196000D01*
X139689000Y-104116000D02*
X139689000Y-101154000D01*
X139689000Y-109158000D02*
X139689000Y-106196000D01*
X139729000Y-104116000D02*
X139729000Y-101146000D01*
X139729000Y-109166000D02*
X139729000Y-106196000D01*
X139769000Y-104116000D02*
X139769000Y-101139000D01*
X139769000Y-109173000D02*
X139769000Y-106196000D01*
X139810000Y-109180000D02*
X139810000Y-101132000D01*
X139850000Y-109186000D02*
X139850000Y-101126000D01*
X139890000Y-109193000D02*
X139890000Y-101119000D01*
X139930000Y-109198000D02*
X139930000Y-101114000D01*
X139970000Y-109204000D02*
X139970000Y-101108000D01*
X140010000Y-109208000D02*
X140010000Y-101104000D01*
X140050000Y-109213000D02*
X140050000Y-101099000D01*
X140090000Y-109217000D02*
X140090000Y-101095000D01*
X140130000Y-109221000D02*
X140130000Y-101091000D01*
X140170000Y-109224000D02*
X140170000Y-101088000D01*
X140210000Y-109227000D02*
X140210000Y-101085000D01*
X140250000Y-109230000D02*
X140250000Y-101082000D01*
X140290000Y-109232000D02*
X140290000Y-101080000D01*
X140330000Y-109233000D02*
X140330000Y-101079000D01*
X140370000Y-109235000D02*
X140370000Y-101077000D01*
X140410000Y-109236000D02*
X140410000Y-101076000D01*
X140450000Y-109236000D02*
X140450000Y-101076000D01*
X140490000Y-109236000D02*
X140490000Y-101076000D01*
X144610000Y-105156000D02*
G75*
G03X144610000Y-105156000I-4120000J0D01*
G01*
D10*
X210863142Y-82382666D02*
X210910761Y-82430285D01*
X210958380Y-82573142D01*
X210958380Y-82668380D01*
X210910761Y-82811238D01*
X210815523Y-82906476D01*
X210720285Y-82954095D01*
X210529809Y-83001714D01*
X210386952Y-83001714D01*
X210196476Y-82954095D01*
X210101238Y-82906476D01*
X210006000Y-82811238D01*
X209958380Y-82668380D01*
X209958380Y-82573142D01*
X210006000Y-82430285D01*
X210053619Y-82382666D01*
X210958380Y-81430285D02*
X210958380Y-82001714D01*
X210958380Y-81716000D02*
X209958380Y-81716000D01*
X210101238Y-81811238D01*
X210196476Y-81906476D01*
X210244095Y-82001714D01*
X209459142Y-82542666D02*
X209506761Y-82590285D01*
X209554380Y-82733142D01*
X209554380Y-82828380D01*
X209506761Y-82971238D01*
X209411523Y-83066476D01*
X209316285Y-83114095D01*
X209125809Y-83161714D01*
X208982952Y-83161714D01*
X208792476Y-83114095D01*
X208697238Y-83066476D01*
X208602000Y-82971238D01*
X208554380Y-82828380D01*
X208554380Y-82733142D01*
X208602000Y-82590285D01*
X208649619Y-82542666D01*
X208649619Y-82161714D02*
X208602000Y-82114095D01*
X208554380Y-82018857D01*
X208554380Y-81780761D01*
X208602000Y-81685523D01*
X208649619Y-81637904D01*
X208744857Y-81590285D01*
X208840095Y-81590285D01*
X208982952Y-81637904D01*
X209554380Y-82209333D01*
X209554380Y-81590285D01*
X165651142Y-88986666D02*
X165698761Y-89034285D01*
X165746380Y-89177142D01*
X165746380Y-89272380D01*
X165698761Y-89415238D01*
X165603523Y-89510476D01*
X165508285Y-89558095D01*
X165317809Y-89605714D01*
X165174952Y-89605714D01*
X164984476Y-89558095D01*
X164889238Y-89510476D01*
X164794000Y-89415238D01*
X164746380Y-89272380D01*
X164746380Y-89177142D01*
X164794000Y-89034285D01*
X164841619Y-88986666D01*
X164746380Y-88653333D02*
X164746380Y-88034285D01*
X165127333Y-88367619D01*
X165127333Y-88224761D01*
X165174952Y-88129523D01*
X165222571Y-88081904D01*
X165317809Y-88034285D01*
X165555904Y-88034285D01*
X165651142Y-88081904D01*
X165698761Y-88129523D01*
X165746380Y-88224761D01*
X165746380Y-88510476D01*
X165698761Y-88605714D01*
X165651142Y-88653333D01*
X165651142Y-75270666D02*
X165698761Y-75318285D01*
X165746380Y-75461142D01*
X165746380Y-75556380D01*
X165698761Y-75699238D01*
X165603523Y-75794476D01*
X165508285Y-75842095D01*
X165317809Y-75889714D01*
X165174952Y-75889714D01*
X164984476Y-75842095D01*
X164889238Y-75794476D01*
X164794000Y-75699238D01*
X164746380Y-75556380D01*
X164746380Y-75461142D01*
X164794000Y-75318285D01*
X164841619Y-75270666D01*
X165079714Y-74413523D02*
X165746380Y-74413523D01*
X164698761Y-74651619D02*
X165413047Y-74889714D01*
X165413047Y-74270666D01*
X174294666Y-94916380D02*
X174294666Y-95630666D01*
X174247047Y-95773523D01*
X174151809Y-95868761D01*
X174008952Y-95916380D01*
X173913714Y-95916380D01*
X175294666Y-95916380D02*
X174723238Y-95916380D01*
X175008952Y-95916380D02*
X175008952Y-94916380D01*
X174913714Y-95059238D01*
X174818476Y-95154476D01*
X174723238Y-95202095D01*
X197574095Y-62451180D02*
X197574095Y-63260704D01*
X197621714Y-63355942D01*
X197669333Y-63403561D01*
X197764571Y-63451180D01*
X197955047Y-63451180D01*
X198050285Y-63403561D01*
X198097904Y-63355942D01*
X198145523Y-63260704D01*
X198145523Y-62451180D01*
X199145523Y-63451180D02*
X198574095Y-63451180D01*
X198859809Y-63451180D02*
X198859809Y-62451180D01*
X198764571Y-62594038D01*
X198669333Y-62689276D01*
X198574095Y-62736895D01*
X152273095Y-62527380D02*
X152273095Y-63336904D01*
X152320714Y-63432142D01*
X152368333Y-63479761D01*
X152463571Y-63527380D01*
X152654047Y-63527380D01*
X152749285Y-63479761D01*
X152796904Y-63432142D01*
X152844523Y-63336904D01*
X152844523Y-62527380D01*
X153273095Y-62622619D02*
X153320714Y-62575000D01*
X153415952Y-62527380D01*
X153654047Y-62527380D01*
X153749285Y-62575000D01*
X153796904Y-62622619D01*
X153844523Y-62717857D01*
X153844523Y-62813095D01*
X153796904Y-62955952D01*
X153225476Y-63527380D01*
X153844523Y-63527380D01*
X197543809Y-102115190D02*
X197543809Y-102591380D01*
X197210476Y-101591380D02*
X197543809Y-102115190D01*
X197877142Y-101591380D01*
X198734285Y-102591380D02*
X198162857Y-102591380D01*
X198448571Y-102591380D02*
X198448571Y-101591380D01*
X198353333Y-101734238D01*
X198258095Y-101829476D01*
X198162857Y-101877095D01*
X151315809Y-102115190D02*
X151315809Y-102591380D01*
X150982476Y-101591380D02*
X151315809Y-102115190D01*
X151649142Y-101591380D01*
X151934857Y-101686619D02*
X151982476Y-101639000D01*
X152077714Y-101591380D01*
X152315809Y-101591380D01*
X152411047Y-101639000D01*
X152458666Y-101686619D01*
X152506285Y-101781857D01*
X152506285Y-101877095D01*
X152458666Y-102019952D01*
X151887238Y-102591380D01*
X152506285Y-102591380D01*
X165885904Y-91892380D02*
X165885904Y-90892380D01*
X166124000Y-90892380D01*
X166266857Y-90940000D01*
X166362095Y-91035238D01*
X166409714Y-91130476D01*
X166457333Y-91320952D01*
X166457333Y-91463809D01*
X166409714Y-91654285D01*
X166362095Y-91749523D01*
X166266857Y-91844761D01*
X166124000Y-91892380D01*
X165885904Y-91892380D01*
X167409714Y-91892380D02*
X166838285Y-91892380D01*
X167124000Y-91892380D02*
X167124000Y-90892380D01*
X167028761Y-91035238D01*
X166933523Y-91130476D01*
X166838285Y-91178095D01*
X169410095Y-89792380D02*
X169410095Y-88792380D01*
X169981523Y-89792380D02*
X169552952Y-89220952D01*
X169981523Y-88792380D02*
X169410095Y-89363809D01*
X165885904Y-85288380D02*
X165885904Y-84288380D01*
X166124000Y-84288380D01*
X166266857Y-84336000D01*
X166362095Y-84431238D01*
X166409714Y-84526476D01*
X166457333Y-84716952D01*
X166457333Y-84859809D01*
X166409714Y-85050285D01*
X166362095Y-85145523D01*
X166266857Y-85240761D01*
X166124000Y-85288380D01*
X165885904Y-85288380D01*
X166838285Y-84383619D02*
X166885904Y-84336000D01*
X166981142Y-84288380D01*
X167219238Y-84288380D01*
X167314476Y-84336000D01*
X167362095Y-84383619D01*
X167409714Y-84478857D01*
X167409714Y-84574095D01*
X167362095Y-84716952D01*
X166790666Y-85288380D01*
X167409714Y-85288380D01*
X169410095Y-83188380D02*
X169410095Y-82188380D01*
X169981523Y-83188380D02*
X169552952Y-82616952D01*
X169981523Y-82188380D02*
X169410095Y-82759809D01*
X173315333Y-76822380D02*
X172982000Y-76346190D01*
X172743904Y-76822380D02*
X172743904Y-75822380D01*
X173124857Y-75822380D01*
X173220095Y-75870000D01*
X173267714Y-75917619D01*
X173315333Y-76012857D01*
X173315333Y-76155714D01*
X173267714Y-76250952D01*
X173220095Y-76298571D01*
X173124857Y-76346190D01*
X172743904Y-76346190D01*
X174267714Y-76822380D02*
X173696285Y-76822380D01*
X173982000Y-76822380D02*
X173982000Y-75822380D01*
X173886761Y-75965238D01*
X173791523Y-76060476D01*
X173696285Y-76108095D01*
X185166095Y-75652380D02*
X185166095Y-76461904D01*
X185213714Y-76557142D01*
X185261333Y-76604761D01*
X185356571Y-76652380D01*
X185547047Y-76652380D01*
X185642285Y-76604761D01*
X185689904Y-76557142D01*
X185737523Y-76461904D01*
X185737523Y-75652380D01*
X186118476Y-75652380D02*
X186737523Y-75652380D01*
X186404190Y-76033333D01*
X186547047Y-76033333D01*
X186642285Y-76080952D01*
X186689904Y-76128571D01*
X186737523Y-76223809D01*
X186737523Y-76461904D01*
X186689904Y-76557142D01*
X186642285Y-76604761D01*
X186547047Y-76652380D01*
X186261333Y-76652380D01*
X186166095Y-76604761D01*
X186118476Y-76557142D01*
X208788095Y-65802380D02*
X208788095Y-64802380D01*
X208788095Y-65278571D02*
X209359523Y-65278571D01*
X209359523Y-65802380D02*
X209359523Y-64802380D01*
X210359523Y-65802380D02*
X209788095Y-65802380D01*
X210073809Y-65802380D02*
X210073809Y-64802380D01*
X209978571Y-64945238D01*
X209883333Y-65040476D01*
X209788095Y-65088095D01*
X212685333Y-108656380D02*
X212352000Y-108180190D01*
X212113904Y-108656380D02*
X212113904Y-107656380D01*
X212494857Y-107656380D01*
X212590095Y-107704000D01*
X212637714Y-107751619D01*
X212685333Y-107846857D01*
X212685333Y-107989714D01*
X212637714Y-108084952D01*
X212590095Y-108132571D01*
X212494857Y-108180190D01*
X212113904Y-108180190D01*
X213066285Y-107751619D02*
X213113904Y-107704000D01*
X213209142Y-107656380D01*
X213447238Y-107656380D01*
X213542476Y-107704000D01*
X213590095Y-107751619D01*
X213637714Y-107846857D01*
X213637714Y-107942095D01*
X213590095Y-108084952D01*
X213018666Y-108656380D01*
X213637714Y-108656380D01*
X146117380Y-82937333D02*
X146831666Y-82937333D01*
X146974523Y-82984952D01*
X147069761Y-83080190D01*
X147117380Y-83223047D01*
X147117380Y-83318285D01*
X146212619Y-82508761D02*
X146165000Y-82461142D01*
X146117380Y-82365904D01*
X146117380Y-82127809D01*
X146165000Y-82032571D01*
X146212619Y-81984952D01*
X146307857Y-81937333D01*
X146403095Y-81937333D01*
X146545952Y-81984952D01*
X147117380Y-82556380D01*
X147117380Y-81937333D01*
X209863333Y-90103142D02*
X209815714Y-90150761D01*
X209672857Y-90198380D01*
X209577619Y-90198380D01*
X209434761Y-90150761D01*
X209339523Y-90055523D01*
X209291904Y-89960285D01*
X209244285Y-89769809D01*
X209244285Y-89626952D01*
X209291904Y-89436476D01*
X209339523Y-89341238D01*
X209434761Y-89246000D01*
X209577619Y-89198380D01*
X209672857Y-89198380D01*
X209815714Y-89246000D01*
X209863333Y-89293619D01*
X210768095Y-89198380D02*
X210291904Y-89198380D01*
X210244285Y-89674571D01*
X210291904Y-89626952D01*
X210387142Y-89579333D01*
X210625238Y-89579333D01*
X210720476Y-89626952D01*
X210768095Y-89674571D01*
X210815714Y-89769809D01*
X210815714Y-90007904D01*
X210768095Y-90103142D01*
X210720476Y-90150761D01*
X210625238Y-90198380D01*
X210387142Y-90198380D01*
X210291904Y-90150761D01*
X210244285Y-90103142D01*
X134453333Y-104497142D02*
X134405714Y-104544761D01*
X134262857Y-104592380D01*
X134167619Y-104592380D01*
X134024761Y-104544761D01*
X133929523Y-104449523D01*
X133881904Y-104354285D01*
X133834285Y-104163809D01*
X133834285Y-104020952D01*
X133881904Y-103830476D01*
X133929523Y-103735238D01*
X134024761Y-103640000D01*
X134167619Y-103592380D01*
X134262857Y-103592380D01*
X134405714Y-103640000D01*
X134453333Y-103687619D01*
X135310476Y-103592380D02*
X135120000Y-103592380D01*
X135024761Y-103640000D01*
X134977142Y-103687619D01*
X134881904Y-103830476D01*
X134834285Y-104020952D01*
X134834285Y-104401904D01*
X134881904Y-104497142D01*
X134929523Y-104544761D01*
X135024761Y-104592380D01*
X135215238Y-104592380D01*
X135310476Y-104544761D01*
X135358095Y-104497142D01*
X135405714Y-104401904D01*
X135405714Y-104163809D01*
X135358095Y-104068571D01*
X135310476Y-104020952D01*
X135215238Y-103973333D01*
X135024761Y-103973333D01*
X134929523Y-104020952D01*
X134881904Y-104068571D01*
X134834285Y-104163809D01*
M02*
