%TF.GenerationSoftware,KiCad,Pcbnew,(5.1.10-1-10_14)*%
%TF.CreationDate,2022-04-02T19:32:47-06:00*%
%TF.ProjectId,RPiG3iMacJ20,52506947-3369-44d6-9163-4a32302e6b69,rev?*%
%TF.SameCoordinates,Original*%
%TF.FileFunction,Copper,L1,Top*%
%TF.FilePolarity,Positive*%
%FSLAX46Y46*%
G04 Gerber Fmt 4.6, Leading zero omitted, Abs format (unit mm)*
G04 Created by KiCad (PCBNEW (5.1.10-1-10_14)) date 2022-04-02 19:32:47*
%MOMM*%
%LPD*%
G01*
G04 APERTURE LIST*
%TA.AperFunction,ComponentPad*%
%ADD10R,2.200000X2.200000*%
%TD*%
%TA.AperFunction,ComponentPad*%
%ADD11C,2.200000*%
%TD*%
%TA.AperFunction,SMDPad,CuDef*%
%ADD12C,0.100000*%
%TD*%
%TA.AperFunction,SMDPad,CuDef*%
%ADD13R,1.780000X1.020000*%
%TD*%
%TA.AperFunction,ViaPad*%
%ADD14C,0.800000*%
%TD*%
%TA.AperFunction,Conductor*%
%ADD15C,0.250000*%
%TD*%
G04 APERTURE END LIST*
%TO.P,D1,1*%
%TO.N,Net-(D1-Pad1)*%
%TA.AperFunction,SMDPad,CuDef*%
G36*
G01*
X128750000Y-88521250D02*
X128750000Y-88008750D01*
G75*
G02*
X128968750Y-87790000I218750J0D01*
G01*
X129406250Y-87790000D01*
G75*
G02*
X129625000Y-88008750I0J-218750D01*
G01*
X129625000Y-88521250D01*
G75*
G02*
X129406250Y-88740000I-218750J0D01*
G01*
X128968750Y-88740000D01*
G75*
G02*
X128750000Y-88521250I0J218750D01*
G01*
G37*
%TD.AperFunction*%
%TO.P,D1,2*%
%TO.N,+5V*%
%TA.AperFunction,SMDPad,CuDef*%
G36*
G01*
X130325000Y-88521250D02*
X130325000Y-88008750D01*
G75*
G02*
X130543750Y-87790000I218750J0D01*
G01*
X130981250Y-87790000D01*
G75*
G02*
X131200000Y-88008750I0J-218750D01*
G01*
X131200000Y-88521250D01*
G75*
G02*
X130981250Y-88740000I-218750J0D01*
G01*
X130543750Y-88740000D01*
G75*
G02*
X130325000Y-88521250I0J218750D01*
G01*
G37*
%TD.AperFunction*%
%TD*%
D10*
%TO.P,J3,1*%
%TO.N,Net-(J2-Pad3)*%
X126365000Y-95885000D03*
D11*
%TO.P,J3,2*%
%TO.N,Net-(J2-Pad5)*%
X128905000Y-95885000D03*
%TO.P,J3,3*%
%TO.N,GND*%
X131445000Y-95885000D03*
%TO.P,J3,4*%
%TO.N,Net-(D2-Pad2)*%
X133985000Y-95885000D03*
%TO.P,J3,5*%
%TO.N,Net-(D3-Pad2)*%
X136525000Y-95885000D03*
%TD*%
%TO.P,D2,2*%
%TO.N,Net-(D2-Pad2)*%
%TA.AperFunction,SMDPad,CuDef*%
G36*
G01*
X122905000Y-97411250D02*
X122905000Y-96898750D01*
G75*
G02*
X123123750Y-96680000I218750J0D01*
G01*
X123561250Y-96680000D01*
G75*
G02*
X123780000Y-96898750I0J-218750D01*
G01*
X123780000Y-97411250D01*
G75*
G02*
X123561250Y-97630000I-218750J0D01*
G01*
X123123750Y-97630000D01*
G75*
G02*
X122905000Y-97411250I0J218750D01*
G01*
G37*
%TD.AperFunction*%
%TO.P,D2,1*%
%TO.N,Net-(D2-Pad1)*%
%TA.AperFunction,SMDPad,CuDef*%
G36*
G01*
X121330000Y-97411250D02*
X121330000Y-96898750D01*
G75*
G02*
X121548750Y-96680000I218750J0D01*
G01*
X121986250Y-96680000D01*
G75*
G02*
X122205000Y-96898750I0J-218750D01*
G01*
X122205000Y-97411250D01*
G75*
G02*
X121986250Y-97630000I-218750J0D01*
G01*
X121548750Y-97630000D01*
G75*
G02*
X121330000Y-97411250I0J218750D01*
G01*
G37*
%TD.AperFunction*%
%TD*%
%TO.P,D3,1*%
%TO.N,Net-(D3-Pad1)*%
%TA.AperFunction,SMDPad,CuDef*%
G36*
G01*
X121330000Y-99316250D02*
X121330000Y-98803750D01*
G75*
G02*
X121548750Y-98585000I218750J0D01*
G01*
X121986250Y-98585000D01*
G75*
G02*
X122205000Y-98803750I0J-218750D01*
G01*
X122205000Y-99316250D01*
G75*
G02*
X121986250Y-99535000I-218750J0D01*
G01*
X121548750Y-99535000D01*
G75*
G02*
X121330000Y-99316250I0J218750D01*
G01*
G37*
%TD.AperFunction*%
%TO.P,D3,2*%
%TO.N,Net-(D3-Pad2)*%
%TA.AperFunction,SMDPad,CuDef*%
G36*
G01*
X122905000Y-99316250D02*
X122905000Y-98803750D01*
G75*
G02*
X123123750Y-98585000I218750J0D01*
G01*
X123561250Y-98585000D01*
G75*
G02*
X123780000Y-98803750I0J-218750D01*
G01*
X123780000Y-99316250D01*
G75*
G02*
X123561250Y-99535000I-218750J0D01*
G01*
X123123750Y-99535000D01*
G75*
G02*
X122905000Y-99316250I0J218750D01*
G01*
G37*
%TD.AperFunction*%
%TD*%
%TO.P,R1,1*%
%TO.N,Net-(JP1-Pad2)*%
%TA.AperFunction,SMDPad,CuDef*%
G36*
G01*
X128750000Y-91080000D02*
X128750000Y-90530000D01*
G75*
G02*
X128950000Y-90330000I200000J0D01*
G01*
X129350000Y-90330000D01*
G75*
G02*
X129550000Y-90530000I0J-200000D01*
G01*
X129550000Y-91080000D01*
G75*
G02*
X129350000Y-91280000I-200000J0D01*
G01*
X128950000Y-91280000D01*
G75*
G02*
X128750000Y-91080000I0J200000D01*
G01*
G37*
%TD.AperFunction*%
%TO.P,R1,2*%
%TO.N,GND*%
%TA.AperFunction,SMDPad,CuDef*%
G36*
G01*
X130400000Y-91080000D02*
X130400000Y-90530000D01*
G75*
G02*
X130600000Y-90330000I200000J0D01*
G01*
X131000000Y-90330000D01*
G75*
G02*
X131200000Y-90530000I0J-200000D01*
G01*
X131200000Y-91080000D01*
G75*
G02*
X131000000Y-91280000I-200000J0D01*
G01*
X130600000Y-91280000D01*
G75*
G02*
X130400000Y-91080000I0J200000D01*
G01*
G37*
%TD.AperFunction*%
%TD*%
%TO.P,R2,2*%
%TO.N,GND*%
%TA.AperFunction,SMDPad,CuDef*%
G36*
G01*
X122980000Y-92985000D02*
X122980000Y-92435000D01*
G75*
G02*
X123180000Y-92235000I200000J0D01*
G01*
X123580000Y-92235000D01*
G75*
G02*
X123780000Y-92435000I0J-200000D01*
G01*
X123780000Y-92985000D01*
G75*
G02*
X123580000Y-93185000I-200000J0D01*
G01*
X123180000Y-93185000D01*
G75*
G02*
X122980000Y-92985000I0J200000D01*
G01*
G37*
%TD.AperFunction*%
%TO.P,R2,1*%
%TO.N,Net-(D2-Pad1)*%
%TA.AperFunction,SMDPad,CuDef*%
G36*
G01*
X121330000Y-92985000D02*
X121330000Y-92435000D01*
G75*
G02*
X121530000Y-92235000I200000J0D01*
G01*
X121930000Y-92235000D01*
G75*
G02*
X122130000Y-92435000I0J-200000D01*
G01*
X122130000Y-92985000D01*
G75*
G02*
X121930000Y-93185000I-200000J0D01*
G01*
X121530000Y-93185000D01*
G75*
G02*
X121330000Y-92985000I0J200000D01*
G01*
G37*
%TD.AperFunction*%
%TD*%
%TO.P,R3,1*%
%TO.N,Net-(D3-Pad1)*%
%TA.AperFunction,SMDPad,CuDef*%
G36*
G01*
X121330000Y-94890000D02*
X121330000Y-94340000D01*
G75*
G02*
X121530000Y-94140000I200000J0D01*
G01*
X121930000Y-94140000D01*
G75*
G02*
X122130000Y-94340000I0J-200000D01*
G01*
X122130000Y-94890000D01*
G75*
G02*
X121930000Y-95090000I-200000J0D01*
G01*
X121530000Y-95090000D01*
G75*
G02*
X121330000Y-94890000I0J200000D01*
G01*
G37*
%TD.AperFunction*%
%TO.P,R3,2*%
%TO.N,GND*%
%TA.AperFunction,SMDPad,CuDef*%
G36*
G01*
X122980000Y-94890000D02*
X122980000Y-94340000D01*
G75*
G02*
X123180000Y-94140000I200000J0D01*
G01*
X123580000Y-94140000D01*
G75*
G02*
X123780000Y-94340000I0J-200000D01*
G01*
X123780000Y-94890000D01*
G75*
G02*
X123580000Y-95090000I-200000J0D01*
G01*
X123180000Y-95090000D01*
G75*
G02*
X122980000Y-94890000I0J200000D01*
G01*
G37*
%TD.AperFunction*%
%TD*%
%TA.AperFunction,SMDPad,CuDef*%
D12*
%TO.P,JP1,1*%
%TO.N,Net-(D1-Pad1)*%
G36*
X130725000Y-85240000D02*
G01*
X130725000Y-85740000D01*
X130724398Y-85740000D01*
X130724398Y-85764534D01*
X130719588Y-85813365D01*
X130710016Y-85861490D01*
X130695772Y-85908445D01*
X130676995Y-85953778D01*
X130653864Y-85997051D01*
X130626604Y-86037850D01*
X130595476Y-86075779D01*
X130560779Y-86110476D01*
X130522850Y-86141604D01*
X130482051Y-86168864D01*
X130438778Y-86191995D01*
X130393445Y-86210772D01*
X130346490Y-86225016D01*
X130298365Y-86234588D01*
X130249534Y-86239398D01*
X130225000Y-86239398D01*
X130225000Y-86240000D01*
X129725000Y-86240000D01*
X129725000Y-86239398D01*
X129700466Y-86239398D01*
X129651635Y-86234588D01*
X129603510Y-86225016D01*
X129556555Y-86210772D01*
X129511222Y-86191995D01*
X129467949Y-86168864D01*
X129427150Y-86141604D01*
X129389221Y-86110476D01*
X129354524Y-86075779D01*
X129323396Y-86037850D01*
X129296136Y-85997051D01*
X129273005Y-85953778D01*
X129254228Y-85908445D01*
X129239984Y-85861490D01*
X129230412Y-85813365D01*
X129225602Y-85764534D01*
X129225602Y-85740000D01*
X129225000Y-85740000D01*
X129225000Y-85240000D01*
X130725000Y-85240000D01*
G37*
%TD.AperFunction*%
%TA.AperFunction,SMDPad,CuDef*%
%TO.P,JP1,2*%
%TO.N,Net-(JP1-Pad2)*%
G36*
X129225602Y-84440000D02*
G01*
X129225602Y-84415466D01*
X129230412Y-84366635D01*
X129239984Y-84318510D01*
X129254228Y-84271555D01*
X129273005Y-84226222D01*
X129296136Y-84182949D01*
X129323396Y-84142150D01*
X129354524Y-84104221D01*
X129389221Y-84069524D01*
X129427150Y-84038396D01*
X129467949Y-84011136D01*
X129511222Y-83988005D01*
X129556555Y-83969228D01*
X129603510Y-83954984D01*
X129651635Y-83945412D01*
X129700466Y-83940602D01*
X129725000Y-83940602D01*
X129725000Y-83940000D01*
X130225000Y-83940000D01*
X130225000Y-83940602D01*
X130249534Y-83940602D01*
X130298365Y-83945412D01*
X130346490Y-83954984D01*
X130393445Y-83969228D01*
X130438778Y-83988005D01*
X130482051Y-84011136D01*
X130522850Y-84038396D01*
X130560779Y-84069524D01*
X130595476Y-84104221D01*
X130626604Y-84142150D01*
X130653864Y-84182949D01*
X130676995Y-84226222D01*
X130695772Y-84271555D01*
X130710016Y-84318510D01*
X130719588Y-84366635D01*
X130724398Y-84415466D01*
X130724398Y-84440000D01*
X130725000Y-84440000D01*
X130725000Y-84940000D01*
X129225000Y-84940000D01*
X129225000Y-84440000D01*
X129225602Y-84440000D01*
G37*
%TD.AperFunction*%
%TD*%
D13*
%TO.P,J1,1*%
%TO.N,GND*%
X121070000Y-85090000D03*
%TO.P,J1,3*%
%TO.N,Net-(J1-Pad3)*%
X121070000Y-87630000D03*
%TO.P,J1,5*%
%TO.N,+5V*%
X121070000Y-90170000D03*
%TO.P,J1,2*%
%TO.N,Net-(J1-Pad2)*%
X126890000Y-85090000D03*
%TO.P,J1,4*%
%TO.N,Net-(J1-Pad4)*%
X126890000Y-87630000D03*
%TO.P,J1,6*%
%TO.N,Net-(J1-Pad6)*%
X126890000Y-90170000D03*
%TD*%
%TO.P,J2,6*%
%TO.N,Net-(D3-Pad2)*%
X138677000Y-90170000D03*
%TO.P,J2,4*%
%TO.N,Net-(D2-Pad2)*%
X138677000Y-87630000D03*
%TO.P,J2,2*%
%TO.N,Net-(J2-Pad2)*%
X138677000Y-85090000D03*
%TO.P,J2,5*%
%TO.N,Net-(J2-Pad5)*%
X132857000Y-90170000D03*
%TO.P,J2,3*%
%TO.N,Net-(J2-Pad3)*%
X132857000Y-87630000D03*
%TO.P,J2,1*%
%TO.N,Net-(J2-Pad1)*%
X132857000Y-85090000D03*
%TD*%
D14*
%TO.N,GND*%
X120650000Y-85090000D03*
X130800000Y-90805000D03*
X123380000Y-94615000D03*
X123380000Y-92710000D03*
%TO.N,Net-(D2-Pad2)*%
X138677000Y-87630000D03*
%TO.N,Net-(JP1-Pad2)*%
X129150000Y-90805000D03*
X129975000Y-84440000D03*
%TD*%
D15*
%TO.N,Net-(D1-Pad1)*%
X129225000Y-88227500D02*
X129187500Y-88265000D01*
X129187500Y-86527500D02*
X129975000Y-85740000D01*
X129187500Y-88265000D02*
X129187500Y-86527500D01*
%TO.N,+5V*%
X121070000Y-90590000D02*
X121070000Y-90170000D01*
X124460000Y-91440000D02*
X121920000Y-91440000D01*
X121920000Y-91440000D02*
X121070000Y-90590000D01*
X127635000Y-92075000D02*
X125095000Y-92075000D01*
X128270000Y-91440000D02*
X127635000Y-92075000D01*
X128270000Y-90170000D02*
X128270000Y-91440000D01*
X125095000Y-92075000D02*
X124460000Y-91440000D01*
X128905000Y-89535000D02*
X128270000Y-90170000D01*
X130175000Y-89535000D02*
X128905000Y-89535000D01*
X130762500Y-88947500D02*
X130175000Y-89535000D01*
X130762500Y-88265000D02*
X130762500Y-88947500D01*
%TO.N,Net-(J1-Pad4)*%
X126890000Y-87630000D02*
X127000000Y-87630000D01*
%TO.N,Net-(D2-Pad2)*%
X123342500Y-97155000D02*
X123342500Y-97307500D01*
X123342500Y-97307500D02*
X123825000Y-97790000D01*
X123825000Y-97790000D02*
X133350000Y-97790000D01*
X133985000Y-97155000D02*
X133985000Y-95885000D01*
X133350000Y-97790000D02*
X133985000Y-97155000D01*
%TO.N,Net-(D2-Pad1)*%
X121730000Y-92710000D02*
X121285000Y-92710000D01*
X121285000Y-92710000D02*
X120650000Y-93345000D01*
X120650000Y-93345000D02*
X120650000Y-96520000D01*
X121285000Y-97155000D02*
X121767500Y-97155000D01*
X120650000Y-96520000D02*
X121285000Y-97155000D01*
%TO.N,Net-(D3-Pad1)*%
X122530010Y-95415010D02*
X121730000Y-94615000D01*
X122530010Y-98297490D02*
X122530010Y-95415010D01*
X121767500Y-99060000D02*
X122530010Y-98297490D01*
%TO.N,Net-(D3-Pad2)*%
X136790000Y-95620000D02*
X136525000Y-95885000D01*
X138677000Y-90170000D02*
X139065000Y-90170000D01*
X139065000Y-93345000D02*
X138430000Y-93980000D01*
X138430000Y-93980000D02*
X137160000Y-93980000D01*
X137160000Y-93980000D02*
X136525000Y-94615000D01*
X136525000Y-94615000D02*
X136525000Y-95885000D01*
X135890000Y-99060000D02*
X123342500Y-99060000D01*
X136525000Y-98425000D02*
X135890000Y-99060000D01*
X136525000Y-95885000D02*
X136525000Y-98425000D01*
%TO.N,GND*%
X121070000Y-85090000D02*
X120650000Y-85090000D01*
%TO.N,Net-(D2-Pad2)*%
X138677000Y-87630000D02*
X138340000Y-87630000D01*
%TO.N,Net-(D3-Pad2)*%
X139065000Y-90558000D02*
X138677000Y-90170000D01*
X139065000Y-93345000D02*
X139065000Y-90558000D01*
%TO.N,Net-(J2-Pad5)*%
X132080000Y-91440000D02*
X132857000Y-90663000D01*
X132080000Y-92076410D02*
X132080000Y-91440000D01*
X128905000Y-95885000D02*
X128905000Y-93980000D01*
X130996400Y-93160010D02*
X132080000Y-92076410D01*
X132857000Y-90663000D02*
X132857000Y-90170000D01*
X129724990Y-93160010D02*
X130996400Y-93160010D01*
X128905000Y-93980000D02*
X129724990Y-93160010D01*
%TO.N,Net-(J2-Pad3)*%
X126365000Y-93345000D02*
X126365000Y-95885000D01*
X130810000Y-92710000D02*
X127000000Y-92710000D01*
X131525010Y-91994990D02*
X130810000Y-92710000D01*
X132080000Y-87630000D02*
X131525010Y-88184990D01*
X127000000Y-92710000D02*
X126365000Y-93345000D01*
X131525010Y-88184990D02*
X131525010Y-91994990D01*
X132857000Y-87630000D02*
X132080000Y-87630000D01*
%TD*%
M02*
