M48
; DRILL file {KiCad (5.1.10-1-10_14)} date Saturday, April 02, 2022 at 07:32:53 PM
; FORMAT={-:-/ absolute / inch / decimal}
; #@! TF.CreationDate,2022-04-02T19:32:53-06:00
; #@! TF.GenerationSoftware,Kicad,Pcbnew,(5.1.10-1-10_14)
FMAT,2
INCH
T1C0.0157
T2C0.0433
T3C0.0402
T4C0.0709
%
G90
G05
T1
X4.75Y-3.35
X4.8575Y-3.65
X4.8575Y-3.725
X5.0846Y-3.575
X5.1171Y-3.3244
X5.1496Y-3.575
X5.4597Y-3.45
T2
X4.975Y-3.775
X5.075Y-3.775
X5.175Y-3.775
X5.275Y-3.775
X5.375Y-3.775
T3
X4.8311Y-3.35
X4.8311Y-3.45
X4.8311Y-3.55
X4.9311Y-3.35
X4.9311Y-3.45
X4.9311Y-3.55
X5.2952Y-3.35
X5.2952Y-3.45
X5.2952Y-3.55
X5.3952Y-3.35
X5.3952Y-3.45
X5.3952Y-3.55
T4
X4.8811Y-3.4
X4.8811Y-3.5
X5.3452Y-3.4
X5.3452Y-3.5
T0
M30
