%TF.GenerationSoftware,KiCad,Pcbnew,(5.1.10-1-10_14)*%
%TF.CreationDate,2022-04-02T19:32:47-06:00*%
%TF.ProjectId,RPiG3iMacJ20,52506947-3369-44d6-9163-4a32302e6b69,rev?*%
%TF.SameCoordinates,Original*%
%TF.FileFunction,Soldermask,Top*%
%TF.FilePolarity,Negative*%
%FSLAX46Y46*%
G04 Gerber Fmt 4.6, Leading zero omitted, Abs format (unit mm)*
G04 Created by KiCad (PCBNEW (5.1.10-1-10_14)) date 2022-04-02 19:32:47*
%MOMM*%
%LPD*%
G01*
G04 APERTURE LIST*
%ADD10R,2.200000X2.200000*%
%ADD11C,2.200000*%
%ADD12C,0.100000*%
%ADD13C,1.800000*%
%ADD14C,1.020000*%
%ADD15R,1.780000X1.020000*%
G04 APERTURE END LIST*
%TO.C,D1*%
G36*
G01*
X128750000Y-88521250D02*
X128750000Y-88008750D01*
G75*
G02*
X128968750Y-87790000I218750J0D01*
G01*
X129406250Y-87790000D01*
G75*
G02*
X129625000Y-88008750I0J-218750D01*
G01*
X129625000Y-88521250D01*
G75*
G02*
X129406250Y-88740000I-218750J0D01*
G01*
X128968750Y-88740000D01*
G75*
G02*
X128750000Y-88521250I0J218750D01*
G01*
G37*
G36*
G01*
X130325000Y-88521250D02*
X130325000Y-88008750D01*
G75*
G02*
X130543750Y-87790000I218750J0D01*
G01*
X130981250Y-87790000D01*
G75*
G02*
X131200000Y-88008750I0J-218750D01*
G01*
X131200000Y-88521250D01*
G75*
G02*
X130981250Y-88740000I-218750J0D01*
G01*
X130543750Y-88740000D01*
G75*
G02*
X130325000Y-88521250I0J218750D01*
G01*
G37*
%TD*%
D10*
%TO.C,J3*%
X126365000Y-95885000D03*
D11*
X128905000Y-95885000D03*
X131445000Y-95885000D03*
X133985000Y-95885000D03*
X136525000Y-95885000D03*
%TD*%
%TO.C,D2*%
G36*
G01*
X122905000Y-97411250D02*
X122905000Y-96898750D01*
G75*
G02*
X123123750Y-96680000I218750J0D01*
G01*
X123561250Y-96680000D01*
G75*
G02*
X123780000Y-96898750I0J-218750D01*
G01*
X123780000Y-97411250D01*
G75*
G02*
X123561250Y-97630000I-218750J0D01*
G01*
X123123750Y-97630000D01*
G75*
G02*
X122905000Y-97411250I0J218750D01*
G01*
G37*
G36*
G01*
X121330000Y-97411250D02*
X121330000Y-96898750D01*
G75*
G02*
X121548750Y-96680000I218750J0D01*
G01*
X121986250Y-96680000D01*
G75*
G02*
X122205000Y-96898750I0J-218750D01*
G01*
X122205000Y-97411250D01*
G75*
G02*
X121986250Y-97630000I-218750J0D01*
G01*
X121548750Y-97630000D01*
G75*
G02*
X121330000Y-97411250I0J218750D01*
G01*
G37*
%TD*%
%TO.C,D3*%
G36*
G01*
X121330000Y-99316250D02*
X121330000Y-98803750D01*
G75*
G02*
X121548750Y-98585000I218750J0D01*
G01*
X121986250Y-98585000D01*
G75*
G02*
X122205000Y-98803750I0J-218750D01*
G01*
X122205000Y-99316250D01*
G75*
G02*
X121986250Y-99535000I-218750J0D01*
G01*
X121548750Y-99535000D01*
G75*
G02*
X121330000Y-99316250I0J218750D01*
G01*
G37*
G36*
G01*
X122905000Y-99316250D02*
X122905000Y-98803750D01*
G75*
G02*
X123123750Y-98585000I218750J0D01*
G01*
X123561250Y-98585000D01*
G75*
G02*
X123780000Y-98803750I0J-218750D01*
G01*
X123780000Y-99316250D01*
G75*
G02*
X123561250Y-99535000I-218750J0D01*
G01*
X123123750Y-99535000D01*
G75*
G02*
X122905000Y-99316250I0J218750D01*
G01*
G37*
%TD*%
%TO.C,R1*%
G36*
G01*
X128750000Y-91080000D02*
X128750000Y-90530000D01*
G75*
G02*
X128950000Y-90330000I200000J0D01*
G01*
X129350000Y-90330000D01*
G75*
G02*
X129550000Y-90530000I0J-200000D01*
G01*
X129550000Y-91080000D01*
G75*
G02*
X129350000Y-91280000I-200000J0D01*
G01*
X128950000Y-91280000D01*
G75*
G02*
X128750000Y-91080000I0J200000D01*
G01*
G37*
G36*
G01*
X130400000Y-91080000D02*
X130400000Y-90530000D01*
G75*
G02*
X130600000Y-90330000I200000J0D01*
G01*
X131000000Y-90330000D01*
G75*
G02*
X131200000Y-90530000I0J-200000D01*
G01*
X131200000Y-91080000D01*
G75*
G02*
X131000000Y-91280000I-200000J0D01*
G01*
X130600000Y-91280000D01*
G75*
G02*
X130400000Y-91080000I0J200000D01*
G01*
G37*
%TD*%
%TO.C,R2*%
G36*
G01*
X122980000Y-92985000D02*
X122980000Y-92435000D01*
G75*
G02*
X123180000Y-92235000I200000J0D01*
G01*
X123580000Y-92235000D01*
G75*
G02*
X123780000Y-92435000I0J-200000D01*
G01*
X123780000Y-92985000D01*
G75*
G02*
X123580000Y-93185000I-200000J0D01*
G01*
X123180000Y-93185000D01*
G75*
G02*
X122980000Y-92985000I0J200000D01*
G01*
G37*
G36*
G01*
X121330000Y-92985000D02*
X121330000Y-92435000D01*
G75*
G02*
X121530000Y-92235000I200000J0D01*
G01*
X121930000Y-92235000D01*
G75*
G02*
X122130000Y-92435000I0J-200000D01*
G01*
X122130000Y-92985000D01*
G75*
G02*
X121930000Y-93185000I-200000J0D01*
G01*
X121530000Y-93185000D01*
G75*
G02*
X121330000Y-92985000I0J200000D01*
G01*
G37*
%TD*%
%TO.C,R3*%
G36*
G01*
X121330000Y-94890000D02*
X121330000Y-94340000D01*
G75*
G02*
X121530000Y-94140000I200000J0D01*
G01*
X121930000Y-94140000D01*
G75*
G02*
X122130000Y-94340000I0J-200000D01*
G01*
X122130000Y-94890000D01*
G75*
G02*
X121930000Y-95090000I-200000J0D01*
G01*
X121530000Y-95090000D01*
G75*
G02*
X121330000Y-94890000I0J200000D01*
G01*
G37*
G36*
G01*
X122980000Y-94890000D02*
X122980000Y-94340000D01*
G75*
G02*
X123180000Y-94140000I200000J0D01*
G01*
X123580000Y-94140000D01*
G75*
G02*
X123780000Y-94340000I0J-200000D01*
G01*
X123780000Y-94890000D01*
G75*
G02*
X123580000Y-95090000I-200000J0D01*
G01*
X123180000Y-95090000D01*
G75*
G02*
X122980000Y-94890000I0J200000D01*
G01*
G37*
%TD*%
D12*
%TO.C,JP1*%
G36*
X130725000Y-85240000D02*
G01*
X130725000Y-85740000D01*
X130724398Y-85740000D01*
X130724398Y-85764534D01*
X130719588Y-85813365D01*
X130710016Y-85861490D01*
X130695772Y-85908445D01*
X130676995Y-85953778D01*
X130653864Y-85997051D01*
X130626604Y-86037850D01*
X130595476Y-86075779D01*
X130560779Y-86110476D01*
X130522850Y-86141604D01*
X130482051Y-86168864D01*
X130438778Y-86191995D01*
X130393445Y-86210772D01*
X130346490Y-86225016D01*
X130298365Y-86234588D01*
X130249534Y-86239398D01*
X130225000Y-86239398D01*
X130225000Y-86240000D01*
X129725000Y-86240000D01*
X129725000Y-86239398D01*
X129700466Y-86239398D01*
X129651635Y-86234588D01*
X129603510Y-86225016D01*
X129556555Y-86210772D01*
X129511222Y-86191995D01*
X129467949Y-86168864D01*
X129427150Y-86141604D01*
X129389221Y-86110476D01*
X129354524Y-86075779D01*
X129323396Y-86037850D01*
X129296136Y-85997051D01*
X129273005Y-85953778D01*
X129254228Y-85908445D01*
X129239984Y-85861490D01*
X129230412Y-85813365D01*
X129225602Y-85764534D01*
X129225602Y-85740000D01*
X129225000Y-85740000D01*
X129225000Y-85240000D01*
X130725000Y-85240000D01*
G37*
G36*
X129225602Y-84440000D02*
G01*
X129225602Y-84415466D01*
X129230412Y-84366635D01*
X129239984Y-84318510D01*
X129254228Y-84271555D01*
X129273005Y-84226222D01*
X129296136Y-84182949D01*
X129323396Y-84142150D01*
X129354524Y-84104221D01*
X129389221Y-84069524D01*
X129427150Y-84038396D01*
X129467949Y-84011136D01*
X129511222Y-83988005D01*
X129556555Y-83969228D01*
X129603510Y-83954984D01*
X129651635Y-83945412D01*
X129700466Y-83940602D01*
X129725000Y-83940602D01*
X129725000Y-83940000D01*
X130225000Y-83940000D01*
X130225000Y-83940602D01*
X130249534Y-83940602D01*
X130298365Y-83945412D01*
X130346490Y-83954984D01*
X130393445Y-83969228D01*
X130438778Y-83988005D01*
X130482051Y-84011136D01*
X130522850Y-84038396D01*
X130560779Y-84069524D01*
X130595476Y-84104221D01*
X130626604Y-84142150D01*
X130653864Y-84182949D01*
X130676995Y-84226222D01*
X130695772Y-84271555D01*
X130710016Y-84318510D01*
X130719588Y-84366635D01*
X130724398Y-84415466D01*
X130724398Y-84440000D01*
X130725000Y-84440000D01*
X130725000Y-84940000D01*
X129225000Y-84940000D01*
X129225000Y-84440000D01*
X129225602Y-84440000D01*
G37*
%TD*%
D13*
%TO.C,J1*%
X123980000Y-86360000D03*
X123980000Y-88900000D03*
D14*
X122710000Y-85090000D03*
X122710000Y-87630000D03*
X122710000Y-90170000D03*
X125250000Y-85090000D03*
X125250000Y-87630000D03*
X125250000Y-90170000D03*
D15*
X121070000Y-85090000D03*
X121070000Y-87630000D03*
X121070000Y-90170000D03*
X126890000Y-85090000D03*
X126890000Y-87630000D03*
X126890000Y-90170000D03*
%TD*%
%TO.C,J2*%
X138677000Y-90170000D03*
X138677000Y-87630000D03*
X138677000Y-85090000D03*
X132857000Y-90170000D03*
X132857000Y-87630000D03*
X132857000Y-85090000D03*
D14*
X137037000Y-90170000D03*
X137037000Y-87630000D03*
X137037000Y-85090000D03*
X134497000Y-90170000D03*
X134497000Y-87630000D03*
X134497000Y-85090000D03*
D13*
X135767000Y-88900000D03*
X135767000Y-86360000D03*
%TD*%
M02*
