%TF.GenerationSoftware,KiCad,Pcbnew,(5.1.10-1-10_14)*%
%TF.CreationDate,2022-04-02T19:32:47-06:00*%
%TF.ProjectId,RPiG3iMacJ20,52506947-3369-44d6-9163-4a32302e6b69,rev?*%
%TF.SameCoordinates,Original*%
%TF.FileFunction,Legend,Bot*%
%TF.FilePolarity,Positive*%
%FSLAX46Y46*%
G04 Gerber Fmt 4.6, Leading zero omitted, Abs format (unit mm)*
G04 Created by KiCad (PCBNEW (5.1.10-1-10_14)) date 2022-04-02 19:32:47*
%MOMM*%
%LPD*%
G01*
G04 APERTURE LIST*
%ADD10C,0.150000*%
%ADD11C,0.300000*%
G04 APERTURE END LIST*
D10*
X131970238Y-86067380D02*
X131970238Y-86781666D01*
X132017857Y-86924523D01*
X132113095Y-87019761D01*
X132255952Y-87067380D01*
X132351190Y-87067380D01*
X131541666Y-86162619D02*
X131494047Y-86115000D01*
X131398809Y-86067380D01*
X131160714Y-86067380D01*
X131065476Y-86115000D01*
X131017857Y-86162619D01*
X130970238Y-86257857D01*
X130970238Y-86353095D01*
X131017857Y-86495952D01*
X131589285Y-87067380D01*
X130970238Y-87067380D01*
X130351190Y-86067380D02*
X130255952Y-86067380D01*
X130160714Y-86115000D01*
X130113095Y-86162619D01*
X130065476Y-86257857D01*
X130017857Y-86448333D01*
X130017857Y-86686428D01*
X130065476Y-86876904D01*
X130113095Y-86972142D01*
X130160714Y-87019761D01*
X130255952Y-87067380D01*
X130351190Y-87067380D01*
X130446428Y-87019761D01*
X130494047Y-86972142D01*
X130541666Y-86876904D01*
X130589285Y-86686428D01*
X130589285Y-86448333D01*
X130541666Y-86257857D01*
X130494047Y-86162619D01*
X130446428Y-86115000D01*
X130351190Y-86067380D01*
X128970238Y-86067380D02*
X128398809Y-86067380D01*
X128684523Y-87067380D02*
X128684523Y-86067380D01*
X127875000Y-86067380D02*
X127684523Y-86067380D01*
X127589285Y-86115000D01*
X127494047Y-86210238D01*
X127446428Y-86400714D01*
X127446428Y-86734047D01*
X127494047Y-86924523D01*
X127589285Y-87019761D01*
X127684523Y-87067380D01*
X127875000Y-87067380D01*
X127970238Y-87019761D01*
X128065476Y-86924523D01*
X128113095Y-86734047D01*
X128113095Y-86400714D01*
X128065476Y-86210238D01*
X127970238Y-86115000D01*
X127875000Y-86067380D01*
X130303571Y-88717380D02*
X130636904Y-88241190D01*
X130875000Y-88717380D02*
X130875000Y-87717380D01*
X130494047Y-87717380D01*
X130398809Y-87765000D01*
X130351190Y-87812619D01*
X130303571Y-87907857D01*
X130303571Y-88050714D01*
X130351190Y-88145952D01*
X130398809Y-88193571D01*
X130494047Y-88241190D01*
X130875000Y-88241190D01*
X129875000Y-88717380D02*
X129875000Y-87717380D01*
X129494047Y-87717380D01*
X129398809Y-87765000D01*
X129351190Y-87812619D01*
X129303571Y-87907857D01*
X129303571Y-88050714D01*
X129351190Y-88145952D01*
X129398809Y-88193571D01*
X129494047Y-88241190D01*
X129875000Y-88241190D01*
X128875000Y-88717380D02*
X128875000Y-87717380D01*
X133541666Y-90367380D02*
X133541666Y-89367380D01*
X133065476Y-90367380D02*
X133065476Y-89367380D01*
X132494047Y-90367380D01*
X132494047Y-89367380D01*
X132160714Y-89367380D02*
X131589285Y-89367380D01*
X131875000Y-90367380D02*
X131875000Y-89367380D01*
X131255952Y-89843571D02*
X130922619Y-89843571D01*
X130779761Y-90367380D02*
X131255952Y-90367380D01*
X131255952Y-89367380D01*
X130779761Y-89367380D01*
X129779761Y-90367380D02*
X130113095Y-89891190D01*
X130351190Y-90367380D02*
X130351190Y-89367380D01*
X129970238Y-89367380D01*
X129875000Y-89415000D01*
X129827380Y-89462619D01*
X129779761Y-89557857D01*
X129779761Y-89700714D01*
X129827380Y-89795952D01*
X129875000Y-89843571D01*
X129970238Y-89891190D01*
X130351190Y-89891190D01*
X129017857Y-89843571D02*
X129351190Y-89843571D01*
X129351190Y-90367380D02*
X129351190Y-89367380D01*
X128875000Y-89367380D01*
X128541666Y-90081666D02*
X128065476Y-90081666D01*
X128636904Y-90367380D02*
X128303571Y-89367380D01*
X127970238Y-90367380D01*
X127065476Y-90272142D02*
X127113095Y-90319761D01*
X127255952Y-90367380D01*
X127351190Y-90367380D01*
X127494047Y-90319761D01*
X127589285Y-90224523D01*
X127636904Y-90129285D01*
X127684523Y-89938809D01*
X127684523Y-89795952D01*
X127636904Y-89605476D01*
X127589285Y-89510238D01*
X127494047Y-89415000D01*
X127351190Y-89367380D01*
X127255952Y-89367380D01*
X127113095Y-89415000D01*
X127065476Y-89462619D01*
X126636904Y-89843571D02*
X126303571Y-89843571D01*
X126160714Y-90367380D02*
X126636904Y-90367380D01*
X126636904Y-89367380D01*
X126160714Y-89367380D01*
D11*
X138641428Y-98517142D02*
X138584285Y-98460000D01*
X138470000Y-98402857D01*
X138184285Y-98402857D01*
X138070000Y-98460000D01*
X138012857Y-98517142D01*
X137955714Y-98631428D01*
X137955714Y-98745714D01*
X138012857Y-98917142D01*
X138698571Y-99602857D01*
X137955714Y-99602857D01*
X137212857Y-98402857D02*
X137098571Y-98402857D01*
X136984285Y-98460000D01*
X136927142Y-98517142D01*
X136870000Y-98631428D01*
X136812857Y-98860000D01*
X136812857Y-99145714D01*
X136870000Y-99374285D01*
X136927142Y-99488571D01*
X136984285Y-99545714D01*
X137098571Y-99602857D01*
X137212857Y-99602857D01*
X137327142Y-99545714D01*
X137384285Y-99488571D01*
X137441428Y-99374285D01*
X137498571Y-99145714D01*
X137498571Y-98860000D01*
X137441428Y-98631428D01*
X137384285Y-98517142D01*
X137327142Y-98460000D01*
X137212857Y-98402857D01*
X136355714Y-98517142D02*
X136298571Y-98460000D01*
X136184285Y-98402857D01*
X135898571Y-98402857D01*
X135784285Y-98460000D01*
X135727142Y-98517142D01*
X135670000Y-98631428D01*
X135670000Y-98745714D01*
X135727142Y-98917142D01*
X136412857Y-99602857D01*
X135670000Y-99602857D01*
X135212857Y-98517142D02*
X135155714Y-98460000D01*
X135041428Y-98402857D01*
X134755714Y-98402857D01*
X134641428Y-98460000D01*
X134584285Y-98517142D01*
X134527142Y-98631428D01*
X134527142Y-98745714D01*
X134584285Y-98917142D01*
X135270000Y-99602857D01*
X134527142Y-99602857D01*
X134012857Y-99488571D02*
X133955714Y-99545714D01*
X134012857Y-99602857D01*
X134070000Y-99545714D01*
X134012857Y-99488571D01*
X134012857Y-99602857D01*
X133212857Y-98402857D02*
X133098571Y-98402857D01*
X132984285Y-98460000D01*
X132927142Y-98517142D01*
X132870000Y-98631428D01*
X132812857Y-98860000D01*
X132812857Y-99145714D01*
X132870000Y-99374285D01*
X132927142Y-99488571D01*
X132984285Y-99545714D01*
X133098571Y-99602857D01*
X133212857Y-99602857D01*
X133327142Y-99545714D01*
X133384285Y-99488571D01*
X133441428Y-99374285D01*
X133498571Y-99145714D01*
X133498571Y-98860000D01*
X133441428Y-98631428D01*
X133384285Y-98517142D01*
X133327142Y-98460000D01*
X133212857Y-98402857D01*
X131784285Y-98802857D02*
X131784285Y-99602857D01*
X132070000Y-98345714D02*
X132355714Y-99202857D01*
X131612857Y-99202857D01*
X131155714Y-99488571D02*
X131098571Y-99545714D01*
X131155714Y-99602857D01*
X131212857Y-99545714D01*
X131155714Y-99488571D01*
X131155714Y-99602857D01*
X130355714Y-98402857D02*
X130241428Y-98402857D01*
X130127142Y-98460000D01*
X130070000Y-98517142D01*
X130012857Y-98631428D01*
X129955714Y-98860000D01*
X129955714Y-99145714D01*
X130012857Y-99374285D01*
X130070000Y-99488571D01*
X130127142Y-99545714D01*
X130241428Y-99602857D01*
X130355714Y-99602857D01*
X130470000Y-99545714D01*
X130527142Y-99488571D01*
X130584285Y-99374285D01*
X130641428Y-99145714D01*
X130641428Y-98860000D01*
X130584285Y-98631428D01*
X130527142Y-98517142D01*
X130470000Y-98460000D01*
X130355714Y-98402857D01*
X129498571Y-98517142D02*
X129441428Y-98460000D01*
X129327142Y-98402857D01*
X129041428Y-98402857D01*
X128927142Y-98460000D01*
X128870000Y-98517142D01*
X128812857Y-98631428D01*
X128812857Y-98745714D01*
X128870000Y-98917142D01*
X129555714Y-99602857D01*
X128812857Y-99602857D01*
X126468571Y-99602857D02*
X126868571Y-99031428D01*
X127154285Y-99602857D02*
X127154285Y-98402857D01*
X126697142Y-98402857D01*
X126582857Y-98460000D01*
X126525714Y-98517142D01*
X126468571Y-98631428D01*
X126468571Y-98802857D01*
X126525714Y-98917142D01*
X126582857Y-98974285D01*
X126697142Y-99031428D01*
X127154285Y-99031428D01*
X125954285Y-98974285D02*
X125554285Y-98974285D01*
X125382857Y-99602857D02*
X125954285Y-99602857D01*
X125954285Y-98402857D01*
X125382857Y-98402857D01*
X125040000Y-98402857D02*
X124640000Y-99602857D01*
X124240000Y-98402857D01*
X122297142Y-99602857D02*
X122982857Y-99602857D01*
X122640000Y-99602857D02*
X122640000Y-98402857D01*
X122754285Y-98574285D01*
X122868571Y-98688571D01*
X122982857Y-98745714D01*
X121782857Y-99488571D02*
X121725714Y-99545714D01*
X121782857Y-99602857D01*
X121840000Y-99545714D01*
X121782857Y-99488571D01*
X121782857Y-99602857D01*
X120582857Y-99602857D02*
X121268571Y-99602857D01*
X120925714Y-99602857D02*
X120925714Y-98402857D01*
X121040000Y-98574285D01*
X121154285Y-98688571D01*
X121268571Y-98745714D01*
X137898571Y-93252857D02*
X138298571Y-92681428D01*
X138584285Y-93252857D02*
X138584285Y-92052857D01*
X138127142Y-92052857D01*
X138012857Y-92110000D01*
X137955714Y-92167142D01*
X137898571Y-92281428D01*
X137898571Y-92452857D01*
X137955714Y-92567142D01*
X138012857Y-92624285D01*
X138127142Y-92681428D01*
X138584285Y-92681428D01*
X136470000Y-92624285D02*
X136070000Y-92624285D01*
X135898571Y-93252857D02*
X136470000Y-93252857D01*
X136470000Y-92052857D01*
X135898571Y-92052857D01*
X135384285Y-93252857D02*
X135384285Y-92052857D01*
X134698571Y-93252857D01*
X134698571Y-92052857D01*
X133498571Y-92110000D02*
X133612857Y-92052857D01*
X133784285Y-92052857D01*
X133955714Y-92110000D01*
X134070000Y-92224285D01*
X134127142Y-92338571D01*
X134184285Y-92567142D01*
X134184285Y-92738571D01*
X134127142Y-92967142D01*
X134070000Y-93081428D01*
X133955714Y-93195714D01*
X133784285Y-93252857D01*
X133670000Y-93252857D01*
X133498571Y-93195714D01*
X133441428Y-93138571D01*
X133441428Y-92738571D01*
X133670000Y-92738571D01*
X132927142Y-93252857D02*
X132927142Y-92052857D01*
X132355714Y-93252857D02*
X132355714Y-92052857D01*
X131670000Y-93252857D01*
X131670000Y-92052857D01*
X131098571Y-92624285D02*
X130698571Y-92624285D01*
X130527142Y-93252857D02*
X131098571Y-93252857D01*
X131098571Y-92052857D01*
X130527142Y-92052857D01*
X130012857Y-92624285D02*
X129612857Y-92624285D01*
X129441428Y-93252857D02*
X130012857Y-93252857D01*
X130012857Y-92052857D01*
X129441428Y-92052857D01*
X128241428Y-93252857D02*
X128641428Y-92681428D01*
X128927142Y-93252857D02*
X128927142Y-92052857D01*
X128470000Y-92052857D01*
X128355714Y-92110000D01*
X128298571Y-92167142D01*
X128241428Y-92281428D01*
X128241428Y-92452857D01*
X128298571Y-92567142D01*
X128355714Y-92624285D01*
X128470000Y-92681428D01*
X128927142Y-92681428D01*
X127727142Y-93252857D02*
X127727142Y-92052857D01*
X127155714Y-93252857D02*
X127155714Y-92052857D01*
X126470000Y-93252857D01*
X126470000Y-92052857D01*
X125270000Y-92110000D02*
X125384285Y-92052857D01*
X125555714Y-92052857D01*
X125727142Y-92110000D01*
X125841428Y-92224285D01*
X125898571Y-92338571D01*
X125955714Y-92567142D01*
X125955714Y-92738571D01*
X125898571Y-92967142D01*
X125841428Y-93081428D01*
X125727142Y-93195714D01*
X125555714Y-93252857D01*
X125441428Y-93252857D01*
X125270000Y-93195714D01*
X125212857Y-93138571D01*
X125212857Y-92738571D01*
X125441428Y-92738571D01*
X123784285Y-93252857D02*
X123784285Y-92052857D01*
X123212857Y-93252857D02*
X123212857Y-92052857D01*
X122527142Y-93252857D01*
X122527142Y-92052857D01*
X121270000Y-93138571D02*
X121327142Y-93195714D01*
X121498571Y-93252857D01*
X121612857Y-93252857D01*
X121784285Y-93195714D01*
X121898571Y-93081428D01*
X121955714Y-92967142D01*
X122012857Y-92738571D01*
X122012857Y-92567142D01*
X121955714Y-92338571D01*
X121898571Y-92224285D01*
X121784285Y-92110000D01*
X121612857Y-92052857D01*
X121498571Y-92052857D01*
X121327142Y-92110000D01*
X121270000Y-92167142D01*
X120755714Y-93138571D02*
X120698571Y-93195714D01*
X120755714Y-93252857D01*
X120812857Y-93195714D01*
X120755714Y-93138571D01*
X120755714Y-93252857D01*
M02*
