G04 #@! TF.GenerationSoftware,KiCad,Pcbnew,5.1.5-52549c5~86~ubuntu18.04.1*
G04 #@! TF.CreationDate,2020-04-16T22:39:54-04:00*
G04 #@! TF.ProjectId,imac_g3_333mhz_slot_loading_J20_adapter_board,696d6163-5f67-4335-9f33-33336d687a5f,3*
G04 #@! TF.SameCoordinates,Original*
G04 #@! TF.FileFunction,Legend,Top*
G04 #@! TF.FilePolarity,Positive*
%FSLAX46Y46*%
G04 Gerber Fmt 4.6, Leading zero omitted, Abs format (unit mm)*
G04 Created by KiCad (PCBNEW 5.1.5-52549c5~86~ubuntu18.04.1) date 2020-04-16 22:39:54*
%MOMM*%
%LPD*%
G04 APERTURE LIST*
%ADD10C,0.150000*%
%ADD11C,0.120000*%
G04 APERTURE END LIST*
D10*
X189945857Y-108756180D02*
X189612523Y-108279990D01*
X189374428Y-108756180D02*
X189374428Y-107756180D01*
X189755380Y-107756180D01*
X189850619Y-107803800D01*
X189898238Y-107851419D01*
X189945857Y-107946657D01*
X189945857Y-108089514D01*
X189898238Y-108184752D01*
X189850619Y-108232371D01*
X189755380Y-108279990D01*
X189374428Y-108279990D01*
X190755380Y-108708561D02*
X190660142Y-108756180D01*
X190469666Y-108756180D01*
X190374428Y-108708561D01*
X190326809Y-108613323D01*
X190326809Y-108232371D01*
X190374428Y-108137133D01*
X190469666Y-108089514D01*
X190660142Y-108089514D01*
X190755380Y-108137133D01*
X190803000Y-108232371D01*
X190803000Y-108327609D01*
X190326809Y-108422847D01*
X191136333Y-108089514D02*
X191374428Y-108756180D01*
X191612523Y-108089514D01*
X192660142Y-107756180D02*
X193279190Y-107756180D01*
X192945857Y-108137133D01*
X193088714Y-108137133D01*
X193183952Y-108184752D01*
X193231571Y-108232371D01*
X193279190Y-108327609D01*
X193279190Y-108565704D01*
X193231571Y-108660942D01*
X193183952Y-108708561D01*
X193088714Y-108756180D01*
X192803000Y-108756180D01*
X192707761Y-108708561D01*
X192660142Y-108660942D01*
X133979190Y-75083561D02*
X134122047Y-75131180D01*
X134360142Y-75131180D01*
X134455380Y-75083561D01*
X134503000Y-75035942D01*
X134550619Y-74940704D01*
X134550619Y-74845466D01*
X134503000Y-74750228D01*
X134455380Y-74702609D01*
X134360142Y-74654990D01*
X134169666Y-74607371D01*
X134074428Y-74559752D01*
X134026809Y-74512133D01*
X133979190Y-74416895D01*
X133979190Y-74321657D01*
X134026809Y-74226419D01*
X134074428Y-74178800D01*
X134169666Y-74131180D01*
X134407761Y-74131180D01*
X134550619Y-74178800D01*
X135169666Y-74131180D02*
X135360142Y-74131180D01*
X135455380Y-74178800D01*
X135550619Y-74274038D01*
X135598238Y-74464514D01*
X135598238Y-74797847D01*
X135550619Y-74988323D01*
X135455380Y-75083561D01*
X135360142Y-75131180D01*
X135169666Y-75131180D01*
X135074428Y-75083561D01*
X134979190Y-74988323D01*
X134931571Y-74797847D01*
X134931571Y-74464514D01*
X134979190Y-74274038D01*
X135074428Y-74178800D01*
X135169666Y-74131180D01*
X136503000Y-75131180D02*
X136026809Y-75131180D01*
X136026809Y-74131180D01*
X136836333Y-75131180D02*
X136836333Y-74131180D01*
X137074428Y-74131180D01*
X137217285Y-74178800D01*
X137312523Y-74274038D01*
X137360142Y-74369276D01*
X137407761Y-74559752D01*
X137407761Y-74702609D01*
X137360142Y-74893085D01*
X137312523Y-74988323D01*
X137217285Y-75083561D01*
X137074428Y-75131180D01*
X136836333Y-75131180D01*
X137836333Y-74607371D02*
X138169666Y-74607371D01*
X138312523Y-75131180D02*
X137836333Y-75131180D01*
X137836333Y-74131180D01*
X138312523Y-74131180D01*
X139312523Y-75131180D02*
X138979190Y-74654990D01*
X138741095Y-75131180D02*
X138741095Y-74131180D01*
X139122047Y-74131180D01*
X139217285Y-74178800D01*
X139264904Y-74226419D01*
X139312523Y-74321657D01*
X139312523Y-74464514D01*
X139264904Y-74559752D01*
X139217285Y-74607371D01*
X139122047Y-74654990D01*
X138741095Y-74654990D01*
X140788714Y-74131180D02*
X140788714Y-74845466D01*
X140741095Y-74988323D01*
X140645857Y-75083561D01*
X140503000Y-75131180D01*
X140407761Y-75131180D01*
X141264904Y-75131180D02*
X141264904Y-74131180D01*
X141645857Y-74131180D01*
X141741095Y-74178800D01*
X141788714Y-74226419D01*
X141836333Y-74321657D01*
X141836333Y-74464514D01*
X141788714Y-74559752D01*
X141741095Y-74607371D01*
X141645857Y-74654990D01*
X141264904Y-74654990D01*
X142169666Y-74131180D02*
X142788714Y-74131180D01*
X142455380Y-74512133D01*
X142598238Y-74512133D01*
X142693476Y-74559752D01*
X142741095Y-74607371D01*
X142788714Y-74702609D01*
X142788714Y-74940704D01*
X142741095Y-75035942D01*
X142693476Y-75083561D01*
X142598238Y-75131180D01*
X142312523Y-75131180D01*
X142217285Y-75083561D01*
X142169666Y-75035942D01*
X143836333Y-74131180D02*
X144407761Y-74131180D01*
X144122047Y-75131180D02*
X144122047Y-74131180D01*
X144931571Y-74131180D02*
X145122047Y-74131180D01*
X145217285Y-74178800D01*
X145312523Y-74274038D01*
X145360142Y-74464514D01*
X145360142Y-74797847D01*
X145312523Y-74988323D01*
X145217285Y-75083561D01*
X145122047Y-75131180D01*
X144931571Y-75131180D01*
X144836333Y-75083561D01*
X144741095Y-74988323D01*
X144693476Y-74797847D01*
X144693476Y-74464514D01*
X144741095Y-74274038D01*
X144836333Y-74178800D01*
X144931571Y-74131180D01*
X146550619Y-74131180D02*
X146550619Y-74940704D01*
X146598238Y-75035942D01*
X146645857Y-75083561D01*
X146741095Y-75131180D01*
X146931571Y-75131180D01*
X147026809Y-75083561D01*
X147074428Y-75035942D01*
X147122047Y-74940704D01*
X147122047Y-74131180D01*
X147550619Y-75083561D02*
X147693476Y-75131180D01*
X147931571Y-75131180D01*
X148026809Y-75083561D01*
X148074428Y-75035942D01*
X148122047Y-74940704D01*
X148122047Y-74845466D01*
X148074428Y-74750228D01*
X148026809Y-74702609D01*
X147931571Y-74654990D01*
X147741095Y-74607371D01*
X147645857Y-74559752D01*
X147598238Y-74512133D01*
X147550619Y-74416895D01*
X147550619Y-74321657D01*
X147598238Y-74226419D01*
X147645857Y-74178800D01*
X147741095Y-74131180D01*
X147979190Y-74131180D01*
X148122047Y-74178800D01*
X148550619Y-74607371D02*
X148883952Y-74607371D01*
X149026809Y-75131180D02*
X148550619Y-75131180D01*
X148550619Y-74131180D01*
X149026809Y-74131180D01*
X136193476Y-75781180D02*
X136526809Y-76781180D01*
X136860142Y-75781180D01*
X137145857Y-76733561D02*
X137288714Y-76781180D01*
X137526809Y-76781180D01*
X137622047Y-76733561D01*
X137669666Y-76685942D01*
X137717285Y-76590704D01*
X137717285Y-76495466D01*
X137669666Y-76400228D01*
X137622047Y-76352609D01*
X137526809Y-76304990D01*
X137336333Y-76257371D01*
X137241095Y-76209752D01*
X137193476Y-76162133D01*
X137145857Y-76066895D01*
X137145857Y-75971657D01*
X137193476Y-75876419D01*
X137241095Y-75828800D01*
X137336333Y-75781180D01*
X137574428Y-75781180D01*
X137717285Y-75828800D01*
X138336333Y-76304990D02*
X138336333Y-76781180D01*
X138003000Y-75781180D02*
X138336333Y-76304990D01*
X138669666Y-75781180D01*
X139003000Y-76781180D02*
X139003000Y-75781180D01*
X139574428Y-76781180D01*
X139574428Y-75781180D01*
X140622047Y-76685942D02*
X140574428Y-76733561D01*
X140431571Y-76781180D01*
X140336333Y-76781180D01*
X140193476Y-76733561D01*
X140098238Y-76638323D01*
X140050619Y-76543085D01*
X140003000Y-76352609D01*
X140003000Y-76209752D01*
X140050619Y-76019276D01*
X140098238Y-75924038D01*
X140193476Y-75828800D01*
X140336333Y-75781180D01*
X140431571Y-75781180D01*
X140574428Y-75828800D01*
X140622047Y-75876419D01*
X141812523Y-76781180D02*
X141812523Y-75781180D01*
X142050619Y-75781180D01*
X142193476Y-75828800D01*
X142288714Y-75924038D01*
X142336333Y-76019276D01*
X142383952Y-76209752D01*
X142383952Y-76352609D01*
X142336333Y-76543085D01*
X142288714Y-76638323D01*
X142193476Y-76733561D01*
X142050619Y-76781180D01*
X141812523Y-76781180D01*
X142812523Y-76257371D02*
X143145857Y-76257371D01*
X143288714Y-76781180D02*
X142812523Y-76781180D01*
X142812523Y-75781180D01*
X143288714Y-75781180D01*
X143574428Y-75781180D02*
X144145857Y-75781180D01*
X143860142Y-76781180D02*
X143860142Y-75781180D01*
X144479190Y-76257371D02*
X144812523Y-76257371D01*
X144955380Y-76781180D02*
X144479190Y-76781180D01*
X144479190Y-75781180D01*
X144955380Y-75781180D01*
X145955380Y-76685942D02*
X145907761Y-76733561D01*
X145764904Y-76781180D01*
X145669666Y-76781180D01*
X145526809Y-76733561D01*
X145431571Y-76638323D01*
X145383952Y-76543085D01*
X145336333Y-76352609D01*
X145336333Y-76209752D01*
X145383952Y-76019276D01*
X145431571Y-75924038D01*
X145526809Y-75828800D01*
X145669666Y-75781180D01*
X145764904Y-75781180D01*
X145907761Y-75828800D01*
X145955380Y-75876419D01*
X146241095Y-75781180D02*
X146812523Y-75781180D01*
X146526809Y-76781180D02*
X146526809Y-75781180D01*
D11*
X135903000Y-82903800D02*
X133653000Y-82903800D01*
X135903000Y-88153800D02*
X133653000Y-88153800D01*
X135903000Y-92153800D02*
X133653000Y-92153800D01*
X135903000Y-97653800D02*
X133653000Y-97653800D01*
X135903000Y-102903800D02*
X133653000Y-102903800D01*
D10*
X168426809Y-109856180D02*
X168426809Y-108856180D01*
X169474428Y-109760942D02*
X169426809Y-109808561D01*
X169283952Y-109856180D01*
X169188714Y-109856180D01*
X169045857Y-109808561D01*
X168950619Y-109713323D01*
X168903000Y-109618085D01*
X168855380Y-109427609D01*
X168855380Y-109284752D01*
X168903000Y-109094276D01*
X168950619Y-108999038D01*
X169045857Y-108903800D01*
X169188714Y-108856180D01*
X169283952Y-108856180D01*
X169426809Y-108903800D01*
X169474428Y-108951419D01*
X169855380Y-109808561D02*
X169998238Y-109856180D01*
X170236333Y-109856180D01*
X170331571Y-109808561D01*
X170379190Y-109760942D01*
X170426809Y-109665704D01*
X170426809Y-109570466D01*
X170379190Y-109475228D01*
X170331571Y-109427609D01*
X170236333Y-109379990D01*
X170045857Y-109332371D01*
X169950619Y-109284752D01*
X169903000Y-109237133D01*
X169855380Y-109141895D01*
X169855380Y-109046657D01*
X169903000Y-108951419D01*
X169950619Y-108903800D01*
X170045857Y-108856180D01*
X170283952Y-108856180D01*
X170426809Y-108903800D01*
X170855380Y-109856180D02*
X170855380Y-108856180D01*
X171236333Y-108856180D01*
X171331571Y-108903800D01*
X171379190Y-108951419D01*
X171426809Y-109046657D01*
X171426809Y-109189514D01*
X171379190Y-109284752D01*
X171331571Y-109332371D01*
X171236333Y-109379990D01*
X170855380Y-109379990D01*
X185260142Y-95939514D02*
X185260142Y-96606180D01*
X185022047Y-95558561D02*
X184783952Y-96272847D01*
X185403000Y-96272847D01*
X185688714Y-95606180D02*
X186355380Y-95606180D01*
X185926809Y-96606180D01*
X186926809Y-95606180D02*
X187022047Y-95606180D01*
X187117285Y-95653800D01*
X187164904Y-95701419D01*
X187212523Y-95796657D01*
X187260142Y-95987133D01*
X187260142Y-96225228D01*
X187212523Y-96415704D01*
X187164904Y-96510942D01*
X187117285Y-96558561D01*
X187022047Y-96606180D01*
X186926809Y-96606180D01*
X186831571Y-96558561D01*
X186783952Y-96510942D01*
X186736333Y-96415704D01*
X186688714Y-96225228D01*
X186688714Y-95987133D01*
X186736333Y-95796657D01*
X186783952Y-95701419D01*
X186831571Y-95653800D01*
X186926809Y-95606180D01*
X188117285Y-95939514D02*
X188117285Y-96606180D01*
X187688714Y-95939514D02*
X187688714Y-96463323D01*
X187736333Y-96558561D01*
X187831571Y-96606180D01*
X187974428Y-96606180D01*
X188069666Y-96558561D01*
X188117285Y-96510942D01*
X188926809Y-96082371D02*
X188593476Y-96082371D01*
X188593476Y-96606180D02*
X188593476Y-95606180D01*
X189069666Y-95606180D01*
X147605380Y-98975228D02*
X147605380Y-99546657D01*
X147605380Y-99260942D02*
X146605380Y-99260942D01*
X146748238Y-99356180D01*
X146843476Y-99451419D01*
X146891095Y-99546657D01*
X146605380Y-98118085D02*
X146605380Y-98308561D01*
X146653000Y-98403800D01*
X146700619Y-98451419D01*
X146843476Y-98546657D01*
X147033952Y-98594276D01*
X147414904Y-98594276D01*
X147510142Y-98546657D01*
X147557761Y-98499038D01*
X147605380Y-98403800D01*
X147605380Y-98213323D01*
X147557761Y-98118085D01*
X147510142Y-98070466D01*
X147414904Y-98022847D01*
X147176809Y-98022847D01*
X147081571Y-98070466D01*
X147033952Y-98118085D01*
X146986333Y-98213323D01*
X146986333Y-98403800D01*
X147033952Y-98499038D01*
X147081571Y-98546657D01*
X147176809Y-98594276D01*
X147605380Y-96832371D02*
X146605380Y-96832371D01*
X147319666Y-96499038D01*
X146605380Y-96165704D01*
X147605380Y-96165704D01*
X147605380Y-95689514D02*
X146605380Y-95689514D01*
X147081571Y-95689514D02*
X147081571Y-95118085D01*
X147605380Y-95118085D02*
X146605380Y-95118085D01*
X146938714Y-94737133D02*
X146938714Y-94213323D01*
X147605380Y-94737133D01*
X147605380Y-94213323D01*
X147700619Y-106296657D02*
X147653000Y-106249038D01*
X147605380Y-106153800D01*
X147605380Y-105915704D01*
X147653000Y-105820466D01*
X147700619Y-105772847D01*
X147795857Y-105725228D01*
X147891095Y-105725228D01*
X148033952Y-105772847D01*
X148605380Y-106344276D01*
X148605380Y-105725228D01*
X147605380Y-105106180D02*
X147605380Y-105010942D01*
X147653000Y-104915704D01*
X147700619Y-104868085D01*
X147795857Y-104820466D01*
X147986333Y-104772847D01*
X148224428Y-104772847D01*
X148414904Y-104820466D01*
X148510142Y-104868085D01*
X148557761Y-104915704D01*
X148605380Y-105010942D01*
X148605380Y-105106180D01*
X148557761Y-105201419D01*
X148510142Y-105249038D01*
X148414904Y-105296657D01*
X148224428Y-105344276D01*
X147986333Y-105344276D01*
X147795857Y-105296657D01*
X147700619Y-105249038D01*
X147653000Y-105201419D01*
X147605380Y-105106180D01*
X147938714Y-104344276D02*
X148938714Y-104344276D01*
X147986333Y-104344276D02*
X147938714Y-104249038D01*
X147938714Y-104058561D01*
X147986333Y-103963323D01*
X148033952Y-103915704D01*
X148129190Y-103868085D01*
X148414904Y-103868085D01*
X148510142Y-103915704D01*
X148557761Y-103963323D01*
X148605380Y-104058561D01*
X148605380Y-104249038D01*
X148557761Y-104344276D01*
X148081571Y-103106180D02*
X148081571Y-103439514D01*
X148605380Y-103439514D02*
X147605380Y-103439514D01*
X147605380Y-102963323D01*
X147450619Y-85546657D02*
X147403000Y-85499038D01*
X147355380Y-85403800D01*
X147355380Y-85165704D01*
X147403000Y-85070466D01*
X147450619Y-85022847D01*
X147545857Y-84975228D01*
X147641095Y-84975228D01*
X147783952Y-85022847D01*
X148355380Y-85594276D01*
X148355380Y-84975228D01*
X147355380Y-84356180D02*
X147355380Y-84260942D01*
X147403000Y-84165704D01*
X147450619Y-84118085D01*
X147545857Y-84070466D01*
X147736333Y-84022847D01*
X147974428Y-84022847D01*
X148164904Y-84070466D01*
X148260142Y-84118085D01*
X148307761Y-84165704D01*
X148355380Y-84260942D01*
X148355380Y-84356180D01*
X148307761Y-84451419D01*
X148260142Y-84499038D01*
X148164904Y-84546657D01*
X147974428Y-84594276D01*
X147736333Y-84594276D01*
X147545857Y-84546657D01*
X147450619Y-84499038D01*
X147403000Y-84451419D01*
X147355380Y-84356180D01*
X147688714Y-83594276D02*
X148688714Y-83594276D01*
X147736333Y-83594276D02*
X147688714Y-83499038D01*
X147688714Y-83308561D01*
X147736333Y-83213323D01*
X147783952Y-83165704D01*
X147879190Y-83118085D01*
X148164904Y-83118085D01*
X148260142Y-83165704D01*
X148307761Y-83213323D01*
X148355380Y-83308561D01*
X148355380Y-83499038D01*
X148307761Y-83594276D01*
X147831571Y-82356180D02*
X147831571Y-82689514D01*
X148355380Y-82689514D02*
X147355380Y-82689514D01*
X147355380Y-82213323D01*
X169950619Y-93891895D02*
X169903000Y-93844276D01*
X169855380Y-93749038D01*
X169855380Y-93510942D01*
X169903000Y-93415704D01*
X169950619Y-93368085D01*
X170045857Y-93320466D01*
X170141095Y-93320466D01*
X170283952Y-93368085D01*
X170855380Y-93939514D01*
X170855380Y-93320466D01*
X169950619Y-92939514D02*
X169903000Y-92891895D01*
X169855380Y-92796657D01*
X169855380Y-92558561D01*
X169903000Y-92463323D01*
X169950619Y-92415704D01*
X170045857Y-92368085D01*
X170141095Y-92368085D01*
X170283952Y-92415704D01*
X170855380Y-92987133D01*
X170855380Y-92368085D01*
X169855380Y-91749038D02*
X169855380Y-91653800D01*
X169903000Y-91558561D01*
X169950619Y-91510942D01*
X170045857Y-91463323D01*
X170236333Y-91415704D01*
X170474428Y-91415704D01*
X170664904Y-91463323D01*
X170760142Y-91510942D01*
X170807761Y-91558561D01*
X170855380Y-91653800D01*
X170855380Y-91749038D01*
X170807761Y-91844276D01*
X170760142Y-91891895D01*
X170664904Y-91939514D01*
X170474428Y-91987133D01*
X170236333Y-91987133D01*
X170045857Y-91939514D01*
X169950619Y-91891895D01*
X169903000Y-91844276D01*
X169855380Y-91749038D01*
X158307761Y-67106180D02*
X157736333Y-67106180D01*
X158022047Y-67106180D02*
X158022047Y-66106180D01*
X157926809Y-66249038D01*
X157831571Y-66344276D01*
X157736333Y-66391895D01*
X158926809Y-66106180D02*
X159022047Y-66106180D01*
X159117285Y-66153800D01*
X159164904Y-66201419D01*
X159212523Y-66296657D01*
X159260142Y-66487133D01*
X159260142Y-66725228D01*
X159212523Y-66915704D01*
X159164904Y-67010942D01*
X159117285Y-67058561D01*
X159022047Y-67106180D01*
X158926809Y-67106180D01*
X158831571Y-67058561D01*
X158783952Y-67010942D01*
X158736333Y-66915704D01*
X158688714Y-66725228D01*
X158688714Y-66487133D01*
X158736333Y-66296657D01*
X158783952Y-66201419D01*
X158831571Y-66153800D01*
X158926809Y-66106180D01*
X159688714Y-67106180D02*
X159688714Y-66106180D01*
X159783952Y-66725228D02*
X160069666Y-67106180D01*
X160069666Y-66439514D02*
X159688714Y-66820466D01*
X194807761Y-76356180D02*
X194236333Y-76356180D01*
X194522047Y-76356180D02*
X194522047Y-75356180D01*
X194426809Y-75499038D01*
X194331571Y-75594276D01*
X194236333Y-75641895D01*
X195426809Y-75356180D02*
X195522047Y-75356180D01*
X195617285Y-75403800D01*
X195664904Y-75451419D01*
X195712523Y-75546657D01*
X195760142Y-75737133D01*
X195760142Y-75975228D01*
X195712523Y-76165704D01*
X195664904Y-76260942D01*
X195617285Y-76308561D01*
X195522047Y-76356180D01*
X195426809Y-76356180D01*
X195331571Y-76308561D01*
X195283952Y-76260942D01*
X195236333Y-76165704D01*
X195188714Y-75975228D01*
X195188714Y-75737133D01*
X195236333Y-75546657D01*
X195283952Y-75451419D01*
X195331571Y-75403800D01*
X195426809Y-75356180D01*
X196188714Y-76356180D02*
X196188714Y-75356180D01*
X196283952Y-75975228D02*
X196569666Y-76356180D01*
X196569666Y-75689514D02*
X196188714Y-76070466D01*
X196807761Y-66856180D02*
X196236333Y-66856180D01*
X196522047Y-66856180D02*
X196522047Y-65856180D01*
X196426809Y-65999038D01*
X196331571Y-66094276D01*
X196236333Y-66141895D01*
X197426809Y-65856180D02*
X197522047Y-65856180D01*
X197617285Y-65903800D01*
X197664904Y-65951419D01*
X197712523Y-66046657D01*
X197760142Y-66237133D01*
X197760142Y-66475228D01*
X197712523Y-66665704D01*
X197664904Y-66760942D01*
X197617285Y-66808561D01*
X197522047Y-66856180D01*
X197426809Y-66856180D01*
X197331571Y-66808561D01*
X197283952Y-66760942D01*
X197236333Y-66665704D01*
X197188714Y-66475228D01*
X197188714Y-66237133D01*
X197236333Y-66046657D01*
X197283952Y-65951419D01*
X197331571Y-65903800D01*
X197426809Y-65856180D01*
X198188714Y-66856180D02*
X198188714Y-65856180D01*
X198283952Y-66475228D02*
X198569666Y-66856180D01*
X198569666Y-66189514D02*
X198188714Y-66570466D01*
X184893476Y-99290704D02*
X185160142Y-100090704D01*
X185426809Y-99290704D01*
X186112523Y-99328800D02*
X186036333Y-99290704D01*
X185922047Y-99290704D01*
X185807761Y-99328800D01*
X185731571Y-99404990D01*
X185693476Y-99481180D01*
X185655380Y-99633561D01*
X185655380Y-99747847D01*
X185693476Y-99900228D01*
X185731571Y-99976419D01*
X185807761Y-100052609D01*
X185922047Y-100090704D01*
X185998238Y-100090704D01*
X186112523Y-100052609D01*
X186150619Y-100014514D01*
X186150619Y-99747847D01*
X185998238Y-99747847D01*
X186455380Y-99862133D02*
X186836333Y-99862133D01*
X186379190Y-100090704D02*
X186645857Y-99290704D01*
X186912523Y-100090704D01*
X184950619Y-101402609D02*
X185064904Y-101440704D01*
X185255380Y-101440704D01*
X185331571Y-101402609D01*
X185369666Y-101364514D01*
X185407761Y-101288323D01*
X185407761Y-101212133D01*
X185369666Y-101135942D01*
X185331571Y-101097847D01*
X185255380Y-101059752D01*
X185103000Y-101021657D01*
X185026809Y-100983561D01*
X184988714Y-100945466D01*
X184950619Y-100869276D01*
X184950619Y-100793085D01*
X184988714Y-100716895D01*
X185026809Y-100678800D01*
X185103000Y-100640704D01*
X185293476Y-100640704D01*
X185407761Y-100678800D01*
X186207761Y-101364514D02*
X186169666Y-101402609D01*
X186055380Y-101440704D01*
X185979190Y-101440704D01*
X185864904Y-101402609D01*
X185788714Y-101326419D01*
X185750619Y-101250228D01*
X185712523Y-101097847D01*
X185712523Y-100983561D01*
X185750619Y-100831180D01*
X185788714Y-100754990D01*
X185864904Y-100678800D01*
X185979190Y-100640704D01*
X186055380Y-100640704D01*
X186169666Y-100678800D01*
X186207761Y-100716895D01*
X186931571Y-101440704D02*
X186550619Y-101440704D01*
X186550619Y-100640704D01*
X176769666Y-99420466D02*
X177003000Y-100120466D01*
X177236333Y-99420466D01*
X177836333Y-99453800D02*
X177769666Y-99420466D01*
X177669666Y-99420466D01*
X177569666Y-99453800D01*
X177503000Y-99520466D01*
X177469666Y-99587133D01*
X177436333Y-99720466D01*
X177436333Y-99820466D01*
X177469666Y-99953800D01*
X177503000Y-100020466D01*
X177569666Y-100087133D01*
X177669666Y-100120466D01*
X177736333Y-100120466D01*
X177836333Y-100087133D01*
X177869666Y-100053800D01*
X177869666Y-99820466D01*
X177736333Y-99820466D01*
X178136333Y-99920466D02*
X178469666Y-99920466D01*
X178069666Y-100120466D02*
X178303000Y-99420466D01*
X178536333Y-100120466D01*
X176803000Y-101287133D02*
X176903000Y-101320466D01*
X177069666Y-101320466D01*
X177136333Y-101287133D01*
X177169666Y-101253800D01*
X177203000Y-101187133D01*
X177203000Y-101120466D01*
X177169666Y-101053800D01*
X177136333Y-101020466D01*
X177069666Y-100987133D01*
X176936333Y-100953800D01*
X176869666Y-100920466D01*
X176836333Y-100887133D01*
X176803000Y-100820466D01*
X176803000Y-100753800D01*
X176836333Y-100687133D01*
X176869666Y-100653800D01*
X176936333Y-100620466D01*
X177103000Y-100620466D01*
X177203000Y-100653800D01*
X177503000Y-101320466D02*
X177503000Y-100620466D01*
X177669666Y-100620466D01*
X177769666Y-100653800D01*
X177836333Y-100720466D01*
X177869666Y-100787133D01*
X177903000Y-100920466D01*
X177903000Y-101020466D01*
X177869666Y-101153800D01*
X177836333Y-101220466D01*
X177769666Y-101287133D01*
X177669666Y-101320466D01*
X177503000Y-101320466D01*
X178169666Y-101120466D02*
X178503000Y-101120466D01*
X178103000Y-101320466D02*
X178336333Y-100620466D01*
X178569666Y-101320466D01*
X186000619Y-103590704D02*
X185543476Y-103590704D01*
X185772047Y-103590704D02*
X185772047Y-102790704D01*
X185695857Y-102904990D01*
X185619666Y-102981180D01*
X185543476Y-103019276D01*
X186686333Y-103057371D02*
X186686333Y-103590704D01*
X186495857Y-102752609D02*
X186305380Y-103324038D01*
X186800619Y-103324038D01*
X185429190Y-104521657D02*
X185543476Y-104559752D01*
X185581571Y-104597847D01*
X185619666Y-104674038D01*
X185619666Y-104788323D01*
X185581571Y-104864514D01*
X185543476Y-104902609D01*
X185467285Y-104940704D01*
X185162523Y-104940704D01*
X185162523Y-104140704D01*
X185429190Y-104140704D01*
X185505380Y-104178800D01*
X185543476Y-104216895D01*
X185581571Y-104293085D01*
X185581571Y-104369276D01*
X185543476Y-104445466D01*
X185505380Y-104483561D01*
X185429190Y-104521657D01*
X185162523Y-104521657D01*
X185962523Y-104940704D02*
X185962523Y-104140704D01*
X186267285Y-104140704D01*
X186343476Y-104178800D01*
X186381571Y-104216895D01*
X186419666Y-104293085D01*
X186419666Y-104407371D01*
X186381571Y-104483561D01*
X186343476Y-104521657D01*
X186267285Y-104559752D01*
X185962523Y-104559752D01*
X186914904Y-104140704D02*
X186991095Y-104140704D01*
X187067285Y-104178800D01*
X187105380Y-104216895D01*
X187143476Y-104293085D01*
X187181571Y-104445466D01*
X187181571Y-104635942D01*
X187143476Y-104788323D01*
X187105380Y-104864514D01*
X187067285Y-104902609D01*
X186991095Y-104940704D01*
X186914904Y-104940704D01*
X186838714Y-104902609D01*
X186800619Y-104864514D01*
X186762523Y-104788323D01*
X186724428Y-104635942D01*
X186724428Y-104445466D01*
X186762523Y-104293085D01*
X186800619Y-104216895D01*
X186838714Y-104178800D01*
X186914904Y-104140704D01*
X186000619Y-106590704D02*
X185543476Y-106590704D01*
X185772047Y-106590704D02*
X185772047Y-105790704D01*
X185695857Y-105904990D01*
X185619666Y-105981180D01*
X185543476Y-106019276D01*
X186724428Y-105790704D02*
X186343476Y-105790704D01*
X186305380Y-106171657D01*
X186343476Y-106133561D01*
X186419666Y-106095466D01*
X186610142Y-106095466D01*
X186686333Y-106133561D01*
X186724428Y-106171657D01*
X186762523Y-106247847D01*
X186762523Y-106438323D01*
X186724428Y-106514514D01*
X186686333Y-106552609D01*
X186610142Y-106590704D01*
X186419666Y-106590704D01*
X186343476Y-106552609D01*
X186305380Y-106514514D01*
X185162523Y-107940704D02*
X185162523Y-107140704D01*
X185467285Y-107140704D01*
X185543476Y-107178800D01*
X185581571Y-107216895D01*
X185619666Y-107293085D01*
X185619666Y-107407371D01*
X185581571Y-107483561D01*
X185543476Y-107521657D01*
X185467285Y-107559752D01*
X185162523Y-107559752D01*
X186229190Y-107521657D02*
X186343476Y-107559752D01*
X186381571Y-107597847D01*
X186419666Y-107674038D01*
X186419666Y-107788323D01*
X186381571Y-107864514D01*
X186343476Y-107902609D01*
X186267285Y-107940704D01*
X185962523Y-107940704D01*
X185962523Y-107140704D01*
X186229190Y-107140704D01*
X186305380Y-107178800D01*
X186343476Y-107216895D01*
X186381571Y-107293085D01*
X186381571Y-107369276D01*
X186343476Y-107445466D01*
X186305380Y-107483561D01*
X186229190Y-107521657D01*
X185962523Y-107521657D01*
X187181571Y-107940704D02*
X186724428Y-107940704D01*
X186953000Y-107940704D02*
X186953000Y-107140704D01*
X186876809Y-107254990D01*
X186800619Y-107331180D01*
X186724428Y-107369276D01*
X175286333Y-107087133D02*
X175386333Y-107120466D01*
X175553000Y-107120466D01*
X175619666Y-107087133D01*
X175653000Y-107053800D01*
X175686333Y-106987133D01*
X175686333Y-106920466D01*
X175653000Y-106853800D01*
X175619666Y-106820466D01*
X175553000Y-106787133D01*
X175419666Y-106753800D01*
X175353000Y-106720466D01*
X175319666Y-106687133D01*
X175286333Y-106620466D01*
X175286333Y-106553800D01*
X175319666Y-106487133D01*
X175353000Y-106453800D01*
X175419666Y-106420466D01*
X175586333Y-106420466D01*
X175686333Y-106453800D01*
X175986333Y-106753800D02*
X176219666Y-106753800D01*
X176319666Y-107120466D02*
X175986333Y-107120466D01*
X175986333Y-106420466D01*
X176319666Y-106420466D01*
X177019666Y-107120466D02*
X176786333Y-106787133D01*
X176619666Y-107120466D02*
X176619666Y-106420466D01*
X176886333Y-106420466D01*
X176953000Y-106453800D01*
X176986333Y-106487133D01*
X177019666Y-106553800D01*
X177019666Y-106653800D01*
X176986333Y-106720466D01*
X176953000Y-106753800D01*
X176886333Y-106787133D01*
X176619666Y-106787133D01*
X177319666Y-107120466D02*
X177319666Y-106420466D01*
X177619666Y-106920466D02*
X177953000Y-106920466D01*
X177553000Y-107120466D02*
X177786333Y-106420466D01*
X178019666Y-107120466D01*
X178586333Y-107120466D02*
X178253000Y-107120466D01*
X178253000Y-106420466D01*
X176369666Y-107620466D02*
X176769666Y-107620466D01*
X176569666Y-108320466D02*
X176569666Y-107620466D01*
X176936333Y-107620466D02*
X177403000Y-108320466D01*
X177403000Y-107620466D02*
X176936333Y-108320466D01*
X175286333Y-103587133D02*
X175386333Y-103620466D01*
X175553000Y-103620466D01*
X175619666Y-103587133D01*
X175653000Y-103553800D01*
X175686333Y-103487133D01*
X175686333Y-103420466D01*
X175653000Y-103353800D01*
X175619666Y-103320466D01*
X175553000Y-103287133D01*
X175419666Y-103253800D01*
X175353000Y-103220466D01*
X175319666Y-103187133D01*
X175286333Y-103120466D01*
X175286333Y-103053800D01*
X175319666Y-102987133D01*
X175353000Y-102953800D01*
X175419666Y-102920466D01*
X175586333Y-102920466D01*
X175686333Y-102953800D01*
X175986333Y-103253800D02*
X176219666Y-103253800D01*
X176319666Y-103620466D02*
X175986333Y-103620466D01*
X175986333Y-102920466D01*
X176319666Y-102920466D01*
X177019666Y-103620466D02*
X176786333Y-103287133D01*
X176619666Y-103620466D02*
X176619666Y-102920466D01*
X176886333Y-102920466D01*
X176953000Y-102953800D01*
X176986333Y-102987133D01*
X177019666Y-103053800D01*
X177019666Y-103153800D01*
X176986333Y-103220466D01*
X176953000Y-103253800D01*
X176886333Y-103287133D01*
X176619666Y-103287133D01*
X177319666Y-103620466D02*
X177319666Y-102920466D01*
X177619666Y-103420466D02*
X177953000Y-103420466D01*
X177553000Y-103620466D02*
X177786333Y-102920466D01*
X178019666Y-103620466D01*
X178586333Y-103620466D02*
X178253000Y-103620466D01*
X178253000Y-102920466D01*
X176786333Y-104820466D02*
X176553000Y-104487133D01*
X176386333Y-104820466D02*
X176386333Y-104120466D01*
X176653000Y-104120466D01*
X176719666Y-104153800D01*
X176753000Y-104187133D01*
X176786333Y-104253800D01*
X176786333Y-104353800D01*
X176753000Y-104420466D01*
X176719666Y-104453800D01*
X176653000Y-104487133D01*
X176386333Y-104487133D01*
X177019666Y-104120466D02*
X177486333Y-104820466D01*
X177486333Y-104120466D02*
X177019666Y-104820466D01*
X165714904Y-107306180D02*
X165714904Y-107687133D01*
X166095857Y-107725228D01*
X166057761Y-107687133D01*
X166019666Y-107610942D01*
X166019666Y-107420466D01*
X166057761Y-107344276D01*
X166095857Y-107306180D01*
X166172047Y-107268085D01*
X166362523Y-107268085D01*
X166438714Y-107306180D01*
X166476809Y-107344276D01*
X166514904Y-107420466D01*
X166514904Y-107610942D01*
X166476809Y-107687133D01*
X166438714Y-107725228D01*
X165714904Y-107039514D02*
X166514904Y-106772847D01*
X165714904Y-106506180D01*
X166514904Y-105460942D02*
X165714904Y-105460942D01*
X166286333Y-105194276D01*
X165714904Y-104927609D01*
X166514904Y-104927609D01*
X165714904Y-104394276D02*
X165714904Y-104241895D01*
X165753000Y-104165704D01*
X165829190Y-104089514D01*
X165981571Y-104051419D01*
X166248238Y-104051419D01*
X166400619Y-104089514D01*
X166476809Y-104165704D01*
X166514904Y-104241895D01*
X166514904Y-104394276D01*
X166476809Y-104470466D01*
X166400619Y-104546657D01*
X166248238Y-104584752D01*
X165981571Y-104584752D01*
X165829190Y-104546657D01*
X165753000Y-104470466D01*
X165714904Y-104394276D01*
X166476809Y-103746657D02*
X166514904Y-103632371D01*
X166514904Y-103441895D01*
X166476809Y-103365704D01*
X166438714Y-103327609D01*
X166362523Y-103289514D01*
X166286333Y-103289514D01*
X166210142Y-103327609D01*
X166172047Y-103365704D01*
X166133952Y-103441895D01*
X166095857Y-103594276D01*
X166057761Y-103670466D01*
X166019666Y-103708561D01*
X165943476Y-103746657D01*
X165867285Y-103746657D01*
X165791095Y-103708561D01*
X165753000Y-103670466D01*
X165714904Y-103594276D01*
X165714904Y-103403800D01*
X165753000Y-103289514D01*
X166514904Y-102946657D02*
X165714904Y-102946657D01*
X165753000Y-101513323D02*
X165714904Y-101589514D01*
X165714904Y-101703800D01*
X165753000Y-101818085D01*
X165829190Y-101894276D01*
X165905380Y-101932371D01*
X166057761Y-101970466D01*
X166172047Y-101970466D01*
X166324428Y-101932371D01*
X166400619Y-101894276D01*
X166476809Y-101818085D01*
X166514904Y-101703800D01*
X166514904Y-101627609D01*
X166476809Y-101513323D01*
X166438714Y-101475228D01*
X166172047Y-101475228D01*
X166172047Y-101627609D01*
X166514904Y-101132371D02*
X165714904Y-101132371D01*
X166514904Y-100675228D01*
X165714904Y-100675228D01*
X166514904Y-100294276D02*
X165714904Y-100294276D01*
X165714904Y-100103800D01*
X165753000Y-99989514D01*
X165829190Y-99913323D01*
X165905380Y-99875228D01*
X166057761Y-99837133D01*
X166172047Y-99837133D01*
X166324428Y-99875228D01*
X166400619Y-99913323D01*
X166476809Y-99989514D01*
X166514904Y-100103800D01*
X166514904Y-100294276D01*
X174014904Y-108660942D02*
X173214904Y-108660942D01*
X173786333Y-108394276D01*
X173214904Y-108127609D01*
X174014904Y-108127609D01*
X174014904Y-107746657D02*
X173214904Y-107746657D01*
X173976809Y-107403800D02*
X174014904Y-107289514D01*
X174014904Y-107099038D01*
X173976809Y-107022847D01*
X173938714Y-106984752D01*
X173862523Y-106946657D01*
X173786333Y-106946657D01*
X173710142Y-106984752D01*
X173672047Y-107022847D01*
X173633952Y-107099038D01*
X173595857Y-107251419D01*
X173557761Y-107327609D01*
X173519666Y-107365704D01*
X173443476Y-107403800D01*
X173367285Y-107403800D01*
X173291095Y-107365704D01*
X173253000Y-107327609D01*
X173214904Y-107251419D01*
X173214904Y-107060942D01*
X173253000Y-106946657D01*
X173214904Y-106451419D02*
X173214904Y-106299038D01*
X173253000Y-106222847D01*
X173329190Y-106146657D01*
X173481571Y-106108561D01*
X173748238Y-106108561D01*
X173900619Y-106146657D01*
X173976809Y-106222847D01*
X174014904Y-106299038D01*
X174014904Y-106451419D01*
X173976809Y-106527609D01*
X173900619Y-106603800D01*
X173748238Y-106641895D01*
X173481571Y-106641895D01*
X173329190Y-106603800D01*
X173253000Y-106527609D01*
X173214904Y-106451419D01*
X173976809Y-105182371D02*
X174014904Y-105068085D01*
X174014904Y-104877609D01*
X173976809Y-104801419D01*
X173938714Y-104763323D01*
X173862523Y-104725228D01*
X173786333Y-104725228D01*
X173710142Y-104763323D01*
X173672047Y-104801419D01*
X173633952Y-104877609D01*
X173595857Y-105029990D01*
X173557761Y-105106180D01*
X173519666Y-105144276D01*
X173443476Y-105182371D01*
X173367285Y-105182371D01*
X173291095Y-105144276D01*
X173253000Y-105106180D01*
X173214904Y-105029990D01*
X173214904Y-104839514D01*
X173253000Y-104725228D01*
X173938714Y-103925228D02*
X173976809Y-103963323D01*
X174014904Y-104077609D01*
X174014904Y-104153800D01*
X173976809Y-104268085D01*
X173900619Y-104344276D01*
X173824428Y-104382371D01*
X173672047Y-104420466D01*
X173557761Y-104420466D01*
X173405380Y-104382371D01*
X173329190Y-104344276D01*
X173253000Y-104268085D01*
X173214904Y-104153800D01*
X173214904Y-104077609D01*
X173253000Y-103963323D01*
X173291095Y-103925228D01*
X174014904Y-103582371D02*
X173214904Y-103582371D01*
X174014904Y-103125228D02*
X173557761Y-103468085D01*
X173214904Y-103125228D02*
X173672047Y-103582371D01*
X173204000Y-102487133D02*
X173204000Y-101787133D01*
X174219666Y-101920466D02*
X173886333Y-102153800D01*
X174219666Y-102320466D02*
X173519666Y-102320466D01*
X173519666Y-102053800D01*
X173553000Y-101987133D01*
X173586333Y-101953800D01*
X173653000Y-101920466D01*
X173753000Y-101920466D01*
X173819666Y-101953800D01*
X173853000Y-101987133D01*
X173886333Y-102053800D01*
X173886333Y-102320466D01*
X173204000Y-101787133D02*
X173204000Y-101153800D01*
X173853000Y-101620466D02*
X173853000Y-101387133D01*
X174219666Y-101287133D02*
X174219666Y-101620466D01*
X173519666Y-101620466D01*
X173519666Y-101287133D01*
X173204000Y-101153800D02*
X173204000Y-100487133D01*
X174186333Y-101020466D02*
X174219666Y-100920466D01*
X174219666Y-100753800D01*
X174186333Y-100687133D01*
X174153000Y-100653800D01*
X174086333Y-100620466D01*
X174019666Y-100620466D01*
X173953000Y-100653800D01*
X173919666Y-100687133D01*
X173886333Y-100753800D01*
X173853000Y-100887133D01*
X173819666Y-100953800D01*
X173786333Y-100987133D01*
X173719666Y-101020466D01*
X173653000Y-101020466D01*
X173586333Y-100987133D01*
X173553000Y-100953800D01*
X173519666Y-100887133D01*
X173519666Y-100720466D01*
X173553000Y-100620466D01*
X173204000Y-100487133D02*
X173204000Y-99853800D01*
X173853000Y-100320466D02*
X173853000Y-100087133D01*
X174219666Y-99987133D02*
X174219666Y-100320466D01*
X173519666Y-100320466D01*
X173519666Y-99987133D01*
X173204000Y-99853800D02*
X173204000Y-99320466D01*
X173519666Y-99787133D02*
X173519666Y-99387133D01*
X174219666Y-99587133D02*
X173519666Y-99587133D01*
X145879190Y-69106180D02*
X145545857Y-68629990D01*
X145307761Y-69106180D02*
X145307761Y-68106180D01*
X145688714Y-68106180D01*
X145783952Y-68153800D01*
X145831571Y-68201419D01*
X145879190Y-68296657D01*
X145879190Y-68439514D01*
X145831571Y-68534752D01*
X145783952Y-68582371D01*
X145688714Y-68629990D01*
X145307761Y-68629990D01*
X146450619Y-69106180D02*
X146355380Y-69058561D01*
X146307761Y-69010942D01*
X146260142Y-68915704D01*
X146260142Y-68629990D01*
X146307761Y-68534752D01*
X146355380Y-68487133D01*
X146450619Y-68439514D01*
X146593476Y-68439514D01*
X146688714Y-68487133D01*
X146736333Y-68534752D01*
X146783952Y-68629990D01*
X146783952Y-68915704D01*
X146736333Y-69010942D01*
X146688714Y-69058561D01*
X146593476Y-69106180D01*
X146450619Y-69106180D01*
X147641095Y-69058561D02*
X147545857Y-69106180D01*
X147355380Y-69106180D01*
X147260142Y-69058561D01*
X147212523Y-69010942D01*
X147164904Y-68915704D01*
X147164904Y-68629990D01*
X147212523Y-68534752D01*
X147260142Y-68487133D01*
X147355380Y-68439514D01*
X147545857Y-68439514D01*
X147641095Y-68487133D01*
X148069666Y-69106180D02*
X148069666Y-68106180D01*
X148164904Y-68725228D02*
X148450619Y-69106180D01*
X148450619Y-68439514D02*
X148069666Y-68820466D01*
X148783952Y-68439514D02*
X149022047Y-69106180D01*
X149260142Y-68439514D02*
X149022047Y-69106180D01*
X148926809Y-69344276D01*
X148879190Y-69391895D01*
X148783952Y-69439514D01*
X150403000Y-69106180D02*
X150403000Y-68106180D01*
X150403000Y-68582371D02*
X150974428Y-68582371D01*
X150974428Y-69106180D02*
X150974428Y-68106180D01*
X151450619Y-69106180D02*
X151450619Y-68439514D01*
X151450619Y-68106180D02*
X151403000Y-68153800D01*
X151450619Y-68201419D01*
X151498238Y-68153800D01*
X151450619Y-68106180D01*
X151450619Y-68201419D01*
X152069666Y-69106180D02*
X151974428Y-69058561D01*
X151926809Y-68963323D01*
X151926809Y-68106180D01*
X152593476Y-69106180D02*
X152498238Y-69058561D01*
X152450619Y-68963323D01*
X152450619Y-68106180D01*
X149545857Y-62281180D02*
X149545857Y-61614514D01*
X149545857Y-61281180D02*
X149498238Y-61328800D01*
X149545857Y-61376419D01*
X149593476Y-61328800D01*
X149545857Y-61281180D01*
X149545857Y-61376419D01*
X150022047Y-62281180D02*
X150022047Y-61281180D01*
X150355380Y-61995466D01*
X150688714Y-61281180D01*
X150688714Y-62281180D01*
X151593476Y-62281180D02*
X151593476Y-61757371D01*
X151545857Y-61662133D01*
X151450619Y-61614514D01*
X151260142Y-61614514D01*
X151164904Y-61662133D01*
X151593476Y-62233561D02*
X151498238Y-62281180D01*
X151260142Y-62281180D01*
X151164904Y-62233561D01*
X151117285Y-62138323D01*
X151117285Y-62043085D01*
X151164904Y-61947847D01*
X151260142Y-61900228D01*
X151498238Y-61900228D01*
X151593476Y-61852609D01*
X152498238Y-62233561D02*
X152403000Y-62281180D01*
X152212523Y-62281180D01*
X152117285Y-62233561D01*
X152069666Y-62185942D01*
X152022047Y-62090704D01*
X152022047Y-61804990D01*
X152069666Y-61709752D01*
X152117285Y-61662133D01*
X152212523Y-61614514D01*
X152403000Y-61614514D01*
X152498238Y-61662133D01*
X154212523Y-61328800D02*
X154117285Y-61281180D01*
X153974428Y-61281180D01*
X153831571Y-61328800D01*
X153736333Y-61424038D01*
X153688714Y-61519276D01*
X153641095Y-61709752D01*
X153641095Y-61852609D01*
X153688714Y-62043085D01*
X153736333Y-62138323D01*
X153831571Y-62233561D01*
X153974428Y-62281180D01*
X154069666Y-62281180D01*
X154212523Y-62233561D01*
X154260142Y-62185942D01*
X154260142Y-61852609D01*
X154069666Y-61852609D01*
X154593476Y-61281180D02*
X155212523Y-61281180D01*
X154879190Y-61662133D01*
X155022047Y-61662133D01*
X155117285Y-61709752D01*
X155164904Y-61757371D01*
X155212523Y-61852609D01*
X155212523Y-62090704D01*
X155164904Y-62185942D01*
X155117285Y-62233561D01*
X155022047Y-62281180D01*
X154736333Y-62281180D01*
X154641095Y-62233561D01*
X154593476Y-62185942D01*
X156403000Y-62281180D02*
X156403000Y-61281180D01*
X156641095Y-61281180D01*
X156783952Y-61328800D01*
X156879190Y-61424038D01*
X156926809Y-61519276D01*
X156974428Y-61709752D01*
X156974428Y-61852609D01*
X156926809Y-62043085D01*
X156879190Y-62138323D01*
X156783952Y-62233561D01*
X156641095Y-62281180D01*
X156403000Y-62281180D01*
X157260142Y-61281180D02*
X157593476Y-62281180D01*
X157926809Y-61281180D01*
X158879190Y-61281180D02*
X159212523Y-62281180D01*
X159545857Y-61281180D01*
X160403000Y-61328800D02*
X160307761Y-61281180D01*
X160164904Y-61281180D01*
X160022047Y-61328800D01*
X159926809Y-61424038D01*
X159879190Y-61519276D01*
X159831571Y-61709752D01*
X159831571Y-61852609D01*
X159879190Y-62043085D01*
X159926809Y-62138323D01*
X160022047Y-62233561D01*
X160164904Y-62281180D01*
X160260142Y-62281180D01*
X160403000Y-62233561D01*
X160450619Y-62185942D01*
X160450619Y-61852609D01*
X160260142Y-61852609D01*
X160831571Y-61995466D02*
X161307761Y-61995466D01*
X160736333Y-62281180D02*
X161069666Y-61281180D01*
X161403000Y-62281180D01*
X150117285Y-63931180D02*
X150022047Y-63883561D01*
X149974428Y-63835942D01*
X149926809Y-63740704D01*
X149926809Y-63454990D01*
X149974428Y-63359752D01*
X150022047Y-63312133D01*
X150117285Y-63264514D01*
X150260142Y-63264514D01*
X150355380Y-63312133D01*
X150403000Y-63359752D01*
X150450619Y-63454990D01*
X150450619Y-63740704D01*
X150403000Y-63835942D01*
X150355380Y-63883561D01*
X150260142Y-63931180D01*
X150117285Y-63931180D01*
X150879190Y-63264514D02*
X150879190Y-63931180D01*
X150879190Y-63359752D02*
X150926809Y-63312133D01*
X151022047Y-63264514D01*
X151164904Y-63264514D01*
X151260142Y-63312133D01*
X151307761Y-63407371D01*
X151307761Y-63931180D01*
X152498238Y-62883561D02*
X151641095Y-64169276D01*
X152974428Y-63931180D02*
X152879190Y-63883561D01*
X152831571Y-63835942D01*
X152783952Y-63740704D01*
X152783952Y-63454990D01*
X152831571Y-63359752D01*
X152879190Y-63312133D01*
X152974428Y-63264514D01*
X153117285Y-63264514D01*
X153212523Y-63312133D01*
X153260142Y-63359752D01*
X153307761Y-63454990D01*
X153307761Y-63740704D01*
X153260142Y-63835942D01*
X153212523Y-63883561D01*
X153117285Y-63931180D01*
X152974428Y-63931180D01*
X153593476Y-63264514D02*
X153974428Y-63264514D01*
X153736333Y-63931180D02*
X153736333Y-63074038D01*
X153783952Y-62978800D01*
X153879190Y-62931180D01*
X153974428Y-62931180D01*
X154164904Y-63264514D02*
X154545857Y-63264514D01*
X154307761Y-63931180D02*
X154307761Y-63074038D01*
X154355380Y-62978800D01*
X154450619Y-62931180D01*
X154545857Y-62931180D01*
X156069666Y-63931180D02*
X156069666Y-63407371D01*
X156022047Y-63312133D01*
X155926809Y-63264514D01*
X155736333Y-63264514D01*
X155641095Y-63312133D01*
X156069666Y-63883561D02*
X155974428Y-63931180D01*
X155736333Y-63931180D01*
X155641095Y-63883561D01*
X155593476Y-63788323D01*
X155593476Y-63693085D01*
X155641095Y-63597847D01*
X155736333Y-63550228D01*
X155974428Y-63550228D01*
X156069666Y-63502609D01*
X156974428Y-63931180D02*
X156974428Y-62931180D01*
X156974428Y-63883561D02*
X156879190Y-63931180D01*
X156688714Y-63931180D01*
X156593476Y-63883561D01*
X156545857Y-63835942D01*
X156498238Y-63740704D01*
X156498238Y-63454990D01*
X156545857Y-63359752D01*
X156593476Y-63312133D01*
X156688714Y-63264514D01*
X156879190Y-63264514D01*
X156974428Y-63312133D01*
X157879190Y-63931180D02*
X157879190Y-63407371D01*
X157831571Y-63312133D01*
X157736333Y-63264514D01*
X157545857Y-63264514D01*
X157450619Y-63312133D01*
X157879190Y-63883561D02*
X157783952Y-63931180D01*
X157545857Y-63931180D01*
X157450619Y-63883561D01*
X157403000Y-63788323D01*
X157403000Y-63693085D01*
X157450619Y-63597847D01*
X157545857Y-63550228D01*
X157783952Y-63550228D01*
X157879190Y-63502609D01*
X158355380Y-63264514D02*
X158355380Y-64264514D01*
X158355380Y-63312133D02*
X158450619Y-63264514D01*
X158641095Y-63264514D01*
X158736333Y-63312133D01*
X158783952Y-63359752D01*
X158831571Y-63454990D01*
X158831571Y-63740704D01*
X158783952Y-63835942D01*
X158736333Y-63883561D01*
X158641095Y-63931180D01*
X158450619Y-63931180D01*
X158355380Y-63883561D01*
X159117285Y-63264514D02*
X159498238Y-63264514D01*
X159260142Y-62931180D02*
X159260142Y-63788323D01*
X159307761Y-63883561D01*
X159403000Y-63931180D01*
X159498238Y-63931180D01*
X160212523Y-63883561D02*
X160117285Y-63931180D01*
X159926809Y-63931180D01*
X159831571Y-63883561D01*
X159783952Y-63788323D01*
X159783952Y-63407371D01*
X159831571Y-63312133D01*
X159926809Y-63264514D01*
X160117285Y-63264514D01*
X160212523Y-63312133D01*
X160260142Y-63407371D01*
X160260142Y-63502609D01*
X159783952Y-63597847D01*
X160688714Y-63931180D02*
X160688714Y-63264514D01*
X160688714Y-63454990D02*
X160736333Y-63359752D01*
X160783952Y-63312133D01*
X160879190Y-63264514D01*
X160974428Y-63264514D01*
X169531571Y-88883561D02*
X169626809Y-88931180D01*
X169817285Y-88931180D01*
X169912523Y-88883561D01*
X169960142Y-88788323D01*
X169960142Y-88740704D01*
X169912523Y-88645466D01*
X169817285Y-88597847D01*
X169674428Y-88597847D01*
X169579190Y-88550228D01*
X169531571Y-88454990D01*
X169531571Y-88407371D01*
X169579190Y-88312133D01*
X169674428Y-88264514D01*
X169817285Y-88264514D01*
X169912523Y-88312133D01*
X170531571Y-88931180D02*
X170436333Y-88883561D01*
X170388714Y-88835942D01*
X170341095Y-88740704D01*
X170341095Y-88454990D01*
X170388714Y-88359752D01*
X170436333Y-88312133D01*
X170531571Y-88264514D01*
X170674428Y-88264514D01*
X170769666Y-88312133D01*
X170817285Y-88359752D01*
X170864904Y-88454990D01*
X170864904Y-88740704D01*
X170817285Y-88835942D01*
X170769666Y-88883561D01*
X170674428Y-88931180D01*
X170531571Y-88931180D01*
X171436333Y-88931180D02*
X171341095Y-88883561D01*
X171293476Y-88788323D01*
X171293476Y-87931180D01*
X172245857Y-88931180D02*
X172245857Y-87931180D01*
X172245857Y-88883561D02*
X172150619Y-88931180D01*
X171960142Y-88931180D01*
X171864904Y-88883561D01*
X171817285Y-88835942D01*
X171769666Y-88740704D01*
X171769666Y-88454990D01*
X171817285Y-88359752D01*
X171864904Y-88312133D01*
X171960142Y-88264514D01*
X172150619Y-88264514D01*
X172245857Y-88312133D01*
X173103000Y-88883561D02*
X173007761Y-88931180D01*
X172817285Y-88931180D01*
X172722047Y-88883561D01*
X172674428Y-88788323D01*
X172674428Y-88407371D01*
X172722047Y-88312133D01*
X172817285Y-88264514D01*
X173007761Y-88264514D01*
X173103000Y-88312133D01*
X173150619Y-88407371D01*
X173150619Y-88502609D01*
X172674428Y-88597847D01*
X173579190Y-88931180D02*
X173579190Y-88264514D01*
X173579190Y-88454990D02*
X173626809Y-88359752D01*
X173674428Y-88312133D01*
X173769666Y-88264514D01*
X173864904Y-88264514D01*
X174960142Y-88264514D02*
X174960142Y-89121657D01*
X174912523Y-89216895D01*
X174817285Y-89264514D01*
X174769666Y-89264514D01*
X174960142Y-87931180D02*
X174912523Y-87978800D01*
X174960142Y-88026419D01*
X175007761Y-87978800D01*
X174960142Y-87931180D01*
X174960142Y-88026419D01*
X175864904Y-88264514D02*
X175864904Y-88931180D01*
X175436333Y-88264514D02*
X175436333Y-88788323D01*
X175483952Y-88883561D01*
X175579190Y-88931180D01*
X175722047Y-88931180D01*
X175817285Y-88883561D01*
X175864904Y-88835942D01*
X176341095Y-88931180D02*
X176341095Y-88264514D01*
X176341095Y-88359752D02*
X176388714Y-88312133D01*
X176483952Y-88264514D01*
X176626809Y-88264514D01*
X176722047Y-88312133D01*
X176769666Y-88407371D01*
X176769666Y-88931180D01*
X176769666Y-88407371D02*
X176817285Y-88312133D01*
X176912523Y-88264514D01*
X177055380Y-88264514D01*
X177150619Y-88312133D01*
X177198238Y-88407371D01*
X177198238Y-88931180D01*
X177674428Y-88264514D02*
X177674428Y-89264514D01*
X177674428Y-88312133D02*
X177769666Y-88264514D01*
X177960142Y-88264514D01*
X178055380Y-88312133D01*
X178103000Y-88359752D01*
X178150619Y-88454990D01*
X178150619Y-88740704D01*
X178103000Y-88835942D01*
X178055380Y-88883561D01*
X177960142Y-88931180D01*
X177769666Y-88931180D01*
X177674428Y-88883561D01*
X178960142Y-88883561D02*
X178864904Y-88931180D01*
X178674428Y-88931180D01*
X178579190Y-88883561D01*
X178531571Y-88788323D01*
X178531571Y-88407371D01*
X178579190Y-88312133D01*
X178674428Y-88264514D01*
X178864904Y-88264514D01*
X178960142Y-88312133D01*
X179007761Y-88407371D01*
X179007761Y-88502609D01*
X178531571Y-88597847D01*
X179436333Y-88931180D02*
X179436333Y-88264514D01*
X179436333Y-88454990D02*
X179483952Y-88359752D01*
X179531571Y-88312133D01*
X179626809Y-88264514D01*
X179722047Y-88264514D01*
X180007761Y-88883561D02*
X180103000Y-88931180D01*
X180293476Y-88931180D01*
X180388714Y-88883561D01*
X180436333Y-88788323D01*
X180436333Y-88740704D01*
X180388714Y-88645466D01*
X180293476Y-88597847D01*
X180150619Y-88597847D01*
X180055380Y-88550228D01*
X180007761Y-88454990D01*
X180007761Y-88407371D01*
X180055380Y-88312133D01*
X180150619Y-88264514D01*
X180293476Y-88264514D01*
X180388714Y-88312133D01*
X181483952Y-88264514D02*
X181864904Y-88264514D01*
X181626809Y-87931180D02*
X181626809Y-88788323D01*
X181674428Y-88883561D01*
X181769666Y-88931180D01*
X181864904Y-88931180D01*
X182341095Y-88931180D02*
X182245857Y-88883561D01*
X182198238Y-88835942D01*
X182150619Y-88740704D01*
X182150619Y-88454990D01*
X182198238Y-88359752D01*
X182245857Y-88312133D01*
X182341095Y-88264514D01*
X182483952Y-88264514D01*
X182579190Y-88312133D01*
X182626809Y-88359752D01*
X182674428Y-88454990D01*
X182674428Y-88740704D01*
X182626809Y-88835942D01*
X182579190Y-88883561D01*
X182483952Y-88931180D01*
X182341095Y-88931180D01*
X172483952Y-90533561D02*
X172579190Y-90581180D01*
X172769666Y-90581180D01*
X172864904Y-90533561D01*
X172912523Y-90438323D01*
X172912523Y-90390704D01*
X172864904Y-90295466D01*
X172769666Y-90247847D01*
X172626809Y-90247847D01*
X172531571Y-90200228D01*
X172483952Y-90104990D01*
X172483952Y-90057371D01*
X172531571Y-89962133D01*
X172626809Y-89914514D01*
X172769666Y-89914514D01*
X172864904Y-89962133D01*
X173722047Y-90533561D02*
X173626809Y-90581180D01*
X173436333Y-90581180D01*
X173341095Y-90533561D01*
X173293476Y-90438323D01*
X173293476Y-90057371D01*
X173341095Y-89962133D01*
X173436333Y-89914514D01*
X173626809Y-89914514D01*
X173722047Y-89962133D01*
X173769666Y-90057371D01*
X173769666Y-90152609D01*
X173293476Y-90247847D01*
X174198238Y-89914514D02*
X174198238Y-90581180D01*
X174198238Y-90009752D02*
X174245857Y-89962133D01*
X174341095Y-89914514D01*
X174483952Y-89914514D01*
X174579190Y-89962133D01*
X174626809Y-90057371D01*
X174626809Y-90581180D01*
X175531571Y-90581180D02*
X175531571Y-89581180D01*
X175531571Y-90533561D02*
X175436333Y-90581180D01*
X175245857Y-90581180D01*
X175150619Y-90533561D01*
X175103000Y-90485942D01*
X175055380Y-90390704D01*
X175055380Y-90104990D01*
X175103000Y-90009752D01*
X175150619Y-89962133D01*
X175245857Y-89914514D01*
X175436333Y-89914514D01*
X175531571Y-89962133D01*
X176769666Y-90057371D02*
X177103000Y-90057371D01*
X177245857Y-90581180D02*
X176769666Y-90581180D01*
X176769666Y-89581180D01*
X177245857Y-89581180D01*
X177674428Y-90581180D02*
X177674428Y-89581180D01*
X177912523Y-89581180D01*
X178055380Y-89628800D01*
X178150619Y-89724038D01*
X178198238Y-89819276D01*
X178245857Y-90009752D01*
X178245857Y-90152609D01*
X178198238Y-90343085D01*
X178150619Y-90438323D01*
X178055380Y-90533561D01*
X177912523Y-90581180D01*
X177674428Y-90581180D01*
X178674428Y-90581180D02*
X178674428Y-89581180D01*
X179150619Y-90581180D02*
X179150619Y-89581180D01*
X179388714Y-89581180D01*
X179531571Y-89628800D01*
X179626809Y-89724038D01*
X179674428Y-89819276D01*
X179722047Y-90009752D01*
X179722047Y-90152609D01*
X179674428Y-90343085D01*
X179626809Y-90438323D01*
X179531571Y-90533561D01*
X179388714Y-90581180D01*
X179150619Y-90581180D01*
X134586904Y-107078666D02*
X133786904Y-107078666D01*
X133786904Y-106773904D01*
X133825000Y-106697714D01*
X133863095Y-106659619D01*
X133939285Y-106621523D01*
X134053571Y-106621523D01*
X134129761Y-106659619D01*
X134167857Y-106697714D01*
X134205952Y-106773904D01*
X134205952Y-107078666D01*
X133786904Y-106354857D02*
X134586904Y-106164380D01*
X134015476Y-106012000D01*
X134586904Y-105859619D01*
X133786904Y-105669142D01*
X134586904Y-104907238D02*
X134205952Y-105173904D01*
X134586904Y-105364380D02*
X133786904Y-105364380D01*
X133786904Y-105059619D01*
X133825000Y-104983428D01*
X133863095Y-104945333D01*
X133939285Y-104907238D01*
X134053571Y-104907238D01*
X134129761Y-104945333D01*
X134167857Y-104983428D01*
X134205952Y-105059619D01*
X134205952Y-105364380D01*
X135936904Y-106526285D02*
X135936904Y-106907238D01*
X135136904Y-106907238D01*
X135517857Y-106259619D02*
X135517857Y-105992952D01*
X135936904Y-105878666D02*
X135936904Y-106259619D01*
X135136904Y-106259619D01*
X135136904Y-105878666D01*
X135936904Y-105535809D02*
X135136904Y-105535809D01*
X135136904Y-105345333D01*
X135175000Y-105231047D01*
X135251190Y-105154857D01*
X135327380Y-105116761D01*
X135479761Y-105078666D01*
X135594047Y-105078666D01*
X135746428Y-105116761D01*
X135822619Y-105154857D01*
X135898809Y-105231047D01*
X135936904Y-105345333D01*
X135936904Y-105535809D01*
X134586904Y-81302666D02*
X133786904Y-81302666D01*
X133786904Y-80997904D01*
X133825000Y-80921714D01*
X133863095Y-80883619D01*
X133939285Y-80845523D01*
X134053571Y-80845523D01*
X134129761Y-80883619D01*
X134167857Y-80921714D01*
X134205952Y-80997904D01*
X134205952Y-81302666D01*
X133786904Y-80578857D02*
X134586904Y-80388380D01*
X134015476Y-80236000D01*
X134586904Y-80083619D01*
X133786904Y-79893142D01*
X134586904Y-79131238D02*
X134205952Y-79397904D01*
X134586904Y-79588380D02*
X133786904Y-79588380D01*
X133786904Y-79283619D01*
X133825000Y-79207428D01*
X133863095Y-79169333D01*
X133939285Y-79131238D01*
X134053571Y-79131238D01*
X134129761Y-79169333D01*
X134167857Y-79207428D01*
X134205952Y-79283619D01*
X134205952Y-79588380D01*
X135517857Y-82045523D02*
X135555952Y-81931238D01*
X135594047Y-81893142D01*
X135670238Y-81855047D01*
X135784523Y-81855047D01*
X135860714Y-81893142D01*
X135898809Y-81931238D01*
X135936904Y-82007428D01*
X135936904Y-82312190D01*
X135136904Y-82312190D01*
X135136904Y-82045523D01*
X135175000Y-81969333D01*
X135213095Y-81931238D01*
X135289285Y-81893142D01*
X135365476Y-81893142D01*
X135441666Y-81931238D01*
X135479761Y-81969333D01*
X135517857Y-82045523D01*
X135517857Y-82312190D01*
X135136904Y-81512190D02*
X135784523Y-81512190D01*
X135860714Y-81474095D01*
X135898809Y-81436000D01*
X135936904Y-81359809D01*
X135936904Y-81207428D01*
X135898809Y-81131238D01*
X135860714Y-81093142D01*
X135784523Y-81055047D01*
X135136904Y-81055047D01*
X135136904Y-80788380D02*
X135136904Y-80331238D01*
X135936904Y-80559809D02*
X135136904Y-80559809D01*
X135136904Y-80178857D02*
X135136904Y-79721714D01*
X135936904Y-79950285D02*
X135136904Y-79950285D01*
X135136904Y-79302666D02*
X135136904Y-79150285D01*
X135175000Y-79074095D01*
X135251190Y-78997904D01*
X135403571Y-78959809D01*
X135670238Y-78959809D01*
X135822619Y-78997904D01*
X135898809Y-79074095D01*
X135936904Y-79150285D01*
X135936904Y-79302666D01*
X135898809Y-79378857D01*
X135822619Y-79455047D01*
X135670238Y-79493142D01*
X135403571Y-79493142D01*
X135251190Y-79455047D01*
X135175000Y-79378857D01*
X135136904Y-79302666D01*
X135936904Y-78616952D02*
X135136904Y-78616952D01*
X135936904Y-78159809D01*
X135136904Y-78159809D01*
X134435809Y-87406180D02*
X134473904Y-87291895D01*
X134473904Y-87101419D01*
X134435809Y-87025228D01*
X134397714Y-86987133D01*
X134321523Y-86949038D01*
X134245333Y-86949038D01*
X134169142Y-86987133D01*
X134131047Y-87025228D01*
X134092952Y-87101419D01*
X134054857Y-87253800D01*
X134016761Y-87329990D01*
X133978666Y-87368085D01*
X133902476Y-87406180D01*
X133826285Y-87406180D01*
X133750095Y-87368085D01*
X133712000Y-87329990D01*
X133673904Y-87253800D01*
X133673904Y-87063323D01*
X133712000Y-86949038D01*
X134054857Y-86606180D02*
X134054857Y-86339514D01*
X134473904Y-86225228D02*
X134473904Y-86606180D01*
X133673904Y-86606180D01*
X133673904Y-86225228D01*
X134473904Y-85882371D02*
X133673904Y-85882371D01*
X134473904Y-85425228D01*
X133673904Y-85425228D01*
X134435809Y-85082371D02*
X134473904Y-84968085D01*
X134473904Y-84777609D01*
X134435809Y-84701419D01*
X134397714Y-84663323D01*
X134321523Y-84625228D01*
X134245333Y-84625228D01*
X134169142Y-84663323D01*
X134131047Y-84701419D01*
X134092952Y-84777609D01*
X134054857Y-84929990D01*
X134016761Y-85006180D01*
X133978666Y-85044276D01*
X133902476Y-85082371D01*
X133826285Y-85082371D01*
X133750095Y-85044276D01*
X133712000Y-85006180D01*
X133673904Y-84929990D01*
X133673904Y-84739514D01*
X133712000Y-84625228D01*
X134054857Y-84282371D02*
X134054857Y-84015704D01*
X134473904Y-83901419D02*
X134473904Y-84282371D01*
X133673904Y-84282371D01*
X133673904Y-83901419D01*
X134473904Y-100944571D02*
X133673904Y-100944571D01*
X133673904Y-100754095D01*
X133712000Y-100639809D01*
X133788190Y-100563619D01*
X133864380Y-100525523D01*
X134016761Y-100487428D01*
X134131047Y-100487428D01*
X134283428Y-100525523D01*
X134359619Y-100563619D01*
X134435809Y-100639809D01*
X134473904Y-100754095D01*
X134473904Y-100944571D01*
X134397714Y-99687428D02*
X134435809Y-99725523D01*
X134473904Y-99839809D01*
X134473904Y-99916000D01*
X134435809Y-100030285D01*
X134359619Y-100106476D01*
X134283428Y-100144571D01*
X134131047Y-100182666D01*
X134016761Y-100182666D01*
X133864380Y-100144571D01*
X133788190Y-100106476D01*
X133712000Y-100030285D01*
X133673904Y-99916000D01*
X133673904Y-99839809D01*
X133712000Y-99725523D01*
X133750095Y-99687428D01*
X133673904Y-99192190D02*
X133673904Y-99039809D01*
X133712000Y-98963619D01*
X133788190Y-98887428D01*
X133940571Y-98849333D01*
X134207238Y-98849333D01*
X134359619Y-98887428D01*
X134435809Y-98963619D01*
X134473904Y-99039809D01*
X134473904Y-99192190D01*
X134435809Y-99268380D01*
X134359619Y-99344571D01*
X134207238Y-99382666D01*
X133940571Y-99382666D01*
X133788190Y-99344571D01*
X133712000Y-99268380D01*
X133673904Y-99192190D01*
X134473904Y-96677333D02*
X133673904Y-96677333D01*
X133673904Y-96372571D01*
X133712000Y-96296380D01*
X133750095Y-96258285D01*
X133826285Y-96220190D01*
X133940571Y-96220190D01*
X134016761Y-96258285D01*
X134054857Y-96296380D01*
X134092952Y-96372571D01*
X134092952Y-96677333D01*
X134473904Y-95420190D02*
X134092952Y-95686857D01*
X134473904Y-95877333D02*
X133673904Y-95877333D01*
X133673904Y-95572571D01*
X133712000Y-95496380D01*
X133750095Y-95458285D01*
X133826285Y-95420190D01*
X133940571Y-95420190D01*
X134016761Y-95458285D01*
X134054857Y-95496380D01*
X134092952Y-95572571D01*
X134092952Y-95877333D01*
X133673904Y-94924952D02*
X133673904Y-94772571D01*
X133712000Y-94696380D01*
X133788190Y-94620190D01*
X133940571Y-94582095D01*
X134207238Y-94582095D01*
X134359619Y-94620190D01*
X134435809Y-94696380D01*
X134473904Y-94772571D01*
X134473904Y-94924952D01*
X134435809Y-95001142D01*
X134359619Y-95077333D01*
X134207238Y-95115428D01*
X133940571Y-95115428D01*
X133788190Y-95077333D01*
X133712000Y-95001142D01*
X133673904Y-94924952D01*
X133673904Y-94353523D02*
X133673904Y-93896380D01*
X134473904Y-94124952D02*
X133673904Y-94124952D01*
X134169142Y-91673523D02*
X134169142Y-91064000D01*
X134473904Y-90264000D02*
X134473904Y-90721142D01*
X134473904Y-90492571D02*
X133673904Y-90492571D01*
X133788190Y-90568761D01*
X133864380Y-90644952D01*
X133902476Y-90721142D01*
X133673904Y-89768761D02*
X133673904Y-89692571D01*
X133712000Y-89616380D01*
X133750095Y-89578285D01*
X133826285Y-89540190D01*
X133978666Y-89502095D01*
X134169142Y-89502095D01*
X134321523Y-89540190D01*
X134397714Y-89578285D01*
X134435809Y-89616380D01*
X134473904Y-89692571D01*
X134473904Y-89768761D01*
X134435809Y-89844952D01*
X134397714Y-89883047D01*
X134321523Y-89921142D01*
X134169142Y-89959238D01*
X133978666Y-89959238D01*
X133826285Y-89921142D01*
X133750095Y-89883047D01*
X133712000Y-89844952D01*
X133673904Y-89768761D01*
X133673904Y-89273523D02*
X134473904Y-89006857D01*
X133673904Y-88740190D01*
X195547795Y-85472832D02*
X196580487Y-85684156D01*
X195881128Y-84895481D01*
X196350939Y-84176983D02*
X196262081Y-84235652D01*
X196190652Y-84359370D01*
X196160463Y-84506898D01*
X196195323Y-84636995D01*
X196253992Y-84725854D01*
X196395139Y-84862331D01*
X196518857Y-84933760D01*
X196707624Y-84987759D01*
X196813912Y-84994138D01*
X196944010Y-84959279D01*
X197056678Y-84859370D01*
X197104297Y-84776892D01*
X197134486Y-84629364D01*
X197117056Y-84564315D01*
X196828381Y-84397649D01*
X196733143Y-84562606D01*
X197142575Y-84139163D02*
X197380670Y-83726770D01*
X197342392Y-84364499D02*
X196643033Y-83575824D01*
X197675725Y-83787148D01*
X188872038Y-70189514D02*
X188824419Y-70332371D01*
X188824419Y-70570466D01*
X188872038Y-70665704D01*
X188919657Y-70713323D01*
X189014895Y-70760942D01*
X189110133Y-70760942D01*
X189205371Y-70713323D01*
X189252990Y-70665704D01*
X189300609Y-70570466D01*
X189348228Y-70379990D01*
X189395847Y-70284752D01*
X189443466Y-70237133D01*
X189538704Y-70189514D01*
X189633942Y-70189514D01*
X189729180Y-70237133D01*
X189776800Y-70284752D01*
X189824419Y-70379990D01*
X189824419Y-70618085D01*
X189776800Y-70760942D01*
X188824419Y-71189514D02*
X189824419Y-71189514D01*
X189824419Y-71427609D01*
X189776800Y-71570466D01*
X189681561Y-71665704D01*
X189586323Y-71713323D01*
X189395847Y-71760942D01*
X189252990Y-71760942D01*
X189062514Y-71713323D01*
X188967276Y-71665704D01*
X188872038Y-71570466D01*
X188824419Y-71427609D01*
X188824419Y-71189514D01*
X189110133Y-72141895D02*
X189110133Y-72618085D01*
X188824419Y-72046657D02*
X189824419Y-72379990D01*
X188824419Y-72713323D01*
X187153000Y-70641895D02*
X187200619Y-70546657D01*
X187200619Y-70403800D01*
X187153000Y-70260942D01*
X187057761Y-70165704D01*
X186962523Y-70118085D01*
X186772047Y-70070466D01*
X186629190Y-70070466D01*
X186438714Y-70118085D01*
X186343476Y-70165704D01*
X186248238Y-70260942D01*
X186200619Y-70403800D01*
X186200619Y-70499038D01*
X186248238Y-70641895D01*
X186295857Y-70689514D01*
X186629190Y-70689514D01*
X186629190Y-70499038D01*
X186200619Y-71118085D02*
X187200619Y-71118085D01*
X186200619Y-71689514D01*
X187200619Y-71689514D01*
X186200619Y-72165704D02*
X187200619Y-72165704D01*
X187200619Y-72403800D01*
X187153000Y-72546657D01*
X187057761Y-72641895D01*
X186962523Y-72689514D01*
X186772047Y-72737133D01*
X186629190Y-72737133D01*
X186438714Y-72689514D01*
X186343476Y-72641895D01*
X186248238Y-72546657D01*
X186200619Y-72403800D01*
X186200619Y-72165704D01*
X183450619Y-70118085D02*
X184450619Y-70118085D01*
X184450619Y-70356180D01*
X184403000Y-70499038D01*
X184307761Y-70594276D01*
X184212523Y-70641895D01*
X184022047Y-70689514D01*
X183879190Y-70689514D01*
X183688714Y-70641895D01*
X183593476Y-70594276D01*
X183498238Y-70499038D01*
X183450619Y-70356180D01*
X183450619Y-70118085D01*
X183545857Y-71689514D02*
X183498238Y-71641895D01*
X183450619Y-71499038D01*
X183450619Y-71403800D01*
X183498238Y-71260942D01*
X183593476Y-71165704D01*
X183688714Y-71118085D01*
X183879190Y-71070466D01*
X184022047Y-71070466D01*
X184212523Y-71118085D01*
X184307761Y-71165704D01*
X184403000Y-71260942D01*
X184450619Y-71403800D01*
X184450619Y-71499038D01*
X184403000Y-71641895D01*
X184355380Y-71689514D01*
X184450619Y-72308561D02*
X184450619Y-72499038D01*
X184403000Y-72594276D01*
X184307761Y-72689514D01*
X184117285Y-72737133D01*
X183783952Y-72737133D01*
X183593476Y-72689514D01*
X183498238Y-72594276D01*
X183450619Y-72499038D01*
X183450619Y-72308561D01*
X183498238Y-72213323D01*
X183593476Y-72118085D01*
X183783952Y-72070466D01*
X184117285Y-72070466D01*
X184307761Y-72118085D01*
X184403000Y-72213323D01*
X184450619Y-72308561D01*
X180950619Y-69987133D02*
X181950619Y-69987133D01*
X181950619Y-70368085D01*
X181903000Y-70463323D01*
X181855380Y-70510942D01*
X181760142Y-70558561D01*
X181617285Y-70558561D01*
X181522047Y-70510942D01*
X181474428Y-70463323D01*
X181426809Y-70368085D01*
X181426809Y-69987133D01*
X180950619Y-71558561D02*
X181426809Y-71225228D01*
X180950619Y-70987133D02*
X181950619Y-70987133D01*
X181950619Y-71368085D01*
X181903000Y-71463323D01*
X181855380Y-71510942D01*
X181760142Y-71558561D01*
X181617285Y-71558561D01*
X181522047Y-71510942D01*
X181474428Y-71463323D01*
X181426809Y-71368085D01*
X181426809Y-70987133D01*
X181950619Y-72177609D02*
X181950619Y-72368085D01*
X181903000Y-72463323D01*
X181807761Y-72558561D01*
X181617285Y-72606180D01*
X181283952Y-72606180D01*
X181093476Y-72558561D01*
X180998238Y-72463323D01*
X180950619Y-72368085D01*
X180950619Y-72177609D01*
X180998238Y-72082371D01*
X181093476Y-71987133D01*
X181283952Y-71939514D01*
X181617285Y-71939514D01*
X181807761Y-71987133D01*
X181903000Y-72082371D01*
X181950619Y-72177609D01*
X181950619Y-72891895D02*
X181950619Y-73463323D01*
X180950619Y-73177609D02*
X181950619Y-73177609D01*
X178664419Y-69945266D02*
X179664419Y-69945266D01*
X179188228Y-69945266D02*
X179188228Y-70516695D01*
X178664419Y-70516695D02*
X179664419Y-70516695D01*
X179045371Y-70992885D02*
X179045371Y-71754790D01*
X178712038Y-72183361D02*
X178664419Y-72326219D01*
X178664419Y-72564314D01*
X178712038Y-72659552D01*
X178759657Y-72707171D01*
X178854895Y-72754790D01*
X178950133Y-72754790D01*
X179045371Y-72707171D01*
X179092990Y-72659552D01*
X179140609Y-72564314D01*
X179188228Y-72373838D01*
X179235847Y-72278600D01*
X179283466Y-72230980D01*
X179378704Y-72183361D01*
X179473942Y-72183361D01*
X179569180Y-72230980D01*
X179616800Y-72278600D01*
X179664419Y-72373838D01*
X179664419Y-72611933D01*
X179616800Y-72754790D01*
X179140609Y-73373838D02*
X178664419Y-73373838D01*
X179664419Y-73040504D02*
X179140609Y-73373838D01*
X179664419Y-73707171D01*
X178664419Y-74040504D02*
X179664419Y-74040504D01*
X178664419Y-74611933D01*
X179664419Y-74611933D01*
X178759657Y-75659552D02*
X178712038Y-75611933D01*
X178664419Y-75469076D01*
X178664419Y-75373838D01*
X178712038Y-75230980D01*
X178807276Y-75135742D01*
X178902514Y-75088123D01*
X179092990Y-75040504D01*
X179235847Y-75040504D01*
X179426323Y-75088123D01*
X179521561Y-75135742D01*
X179616800Y-75230980D01*
X179664419Y-75373838D01*
X179664419Y-75469076D01*
X179616800Y-75611933D01*
X179569180Y-75659552D01*
X176997419Y-69897647D02*
X175997419Y-70230980D01*
X176997419Y-70564314D01*
X176378371Y-70897647D02*
X176378371Y-71659552D01*
X176045038Y-72088123D02*
X175997419Y-72230980D01*
X175997419Y-72469076D01*
X176045038Y-72564314D01*
X176092657Y-72611933D01*
X176187895Y-72659552D01*
X176283133Y-72659552D01*
X176378371Y-72611933D01*
X176425990Y-72564314D01*
X176473609Y-72469076D01*
X176521228Y-72278600D01*
X176568847Y-72183361D01*
X176616466Y-72135742D01*
X176711704Y-72088123D01*
X176806942Y-72088123D01*
X176902180Y-72135742D01*
X176949800Y-72183361D01*
X176997419Y-72278600D01*
X176997419Y-72516695D01*
X176949800Y-72659552D01*
X176473609Y-73278600D02*
X175997419Y-73278600D01*
X176997419Y-72945266D02*
X176473609Y-73278600D01*
X176997419Y-73611933D01*
X175997419Y-73945266D02*
X176997419Y-73945266D01*
X175997419Y-74516695D01*
X176997419Y-74516695D01*
X176092657Y-75564314D02*
X176045038Y-75516695D01*
X175997419Y-75373838D01*
X175997419Y-75278600D01*
X176045038Y-75135742D01*
X176140276Y-75040504D01*
X176235514Y-74992885D01*
X176425990Y-74945266D01*
X176568847Y-74945266D01*
X176759323Y-74992885D01*
X176854561Y-75040504D01*
X176949800Y-75135742D01*
X176997419Y-75278600D01*
X176997419Y-75373838D01*
X176949800Y-75516695D01*
X176902180Y-75564314D01*
X173974428Y-70594276D02*
X173926809Y-70737133D01*
X173879190Y-70784752D01*
X173783952Y-70832371D01*
X173641095Y-70832371D01*
X173545857Y-70784752D01*
X173498238Y-70737133D01*
X173450619Y-70641895D01*
X173450619Y-70260942D01*
X174450619Y-70260942D01*
X174450619Y-70594276D01*
X174403000Y-70689514D01*
X174355380Y-70737133D01*
X174260142Y-70784752D01*
X174164904Y-70784752D01*
X174069666Y-70737133D01*
X174022047Y-70689514D01*
X173974428Y-70594276D01*
X173974428Y-70260942D01*
X173450619Y-71737133D02*
X173450619Y-71260942D01*
X174450619Y-71260942D01*
X174450619Y-72070466D02*
X173641095Y-72070466D01*
X173545857Y-72118085D01*
X173498238Y-72165704D01*
X173450619Y-72260942D01*
X173450619Y-72451419D01*
X173498238Y-72546657D01*
X173545857Y-72594276D01*
X173641095Y-72641895D01*
X174450619Y-72641895D01*
X173974428Y-73118085D02*
X173974428Y-73451419D01*
X173450619Y-73594276D02*
X173450619Y-73118085D01*
X174450619Y-73118085D01*
X174450619Y-73594276D01*
X171903000Y-70487133D02*
X171950619Y-70391895D01*
X171950619Y-70249038D01*
X171903000Y-70106180D01*
X171807761Y-70010942D01*
X171712523Y-69963323D01*
X171522047Y-69915704D01*
X171379190Y-69915704D01*
X171188714Y-69963323D01*
X171093476Y-70010942D01*
X170998238Y-70106180D01*
X170950619Y-70249038D01*
X170950619Y-70344276D01*
X170998238Y-70487133D01*
X171045857Y-70534752D01*
X171379190Y-70534752D01*
X171379190Y-70344276D01*
X170950619Y-71534752D02*
X171426809Y-71201419D01*
X170950619Y-70963323D02*
X171950619Y-70963323D01*
X171950619Y-71344276D01*
X171903000Y-71439514D01*
X171855380Y-71487133D01*
X171760142Y-71534752D01*
X171617285Y-71534752D01*
X171522047Y-71487133D01*
X171474428Y-71439514D01*
X171426809Y-71344276D01*
X171426809Y-70963323D01*
X171474428Y-71963323D02*
X171474428Y-72296657D01*
X170950619Y-72439514D02*
X170950619Y-71963323D01*
X171950619Y-71963323D01*
X171950619Y-72439514D01*
X171474428Y-72868085D02*
X171474428Y-73201419D01*
X170950619Y-73344276D02*
X170950619Y-72868085D01*
X171950619Y-72868085D01*
X171950619Y-73344276D01*
X170950619Y-73772847D02*
X171950619Y-73772847D01*
X170950619Y-74344276D01*
X171950619Y-74344276D01*
X168450619Y-70760942D02*
X168926809Y-70427609D01*
X168450619Y-70189514D02*
X169450619Y-70189514D01*
X169450619Y-70570466D01*
X169403000Y-70665704D01*
X169355380Y-70713323D01*
X169260142Y-70760942D01*
X169117285Y-70760942D01*
X169022047Y-70713323D01*
X168974428Y-70665704D01*
X168926809Y-70570466D01*
X168926809Y-70189514D01*
X168974428Y-71189514D02*
X168974428Y-71522847D01*
X168450619Y-71665704D02*
X168450619Y-71189514D01*
X169450619Y-71189514D01*
X169450619Y-71665704D01*
X168450619Y-72094276D02*
X169450619Y-72094276D01*
X169450619Y-72332371D01*
X169403000Y-72475228D01*
X169307761Y-72570466D01*
X169212523Y-72618085D01*
X169022047Y-72665704D01*
X168879190Y-72665704D01*
X168688714Y-72618085D01*
X168593476Y-72570466D01*
X168498238Y-72475228D01*
X168450619Y-72332371D01*
X168450619Y-72094276D01*
X165200619Y-70737133D02*
X165200619Y-70260942D01*
X166200619Y-70260942D01*
X165200619Y-71070466D02*
X166200619Y-71070466D01*
X165200619Y-71546657D02*
X166200619Y-71546657D01*
X165200619Y-72118085D01*
X166200619Y-72118085D01*
X165724428Y-72594276D02*
X165724428Y-72927609D01*
X165200619Y-73070466D02*
X165200619Y-72594276D01*
X166200619Y-72594276D01*
X166200619Y-73070466D01*
X165248238Y-74213323D02*
X165200619Y-74356180D01*
X165200619Y-74594276D01*
X165248238Y-74689514D01*
X165295857Y-74737133D01*
X165391095Y-74784752D01*
X165486333Y-74784752D01*
X165581571Y-74737133D01*
X165629190Y-74689514D01*
X165676809Y-74594276D01*
X165724428Y-74403800D01*
X165772047Y-74308561D01*
X165819666Y-74260942D01*
X165914904Y-74213323D01*
X166010142Y-74213323D01*
X166105380Y-74260942D01*
X166153000Y-74308561D01*
X166200619Y-74403800D01*
X166200619Y-74641895D01*
X166153000Y-74784752D01*
X165724428Y-75213323D02*
X165724428Y-75546657D01*
X165200619Y-75689514D02*
X165200619Y-75213323D01*
X166200619Y-75213323D01*
X166200619Y-75689514D01*
X165200619Y-76118085D02*
X166200619Y-76118085D01*
X165200619Y-76689514D01*
X166200619Y-76689514D01*
X165248238Y-77118085D02*
X165200619Y-77260942D01*
X165200619Y-77499038D01*
X165248238Y-77594276D01*
X165295857Y-77641895D01*
X165391095Y-77689514D01*
X165486333Y-77689514D01*
X165581571Y-77641895D01*
X165629190Y-77594276D01*
X165676809Y-77499038D01*
X165724428Y-77308561D01*
X165772047Y-77213323D01*
X165819666Y-77165704D01*
X165914904Y-77118085D01*
X166010142Y-77118085D01*
X166105380Y-77165704D01*
X166153000Y-77213323D01*
X166200619Y-77308561D01*
X166200619Y-77546657D01*
X166153000Y-77689514D01*
X165724428Y-78118085D02*
X165724428Y-78451419D01*
X165200619Y-78594276D02*
X165200619Y-78118085D01*
X166200619Y-78118085D01*
X166200619Y-78594276D01*
X165666800Y-62979204D02*
X165619180Y-63074442D01*
X165619180Y-63217300D01*
X165666800Y-63360157D01*
X165762038Y-63455395D01*
X165857276Y-63503014D01*
X166047752Y-63550633D01*
X166190609Y-63550633D01*
X166381085Y-63503014D01*
X166476323Y-63455395D01*
X166571561Y-63360157D01*
X166619180Y-63217300D01*
X166619180Y-63122061D01*
X166571561Y-62979204D01*
X166523942Y-62931585D01*
X166190609Y-62931585D01*
X166190609Y-63122061D01*
X166619180Y-62503014D02*
X165619180Y-62503014D01*
X166619180Y-61931585D01*
X165619180Y-61931585D01*
X166619180Y-61455395D02*
X165619180Y-61455395D01*
X165619180Y-61217300D01*
X165666800Y-61074442D01*
X165762038Y-60979204D01*
X165857276Y-60931585D01*
X166047752Y-60883966D01*
X166190609Y-60883966D01*
X166381085Y-60931585D01*
X166476323Y-60979204D01*
X166571561Y-61074442D01*
X166619180Y-61217300D01*
X166619180Y-61455395D01*
X168206800Y-62836157D02*
X168159180Y-62931395D01*
X168159180Y-63074252D01*
X168206800Y-63217109D01*
X168302038Y-63312347D01*
X168397276Y-63359966D01*
X168587752Y-63407585D01*
X168730609Y-63407585D01*
X168921085Y-63359966D01*
X169016323Y-63312347D01*
X169111561Y-63217109D01*
X169159180Y-63074252D01*
X169159180Y-62979014D01*
X169111561Y-62836157D01*
X169063942Y-62788538D01*
X168730609Y-62788538D01*
X168730609Y-62979014D01*
X169159180Y-62359966D02*
X168159180Y-62359966D01*
X169159180Y-61788538D01*
X168159180Y-61788538D01*
X169159180Y-61312347D02*
X168159180Y-61312347D01*
X168159180Y-61074252D01*
X168206800Y-60931395D01*
X168302038Y-60836157D01*
X168397276Y-60788538D01*
X168587752Y-60740919D01*
X168730609Y-60740919D01*
X168921085Y-60788538D01*
X169016323Y-60836157D01*
X169111561Y-60931395D01*
X169159180Y-61074252D01*
X169159180Y-61312347D01*
X169159180Y-58979014D02*
X168682990Y-59312347D01*
X169159180Y-59550442D02*
X168159180Y-59550442D01*
X168159180Y-59169490D01*
X168206800Y-59074252D01*
X168254419Y-59026633D01*
X168349657Y-58979014D01*
X168492514Y-58979014D01*
X168587752Y-59026633D01*
X168635371Y-59074252D01*
X168682990Y-59169490D01*
X168682990Y-59550442D01*
X169159180Y-58550442D02*
X168159180Y-58550442D01*
X168159180Y-58312347D01*
X168206800Y-58169490D01*
X168302038Y-58074252D01*
X168397276Y-58026633D01*
X168587752Y-57979014D01*
X168730609Y-57979014D01*
X168921085Y-58026633D01*
X169016323Y-58074252D01*
X169111561Y-58169490D01*
X169159180Y-58312347D01*
X169159180Y-58550442D01*
X170746800Y-62836157D02*
X170699180Y-62931395D01*
X170699180Y-63074252D01*
X170746800Y-63217109D01*
X170842038Y-63312347D01*
X170937276Y-63359966D01*
X171127752Y-63407585D01*
X171270609Y-63407585D01*
X171461085Y-63359966D01*
X171556323Y-63312347D01*
X171651561Y-63217109D01*
X171699180Y-63074252D01*
X171699180Y-62979014D01*
X171651561Y-62836157D01*
X171603942Y-62788538D01*
X171270609Y-62788538D01*
X171270609Y-62979014D01*
X171699180Y-62359966D02*
X170699180Y-62359966D01*
X171699180Y-61788538D01*
X170699180Y-61788538D01*
X171699180Y-61312347D02*
X170699180Y-61312347D01*
X170699180Y-61074252D01*
X170746800Y-60931395D01*
X170842038Y-60836157D01*
X170937276Y-60788538D01*
X171127752Y-60740919D01*
X171270609Y-60740919D01*
X171461085Y-60788538D01*
X171556323Y-60836157D01*
X171651561Y-60931395D01*
X171699180Y-61074252D01*
X171699180Y-61312347D01*
X170746800Y-59026633D02*
X170699180Y-59121871D01*
X170699180Y-59264728D01*
X170746800Y-59407585D01*
X170842038Y-59502823D01*
X170937276Y-59550442D01*
X171127752Y-59598061D01*
X171270609Y-59598061D01*
X171461085Y-59550442D01*
X171556323Y-59502823D01*
X171651561Y-59407585D01*
X171699180Y-59264728D01*
X171699180Y-59169490D01*
X171651561Y-59026633D01*
X171603942Y-58979014D01*
X171270609Y-58979014D01*
X171270609Y-59169490D01*
X171699180Y-57979014D02*
X171222990Y-58312347D01*
X171699180Y-58550442D02*
X170699180Y-58550442D01*
X170699180Y-58169490D01*
X170746800Y-58074252D01*
X170794419Y-58026633D01*
X170889657Y-57979014D01*
X171032514Y-57979014D01*
X171127752Y-58026633D01*
X171175371Y-58074252D01*
X171222990Y-58169490D01*
X171222990Y-58550442D01*
X173286800Y-62867919D02*
X173239180Y-62963157D01*
X173239180Y-63106014D01*
X173286800Y-63248871D01*
X173382038Y-63344109D01*
X173477276Y-63391728D01*
X173667752Y-63439347D01*
X173810609Y-63439347D01*
X174001085Y-63391728D01*
X174096323Y-63344109D01*
X174191561Y-63248871D01*
X174239180Y-63106014D01*
X174239180Y-63010776D01*
X174191561Y-62867919D01*
X174143942Y-62820300D01*
X173810609Y-62820300D01*
X173810609Y-63010776D01*
X174239180Y-62391728D02*
X173239180Y-62391728D01*
X174239180Y-61820300D01*
X173239180Y-61820300D01*
X174239180Y-61344109D02*
X173239180Y-61344109D01*
X173239180Y-61106014D01*
X173286800Y-60963157D01*
X173382038Y-60867919D01*
X173477276Y-60820300D01*
X173667752Y-60772680D01*
X173810609Y-60772680D01*
X174001085Y-60820300D01*
X174096323Y-60867919D01*
X174191561Y-60963157D01*
X174239180Y-61106014D01*
X174239180Y-61344109D01*
X173715371Y-59248871D02*
X173762990Y-59106014D01*
X173810609Y-59058395D01*
X173905847Y-59010776D01*
X174048704Y-59010776D01*
X174143942Y-59058395D01*
X174191561Y-59106014D01*
X174239180Y-59201252D01*
X174239180Y-59582204D01*
X173239180Y-59582204D01*
X173239180Y-59248871D01*
X173286800Y-59153633D01*
X173334419Y-59106014D01*
X173429657Y-59058395D01*
X173524895Y-59058395D01*
X173620133Y-59106014D01*
X173667752Y-59153633D01*
X173715371Y-59248871D01*
X173715371Y-59582204D01*
X174239180Y-58106014D02*
X174239180Y-58582204D01*
X173239180Y-58582204D01*
X176982380Y-68516476D02*
X176982380Y-68992666D01*
X175982380Y-68992666D01*
X176982380Y-68183142D02*
X175982380Y-68183142D01*
X175982380Y-67802190D01*
X176030000Y-67706952D01*
X176077619Y-67659333D01*
X176172857Y-67611714D01*
X176315714Y-67611714D01*
X176410952Y-67659333D01*
X176458571Y-67706952D01*
X176506190Y-67802190D01*
X176506190Y-68183142D01*
X179319180Y-63352204D02*
X178319180Y-63352204D01*
X178319180Y-62971252D01*
X178366800Y-62876014D01*
X178414419Y-62828395D01*
X178509657Y-62780776D01*
X178652514Y-62780776D01*
X178747752Y-62828395D01*
X178795371Y-62876014D01*
X178842990Y-62971252D01*
X178842990Y-63352204D01*
X178795371Y-62018871D02*
X178795371Y-62352204D01*
X179319180Y-62352204D02*
X178319180Y-62352204D01*
X178319180Y-61876014D01*
X178319180Y-61590300D02*
X179319180Y-61352204D01*
X178604895Y-61161728D01*
X179319180Y-60971252D01*
X178319180Y-60733157D01*
X181351228Y-63217204D02*
X181351228Y-62455300D01*
X181732180Y-61455300D02*
X181732180Y-62026728D01*
X181732180Y-61741014D02*
X180732180Y-61741014D01*
X180875038Y-61836252D01*
X180970276Y-61931490D01*
X181017895Y-62026728D01*
X180732180Y-60836252D02*
X180732180Y-60741014D01*
X180779800Y-60645776D01*
X180827419Y-60598157D01*
X180922657Y-60550538D01*
X181113133Y-60502919D01*
X181351228Y-60502919D01*
X181541704Y-60550538D01*
X181636942Y-60598157D01*
X181684561Y-60645776D01*
X181732180Y-60741014D01*
X181732180Y-60836252D01*
X181684561Y-60931490D01*
X181636942Y-60979109D01*
X181541704Y-61026728D01*
X181351228Y-61074347D01*
X181113133Y-61074347D01*
X180922657Y-61026728D01*
X180827419Y-60979109D01*
X180779800Y-60931490D01*
X180732180Y-60836252D01*
X180732180Y-60217204D02*
X181732180Y-59883871D01*
X180732180Y-59550538D01*
X183399180Y-62899680D02*
X183399180Y-63375871D01*
X183875371Y-63423490D01*
X183827752Y-63375871D01*
X183780133Y-63280633D01*
X183780133Y-63042538D01*
X183827752Y-62947300D01*
X183875371Y-62899680D01*
X183970609Y-62852061D01*
X184208704Y-62852061D01*
X184303942Y-62899680D01*
X184351561Y-62947300D01*
X184399180Y-63042538D01*
X184399180Y-63280633D01*
X184351561Y-63375871D01*
X184303942Y-63423490D01*
X183399180Y-62566347D02*
X184399180Y-62233014D01*
X183399180Y-61899680D01*
X183399180Y-60947300D02*
X183399180Y-60375871D01*
X184399180Y-60661585D02*
X183399180Y-60661585D01*
X184399180Y-59471109D02*
X183922990Y-59804442D01*
X184399180Y-60042538D02*
X183399180Y-60042538D01*
X183399180Y-59661585D01*
X183446800Y-59566347D01*
X183494419Y-59518728D01*
X183589657Y-59471109D01*
X183732514Y-59471109D01*
X183827752Y-59518728D01*
X183875371Y-59566347D01*
X183922990Y-59661585D01*
X183922990Y-60042538D01*
X184399180Y-59042538D02*
X183399180Y-59042538D01*
X184399180Y-58471109D02*
X183827752Y-58899680D01*
X183399180Y-58471109D02*
X183970609Y-59042538D01*
X185986800Y-62852204D02*
X185939180Y-62947442D01*
X185939180Y-63090300D01*
X185986800Y-63233157D01*
X186082038Y-63328395D01*
X186177276Y-63376014D01*
X186367752Y-63423633D01*
X186510609Y-63423633D01*
X186701085Y-63376014D01*
X186796323Y-63328395D01*
X186891561Y-63233157D01*
X186939180Y-63090300D01*
X186939180Y-62995061D01*
X186891561Y-62852204D01*
X186843942Y-62804585D01*
X186510609Y-62804585D01*
X186510609Y-62995061D01*
X186939180Y-62376014D02*
X185939180Y-62376014D01*
X186939180Y-61804585D01*
X185939180Y-61804585D01*
X186939180Y-61328395D02*
X185939180Y-61328395D01*
X185939180Y-61090300D01*
X185986800Y-60947442D01*
X186082038Y-60852204D01*
X186177276Y-60804585D01*
X186367752Y-60756966D01*
X186510609Y-60756966D01*
X186701085Y-60804585D01*
X186796323Y-60852204D01*
X186891561Y-60947442D01*
X186939180Y-61090300D01*
X186939180Y-61328395D01*
X189685561Y-63280776D02*
X189733180Y-63137919D01*
X189733180Y-62899823D01*
X189685561Y-62804585D01*
X189637942Y-62756966D01*
X189542704Y-62709347D01*
X189447466Y-62709347D01*
X189352228Y-62756966D01*
X189304609Y-62804585D01*
X189256990Y-62899823D01*
X189209371Y-63090300D01*
X189161752Y-63185538D01*
X189114133Y-63233157D01*
X189018895Y-63280776D01*
X188923657Y-63280776D01*
X188828419Y-63233157D01*
X188780800Y-63185538D01*
X188733180Y-63090300D01*
X188733180Y-62852204D01*
X188780800Y-62709347D01*
X189637942Y-61709347D02*
X189685561Y-61756966D01*
X189733180Y-61899823D01*
X189733180Y-61995061D01*
X189685561Y-62137919D01*
X189590323Y-62233157D01*
X189495085Y-62280776D01*
X189304609Y-62328395D01*
X189161752Y-62328395D01*
X188971276Y-62280776D01*
X188876038Y-62233157D01*
X188780800Y-62137919D01*
X188733180Y-61995061D01*
X188733180Y-61899823D01*
X188780800Y-61756966D01*
X188828419Y-61709347D01*
X189733180Y-60804585D02*
X189733180Y-61280776D01*
X188733180Y-61280776D01*
D11*
X160463000Y-72823800D02*
G75*
G02X158463000Y-72823800I-1000000J0D01*
G01*
X158463000Y-72823800D02*
X156813000Y-72823800D01*
X156813000Y-72823800D02*
X156813000Y-108503800D01*
X156813000Y-108503800D02*
X162113000Y-108503800D01*
X162113000Y-108503800D02*
X162113000Y-72823800D01*
X162113000Y-72823800D02*
X160463000Y-72823800D01*
X153178000Y-91218800D02*
X153178000Y-97468800D01*
X148128000Y-91218800D02*
X148128000Y-97468800D01*
X148128000Y-91218800D02*
G75*
G02X153178000Y-91218800I2525000J0D01*
G01*
X148128000Y-97468800D02*
G75*
G03X153178000Y-97468800I2525000J0D01*
G01*
X179183000Y-80033800D02*
X182123000Y-80033800D01*
X179183000Y-79793800D02*
X182123000Y-79793800D01*
X179183000Y-79913800D02*
X182123000Y-79913800D01*
X182123000Y-75373800D02*
X181993000Y-75373800D01*
X182123000Y-80813800D02*
X182123000Y-75373800D01*
X181993000Y-80813800D02*
X182123000Y-80813800D01*
X179183000Y-75373800D02*
X179313000Y-75373800D01*
X179183000Y-80813800D02*
X179183000Y-75373800D01*
X179313000Y-80813800D02*
X179183000Y-80813800D01*
X184313000Y-80563800D02*
X184183000Y-80563800D01*
X184183000Y-80563800D02*
X184183000Y-75123800D01*
X184183000Y-75123800D02*
X184313000Y-75123800D01*
X186993000Y-80563800D02*
X187123000Y-80563800D01*
X187123000Y-80563800D02*
X187123000Y-75123800D01*
X187123000Y-75123800D02*
X186993000Y-75123800D01*
X184183000Y-79663800D02*
X187123000Y-79663800D01*
X184183000Y-79543800D02*
X187123000Y-79543800D01*
X184183000Y-79783800D02*
X187123000Y-79783800D01*
X166863000Y-95863800D02*
X166533000Y-95863800D01*
X166533000Y-95863800D02*
X166533000Y-89323800D01*
X166533000Y-89323800D02*
X166863000Y-89323800D01*
X168943000Y-95863800D02*
X169273000Y-95863800D01*
X169273000Y-95863800D02*
X169273000Y-89323800D01*
X169273000Y-89323800D02*
X168943000Y-89323800D01*
X172713000Y-72823800D02*
G75*
G02X170713000Y-72823800I-1000000J0D01*
G01*
X170713000Y-72823800D02*
X169063000Y-72823800D01*
X169063000Y-72823800D02*
X169063000Y-83103800D01*
X169063000Y-83103800D02*
X174363000Y-83103800D01*
X174363000Y-83103800D02*
X174363000Y-72823800D01*
X174363000Y-72823800D02*
X172713000Y-72823800D01*
X198733000Y-79773800D02*
X198733000Y-79443800D01*
X192193000Y-79773800D02*
X198733000Y-79773800D01*
X192193000Y-79443800D02*
X192193000Y-79773800D01*
X198733000Y-77033800D02*
X198733000Y-77363800D01*
X192193000Y-77033800D02*
X198733000Y-77033800D01*
X192193000Y-77363800D02*
X192193000Y-77033800D01*
X143785000Y-80236000D02*
G75*
G03X143785000Y-80236000I-2180000J0D01*
G01*
X143785000Y-85236000D02*
G75*
G03X143785000Y-85236000I-2180000J0D01*
G01*
X143785000Y-90236000D02*
G75*
G03X143785000Y-90236000I-2180000J0D01*
G01*
X143785000Y-95236000D02*
G75*
G03X143785000Y-95236000I-2180000J0D01*
G01*
X143785000Y-100236000D02*
G75*
G03X143785000Y-100236000I-2180000J0D01*
G01*
X143785000Y-105236000D02*
G75*
G03X143785000Y-105236000I-2180000J0D01*
G01*
X137005000Y-77676000D02*
X137005000Y-107796000D01*
X138105000Y-77676000D02*
X138105000Y-107796000D01*
X145665000Y-77676000D02*
X145665000Y-107796000D01*
X136545000Y-77676000D02*
X136545000Y-107796000D01*
X145665000Y-77676000D02*
X136545000Y-77676000D01*
X145665000Y-107796000D02*
X136545000Y-107796000D01*
X142993000Y-81890000D02*
X142886000Y-81783000D01*
X140058000Y-78954000D02*
X139951000Y-78848000D01*
X143259000Y-81624000D02*
X143152000Y-81517000D01*
X140324000Y-78688000D02*
X140217000Y-78582000D01*
X142993000Y-86890000D02*
X142597000Y-86495000D01*
X140331000Y-84229000D02*
X139951000Y-83849000D01*
X143259000Y-86624000D02*
X142879000Y-86244000D01*
X140613000Y-83978000D02*
X140217000Y-83583000D01*
X142993000Y-91890000D02*
X142597000Y-91495000D01*
X140331000Y-89229000D02*
X139951000Y-88849000D01*
X143259000Y-91624000D02*
X142879000Y-91244000D01*
X140613000Y-88978000D02*
X140217000Y-88583000D01*
X142993000Y-96890000D02*
X142597000Y-96495000D01*
X140331000Y-94229000D02*
X139951000Y-93849000D01*
X143259000Y-96624000D02*
X142879000Y-96244000D01*
X140613000Y-93978000D02*
X140217000Y-93583000D01*
X142993000Y-101890000D02*
X142597000Y-101495000D01*
X140331000Y-99229000D02*
X139951000Y-98849000D01*
X143259000Y-101624000D02*
X142879000Y-101244000D01*
X140613000Y-98978000D02*
X140217000Y-98583000D01*
X142993000Y-106890000D02*
X142597000Y-106495000D01*
X140331000Y-104229000D02*
X139951000Y-103849000D01*
X143259000Y-106624000D02*
X142879000Y-106244000D01*
X140613000Y-103978000D02*
X140217000Y-103583000D01*
X136945000Y-77436000D02*
X136305000Y-77436000D01*
X136305000Y-77436000D02*
X136305000Y-77836000D01*
X191273000Y-90903800D02*
G75*
G03X191273000Y-90903800I-4120000J0D01*
G01*
X187153000Y-86823800D02*
X187153000Y-94983800D01*
X187193000Y-86823800D02*
X187193000Y-94983800D01*
X187233000Y-86823800D02*
X187233000Y-94983800D01*
X187273000Y-86824800D02*
X187273000Y-94982800D01*
X187313000Y-86826800D02*
X187313000Y-94980800D01*
X187353000Y-86827800D02*
X187353000Y-94979800D01*
X187393000Y-86829800D02*
X187393000Y-94977800D01*
X187433000Y-86832800D02*
X187433000Y-94974800D01*
X187473000Y-86835800D02*
X187473000Y-94971800D01*
X187513000Y-86838800D02*
X187513000Y-94968800D01*
X187553000Y-86842800D02*
X187553000Y-94964800D01*
X187593000Y-86846800D02*
X187593000Y-94960800D01*
X187633000Y-86851800D02*
X187633000Y-94955800D01*
X187673000Y-86855800D02*
X187673000Y-94951800D01*
X187713000Y-86861800D02*
X187713000Y-94945800D01*
X187753000Y-86866800D02*
X187753000Y-94940800D01*
X187793000Y-86873800D02*
X187793000Y-94933800D01*
X187833000Y-86879800D02*
X187833000Y-94927800D01*
X187874000Y-86886800D02*
X187874000Y-89863800D01*
X187874000Y-91943800D02*
X187874000Y-94920800D01*
X187914000Y-86893800D02*
X187914000Y-89863800D01*
X187914000Y-91943800D02*
X187914000Y-94913800D01*
X187954000Y-86901800D02*
X187954000Y-89863800D01*
X187954000Y-91943800D02*
X187954000Y-94905800D01*
X187994000Y-86909800D02*
X187994000Y-89863800D01*
X187994000Y-91943800D02*
X187994000Y-94897800D01*
X188034000Y-86918800D02*
X188034000Y-89863800D01*
X188034000Y-91943800D02*
X188034000Y-94888800D01*
X188074000Y-86927800D02*
X188074000Y-89863800D01*
X188074000Y-91943800D02*
X188074000Y-94879800D01*
X188114000Y-86936800D02*
X188114000Y-89863800D01*
X188114000Y-91943800D02*
X188114000Y-94870800D01*
X188154000Y-86946800D02*
X188154000Y-89863800D01*
X188154000Y-91943800D02*
X188154000Y-94860800D01*
X188194000Y-86956800D02*
X188194000Y-89863800D01*
X188194000Y-91943800D02*
X188194000Y-94850800D01*
X188234000Y-86967800D02*
X188234000Y-89863800D01*
X188234000Y-91943800D02*
X188234000Y-94839800D01*
X188274000Y-86978800D02*
X188274000Y-89863800D01*
X188274000Y-91943800D02*
X188274000Y-94828800D01*
X188314000Y-86989800D02*
X188314000Y-89863800D01*
X188314000Y-91943800D02*
X188314000Y-94817800D01*
X188354000Y-87001800D02*
X188354000Y-89863800D01*
X188354000Y-91943800D02*
X188354000Y-94805800D01*
X188394000Y-87014800D02*
X188394000Y-89863800D01*
X188394000Y-91943800D02*
X188394000Y-94792800D01*
X188434000Y-87026800D02*
X188434000Y-89863800D01*
X188434000Y-91943800D02*
X188434000Y-94780800D01*
X188474000Y-87040800D02*
X188474000Y-89863800D01*
X188474000Y-91943800D02*
X188474000Y-94766800D01*
X188514000Y-87053800D02*
X188514000Y-89863800D01*
X188514000Y-91943800D02*
X188514000Y-94753800D01*
X188554000Y-87068800D02*
X188554000Y-89863800D01*
X188554000Y-91943800D02*
X188554000Y-94738800D01*
X188594000Y-87082800D02*
X188594000Y-89863800D01*
X188594000Y-91943800D02*
X188594000Y-94724800D01*
X188634000Y-87098800D02*
X188634000Y-89863800D01*
X188634000Y-91943800D02*
X188634000Y-94708800D01*
X188674000Y-87113800D02*
X188674000Y-89863800D01*
X188674000Y-91943800D02*
X188674000Y-94693800D01*
X188714000Y-87129800D02*
X188714000Y-89863800D01*
X188714000Y-91943800D02*
X188714000Y-94677800D01*
X188754000Y-87146800D02*
X188754000Y-89863800D01*
X188754000Y-91943800D02*
X188754000Y-94660800D01*
X188794000Y-87163800D02*
X188794000Y-89863800D01*
X188794000Y-91943800D02*
X188794000Y-94643800D01*
X188834000Y-87181800D02*
X188834000Y-89863800D01*
X188834000Y-91943800D02*
X188834000Y-94625800D01*
X188874000Y-87199800D02*
X188874000Y-89863800D01*
X188874000Y-91943800D02*
X188874000Y-94607800D01*
X188914000Y-87217800D02*
X188914000Y-89863800D01*
X188914000Y-91943800D02*
X188914000Y-94589800D01*
X188954000Y-87237800D02*
X188954000Y-89863800D01*
X188954000Y-91943800D02*
X188954000Y-94569800D01*
X188994000Y-87256800D02*
X188994000Y-89863800D01*
X188994000Y-91943800D02*
X188994000Y-94550800D01*
X189034000Y-87276800D02*
X189034000Y-89863800D01*
X189034000Y-91943800D02*
X189034000Y-94530800D01*
X189074000Y-87297800D02*
X189074000Y-89863800D01*
X189074000Y-91943800D02*
X189074000Y-94509800D01*
X189114000Y-87319800D02*
X189114000Y-89863800D01*
X189114000Y-91943800D02*
X189114000Y-94487800D01*
X189154000Y-87341800D02*
X189154000Y-89863800D01*
X189154000Y-91943800D02*
X189154000Y-94465800D01*
X189194000Y-87363800D02*
X189194000Y-89863800D01*
X189194000Y-91943800D02*
X189194000Y-94443800D01*
X189234000Y-87386800D02*
X189234000Y-89863800D01*
X189234000Y-91943800D02*
X189234000Y-94420800D01*
X189274000Y-87410800D02*
X189274000Y-89863800D01*
X189274000Y-91943800D02*
X189274000Y-94396800D01*
X189314000Y-87434800D02*
X189314000Y-89863800D01*
X189314000Y-91943800D02*
X189314000Y-94372800D01*
X189354000Y-87459800D02*
X189354000Y-89863800D01*
X189354000Y-91943800D02*
X189354000Y-94347800D01*
X189394000Y-87485800D02*
X189394000Y-89863800D01*
X189394000Y-91943800D02*
X189394000Y-94321800D01*
X189434000Y-87511800D02*
X189434000Y-89863800D01*
X189434000Y-91943800D02*
X189434000Y-94295800D01*
X189474000Y-87538800D02*
X189474000Y-89863800D01*
X189474000Y-91943800D02*
X189474000Y-94268800D01*
X189514000Y-87565800D02*
X189514000Y-89863800D01*
X189514000Y-91943800D02*
X189514000Y-94241800D01*
X189554000Y-87594800D02*
X189554000Y-89863800D01*
X189554000Y-91943800D02*
X189554000Y-94212800D01*
X189594000Y-87623800D02*
X189594000Y-89863800D01*
X189594000Y-91943800D02*
X189594000Y-94183800D01*
X189634000Y-87653800D02*
X189634000Y-89863800D01*
X189634000Y-91943800D02*
X189634000Y-94153800D01*
X189674000Y-87683800D02*
X189674000Y-89863800D01*
X189674000Y-91943800D02*
X189674000Y-94123800D01*
X189714000Y-87714800D02*
X189714000Y-89863800D01*
X189714000Y-91943800D02*
X189714000Y-94092800D01*
X189754000Y-87747800D02*
X189754000Y-89863800D01*
X189754000Y-91943800D02*
X189754000Y-94059800D01*
X189794000Y-87779800D02*
X189794000Y-89863800D01*
X189794000Y-91943800D02*
X189794000Y-94027800D01*
X189834000Y-87813800D02*
X189834000Y-89863800D01*
X189834000Y-91943800D02*
X189834000Y-93993800D01*
X189874000Y-87848800D02*
X189874000Y-89863800D01*
X189874000Y-91943800D02*
X189874000Y-93958800D01*
X189914000Y-87884800D02*
X189914000Y-89863800D01*
X189914000Y-91943800D02*
X189914000Y-93922800D01*
X189954000Y-87920800D02*
X189954000Y-93886800D01*
X189994000Y-87958800D02*
X189994000Y-93848800D01*
X190034000Y-87996800D02*
X190034000Y-93810800D01*
X190074000Y-88036800D02*
X190074000Y-93770800D01*
X190114000Y-88077800D02*
X190114000Y-93729800D01*
X190154000Y-88119800D02*
X190154000Y-93687800D01*
X190194000Y-88162800D02*
X190194000Y-93644800D01*
X190234000Y-88206800D02*
X190234000Y-93600800D01*
X190274000Y-88252800D02*
X190274000Y-93554800D01*
X190314000Y-88299800D02*
X190314000Y-93507800D01*
X190354000Y-88347800D02*
X190354000Y-93459800D01*
X190394000Y-88398800D02*
X190394000Y-93408800D01*
X190434000Y-88449800D02*
X190434000Y-93357800D01*
X190474000Y-88503800D02*
X190474000Y-93303800D01*
X190514000Y-88558800D02*
X190514000Y-93248800D01*
X190554000Y-88616800D02*
X190554000Y-93190800D01*
X190594000Y-88675800D02*
X190594000Y-93131800D01*
X190634000Y-88737800D02*
X190634000Y-93069800D01*
X190674000Y-88801800D02*
X190674000Y-93005800D01*
X190714000Y-88869800D02*
X190714000Y-92937800D01*
X190754000Y-88939800D02*
X190754000Y-92867800D01*
X190794000Y-89013800D02*
X190794000Y-92793800D01*
X190834000Y-89090800D02*
X190834000Y-92716800D01*
X190874000Y-89172800D02*
X190874000Y-92634800D01*
X190914000Y-89258800D02*
X190914000Y-92548800D01*
X190954000Y-89351800D02*
X190954000Y-92455800D01*
X190994000Y-89450800D02*
X190994000Y-92356800D01*
X191034000Y-89557800D02*
X191034000Y-92249800D01*
X191074000Y-89674800D02*
X191074000Y-92132800D01*
X191114000Y-89805800D02*
X191114000Y-92001800D01*
X191154000Y-89955800D02*
X191154000Y-91851800D01*
X191194000Y-90135800D02*
X191194000Y-91671800D01*
X191234000Y-90370800D02*
X191234000Y-91436800D01*
X182743302Y-88588800D02*
X183543302Y-88588800D01*
X183143302Y-88188800D02*
X183143302Y-88988800D01*
X172153000Y-94103800D02*
X172153000Y-92703800D01*
X172853000Y-92003800D02*
X173453000Y-92003800D01*
X174153000Y-92703800D02*
X174153000Y-94103800D01*
X173453000Y-94803800D02*
X172853000Y-94803800D01*
X172853000Y-94803800D02*
G75*
G02X172153000Y-94103800I0J700000D01*
G01*
X174153000Y-94103800D02*
G75*
G02X173453000Y-94803800I-700000J0D01*
G01*
X173453000Y-92003800D02*
G75*
G02X174153000Y-92703800I0J-700000D01*
G01*
X172153000Y-92703800D02*
G75*
G02X172853000Y-92003800I700000J0D01*
G01*
X177653000Y-92453800D02*
G75*
G02X178353000Y-91753800I700000J0D01*
G01*
X178953000Y-91753800D02*
G75*
G02X179653000Y-92453800I0J-700000D01*
G01*
X179653000Y-93853800D02*
G75*
G02X178953000Y-94553800I-700000J0D01*
G01*
X178353000Y-94553800D02*
G75*
G02X177653000Y-93853800I0J700000D01*
G01*
X178953000Y-94553800D02*
X178353000Y-94553800D01*
X179653000Y-92453800D02*
X179653000Y-93853800D01*
X178353000Y-91753800D02*
X178953000Y-91753800D01*
X177653000Y-93853800D02*
X177653000Y-92453800D01*
X172483000Y-100244000D02*
X167283000Y-100244000D01*
X172483000Y-105384000D02*
X172483000Y-100244000D01*
X167283000Y-107984000D02*
X167283000Y-100244000D01*
X172483000Y-105384000D02*
X169883000Y-105384000D01*
X169883000Y-105384000D02*
X169883000Y-107984000D01*
X169883000Y-107984000D02*
X167283000Y-107984000D01*
X172483000Y-106654000D02*
X172483000Y-107984000D01*
X172483000Y-107984000D02*
X171153000Y-107984000D01*
X179073000Y-107814000D02*
X184273000Y-107814000D01*
X179073000Y-102674000D02*
X179073000Y-107814000D01*
X184273000Y-100074000D02*
X184273000Y-107814000D01*
X179073000Y-102674000D02*
X181673000Y-102674000D01*
X181673000Y-102674000D02*
X181673000Y-100074000D01*
X181673000Y-100074000D02*
X184273000Y-100074000D01*
X179073000Y-101404000D02*
X179073000Y-100074000D01*
X179073000Y-100074000D02*
X180403000Y-100074000D01*
X200111811Y-109676103D02*
X188082718Y-102731103D01*
X188082718Y-102731103D02*
X203567718Y-75910296D01*
X203567718Y-75910296D02*
X215596811Y-82855296D01*
X197083199Y-85353137D02*
X197333199Y-84920125D01*
X197333199Y-84920125D02*
X197583199Y-85353137D01*
X197583199Y-85353137D02*
X197083199Y-85353137D01*
X149598000Y-86523800D02*
X149283000Y-86523800D01*
X152023000Y-86523800D02*
X151708000Y-86523800D01*
X149598000Y-81283800D02*
X149283000Y-81283800D01*
X152023000Y-81283800D02*
X151708000Y-81283800D01*
X149283000Y-81283800D02*
X149283000Y-86523800D01*
X152023000Y-81283800D02*
X152023000Y-86523800D01*
X152023000Y-102034000D02*
X152023000Y-107274000D01*
X149283000Y-102034000D02*
X149283000Y-107274000D01*
X152023000Y-102034000D02*
X151708000Y-102034000D01*
X149598000Y-102034000D02*
X149283000Y-102034000D01*
X152023000Y-107274000D02*
X151708000Y-107274000D01*
X149598000Y-107274000D02*
X149283000Y-107274000D01*
X194323000Y-67283800D02*
X194323000Y-67613800D01*
X200863000Y-67283800D02*
X194323000Y-67283800D01*
X200863000Y-67613800D02*
X200863000Y-67283800D01*
X194323000Y-70023800D02*
X194323000Y-69693800D01*
X200863000Y-70023800D02*
X194323000Y-70023800D01*
X200863000Y-69693800D02*
X200863000Y-70023800D01*
X162113000Y-69943800D02*
X162113000Y-70273800D01*
X162113000Y-70273800D02*
X155573000Y-70273800D01*
X155573000Y-70273800D02*
X155573000Y-69943800D01*
X162113000Y-67863800D02*
X162113000Y-67533800D01*
X162113000Y-67533800D02*
X155573000Y-67533800D01*
X155573000Y-67533800D02*
X155573000Y-67863800D01*
X151403000Y-72903800D02*
G75*
G02X152103000Y-73603800I0J-700000D01*
G01*
X152103000Y-74203800D02*
G75*
G02X151403000Y-74903800I-700000J0D01*
G01*
X150003000Y-74903800D02*
G75*
G02X149303000Y-74203800I0J700000D01*
G01*
X149303000Y-73603800D02*
G75*
G02X150003000Y-72903800I700000J0D01*
G01*
X149303000Y-74203800D02*
X149303000Y-73603800D01*
X151403000Y-74903800D02*
X150003000Y-74903800D01*
X152103000Y-73603800D02*
X152103000Y-74203800D01*
X150003000Y-72903800D02*
X151403000Y-72903800D01*
D10*
X158701095Y-71276180D02*
X158701095Y-72085704D01*
X158748714Y-72180942D01*
X158796333Y-72228561D01*
X158891571Y-72276180D01*
X159082047Y-72276180D01*
X159177285Y-72228561D01*
X159224904Y-72180942D01*
X159272523Y-72085704D01*
X159272523Y-71276180D01*
X160272523Y-72276180D02*
X159701095Y-72276180D01*
X159986809Y-72276180D02*
X159986809Y-71276180D01*
X159891571Y-71419038D01*
X159796333Y-71514276D01*
X159701095Y-71561895D01*
X154154190Y-94819990D02*
X154630380Y-94819990D01*
X153630380Y-95153323D02*
X154154190Y-94819990D01*
X153630380Y-94486657D01*
X154630380Y-93629514D02*
X154630380Y-94200942D01*
X154630380Y-93915228D02*
X153630380Y-93915228D01*
X153773238Y-94010466D01*
X153868476Y-94105704D01*
X153916095Y-94200942D01*
X181105380Y-85689895D02*
X180105380Y-85689895D01*
X180105380Y-85451800D01*
X180153000Y-85308942D01*
X180248238Y-85213704D01*
X180343476Y-85166085D01*
X180533952Y-85118466D01*
X180676809Y-85118466D01*
X180867285Y-85166085D01*
X180962523Y-85213704D01*
X181057761Y-85308942D01*
X181105380Y-85451800D01*
X181105380Y-85689895D01*
X181105380Y-84166085D02*
X181105380Y-84737514D01*
X181105380Y-84451800D02*
X180105380Y-84451800D01*
X180248238Y-84547038D01*
X180343476Y-84642276D01*
X180391095Y-84737514D01*
X179005380Y-82165704D02*
X178005380Y-82165704D01*
X179005380Y-81594276D02*
X178433952Y-82022847D01*
X178005380Y-81594276D02*
X178576809Y-82165704D01*
X186105380Y-85439895D02*
X185105380Y-85439895D01*
X185105380Y-85201800D01*
X185153000Y-85058942D01*
X185248238Y-84963704D01*
X185343476Y-84916085D01*
X185533952Y-84868466D01*
X185676809Y-84868466D01*
X185867285Y-84916085D01*
X185962523Y-84963704D01*
X186057761Y-85058942D01*
X186105380Y-85201800D01*
X186105380Y-85439895D01*
X185200619Y-84487514D02*
X185153000Y-84439895D01*
X185105380Y-84344657D01*
X185105380Y-84106561D01*
X185153000Y-84011323D01*
X185200619Y-83963704D01*
X185295857Y-83916085D01*
X185391095Y-83916085D01*
X185533952Y-83963704D01*
X186105380Y-84535133D01*
X186105380Y-83916085D01*
X184005380Y-81915704D02*
X183005380Y-81915704D01*
X184005380Y-81344276D02*
X183433952Y-81772847D01*
X183005380Y-81344276D02*
X183576809Y-81915704D01*
X165985380Y-92760466D02*
X165509190Y-93093800D01*
X165985380Y-93331895D02*
X164985380Y-93331895D01*
X164985380Y-92950942D01*
X165033000Y-92855704D01*
X165080619Y-92808085D01*
X165175857Y-92760466D01*
X165318714Y-92760466D01*
X165413952Y-92808085D01*
X165461571Y-92855704D01*
X165509190Y-92950942D01*
X165509190Y-93331895D01*
X165318714Y-91903323D02*
X165985380Y-91903323D01*
X164937761Y-92141419D02*
X165652047Y-92379514D01*
X165652047Y-91760466D01*
X174591095Y-71206180D02*
X174591095Y-72015704D01*
X174638714Y-72110942D01*
X174686333Y-72158561D01*
X174781571Y-72206180D01*
X174972047Y-72206180D01*
X175067285Y-72158561D01*
X175114904Y-72110942D01*
X175162523Y-72015704D01*
X175162523Y-71206180D01*
X175591095Y-71301419D02*
X175638714Y-71253800D01*
X175733952Y-71206180D01*
X175972047Y-71206180D01*
X176067285Y-71253800D01*
X176114904Y-71301419D01*
X176162523Y-71396657D01*
X176162523Y-71491895D01*
X176114904Y-71634752D01*
X175543476Y-72206180D01*
X176162523Y-72206180D01*
X208391095Y-66106180D02*
X208391095Y-65106180D01*
X208391095Y-65582371D02*
X208962523Y-65582371D01*
X208962523Y-66106180D02*
X208962523Y-65106180D01*
X209391095Y-65201419D02*
X209438714Y-65153800D01*
X209533952Y-65106180D01*
X209772047Y-65106180D01*
X209867285Y-65153800D01*
X209914904Y-65201419D01*
X209962523Y-65296657D01*
X209962523Y-65391895D01*
X209914904Y-65534752D01*
X209343476Y-66106180D01*
X209962523Y-66106180D01*
X193736333Y-81606180D02*
X193403000Y-81129990D01*
X193164904Y-81606180D02*
X193164904Y-80606180D01*
X193545857Y-80606180D01*
X193641095Y-80653800D01*
X193688714Y-80701419D01*
X193736333Y-80796657D01*
X193736333Y-80939514D01*
X193688714Y-81034752D01*
X193641095Y-81082371D01*
X193545857Y-81129990D01*
X193164904Y-81129990D01*
X194688714Y-81606180D02*
X194117285Y-81606180D01*
X194403000Y-81606180D02*
X194403000Y-80606180D01*
X194307761Y-80749038D01*
X194212523Y-80844276D01*
X194117285Y-80891895D01*
X146117380Y-93069333D02*
X146831666Y-93069333D01*
X146974523Y-93116952D01*
X147069761Y-93212190D01*
X147117380Y-93355047D01*
X147117380Y-93450285D01*
X147117380Y-92069333D02*
X147117380Y-92640761D01*
X147117380Y-92355047D02*
X146117380Y-92355047D01*
X146260238Y-92450285D01*
X146355476Y-92545523D01*
X146403095Y-92640761D01*
X186986333Y-86010942D02*
X186938714Y-86058561D01*
X186795857Y-86106180D01*
X186700619Y-86106180D01*
X186557761Y-86058561D01*
X186462523Y-85963323D01*
X186414904Y-85868085D01*
X186367285Y-85677609D01*
X186367285Y-85534752D01*
X186414904Y-85344276D01*
X186462523Y-85249038D01*
X186557761Y-85153800D01*
X186700619Y-85106180D01*
X186795857Y-85106180D01*
X186938714Y-85153800D01*
X186986333Y-85201419D01*
X187319666Y-85106180D02*
X187938714Y-85106180D01*
X187605380Y-85487133D01*
X187748238Y-85487133D01*
X187843476Y-85534752D01*
X187891095Y-85582371D01*
X187938714Y-85677609D01*
X187938714Y-85915704D01*
X187891095Y-86010942D01*
X187843476Y-86058561D01*
X187748238Y-86106180D01*
X187462523Y-86106180D01*
X187367285Y-86058561D01*
X187319666Y-86010942D01*
X172605380Y-97237133D02*
X173319666Y-97237133D01*
X173462523Y-97284752D01*
X173557761Y-97379990D01*
X173605380Y-97522847D01*
X173605380Y-97618085D01*
X173605380Y-96760942D02*
X172605380Y-96760942D01*
X172605380Y-96379990D01*
X172653000Y-96284752D01*
X172700619Y-96237133D01*
X172795857Y-96189514D01*
X172938714Y-96189514D01*
X173033952Y-96237133D01*
X173081571Y-96284752D01*
X173129190Y-96379990D01*
X173129190Y-96760942D01*
X173605380Y-95237133D02*
X173605380Y-95808561D01*
X173605380Y-95522847D02*
X172605380Y-95522847D01*
X172748238Y-95618085D01*
X172843476Y-95713323D01*
X172891095Y-95808561D01*
X178305380Y-97237133D02*
X179019666Y-97237133D01*
X179162523Y-97284752D01*
X179257761Y-97379990D01*
X179305380Y-97522847D01*
X179305380Y-97618085D01*
X179305380Y-96760942D02*
X178305380Y-96760942D01*
X178305380Y-96379990D01*
X178353000Y-96284752D01*
X178400619Y-96237133D01*
X178495857Y-96189514D01*
X178638714Y-96189514D01*
X178733952Y-96237133D01*
X178781571Y-96284752D01*
X178829190Y-96379990D01*
X178829190Y-96760942D01*
X178400619Y-95808561D02*
X178353000Y-95760942D01*
X178305380Y-95665704D01*
X178305380Y-95427609D01*
X178353000Y-95332371D01*
X178400619Y-95284752D01*
X178495857Y-95237133D01*
X178591095Y-95237133D01*
X178733952Y-95284752D01*
X179305380Y-95856180D01*
X179305380Y-95237133D01*
X169319666Y-98356180D02*
X169319666Y-99070466D01*
X169272047Y-99213323D01*
X169176809Y-99308561D01*
X169033952Y-99356180D01*
X168938714Y-99356180D01*
X169700619Y-98356180D02*
X170319666Y-98356180D01*
X169986333Y-98737133D01*
X170129190Y-98737133D01*
X170224428Y-98784752D01*
X170272047Y-98832371D01*
X170319666Y-98927609D01*
X170319666Y-99165704D01*
X170272047Y-99260942D01*
X170224428Y-99308561D01*
X170129190Y-99356180D01*
X169843476Y-99356180D01*
X169748238Y-99308561D01*
X169700619Y-99260942D01*
X138391095Y-65856180D02*
X138391095Y-64856180D01*
X138391095Y-65332371D02*
X138962523Y-65332371D01*
X138962523Y-65856180D02*
X138962523Y-64856180D01*
X139962523Y-65856180D02*
X139391095Y-65856180D01*
X139676809Y-65856180D02*
X139676809Y-64856180D01*
X139581571Y-64999038D01*
X139486333Y-65094276D01*
X139391095Y-65141895D01*
X181339666Y-98526380D02*
X181339666Y-99240666D01*
X181292047Y-99383523D01*
X181196809Y-99478761D01*
X181053952Y-99526380D01*
X180958714Y-99526380D01*
X182292047Y-98526380D02*
X181815857Y-98526380D01*
X181768238Y-99002571D01*
X181815857Y-98954952D01*
X181911095Y-98907333D01*
X182149190Y-98907333D01*
X182244428Y-98954952D01*
X182292047Y-99002571D01*
X182339666Y-99097809D01*
X182339666Y-99335904D01*
X182292047Y-99431142D01*
X182244428Y-99478761D01*
X182149190Y-99526380D01*
X181911095Y-99526380D01*
X181815857Y-99478761D01*
X181768238Y-99431142D01*
X194370235Y-88865565D02*
X194988824Y-89222708D01*
X195088733Y-89335376D01*
X195123592Y-89465474D01*
X195093403Y-89613001D01*
X195045784Y-89695480D01*
X195111291Y-88248685D02*
X195688641Y-88582018D01*
X194662329Y-88264405D02*
X195161871Y-88827745D01*
X195471395Y-88291634D01*
X153510142Y-84070466D02*
X153557761Y-84118085D01*
X153605380Y-84260942D01*
X153605380Y-84356180D01*
X153557761Y-84499038D01*
X153462523Y-84594276D01*
X153367285Y-84641895D01*
X153176809Y-84689514D01*
X153033952Y-84689514D01*
X152843476Y-84641895D01*
X152748238Y-84594276D01*
X152653000Y-84499038D01*
X152605380Y-84356180D01*
X152605380Y-84260942D01*
X152653000Y-84118085D01*
X152700619Y-84070466D01*
X153605380Y-83118085D02*
X153605380Y-83689514D01*
X153605380Y-83403800D02*
X152605380Y-83403800D01*
X152748238Y-83499038D01*
X152843476Y-83594276D01*
X152891095Y-83689514D01*
X153510142Y-104820666D02*
X153557761Y-104868285D01*
X153605380Y-105011142D01*
X153605380Y-105106380D01*
X153557761Y-105249238D01*
X153462523Y-105344476D01*
X153367285Y-105392095D01*
X153176809Y-105439714D01*
X153033952Y-105439714D01*
X152843476Y-105392095D01*
X152748238Y-105344476D01*
X152653000Y-105249238D01*
X152605380Y-105106380D01*
X152605380Y-105011142D01*
X152653000Y-104868285D01*
X152700619Y-104820666D01*
X152700619Y-104439714D02*
X152653000Y-104392095D01*
X152605380Y-104296857D01*
X152605380Y-104058761D01*
X152653000Y-103963523D01*
X152700619Y-103915904D01*
X152795857Y-103868285D01*
X152891095Y-103868285D01*
X153033952Y-103915904D01*
X153605380Y-104487333D01*
X153605380Y-103868285D01*
X197426333Y-71476180D02*
X197093000Y-70999990D01*
X196854904Y-71476180D02*
X196854904Y-70476180D01*
X197235857Y-70476180D01*
X197331095Y-70523800D01*
X197378714Y-70571419D01*
X197426333Y-70666657D01*
X197426333Y-70809514D01*
X197378714Y-70904752D01*
X197331095Y-70952371D01*
X197235857Y-70999990D01*
X196854904Y-70999990D01*
X197807285Y-70571419D02*
X197854904Y-70523800D01*
X197950142Y-70476180D01*
X198188238Y-70476180D01*
X198283476Y-70523800D01*
X198331095Y-70571419D01*
X198378714Y-70666657D01*
X198378714Y-70761895D01*
X198331095Y-70904752D01*
X197759666Y-71476180D01*
X198378714Y-71476180D01*
X155486333Y-71856180D02*
X155153000Y-71379990D01*
X154914904Y-71856180D02*
X154914904Y-70856180D01*
X155295857Y-70856180D01*
X155391095Y-70903800D01*
X155438714Y-70951419D01*
X155486333Y-71046657D01*
X155486333Y-71189514D01*
X155438714Y-71284752D01*
X155391095Y-71332371D01*
X155295857Y-71379990D01*
X154914904Y-71379990D01*
X155819666Y-70856180D02*
X156438714Y-70856180D01*
X156105380Y-71237133D01*
X156248238Y-71237133D01*
X156343476Y-71284752D01*
X156391095Y-71332371D01*
X156438714Y-71427609D01*
X156438714Y-71665704D01*
X156391095Y-71760942D01*
X156343476Y-71808561D01*
X156248238Y-71856180D01*
X155962523Y-71856180D01*
X155867285Y-71808561D01*
X155819666Y-71760942D01*
X149869666Y-71556180D02*
X149869666Y-72270466D01*
X149822047Y-72413323D01*
X149726809Y-72508561D01*
X149583952Y-72556180D01*
X149488714Y-72556180D01*
X150345857Y-72556180D02*
X150345857Y-71556180D01*
X150726809Y-71556180D01*
X150822047Y-71603800D01*
X150869666Y-71651419D01*
X150917285Y-71746657D01*
X150917285Y-71889514D01*
X150869666Y-71984752D01*
X150822047Y-72032371D01*
X150726809Y-72079990D01*
X150345857Y-72079990D01*
X151250619Y-71556180D02*
X151869666Y-71556180D01*
X151536333Y-71937133D01*
X151679190Y-71937133D01*
X151774428Y-71984752D01*
X151822047Y-72032371D01*
X151869666Y-72127609D01*
X151869666Y-72365704D01*
X151822047Y-72460942D01*
X151774428Y-72508561D01*
X151679190Y-72556180D01*
X151393476Y-72556180D01*
X151298238Y-72508561D01*
X151250619Y-72460942D01*
M02*
