G04 #@! TF.GenerationSoftware,KiCad,Pcbnew,5.1.5-52549c5~84~ubuntu18.04.1*
G04 #@! TF.CreationDate,2020-03-22T20:22:03-04:00*
G04 #@! TF.ProjectId,imac_g3_down_converter_board_adapter,696d6163-5f67-4335-9f64-6f776e5f636f,1*
G04 #@! TF.SameCoordinates,Original*
G04 #@! TF.FileFunction,Copper,L2,Bot*
G04 #@! TF.FilePolarity,Positive*
%FSLAX46Y46*%
G04 Gerber Fmt 4.6, Leading zero omitted, Abs format (unit mm)*
G04 Created by KiCad (PCBNEW 5.1.5-52549c5~84~ubuntu18.04.1) date 2020-03-22 20:22:03*
%MOMM*%
%LPD*%
G04 APERTURE LIST*
%ADD10R,2.600000X2.600000*%
%ADD11C,2.600000*%
%ADD12C,0.100000*%
%ADD13C,1.500000*%
%ADD14C,6.400000*%
%ADD15C,0.800000*%
%ADD16R,2.030000X1.730000*%
%ADD17O,2.030000X1.730000*%
%ADD18C,3.000000*%
%ADD19C,2.500000*%
%ADD20C,2.000000*%
%ADD21C,0.254000*%
G04 APERTURE END LIST*
D10*
X173462000Y-69690000D03*
D11*
X168462000Y-69690000D03*
X163462000Y-69690000D03*
X158462000Y-69690000D03*
X153462000Y-69690000D03*
X148462000Y-69690000D03*
X143462000Y-69690000D03*
X138462000Y-69690000D03*
X133462000Y-69690000D03*
X128462000Y-69690000D03*
D10*
X117462000Y-69690000D03*
D11*
X112462000Y-69690000D03*
X107462000Y-69690000D03*
X102462000Y-69690000D03*
G04 #@! TA.AperFunction,ComponentPad*
D12*
G36*
X151406504Y-79521204D02*
G01*
X151430773Y-79524804D01*
X151454571Y-79530765D01*
X151477671Y-79539030D01*
X151499849Y-79549520D01*
X151520893Y-79562133D01*
X151540598Y-79576747D01*
X151558777Y-79593223D01*
X151575253Y-79611402D01*
X151589867Y-79631107D01*
X151602480Y-79652151D01*
X151612970Y-79674329D01*
X151621235Y-79697429D01*
X151627196Y-79721227D01*
X151630796Y-79745496D01*
X151632000Y-79770000D01*
X151632000Y-80770000D01*
X151630796Y-80794504D01*
X151627196Y-80818773D01*
X151621235Y-80842571D01*
X151612970Y-80865671D01*
X151602480Y-80887849D01*
X151589867Y-80908893D01*
X151575253Y-80928598D01*
X151558777Y-80946777D01*
X151540598Y-80963253D01*
X151520893Y-80977867D01*
X151499849Y-80990480D01*
X151477671Y-81000970D01*
X151454571Y-81009235D01*
X151430773Y-81015196D01*
X151406504Y-81018796D01*
X151382000Y-81020000D01*
X150382000Y-81020000D01*
X150357496Y-81018796D01*
X150333227Y-81015196D01*
X150309429Y-81009235D01*
X150286329Y-81000970D01*
X150264151Y-80990480D01*
X150243107Y-80977867D01*
X150223402Y-80963253D01*
X150205223Y-80946777D01*
X150188747Y-80928598D01*
X150174133Y-80908893D01*
X150161520Y-80887849D01*
X150151030Y-80865671D01*
X150142765Y-80842571D01*
X150136804Y-80818773D01*
X150133204Y-80794504D01*
X150132000Y-80770000D01*
X150132000Y-79770000D01*
X150133204Y-79745496D01*
X150136804Y-79721227D01*
X150142765Y-79697429D01*
X150151030Y-79674329D01*
X150161520Y-79652151D01*
X150174133Y-79631107D01*
X150188747Y-79611402D01*
X150205223Y-79593223D01*
X150223402Y-79576747D01*
X150243107Y-79562133D01*
X150264151Y-79549520D01*
X150286329Y-79539030D01*
X150309429Y-79530765D01*
X150333227Y-79524804D01*
X150357496Y-79521204D01*
X150382000Y-79520000D01*
X151382000Y-79520000D01*
X151406504Y-79521204D01*
G37*
G04 #@! TD.AperFunction*
D13*
X147882000Y-80270000D03*
X144882000Y-80270000D03*
X141882000Y-80270000D03*
X138882000Y-80270000D03*
X135882000Y-80270000D03*
X132882000Y-80270000D03*
X129882000Y-80270000D03*
X126882000Y-80270000D03*
X123882000Y-80270000D03*
X120882000Y-80270000D03*
X117882000Y-80270000D03*
X150882000Y-77270000D03*
X147882000Y-77270000D03*
X144882000Y-77270000D03*
X141882000Y-77270000D03*
X138882000Y-77270000D03*
X135882000Y-77270000D03*
X132882000Y-77270000D03*
X129882000Y-77270000D03*
X126882000Y-77270000D03*
X123882000Y-77270000D03*
X120882000Y-77270000D03*
X117882000Y-77270000D03*
D14*
X92962000Y-85190000D03*
D15*
X95362000Y-85190000D03*
X94659056Y-86887056D03*
X92962000Y-87590000D03*
X91264944Y-86887056D03*
X90562000Y-85190000D03*
X91264944Y-83492944D03*
X92962000Y-82790000D03*
X94659056Y-83492944D03*
D16*
X164462000Y-78690000D03*
D17*
X164462000Y-81230000D03*
X164462000Y-83770000D03*
X164462000Y-86310000D03*
D18*
X171462000Y-88690000D03*
X171462000Y-95515001D03*
D19*
X147882000Y-80270000D02*
X144882000Y-80270000D01*
D20*
X141882000Y-77270000D02*
X144882000Y-80270000D01*
X138882000Y-77270000D02*
X141882000Y-77270000D01*
X134821340Y-80270000D02*
X133082009Y-80270000D01*
X135882000Y-80270000D02*
X134821340Y-80270000D01*
D19*
X168462000Y-69690000D02*
X173462000Y-69690000D01*
X164462000Y-78690000D02*
X171986990Y-78690000D01*
X173462000Y-77214990D02*
X173462000Y-69690000D01*
X171986990Y-78690000D02*
X173462000Y-77214990D01*
X92962000Y-85190000D02*
X91962000Y-85190000D01*
X91962000Y-85190000D02*
X90462000Y-83690000D01*
X91462000Y-83690000D02*
X92962000Y-85190000D01*
X91462000Y-82690000D02*
X91462000Y-83690000D01*
X92962000Y-85190000D02*
X92962000Y-82190000D01*
X94462000Y-83690000D02*
X92962000Y-85190000D01*
X94462000Y-82690000D02*
X94462000Y-83690000D01*
X92962000Y-85190000D02*
X94962000Y-85190000D01*
X94962000Y-85190000D02*
X96462000Y-83690000D01*
X96462000Y-83690000D02*
X96462000Y-84090000D01*
X94962000Y-85190000D02*
X96462000Y-86690000D01*
X94659056Y-86887056D02*
X92962000Y-85190000D01*
X96264944Y-86887056D02*
X94659056Y-86887056D01*
X96462000Y-86690000D02*
X96264944Y-86887056D01*
X92962000Y-87190000D02*
X93462000Y-87690000D01*
X92962000Y-85190000D02*
X92962000Y-87190000D01*
X94462000Y-87690000D02*
X99462000Y-87690000D01*
X92962000Y-86190000D02*
X94462000Y-87690000D01*
X92962000Y-85190000D02*
X92962000Y-86190000D01*
X126882000Y-77270000D02*
X135882000Y-77270000D01*
X133462000Y-76690000D02*
X132882000Y-77270000D01*
X132882000Y-77270000D02*
X136462000Y-73690000D01*
X152462000Y-73690000D02*
X154462000Y-75690000D01*
X154462000Y-75690000D02*
X154462000Y-79690000D01*
X153882000Y-80270000D02*
X150882000Y-80270000D01*
X154462000Y-79690000D02*
X153882000Y-80270000D01*
X138462000Y-69690000D02*
X143462000Y-69690000D01*
X143462000Y-72690000D02*
X142462000Y-73690000D01*
X143462000Y-69690000D02*
X143462000Y-72690000D01*
X136462000Y-73690000D02*
X142462000Y-73690000D01*
X142462000Y-73690000D02*
X152462000Y-73690000D01*
X117882000Y-77270000D02*
X117882000Y-75270000D01*
X117882000Y-75270000D02*
X121462000Y-71690000D01*
X121462000Y-71690000D02*
X121462000Y-70690000D01*
X121462000Y-70690000D02*
X127462000Y-64690000D01*
X148462000Y-64690000D02*
X153462000Y-69690000D01*
X127462000Y-64690000D02*
X148462000Y-64690000D01*
X126882000Y-80270000D02*
X129882000Y-80270000D01*
X130631999Y-85520001D02*
X127937010Y-88214990D01*
X129882000Y-80270000D02*
X130631999Y-81019999D01*
X130631999Y-81019999D02*
X130631999Y-85520001D01*
X127937010Y-88214990D02*
X118986990Y-88214990D01*
X118986990Y-88214990D02*
X114462000Y-83690000D01*
X114462000Y-83690000D02*
X114462000Y-78690000D01*
X107462000Y-71690000D02*
X107462000Y-69690000D01*
X114462000Y-78690000D02*
X107462000Y-71690000D01*
D21*
G36*
X175527424Y-61359580D02*
G01*
X175590356Y-61378580D01*
X175648405Y-61409445D01*
X175699343Y-61450989D01*
X175741248Y-61501644D01*
X175772515Y-61559471D01*
X175791956Y-61622272D01*
X175802000Y-61717835D01*
X175802001Y-98657711D01*
X175792420Y-98755424D01*
X175773420Y-98818357D01*
X175742554Y-98876406D01*
X175701011Y-98927343D01*
X175650356Y-98969248D01*
X175592529Y-99000515D01*
X175529728Y-99019956D01*
X175434165Y-99030000D01*
X157494279Y-99030000D01*
X157396576Y-99020420D01*
X157333643Y-99001420D01*
X157275594Y-98970554D01*
X157224657Y-98929011D01*
X157182752Y-98878356D01*
X157151485Y-98820529D01*
X157132044Y-98757728D01*
X157122000Y-98662165D01*
X157122000Y-95304722D01*
X169327000Y-95304722D01*
X169327000Y-95725280D01*
X169409047Y-96137757D01*
X169569988Y-96526303D01*
X169803637Y-96875984D01*
X170101017Y-97173364D01*
X170450698Y-97407013D01*
X170839244Y-97567954D01*
X171251721Y-97650001D01*
X171672279Y-97650001D01*
X172084756Y-97567954D01*
X172473302Y-97407013D01*
X172822983Y-97173364D01*
X173120363Y-96875984D01*
X173354012Y-96526303D01*
X173514953Y-96137757D01*
X173597000Y-95725280D01*
X173597000Y-95304722D01*
X173514953Y-94892245D01*
X173354012Y-94503699D01*
X173120363Y-94154018D01*
X172822983Y-93856638D01*
X172473302Y-93622989D01*
X172084756Y-93462048D01*
X171672279Y-93380001D01*
X171251721Y-93380001D01*
X170839244Y-93462048D01*
X170450698Y-93622989D01*
X170101017Y-93856638D01*
X169803637Y-94154018D01*
X169569988Y-94503699D01*
X169409047Y-94892245D01*
X169327000Y-95304722D01*
X157122000Y-95304722D01*
X157122000Y-90657581D01*
X157119217Y-90629326D01*
X157119260Y-90623199D01*
X157118360Y-90614028D01*
X157097959Y-90419931D01*
X157085934Y-90361348D01*
X157074723Y-90302577D01*
X157072059Y-90293755D01*
X157014347Y-90107317D01*
X156991162Y-90052162D01*
X156968758Y-89996709D01*
X156964432Y-89988573D01*
X156871607Y-89816896D01*
X156838139Y-89767278D01*
X156805400Y-89717247D01*
X156799576Y-89710106D01*
X156675172Y-89559728D01*
X156632737Y-89517589D01*
X156590874Y-89474839D01*
X156583773Y-89468966D01*
X156432531Y-89345616D01*
X156382738Y-89312534D01*
X156333349Y-89278716D01*
X156325243Y-89274333D01*
X156152921Y-89182708D01*
X156097606Y-89159909D01*
X156042634Y-89136348D01*
X156033831Y-89133623D01*
X155846995Y-89077214D01*
X155788307Y-89065594D01*
X155729804Y-89053158D01*
X155720639Y-89052195D01*
X155526405Y-89033150D01*
X155526402Y-89033150D01*
X155494419Y-89030000D01*
X129787792Y-89030000D01*
X130338071Y-88479721D01*
X169327000Y-88479721D01*
X169327000Y-88900279D01*
X169409047Y-89312756D01*
X169569988Y-89701302D01*
X169803637Y-90050983D01*
X170101017Y-90348363D01*
X170450698Y-90582012D01*
X170839244Y-90742953D01*
X171251721Y-90825000D01*
X171672279Y-90825000D01*
X172084756Y-90742953D01*
X172473302Y-90582012D01*
X172822983Y-90348363D01*
X173120363Y-90050983D01*
X173354012Y-89701302D01*
X173514953Y-89312756D01*
X173597000Y-88900279D01*
X173597000Y-88479721D01*
X173514953Y-88067244D01*
X173354012Y-87678698D01*
X173120363Y-87329017D01*
X172822983Y-87031637D01*
X172473302Y-86797988D01*
X172084756Y-86637047D01*
X171672279Y-86555000D01*
X171251721Y-86555000D01*
X170839244Y-86637047D01*
X170450698Y-86797988D01*
X170101017Y-87031637D01*
X169803637Y-87329017D01*
X169569988Y-87678698D01*
X169409047Y-88067244D01*
X169327000Y-88479721D01*
X130338071Y-88479721D01*
X131899422Y-86918371D01*
X131971344Y-86859346D01*
X132206902Y-86572318D01*
X132381938Y-86244849D01*
X132463092Y-85977320D01*
X132489724Y-85889526D01*
X132508983Y-85693981D01*
X132516999Y-85612598D01*
X132516999Y-85612590D01*
X132526118Y-85520001D01*
X132516999Y-85427412D01*
X132516999Y-84379721D01*
X146587000Y-84379721D01*
X146587000Y-84800279D01*
X146669047Y-85212756D01*
X146829988Y-85601302D01*
X147063637Y-85950983D01*
X147361017Y-86248363D01*
X147710698Y-86482012D01*
X148099244Y-86642953D01*
X148511721Y-86725000D01*
X148932279Y-86725000D01*
X149344756Y-86642953D01*
X149733302Y-86482012D01*
X150082983Y-86248363D01*
X150380363Y-85950983D01*
X150614012Y-85601302D01*
X150774953Y-85212756D01*
X150857000Y-84800279D01*
X150857000Y-84379721D01*
X150774953Y-83967244D01*
X150614012Y-83578698D01*
X150380363Y-83229017D01*
X150082983Y-82931637D01*
X149733302Y-82697988D01*
X149344756Y-82537047D01*
X148932279Y-82455000D01*
X148511721Y-82455000D01*
X148099244Y-82537047D01*
X147710698Y-82697988D01*
X147361017Y-82931637D01*
X147063637Y-83229017D01*
X146829988Y-83578698D01*
X146669047Y-83967244D01*
X146587000Y-84379721D01*
X132516999Y-84379721D01*
X132516999Y-81606459D01*
X132681960Y-81647250D01*
X132954492Y-81659812D01*
X133224238Y-81618965D01*
X133480832Y-81526277D01*
X133593863Y-81465860D01*
X133659388Y-81226993D01*
X135104612Y-81226993D01*
X135170137Y-81465860D01*
X135417116Y-81581760D01*
X135681960Y-81647250D01*
X135954492Y-81659812D01*
X136224238Y-81618965D01*
X136480832Y-81526277D01*
X136593863Y-81465860D01*
X136659388Y-81226993D01*
X135882000Y-80449605D01*
X135104612Y-81226993D01*
X133659388Y-81226993D01*
X132882000Y-80449605D01*
X132867858Y-80463748D01*
X132688253Y-80284143D01*
X132702395Y-80270000D01*
X133061605Y-80270000D01*
X133838993Y-81047388D01*
X134077860Y-80981863D01*
X134193760Y-80734884D01*
X134259250Y-80470040D01*
X134265129Y-80342492D01*
X134492188Y-80342492D01*
X134533035Y-80612238D01*
X134625723Y-80868832D01*
X134686140Y-80981863D01*
X134925007Y-81047388D01*
X135702395Y-80270000D01*
X136061605Y-80270000D01*
X136838993Y-81047388D01*
X137077860Y-80981863D01*
X137193760Y-80734884D01*
X137259250Y-80470040D01*
X137271812Y-80197508D01*
X137262133Y-80133589D01*
X137497000Y-80133589D01*
X137497000Y-80406411D01*
X137550225Y-80673989D01*
X137654629Y-80926043D01*
X137806201Y-81152886D01*
X137999114Y-81345799D01*
X138225957Y-81497371D01*
X138478011Y-81601775D01*
X138745589Y-81655000D01*
X139018411Y-81655000D01*
X139285989Y-81601775D01*
X139538043Y-81497371D01*
X139764886Y-81345799D01*
X139957799Y-81152886D01*
X140109371Y-80926043D01*
X140213775Y-80673989D01*
X140267000Y-80406411D01*
X140267000Y-80133589D01*
X140497000Y-80133589D01*
X140497000Y-80406411D01*
X140550225Y-80673989D01*
X140654629Y-80926043D01*
X140806201Y-81152886D01*
X140999114Y-81345799D01*
X141225957Y-81497371D01*
X141478011Y-81601775D01*
X141745589Y-81655000D01*
X142018411Y-81655000D01*
X142285989Y-81601775D01*
X142538043Y-81497371D01*
X142764886Y-81345799D01*
X142883692Y-81226993D01*
X144104612Y-81226993D01*
X144170137Y-81465860D01*
X144417116Y-81581760D01*
X144681960Y-81647250D01*
X144954492Y-81659812D01*
X145224238Y-81618965D01*
X145480832Y-81526277D01*
X145593863Y-81465860D01*
X145659388Y-81226993D01*
X147104612Y-81226993D01*
X147170137Y-81465860D01*
X147417116Y-81581760D01*
X147681960Y-81647250D01*
X147954492Y-81659812D01*
X148224238Y-81618965D01*
X148480832Y-81526277D01*
X148593863Y-81465860D01*
X148659388Y-81226993D01*
X147882000Y-80449605D01*
X147104612Y-81226993D01*
X145659388Y-81226993D01*
X144882000Y-80449605D01*
X144104612Y-81226993D01*
X142883692Y-81226993D01*
X142957799Y-81152886D01*
X143109371Y-80926043D01*
X143213775Y-80673989D01*
X143267000Y-80406411D01*
X143267000Y-80342492D01*
X143492188Y-80342492D01*
X143533035Y-80612238D01*
X143625723Y-80868832D01*
X143686140Y-80981863D01*
X143925007Y-81047388D01*
X144702395Y-80270000D01*
X145061605Y-80270000D01*
X145838993Y-81047388D01*
X146077860Y-80981863D01*
X146193760Y-80734884D01*
X146259250Y-80470040D01*
X146265129Y-80342492D01*
X146492188Y-80342492D01*
X146533035Y-80612238D01*
X146625723Y-80868832D01*
X146686140Y-80981863D01*
X146925007Y-81047388D01*
X147702395Y-80270000D01*
X146925007Y-79492612D01*
X146686140Y-79558137D01*
X146570240Y-79805116D01*
X146504750Y-80069960D01*
X146492188Y-80342492D01*
X146265129Y-80342492D01*
X146271812Y-80197508D01*
X146230965Y-79927762D01*
X146138277Y-79671168D01*
X146077860Y-79558137D01*
X145838993Y-79492612D01*
X145061605Y-80270000D01*
X144702395Y-80270000D01*
X143925007Y-79492612D01*
X143686140Y-79558137D01*
X143570240Y-79805116D01*
X143504750Y-80069960D01*
X143492188Y-80342492D01*
X143267000Y-80342492D01*
X143267000Y-80133589D01*
X143213775Y-79866011D01*
X143109371Y-79613957D01*
X142957799Y-79387114D01*
X142883692Y-79313007D01*
X144104612Y-79313007D01*
X144882000Y-80090395D01*
X145659388Y-79313007D01*
X147104612Y-79313007D01*
X147882000Y-80090395D01*
X148659388Y-79313007D01*
X148593863Y-79074140D01*
X148346884Y-78958240D01*
X148082040Y-78892750D01*
X147809508Y-78880188D01*
X147539762Y-78921035D01*
X147283168Y-79013723D01*
X147170137Y-79074140D01*
X147104612Y-79313007D01*
X145659388Y-79313007D01*
X145593863Y-79074140D01*
X145346884Y-78958240D01*
X145082040Y-78892750D01*
X144809508Y-78880188D01*
X144539762Y-78921035D01*
X144283168Y-79013723D01*
X144170137Y-79074140D01*
X144104612Y-79313007D01*
X142883692Y-79313007D01*
X142764886Y-79194201D01*
X142538043Y-79042629D01*
X142285989Y-78938225D01*
X142018411Y-78885000D01*
X141745589Y-78885000D01*
X141478011Y-78938225D01*
X141225957Y-79042629D01*
X140999114Y-79194201D01*
X140806201Y-79387114D01*
X140654629Y-79613957D01*
X140550225Y-79866011D01*
X140497000Y-80133589D01*
X140267000Y-80133589D01*
X140213775Y-79866011D01*
X140109371Y-79613957D01*
X139957799Y-79387114D01*
X139764886Y-79194201D01*
X139538043Y-79042629D01*
X139285989Y-78938225D01*
X139018411Y-78885000D01*
X138745589Y-78885000D01*
X138478011Y-78938225D01*
X138225957Y-79042629D01*
X137999114Y-79194201D01*
X137806201Y-79387114D01*
X137654629Y-79613957D01*
X137550225Y-79866011D01*
X137497000Y-80133589D01*
X137262133Y-80133589D01*
X137230965Y-79927762D01*
X137138277Y-79671168D01*
X137077860Y-79558137D01*
X136838993Y-79492612D01*
X136061605Y-80270000D01*
X135702395Y-80270000D01*
X134925007Y-79492612D01*
X134686140Y-79558137D01*
X134570240Y-79805116D01*
X134504750Y-80069960D01*
X134492188Y-80342492D01*
X134265129Y-80342492D01*
X134271812Y-80197508D01*
X134230965Y-79927762D01*
X134138277Y-79671168D01*
X134077860Y-79558137D01*
X133838993Y-79492612D01*
X133061605Y-80270000D01*
X132702395Y-80270000D01*
X131925007Y-79492612D01*
X131803685Y-79525893D01*
X131432792Y-79155000D01*
X132147956Y-79155000D01*
X132104612Y-79313007D01*
X132882000Y-80090395D01*
X133659388Y-79313007D01*
X133616044Y-79155000D01*
X135147956Y-79155000D01*
X135104612Y-79313007D01*
X135882000Y-80090395D01*
X136659388Y-79313007D01*
X136593863Y-79074140D01*
X136528809Y-79043612D01*
X136606848Y-79019939D01*
X136934317Y-78844903D01*
X137221345Y-78609345D01*
X137456903Y-78322317D01*
X137507854Y-78226993D01*
X138104612Y-78226993D01*
X138170137Y-78465860D01*
X138417116Y-78581760D01*
X138681960Y-78647250D01*
X138954492Y-78659812D01*
X139224238Y-78618965D01*
X139480832Y-78526277D01*
X139593863Y-78465860D01*
X139659388Y-78226993D01*
X141104612Y-78226993D01*
X141170137Y-78465860D01*
X141417116Y-78581760D01*
X141681960Y-78647250D01*
X141954492Y-78659812D01*
X142224238Y-78618965D01*
X142480832Y-78526277D01*
X142593863Y-78465860D01*
X142659388Y-78226993D01*
X141882000Y-77449605D01*
X141104612Y-78226993D01*
X139659388Y-78226993D01*
X138882000Y-77449605D01*
X138104612Y-78226993D01*
X137507854Y-78226993D01*
X137631939Y-77994848D01*
X137654075Y-77921875D01*
X137686140Y-77981863D01*
X137925007Y-78047388D01*
X138702395Y-77270000D01*
X139061605Y-77270000D01*
X139838993Y-78047388D01*
X140077860Y-77981863D01*
X140193760Y-77734884D01*
X140259250Y-77470040D01*
X140265129Y-77342492D01*
X140492188Y-77342492D01*
X140533035Y-77612238D01*
X140625723Y-77868832D01*
X140686140Y-77981863D01*
X140925007Y-78047388D01*
X141702395Y-77270000D01*
X142061605Y-77270000D01*
X142838993Y-78047388D01*
X143077860Y-77981863D01*
X143193760Y-77734884D01*
X143259250Y-77470040D01*
X143271812Y-77197508D01*
X143262133Y-77133589D01*
X143497000Y-77133589D01*
X143497000Y-77406411D01*
X143550225Y-77673989D01*
X143654629Y-77926043D01*
X143806201Y-78152886D01*
X143999114Y-78345799D01*
X144225957Y-78497371D01*
X144478011Y-78601775D01*
X144745589Y-78655000D01*
X145018411Y-78655000D01*
X145285989Y-78601775D01*
X145538043Y-78497371D01*
X145764886Y-78345799D01*
X145957799Y-78152886D01*
X146109371Y-77926043D01*
X146213775Y-77673989D01*
X146267000Y-77406411D01*
X146267000Y-77133589D01*
X146497000Y-77133589D01*
X146497000Y-77406411D01*
X146550225Y-77673989D01*
X146654629Y-77926043D01*
X146806201Y-78152886D01*
X146999114Y-78345799D01*
X147225957Y-78497371D01*
X147478011Y-78601775D01*
X147745589Y-78655000D01*
X148018411Y-78655000D01*
X148285989Y-78601775D01*
X148538043Y-78497371D01*
X148764886Y-78345799D01*
X148957799Y-78152886D01*
X149109371Y-77926043D01*
X149213775Y-77673989D01*
X149267000Y-77406411D01*
X149267000Y-77133589D01*
X149213775Y-76866011D01*
X149109371Y-76613957D01*
X148957799Y-76387114D01*
X148764886Y-76194201D01*
X148538043Y-76042629D01*
X148285989Y-75938225D01*
X148018411Y-75885000D01*
X147745589Y-75885000D01*
X147478011Y-75938225D01*
X147225957Y-76042629D01*
X146999114Y-76194201D01*
X146806201Y-76387114D01*
X146654629Y-76613957D01*
X146550225Y-76866011D01*
X146497000Y-77133589D01*
X146267000Y-77133589D01*
X146213775Y-76866011D01*
X146109371Y-76613957D01*
X145957799Y-76387114D01*
X145764886Y-76194201D01*
X145538043Y-76042629D01*
X145285989Y-75938225D01*
X145018411Y-75885000D01*
X144745589Y-75885000D01*
X144478011Y-75938225D01*
X144225957Y-76042629D01*
X143999114Y-76194201D01*
X143806201Y-76387114D01*
X143654629Y-76613957D01*
X143550225Y-76866011D01*
X143497000Y-77133589D01*
X143262133Y-77133589D01*
X143230965Y-76927762D01*
X143138277Y-76671168D01*
X143077860Y-76558137D01*
X142838993Y-76492612D01*
X142061605Y-77270000D01*
X141702395Y-77270000D01*
X140925007Y-76492612D01*
X140686140Y-76558137D01*
X140570240Y-76805116D01*
X140504750Y-77069960D01*
X140492188Y-77342492D01*
X140265129Y-77342492D01*
X140271812Y-77197508D01*
X140230965Y-76927762D01*
X140138277Y-76671168D01*
X140077860Y-76558137D01*
X139838993Y-76492612D01*
X139061605Y-77270000D01*
X138702395Y-77270000D01*
X137925007Y-76492612D01*
X137686140Y-76558137D01*
X137655612Y-76623191D01*
X137631939Y-76545152D01*
X137507855Y-76313007D01*
X138104612Y-76313007D01*
X138882000Y-77090395D01*
X139659388Y-76313007D01*
X141104612Y-76313007D01*
X141882000Y-77090395D01*
X142659388Y-76313007D01*
X142593863Y-76074140D01*
X142346884Y-75958240D01*
X142082040Y-75892750D01*
X141809508Y-75880188D01*
X141539762Y-75921035D01*
X141283168Y-76013723D01*
X141170137Y-76074140D01*
X141104612Y-76313007D01*
X139659388Y-76313007D01*
X139593863Y-76074140D01*
X139346884Y-75958240D01*
X139082040Y-75892750D01*
X138809508Y-75880188D01*
X138539762Y-75921035D01*
X138283168Y-76013723D01*
X138170137Y-76074140D01*
X138104612Y-76313007D01*
X137507855Y-76313007D01*
X137456903Y-76217683D01*
X137221345Y-75930655D01*
X137037783Y-75780010D01*
X137242793Y-75575000D01*
X142369411Y-75575000D01*
X142462000Y-75584119D01*
X142554589Y-75575000D01*
X151681208Y-75575000D01*
X152577000Y-76470793D01*
X152577001Y-78385000D01*
X151706218Y-78385000D01*
X151764886Y-78345799D01*
X151957799Y-78152886D01*
X152109371Y-77926043D01*
X152213775Y-77673989D01*
X152267000Y-77406411D01*
X152267000Y-77133589D01*
X152213775Y-76866011D01*
X152109371Y-76613957D01*
X151957799Y-76387114D01*
X151764886Y-76194201D01*
X151538043Y-76042629D01*
X151285989Y-75938225D01*
X151018411Y-75885000D01*
X150745589Y-75885000D01*
X150478011Y-75938225D01*
X150225957Y-76042629D01*
X149999114Y-76194201D01*
X149806201Y-76387114D01*
X149654629Y-76613957D01*
X149550225Y-76866011D01*
X149497000Y-77133589D01*
X149497000Y-77406411D01*
X149550225Y-77673989D01*
X149654629Y-77926043D01*
X149806201Y-78152886D01*
X149999114Y-78345799D01*
X150225957Y-78497371D01*
X150228491Y-78498421D01*
X150157152Y-78520061D01*
X149829683Y-78695097D01*
X149542655Y-78930655D01*
X149307097Y-79217683D01*
X149132061Y-79545152D01*
X149109925Y-79618125D01*
X149077860Y-79558137D01*
X148838993Y-79492612D01*
X148061605Y-80270000D01*
X148838993Y-81047388D01*
X149077860Y-80981863D01*
X149108388Y-80916809D01*
X149132061Y-80994848D01*
X149307097Y-81322317D01*
X149542655Y-81609345D01*
X149829683Y-81844903D01*
X150157152Y-82019939D01*
X150512476Y-82127725D01*
X150789403Y-82155000D01*
X153789411Y-82155000D01*
X153882000Y-82164119D01*
X153974589Y-82155000D01*
X153974597Y-82155000D01*
X154251524Y-82127725D01*
X154606848Y-82019939D01*
X154934317Y-81844903D01*
X155221345Y-81609345D01*
X155280374Y-81537418D01*
X155587792Y-81230000D01*
X162804743Y-81230000D01*
X162833705Y-81524051D01*
X162919476Y-81806802D01*
X163058762Y-82067387D01*
X163246208Y-82295792D01*
X163474613Y-82483238D01*
X163505972Y-82500000D01*
X163474613Y-82516762D01*
X163246208Y-82704208D01*
X163058762Y-82932613D01*
X162919476Y-83193198D01*
X162833705Y-83475949D01*
X162804743Y-83770000D01*
X162833705Y-84064051D01*
X162919476Y-84346802D01*
X163058762Y-84607387D01*
X163246208Y-84835792D01*
X163474613Y-85023238D01*
X163505972Y-85040000D01*
X163474613Y-85056762D01*
X163246208Y-85244208D01*
X163058762Y-85472613D01*
X162919476Y-85733198D01*
X162833705Y-86015949D01*
X162804743Y-86310000D01*
X162833705Y-86604051D01*
X162919476Y-86886802D01*
X163058762Y-87147387D01*
X163246208Y-87375792D01*
X163474613Y-87563238D01*
X163735198Y-87702524D01*
X164017949Y-87788295D01*
X164238320Y-87810000D01*
X164685680Y-87810000D01*
X164906051Y-87788295D01*
X165188802Y-87702524D01*
X165449387Y-87563238D01*
X165677792Y-87375792D01*
X165865238Y-87147387D01*
X166004524Y-86886802D01*
X166090295Y-86604051D01*
X166119257Y-86310000D01*
X166090295Y-86015949D01*
X166004524Y-85733198D01*
X165865238Y-85472613D01*
X165677792Y-85244208D01*
X165449387Y-85056762D01*
X165418028Y-85040000D01*
X165449387Y-85023238D01*
X165677792Y-84835792D01*
X165828414Y-84652258D01*
X165866606Y-84690450D01*
X166060692Y-84820134D01*
X166276348Y-84909461D01*
X166505288Y-84955000D01*
X166738712Y-84955000D01*
X166967652Y-84909461D01*
X167183308Y-84820134D01*
X167377394Y-84690450D01*
X167542450Y-84525394D01*
X167672134Y-84331308D01*
X167761461Y-84115652D01*
X167807000Y-83886712D01*
X167807000Y-83653288D01*
X167761461Y-83424348D01*
X167672134Y-83208692D01*
X167542450Y-83014606D01*
X167377394Y-82849550D01*
X167183308Y-82719866D01*
X166967652Y-82630539D01*
X166738712Y-82585000D01*
X166505288Y-82585000D01*
X166276348Y-82630539D01*
X166060692Y-82719866D01*
X165866606Y-82849550D01*
X165828414Y-82887742D01*
X165677792Y-82704208D01*
X165449387Y-82516762D01*
X165418028Y-82500000D01*
X165449387Y-82483238D01*
X165677792Y-82295792D01*
X165865238Y-82067387D01*
X166004524Y-81806802D01*
X166090295Y-81524051D01*
X166119257Y-81230000D01*
X166090295Y-80935949D01*
X166004524Y-80653198D01*
X165865238Y-80392613D01*
X165677792Y-80164208D01*
X165671970Y-80159430D01*
X165721180Y-80144502D01*
X165831494Y-80085537D01*
X165928185Y-80006185D01*
X166007537Y-79909494D01*
X166066502Y-79799180D01*
X166102812Y-79679482D01*
X166115072Y-79555000D01*
X166112000Y-78975750D01*
X165953250Y-78817000D01*
X164589000Y-78817000D01*
X164589000Y-78837000D01*
X164335000Y-78837000D01*
X164335000Y-78817000D01*
X162970750Y-78817000D01*
X162812000Y-78975750D01*
X162808928Y-79555000D01*
X162821188Y-79679482D01*
X162857498Y-79799180D01*
X162916463Y-79909494D01*
X162995815Y-80006185D01*
X163092506Y-80085537D01*
X163202820Y-80144502D01*
X163252030Y-80159430D01*
X163246208Y-80164208D01*
X163058762Y-80392613D01*
X162919476Y-80653198D01*
X162833705Y-80935949D01*
X162804743Y-81230000D01*
X155587792Y-81230000D01*
X155729418Y-81088374D01*
X155801345Y-81029345D01*
X156036903Y-80742317D01*
X156211939Y-80414848D01*
X156297258Y-80133589D01*
X156319725Y-80059525D01*
X156327876Y-79976762D01*
X156347000Y-79782597D01*
X156347000Y-79782589D01*
X156356119Y-79690000D01*
X156347000Y-79597411D01*
X156347000Y-77825000D01*
X162808928Y-77825000D01*
X162812000Y-78404250D01*
X162970750Y-78563000D01*
X164335000Y-78563000D01*
X164335000Y-77348750D01*
X164589000Y-77348750D01*
X164589000Y-78563000D01*
X165953250Y-78563000D01*
X166112000Y-78404250D01*
X166115072Y-77825000D01*
X166102812Y-77700518D01*
X166066502Y-77580820D01*
X166007537Y-77470506D01*
X165928185Y-77373815D01*
X165831494Y-77294463D01*
X165721180Y-77235498D01*
X165601482Y-77199188D01*
X165477000Y-77186928D01*
X164747750Y-77190000D01*
X164589000Y-77348750D01*
X164335000Y-77348750D01*
X164176250Y-77190000D01*
X163447000Y-77186928D01*
X163322518Y-77199188D01*
X163202820Y-77235498D01*
X163092506Y-77294463D01*
X162995815Y-77373815D01*
X162916463Y-77470506D01*
X162857498Y-77580820D01*
X162821188Y-77700518D01*
X162808928Y-77825000D01*
X156347000Y-77825000D01*
X156347000Y-75782586D01*
X156356119Y-75689999D01*
X156347000Y-75597412D01*
X156347000Y-75597403D01*
X156319725Y-75320476D01*
X156211939Y-74965152D01*
X156036903Y-74637683D01*
X155801345Y-74350655D01*
X155729423Y-74291630D01*
X153860372Y-72422580D01*
X153801345Y-72350655D01*
X153514317Y-72115097D01*
X153186848Y-71940061D01*
X152831524Y-71832275D01*
X152554597Y-71805000D01*
X152554589Y-71805000D01*
X152462000Y-71795881D01*
X152369411Y-71805000D01*
X145347000Y-71805000D01*
X145347000Y-70131948D01*
X145397000Y-69880581D01*
X145397000Y-69499419D01*
X145322639Y-69125581D01*
X145176775Y-68773434D01*
X144965013Y-68456509D01*
X144695491Y-68186987D01*
X144378566Y-67975225D01*
X144026419Y-67829361D01*
X143652581Y-67755000D01*
X143271419Y-67755000D01*
X143020052Y-67805000D01*
X138903948Y-67805000D01*
X138652581Y-67755000D01*
X138271419Y-67755000D01*
X137897581Y-67829361D01*
X137545434Y-67975225D01*
X137228509Y-68186987D01*
X136958987Y-68456509D01*
X136747225Y-68773434D01*
X136601361Y-69125581D01*
X136527000Y-69499419D01*
X136527000Y-69880581D01*
X136601361Y-70254419D01*
X136747225Y-70606566D01*
X136958987Y-70923491D01*
X137228509Y-71193013D01*
X137545434Y-71404775D01*
X137897581Y-71550639D01*
X138271419Y-71625000D01*
X138652581Y-71625000D01*
X138903948Y-71575000D01*
X141577001Y-71575000D01*
X141577001Y-71805000D01*
X136554597Y-71805000D01*
X136462000Y-71795880D01*
X136369403Y-71805000D01*
X136092476Y-71832275D01*
X135737152Y-71940061D01*
X135570114Y-72029345D01*
X135409683Y-72115097D01*
X135194579Y-72291628D01*
X135194577Y-72291630D01*
X135122655Y-72350655D01*
X135063630Y-72422577D01*
X132101208Y-75385000D01*
X126789403Y-75385000D01*
X126512476Y-75412275D01*
X126157152Y-75520061D01*
X125829683Y-75695097D01*
X125542655Y-75930655D01*
X125307097Y-76217683D01*
X125132061Y-76545152D01*
X125110421Y-76616491D01*
X125109371Y-76613957D01*
X124957799Y-76387114D01*
X124764886Y-76194201D01*
X124538043Y-76042629D01*
X124285989Y-75938225D01*
X124018411Y-75885000D01*
X123745589Y-75885000D01*
X123478011Y-75938225D01*
X123225957Y-76042629D01*
X122999114Y-76194201D01*
X122806201Y-76387114D01*
X122654629Y-76613957D01*
X122550225Y-76866011D01*
X122497000Y-77133589D01*
X122497000Y-77406411D01*
X122550225Y-77673989D01*
X122654629Y-77926043D01*
X122806201Y-78152886D01*
X122999114Y-78345799D01*
X123225957Y-78497371D01*
X123478011Y-78601775D01*
X123745589Y-78655000D01*
X124018411Y-78655000D01*
X124285989Y-78601775D01*
X124538043Y-78497371D01*
X124764886Y-78345799D01*
X124957799Y-78152886D01*
X125109371Y-77926043D01*
X125110421Y-77923509D01*
X125132061Y-77994848D01*
X125307097Y-78322317D01*
X125542655Y-78609345D01*
X125738414Y-78770000D01*
X125542655Y-78930655D01*
X125307097Y-79217683D01*
X125132061Y-79545152D01*
X125110421Y-79616491D01*
X125109371Y-79613957D01*
X124957799Y-79387114D01*
X124764886Y-79194201D01*
X124538043Y-79042629D01*
X124285989Y-78938225D01*
X124018411Y-78885000D01*
X123745589Y-78885000D01*
X123478011Y-78938225D01*
X123225957Y-79042629D01*
X122999114Y-79194201D01*
X122806201Y-79387114D01*
X122654629Y-79613957D01*
X122550225Y-79866011D01*
X122497000Y-80133589D01*
X122497000Y-80406411D01*
X122550225Y-80673989D01*
X122654629Y-80926043D01*
X122806201Y-81152886D01*
X122999114Y-81345799D01*
X123225957Y-81497371D01*
X123478011Y-81601775D01*
X123745589Y-81655000D01*
X124018411Y-81655000D01*
X124285989Y-81601775D01*
X124538043Y-81497371D01*
X124764886Y-81345799D01*
X124957799Y-81152886D01*
X125109371Y-80926043D01*
X125110421Y-80923509D01*
X125132061Y-80994848D01*
X125307097Y-81322317D01*
X125542655Y-81609345D01*
X125829683Y-81844903D01*
X126157152Y-82019939D01*
X126512476Y-82127725D01*
X126789403Y-82155000D01*
X128746999Y-82155000D01*
X128747000Y-84739207D01*
X127156218Y-86329990D01*
X121260819Y-86329990D01*
X121382983Y-86248363D01*
X121680363Y-85950983D01*
X121914012Y-85601302D01*
X122074953Y-85212756D01*
X122157000Y-84800279D01*
X122157000Y-84379721D01*
X122074953Y-83967244D01*
X121914012Y-83578698D01*
X121680363Y-83229017D01*
X121382983Y-82931637D01*
X121033302Y-82697988D01*
X120644756Y-82537047D01*
X120232279Y-82455000D01*
X119811721Y-82455000D01*
X119399244Y-82537047D01*
X119010698Y-82697988D01*
X118661017Y-82931637D01*
X118363637Y-83229017D01*
X118129988Y-83578698D01*
X117969047Y-83967244D01*
X117887000Y-84379721D01*
X117887000Y-84449208D01*
X116347000Y-82909208D01*
X116347000Y-78782589D01*
X116356119Y-78690000D01*
X116347000Y-78597411D01*
X116347000Y-78597403D01*
X116321653Y-78340054D01*
X116542655Y-78609345D01*
X116829683Y-78844903D01*
X117157152Y-79019939D01*
X117228491Y-79041579D01*
X117225957Y-79042629D01*
X116999114Y-79194201D01*
X116806201Y-79387114D01*
X116654629Y-79613957D01*
X116550225Y-79866011D01*
X116497000Y-80133589D01*
X116497000Y-80406411D01*
X116550225Y-80673989D01*
X116654629Y-80926043D01*
X116806201Y-81152886D01*
X116999114Y-81345799D01*
X117225957Y-81497371D01*
X117478011Y-81601775D01*
X117745589Y-81655000D01*
X118018411Y-81655000D01*
X118285989Y-81601775D01*
X118538043Y-81497371D01*
X118764886Y-81345799D01*
X118957799Y-81152886D01*
X119109371Y-80926043D01*
X119213775Y-80673989D01*
X119267000Y-80406411D01*
X119267000Y-80133589D01*
X119497000Y-80133589D01*
X119497000Y-80406411D01*
X119550225Y-80673989D01*
X119654629Y-80926043D01*
X119806201Y-81152886D01*
X119999114Y-81345799D01*
X120225957Y-81497371D01*
X120478011Y-81601775D01*
X120745589Y-81655000D01*
X121018411Y-81655000D01*
X121285989Y-81601775D01*
X121538043Y-81497371D01*
X121764886Y-81345799D01*
X121957799Y-81152886D01*
X122109371Y-80926043D01*
X122213775Y-80673989D01*
X122267000Y-80406411D01*
X122267000Y-80133589D01*
X122213775Y-79866011D01*
X122109371Y-79613957D01*
X121957799Y-79387114D01*
X121764886Y-79194201D01*
X121538043Y-79042629D01*
X121285989Y-78938225D01*
X121018411Y-78885000D01*
X120745589Y-78885000D01*
X120478011Y-78938225D01*
X120225957Y-79042629D01*
X119999114Y-79194201D01*
X119806201Y-79387114D01*
X119654629Y-79613957D01*
X119550225Y-79866011D01*
X119497000Y-80133589D01*
X119267000Y-80133589D01*
X119213775Y-79866011D01*
X119109371Y-79613957D01*
X118957799Y-79387114D01*
X118764886Y-79194201D01*
X118538043Y-79042629D01*
X118535509Y-79041579D01*
X118606847Y-79019939D01*
X118934317Y-78844903D01*
X119221345Y-78609345D01*
X119456903Y-78322317D01*
X119507854Y-78226993D01*
X120104612Y-78226993D01*
X120170137Y-78465860D01*
X120417116Y-78581760D01*
X120681960Y-78647250D01*
X120954492Y-78659812D01*
X121224238Y-78618965D01*
X121480832Y-78526277D01*
X121593863Y-78465860D01*
X121659388Y-78226993D01*
X120882000Y-77449605D01*
X120104612Y-78226993D01*
X119507854Y-78226993D01*
X119631939Y-77994848D01*
X119654075Y-77921875D01*
X119686140Y-77981863D01*
X119925007Y-78047388D01*
X120702395Y-77270000D01*
X121061605Y-77270000D01*
X121838993Y-78047388D01*
X122077860Y-77981863D01*
X122193760Y-77734884D01*
X122259250Y-77470040D01*
X122271812Y-77197508D01*
X122230965Y-76927762D01*
X122138277Y-76671168D01*
X122077860Y-76558137D01*
X121838993Y-76492612D01*
X121061605Y-77270000D01*
X120702395Y-77270000D01*
X119925007Y-76492612D01*
X119767000Y-76535956D01*
X119767000Y-76313007D01*
X120104612Y-76313007D01*
X120882000Y-77090395D01*
X121659388Y-76313007D01*
X121593863Y-76074140D01*
X121346884Y-75958240D01*
X121082040Y-75892750D01*
X120809508Y-75880188D01*
X120539762Y-75921035D01*
X120283168Y-76013723D01*
X120170137Y-76074140D01*
X120104612Y-76313007D01*
X119767000Y-76313007D01*
X119767000Y-76050792D01*
X122729423Y-73088370D01*
X122801345Y-73029345D01*
X122860373Y-72957420D01*
X123036903Y-72742317D01*
X123092831Y-72637683D01*
X123211939Y-72414848D01*
X123319725Y-72059524D01*
X123347000Y-71782597D01*
X123347000Y-71782596D01*
X123356120Y-71690000D01*
X123347000Y-71597403D01*
X123347000Y-71470792D01*
X125318373Y-69499419D01*
X126527000Y-69499419D01*
X126527000Y-69880581D01*
X126601361Y-70254419D01*
X126747225Y-70606566D01*
X126958987Y-70923491D01*
X127228509Y-71193013D01*
X127545434Y-71404775D01*
X127897581Y-71550639D01*
X128271419Y-71625000D01*
X128652581Y-71625000D01*
X129026419Y-71550639D01*
X129378566Y-71404775D01*
X129695491Y-71193013D01*
X129965013Y-70923491D01*
X130176775Y-70606566D01*
X130322639Y-70254419D01*
X130397000Y-69880581D01*
X130397000Y-69499419D01*
X131527000Y-69499419D01*
X131527000Y-69880581D01*
X131601361Y-70254419D01*
X131747225Y-70606566D01*
X131958987Y-70923491D01*
X132228509Y-71193013D01*
X132545434Y-71404775D01*
X132897581Y-71550639D01*
X133271419Y-71625000D01*
X133652581Y-71625000D01*
X134026419Y-71550639D01*
X134378566Y-71404775D01*
X134695491Y-71193013D01*
X134965013Y-70923491D01*
X135176775Y-70606566D01*
X135322639Y-70254419D01*
X135397000Y-69880581D01*
X135397000Y-69499419D01*
X135322639Y-69125581D01*
X135176775Y-68773434D01*
X134965013Y-68456509D01*
X134695491Y-68186987D01*
X134378566Y-67975225D01*
X134026419Y-67829361D01*
X133652581Y-67755000D01*
X133271419Y-67755000D01*
X132897581Y-67829361D01*
X132545434Y-67975225D01*
X132228509Y-68186987D01*
X131958987Y-68456509D01*
X131747225Y-68773434D01*
X131601361Y-69125581D01*
X131527000Y-69499419D01*
X130397000Y-69499419D01*
X130322639Y-69125581D01*
X130176775Y-68773434D01*
X129965013Y-68456509D01*
X129695491Y-68186987D01*
X129378566Y-67975225D01*
X129026419Y-67829361D01*
X128652581Y-67755000D01*
X128271419Y-67755000D01*
X127897581Y-67829361D01*
X127545434Y-67975225D01*
X127228509Y-68186987D01*
X126958987Y-68456509D01*
X126747225Y-68773434D01*
X126601361Y-69125581D01*
X126527000Y-69499419D01*
X125318373Y-69499419D01*
X128242792Y-66575000D01*
X147681208Y-66575000D01*
X148913010Y-67806803D01*
X148652581Y-67755000D01*
X148271419Y-67755000D01*
X147897581Y-67829361D01*
X147545434Y-67975225D01*
X147228509Y-68186987D01*
X146958987Y-68456509D01*
X146747225Y-68773434D01*
X146601361Y-69125581D01*
X146527000Y-69499419D01*
X146527000Y-69880581D01*
X146601361Y-70254419D01*
X146747225Y-70606566D01*
X146958987Y-70923491D01*
X147228509Y-71193013D01*
X147545434Y-71404775D01*
X147897581Y-71550639D01*
X148271419Y-71625000D01*
X148652581Y-71625000D01*
X149026419Y-71550639D01*
X149378566Y-71404775D01*
X149695491Y-71193013D01*
X149965013Y-70923491D01*
X150176775Y-70606566D01*
X150322639Y-70254419D01*
X150397000Y-69880581D01*
X150397000Y-69499419D01*
X150345197Y-69238990D01*
X151816599Y-70710392D01*
X151958987Y-70923491D01*
X152228509Y-71193013D01*
X152545434Y-71404775D01*
X152897581Y-71550639D01*
X153271419Y-71625000D01*
X153652581Y-71625000D01*
X154026419Y-71550639D01*
X154378566Y-71404775D01*
X154695491Y-71193013D01*
X154965013Y-70923491D01*
X155176775Y-70606566D01*
X155322639Y-70254419D01*
X155397000Y-69880581D01*
X155397000Y-69499419D01*
X156527000Y-69499419D01*
X156527000Y-69880581D01*
X156601361Y-70254419D01*
X156747225Y-70606566D01*
X156958987Y-70923491D01*
X157228509Y-71193013D01*
X157545434Y-71404775D01*
X157897581Y-71550639D01*
X158271419Y-71625000D01*
X158652581Y-71625000D01*
X159026419Y-71550639D01*
X159378566Y-71404775D01*
X159695491Y-71193013D01*
X159965013Y-70923491D01*
X160176775Y-70606566D01*
X160322639Y-70254419D01*
X160397000Y-69880581D01*
X160397000Y-69499419D01*
X161527000Y-69499419D01*
X161527000Y-69880581D01*
X161601361Y-70254419D01*
X161747225Y-70606566D01*
X161958987Y-70923491D01*
X162228509Y-71193013D01*
X162545434Y-71404775D01*
X162897581Y-71550639D01*
X163271419Y-71625000D01*
X163652581Y-71625000D01*
X164026419Y-71550639D01*
X164378566Y-71404775D01*
X164695491Y-71193013D01*
X164849280Y-71039224D01*
X167292381Y-71039224D01*
X167424317Y-71334312D01*
X167765045Y-71505159D01*
X168132557Y-71606250D01*
X168512729Y-71633701D01*
X168890951Y-71586457D01*
X169252690Y-71466333D01*
X169499683Y-71334312D01*
X169631619Y-71039224D01*
X169582395Y-70990000D01*
X171523928Y-70990000D01*
X171536188Y-71114482D01*
X171572498Y-71234180D01*
X171631463Y-71344494D01*
X171710815Y-71441185D01*
X171807506Y-71520537D01*
X171917820Y-71579502D01*
X172037518Y-71615812D01*
X172162000Y-71628072D01*
X173176250Y-71625000D01*
X173335000Y-71466250D01*
X173335000Y-69817000D01*
X173589000Y-69817000D01*
X173589000Y-71466250D01*
X173747750Y-71625000D01*
X174762000Y-71628072D01*
X174886482Y-71615812D01*
X175006180Y-71579502D01*
X175116494Y-71520537D01*
X175213185Y-71441185D01*
X175292537Y-71344494D01*
X175351502Y-71234180D01*
X175387812Y-71114482D01*
X175400072Y-70990000D01*
X175397000Y-69975750D01*
X175238250Y-69817000D01*
X173589000Y-69817000D01*
X173335000Y-69817000D01*
X171685750Y-69817000D01*
X171527000Y-69975750D01*
X171523928Y-70990000D01*
X169582395Y-70990000D01*
X168462000Y-69869605D01*
X167292381Y-71039224D01*
X164849280Y-71039224D01*
X164965013Y-70923491D01*
X165176775Y-70606566D01*
X165322639Y-70254419D01*
X165397000Y-69880581D01*
X165397000Y-69740729D01*
X166518299Y-69740729D01*
X166565543Y-70118951D01*
X166685667Y-70480690D01*
X166817688Y-70727683D01*
X167112776Y-70859619D01*
X168282395Y-69690000D01*
X168641605Y-69690000D01*
X169811224Y-70859619D01*
X170106312Y-70727683D01*
X170277159Y-70386955D01*
X170378250Y-70019443D01*
X170405701Y-69639271D01*
X170358457Y-69261049D01*
X170238333Y-68899310D01*
X170106312Y-68652317D01*
X169811224Y-68520381D01*
X168641605Y-69690000D01*
X168282395Y-69690000D01*
X167112776Y-68520381D01*
X166817688Y-68652317D01*
X166646841Y-68993045D01*
X166545750Y-69360557D01*
X166518299Y-69740729D01*
X165397000Y-69740729D01*
X165397000Y-69499419D01*
X165322639Y-69125581D01*
X165176775Y-68773434D01*
X164965013Y-68456509D01*
X164849280Y-68340776D01*
X167292381Y-68340776D01*
X168462000Y-69510395D01*
X169582395Y-68390000D01*
X171523928Y-68390000D01*
X171527000Y-69404250D01*
X171685750Y-69563000D01*
X173335000Y-69563000D01*
X173335000Y-67913750D01*
X173589000Y-67913750D01*
X173589000Y-69563000D01*
X175238250Y-69563000D01*
X175397000Y-69404250D01*
X175400072Y-68390000D01*
X175387812Y-68265518D01*
X175351502Y-68145820D01*
X175292537Y-68035506D01*
X175213185Y-67938815D01*
X175116494Y-67859463D01*
X175006180Y-67800498D01*
X174886482Y-67764188D01*
X174762000Y-67751928D01*
X173747750Y-67755000D01*
X173589000Y-67913750D01*
X173335000Y-67913750D01*
X173176250Y-67755000D01*
X172162000Y-67751928D01*
X172037518Y-67764188D01*
X171917820Y-67800498D01*
X171807506Y-67859463D01*
X171710815Y-67938815D01*
X171631463Y-68035506D01*
X171572498Y-68145820D01*
X171536188Y-68265518D01*
X171523928Y-68390000D01*
X169582395Y-68390000D01*
X169631619Y-68340776D01*
X169499683Y-68045688D01*
X169158955Y-67874841D01*
X168791443Y-67773750D01*
X168411271Y-67746299D01*
X168033049Y-67793543D01*
X167671310Y-67913667D01*
X167424317Y-68045688D01*
X167292381Y-68340776D01*
X164849280Y-68340776D01*
X164695491Y-68186987D01*
X164378566Y-67975225D01*
X164026419Y-67829361D01*
X163652581Y-67755000D01*
X163271419Y-67755000D01*
X162897581Y-67829361D01*
X162545434Y-67975225D01*
X162228509Y-68186987D01*
X161958987Y-68456509D01*
X161747225Y-68773434D01*
X161601361Y-69125581D01*
X161527000Y-69499419D01*
X160397000Y-69499419D01*
X160322639Y-69125581D01*
X160176775Y-68773434D01*
X159965013Y-68456509D01*
X159695491Y-68186987D01*
X159378566Y-67975225D01*
X159026419Y-67829361D01*
X158652581Y-67755000D01*
X158271419Y-67755000D01*
X157897581Y-67829361D01*
X157545434Y-67975225D01*
X157228509Y-68186987D01*
X156958987Y-68456509D01*
X156747225Y-68773434D01*
X156601361Y-69125581D01*
X156527000Y-69499419D01*
X155397000Y-69499419D01*
X155322639Y-69125581D01*
X155176775Y-68773434D01*
X154965013Y-68456509D01*
X154695491Y-68186987D01*
X154482392Y-68044599D01*
X149860374Y-63422582D01*
X149801345Y-63350655D01*
X149514317Y-63115097D01*
X149186848Y-62940061D01*
X148831524Y-62832275D01*
X148554597Y-62805000D01*
X148554589Y-62805000D01*
X148462000Y-62795881D01*
X148369411Y-62805000D01*
X127554586Y-62805000D01*
X127461999Y-62795881D01*
X127369412Y-62805000D01*
X127369403Y-62805000D01*
X127092476Y-62832275D01*
X126737152Y-62940061D01*
X126409683Y-63115097D01*
X126122655Y-63350655D01*
X126063626Y-63422582D01*
X120194578Y-69291630D01*
X120122656Y-69350655D01*
X120063631Y-69422577D01*
X120063628Y-69422580D01*
X119948389Y-69563000D01*
X119887098Y-69637683D01*
X119712061Y-69965152D01*
X119604275Y-70320476D01*
X119577000Y-70597403D01*
X119577000Y-70597411D01*
X119567881Y-70690000D01*
X119577000Y-70782589D01*
X119577000Y-70909207D01*
X119389569Y-71096638D01*
X119400072Y-70990000D01*
X119400072Y-68390000D01*
X119387812Y-68265518D01*
X119351502Y-68145820D01*
X119292537Y-68035506D01*
X119213185Y-67938815D01*
X119116494Y-67859463D01*
X119006180Y-67800498D01*
X118886482Y-67764188D01*
X118762000Y-67751928D01*
X116162000Y-67751928D01*
X116037518Y-67764188D01*
X115917820Y-67800498D01*
X115807506Y-67859463D01*
X115710815Y-67938815D01*
X115631463Y-68035506D01*
X115572498Y-68145820D01*
X115536188Y-68265518D01*
X115523928Y-68390000D01*
X115523928Y-70990000D01*
X115536188Y-71114482D01*
X115572498Y-71234180D01*
X115631463Y-71344494D01*
X115710815Y-71441185D01*
X115807506Y-71520537D01*
X115917820Y-71579502D01*
X116037518Y-71615812D01*
X116162000Y-71628072D01*
X118762000Y-71628072D01*
X118868638Y-71617569D01*
X116614577Y-73871631D01*
X116542656Y-73930655D01*
X116483631Y-74002577D01*
X116483628Y-74002580D01*
X116307098Y-74217683D01*
X116132062Y-74545152D01*
X116024275Y-74900476D01*
X115987881Y-75270000D01*
X115997001Y-75362598D01*
X115997000Y-77362596D01*
X116022347Y-77619946D01*
X115899322Y-77470040D01*
X115860372Y-77422579D01*
X115860370Y-77422577D01*
X115801345Y-77350655D01*
X115729423Y-77291630D01*
X109347000Y-70909208D01*
X109347000Y-70131948D01*
X109397000Y-69880581D01*
X109397000Y-69499419D01*
X110527000Y-69499419D01*
X110527000Y-69880581D01*
X110601361Y-70254419D01*
X110747225Y-70606566D01*
X110958987Y-70923491D01*
X111228509Y-71193013D01*
X111545434Y-71404775D01*
X111897581Y-71550639D01*
X112271419Y-71625000D01*
X112652581Y-71625000D01*
X113026419Y-71550639D01*
X113378566Y-71404775D01*
X113695491Y-71193013D01*
X113965013Y-70923491D01*
X114176775Y-70606566D01*
X114322639Y-70254419D01*
X114397000Y-69880581D01*
X114397000Y-69499419D01*
X114322639Y-69125581D01*
X114176775Y-68773434D01*
X113965013Y-68456509D01*
X113695491Y-68186987D01*
X113378566Y-67975225D01*
X113026419Y-67829361D01*
X112652581Y-67755000D01*
X112271419Y-67755000D01*
X111897581Y-67829361D01*
X111545434Y-67975225D01*
X111228509Y-68186987D01*
X110958987Y-68456509D01*
X110747225Y-68773434D01*
X110601361Y-69125581D01*
X110527000Y-69499419D01*
X109397000Y-69499419D01*
X109322639Y-69125581D01*
X109176775Y-68773434D01*
X108965013Y-68456509D01*
X108695491Y-68186987D01*
X108378566Y-67975225D01*
X108026419Y-67829361D01*
X107652581Y-67755000D01*
X107271419Y-67755000D01*
X106897581Y-67829361D01*
X106545434Y-67975225D01*
X106228509Y-68186987D01*
X105958987Y-68456509D01*
X105747225Y-68773434D01*
X105601361Y-69125581D01*
X105527000Y-69499419D01*
X105527000Y-69880581D01*
X105577001Y-70131952D01*
X105577000Y-71597410D01*
X105567881Y-71690000D01*
X105577000Y-71782589D01*
X105577000Y-71782596D01*
X105604275Y-72059523D01*
X105712061Y-72414847D01*
X105887097Y-72742317D01*
X106122655Y-73029345D01*
X106194582Y-73088374D01*
X112577001Y-79470794D01*
X112577000Y-83597410D01*
X112567881Y-83690000D01*
X112577000Y-83782589D01*
X112577000Y-83782596D01*
X112581316Y-83826413D01*
X112604275Y-84059524D01*
X112632809Y-84153587D01*
X112712061Y-84414847D01*
X112887097Y-84742317D01*
X113122655Y-85029345D01*
X113194582Y-85088374D01*
X117136207Y-89030000D01*
X93084015Y-89030000D01*
X93689938Y-88974178D01*
X94414208Y-88759452D01*
X95082670Y-88407555D01*
X95123088Y-88380548D01*
X95483276Y-87890881D01*
X92962000Y-85369605D01*
X90440724Y-87890881D01*
X90800912Y-88380548D01*
X91464882Y-88740849D01*
X92186385Y-88964694D01*
X92809149Y-89030000D01*
X89494279Y-89030000D01*
X89396576Y-89020420D01*
X89333643Y-89001420D01*
X89275594Y-88970554D01*
X89224657Y-88929011D01*
X89182752Y-88878356D01*
X89151485Y-88820529D01*
X89132044Y-88757728D01*
X89122000Y-88662165D01*
X89122000Y-85312015D01*
X89177822Y-85917938D01*
X89392548Y-86642208D01*
X89744445Y-87310670D01*
X89771452Y-87351088D01*
X90261119Y-87711276D01*
X92782395Y-85190000D01*
X93141605Y-85190000D01*
X95662881Y-87711276D01*
X96152548Y-87351088D01*
X96512849Y-86687118D01*
X96736694Y-85965615D01*
X96815480Y-85214305D01*
X96746178Y-84462062D01*
X96531452Y-83737792D01*
X96179555Y-83069330D01*
X96152548Y-83028912D01*
X95662881Y-82668724D01*
X93141605Y-85190000D01*
X92782395Y-85190000D01*
X90261119Y-82668724D01*
X89771452Y-83028912D01*
X89411151Y-83692882D01*
X89187306Y-84414385D01*
X89122000Y-85037149D01*
X89122000Y-82489119D01*
X90440724Y-82489119D01*
X92962000Y-85010395D01*
X95483276Y-82489119D01*
X95123088Y-81999452D01*
X94459118Y-81639151D01*
X93737615Y-81415306D01*
X92986305Y-81336520D01*
X92234062Y-81405822D01*
X91509792Y-81620548D01*
X90841330Y-81972445D01*
X90800912Y-81999452D01*
X90440724Y-82489119D01*
X89122000Y-82489119D01*
X89122000Y-69499419D01*
X100527000Y-69499419D01*
X100527000Y-69880581D01*
X100601361Y-70254419D01*
X100747225Y-70606566D01*
X100958987Y-70923491D01*
X101228509Y-71193013D01*
X101545434Y-71404775D01*
X101897581Y-71550639D01*
X102271419Y-71625000D01*
X102652581Y-71625000D01*
X103026419Y-71550639D01*
X103378566Y-71404775D01*
X103695491Y-71193013D01*
X103965013Y-70923491D01*
X104176775Y-70606566D01*
X104322639Y-70254419D01*
X104397000Y-69880581D01*
X104397000Y-69499419D01*
X104322639Y-69125581D01*
X104176775Y-68773434D01*
X103965013Y-68456509D01*
X103695491Y-68186987D01*
X103378566Y-67975225D01*
X103026419Y-67829361D01*
X102652581Y-67755000D01*
X102271419Y-67755000D01*
X101897581Y-67829361D01*
X101545434Y-67975225D01*
X101228509Y-68186987D01*
X100958987Y-68456509D01*
X100747225Y-68773434D01*
X100601361Y-69125581D01*
X100527000Y-69499419D01*
X89122000Y-69499419D01*
X89122000Y-61722279D01*
X89131580Y-61624576D01*
X89150580Y-61561644D01*
X89181445Y-61503595D01*
X89222989Y-61452657D01*
X89273644Y-61410752D01*
X89331471Y-61379485D01*
X89394272Y-61360044D01*
X89489835Y-61350000D01*
X175429721Y-61350000D01*
X175527424Y-61359580D01*
G37*
X175527424Y-61359580D02*
X175590356Y-61378580D01*
X175648405Y-61409445D01*
X175699343Y-61450989D01*
X175741248Y-61501644D01*
X175772515Y-61559471D01*
X175791956Y-61622272D01*
X175802000Y-61717835D01*
X175802001Y-98657711D01*
X175792420Y-98755424D01*
X175773420Y-98818357D01*
X175742554Y-98876406D01*
X175701011Y-98927343D01*
X175650356Y-98969248D01*
X175592529Y-99000515D01*
X175529728Y-99019956D01*
X175434165Y-99030000D01*
X157494279Y-99030000D01*
X157396576Y-99020420D01*
X157333643Y-99001420D01*
X157275594Y-98970554D01*
X157224657Y-98929011D01*
X157182752Y-98878356D01*
X157151485Y-98820529D01*
X157132044Y-98757728D01*
X157122000Y-98662165D01*
X157122000Y-95304722D01*
X169327000Y-95304722D01*
X169327000Y-95725280D01*
X169409047Y-96137757D01*
X169569988Y-96526303D01*
X169803637Y-96875984D01*
X170101017Y-97173364D01*
X170450698Y-97407013D01*
X170839244Y-97567954D01*
X171251721Y-97650001D01*
X171672279Y-97650001D01*
X172084756Y-97567954D01*
X172473302Y-97407013D01*
X172822983Y-97173364D01*
X173120363Y-96875984D01*
X173354012Y-96526303D01*
X173514953Y-96137757D01*
X173597000Y-95725280D01*
X173597000Y-95304722D01*
X173514953Y-94892245D01*
X173354012Y-94503699D01*
X173120363Y-94154018D01*
X172822983Y-93856638D01*
X172473302Y-93622989D01*
X172084756Y-93462048D01*
X171672279Y-93380001D01*
X171251721Y-93380001D01*
X170839244Y-93462048D01*
X170450698Y-93622989D01*
X170101017Y-93856638D01*
X169803637Y-94154018D01*
X169569988Y-94503699D01*
X169409047Y-94892245D01*
X169327000Y-95304722D01*
X157122000Y-95304722D01*
X157122000Y-90657581D01*
X157119217Y-90629326D01*
X157119260Y-90623199D01*
X157118360Y-90614028D01*
X157097959Y-90419931D01*
X157085934Y-90361348D01*
X157074723Y-90302577D01*
X157072059Y-90293755D01*
X157014347Y-90107317D01*
X156991162Y-90052162D01*
X156968758Y-89996709D01*
X156964432Y-89988573D01*
X156871607Y-89816896D01*
X156838139Y-89767278D01*
X156805400Y-89717247D01*
X156799576Y-89710106D01*
X156675172Y-89559728D01*
X156632737Y-89517589D01*
X156590874Y-89474839D01*
X156583773Y-89468966D01*
X156432531Y-89345616D01*
X156382738Y-89312534D01*
X156333349Y-89278716D01*
X156325243Y-89274333D01*
X156152921Y-89182708D01*
X156097606Y-89159909D01*
X156042634Y-89136348D01*
X156033831Y-89133623D01*
X155846995Y-89077214D01*
X155788307Y-89065594D01*
X155729804Y-89053158D01*
X155720639Y-89052195D01*
X155526405Y-89033150D01*
X155526402Y-89033150D01*
X155494419Y-89030000D01*
X129787792Y-89030000D01*
X130338071Y-88479721D01*
X169327000Y-88479721D01*
X169327000Y-88900279D01*
X169409047Y-89312756D01*
X169569988Y-89701302D01*
X169803637Y-90050983D01*
X170101017Y-90348363D01*
X170450698Y-90582012D01*
X170839244Y-90742953D01*
X171251721Y-90825000D01*
X171672279Y-90825000D01*
X172084756Y-90742953D01*
X172473302Y-90582012D01*
X172822983Y-90348363D01*
X173120363Y-90050983D01*
X173354012Y-89701302D01*
X173514953Y-89312756D01*
X173597000Y-88900279D01*
X173597000Y-88479721D01*
X173514953Y-88067244D01*
X173354012Y-87678698D01*
X173120363Y-87329017D01*
X172822983Y-87031637D01*
X172473302Y-86797988D01*
X172084756Y-86637047D01*
X171672279Y-86555000D01*
X171251721Y-86555000D01*
X170839244Y-86637047D01*
X170450698Y-86797988D01*
X170101017Y-87031637D01*
X169803637Y-87329017D01*
X169569988Y-87678698D01*
X169409047Y-88067244D01*
X169327000Y-88479721D01*
X130338071Y-88479721D01*
X131899422Y-86918371D01*
X131971344Y-86859346D01*
X132206902Y-86572318D01*
X132381938Y-86244849D01*
X132463092Y-85977320D01*
X132489724Y-85889526D01*
X132508983Y-85693981D01*
X132516999Y-85612598D01*
X132516999Y-85612590D01*
X132526118Y-85520001D01*
X132516999Y-85427412D01*
X132516999Y-84379721D01*
X146587000Y-84379721D01*
X146587000Y-84800279D01*
X146669047Y-85212756D01*
X146829988Y-85601302D01*
X147063637Y-85950983D01*
X147361017Y-86248363D01*
X147710698Y-86482012D01*
X148099244Y-86642953D01*
X148511721Y-86725000D01*
X148932279Y-86725000D01*
X149344756Y-86642953D01*
X149733302Y-86482012D01*
X150082983Y-86248363D01*
X150380363Y-85950983D01*
X150614012Y-85601302D01*
X150774953Y-85212756D01*
X150857000Y-84800279D01*
X150857000Y-84379721D01*
X150774953Y-83967244D01*
X150614012Y-83578698D01*
X150380363Y-83229017D01*
X150082983Y-82931637D01*
X149733302Y-82697988D01*
X149344756Y-82537047D01*
X148932279Y-82455000D01*
X148511721Y-82455000D01*
X148099244Y-82537047D01*
X147710698Y-82697988D01*
X147361017Y-82931637D01*
X147063637Y-83229017D01*
X146829988Y-83578698D01*
X146669047Y-83967244D01*
X146587000Y-84379721D01*
X132516999Y-84379721D01*
X132516999Y-81606459D01*
X132681960Y-81647250D01*
X132954492Y-81659812D01*
X133224238Y-81618965D01*
X133480832Y-81526277D01*
X133593863Y-81465860D01*
X133659388Y-81226993D01*
X135104612Y-81226993D01*
X135170137Y-81465860D01*
X135417116Y-81581760D01*
X135681960Y-81647250D01*
X135954492Y-81659812D01*
X136224238Y-81618965D01*
X136480832Y-81526277D01*
X136593863Y-81465860D01*
X136659388Y-81226993D01*
X135882000Y-80449605D01*
X135104612Y-81226993D01*
X133659388Y-81226993D01*
X132882000Y-80449605D01*
X132867858Y-80463748D01*
X132688253Y-80284143D01*
X132702395Y-80270000D01*
X133061605Y-80270000D01*
X133838993Y-81047388D01*
X134077860Y-80981863D01*
X134193760Y-80734884D01*
X134259250Y-80470040D01*
X134265129Y-80342492D01*
X134492188Y-80342492D01*
X134533035Y-80612238D01*
X134625723Y-80868832D01*
X134686140Y-80981863D01*
X134925007Y-81047388D01*
X135702395Y-80270000D01*
X136061605Y-80270000D01*
X136838993Y-81047388D01*
X137077860Y-80981863D01*
X137193760Y-80734884D01*
X137259250Y-80470040D01*
X137271812Y-80197508D01*
X137262133Y-80133589D01*
X137497000Y-80133589D01*
X137497000Y-80406411D01*
X137550225Y-80673989D01*
X137654629Y-80926043D01*
X137806201Y-81152886D01*
X137999114Y-81345799D01*
X138225957Y-81497371D01*
X138478011Y-81601775D01*
X138745589Y-81655000D01*
X139018411Y-81655000D01*
X139285989Y-81601775D01*
X139538043Y-81497371D01*
X139764886Y-81345799D01*
X139957799Y-81152886D01*
X140109371Y-80926043D01*
X140213775Y-80673989D01*
X140267000Y-80406411D01*
X140267000Y-80133589D01*
X140497000Y-80133589D01*
X140497000Y-80406411D01*
X140550225Y-80673989D01*
X140654629Y-80926043D01*
X140806201Y-81152886D01*
X140999114Y-81345799D01*
X141225957Y-81497371D01*
X141478011Y-81601775D01*
X141745589Y-81655000D01*
X142018411Y-81655000D01*
X142285989Y-81601775D01*
X142538043Y-81497371D01*
X142764886Y-81345799D01*
X142883692Y-81226993D01*
X144104612Y-81226993D01*
X144170137Y-81465860D01*
X144417116Y-81581760D01*
X144681960Y-81647250D01*
X144954492Y-81659812D01*
X145224238Y-81618965D01*
X145480832Y-81526277D01*
X145593863Y-81465860D01*
X145659388Y-81226993D01*
X147104612Y-81226993D01*
X147170137Y-81465860D01*
X147417116Y-81581760D01*
X147681960Y-81647250D01*
X147954492Y-81659812D01*
X148224238Y-81618965D01*
X148480832Y-81526277D01*
X148593863Y-81465860D01*
X148659388Y-81226993D01*
X147882000Y-80449605D01*
X147104612Y-81226993D01*
X145659388Y-81226993D01*
X144882000Y-80449605D01*
X144104612Y-81226993D01*
X142883692Y-81226993D01*
X142957799Y-81152886D01*
X143109371Y-80926043D01*
X143213775Y-80673989D01*
X143267000Y-80406411D01*
X143267000Y-80342492D01*
X143492188Y-80342492D01*
X143533035Y-80612238D01*
X143625723Y-80868832D01*
X143686140Y-80981863D01*
X143925007Y-81047388D01*
X144702395Y-80270000D01*
X145061605Y-80270000D01*
X145838993Y-81047388D01*
X146077860Y-80981863D01*
X146193760Y-80734884D01*
X146259250Y-80470040D01*
X146265129Y-80342492D01*
X146492188Y-80342492D01*
X146533035Y-80612238D01*
X146625723Y-80868832D01*
X146686140Y-80981863D01*
X146925007Y-81047388D01*
X147702395Y-80270000D01*
X146925007Y-79492612D01*
X146686140Y-79558137D01*
X146570240Y-79805116D01*
X146504750Y-80069960D01*
X146492188Y-80342492D01*
X146265129Y-80342492D01*
X146271812Y-80197508D01*
X146230965Y-79927762D01*
X146138277Y-79671168D01*
X146077860Y-79558137D01*
X145838993Y-79492612D01*
X145061605Y-80270000D01*
X144702395Y-80270000D01*
X143925007Y-79492612D01*
X143686140Y-79558137D01*
X143570240Y-79805116D01*
X143504750Y-80069960D01*
X143492188Y-80342492D01*
X143267000Y-80342492D01*
X143267000Y-80133589D01*
X143213775Y-79866011D01*
X143109371Y-79613957D01*
X142957799Y-79387114D01*
X142883692Y-79313007D01*
X144104612Y-79313007D01*
X144882000Y-80090395D01*
X145659388Y-79313007D01*
X147104612Y-79313007D01*
X147882000Y-80090395D01*
X148659388Y-79313007D01*
X148593863Y-79074140D01*
X148346884Y-78958240D01*
X148082040Y-78892750D01*
X147809508Y-78880188D01*
X147539762Y-78921035D01*
X147283168Y-79013723D01*
X147170137Y-79074140D01*
X147104612Y-79313007D01*
X145659388Y-79313007D01*
X145593863Y-79074140D01*
X145346884Y-78958240D01*
X145082040Y-78892750D01*
X144809508Y-78880188D01*
X144539762Y-78921035D01*
X144283168Y-79013723D01*
X144170137Y-79074140D01*
X144104612Y-79313007D01*
X142883692Y-79313007D01*
X142764886Y-79194201D01*
X142538043Y-79042629D01*
X142285989Y-78938225D01*
X142018411Y-78885000D01*
X141745589Y-78885000D01*
X141478011Y-78938225D01*
X141225957Y-79042629D01*
X140999114Y-79194201D01*
X140806201Y-79387114D01*
X140654629Y-79613957D01*
X140550225Y-79866011D01*
X140497000Y-80133589D01*
X140267000Y-80133589D01*
X140213775Y-79866011D01*
X140109371Y-79613957D01*
X139957799Y-79387114D01*
X139764886Y-79194201D01*
X139538043Y-79042629D01*
X139285989Y-78938225D01*
X139018411Y-78885000D01*
X138745589Y-78885000D01*
X138478011Y-78938225D01*
X138225957Y-79042629D01*
X137999114Y-79194201D01*
X137806201Y-79387114D01*
X137654629Y-79613957D01*
X137550225Y-79866011D01*
X137497000Y-80133589D01*
X137262133Y-80133589D01*
X137230965Y-79927762D01*
X137138277Y-79671168D01*
X137077860Y-79558137D01*
X136838993Y-79492612D01*
X136061605Y-80270000D01*
X135702395Y-80270000D01*
X134925007Y-79492612D01*
X134686140Y-79558137D01*
X134570240Y-79805116D01*
X134504750Y-80069960D01*
X134492188Y-80342492D01*
X134265129Y-80342492D01*
X134271812Y-80197508D01*
X134230965Y-79927762D01*
X134138277Y-79671168D01*
X134077860Y-79558137D01*
X133838993Y-79492612D01*
X133061605Y-80270000D01*
X132702395Y-80270000D01*
X131925007Y-79492612D01*
X131803685Y-79525893D01*
X131432792Y-79155000D01*
X132147956Y-79155000D01*
X132104612Y-79313007D01*
X132882000Y-80090395D01*
X133659388Y-79313007D01*
X133616044Y-79155000D01*
X135147956Y-79155000D01*
X135104612Y-79313007D01*
X135882000Y-80090395D01*
X136659388Y-79313007D01*
X136593863Y-79074140D01*
X136528809Y-79043612D01*
X136606848Y-79019939D01*
X136934317Y-78844903D01*
X137221345Y-78609345D01*
X137456903Y-78322317D01*
X137507854Y-78226993D01*
X138104612Y-78226993D01*
X138170137Y-78465860D01*
X138417116Y-78581760D01*
X138681960Y-78647250D01*
X138954492Y-78659812D01*
X139224238Y-78618965D01*
X139480832Y-78526277D01*
X139593863Y-78465860D01*
X139659388Y-78226993D01*
X141104612Y-78226993D01*
X141170137Y-78465860D01*
X141417116Y-78581760D01*
X141681960Y-78647250D01*
X141954492Y-78659812D01*
X142224238Y-78618965D01*
X142480832Y-78526277D01*
X142593863Y-78465860D01*
X142659388Y-78226993D01*
X141882000Y-77449605D01*
X141104612Y-78226993D01*
X139659388Y-78226993D01*
X138882000Y-77449605D01*
X138104612Y-78226993D01*
X137507854Y-78226993D01*
X137631939Y-77994848D01*
X137654075Y-77921875D01*
X137686140Y-77981863D01*
X137925007Y-78047388D01*
X138702395Y-77270000D01*
X139061605Y-77270000D01*
X139838993Y-78047388D01*
X140077860Y-77981863D01*
X140193760Y-77734884D01*
X140259250Y-77470040D01*
X140265129Y-77342492D01*
X140492188Y-77342492D01*
X140533035Y-77612238D01*
X140625723Y-77868832D01*
X140686140Y-77981863D01*
X140925007Y-78047388D01*
X141702395Y-77270000D01*
X142061605Y-77270000D01*
X142838993Y-78047388D01*
X143077860Y-77981863D01*
X143193760Y-77734884D01*
X143259250Y-77470040D01*
X143271812Y-77197508D01*
X143262133Y-77133589D01*
X143497000Y-77133589D01*
X143497000Y-77406411D01*
X143550225Y-77673989D01*
X143654629Y-77926043D01*
X143806201Y-78152886D01*
X143999114Y-78345799D01*
X144225957Y-78497371D01*
X144478011Y-78601775D01*
X144745589Y-78655000D01*
X145018411Y-78655000D01*
X145285989Y-78601775D01*
X145538043Y-78497371D01*
X145764886Y-78345799D01*
X145957799Y-78152886D01*
X146109371Y-77926043D01*
X146213775Y-77673989D01*
X146267000Y-77406411D01*
X146267000Y-77133589D01*
X146497000Y-77133589D01*
X146497000Y-77406411D01*
X146550225Y-77673989D01*
X146654629Y-77926043D01*
X146806201Y-78152886D01*
X146999114Y-78345799D01*
X147225957Y-78497371D01*
X147478011Y-78601775D01*
X147745589Y-78655000D01*
X148018411Y-78655000D01*
X148285989Y-78601775D01*
X148538043Y-78497371D01*
X148764886Y-78345799D01*
X148957799Y-78152886D01*
X149109371Y-77926043D01*
X149213775Y-77673989D01*
X149267000Y-77406411D01*
X149267000Y-77133589D01*
X149213775Y-76866011D01*
X149109371Y-76613957D01*
X148957799Y-76387114D01*
X148764886Y-76194201D01*
X148538043Y-76042629D01*
X148285989Y-75938225D01*
X148018411Y-75885000D01*
X147745589Y-75885000D01*
X147478011Y-75938225D01*
X147225957Y-76042629D01*
X146999114Y-76194201D01*
X146806201Y-76387114D01*
X146654629Y-76613957D01*
X146550225Y-76866011D01*
X146497000Y-77133589D01*
X146267000Y-77133589D01*
X146213775Y-76866011D01*
X146109371Y-76613957D01*
X145957799Y-76387114D01*
X145764886Y-76194201D01*
X145538043Y-76042629D01*
X145285989Y-75938225D01*
X145018411Y-75885000D01*
X144745589Y-75885000D01*
X144478011Y-75938225D01*
X144225957Y-76042629D01*
X143999114Y-76194201D01*
X143806201Y-76387114D01*
X143654629Y-76613957D01*
X143550225Y-76866011D01*
X143497000Y-77133589D01*
X143262133Y-77133589D01*
X143230965Y-76927762D01*
X143138277Y-76671168D01*
X143077860Y-76558137D01*
X142838993Y-76492612D01*
X142061605Y-77270000D01*
X141702395Y-77270000D01*
X140925007Y-76492612D01*
X140686140Y-76558137D01*
X140570240Y-76805116D01*
X140504750Y-77069960D01*
X140492188Y-77342492D01*
X140265129Y-77342492D01*
X140271812Y-77197508D01*
X140230965Y-76927762D01*
X140138277Y-76671168D01*
X140077860Y-76558137D01*
X139838993Y-76492612D01*
X139061605Y-77270000D01*
X138702395Y-77270000D01*
X137925007Y-76492612D01*
X137686140Y-76558137D01*
X137655612Y-76623191D01*
X137631939Y-76545152D01*
X137507855Y-76313007D01*
X138104612Y-76313007D01*
X138882000Y-77090395D01*
X139659388Y-76313007D01*
X141104612Y-76313007D01*
X141882000Y-77090395D01*
X142659388Y-76313007D01*
X142593863Y-76074140D01*
X142346884Y-75958240D01*
X142082040Y-75892750D01*
X141809508Y-75880188D01*
X141539762Y-75921035D01*
X141283168Y-76013723D01*
X141170137Y-76074140D01*
X141104612Y-76313007D01*
X139659388Y-76313007D01*
X139593863Y-76074140D01*
X139346884Y-75958240D01*
X139082040Y-75892750D01*
X138809508Y-75880188D01*
X138539762Y-75921035D01*
X138283168Y-76013723D01*
X138170137Y-76074140D01*
X138104612Y-76313007D01*
X137507855Y-76313007D01*
X137456903Y-76217683D01*
X137221345Y-75930655D01*
X137037783Y-75780010D01*
X137242793Y-75575000D01*
X142369411Y-75575000D01*
X142462000Y-75584119D01*
X142554589Y-75575000D01*
X151681208Y-75575000D01*
X152577000Y-76470793D01*
X152577001Y-78385000D01*
X151706218Y-78385000D01*
X151764886Y-78345799D01*
X151957799Y-78152886D01*
X152109371Y-77926043D01*
X152213775Y-77673989D01*
X152267000Y-77406411D01*
X152267000Y-77133589D01*
X152213775Y-76866011D01*
X152109371Y-76613957D01*
X151957799Y-76387114D01*
X151764886Y-76194201D01*
X151538043Y-76042629D01*
X151285989Y-75938225D01*
X151018411Y-75885000D01*
X150745589Y-75885000D01*
X150478011Y-75938225D01*
X150225957Y-76042629D01*
X149999114Y-76194201D01*
X149806201Y-76387114D01*
X149654629Y-76613957D01*
X149550225Y-76866011D01*
X149497000Y-77133589D01*
X149497000Y-77406411D01*
X149550225Y-77673989D01*
X149654629Y-77926043D01*
X149806201Y-78152886D01*
X149999114Y-78345799D01*
X150225957Y-78497371D01*
X150228491Y-78498421D01*
X150157152Y-78520061D01*
X149829683Y-78695097D01*
X149542655Y-78930655D01*
X149307097Y-79217683D01*
X149132061Y-79545152D01*
X149109925Y-79618125D01*
X149077860Y-79558137D01*
X148838993Y-79492612D01*
X148061605Y-80270000D01*
X148838993Y-81047388D01*
X149077860Y-80981863D01*
X149108388Y-80916809D01*
X149132061Y-80994848D01*
X149307097Y-81322317D01*
X149542655Y-81609345D01*
X149829683Y-81844903D01*
X150157152Y-82019939D01*
X150512476Y-82127725D01*
X150789403Y-82155000D01*
X153789411Y-82155000D01*
X153882000Y-82164119D01*
X153974589Y-82155000D01*
X153974597Y-82155000D01*
X154251524Y-82127725D01*
X154606848Y-82019939D01*
X154934317Y-81844903D01*
X155221345Y-81609345D01*
X155280374Y-81537418D01*
X155587792Y-81230000D01*
X162804743Y-81230000D01*
X162833705Y-81524051D01*
X162919476Y-81806802D01*
X163058762Y-82067387D01*
X163246208Y-82295792D01*
X163474613Y-82483238D01*
X163505972Y-82500000D01*
X163474613Y-82516762D01*
X163246208Y-82704208D01*
X163058762Y-82932613D01*
X162919476Y-83193198D01*
X162833705Y-83475949D01*
X162804743Y-83770000D01*
X162833705Y-84064051D01*
X162919476Y-84346802D01*
X163058762Y-84607387D01*
X163246208Y-84835792D01*
X163474613Y-85023238D01*
X163505972Y-85040000D01*
X163474613Y-85056762D01*
X163246208Y-85244208D01*
X163058762Y-85472613D01*
X162919476Y-85733198D01*
X162833705Y-86015949D01*
X162804743Y-86310000D01*
X162833705Y-86604051D01*
X162919476Y-86886802D01*
X163058762Y-87147387D01*
X163246208Y-87375792D01*
X163474613Y-87563238D01*
X163735198Y-87702524D01*
X164017949Y-87788295D01*
X164238320Y-87810000D01*
X164685680Y-87810000D01*
X164906051Y-87788295D01*
X165188802Y-87702524D01*
X165449387Y-87563238D01*
X165677792Y-87375792D01*
X165865238Y-87147387D01*
X166004524Y-86886802D01*
X166090295Y-86604051D01*
X166119257Y-86310000D01*
X166090295Y-86015949D01*
X166004524Y-85733198D01*
X165865238Y-85472613D01*
X165677792Y-85244208D01*
X165449387Y-85056762D01*
X165418028Y-85040000D01*
X165449387Y-85023238D01*
X165677792Y-84835792D01*
X165828414Y-84652258D01*
X165866606Y-84690450D01*
X166060692Y-84820134D01*
X166276348Y-84909461D01*
X166505288Y-84955000D01*
X166738712Y-84955000D01*
X166967652Y-84909461D01*
X167183308Y-84820134D01*
X167377394Y-84690450D01*
X167542450Y-84525394D01*
X167672134Y-84331308D01*
X167761461Y-84115652D01*
X167807000Y-83886712D01*
X167807000Y-83653288D01*
X167761461Y-83424348D01*
X167672134Y-83208692D01*
X167542450Y-83014606D01*
X167377394Y-82849550D01*
X167183308Y-82719866D01*
X166967652Y-82630539D01*
X166738712Y-82585000D01*
X166505288Y-82585000D01*
X166276348Y-82630539D01*
X166060692Y-82719866D01*
X165866606Y-82849550D01*
X165828414Y-82887742D01*
X165677792Y-82704208D01*
X165449387Y-82516762D01*
X165418028Y-82500000D01*
X165449387Y-82483238D01*
X165677792Y-82295792D01*
X165865238Y-82067387D01*
X166004524Y-81806802D01*
X166090295Y-81524051D01*
X166119257Y-81230000D01*
X166090295Y-80935949D01*
X166004524Y-80653198D01*
X165865238Y-80392613D01*
X165677792Y-80164208D01*
X165671970Y-80159430D01*
X165721180Y-80144502D01*
X165831494Y-80085537D01*
X165928185Y-80006185D01*
X166007537Y-79909494D01*
X166066502Y-79799180D01*
X166102812Y-79679482D01*
X166115072Y-79555000D01*
X166112000Y-78975750D01*
X165953250Y-78817000D01*
X164589000Y-78817000D01*
X164589000Y-78837000D01*
X164335000Y-78837000D01*
X164335000Y-78817000D01*
X162970750Y-78817000D01*
X162812000Y-78975750D01*
X162808928Y-79555000D01*
X162821188Y-79679482D01*
X162857498Y-79799180D01*
X162916463Y-79909494D01*
X162995815Y-80006185D01*
X163092506Y-80085537D01*
X163202820Y-80144502D01*
X163252030Y-80159430D01*
X163246208Y-80164208D01*
X163058762Y-80392613D01*
X162919476Y-80653198D01*
X162833705Y-80935949D01*
X162804743Y-81230000D01*
X155587792Y-81230000D01*
X155729418Y-81088374D01*
X155801345Y-81029345D01*
X156036903Y-80742317D01*
X156211939Y-80414848D01*
X156297258Y-80133589D01*
X156319725Y-80059525D01*
X156327876Y-79976762D01*
X156347000Y-79782597D01*
X156347000Y-79782589D01*
X156356119Y-79690000D01*
X156347000Y-79597411D01*
X156347000Y-77825000D01*
X162808928Y-77825000D01*
X162812000Y-78404250D01*
X162970750Y-78563000D01*
X164335000Y-78563000D01*
X164335000Y-77348750D01*
X164589000Y-77348750D01*
X164589000Y-78563000D01*
X165953250Y-78563000D01*
X166112000Y-78404250D01*
X166115072Y-77825000D01*
X166102812Y-77700518D01*
X166066502Y-77580820D01*
X166007537Y-77470506D01*
X165928185Y-77373815D01*
X165831494Y-77294463D01*
X165721180Y-77235498D01*
X165601482Y-77199188D01*
X165477000Y-77186928D01*
X164747750Y-77190000D01*
X164589000Y-77348750D01*
X164335000Y-77348750D01*
X164176250Y-77190000D01*
X163447000Y-77186928D01*
X163322518Y-77199188D01*
X163202820Y-77235498D01*
X163092506Y-77294463D01*
X162995815Y-77373815D01*
X162916463Y-77470506D01*
X162857498Y-77580820D01*
X162821188Y-77700518D01*
X162808928Y-77825000D01*
X156347000Y-77825000D01*
X156347000Y-75782586D01*
X156356119Y-75689999D01*
X156347000Y-75597412D01*
X156347000Y-75597403D01*
X156319725Y-75320476D01*
X156211939Y-74965152D01*
X156036903Y-74637683D01*
X155801345Y-74350655D01*
X155729423Y-74291630D01*
X153860372Y-72422580D01*
X153801345Y-72350655D01*
X153514317Y-72115097D01*
X153186848Y-71940061D01*
X152831524Y-71832275D01*
X152554597Y-71805000D01*
X152554589Y-71805000D01*
X152462000Y-71795881D01*
X152369411Y-71805000D01*
X145347000Y-71805000D01*
X145347000Y-70131948D01*
X145397000Y-69880581D01*
X145397000Y-69499419D01*
X145322639Y-69125581D01*
X145176775Y-68773434D01*
X144965013Y-68456509D01*
X144695491Y-68186987D01*
X144378566Y-67975225D01*
X144026419Y-67829361D01*
X143652581Y-67755000D01*
X143271419Y-67755000D01*
X143020052Y-67805000D01*
X138903948Y-67805000D01*
X138652581Y-67755000D01*
X138271419Y-67755000D01*
X137897581Y-67829361D01*
X137545434Y-67975225D01*
X137228509Y-68186987D01*
X136958987Y-68456509D01*
X136747225Y-68773434D01*
X136601361Y-69125581D01*
X136527000Y-69499419D01*
X136527000Y-69880581D01*
X136601361Y-70254419D01*
X136747225Y-70606566D01*
X136958987Y-70923491D01*
X137228509Y-71193013D01*
X137545434Y-71404775D01*
X137897581Y-71550639D01*
X138271419Y-71625000D01*
X138652581Y-71625000D01*
X138903948Y-71575000D01*
X141577001Y-71575000D01*
X141577001Y-71805000D01*
X136554597Y-71805000D01*
X136462000Y-71795880D01*
X136369403Y-71805000D01*
X136092476Y-71832275D01*
X135737152Y-71940061D01*
X135570114Y-72029345D01*
X135409683Y-72115097D01*
X135194579Y-72291628D01*
X135194577Y-72291630D01*
X135122655Y-72350655D01*
X135063630Y-72422577D01*
X132101208Y-75385000D01*
X126789403Y-75385000D01*
X126512476Y-75412275D01*
X126157152Y-75520061D01*
X125829683Y-75695097D01*
X125542655Y-75930655D01*
X125307097Y-76217683D01*
X125132061Y-76545152D01*
X125110421Y-76616491D01*
X125109371Y-76613957D01*
X124957799Y-76387114D01*
X124764886Y-76194201D01*
X124538043Y-76042629D01*
X124285989Y-75938225D01*
X124018411Y-75885000D01*
X123745589Y-75885000D01*
X123478011Y-75938225D01*
X123225957Y-76042629D01*
X122999114Y-76194201D01*
X122806201Y-76387114D01*
X122654629Y-76613957D01*
X122550225Y-76866011D01*
X122497000Y-77133589D01*
X122497000Y-77406411D01*
X122550225Y-77673989D01*
X122654629Y-77926043D01*
X122806201Y-78152886D01*
X122999114Y-78345799D01*
X123225957Y-78497371D01*
X123478011Y-78601775D01*
X123745589Y-78655000D01*
X124018411Y-78655000D01*
X124285989Y-78601775D01*
X124538043Y-78497371D01*
X124764886Y-78345799D01*
X124957799Y-78152886D01*
X125109371Y-77926043D01*
X125110421Y-77923509D01*
X125132061Y-77994848D01*
X125307097Y-78322317D01*
X125542655Y-78609345D01*
X125738414Y-78770000D01*
X125542655Y-78930655D01*
X125307097Y-79217683D01*
X125132061Y-79545152D01*
X125110421Y-79616491D01*
X125109371Y-79613957D01*
X124957799Y-79387114D01*
X124764886Y-79194201D01*
X124538043Y-79042629D01*
X124285989Y-78938225D01*
X124018411Y-78885000D01*
X123745589Y-78885000D01*
X123478011Y-78938225D01*
X123225957Y-79042629D01*
X122999114Y-79194201D01*
X122806201Y-79387114D01*
X122654629Y-79613957D01*
X122550225Y-79866011D01*
X122497000Y-80133589D01*
X122497000Y-80406411D01*
X122550225Y-80673989D01*
X122654629Y-80926043D01*
X122806201Y-81152886D01*
X122999114Y-81345799D01*
X123225957Y-81497371D01*
X123478011Y-81601775D01*
X123745589Y-81655000D01*
X124018411Y-81655000D01*
X124285989Y-81601775D01*
X124538043Y-81497371D01*
X124764886Y-81345799D01*
X124957799Y-81152886D01*
X125109371Y-80926043D01*
X125110421Y-80923509D01*
X125132061Y-80994848D01*
X125307097Y-81322317D01*
X125542655Y-81609345D01*
X125829683Y-81844903D01*
X126157152Y-82019939D01*
X126512476Y-82127725D01*
X126789403Y-82155000D01*
X128746999Y-82155000D01*
X128747000Y-84739207D01*
X127156218Y-86329990D01*
X121260819Y-86329990D01*
X121382983Y-86248363D01*
X121680363Y-85950983D01*
X121914012Y-85601302D01*
X122074953Y-85212756D01*
X122157000Y-84800279D01*
X122157000Y-84379721D01*
X122074953Y-83967244D01*
X121914012Y-83578698D01*
X121680363Y-83229017D01*
X121382983Y-82931637D01*
X121033302Y-82697988D01*
X120644756Y-82537047D01*
X120232279Y-82455000D01*
X119811721Y-82455000D01*
X119399244Y-82537047D01*
X119010698Y-82697988D01*
X118661017Y-82931637D01*
X118363637Y-83229017D01*
X118129988Y-83578698D01*
X117969047Y-83967244D01*
X117887000Y-84379721D01*
X117887000Y-84449208D01*
X116347000Y-82909208D01*
X116347000Y-78782589D01*
X116356119Y-78690000D01*
X116347000Y-78597411D01*
X116347000Y-78597403D01*
X116321653Y-78340054D01*
X116542655Y-78609345D01*
X116829683Y-78844903D01*
X117157152Y-79019939D01*
X117228491Y-79041579D01*
X117225957Y-79042629D01*
X116999114Y-79194201D01*
X116806201Y-79387114D01*
X116654629Y-79613957D01*
X116550225Y-79866011D01*
X116497000Y-80133589D01*
X116497000Y-80406411D01*
X116550225Y-80673989D01*
X116654629Y-80926043D01*
X116806201Y-81152886D01*
X116999114Y-81345799D01*
X117225957Y-81497371D01*
X117478011Y-81601775D01*
X117745589Y-81655000D01*
X118018411Y-81655000D01*
X118285989Y-81601775D01*
X118538043Y-81497371D01*
X118764886Y-81345799D01*
X118957799Y-81152886D01*
X119109371Y-80926043D01*
X119213775Y-80673989D01*
X119267000Y-80406411D01*
X119267000Y-80133589D01*
X119497000Y-80133589D01*
X119497000Y-80406411D01*
X119550225Y-80673989D01*
X119654629Y-80926043D01*
X119806201Y-81152886D01*
X119999114Y-81345799D01*
X120225957Y-81497371D01*
X120478011Y-81601775D01*
X120745589Y-81655000D01*
X121018411Y-81655000D01*
X121285989Y-81601775D01*
X121538043Y-81497371D01*
X121764886Y-81345799D01*
X121957799Y-81152886D01*
X122109371Y-80926043D01*
X122213775Y-80673989D01*
X122267000Y-80406411D01*
X122267000Y-80133589D01*
X122213775Y-79866011D01*
X122109371Y-79613957D01*
X121957799Y-79387114D01*
X121764886Y-79194201D01*
X121538043Y-79042629D01*
X121285989Y-78938225D01*
X121018411Y-78885000D01*
X120745589Y-78885000D01*
X120478011Y-78938225D01*
X120225957Y-79042629D01*
X119999114Y-79194201D01*
X119806201Y-79387114D01*
X119654629Y-79613957D01*
X119550225Y-79866011D01*
X119497000Y-80133589D01*
X119267000Y-80133589D01*
X119213775Y-79866011D01*
X119109371Y-79613957D01*
X118957799Y-79387114D01*
X118764886Y-79194201D01*
X118538043Y-79042629D01*
X118535509Y-79041579D01*
X118606847Y-79019939D01*
X118934317Y-78844903D01*
X119221345Y-78609345D01*
X119456903Y-78322317D01*
X119507854Y-78226993D01*
X120104612Y-78226993D01*
X120170137Y-78465860D01*
X120417116Y-78581760D01*
X120681960Y-78647250D01*
X120954492Y-78659812D01*
X121224238Y-78618965D01*
X121480832Y-78526277D01*
X121593863Y-78465860D01*
X121659388Y-78226993D01*
X120882000Y-77449605D01*
X120104612Y-78226993D01*
X119507854Y-78226993D01*
X119631939Y-77994848D01*
X119654075Y-77921875D01*
X119686140Y-77981863D01*
X119925007Y-78047388D01*
X120702395Y-77270000D01*
X121061605Y-77270000D01*
X121838993Y-78047388D01*
X122077860Y-77981863D01*
X122193760Y-77734884D01*
X122259250Y-77470040D01*
X122271812Y-77197508D01*
X122230965Y-76927762D01*
X122138277Y-76671168D01*
X122077860Y-76558137D01*
X121838993Y-76492612D01*
X121061605Y-77270000D01*
X120702395Y-77270000D01*
X119925007Y-76492612D01*
X119767000Y-76535956D01*
X119767000Y-76313007D01*
X120104612Y-76313007D01*
X120882000Y-77090395D01*
X121659388Y-76313007D01*
X121593863Y-76074140D01*
X121346884Y-75958240D01*
X121082040Y-75892750D01*
X120809508Y-75880188D01*
X120539762Y-75921035D01*
X120283168Y-76013723D01*
X120170137Y-76074140D01*
X120104612Y-76313007D01*
X119767000Y-76313007D01*
X119767000Y-76050792D01*
X122729423Y-73088370D01*
X122801345Y-73029345D01*
X122860373Y-72957420D01*
X123036903Y-72742317D01*
X123092831Y-72637683D01*
X123211939Y-72414848D01*
X123319725Y-72059524D01*
X123347000Y-71782597D01*
X123347000Y-71782596D01*
X123356120Y-71690000D01*
X123347000Y-71597403D01*
X123347000Y-71470792D01*
X125318373Y-69499419D01*
X126527000Y-69499419D01*
X126527000Y-69880581D01*
X126601361Y-70254419D01*
X126747225Y-70606566D01*
X126958987Y-70923491D01*
X127228509Y-71193013D01*
X127545434Y-71404775D01*
X127897581Y-71550639D01*
X128271419Y-71625000D01*
X128652581Y-71625000D01*
X129026419Y-71550639D01*
X129378566Y-71404775D01*
X129695491Y-71193013D01*
X129965013Y-70923491D01*
X130176775Y-70606566D01*
X130322639Y-70254419D01*
X130397000Y-69880581D01*
X130397000Y-69499419D01*
X131527000Y-69499419D01*
X131527000Y-69880581D01*
X131601361Y-70254419D01*
X131747225Y-70606566D01*
X131958987Y-70923491D01*
X132228509Y-71193013D01*
X132545434Y-71404775D01*
X132897581Y-71550639D01*
X133271419Y-71625000D01*
X133652581Y-71625000D01*
X134026419Y-71550639D01*
X134378566Y-71404775D01*
X134695491Y-71193013D01*
X134965013Y-70923491D01*
X135176775Y-70606566D01*
X135322639Y-70254419D01*
X135397000Y-69880581D01*
X135397000Y-69499419D01*
X135322639Y-69125581D01*
X135176775Y-68773434D01*
X134965013Y-68456509D01*
X134695491Y-68186987D01*
X134378566Y-67975225D01*
X134026419Y-67829361D01*
X133652581Y-67755000D01*
X133271419Y-67755000D01*
X132897581Y-67829361D01*
X132545434Y-67975225D01*
X132228509Y-68186987D01*
X131958987Y-68456509D01*
X131747225Y-68773434D01*
X131601361Y-69125581D01*
X131527000Y-69499419D01*
X130397000Y-69499419D01*
X130322639Y-69125581D01*
X130176775Y-68773434D01*
X129965013Y-68456509D01*
X129695491Y-68186987D01*
X129378566Y-67975225D01*
X129026419Y-67829361D01*
X128652581Y-67755000D01*
X128271419Y-67755000D01*
X127897581Y-67829361D01*
X127545434Y-67975225D01*
X127228509Y-68186987D01*
X126958987Y-68456509D01*
X126747225Y-68773434D01*
X126601361Y-69125581D01*
X126527000Y-69499419D01*
X125318373Y-69499419D01*
X128242792Y-66575000D01*
X147681208Y-66575000D01*
X148913010Y-67806803D01*
X148652581Y-67755000D01*
X148271419Y-67755000D01*
X147897581Y-67829361D01*
X147545434Y-67975225D01*
X147228509Y-68186987D01*
X146958987Y-68456509D01*
X146747225Y-68773434D01*
X146601361Y-69125581D01*
X146527000Y-69499419D01*
X146527000Y-69880581D01*
X146601361Y-70254419D01*
X146747225Y-70606566D01*
X146958987Y-70923491D01*
X147228509Y-71193013D01*
X147545434Y-71404775D01*
X147897581Y-71550639D01*
X148271419Y-71625000D01*
X148652581Y-71625000D01*
X149026419Y-71550639D01*
X149378566Y-71404775D01*
X149695491Y-71193013D01*
X149965013Y-70923491D01*
X150176775Y-70606566D01*
X150322639Y-70254419D01*
X150397000Y-69880581D01*
X150397000Y-69499419D01*
X150345197Y-69238990D01*
X151816599Y-70710392D01*
X151958987Y-70923491D01*
X152228509Y-71193013D01*
X152545434Y-71404775D01*
X152897581Y-71550639D01*
X153271419Y-71625000D01*
X153652581Y-71625000D01*
X154026419Y-71550639D01*
X154378566Y-71404775D01*
X154695491Y-71193013D01*
X154965013Y-70923491D01*
X155176775Y-70606566D01*
X155322639Y-70254419D01*
X155397000Y-69880581D01*
X155397000Y-69499419D01*
X156527000Y-69499419D01*
X156527000Y-69880581D01*
X156601361Y-70254419D01*
X156747225Y-70606566D01*
X156958987Y-70923491D01*
X157228509Y-71193013D01*
X157545434Y-71404775D01*
X157897581Y-71550639D01*
X158271419Y-71625000D01*
X158652581Y-71625000D01*
X159026419Y-71550639D01*
X159378566Y-71404775D01*
X159695491Y-71193013D01*
X159965013Y-70923491D01*
X160176775Y-70606566D01*
X160322639Y-70254419D01*
X160397000Y-69880581D01*
X160397000Y-69499419D01*
X161527000Y-69499419D01*
X161527000Y-69880581D01*
X161601361Y-70254419D01*
X161747225Y-70606566D01*
X161958987Y-70923491D01*
X162228509Y-71193013D01*
X162545434Y-71404775D01*
X162897581Y-71550639D01*
X163271419Y-71625000D01*
X163652581Y-71625000D01*
X164026419Y-71550639D01*
X164378566Y-71404775D01*
X164695491Y-71193013D01*
X164849280Y-71039224D01*
X167292381Y-71039224D01*
X167424317Y-71334312D01*
X167765045Y-71505159D01*
X168132557Y-71606250D01*
X168512729Y-71633701D01*
X168890951Y-71586457D01*
X169252690Y-71466333D01*
X169499683Y-71334312D01*
X169631619Y-71039224D01*
X169582395Y-70990000D01*
X171523928Y-70990000D01*
X171536188Y-71114482D01*
X171572498Y-71234180D01*
X171631463Y-71344494D01*
X171710815Y-71441185D01*
X171807506Y-71520537D01*
X171917820Y-71579502D01*
X172037518Y-71615812D01*
X172162000Y-71628072D01*
X173176250Y-71625000D01*
X173335000Y-71466250D01*
X173335000Y-69817000D01*
X173589000Y-69817000D01*
X173589000Y-71466250D01*
X173747750Y-71625000D01*
X174762000Y-71628072D01*
X174886482Y-71615812D01*
X175006180Y-71579502D01*
X175116494Y-71520537D01*
X175213185Y-71441185D01*
X175292537Y-71344494D01*
X175351502Y-71234180D01*
X175387812Y-71114482D01*
X175400072Y-70990000D01*
X175397000Y-69975750D01*
X175238250Y-69817000D01*
X173589000Y-69817000D01*
X173335000Y-69817000D01*
X171685750Y-69817000D01*
X171527000Y-69975750D01*
X171523928Y-70990000D01*
X169582395Y-70990000D01*
X168462000Y-69869605D01*
X167292381Y-71039224D01*
X164849280Y-71039224D01*
X164965013Y-70923491D01*
X165176775Y-70606566D01*
X165322639Y-70254419D01*
X165397000Y-69880581D01*
X165397000Y-69740729D01*
X166518299Y-69740729D01*
X166565543Y-70118951D01*
X166685667Y-70480690D01*
X166817688Y-70727683D01*
X167112776Y-70859619D01*
X168282395Y-69690000D01*
X168641605Y-69690000D01*
X169811224Y-70859619D01*
X170106312Y-70727683D01*
X170277159Y-70386955D01*
X170378250Y-70019443D01*
X170405701Y-69639271D01*
X170358457Y-69261049D01*
X170238333Y-68899310D01*
X170106312Y-68652317D01*
X169811224Y-68520381D01*
X168641605Y-69690000D01*
X168282395Y-69690000D01*
X167112776Y-68520381D01*
X166817688Y-68652317D01*
X166646841Y-68993045D01*
X166545750Y-69360557D01*
X166518299Y-69740729D01*
X165397000Y-69740729D01*
X165397000Y-69499419D01*
X165322639Y-69125581D01*
X165176775Y-68773434D01*
X164965013Y-68456509D01*
X164849280Y-68340776D01*
X167292381Y-68340776D01*
X168462000Y-69510395D01*
X169582395Y-68390000D01*
X171523928Y-68390000D01*
X171527000Y-69404250D01*
X171685750Y-69563000D01*
X173335000Y-69563000D01*
X173335000Y-67913750D01*
X173589000Y-67913750D01*
X173589000Y-69563000D01*
X175238250Y-69563000D01*
X175397000Y-69404250D01*
X175400072Y-68390000D01*
X175387812Y-68265518D01*
X175351502Y-68145820D01*
X175292537Y-68035506D01*
X175213185Y-67938815D01*
X175116494Y-67859463D01*
X175006180Y-67800498D01*
X174886482Y-67764188D01*
X174762000Y-67751928D01*
X173747750Y-67755000D01*
X173589000Y-67913750D01*
X173335000Y-67913750D01*
X173176250Y-67755000D01*
X172162000Y-67751928D01*
X172037518Y-67764188D01*
X171917820Y-67800498D01*
X171807506Y-67859463D01*
X171710815Y-67938815D01*
X171631463Y-68035506D01*
X171572498Y-68145820D01*
X171536188Y-68265518D01*
X171523928Y-68390000D01*
X169582395Y-68390000D01*
X169631619Y-68340776D01*
X169499683Y-68045688D01*
X169158955Y-67874841D01*
X168791443Y-67773750D01*
X168411271Y-67746299D01*
X168033049Y-67793543D01*
X167671310Y-67913667D01*
X167424317Y-68045688D01*
X167292381Y-68340776D01*
X164849280Y-68340776D01*
X164695491Y-68186987D01*
X164378566Y-67975225D01*
X164026419Y-67829361D01*
X163652581Y-67755000D01*
X163271419Y-67755000D01*
X162897581Y-67829361D01*
X162545434Y-67975225D01*
X162228509Y-68186987D01*
X161958987Y-68456509D01*
X161747225Y-68773434D01*
X161601361Y-69125581D01*
X161527000Y-69499419D01*
X160397000Y-69499419D01*
X160322639Y-69125581D01*
X160176775Y-68773434D01*
X159965013Y-68456509D01*
X159695491Y-68186987D01*
X159378566Y-67975225D01*
X159026419Y-67829361D01*
X158652581Y-67755000D01*
X158271419Y-67755000D01*
X157897581Y-67829361D01*
X157545434Y-67975225D01*
X157228509Y-68186987D01*
X156958987Y-68456509D01*
X156747225Y-68773434D01*
X156601361Y-69125581D01*
X156527000Y-69499419D01*
X155397000Y-69499419D01*
X155322639Y-69125581D01*
X155176775Y-68773434D01*
X154965013Y-68456509D01*
X154695491Y-68186987D01*
X154482392Y-68044599D01*
X149860374Y-63422582D01*
X149801345Y-63350655D01*
X149514317Y-63115097D01*
X149186848Y-62940061D01*
X148831524Y-62832275D01*
X148554597Y-62805000D01*
X148554589Y-62805000D01*
X148462000Y-62795881D01*
X148369411Y-62805000D01*
X127554586Y-62805000D01*
X127461999Y-62795881D01*
X127369412Y-62805000D01*
X127369403Y-62805000D01*
X127092476Y-62832275D01*
X126737152Y-62940061D01*
X126409683Y-63115097D01*
X126122655Y-63350655D01*
X126063626Y-63422582D01*
X120194578Y-69291630D01*
X120122656Y-69350655D01*
X120063631Y-69422577D01*
X120063628Y-69422580D01*
X119948389Y-69563000D01*
X119887098Y-69637683D01*
X119712061Y-69965152D01*
X119604275Y-70320476D01*
X119577000Y-70597403D01*
X119577000Y-70597411D01*
X119567881Y-70690000D01*
X119577000Y-70782589D01*
X119577000Y-70909207D01*
X119389569Y-71096638D01*
X119400072Y-70990000D01*
X119400072Y-68390000D01*
X119387812Y-68265518D01*
X119351502Y-68145820D01*
X119292537Y-68035506D01*
X119213185Y-67938815D01*
X119116494Y-67859463D01*
X119006180Y-67800498D01*
X118886482Y-67764188D01*
X118762000Y-67751928D01*
X116162000Y-67751928D01*
X116037518Y-67764188D01*
X115917820Y-67800498D01*
X115807506Y-67859463D01*
X115710815Y-67938815D01*
X115631463Y-68035506D01*
X115572498Y-68145820D01*
X115536188Y-68265518D01*
X115523928Y-68390000D01*
X115523928Y-70990000D01*
X115536188Y-71114482D01*
X115572498Y-71234180D01*
X115631463Y-71344494D01*
X115710815Y-71441185D01*
X115807506Y-71520537D01*
X115917820Y-71579502D01*
X116037518Y-71615812D01*
X116162000Y-71628072D01*
X118762000Y-71628072D01*
X118868638Y-71617569D01*
X116614577Y-73871631D01*
X116542656Y-73930655D01*
X116483631Y-74002577D01*
X116483628Y-74002580D01*
X116307098Y-74217683D01*
X116132062Y-74545152D01*
X116024275Y-74900476D01*
X115987881Y-75270000D01*
X115997001Y-75362598D01*
X115997000Y-77362596D01*
X116022347Y-77619946D01*
X115899322Y-77470040D01*
X115860372Y-77422579D01*
X115860370Y-77422577D01*
X115801345Y-77350655D01*
X115729423Y-77291630D01*
X109347000Y-70909208D01*
X109347000Y-70131948D01*
X109397000Y-69880581D01*
X109397000Y-69499419D01*
X110527000Y-69499419D01*
X110527000Y-69880581D01*
X110601361Y-70254419D01*
X110747225Y-70606566D01*
X110958987Y-70923491D01*
X111228509Y-71193013D01*
X111545434Y-71404775D01*
X111897581Y-71550639D01*
X112271419Y-71625000D01*
X112652581Y-71625000D01*
X113026419Y-71550639D01*
X113378566Y-71404775D01*
X113695491Y-71193013D01*
X113965013Y-70923491D01*
X114176775Y-70606566D01*
X114322639Y-70254419D01*
X114397000Y-69880581D01*
X114397000Y-69499419D01*
X114322639Y-69125581D01*
X114176775Y-68773434D01*
X113965013Y-68456509D01*
X113695491Y-68186987D01*
X113378566Y-67975225D01*
X113026419Y-67829361D01*
X112652581Y-67755000D01*
X112271419Y-67755000D01*
X111897581Y-67829361D01*
X111545434Y-67975225D01*
X111228509Y-68186987D01*
X110958987Y-68456509D01*
X110747225Y-68773434D01*
X110601361Y-69125581D01*
X110527000Y-69499419D01*
X109397000Y-69499419D01*
X109322639Y-69125581D01*
X109176775Y-68773434D01*
X108965013Y-68456509D01*
X108695491Y-68186987D01*
X108378566Y-67975225D01*
X108026419Y-67829361D01*
X107652581Y-67755000D01*
X107271419Y-67755000D01*
X106897581Y-67829361D01*
X106545434Y-67975225D01*
X106228509Y-68186987D01*
X105958987Y-68456509D01*
X105747225Y-68773434D01*
X105601361Y-69125581D01*
X105527000Y-69499419D01*
X105527000Y-69880581D01*
X105577001Y-70131952D01*
X105577000Y-71597410D01*
X105567881Y-71690000D01*
X105577000Y-71782589D01*
X105577000Y-71782596D01*
X105604275Y-72059523D01*
X105712061Y-72414847D01*
X105887097Y-72742317D01*
X106122655Y-73029345D01*
X106194582Y-73088374D01*
X112577001Y-79470794D01*
X112577000Y-83597410D01*
X112567881Y-83690000D01*
X112577000Y-83782589D01*
X112577000Y-83782596D01*
X112581316Y-83826413D01*
X112604275Y-84059524D01*
X112632809Y-84153587D01*
X112712061Y-84414847D01*
X112887097Y-84742317D01*
X113122655Y-85029345D01*
X113194582Y-85088374D01*
X117136207Y-89030000D01*
X93084015Y-89030000D01*
X93689938Y-88974178D01*
X94414208Y-88759452D01*
X95082670Y-88407555D01*
X95123088Y-88380548D01*
X95483276Y-87890881D01*
X92962000Y-85369605D01*
X90440724Y-87890881D01*
X90800912Y-88380548D01*
X91464882Y-88740849D01*
X92186385Y-88964694D01*
X92809149Y-89030000D01*
X89494279Y-89030000D01*
X89396576Y-89020420D01*
X89333643Y-89001420D01*
X89275594Y-88970554D01*
X89224657Y-88929011D01*
X89182752Y-88878356D01*
X89151485Y-88820529D01*
X89132044Y-88757728D01*
X89122000Y-88662165D01*
X89122000Y-85312015D01*
X89177822Y-85917938D01*
X89392548Y-86642208D01*
X89744445Y-87310670D01*
X89771452Y-87351088D01*
X90261119Y-87711276D01*
X92782395Y-85190000D01*
X93141605Y-85190000D01*
X95662881Y-87711276D01*
X96152548Y-87351088D01*
X96512849Y-86687118D01*
X96736694Y-85965615D01*
X96815480Y-85214305D01*
X96746178Y-84462062D01*
X96531452Y-83737792D01*
X96179555Y-83069330D01*
X96152548Y-83028912D01*
X95662881Y-82668724D01*
X93141605Y-85190000D01*
X92782395Y-85190000D01*
X90261119Y-82668724D01*
X89771452Y-83028912D01*
X89411151Y-83692882D01*
X89187306Y-84414385D01*
X89122000Y-85037149D01*
X89122000Y-82489119D01*
X90440724Y-82489119D01*
X92962000Y-85010395D01*
X95483276Y-82489119D01*
X95123088Y-81999452D01*
X94459118Y-81639151D01*
X93737615Y-81415306D01*
X92986305Y-81336520D01*
X92234062Y-81405822D01*
X91509792Y-81620548D01*
X90841330Y-81972445D01*
X90800912Y-81999452D01*
X90440724Y-82489119D01*
X89122000Y-82489119D01*
X89122000Y-69499419D01*
X100527000Y-69499419D01*
X100527000Y-69880581D01*
X100601361Y-70254419D01*
X100747225Y-70606566D01*
X100958987Y-70923491D01*
X101228509Y-71193013D01*
X101545434Y-71404775D01*
X101897581Y-71550639D01*
X102271419Y-71625000D01*
X102652581Y-71625000D01*
X103026419Y-71550639D01*
X103378566Y-71404775D01*
X103695491Y-71193013D01*
X103965013Y-70923491D01*
X104176775Y-70606566D01*
X104322639Y-70254419D01*
X104397000Y-69880581D01*
X104397000Y-69499419D01*
X104322639Y-69125581D01*
X104176775Y-68773434D01*
X103965013Y-68456509D01*
X103695491Y-68186987D01*
X103378566Y-67975225D01*
X103026419Y-67829361D01*
X102652581Y-67755000D01*
X102271419Y-67755000D01*
X101897581Y-67829361D01*
X101545434Y-67975225D01*
X101228509Y-68186987D01*
X100958987Y-68456509D01*
X100747225Y-68773434D01*
X100601361Y-69125581D01*
X100527000Y-69499419D01*
X89122000Y-69499419D01*
X89122000Y-61722279D01*
X89131580Y-61624576D01*
X89150580Y-61561644D01*
X89181445Y-61503595D01*
X89222989Y-61452657D01*
X89273644Y-61410752D01*
X89331471Y-61379485D01*
X89394272Y-61360044D01*
X89489835Y-61350000D01*
X175429721Y-61350000D01*
X175527424Y-61359580D01*
M02*
