M48
; DRILL file {KiCad 5.1.5-52549c5~84~ubuntu18.04.1} date Sun 22 Mar 2020 08:22:11 PM EDT
; FORMAT={-:-/ absolute / inch / decimal}
; #@! TF.CreationDate,2020-03-22T20:22:11-04:00
; #@! TF.GenerationSoftware,Kicad,Pcbnew,5.1.5-52549c5~84~ubuntu18.04.1
FMAT,2
INCH
T1C0.0197
T2C0.0402
T3C0.0512
T4C0.0787
T5C0.1260
T6C0.0433
T7C0.1181
%
G90
G05
T1
X3.5654Y-3.3539
X3.5931Y-3.2871
X3.5931Y-3.4208
X3.6599Y-3.2594
X3.6599Y-3.4484
X3.7267Y-3.2871
X3.7267Y-3.4208
X3.7544Y-3.3539
T2
X6.4749Y-3.098
X6.4749Y-3.198
X6.4749Y-3.298
X6.4749Y-3.398
X4.641Y-3.0421
X4.641Y-3.1602
X4.7591Y-3.0421
X4.7591Y-3.1602
X4.8772Y-3.0421
X4.8772Y-3.1602
X4.9954Y-3.0421
X4.9954Y-3.1602
X5.1135Y-3.0421
X5.1135Y-3.1602
X5.2316Y-3.0421
X5.2316Y-3.1602
X5.3497Y-3.0421
X5.3497Y-3.1602
X5.4678Y-3.0421
X5.4678Y-3.1602
X5.5859Y-3.0421
X5.5859Y-3.1602
X5.704Y-3.0421
X5.704Y-3.1602
X5.8221Y-3.0421
X5.8221Y-3.1602
X5.9402Y-3.0421
X5.9402Y-3.1602
T3
X5.0576Y-2.7437
X5.2544Y-2.7437
X5.4513Y-2.7437
X5.6481Y-2.7437
X5.845Y-2.7437
X6.0418Y-2.7437
X6.2387Y-2.7437
X6.4355Y-2.7437
X6.6324Y-2.7437
X6.8292Y-2.7437
X4.0339Y-2.7437
X4.2308Y-2.7437
X4.4276Y-2.7437
X4.6245Y-2.7437
T4
X6.7505Y-3.7604
X6.7505Y-3.4917
T5
X3.6599Y-3.3539
T6
X6.5599Y-3.298
T7
X4.7253Y-3.3303
X5.8552Y-3.3303
T0
M30
