G04 #@! TF.GenerationSoftware,KiCad,Pcbnew,5.1.5-52549c5~84~ubuntu18.04.1*
G04 #@! TF.CreationDate,2020-03-22T20:22:03-04:00*
G04 #@! TF.ProjectId,imac_g3_down_converter_board_adapter,696d6163-5f67-4335-9f64-6f776e5f636f,1*
G04 #@! TF.SameCoordinates,Original*
G04 #@! TF.FileFunction,Soldermask,Top*
G04 #@! TF.FilePolarity,Negative*
%FSLAX46Y46*%
G04 Gerber Fmt 4.6, Leading zero omitted, Abs format (unit mm)*
G04 Created by KiCad (PCBNEW 5.1.5-52549c5~84~ubuntu18.04.1) date 2020-03-22 20:22:03*
%MOMM*%
%LPD*%
G04 APERTURE LIST*
%ADD10C,0.100000*%
G04 APERTURE END LIST*
D10*
G36*
X171764585Y-93993803D02*
G01*
X171914410Y-94023605D01*
X172196674Y-94140522D01*
X172450705Y-94310260D01*
X172666741Y-94526296D01*
X172836479Y-94780327D01*
X172953396Y-95062591D01*
X172978711Y-95189858D01*
X172999314Y-95293434D01*
X173013000Y-95362241D01*
X173013000Y-95667761D01*
X172953396Y-95967411D01*
X172836479Y-96249675D01*
X172666741Y-96503706D01*
X172450705Y-96719742D01*
X172196674Y-96889480D01*
X171914410Y-97006397D01*
X171764585Y-97036199D01*
X171614761Y-97066001D01*
X171309239Y-97066001D01*
X171159415Y-97036199D01*
X171009590Y-97006397D01*
X170727326Y-96889480D01*
X170473295Y-96719742D01*
X170257259Y-96503706D01*
X170087521Y-96249675D01*
X169970604Y-95967411D01*
X169911000Y-95667761D01*
X169911000Y-95362241D01*
X169924687Y-95293434D01*
X169945289Y-95189858D01*
X169970604Y-95062591D01*
X170087521Y-94780327D01*
X170257259Y-94526296D01*
X170473295Y-94310260D01*
X170727326Y-94140522D01*
X171009590Y-94023605D01*
X171159415Y-93993803D01*
X171309239Y-93964001D01*
X171614761Y-93964001D01*
X171764585Y-93993803D01*
G37*
G36*
X160021999Y-93889737D02*
G01*
X160036528Y-93894145D01*
X160049711Y-93899606D01*
X160073745Y-93904388D01*
X160098249Y-93904389D01*
X160122282Y-93899609D01*
X160144921Y-93890232D01*
X160146765Y-93889000D01*
X161378050Y-93889000D01*
X161390164Y-93895475D01*
X161413613Y-93902588D01*
X161437999Y-93904990D01*
X161462385Y-93902588D01*
X161485834Y-93895475D01*
X161490746Y-93893152D01*
X161502001Y-93889737D01*
X161518140Y-93888148D01*
X162055861Y-93888148D01*
X162074199Y-93889954D01*
X162086450Y-93890556D01*
X162104869Y-93890556D01*
X162127149Y-93892750D01*
X162211233Y-93909476D01*
X162232660Y-93915976D01*
X162311858Y-93948780D01*
X162317303Y-93951691D01*
X162317309Y-93951693D01*
X162326169Y-93956429D01*
X162326173Y-93956432D01*
X162331614Y-93959340D01*
X162402899Y-94006971D01*
X162420204Y-94021172D01*
X162480828Y-94081796D01*
X162495029Y-94099101D01*
X162542660Y-94170386D01*
X162545568Y-94175827D01*
X162545571Y-94175831D01*
X162550307Y-94184691D01*
X162550309Y-94184697D01*
X162553220Y-94190142D01*
X162586024Y-94269340D01*
X162592524Y-94290767D01*
X162609250Y-94374851D01*
X162611444Y-94397131D01*
X162611444Y-94415550D01*
X162612046Y-94427801D01*
X162613852Y-94446139D01*
X162613852Y-94933862D01*
X162612046Y-94952199D01*
X162611444Y-94964450D01*
X162611444Y-94982869D01*
X162609250Y-95005149D01*
X162592524Y-95089233D01*
X162586024Y-95110660D01*
X162553220Y-95189858D01*
X162550309Y-95195303D01*
X162550307Y-95195309D01*
X162545571Y-95204169D01*
X162545568Y-95204173D01*
X162542660Y-95209614D01*
X162495029Y-95280899D01*
X162480828Y-95298204D01*
X162420204Y-95358828D01*
X162402899Y-95373029D01*
X162331614Y-95420660D01*
X162326173Y-95423568D01*
X162326169Y-95423571D01*
X162317309Y-95428307D01*
X162317303Y-95428309D01*
X162311858Y-95431220D01*
X162232660Y-95464024D01*
X162211233Y-95470524D01*
X162127149Y-95487250D01*
X162104869Y-95489444D01*
X162086450Y-95489444D01*
X162074199Y-95490046D01*
X162055862Y-95491852D01*
X161518140Y-95491852D01*
X161502001Y-95490263D01*
X161487472Y-95485855D01*
X161474289Y-95480394D01*
X161450255Y-95475612D01*
X161425751Y-95475611D01*
X161401718Y-95480391D01*
X161379079Y-95489768D01*
X161377235Y-95491000D01*
X160145950Y-95491000D01*
X160133836Y-95484525D01*
X160110387Y-95477412D01*
X160086001Y-95475010D01*
X160061615Y-95477412D01*
X160038166Y-95484525D01*
X160033254Y-95486848D01*
X160021999Y-95490263D01*
X160005860Y-95491852D01*
X159468138Y-95491852D01*
X159449801Y-95490046D01*
X159437550Y-95489444D01*
X159419131Y-95489444D01*
X159396851Y-95487250D01*
X159312767Y-95470524D01*
X159291340Y-95464024D01*
X159212142Y-95431220D01*
X159206697Y-95428309D01*
X159206691Y-95428307D01*
X159197831Y-95423571D01*
X159197827Y-95423568D01*
X159192386Y-95420660D01*
X159121101Y-95373029D01*
X159103796Y-95358828D01*
X159043172Y-95298204D01*
X159028971Y-95280899D01*
X158981340Y-95209614D01*
X158978432Y-95204173D01*
X158978429Y-95204169D01*
X158973693Y-95195309D01*
X158973691Y-95195303D01*
X158970780Y-95189858D01*
X158937976Y-95110660D01*
X158931476Y-95089233D01*
X158914750Y-95005149D01*
X158912556Y-94982869D01*
X158912556Y-94964450D01*
X158911954Y-94952199D01*
X158910148Y-94933862D01*
X158910148Y-94446139D01*
X158911954Y-94427801D01*
X158912556Y-94415550D01*
X158912556Y-94397131D01*
X158914750Y-94374851D01*
X158931476Y-94290767D01*
X158937976Y-94269340D01*
X158970780Y-94190142D01*
X158973691Y-94184697D01*
X158973693Y-94184691D01*
X158978429Y-94175831D01*
X158978432Y-94175827D01*
X158981340Y-94170386D01*
X159028971Y-94099101D01*
X159043172Y-94081796D01*
X159103796Y-94021172D01*
X159121101Y-94006971D01*
X159192386Y-93959340D01*
X159197827Y-93956432D01*
X159197831Y-93956429D01*
X159206691Y-93951693D01*
X159206697Y-93951691D01*
X159212142Y-93948780D01*
X159291340Y-93915976D01*
X159312767Y-93909476D01*
X159396851Y-93892750D01*
X159419131Y-93890556D01*
X159437550Y-93890556D01*
X159449801Y-93889954D01*
X159468139Y-93888148D01*
X160005860Y-93888148D01*
X160021999Y-93889737D01*
G37*
G36*
X171764585Y-87168802D02*
G01*
X171914410Y-87198604D01*
X172196674Y-87315521D01*
X172450705Y-87485259D01*
X172666741Y-87701295D01*
X172836479Y-87955326D01*
X172953396Y-88237590D01*
X173013000Y-88537240D01*
X173013000Y-88842760D01*
X172953396Y-89142410D01*
X172836479Y-89424674D01*
X172666741Y-89678705D01*
X172450705Y-89894741D01*
X172196674Y-90064479D01*
X171914410Y-90181396D01*
X171764585Y-90211198D01*
X171614761Y-90241000D01*
X171309239Y-90241000D01*
X171159415Y-90211198D01*
X171009590Y-90181396D01*
X170727326Y-90064479D01*
X170473295Y-89894741D01*
X170257259Y-89678705D01*
X170087521Y-89424674D01*
X169970604Y-89142410D01*
X169911000Y-88842760D01*
X169911000Y-88537240D01*
X169970604Y-88237590D01*
X170087521Y-87955326D01*
X170257259Y-87701295D01*
X170473295Y-87485259D01*
X170727326Y-87315521D01*
X171009590Y-87198604D01*
X171159415Y-87168802D01*
X171309239Y-87139000D01*
X171614761Y-87139000D01*
X171764585Y-87168802D01*
G37*
G36*
X93565291Y-81995311D02*
G01*
X93910282Y-82063934D01*
X94501926Y-82309001D01*
X94791523Y-82502504D01*
X95034391Y-82664783D01*
X95487217Y-83117609D01*
X95557986Y-83223523D01*
X95842999Y-83650074D01*
X96088066Y-84241718D01*
X96126958Y-84437240D01*
X96213000Y-84869803D01*
X96213000Y-85510197D01*
X96183370Y-85659156D01*
X96088066Y-86138282D01*
X95842999Y-86729926D01*
X95595265Y-87100685D01*
X95511533Y-87226000D01*
X95487216Y-87262392D01*
X95034392Y-87715216D01*
X94501926Y-88070999D01*
X93910282Y-88316066D01*
X93596239Y-88378533D01*
X93282197Y-88441000D01*
X92641803Y-88441000D01*
X92327761Y-88378533D01*
X92013718Y-88316066D01*
X91422074Y-88070999D01*
X90889608Y-87715216D01*
X90436784Y-87262392D01*
X90412468Y-87226000D01*
X90328735Y-87100685D01*
X90081001Y-86729926D01*
X89835934Y-86138282D01*
X89740630Y-85659156D01*
X89711000Y-85510197D01*
X89711000Y-84869803D01*
X89797042Y-84437240D01*
X89835934Y-84241718D01*
X90081001Y-83650074D01*
X90366014Y-83223523D01*
X90436783Y-83117609D01*
X90889609Y-82664783D01*
X91132477Y-82502504D01*
X91422074Y-82309001D01*
X92013718Y-82063934D01*
X92358709Y-81995311D01*
X92641803Y-81939000D01*
X93282197Y-81939000D01*
X93565291Y-81995311D01*
G37*
G36*
X164772343Y-85405361D02*
G01*
X164791568Y-85407254D01*
X164964234Y-85459632D01*
X165123365Y-85544689D01*
X165262844Y-85659156D01*
X165377311Y-85798635D01*
X165462368Y-85957766D01*
X165514746Y-86130433D01*
X165532432Y-86310000D01*
X165514746Y-86489567D01*
X165462368Y-86662234D01*
X165377311Y-86821365D01*
X165262844Y-86960844D01*
X165123365Y-87075311D01*
X164964234Y-87160368D01*
X164791568Y-87212746D01*
X164772343Y-87214639D01*
X164656998Y-87226000D01*
X164267002Y-87226000D01*
X164151657Y-87214639D01*
X164132432Y-87212746D01*
X163959766Y-87160368D01*
X163800635Y-87075311D01*
X163661156Y-86960844D01*
X163546689Y-86821365D01*
X163461632Y-86662234D01*
X163409254Y-86489567D01*
X163391568Y-86310000D01*
X163409254Y-86130433D01*
X163461632Y-85957766D01*
X163546689Y-85798635D01*
X163661156Y-85659156D01*
X163800635Y-85544689D01*
X163959766Y-85459632D01*
X164132432Y-85407254D01*
X164151657Y-85405361D01*
X164267002Y-85394000D01*
X164656998Y-85394000D01*
X164772343Y-85405361D01*
G37*
G36*
X149024585Y-83068802D02*
G01*
X149174410Y-83098604D01*
X149456674Y-83215521D01*
X149710705Y-83385259D01*
X149926741Y-83601295D01*
X150096479Y-83855326D01*
X150213396Y-84137590D01*
X150241994Y-84281363D01*
X150273000Y-84437239D01*
X150273000Y-84742761D01*
X150263538Y-84790329D01*
X150213396Y-85042410D01*
X150096479Y-85324674D01*
X149926741Y-85578705D01*
X149710705Y-85794741D01*
X149456674Y-85964479D01*
X149174410Y-86081396D01*
X149024585Y-86111198D01*
X148874761Y-86141000D01*
X148569239Y-86141000D01*
X148419415Y-86111198D01*
X148269590Y-86081396D01*
X147987326Y-85964479D01*
X147733295Y-85794741D01*
X147517259Y-85578705D01*
X147347521Y-85324674D01*
X147230604Y-85042410D01*
X147180462Y-84790329D01*
X147171000Y-84742761D01*
X147171000Y-84437239D01*
X147202006Y-84281363D01*
X147230604Y-84137590D01*
X147347521Y-83855326D01*
X147517259Y-83601295D01*
X147733295Y-83385259D01*
X147987326Y-83215521D01*
X148269590Y-83098604D01*
X148419415Y-83068802D01*
X148569239Y-83039000D01*
X148874761Y-83039000D01*
X149024585Y-83068802D01*
G37*
G36*
X120324585Y-83068802D02*
G01*
X120474410Y-83098604D01*
X120756674Y-83215521D01*
X121010705Y-83385259D01*
X121226741Y-83601295D01*
X121396479Y-83855326D01*
X121513396Y-84137590D01*
X121541994Y-84281363D01*
X121573000Y-84437239D01*
X121573000Y-84742761D01*
X121563538Y-84790329D01*
X121513396Y-85042410D01*
X121396479Y-85324674D01*
X121226741Y-85578705D01*
X121010705Y-85794741D01*
X120756674Y-85964479D01*
X120474410Y-86081396D01*
X120324585Y-86111198D01*
X120174761Y-86141000D01*
X119869239Y-86141000D01*
X119719415Y-86111198D01*
X119569590Y-86081396D01*
X119287326Y-85964479D01*
X119033295Y-85794741D01*
X118817259Y-85578705D01*
X118647521Y-85324674D01*
X118530604Y-85042410D01*
X118480462Y-84790329D01*
X118471000Y-84742761D01*
X118471000Y-84437239D01*
X118502006Y-84281363D01*
X118530604Y-84137590D01*
X118647521Y-83855326D01*
X118817259Y-83601295D01*
X119033295Y-83385259D01*
X119287326Y-83215521D01*
X119569590Y-83098604D01*
X119719415Y-83068802D01*
X119869239Y-83039000D01*
X120174761Y-83039000D01*
X120324585Y-83068802D01*
G37*
G36*
X164772343Y-82865361D02*
G01*
X164791568Y-82867254D01*
X164964234Y-82919632D01*
X165123365Y-83004689D01*
X165262844Y-83119156D01*
X165377311Y-83258635D01*
X165462368Y-83417766D01*
X165514746Y-83590433D01*
X165532432Y-83770000D01*
X165514746Y-83949567D01*
X165462368Y-84122234D01*
X165377311Y-84281365D01*
X165262844Y-84420844D01*
X165123365Y-84535311D01*
X164964234Y-84620368D01*
X164791568Y-84672746D01*
X164772343Y-84674639D01*
X164656998Y-84686000D01*
X164267002Y-84686000D01*
X164151657Y-84674639D01*
X164132432Y-84672746D01*
X163959766Y-84620368D01*
X163800635Y-84535311D01*
X163661156Y-84420844D01*
X163546689Y-84281365D01*
X163461632Y-84122234D01*
X163409254Y-83949567D01*
X163391568Y-83770000D01*
X163409254Y-83590433D01*
X163461632Y-83417766D01*
X163546689Y-83258635D01*
X163661156Y-83119156D01*
X163800635Y-83004689D01*
X163959766Y-82919632D01*
X164132432Y-82867254D01*
X164151657Y-82865361D01*
X164267002Y-82854000D01*
X164656998Y-82854000D01*
X164772343Y-82865361D01*
G37*
G36*
X166758601Y-83184397D02*
G01*
X166797305Y-83192096D01*
X166829340Y-83205365D01*
X166906680Y-83237400D01*
X167005115Y-83303173D01*
X167088827Y-83386885D01*
X167154600Y-83485320D01*
X167176157Y-83537364D01*
X167198139Y-83590433D01*
X167199904Y-83594696D01*
X167223000Y-83710805D01*
X167223000Y-83829195D01*
X167210385Y-83892615D01*
X167199904Y-83945305D01*
X167198138Y-83949568D01*
X167154600Y-84054680D01*
X167088827Y-84153115D01*
X167005115Y-84236827D01*
X166906680Y-84302600D01*
X166829340Y-84334635D01*
X166797305Y-84347904D01*
X166758601Y-84355603D01*
X166681195Y-84371000D01*
X166562805Y-84371000D01*
X166485399Y-84355603D01*
X166446695Y-84347904D01*
X166414660Y-84334635D01*
X166337320Y-84302600D01*
X166238885Y-84236827D01*
X166155173Y-84153115D01*
X166089400Y-84054680D01*
X166045862Y-83949568D01*
X166044096Y-83945305D01*
X166033615Y-83892615D01*
X166021000Y-83829195D01*
X166021000Y-83710805D01*
X166044096Y-83594696D01*
X166045862Y-83590433D01*
X166067843Y-83537364D01*
X166089400Y-83485320D01*
X166155173Y-83386885D01*
X166238885Y-83303173D01*
X166337320Y-83237400D01*
X166414660Y-83205365D01*
X166446695Y-83192096D01*
X166485399Y-83184397D01*
X166562805Y-83169000D01*
X166681195Y-83169000D01*
X166758601Y-83184397D01*
G37*
G36*
X164772343Y-80325361D02*
G01*
X164791568Y-80327254D01*
X164862898Y-80348892D01*
X164964234Y-80379632D01*
X165123365Y-80464689D01*
X165262844Y-80579156D01*
X165377311Y-80718635D01*
X165462368Y-80877766D01*
X165466740Y-80892178D01*
X165511648Y-81040218D01*
X165514746Y-81050433D01*
X165532432Y-81230000D01*
X165514746Y-81409567D01*
X165462368Y-81582234D01*
X165377311Y-81741365D01*
X165262844Y-81880844D01*
X165123365Y-81995311D01*
X164964234Y-82080368D01*
X164877900Y-82106557D01*
X164791568Y-82132746D01*
X164772343Y-82134639D01*
X164656998Y-82146000D01*
X164267002Y-82146000D01*
X164151657Y-82134639D01*
X164132432Y-82132746D01*
X164046100Y-82106557D01*
X163959766Y-82080368D01*
X163800635Y-81995311D01*
X163661156Y-81880844D01*
X163546689Y-81741365D01*
X163461632Y-81582234D01*
X163409254Y-81409567D01*
X163391568Y-81230000D01*
X163409254Y-81050433D01*
X163412353Y-81040218D01*
X163457260Y-80892178D01*
X163461632Y-80877766D01*
X163546689Y-80718635D01*
X163661156Y-80579156D01*
X163800635Y-80464689D01*
X163959766Y-80379632D01*
X164061102Y-80348892D01*
X164132432Y-80327254D01*
X164151657Y-80325361D01*
X164267002Y-80314000D01*
X164656998Y-80314000D01*
X164772343Y-80325361D01*
G37*
G36*
X151535048Y-79473122D02*
G01*
X151569387Y-79483539D01*
X151601036Y-79500456D01*
X151628778Y-79523222D01*
X151651544Y-79550964D01*
X151668461Y-79582613D01*
X151678878Y-79616952D01*
X151683000Y-79658807D01*
X151683000Y-80881193D01*
X151678878Y-80923048D01*
X151668461Y-80957387D01*
X151651544Y-80989036D01*
X151628778Y-81016778D01*
X151601036Y-81039544D01*
X151569387Y-81056461D01*
X151535048Y-81066878D01*
X151493193Y-81071000D01*
X150270807Y-81071000D01*
X150228952Y-81066878D01*
X150194613Y-81056461D01*
X150162964Y-81039544D01*
X150135222Y-81016778D01*
X150112456Y-80989036D01*
X150095539Y-80957387D01*
X150085122Y-80923048D01*
X150081000Y-80881193D01*
X150081000Y-79658807D01*
X150085122Y-79616952D01*
X150095539Y-79582613D01*
X150112456Y-79550964D01*
X150135222Y-79523222D01*
X150162964Y-79500456D01*
X150194613Y-79483539D01*
X150228952Y-79473122D01*
X150270807Y-79469000D01*
X151493193Y-79469000D01*
X151535048Y-79473122D01*
G37*
G36*
X118115642Y-79499781D02*
G01*
X118239208Y-79550964D01*
X118261416Y-79560163D01*
X118392608Y-79647822D01*
X118504178Y-79759392D01*
X118591837Y-79890584D01*
X118591838Y-79890586D01*
X118652219Y-80036358D01*
X118683000Y-80191107D01*
X118683000Y-80348893D01*
X118652219Y-80503642D01*
X118591838Y-80649414D01*
X118591837Y-80649416D01*
X118504178Y-80780608D01*
X118392608Y-80892178D01*
X118261416Y-80979837D01*
X118261415Y-80979838D01*
X118261414Y-80979838D01*
X118115642Y-81040219D01*
X117960893Y-81071000D01*
X117803107Y-81071000D01*
X117648358Y-81040219D01*
X117502586Y-80979838D01*
X117502585Y-80979838D01*
X117502584Y-80979837D01*
X117371392Y-80892178D01*
X117259822Y-80780608D01*
X117172163Y-80649416D01*
X117172162Y-80649414D01*
X117111781Y-80503642D01*
X117081000Y-80348893D01*
X117081000Y-80191107D01*
X117111781Y-80036358D01*
X117172162Y-79890586D01*
X117172163Y-79890584D01*
X117259822Y-79759392D01*
X117371392Y-79647822D01*
X117502584Y-79560163D01*
X117524792Y-79550964D01*
X117648358Y-79499781D01*
X117803107Y-79469000D01*
X117960893Y-79469000D01*
X118115642Y-79499781D01*
G37*
G36*
X148115642Y-79499781D02*
G01*
X148239208Y-79550964D01*
X148261416Y-79560163D01*
X148392608Y-79647822D01*
X148504178Y-79759392D01*
X148591837Y-79890584D01*
X148591838Y-79890586D01*
X148652219Y-80036358D01*
X148683000Y-80191107D01*
X148683000Y-80348893D01*
X148652219Y-80503642D01*
X148591838Y-80649414D01*
X148591837Y-80649416D01*
X148504178Y-80780608D01*
X148392608Y-80892178D01*
X148261416Y-80979837D01*
X148261415Y-80979838D01*
X148261414Y-80979838D01*
X148115642Y-81040219D01*
X147960893Y-81071000D01*
X147803107Y-81071000D01*
X147648358Y-81040219D01*
X147502586Y-80979838D01*
X147502585Y-80979838D01*
X147502584Y-80979837D01*
X147371392Y-80892178D01*
X147259822Y-80780608D01*
X147172163Y-80649416D01*
X147172162Y-80649414D01*
X147111781Y-80503642D01*
X147081000Y-80348893D01*
X147081000Y-80191107D01*
X147111781Y-80036358D01*
X147172162Y-79890586D01*
X147172163Y-79890584D01*
X147259822Y-79759392D01*
X147371392Y-79647822D01*
X147502584Y-79560163D01*
X147524792Y-79550964D01*
X147648358Y-79499781D01*
X147803107Y-79469000D01*
X147960893Y-79469000D01*
X148115642Y-79499781D01*
G37*
G36*
X145115642Y-79499781D02*
G01*
X145239208Y-79550964D01*
X145261416Y-79560163D01*
X145392608Y-79647822D01*
X145504178Y-79759392D01*
X145591837Y-79890584D01*
X145591838Y-79890586D01*
X145652219Y-80036358D01*
X145683000Y-80191107D01*
X145683000Y-80348893D01*
X145652219Y-80503642D01*
X145591838Y-80649414D01*
X145591837Y-80649416D01*
X145504178Y-80780608D01*
X145392608Y-80892178D01*
X145261416Y-80979837D01*
X145261415Y-80979838D01*
X145261414Y-80979838D01*
X145115642Y-81040219D01*
X144960893Y-81071000D01*
X144803107Y-81071000D01*
X144648358Y-81040219D01*
X144502586Y-80979838D01*
X144502585Y-80979838D01*
X144502584Y-80979837D01*
X144371392Y-80892178D01*
X144259822Y-80780608D01*
X144172163Y-80649416D01*
X144172162Y-80649414D01*
X144111781Y-80503642D01*
X144081000Y-80348893D01*
X144081000Y-80191107D01*
X144111781Y-80036358D01*
X144172162Y-79890586D01*
X144172163Y-79890584D01*
X144259822Y-79759392D01*
X144371392Y-79647822D01*
X144502584Y-79560163D01*
X144524792Y-79550964D01*
X144648358Y-79499781D01*
X144803107Y-79469000D01*
X144960893Y-79469000D01*
X145115642Y-79499781D01*
G37*
G36*
X142115642Y-79499781D02*
G01*
X142239208Y-79550964D01*
X142261416Y-79560163D01*
X142392608Y-79647822D01*
X142504178Y-79759392D01*
X142591837Y-79890584D01*
X142591838Y-79890586D01*
X142652219Y-80036358D01*
X142683000Y-80191107D01*
X142683000Y-80348893D01*
X142652219Y-80503642D01*
X142591838Y-80649414D01*
X142591837Y-80649416D01*
X142504178Y-80780608D01*
X142392608Y-80892178D01*
X142261416Y-80979837D01*
X142261415Y-80979838D01*
X142261414Y-80979838D01*
X142115642Y-81040219D01*
X141960893Y-81071000D01*
X141803107Y-81071000D01*
X141648358Y-81040219D01*
X141502586Y-80979838D01*
X141502585Y-80979838D01*
X141502584Y-80979837D01*
X141371392Y-80892178D01*
X141259822Y-80780608D01*
X141172163Y-80649416D01*
X141172162Y-80649414D01*
X141111781Y-80503642D01*
X141081000Y-80348893D01*
X141081000Y-80191107D01*
X141111781Y-80036358D01*
X141172162Y-79890586D01*
X141172163Y-79890584D01*
X141259822Y-79759392D01*
X141371392Y-79647822D01*
X141502584Y-79560163D01*
X141524792Y-79550964D01*
X141648358Y-79499781D01*
X141803107Y-79469000D01*
X141960893Y-79469000D01*
X142115642Y-79499781D01*
G37*
G36*
X139115642Y-79499781D02*
G01*
X139239208Y-79550964D01*
X139261416Y-79560163D01*
X139392608Y-79647822D01*
X139504178Y-79759392D01*
X139591837Y-79890584D01*
X139591838Y-79890586D01*
X139652219Y-80036358D01*
X139683000Y-80191107D01*
X139683000Y-80348893D01*
X139652219Y-80503642D01*
X139591838Y-80649414D01*
X139591837Y-80649416D01*
X139504178Y-80780608D01*
X139392608Y-80892178D01*
X139261416Y-80979837D01*
X139261415Y-80979838D01*
X139261414Y-80979838D01*
X139115642Y-81040219D01*
X138960893Y-81071000D01*
X138803107Y-81071000D01*
X138648358Y-81040219D01*
X138502586Y-80979838D01*
X138502585Y-80979838D01*
X138502584Y-80979837D01*
X138371392Y-80892178D01*
X138259822Y-80780608D01*
X138172163Y-80649416D01*
X138172162Y-80649414D01*
X138111781Y-80503642D01*
X138081000Y-80348893D01*
X138081000Y-80191107D01*
X138111781Y-80036358D01*
X138172162Y-79890586D01*
X138172163Y-79890584D01*
X138259822Y-79759392D01*
X138371392Y-79647822D01*
X138502584Y-79560163D01*
X138524792Y-79550964D01*
X138648358Y-79499781D01*
X138803107Y-79469000D01*
X138960893Y-79469000D01*
X139115642Y-79499781D01*
G37*
G36*
X136115642Y-79499781D02*
G01*
X136239208Y-79550964D01*
X136261416Y-79560163D01*
X136392608Y-79647822D01*
X136504178Y-79759392D01*
X136591837Y-79890584D01*
X136591838Y-79890586D01*
X136652219Y-80036358D01*
X136683000Y-80191107D01*
X136683000Y-80348893D01*
X136652219Y-80503642D01*
X136591838Y-80649414D01*
X136591837Y-80649416D01*
X136504178Y-80780608D01*
X136392608Y-80892178D01*
X136261416Y-80979837D01*
X136261415Y-80979838D01*
X136261414Y-80979838D01*
X136115642Y-81040219D01*
X135960893Y-81071000D01*
X135803107Y-81071000D01*
X135648358Y-81040219D01*
X135502586Y-80979838D01*
X135502585Y-80979838D01*
X135502584Y-80979837D01*
X135371392Y-80892178D01*
X135259822Y-80780608D01*
X135172163Y-80649416D01*
X135172162Y-80649414D01*
X135111781Y-80503642D01*
X135081000Y-80348893D01*
X135081000Y-80191107D01*
X135111781Y-80036358D01*
X135172162Y-79890586D01*
X135172163Y-79890584D01*
X135259822Y-79759392D01*
X135371392Y-79647822D01*
X135502584Y-79560163D01*
X135524792Y-79550964D01*
X135648358Y-79499781D01*
X135803107Y-79469000D01*
X135960893Y-79469000D01*
X136115642Y-79499781D01*
G37*
G36*
X133115642Y-79499781D02*
G01*
X133239208Y-79550964D01*
X133261416Y-79560163D01*
X133392608Y-79647822D01*
X133504178Y-79759392D01*
X133591837Y-79890584D01*
X133591838Y-79890586D01*
X133652219Y-80036358D01*
X133683000Y-80191107D01*
X133683000Y-80348893D01*
X133652219Y-80503642D01*
X133591838Y-80649414D01*
X133591837Y-80649416D01*
X133504178Y-80780608D01*
X133392608Y-80892178D01*
X133261416Y-80979837D01*
X133261415Y-80979838D01*
X133261414Y-80979838D01*
X133115642Y-81040219D01*
X132960893Y-81071000D01*
X132803107Y-81071000D01*
X132648358Y-81040219D01*
X132502586Y-80979838D01*
X132502585Y-80979838D01*
X132502584Y-80979837D01*
X132371392Y-80892178D01*
X132259822Y-80780608D01*
X132172163Y-80649416D01*
X132172162Y-80649414D01*
X132111781Y-80503642D01*
X132081000Y-80348893D01*
X132081000Y-80191107D01*
X132111781Y-80036358D01*
X132172162Y-79890586D01*
X132172163Y-79890584D01*
X132259822Y-79759392D01*
X132371392Y-79647822D01*
X132502584Y-79560163D01*
X132524792Y-79550964D01*
X132648358Y-79499781D01*
X132803107Y-79469000D01*
X132960893Y-79469000D01*
X133115642Y-79499781D01*
G37*
G36*
X130115642Y-79499781D02*
G01*
X130239208Y-79550964D01*
X130261416Y-79560163D01*
X130392608Y-79647822D01*
X130504178Y-79759392D01*
X130591837Y-79890584D01*
X130591838Y-79890586D01*
X130652219Y-80036358D01*
X130683000Y-80191107D01*
X130683000Y-80348893D01*
X130652219Y-80503642D01*
X130591838Y-80649414D01*
X130591837Y-80649416D01*
X130504178Y-80780608D01*
X130392608Y-80892178D01*
X130261416Y-80979837D01*
X130261415Y-80979838D01*
X130261414Y-80979838D01*
X130115642Y-81040219D01*
X129960893Y-81071000D01*
X129803107Y-81071000D01*
X129648358Y-81040219D01*
X129502586Y-80979838D01*
X129502585Y-80979838D01*
X129502584Y-80979837D01*
X129371392Y-80892178D01*
X129259822Y-80780608D01*
X129172163Y-80649416D01*
X129172162Y-80649414D01*
X129111781Y-80503642D01*
X129081000Y-80348893D01*
X129081000Y-80191107D01*
X129111781Y-80036358D01*
X129172162Y-79890586D01*
X129172163Y-79890584D01*
X129259822Y-79759392D01*
X129371392Y-79647822D01*
X129502584Y-79560163D01*
X129524792Y-79550964D01*
X129648358Y-79499781D01*
X129803107Y-79469000D01*
X129960893Y-79469000D01*
X130115642Y-79499781D01*
G37*
G36*
X127115642Y-79499781D02*
G01*
X127239208Y-79550964D01*
X127261416Y-79560163D01*
X127392608Y-79647822D01*
X127504178Y-79759392D01*
X127591837Y-79890584D01*
X127591838Y-79890586D01*
X127652219Y-80036358D01*
X127683000Y-80191107D01*
X127683000Y-80348893D01*
X127652219Y-80503642D01*
X127591838Y-80649414D01*
X127591837Y-80649416D01*
X127504178Y-80780608D01*
X127392608Y-80892178D01*
X127261416Y-80979837D01*
X127261415Y-80979838D01*
X127261414Y-80979838D01*
X127115642Y-81040219D01*
X126960893Y-81071000D01*
X126803107Y-81071000D01*
X126648358Y-81040219D01*
X126502586Y-80979838D01*
X126502585Y-80979838D01*
X126502584Y-80979837D01*
X126371392Y-80892178D01*
X126259822Y-80780608D01*
X126172163Y-80649416D01*
X126172162Y-80649414D01*
X126111781Y-80503642D01*
X126081000Y-80348893D01*
X126081000Y-80191107D01*
X126111781Y-80036358D01*
X126172162Y-79890586D01*
X126172163Y-79890584D01*
X126259822Y-79759392D01*
X126371392Y-79647822D01*
X126502584Y-79560163D01*
X126524792Y-79550964D01*
X126648358Y-79499781D01*
X126803107Y-79469000D01*
X126960893Y-79469000D01*
X127115642Y-79499781D01*
G37*
G36*
X124115642Y-79499781D02*
G01*
X124239208Y-79550964D01*
X124261416Y-79560163D01*
X124392608Y-79647822D01*
X124504178Y-79759392D01*
X124591837Y-79890584D01*
X124591838Y-79890586D01*
X124652219Y-80036358D01*
X124683000Y-80191107D01*
X124683000Y-80348893D01*
X124652219Y-80503642D01*
X124591838Y-80649414D01*
X124591837Y-80649416D01*
X124504178Y-80780608D01*
X124392608Y-80892178D01*
X124261416Y-80979837D01*
X124261415Y-80979838D01*
X124261414Y-80979838D01*
X124115642Y-81040219D01*
X123960893Y-81071000D01*
X123803107Y-81071000D01*
X123648358Y-81040219D01*
X123502586Y-80979838D01*
X123502585Y-80979838D01*
X123502584Y-80979837D01*
X123371392Y-80892178D01*
X123259822Y-80780608D01*
X123172163Y-80649416D01*
X123172162Y-80649414D01*
X123111781Y-80503642D01*
X123081000Y-80348893D01*
X123081000Y-80191107D01*
X123111781Y-80036358D01*
X123172162Y-79890586D01*
X123172163Y-79890584D01*
X123259822Y-79759392D01*
X123371392Y-79647822D01*
X123502584Y-79560163D01*
X123524792Y-79550964D01*
X123648358Y-79499781D01*
X123803107Y-79469000D01*
X123960893Y-79469000D01*
X124115642Y-79499781D01*
G37*
G36*
X121115642Y-79499781D02*
G01*
X121239208Y-79550964D01*
X121261416Y-79560163D01*
X121392608Y-79647822D01*
X121504178Y-79759392D01*
X121591837Y-79890584D01*
X121591838Y-79890586D01*
X121652219Y-80036358D01*
X121683000Y-80191107D01*
X121683000Y-80348893D01*
X121652219Y-80503642D01*
X121591838Y-80649414D01*
X121591837Y-80649416D01*
X121504178Y-80780608D01*
X121392608Y-80892178D01*
X121261416Y-80979837D01*
X121261415Y-80979838D01*
X121261414Y-80979838D01*
X121115642Y-81040219D01*
X120960893Y-81071000D01*
X120803107Y-81071000D01*
X120648358Y-81040219D01*
X120502586Y-80979838D01*
X120502585Y-80979838D01*
X120502584Y-80979837D01*
X120371392Y-80892178D01*
X120259822Y-80780608D01*
X120172163Y-80649416D01*
X120172162Y-80649414D01*
X120111781Y-80503642D01*
X120081000Y-80348893D01*
X120081000Y-80191107D01*
X120111781Y-80036358D01*
X120172162Y-79890586D01*
X120172163Y-79890584D01*
X120259822Y-79759392D01*
X120371392Y-79647822D01*
X120502584Y-79560163D01*
X120524792Y-79550964D01*
X120648358Y-79499781D01*
X120803107Y-79469000D01*
X120960893Y-79469000D01*
X121115642Y-79499781D01*
G37*
G36*
X165528000Y-79606000D02*
G01*
X163396000Y-79606000D01*
X163396000Y-77774000D01*
X165528000Y-77774000D01*
X165528000Y-79606000D01*
G37*
G36*
X148115642Y-76499781D02*
G01*
X148261414Y-76560162D01*
X148261416Y-76560163D01*
X148392608Y-76647822D01*
X148504178Y-76759392D01*
X148591837Y-76890584D01*
X148591838Y-76890586D01*
X148652219Y-77036358D01*
X148683000Y-77191107D01*
X148683000Y-77348893D01*
X148652219Y-77503642D01*
X148591838Y-77649414D01*
X148591837Y-77649416D01*
X148504178Y-77780608D01*
X148392608Y-77892178D01*
X148261416Y-77979837D01*
X148261415Y-77979838D01*
X148261414Y-77979838D01*
X148115642Y-78040219D01*
X147960893Y-78071000D01*
X147803107Y-78071000D01*
X147648358Y-78040219D01*
X147502586Y-77979838D01*
X147502585Y-77979838D01*
X147502584Y-77979837D01*
X147371392Y-77892178D01*
X147259822Y-77780608D01*
X147172163Y-77649416D01*
X147172162Y-77649414D01*
X147111781Y-77503642D01*
X147081000Y-77348893D01*
X147081000Y-77191107D01*
X147111781Y-77036358D01*
X147172162Y-76890586D01*
X147172163Y-76890584D01*
X147259822Y-76759392D01*
X147371392Y-76647822D01*
X147502584Y-76560163D01*
X147502586Y-76560162D01*
X147648358Y-76499781D01*
X147803107Y-76469000D01*
X147960893Y-76469000D01*
X148115642Y-76499781D01*
G37*
G36*
X121115642Y-76499781D02*
G01*
X121261414Y-76560162D01*
X121261416Y-76560163D01*
X121392608Y-76647822D01*
X121504178Y-76759392D01*
X121591837Y-76890584D01*
X121591838Y-76890586D01*
X121652219Y-77036358D01*
X121683000Y-77191107D01*
X121683000Y-77348893D01*
X121652219Y-77503642D01*
X121591838Y-77649414D01*
X121591837Y-77649416D01*
X121504178Y-77780608D01*
X121392608Y-77892178D01*
X121261416Y-77979837D01*
X121261415Y-77979838D01*
X121261414Y-77979838D01*
X121115642Y-78040219D01*
X120960893Y-78071000D01*
X120803107Y-78071000D01*
X120648358Y-78040219D01*
X120502586Y-77979838D01*
X120502585Y-77979838D01*
X120502584Y-77979837D01*
X120371392Y-77892178D01*
X120259822Y-77780608D01*
X120172163Y-77649416D01*
X120172162Y-77649414D01*
X120111781Y-77503642D01*
X120081000Y-77348893D01*
X120081000Y-77191107D01*
X120111781Y-77036358D01*
X120172162Y-76890586D01*
X120172163Y-76890584D01*
X120259822Y-76759392D01*
X120371392Y-76647822D01*
X120502584Y-76560163D01*
X120502586Y-76560162D01*
X120648358Y-76499781D01*
X120803107Y-76469000D01*
X120960893Y-76469000D01*
X121115642Y-76499781D01*
G37*
G36*
X151115642Y-76499781D02*
G01*
X151261414Y-76560162D01*
X151261416Y-76560163D01*
X151392608Y-76647822D01*
X151504178Y-76759392D01*
X151591837Y-76890584D01*
X151591838Y-76890586D01*
X151652219Y-77036358D01*
X151683000Y-77191107D01*
X151683000Y-77348893D01*
X151652219Y-77503642D01*
X151591838Y-77649414D01*
X151591837Y-77649416D01*
X151504178Y-77780608D01*
X151392608Y-77892178D01*
X151261416Y-77979837D01*
X151261415Y-77979838D01*
X151261414Y-77979838D01*
X151115642Y-78040219D01*
X150960893Y-78071000D01*
X150803107Y-78071000D01*
X150648358Y-78040219D01*
X150502586Y-77979838D01*
X150502585Y-77979838D01*
X150502584Y-77979837D01*
X150371392Y-77892178D01*
X150259822Y-77780608D01*
X150172163Y-77649416D01*
X150172162Y-77649414D01*
X150111781Y-77503642D01*
X150081000Y-77348893D01*
X150081000Y-77191107D01*
X150111781Y-77036358D01*
X150172162Y-76890586D01*
X150172163Y-76890584D01*
X150259822Y-76759392D01*
X150371392Y-76647822D01*
X150502584Y-76560163D01*
X150502586Y-76560162D01*
X150648358Y-76499781D01*
X150803107Y-76469000D01*
X150960893Y-76469000D01*
X151115642Y-76499781D01*
G37*
G36*
X139115642Y-76499781D02*
G01*
X139261414Y-76560162D01*
X139261416Y-76560163D01*
X139392608Y-76647822D01*
X139504178Y-76759392D01*
X139591837Y-76890584D01*
X139591838Y-76890586D01*
X139652219Y-77036358D01*
X139683000Y-77191107D01*
X139683000Y-77348893D01*
X139652219Y-77503642D01*
X139591838Y-77649414D01*
X139591837Y-77649416D01*
X139504178Y-77780608D01*
X139392608Y-77892178D01*
X139261416Y-77979837D01*
X139261415Y-77979838D01*
X139261414Y-77979838D01*
X139115642Y-78040219D01*
X138960893Y-78071000D01*
X138803107Y-78071000D01*
X138648358Y-78040219D01*
X138502586Y-77979838D01*
X138502585Y-77979838D01*
X138502584Y-77979837D01*
X138371392Y-77892178D01*
X138259822Y-77780608D01*
X138172163Y-77649416D01*
X138172162Y-77649414D01*
X138111781Y-77503642D01*
X138081000Y-77348893D01*
X138081000Y-77191107D01*
X138111781Y-77036358D01*
X138172162Y-76890586D01*
X138172163Y-76890584D01*
X138259822Y-76759392D01*
X138371392Y-76647822D01*
X138502584Y-76560163D01*
X138502586Y-76560162D01*
X138648358Y-76499781D01*
X138803107Y-76469000D01*
X138960893Y-76469000D01*
X139115642Y-76499781D01*
G37*
G36*
X118115642Y-76499781D02*
G01*
X118261414Y-76560162D01*
X118261416Y-76560163D01*
X118392608Y-76647822D01*
X118504178Y-76759392D01*
X118591837Y-76890584D01*
X118591838Y-76890586D01*
X118652219Y-77036358D01*
X118683000Y-77191107D01*
X118683000Y-77348893D01*
X118652219Y-77503642D01*
X118591838Y-77649414D01*
X118591837Y-77649416D01*
X118504178Y-77780608D01*
X118392608Y-77892178D01*
X118261416Y-77979837D01*
X118261415Y-77979838D01*
X118261414Y-77979838D01*
X118115642Y-78040219D01*
X117960893Y-78071000D01*
X117803107Y-78071000D01*
X117648358Y-78040219D01*
X117502586Y-77979838D01*
X117502585Y-77979838D01*
X117502584Y-77979837D01*
X117371392Y-77892178D01*
X117259822Y-77780608D01*
X117172163Y-77649416D01*
X117172162Y-77649414D01*
X117111781Y-77503642D01*
X117081000Y-77348893D01*
X117081000Y-77191107D01*
X117111781Y-77036358D01*
X117172162Y-76890586D01*
X117172163Y-76890584D01*
X117259822Y-76759392D01*
X117371392Y-76647822D01*
X117502584Y-76560163D01*
X117502586Y-76560162D01*
X117648358Y-76499781D01*
X117803107Y-76469000D01*
X117960893Y-76469000D01*
X118115642Y-76499781D01*
G37*
G36*
X124115642Y-76499781D02*
G01*
X124261414Y-76560162D01*
X124261416Y-76560163D01*
X124392608Y-76647822D01*
X124504178Y-76759392D01*
X124591837Y-76890584D01*
X124591838Y-76890586D01*
X124652219Y-77036358D01*
X124683000Y-77191107D01*
X124683000Y-77348893D01*
X124652219Y-77503642D01*
X124591838Y-77649414D01*
X124591837Y-77649416D01*
X124504178Y-77780608D01*
X124392608Y-77892178D01*
X124261416Y-77979837D01*
X124261415Y-77979838D01*
X124261414Y-77979838D01*
X124115642Y-78040219D01*
X123960893Y-78071000D01*
X123803107Y-78071000D01*
X123648358Y-78040219D01*
X123502586Y-77979838D01*
X123502585Y-77979838D01*
X123502584Y-77979837D01*
X123371392Y-77892178D01*
X123259822Y-77780608D01*
X123172163Y-77649416D01*
X123172162Y-77649414D01*
X123111781Y-77503642D01*
X123081000Y-77348893D01*
X123081000Y-77191107D01*
X123111781Y-77036358D01*
X123172162Y-76890586D01*
X123172163Y-76890584D01*
X123259822Y-76759392D01*
X123371392Y-76647822D01*
X123502584Y-76560163D01*
X123502586Y-76560162D01*
X123648358Y-76499781D01*
X123803107Y-76469000D01*
X123960893Y-76469000D01*
X124115642Y-76499781D01*
G37*
G36*
X127115642Y-76499781D02*
G01*
X127261414Y-76560162D01*
X127261416Y-76560163D01*
X127392608Y-76647822D01*
X127504178Y-76759392D01*
X127591837Y-76890584D01*
X127591838Y-76890586D01*
X127652219Y-77036358D01*
X127683000Y-77191107D01*
X127683000Y-77348893D01*
X127652219Y-77503642D01*
X127591838Y-77649414D01*
X127591837Y-77649416D01*
X127504178Y-77780608D01*
X127392608Y-77892178D01*
X127261416Y-77979837D01*
X127261415Y-77979838D01*
X127261414Y-77979838D01*
X127115642Y-78040219D01*
X126960893Y-78071000D01*
X126803107Y-78071000D01*
X126648358Y-78040219D01*
X126502586Y-77979838D01*
X126502585Y-77979838D01*
X126502584Y-77979837D01*
X126371392Y-77892178D01*
X126259822Y-77780608D01*
X126172163Y-77649416D01*
X126172162Y-77649414D01*
X126111781Y-77503642D01*
X126081000Y-77348893D01*
X126081000Y-77191107D01*
X126111781Y-77036358D01*
X126172162Y-76890586D01*
X126172163Y-76890584D01*
X126259822Y-76759392D01*
X126371392Y-76647822D01*
X126502584Y-76560163D01*
X126502586Y-76560162D01*
X126648358Y-76499781D01*
X126803107Y-76469000D01*
X126960893Y-76469000D01*
X127115642Y-76499781D01*
G37*
G36*
X130115642Y-76499781D02*
G01*
X130261414Y-76560162D01*
X130261416Y-76560163D01*
X130392608Y-76647822D01*
X130504178Y-76759392D01*
X130591837Y-76890584D01*
X130591838Y-76890586D01*
X130652219Y-77036358D01*
X130683000Y-77191107D01*
X130683000Y-77348893D01*
X130652219Y-77503642D01*
X130591838Y-77649414D01*
X130591837Y-77649416D01*
X130504178Y-77780608D01*
X130392608Y-77892178D01*
X130261416Y-77979837D01*
X130261415Y-77979838D01*
X130261414Y-77979838D01*
X130115642Y-78040219D01*
X129960893Y-78071000D01*
X129803107Y-78071000D01*
X129648358Y-78040219D01*
X129502586Y-77979838D01*
X129502585Y-77979838D01*
X129502584Y-77979837D01*
X129371392Y-77892178D01*
X129259822Y-77780608D01*
X129172163Y-77649416D01*
X129172162Y-77649414D01*
X129111781Y-77503642D01*
X129081000Y-77348893D01*
X129081000Y-77191107D01*
X129111781Y-77036358D01*
X129172162Y-76890586D01*
X129172163Y-76890584D01*
X129259822Y-76759392D01*
X129371392Y-76647822D01*
X129502584Y-76560163D01*
X129502586Y-76560162D01*
X129648358Y-76499781D01*
X129803107Y-76469000D01*
X129960893Y-76469000D01*
X130115642Y-76499781D01*
G37*
G36*
X133115642Y-76499781D02*
G01*
X133261414Y-76560162D01*
X133261416Y-76560163D01*
X133392608Y-76647822D01*
X133504178Y-76759392D01*
X133591837Y-76890584D01*
X133591838Y-76890586D01*
X133652219Y-77036358D01*
X133683000Y-77191107D01*
X133683000Y-77348893D01*
X133652219Y-77503642D01*
X133591838Y-77649414D01*
X133591837Y-77649416D01*
X133504178Y-77780608D01*
X133392608Y-77892178D01*
X133261416Y-77979837D01*
X133261415Y-77979838D01*
X133261414Y-77979838D01*
X133115642Y-78040219D01*
X132960893Y-78071000D01*
X132803107Y-78071000D01*
X132648358Y-78040219D01*
X132502586Y-77979838D01*
X132502585Y-77979838D01*
X132502584Y-77979837D01*
X132371392Y-77892178D01*
X132259822Y-77780608D01*
X132172163Y-77649416D01*
X132172162Y-77649414D01*
X132111781Y-77503642D01*
X132081000Y-77348893D01*
X132081000Y-77191107D01*
X132111781Y-77036358D01*
X132172162Y-76890586D01*
X132172163Y-76890584D01*
X132259822Y-76759392D01*
X132371392Y-76647822D01*
X132502584Y-76560163D01*
X132502586Y-76560162D01*
X132648358Y-76499781D01*
X132803107Y-76469000D01*
X132960893Y-76469000D01*
X133115642Y-76499781D01*
G37*
G36*
X136115642Y-76499781D02*
G01*
X136261414Y-76560162D01*
X136261416Y-76560163D01*
X136392608Y-76647822D01*
X136504178Y-76759392D01*
X136591837Y-76890584D01*
X136591838Y-76890586D01*
X136652219Y-77036358D01*
X136683000Y-77191107D01*
X136683000Y-77348893D01*
X136652219Y-77503642D01*
X136591838Y-77649414D01*
X136591837Y-77649416D01*
X136504178Y-77780608D01*
X136392608Y-77892178D01*
X136261416Y-77979837D01*
X136261415Y-77979838D01*
X136261414Y-77979838D01*
X136115642Y-78040219D01*
X135960893Y-78071000D01*
X135803107Y-78071000D01*
X135648358Y-78040219D01*
X135502586Y-77979838D01*
X135502585Y-77979838D01*
X135502584Y-77979837D01*
X135371392Y-77892178D01*
X135259822Y-77780608D01*
X135172163Y-77649416D01*
X135172162Y-77649414D01*
X135111781Y-77503642D01*
X135081000Y-77348893D01*
X135081000Y-77191107D01*
X135111781Y-77036358D01*
X135172162Y-76890586D01*
X135172163Y-76890584D01*
X135259822Y-76759392D01*
X135371392Y-76647822D01*
X135502584Y-76560163D01*
X135502586Y-76560162D01*
X135648358Y-76499781D01*
X135803107Y-76469000D01*
X135960893Y-76469000D01*
X136115642Y-76499781D01*
G37*
G36*
X142115642Y-76499781D02*
G01*
X142261414Y-76560162D01*
X142261416Y-76560163D01*
X142392608Y-76647822D01*
X142504178Y-76759392D01*
X142591837Y-76890584D01*
X142591838Y-76890586D01*
X142652219Y-77036358D01*
X142683000Y-77191107D01*
X142683000Y-77348893D01*
X142652219Y-77503642D01*
X142591838Y-77649414D01*
X142591837Y-77649416D01*
X142504178Y-77780608D01*
X142392608Y-77892178D01*
X142261416Y-77979837D01*
X142261415Y-77979838D01*
X142261414Y-77979838D01*
X142115642Y-78040219D01*
X141960893Y-78071000D01*
X141803107Y-78071000D01*
X141648358Y-78040219D01*
X141502586Y-77979838D01*
X141502585Y-77979838D01*
X141502584Y-77979837D01*
X141371392Y-77892178D01*
X141259822Y-77780608D01*
X141172163Y-77649416D01*
X141172162Y-77649414D01*
X141111781Y-77503642D01*
X141081000Y-77348893D01*
X141081000Y-77191107D01*
X141111781Y-77036358D01*
X141172162Y-76890586D01*
X141172163Y-76890584D01*
X141259822Y-76759392D01*
X141371392Y-76647822D01*
X141502584Y-76560163D01*
X141502586Y-76560162D01*
X141648358Y-76499781D01*
X141803107Y-76469000D01*
X141960893Y-76469000D01*
X142115642Y-76499781D01*
G37*
G36*
X145115642Y-76499781D02*
G01*
X145261414Y-76560162D01*
X145261416Y-76560163D01*
X145392608Y-76647822D01*
X145504178Y-76759392D01*
X145591837Y-76890584D01*
X145591838Y-76890586D01*
X145652219Y-77036358D01*
X145683000Y-77191107D01*
X145683000Y-77348893D01*
X145652219Y-77503642D01*
X145591838Y-77649414D01*
X145591837Y-77649416D01*
X145504178Y-77780608D01*
X145392608Y-77892178D01*
X145261416Y-77979837D01*
X145261415Y-77979838D01*
X145261414Y-77979838D01*
X145115642Y-78040219D01*
X144960893Y-78071000D01*
X144803107Y-78071000D01*
X144648358Y-78040219D01*
X144502586Y-77979838D01*
X144502585Y-77979838D01*
X144502584Y-77979837D01*
X144371392Y-77892178D01*
X144259822Y-77780608D01*
X144172163Y-77649416D01*
X144172162Y-77649414D01*
X144111781Y-77503642D01*
X144081000Y-77348893D01*
X144081000Y-77191107D01*
X144111781Y-77036358D01*
X144172162Y-76890586D01*
X144172163Y-76890584D01*
X144259822Y-76759392D01*
X144371392Y-76647822D01*
X144502584Y-76560163D01*
X144502586Y-76560162D01*
X144648358Y-76499781D01*
X144803107Y-76469000D01*
X144960893Y-76469000D01*
X145115642Y-76499781D01*
G37*
G36*
X148856072Y-68390918D02*
G01*
X149101939Y-68492759D01*
X149323212Y-68640610D01*
X149511390Y-68828788D01*
X149659241Y-69050061D01*
X149761082Y-69295928D01*
X149813000Y-69556938D01*
X149813000Y-69823062D01*
X149761082Y-70084072D01*
X149659241Y-70329939D01*
X149511390Y-70551212D01*
X149323212Y-70739390D01*
X149101939Y-70887241D01*
X149101938Y-70887242D01*
X149101937Y-70887242D01*
X148856072Y-70989082D01*
X148595063Y-71041000D01*
X148328937Y-71041000D01*
X148067928Y-70989082D01*
X147822063Y-70887242D01*
X147822062Y-70887242D01*
X147822061Y-70887241D01*
X147600788Y-70739390D01*
X147412610Y-70551212D01*
X147264759Y-70329939D01*
X147162918Y-70084072D01*
X147111000Y-69823062D01*
X147111000Y-69556938D01*
X147162918Y-69295928D01*
X147264759Y-69050061D01*
X147412610Y-68828788D01*
X147600788Y-68640610D01*
X147822061Y-68492759D01*
X148067928Y-68390918D01*
X148328937Y-68339000D01*
X148595063Y-68339000D01*
X148856072Y-68390918D01*
G37*
G36*
X168856072Y-68390918D02*
G01*
X169101939Y-68492759D01*
X169323212Y-68640610D01*
X169511390Y-68828788D01*
X169659241Y-69050061D01*
X169761082Y-69295928D01*
X169813000Y-69556938D01*
X169813000Y-69823062D01*
X169761082Y-70084072D01*
X169659241Y-70329939D01*
X169511390Y-70551212D01*
X169323212Y-70739390D01*
X169101939Y-70887241D01*
X169101938Y-70887242D01*
X169101937Y-70887242D01*
X168856072Y-70989082D01*
X168595063Y-71041000D01*
X168328937Y-71041000D01*
X168067928Y-70989082D01*
X167822063Y-70887242D01*
X167822062Y-70887242D01*
X167822061Y-70887241D01*
X167600788Y-70739390D01*
X167412610Y-70551212D01*
X167264759Y-70329939D01*
X167162918Y-70084072D01*
X167111000Y-69823062D01*
X167111000Y-69556938D01*
X167162918Y-69295928D01*
X167264759Y-69050061D01*
X167412610Y-68828788D01*
X167600788Y-68640610D01*
X167822061Y-68492759D01*
X168067928Y-68390918D01*
X168328937Y-68339000D01*
X168595063Y-68339000D01*
X168856072Y-68390918D01*
G37*
G36*
X174813000Y-71041000D02*
G01*
X172111000Y-71041000D01*
X172111000Y-68339000D01*
X174813000Y-68339000D01*
X174813000Y-71041000D01*
G37*
G36*
X158856072Y-68390918D02*
G01*
X159101939Y-68492759D01*
X159323212Y-68640610D01*
X159511390Y-68828788D01*
X159659241Y-69050061D01*
X159761082Y-69295928D01*
X159813000Y-69556938D01*
X159813000Y-69823062D01*
X159761082Y-70084072D01*
X159659241Y-70329939D01*
X159511390Y-70551212D01*
X159323212Y-70739390D01*
X159101939Y-70887241D01*
X159101938Y-70887242D01*
X159101937Y-70887242D01*
X158856072Y-70989082D01*
X158595063Y-71041000D01*
X158328937Y-71041000D01*
X158067928Y-70989082D01*
X157822063Y-70887242D01*
X157822062Y-70887242D01*
X157822061Y-70887241D01*
X157600788Y-70739390D01*
X157412610Y-70551212D01*
X157264759Y-70329939D01*
X157162918Y-70084072D01*
X157111000Y-69823062D01*
X157111000Y-69556938D01*
X157162918Y-69295928D01*
X157264759Y-69050061D01*
X157412610Y-68828788D01*
X157600788Y-68640610D01*
X157822061Y-68492759D01*
X158067928Y-68390918D01*
X158328937Y-68339000D01*
X158595063Y-68339000D01*
X158856072Y-68390918D01*
G37*
G36*
X153856072Y-68390918D02*
G01*
X154101939Y-68492759D01*
X154323212Y-68640610D01*
X154511390Y-68828788D01*
X154659241Y-69050061D01*
X154761082Y-69295928D01*
X154813000Y-69556938D01*
X154813000Y-69823062D01*
X154761082Y-70084072D01*
X154659241Y-70329939D01*
X154511390Y-70551212D01*
X154323212Y-70739390D01*
X154101939Y-70887241D01*
X154101938Y-70887242D01*
X154101937Y-70887242D01*
X153856072Y-70989082D01*
X153595063Y-71041000D01*
X153328937Y-71041000D01*
X153067928Y-70989082D01*
X152822063Y-70887242D01*
X152822062Y-70887242D01*
X152822061Y-70887241D01*
X152600788Y-70739390D01*
X152412610Y-70551212D01*
X152264759Y-70329939D01*
X152162918Y-70084072D01*
X152111000Y-69823062D01*
X152111000Y-69556938D01*
X152162918Y-69295928D01*
X152264759Y-69050061D01*
X152412610Y-68828788D01*
X152600788Y-68640610D01*
X152822061Y-68492759D01*
X153067928Y-68390918D01*
X153328937Y-68339000D01*
X153595063Y-68339000D01*
X153856072Y-68390918D01*
G37*
G36*
X102856072Y-68390918D02*
G01*
X103101939Y-68492759D01*
X103323212Y-68640610D01*
X103511390Y-68828788D01*
X103659241Y-69050061D01*
X103761082Y-69295928D01*
X103813000Y-69556938D01*
X103813000Y-69823062D01*
X103761082Y-70084072D01*
X103659241Y-70329939D01*
X103511390Y-70551212D01*
X103323212Y-70739390D01*
X103101939Y-70887241D01*
X103101938Y-70887242D01*
X103101937Y-70887242D01*
X102856072Y-70989082D01*
X102595063Y-71041000D01*
X102328937Y-71041000D01*
X102067928Y-70989082D01*
X101822063Y-70887242D01*
X101822062Y-70887242D01*
X101822061Y-70887241D01*
X101600788Y-70739390D01*
X101412610Y-70551212D01*
X101264759Y-70329939D01*
X101162918Y-70084072D01*
X101111000Y-69823062D01*
X101111000Y-69556938D01*
X101162918Y-69295928D01*
X101264759Y-69050061D01*
X101412610Y-68828788D01*
X101600788Y-68640610D01*
X101822061Y-68492759D01*
X102067928Y-68390918D01*
X102328937Y-68339000D01*
X102595063Y-68339000D01*
X102856072Y-68390918D01*
G37*
G36*
X107856072Y-68390918D02*
G01*
X108101939Y-68492759D01*
X108323212Y-68640610D01*
X108511390Y-68828788D01*
X108659241Y-69050061D01*
X108761082Y-69295928D01*
X108813000Y-69556938D01*
X108813000Y-69823062D01*
X108761082Y-70084072D01*
X108659241Y-70329939D01*
X108511390Y-70551212D01*
X108323212Y-70739390D01*
X108101939Y-70887241D01*
X108101938Y-70887242D01*
X108101937Y-70887242D01*
X107856072Y-70989082D01*
X107595063Y-71041000D01*
X107328937Y-71041000D01*
X107067928Y-70989082D01*
X106822063Y-70887242D01*
X106822062Y-70887242D01*
X106822061Y-70887241D01*
X106600788Y-70739390D01*
X106412610Y-70551212D01*
X106264759Y-70329939D01*
X106162918Y-70084072D01*
X106111000Y-69823062D01*
X106111000Y-69556938D01*
X106162918Y-69295928D01*
X106264759Y-69050061D01*
X106412610Y-68828788D01*
X106600788Y-68640610D01*
X106822061Y-68492759D01*
X107067928Y-68390918D01*
X107328937Y-68339000D01*
X107595063Y-68339000D01*
X107856072Y-68390918D01*
G37*
G36*
X112856072Y-68390918D02*
G01*
X113101939Y-68492759D01*
X113323212Y-68640610D01*
X113511390Y-68828788D01*
X113659241Y-69050061D01*
X113761082Y-69295928D01*
X113813000Y-69556938D01*
X113813000Y-69823062D01*
X113761082Y-70084072D01*
X113659241Y-70329939D01*
X113511390Y-70551212D01*
X113323212Y-70739390D01*
X113101939Y-70887241D01*
X113101938Y-70887242D01*
X113101937Y-70887242D01*
X112856072Y-70989082D01*
X112595063Y-71041000D01*
X112328937Y-71041000D01*
X112067928Y-70989082D01*
X111822063Y-70887242D01*
X111822062Y-70887242D01*
X111822061Y-70887241D01*
X111600788Y-70739390D01*
X111412610Y-70551212D01*
X111264759Y-70329939D01*
X111162918Y-70084072D01*
X111111000Y-69823062D01*
X111111000Y-69556938D01*
X111162918Y-69295928D01*
X111264759Y-69050061D01*
X111412610Y-68828788D01*
X111600788Y-68640610D01*
X111822061Y-68492759D01*
X112067928Y-68390918D01*
X112328937Y-68339000D01*
X112595063Y-68339000D01*
X112856072Y-68390918D01*
G37*
G36*
X118813000Y-71041000D02*
G01*
X116111000Y-71041000D01*
X116111000Y-68339000D01*
X118813000Y-68339000D01*
X118813000Y-71041000D01*
G37*
G36*
X128856072Y-68390918D02*
G01*
X129101939Y-68492759D01*
X129323212Y-68640610D01*
X129511390Y-68828788D01*
X129659241Y-69050061D01*
X129761082Y-69295928D01*
X129813000Y-69556938D01*
X129813000Y-69823062D01*
X129761082Y-70084072D01*
X129659241Y-70329939D01*
X129511390Y-70551212D01*
X129323212Y-70739390D01*
X129101939Y-70887241D01*
X129101938Y-70887242D01*
X129101937Y-70887242D01*
X128856072Y-70989082D01*
X128595063Y-71041000D01*
X128328937Y-71041000D01*
X128067928Y-70989082D01*
X127822063Y-70887242D01*
X127822062Y-70887242D01*
X127822061Y-70887241D01*
X127600788Y-70739390D01*
X127412610Y-70551212D01*
X127264759Y-70329939D01*
X127162918Y-70084072D01*
X127111000Y-69823062D01*
X127111000Y-69556938D01*
X127162918Y-69295928D01*
X127264759Y-69050061D01*
X127412610Y-68828788D01*
X127600788Y-68640610D01*
X127822061Y-68492759D01*
X128067928Y-68390918D01*
X128328937Y-68339000D01*
X128595063Y-68339000D01*
X128856072Y-68390918D01*
G37*
G36*
X133856072Y-68390918D02*
G01*
X134101939Y-68492759D01*
X134323212Y-68640610D01*
X134511390Y-68828788D01*
X134659241Y-69050061D01*
X134761082Y-69295928D01*
X134813000Y-69556938D01*
X134813000Y-69823062D01*
X134761082Y-70084072D01*
X134659241Y-70329939D01*
X134511390Y-70551212D01*
X134323212Y-70739390D01*
X134101939Y-70887241D01*
X134101938Y-70887242D01*
X134101937Y-70887242D01*
X133856072Y-70989082D01*
X133595063Y-71041000D01*
X133328937Y-71041000D01*
X133067928Y-70989082D01*
X132822063Y-70887242D01*
X132822062Y-70887242D01*
X132822061Y-70887241D01*
X132600788Y-70739390D01*
X132412610Y-70551212D01*
X132264759Y-70329939D01*
X132162918Y-70084072D01*
X132111000Y-69823062D01*
X132111000Y-69556938D01*
X132162918Y-69295928D01*
X132264759Y-69050061D01*
X132412610Y-68828788D01*
X132600788Y-68640610D01*
X132822061Y-68492759D01*
X133067928Y-68390918D01*
X133328937Y-68339000D01*
X133595063Y-68339000D01*
X133856072Y-68390918D01*
G37*
G36*
X138856072Y-68390918D02*
G01*
X139101939Y-68492759D01*
X139323212Y-68640610D01*
X139511390Y-68828788D01*
X139659241Y-69050061D01*
X139761082Y-69295928D01*
X139813000Y-69556938D01*
X139813000Y-69823062D01*
X139761082Y-70084072D01*
X139659241Y-70329939D01*
X139511390Y-70551212D01*
X139323212Y-70739390D01*
X139101939Y-70887241D01*
X139101938Y-70887242D01*
X139101937Y-70887242D01*
X138856072Y-70989082D01*
X138595063Y-71041000D01*
X138328937Y-71041000D01*
X138067928Y-70989082D01*
X137822063Y-70887242D01*
X137822062Y-70887242D01*
X137822061Y-70887241D01*
X137600788Y-70739390D01*
X137412610Y-70551212D01*
X137264759Y-70329939D01*
X137162918Y-70084072D01*
X137111000Y-69823062D01*
X137111000Y-69556938D01*
X137162918Y-69295928D01*
X137264759Y-69050061D01*
X137412610Y-68828788D01*
X137600788Y-68640610D01*
X137822061Y-68492759D01*
X138067928Y-68390918D01*
X138328937Y-68339000D01*
X138595063Y-68339000D01*
X138856072Y-68390918D01*
G37*
G36*
X143856072Y-68390918D02*
G01*
X144101939Y-68492759D01*
X144323212Y-68640610D01*
X144511390Y-68828788D01*
X144659241Y-69050061D01*
X144761082Y-69295928D01*
X144813000Y-69556938D01*
X144813000Y-69823062D01*
X144761082Y-70084072D01*
X144659241Y-70329939D01*
X144511390Y-70551212D01*
X144323212Y-70739390D01*
X144101939Y-70887241D01*
X144101938Y-70887242D01*
X144101937Y-70887242D01*
X143856072Y-70989082D01*
X143595063Y-71041000D01*
X143328937Y-71041000D01*
X143067928Y-70989082D01*
X142822063Y-70887242D01*
X142822062Y-70887242D01*
X142822061Y-70887241D01*
X142600788Y-70739390D01*
X142412610Y-70551212D01*
X142264759Y-70329939D01*
X142162918Y-70084072D01*
X142111000Y-69823062D01*
X142111000Y-69556938D01*
X142162918Y-69295928D01*
X142264759Y-69050061D01*
X142412610Y-68828788D01*
X142600788Y-68640610D01*
X142822061Y-68492759D01*
X143067928Y-68390918D01*
X143328937Y-68339000D01*
X143595063Y-68339000D01*
X143856072Y-68390918D01*
G37*
G36*
X163856072Y-68390918D02*
G01*
X164101939Y-68492759D01*
X164323212Y-68640610D01*
X164511390Y-68828788D01*
X164659241Y-69050061D01*
X164761082Y-69295928D01*
X164813000Y-69556938D01*
X164813000Y-69823062D01*
X164761082Y-70084072D01*
X164659241Y-70329939D01*
X164511390Y-70551212D01*
X164323212Y-70739390D01*
X164101939Y-70887241D01*
X164101938Y-70887242D01*
X164101937Y-70887242D01*
X163856072Y-70989082D01*
X163595063Y-71041000D01*
X163328937Y-71041000D01*
X163067928Y-70989082D01*
X162822063Y-70887242D01*
X162822062Y-70887242D01*
X162822061Y-70887241D01*
X162600788Y-70739390D01*
X162412610Y-70551212D01*
X162264759Y-70329939D01*
X162162918Y-70084072D01*
X162111000Y-69823062D01*
X162111000Y-69556938D01*
X162162918Y-69295928D01*
X162264759Y-69050061D01*
X162412610Y-68828788D01*
X162600788Y-68640610D01*
X162822061Y-68492759D01*
X163067928Y-68390918D01*
X163328937Y-68339000D01*
X163595063Y-68339000D01*
X163856072Y-68390918D01*
G37*
M02*
