G04 #@! TF.GenerationSoftware,KiCad,Pcbnew,(5.1.10-1-10_14)*
G04 #@! TF.CreationDate,2022-04-10T19:47:37-06:00*
G04 #@! TF.ProjectId,RPiG3iMac,52506947-3369-44d6-9163-2e6b69636164,1.2*
G04 #@! TF.SameCoordinates,Original*
G04 #@! TF.FileFunction,Legend,Top*
G04 #@! TF.FilePolarity,Positive*
%FSLAX46Y46*%
G04 Gerber Fmt 4.6, Leading zero omitted, Abs format (unit mm)*
G04 Created by KiCad (PCBNEW (5.1.10-1-10_14)) date 2022-04-10 19:47:37*
%MOMM*%
%LPD*%
G01*
G04 APERTURE LIST*
%ADD10C,0.150000*%
%ADD11C,0.300000*%
%ADD12C,0.120000*%
G04 APERTURE END LIST*
D10*
X137191904Y-108402380D02*
X137191904Y-107402380D01*
X137572857Y-107402380D01*
X137668095Y-107450000D01*
X137715714Y-107497619D01*
X137763333Y-107592857D01*
X137763333Y-107735714D01*
X137715714Y-107830952D01*
X137668095Y-107878571D01*
X137572857Y-107926190D01*
X137191904Y-107926190D01*
X138525238Y-107878571D02*
X138668095Y-107926190D01*
X138715714Y-107973809D01*
X138763333Y-108069047D01*
X138763333Y-108211904D01*
X138715714Y-108307142D01*
X138668095Y-108354761D01*
X138572857Y-108402380D01*
X138191904Y-108402380D01*
X138191904Y-107402380D01*
X138525238Y-107402380D01*
X138620476Y-107450000D01*
X138668095Y-107497619D01*
X138715714Y-107592857D01*
X138715714Y-107688095D01*
X138668095Y-107783333D01*
X138620476Y-107830952D01*
X138525238Y-107878571D01*
X138191904Y-107878571D01*
X139382380Y-107402380D02*
X139477619Y-107402380D01*
X139572857Y-107450000D01*
X139620476Y-107497619D01*
X139668095Y-107592857D01*
X139715714Y-107783333D01*
X139715714Y-108021428D01*
X139668095Y-108211904D01*
X139620476Y-108307142D01*
X139572857Y-108354761D01*
X139477619Y-108402380D01*
X139382380Y-108402380D01*
X139287142Y-108354761D01*
X139239523Y-108307142D01*
X139191904Y-108211904D01*
X139144285Y-108021428D01*
X139144285Y-107783333D01*
X139191904Y-107592857D01*
X139239523Y-107497619D01*
X139287142Y-107450000D01*
X139382380Y-107402380D01*
X142271904Y-108402380D02*
X142271904Y-107402380D01*
X142652857Y-107402380D01*
X142748095Y-107450000D01*
X142795714Y-107497619D01*
X142843333Y-107592857D01*
X142843333Y-107735714D01*
X142795714Y-107830952D01*
X142748095Y-107878571D01*
X142652857Y-107926190D01*
X142271904Y-107926190D01*
X143605238Y-107878571D02*
X143748095Y-107926190D01*
X143795714Y-107973809D01*
X143843333Y-108069047D01*
X143843333Y-108211904D01*
X143795714Y-108307142D01*
X143748095Y-108354761D01*
X143652857Y-108402380D01*
X143271904Y-108402380D01*
X143271904Y-107402380D01*
X143605238Y-107402380D01*
X143700476Y-107450000D01*
X143748095Y-107497619D01*
X143795714Y-107592857D01*
X143795714Y-107688095D01*
X143748095Y-107783333D01*
X143700476Y-107830952D01*
X143605238Y-107878571D01*
X143271904Y-107878571D01*
X144795714Y-108402380D02*
X144224285Y-108402380D01*
X144510000Y-108402380D02*
X144510000Y-107402380D01*
X144414761Y-107545238D01*
X144319523Y-107640476D01*
X144224285Y-107688095D01*
X157559523Y-111212380D02*
X157083333Y-111212380D01*
X157035714Y-111688571D01*
X157083333Y-111640952D01*
X157178571Y-111593333D01*
X157416666Y-111593333D01*
X157511904Y-111640952D01*
X157559523Y-111688571D01*
X157607142Y-111783809D01*
X157607142Y-112021904D01*
X157559523Y-112117142D01*
X157511904Y-112164761D01*
X157416666Y-112212380D01*
X157178571Y-112212380D01*
X157083333Y-112164761D01*
X157035714Y-112117142D01*
X157892857Y-111212380D02*
X158226190Y-112212380D01*
X158559523Y-111212380D01*
X158892857Y-112212380D02*
X158892857Y-111212380D01*
X159130952Y-111212380D01*
X159273809Y-111260000D01*
X159369047Y-111355238D01*
X159416666Y-111450476D01*
X159464285Y-111640952D01*
X159464285Y-111783809D01*
X159416666Y-111974285D01*
X159369047Y-112069523D01*
X159273809Y-112164761D01*
X159130952Y-112212380D01*
X158892857Y-112212380D01*
X160464285Y-112117142D02*
X160416666Y-112164761D01*
X160273809Y-112212380D01*
X160178571Y-112212380D01*
X160035714Y-112164761D01*
X159940476Y-112069523D01*
X159892857Y-111974285D01*
X159845238Y-111783809D01*
X159845238Y-111640952D01*
X159892857Y-111450476D01*
X159940476Y-111355238D01*
X160035714Y-111260000D01*
X160178571Y-111212380D01*
X160273809Y-111212380D01*
X160416666Y-111260000D01*
X160464285Y-111307619D01*
X163973095Y-120086428D02*
X164735000Y-120086428D01*
X164354047Y-120467380D02*
X164354047Y-119705476D01*
X166735000Y-120086428D02*
X167496904Y-120086428D01*
X129357380Y-120816666D02*
X128881190Y-121150000D01*
X129357380Y-121388095D02*
X128357380Y-121388095D01*
X128357380Y-121007142D01*
X128405000Y-120911904D01*
X128452619Y-120864285D01*
X128547857Y-120816666D01*
X128690714Y-120816666D01*
X128785952Y-120864285D01*
X128833571Y-120911904D01*
X128881190Y-121007142D01*
X128881190Y-121388095D01*
X128357380Y-120483333D02*
X129357380Y-119816666D01*
X128357380Y-119816666D02*
X129357380Y-120483333D01*
X130897380Y-121411904D02*
X130897380Y-120840476D01*
X131897380Y-121126190D02*
X130897380Y-121126190D01*
X130897380Y-120602380D02*
X131897380Y-119935714D01*
X130897380Y-119935714D02*
X131897380Y-120602380D01*
X133485000Y-120776904D02*
X133437380Y-120872142D01*
X133437380Y-121015000D01*
X133485000Y-121157857D01*
X133580238Y-121253095D01*
X133675476Y-121300714D01*
X133865952Y-121348333D01*
X134008809Y-121348333D01*
X134199285Y-121300714D01*
X134294523Y-121253095D01*
X134389761Y-121157857D01*
X134437380Y-121015000D01*
X134437380Y-120919761D01*
X134389761Y-120776904D01*
X134342142Y-120729285D01*
X134008809Y-120729285D01*
X134008809Y-120919761D01*
X134437380Y-120300714D02*
X133437380Y-120300714D01*
X134437380Y-119729285D01*
X133437380Y-119729285D01*
X134437380Y-119253095D02*
X133437380Y-119253095D01*
X133437380Y-119015000D01*
X133485000Y-118872142D01*
X133580238Y-118776904D01*
X133675476Y-118729285D01*
X133865952Y-118681666D01*
X134008809Y-118681666D01*
X134199285Y-118729285D01*
X134294523Y-118776904D01*
X134389761Y-118872142D01*
X134437380Y-119015000D01*
X134437380Y-119253095D01*
X136977380Y-121253095D02*
X135977380Y-121253095D01*
X135977380Y-120872142D01*
X136025000Y-120776904D01*
X136072619Y-120729285D01*
X136167857Y-120681666D01*
X136310714Y-120681666D01*
X136405952Y-120729285D01*
X136453571Y-120776904D01*
X136501190Y-120872142D01*
X136501190Y-121253095D01*
X136453571Y-119919761D02*
X136501190Y-119776904D01*
X136548809Y-119729285D01*
X136644047Y-119681666D01*
X136786904Y-119681666D01*
X136882142Y-119729285D01*
X136929761Y-119776904D01*
X136977380Y-119872142D01*
X136977380Y-120253095D01*
X135977380Y-120253095D01*
X135977380Y-119919761D01*
X136025000Y-119824523D01*
X136072619Y-119776904D01*
X136167857Y-119729285D01*
X136263095Y-119729285D01*
X136358333Y-119776904D01*
X136405952Y-119824523D01*
X136453571Y-119919761D01*
X136453571Y-120253095D01*
X135977380Y-119062619D02*
X135977380Y-118967380D01*
X136025000Y-118872142D01*
X136072619Y-118824523D01*
X136167857Y-118776904D01*
X136358333Y-118729285D01*
X136596428Y-118729285D01*
X136786904Y-118776904D01*
X136882142Y-118824523D01*
X136929761Y-118872142D01*
X136977380Y-118967380D01*
X136977380Y-119062619D01*
X136929761Y-119157857D01*
X136882142Y-119205476D01*
X136786904Y-119253095D01*
X136596428Y-119300714D01*
X136358333Y-119300714D01*
X136167857Y-119253095D01*
X136072619Y-119205476D01*
X136025000Y-119157857D01*
X135977380Y-119062619D01*
X127723095Y-111339761D02*
X127865952Y-111387380D01*
X128104047Y-111387380D01*
X128199285Y-111339761D01*
X128246904Y-111292142D01*
X128294523Y-111196904D01*
X128294523Y-111101666D01*
X128246904Y-111006428D01*
X128199285Y-110958809D01*
X128104047Y-110911190D01*
X127913571Y-110863571D01*
X127818333Y-110815952D01*
X127770714Y-110768333D01*
X127723095Y-110673095D01*
X127723095Y-110577857D01*
X127770714Y-110482619D01*
X127818333Y-110435000D01*
X127913571Y-110387380D01*
X128151666Y-110387380D01*
X128294523Y-110435000D01*
X128723095Y-110863571D02*
X129056428Y-110863571D01*
X129199285Y-111387380D02*
X128723095Y-111387380D01*
X128723095Y-110387380D01*
X129199285Y-110387380D01*
X130199285Y-111387380D02*
X129865952Y-110911190D01*
X129627857Y-111387380D02*
X129627857Y-110387380D01*
X130008809Y-110387380D01*
X130104047Y-110435000D01*
X130151666Y-110482619D01*
X130199285Y-110577857D01*
X130199285Y-110720714D01*
X130151666Y-110815952D01*
X130104047Y-110863571D01*
X130008809Y-110911190D01*
X129627857Y-110911190D01*
X130627857Y-111387380D02*
X130627857Y-110387380D01*
X131056428Y-111101666D02*
X131532619Y-111101666D01*
X130961190Y-111387380D02*
X131294523Y-110387380D01*
X131627857Y-111387380D01*
X132437380Y-111387380D02*
X131961190Y-111387380D01*
X131961190Y-110387380D01*
X134342142Y-111387380D02*
X134294523Y-111387380D01*
X134199285Y-111339761D01*
X134056428Y-111196904D01*
X133818333Y-110911190D01*
X133723095Y-110768333D01*
X133675476Y-110625476D01*
X133675476Y-110530238D01*
X133723095Y-110435000D01*
X133818333Y-110387380D01*
X133865952Y-110387380D01*
X133961190Y-110435000D01*
X134008809Y-110530238D01*
X134008809Y-110577857D01*
X133961190Y-110673095D01*
X133913571Y-110720714D01*
X133627857Y-110911190D01*
X133580238Y-110958809D01*
X133532619Y-111054047D01*
X133532619Y-111196904D01*
X133580238Y-111292142D01*
X133627857Y-111339761D01*
X133723095Y-111387380D01*
X133865952Y-111387380D01*
X133961190Y-111339761D01*
X134008809Y-111292142D01*
X134151666Y-111101666D01*
X134199285Y-110958809D01*
X134199285Y-110863571D01*
X135532619Y-111387380D02*
X135532619Y-110387380D01*
X136723095Y-110339761D02*
X135865952Y-111625476D01*
X137246904Y-110387380D02*
X137437380Y-110387380D01*
X137532619Y-110435000D01*
X137627857Y-110530238D01*
X137675476Y-110720714D01*
X137675476Y-111054047D01*
X137627857Y-111244523D01*
X137532619Y-111339761D01*
X137437380Y-111387380D01*
X137246904Y-111387380D01*
X137151666Y-111339761D01*
X137056428Y-111244523D01*
X137008809Y-111054047D01*
X137008809Y-110720714D01*
X137056428Y-110530238D01*
X137151666Y-110435000D01*
X137246904Y-110387380D01*
X138723095Y-110387380D02*
X139294523Y-110387380D01*
X139008809Y-111387380D02*
X139008809Y-110387380D01*
X139818333Y-110387380D02*
X140008809Y-110387380D01*
X140104047Y-110435000D01*
X140199285Y-110530238D01*
X140246904Y-110720714D01*
X140246904Y-111054047D01*
X140199285Y-111244523D01*
X140104047Y-111339761D01*
X140008809Y-111387380D01*
X139818333Y-111387380D01*
X139723095Y-111339761D01*
X139627857Y-111244523D01*
X139580238Y-111054047D01*
X139580238Y-110720714D01*
X139627857Y-110530238D01*
X139723095Y-110435000D01*
X139818333Y-110387380D01*
X126580238Y-113037380D02*
X126580238Y-112370714D01*
X126580238Y-112037380D02*
X126532619Y-112085000D01*
X126580238Y-112132619D01*
X126627857Y-112085000D01*
X126580238Y-112037380D01*
X126580238Y-112132619D01*
X127056428Y-113037380D02*
X127056428Y-112037380D01*
X127389761Y-112751666D01*
X127723095Y-112037380D01*
X127723095Y-113037380D01*
X128151666Y-112751666D02*
X128627857Y-112751666D01*
X128056428Y-113037380D02*
X128389761Y-112037380D01*
X128723095Y-113037380D01*
X129627857Y-112942142D02*
X129580238Y-112989761D01*
X129437380Y-113037380D01*
X129342142Y-113037380D01*
X129199285Y-112989761D01*
X129104047Y-112894523D01*
X129056428Y-112799285D01*
X129008809Y-112608809D01*
X129008809Y-112465952D01*
X129056428Y-112275476D01*
X129104047Y-112180238D01*
X129199285Y-112085000D01*
X129342142Y-112037380D01*
X129437380Y-112037380D01*
X129580238Y-112085000D01*
X129627857Y-112132619D01*
X131342142Y-112085000D02*
X131246904Y-112037380D01*
X131104047Y-112037380D01*
X130961190Y-112085000D01*
X130865952Y-112180238D01*
X130818333Y-112275476D01*
X130770714Y-112465952D01*
X130770714Y-112608809D01*
X130818333Y-112799285D01*
X130865952Y-112894523D01*
X130961190Y-112989761D01*
X131104047Y-113037380D01*
X131199285Y-113037380D01*
X131342142Y-112989761D01*
X131389761Y-112942142D01*
X131389761Y-112608809D01*
X131199285Y-112608809D01*
X131723095Y-112037380D02*
X132342142Y-112037380D01*
X132008809Y-112418333D01*
X132151666Y-112418333D01*
X132246904Y-112465952D01*
X132294523Y-112513571D01*
X132342142Y-112608809D01*
X132342142Y-112846904D01*
X132294523Y-112942142D01*
X132246904Y-112989761D01*
X132151666Y-113037380D01*
X131865952Y-113037380D01*
X131770714Y-112989761D01*
X131723095Y-112942142D01*
X133818333Y-112037380D02*
X133818333Y-112751666D01*
X133770714Y-112894523D01*
X133675476Y-112989761D01*
X133532619Y-113037380D01*
X133437380Y-113037380D01*
X134246904Y-112132619D02*
X134294523Y-112085000D01*
X134389761Y-112037380D01*
X134627857Y-112037380D01*
X134723095Y-112085000D01*
X134770714Y-112132619D01*
X134818333Y-112227857D01*
X134818333Y-112323095D01*
X134770714Y-112465952D01*
X134199285Y-113037380D01*
X134818333Y-113037380D01*
X135437380Y-112037380D02*
X135532619Y-112037380D01*
X135627857Y-112085000D01*
X135675476Y-112132619D01*
X135723095Y-112227857D01*
X135770714Y-112418333D01*
X135770714Y-112656428D01*
X135723095Y-112846904D01*
X135675476Y-112942142D01*
X135627857Y-112989761D01*
X135532619Y-113037380D01*
X135437380Y-113037380D01*
X135342142Y-112989761D01*
X135294523Y-112942142D01*
X135246904Y-112846904D01*
X135199285Y-112656428D01*
X135199285Y-112418333D01*
X135246904Y-112227857D01*
X135294523Y-112132619D01*
X135342142Y-112085000D01*
X135437380Y-112037380D01*
X137294523Y-112513571D02*
X137437380Y-112561190D01*
X137485000Y-112608809D01*
X137532619Y-112704047D01*
X137532619Y-112846904D01*
X137485000Y-112942142D01*
X137437380Y-112989761D01*
X137342142Y-113037380D01*
X136961190Y-113037380D01*
X136961190Y-112037380D01*
X137294523Y-112037380D01*
X137389761Y-112085000D01*
X137437380Y-112132619D01*
X137485000Y-112227857D01*
X137485000Y-112323095D01*
X137437380Y-112418333D01*
X137389761Y-112465952D01*
X137294523Y-112513571D01*
X136961190Y-112513571D01*
X138151666Y-112037380D02*
X138342142Y-112037380D01*
X138437380Y-112085000D01*
X138532619Y-112180238D01*
X138580238Y-112370714D01*
X138580238Y-112704047D01*
X138532619Y-112894523D01*
X138437380Y-112989761D01*
X138342142Y-113037380D01*
X138151666Y-113037380D01*
X138056428Y-112989761D01*
X137961190Y-112894523D01*
X137913571Y-112704047D01*
X137913571Y-112370714D01*
X137961190Y-112180238D01*
X138056428Y-112085000D01*
X138151666Y-112037380D01*
X138961190Y-112751666D02*
X139437380Y-112751666D01*
X138865952Y-113037380D02*
X139199285Y-112037380D01*
X139532619Y-113037380D01*
X140437380Y-113037380D02*
X140104047Y-112561190D01*
X139865952Y-113037380D02*
X139865952Y-112037380D01*
X140246904Y-112037380D01*
X140342142Y-112085000D01*
X140389761Y-112132619D01*
X140437380Y-112227857D01*
X140437380Y-112370714D01*
X140389761Y-112465952D01*
X140342142Y-112513571D01*
X140246904Y-112561190D01*
X139865952Y-112561190D01*
X140865952Y-113037380D02*
X140865952Y-112037380D01*
X141104047Y-112037380D01*
X141246904Y-112085000D01*
X141342142Y-112180238D01*
X141389761Y-112275476D01*
X141437380Y-112465952D01*
X141437380Y-112608809D01*
X141389761Y-112799285D01*
X141342142Y-112894523D01*
X141246904Y-112989761D01*
X141104047Y-113037380D01*
X140865952Y-113037380D01*
X171100952Y-94432380D02*
X170529523Y-94432380D01*
X170815238Y-94432380D02*
X170815238Y-93432380D01*
X170720000Y-93575238D01*
X170624761Y-93670476D01*
X170529523Y-93718095D01*
X171481904Y-93527619D02*
X171529523Y-93480000D01*
X171624761Y-93432380D01*
X171862857Y-93432380D01*
X171958095Y-93480000D01*
X172005714Y-93527619D01*
X172053333Y-93622857D01*
X172053333Y-93718095D01*
X172005714Y-93860952D01*
X171434285Y-94432380D01*
X172053333Y-94432380D01*
X172339047Y-93432380D02*
X172672380Y-94432380D01*
X173005714Y-93432380D01*
X173339047Y-94432380D02*
X173339047Y-93432380D01*
X173577142Y-93432380D01*
X173720000Y-93480000D01*
X173815238Y-93575238D01*
X173862857Y-93670476D01*
X173910476Y-93860952D01*
X173910476Y-94003809D01*
X173862857Y-94194285D01*
X173815238Y-94289523D01*
X173720000Y-94384761D01*
X173577142Y-94432380D01*
X173339047Y-94432380D01*
X174910476Y-94337142D02*
X174862857Y-94384761D01*
X174720000Y-94432380D01*
X174624761Y-94432380D01*
X174481904Y-94384761D01*
X174386666Y-94289523D01*
X174339047Y-94194285D01*
X174291428Y-94003809D01*
X174291428Y-93860952D01*
X174339047Y-93670476D01*
X174386666Y-93575238D01*
X174481904Y-93480000D01*
X174624761Y-93432380D01*
X174720000Y-93432380D01*
X174862857Y-93480000D01*
X174910476Y-93527619D01*
X146129523Y-105307380D02*
X145653333Y-105307380D01*
X145605714Y-105783571D01*
X145653333Y-105735952D01*
X145748571Y-105688333D01*
X145986666Y-105688333D01*
X146081904Y-105735952D01*
X146129523Y-105783571D01*
X146177142Y-105878809D01*
X146177142Y-106116904D01*
X146129523Y-106212142D01*
X146081904Y-106259761D01*
X145986666Y-106307380D01*
X145748571Y-106307380D01*
X145653333Y-106259761D01*
X145605714Y-106212142D01*
X146462857Y-105307380D02*
X146796190Y-106307380D01*
X147129523Y-105307380D01*
X147462857Y-106307380D02*
X147462857Y-105307380D01*
X147700952Y-105307380D01*
X147843809Y-105355000D01*
X147939047Y-105450238D01*
X147986666Y-105545476D01*
X148034285Y-105735952D01*
X148034285Y-105878809D01*
X147986666Y-106069285D01*
X147939047Y-106164523D01*
X147843809Y-106259761D01*
X147700952Y-106307380D01*
X147462857Y-106307380D01*
X149034285Y-106212142D02*
X148986666Y-106259761D01*
X148843809Y-106307380D01*
X148748571Y-106307380D01*
X148605714Y-106259761D01*
X148510476Y-106164523D01*
X148462857Y-106069285D01*
X148415238Y-105878809D01*
X148415238Y-105735952D01*
X148462857Y-105545476D01*
X148510476Y-105450238D01*
X148605714Y-105355000D01*
X148748571Y-105307380D01*
X148843809Y-105307380D01*
X148986666Y-105355000D01*
X149034285Y-105402619D01*
X145724761Y-106957380D02*
X146296190Y-106957380D01*
X146010476Y-107957380D02*
X146010476Y-106957380D01*
X147200952Y-107957380D02*
X146867619Y-107481190D01*
X146629523Y-107957380D02*
X146629523Y-106957380D01*
X147010476Y-106957380D01*
X147105714Y-107005000D01*
X147153333Y-107052619D01*
X147200952Y-107147857D01*
X147200952Y-107290714D01*
X147153333Y-107385952D01*
X147105714Y-107433571D01*
X147010476Y-107481190D01*
X146629523Y-107481190D01*
X147629523Y-107957380D02*
X147629523Y-106957380D01*
X148105714Y-107957380D02*
X148105714Y-106957380D01*
X148439047Y-107671666D01*
X148772380Y-106957380D01*
X148772380Y-107957380D01*
X139517380Y-121253095D02*
X138517380Y-121253095D01*
X138517380Y-120872142D01*
X138565000Y-120776904D01*
X138612619Y-120729285D01*
X138707857Y-120681666D01*
X138850714Y-120681666D01*
X138945952Y-120729285D01*
X138993571Y-120776904D01*
X139041190Y-120872142D01*
X139041190Y-121253095D01*
X138993571Y-119919761D02*
X139041190Y-119776904D01*
X139088809Y-119729285D01*
X139184047Y-119681666D01*
X139326904Y-119681666D01*
X139422142Y-119729285D01*
X139469761Y-119776904D01*
X139517380Y-119872142D01*
X139517380Y-120253095D01*
X138517380Y-120253095D01*
X138517380Y-119919761D01*
X138565000Y-119824523D01*
X138612619Y-119776904D01*
X138707857Y-119729285D01*
X138803095Y-119729285D01*
X138898333Y-119776904D01*
X138945952Y-119824523D01*
X138993571Y-119919761D01*
X138993571Y-120253095D01*
X139517380Y-118729285D02*
X139517380Y-119300714D01*
X139517380Y-119015000D02*
X138517380Y-119015000D01*
X138660238Y-119110238D01*
X138755476Y-119205476D01*
X138803095Y-119300714D01*
X151289047Y-103491428D02*
X152050952Y-103491428D01*
X151670000Y-103872380D02*
X151670000Y-103110476D01*
X152860476Y-103348571D02*
X152527142Y-103348571D01*
X152527142Y-103872380D02*
X152527142Y-102872380D01*
X153003333Y-102872380D01*
X153336666Y-103586666D02*
X153812857Y-103586666D01*
X153241428Y-103872380D02*
X153574761Y-102872380D01*
X153908095Y-103872380D01*
X154241428Y-103872380D02*
X154241428Y-102872380D01*
X154812857Y-103872380D01*
X154812857Y-102872380D01*
X155289047Y-103491428D02*
X156050952Y-103491428D01*
X112358571Y-103864285D02*
X112358571Y-104626190D01*
X111977619Y-104245238D02*
X112739523Y-104245238D01*
X111977619Y-106388095D02*
X111977619Y-105816666D01*
X111977619Y-106102380D02*
X112977619Y-106102380D01*
X112834761Y-106007142D01*
X112739523Y-105911904D01*
X112691904Y-105816666D01*
X112882380Y-106769047D02*
X112930000Y-106816666D01*
X112977619Y-106911904D01*
X112977619Y-107150000D01*
X112930000Y-107245238D01*
X112882380Y-107292857D01*
X112787142Y-107340476D01*
X112691904Y-107340476D01*
X112549047Y-107292857D01*
X111977619Y-106721428D01*
X111977619Y-107340476D01*
X112977619Y-107626190D02*
X111977619Y-107959523D01*
X112977619Y-108292857D01*
X111977619Y-108626190D02*
X112977619Y-108626190D01*
X112977619Y-108864285D01*
X112930000Y-109007142D01*
X112834761Y-109102380D01*
X112739523Y-109150000D01*
X112549047Y-109197619D01*
X112406190Y-109197619D01*
X112215714Y-109150000D01*
X112120476Y-109102380D01*
X112025238Y-109007142D01*
X111977619Y-108864285D01*
X111977619Y-108626190D01*
X112072857Y-110197619D02*
X112025238Y-110150000D01*
X111977619Y-110007142D01*
X111977619Y-109911904D01*
X112025238Y-109769047D01*
X112120476Y-109673809D01*
X112215714Y-109626190D01*
X112406190Y-109578571D01*
X112549047Y-109578571D01*
X112739523Y-109626190D01*
X112834761Y-109673809D01*
X112930000Y-109769047D01*
X112977619Y-109911904D01*
X112977619Y-110007142D01*
X112930000Y-110150000D01*
X112882380Y-110197619D01*
X112358571Y-111388095D02*
X112358571Y-112150000D01*
X170294285Y-66125714D02*
X170294285Y-66792380D01*
X170056190Y-65744761D02*
X169818095Y-66459047D01*
X170437142Y-66459047D01*
X171008571Y-65792380D02*
X171103809Y-65792380D01*
X171199047Y-65840000D01*
X171246666Y-65887619D01*
X171294285Y-65982857D01*
X171341904Y-66173333D01*
X171341904Y-66411428D01*
X171294285Y-66601904D01*
X171246666Y-66697142D01*
X171199047Y-66744761D01*
X171103809Y-66792380D01*
X171008571Y-66792380D01*
X170913333Y-66744761D01*
X170865714Y-66697142D01*
X170818095Y-66601904D01*
X170770476Y-66411428D01*
X170770476Y-66173333D01*
X170818095Y-65982857D01*
X170865714Y-65887619D01*
X170913333Y-65840000D01*
X171008571Y-65792380D01*
X169770476Y-71842380D02*
X170389523Y-71842380D01*
X170056190Y-72223333D01*
X170199047Y-72223333D01*
X170294285Y-72270952D01*
X170341904Y-72318571D01*
X170389523Y-72413809D01*
X170389523Y-72651904D01*
X170341904Y-72747142D01*
X170294285Y-72794761D01*
X170199047Y-72842380D01*
X169913333Y-72842380D01*
X169818095Y-72794761D01*
X169770476Y-72747142D01*
X170865714Y-72842380D02*
X171056190Y-72842380D01*
X171151428Y-72794761D01*
X171199047Y-72747142D01*
X171294285Y-72604285D01*
X171341904Y-72413809D01*
X171341904Y-72032857D01*
X171294285Y-71937619D01*
X171246666Y-71890000D01*
X171151428Y-71842380D01*
X170960952Y-71842380D01*
X170865714Y-71890000D01*
X170818095Y-71937619D01*
X170770476Y-72032857D01*
X170770476Y-72270952D01*
X170818095Y-72366190D01*
X170865714Y-72413809D01*
X170960952Y-72461428D01*
X171151428Y-72461428D01*
X171246666Y-72413809D01*
X171294285Y-72366190D01*
X171341904Y-72270952D01*
X117994285Y-65887619D02*
X118041904Y-65840000D01*
X118137142Y-65792380D01*
X118375238Y-65792380D01*
X118470476Y-65840000D01*
X118518095Y-65887619D01*
X118565714Y-65982857D01*
X118565714Y-66078095D01*
X118518095Y-66220952D01*
X117946666Y-66792380D01*
X118565714Y-66792380D01*
X118565714Y-72842380D02*
X117994285Y-72842380D01*
X118280000Y-72842380D02*
X118280000Y-71842380D01*
X118184761Y-71985238D01*
X118089523Y-72080476D01*
X117994285Y-72128095D01*
X123500476Y-99877619D02*
X123548095Y-99830000D01*
X123643333Y-99782380D01*
X123881428Y-99782380D01*
X123976666Y-99830000D01*
X124024285Y-99877619D01*
X124071904Y-99972857D01*
X124071904Y-100068095D01*
X124024285Y-100210952D01*
X123452857Y-100782380D01*
X124071904Y-100782380D01*
X124976666Y-99782380D02*
X124500476Y-99782380D01*
X124452857Y-100258571D01*
X124500476Y-100210952D01*
X124595714Y-100163333D01*
X124833809Y-100163333D01*
X124929047Y-100210952D01*
X124976666Y-100258571D01*
X125024285Y-100353809D01*
X125024285Y-100591904D01*
X124976666Y-100687142D01*
X124929047Y-100734761D01*
X124833809Y-100782380D01*
X124595714Y-100782380D01*
X124500476Y-100734761D01*
X124452857Y-100687142D01*
X125452857Y-100782380D02*
X125452857Y-100115714D01*
X125452857Y-100210952D02*
X125500476Y-100163333D01*
X125595714Y-100115714D01*
X125738571Y-100115714D01*
X125833809Y-100163333D01*
X125881428Y-100258571D01*
X125881428Y-100782380D01*
X125881428Y-100258571D02*
X125929047Y-100163333D01*
X126024285Y-100115714D01*
X126167142Y-100115714D01*
X126262380Y-100163333D01*
X126310000Y-100258571D01*
X126310000Y-100782380D01*
X126786190Y-100782380D02*
X126786190Y-100115714D01*
X126786190Y-100210952D02*
X126833809Y-100163333D01*
X126929047Y-100115714D01*
X127071904Y-100115714D01*
X127167142Y-100163333D01*
X127214761Y-100258571D01*
X127214761Y-100782380D01*
X127214761Y-100258571D02*
X127262380Y-100163333D01*
X127357619Y-100115714D01*
X127500476Y-100115714D01*
X127595714Y-100163333D01*
X127643333Y-100258571D01*
X127643333Y-100782380D01*
X128786190Y-100782380D02*
X129310000Y-100115714D01*
X128786190Y-100115714D02*
X129310000Y-100782380D01*
X130405238Y-99877619D02*
X130452857Y-99830000D01*
X130548095Y-99782380D01*
X130786190Y-99782380D01*
X130881428Y-99830000D01*
X130929047Y-99877619D01*
X130976666Y-99972857D01*
X130976666Y-100068095D01*
X130929047Y-100210952D01*
X130357619Y-100782380D01*
X130976666Y-100782380D01*
X131881428Y-99782380D02*
X131405238Y-99782380D01*
X131357619Y-100258571D01*
X131405238Y-100210952D01*
X131500476Y-100163333D01*
X131738571Y-100163333D01*
X131833809Y-100210952D01*
X131881428Y-100258571D01*
X131929047Y-100353809D01*
X131929047Y-100591904D01*
X131881428Y-100687142D01*
X131833809Y-100734761D01*
X131738571Y-100782380D01*
X131500476Y-100782380D01*
X131405238Y-100734761D01*
X131357619Y-100687142D01*
X132357619Y-100782380D02*
X132357619Y-100115714D01*
X132357619Y-100210952D02*
X132405238Y-100163333D01*
X132500476Y-100115714D01*
X132643333Y-100115714D01*
X132738571Y-100163333D01*
X132786190Y-100258571D01*
X132786190Y-100782380D01*
X132786190Y-100258571D02*
X132833809Y-100163333D01*
X132929047Y-100115714D01*
X133071904Y-100115714D01*
X133167142Y-100163333D01*
X133214761Y-100258571D01*
X133214761Y-100782380D01*
X133690952Y-100782380D02*
X133690952Y-100115714D01*
X133690952Y-100210952D02*
X133738571Y-100163333D01*
X133833809Y-100115714D01*
X133976666Y-100115714D01*
X134071904Y-100163333D01*
X134119523Y-100258571D01*
X134119523Y-100782380D01*
X134119523Y-100258571D02*
X134167142Y-100163333D01*
X134262380Y-100115714D01*
X134405238Y-100115714D01*
X134500476Y-100163333D01*
X134548095Y-100258571D01*
X134548095Y-100782380D01*
X136119523Y-100258571D02*
X135786190Y-100258571D01*
X135786190Y-100782380D02*
X135786190Y-99782380D01*
X136262380Y-99782380D01*
X136595714Y-100496666D02*
X137071904Y-100496666D01*
X136500476Y-100782380D02*
X136833809Y-99782380D01*
X137167142Y-100782380D01*
X137500476Y-100782380D02*
X137500476Y-99782380D01*
X138071904Y-100782380D01*
X138071904Y-99782380D01*
D11*
X113703571Y-95344285D02*
X112989285Y-95844285D01*
X113703571Y-96201428D02*
X112203571Y-96201428D01*
X112203571Y-95630000D01*
X112275000Y-95487142D01*
X112346428Y-95415714D01*
X112489285Y-95344285D01*
X112703571Y-95344285D01*
X112846428Y-95415714D01*
X112917857Y-95487142D01*
X112989285Y-95630000D01*
X112989285Y-96201428D01*
X113703571Y-94701428D02*
X112203571Y-94701428D01*
X112203571Y-94130000D01*
X112275000Y-93987142D01*
X112346428Y-93915714D01*
X112489285Y-93844285D01*
X112703571Y-93844285D01*
X112846428Y-93915714D01*
X112917857Y-93987142D01*
X112989285Y-94130000D01*
X112989285Y-94701428D01*
X113703571Y-93201428D02*
X112703571Y-93201428D01*
X112203571Y-93201428D02*
X112275000Y-93272857D01*
X112346428Y-93201428D01*
X112275000Y-93130000D01*
X112203571Y-93201428D01*
X112346428Y-93201428D01*
X112203571Y-91558571D02*
X112203571Y-90701428D01*
X113703571Y-91130000D02*
X112203571Y-91130000D01*
X112203571Y-89915714D02*
X112203571Y-89630000D01*
X112275000Y-89487142D01*
X112417857Y-89344285D01*
X112703571Y-89272857D01*
X113203571Y-89272857D01*
X113489285Y-89344285D01*
X113632142Y-89487142D01*
X113703571Y-89630000D01*
X113703571Y-89915714D01*
X113632142Y-90058571D01*
X113489285Y-90201428D01*
X113203571Y-90272857D01*
X112703571Y-90272857D01*
X112417857Y-90201428D01*
X112275000Y-90058571D01*
X112203571Y-89915714D01*
X113703571Y-87487142D02*
X112703571Y-87487142D01*
X112203571Y-87487142D02*
X112275000Y-87558571D01*
X112346428Y-87487142D01*
X112275000Y-87415714D01*
X112203571Y-87487142D01*
X112346428Y-87487142D01*
X113703571Y-86772857D02*
X112203571Y-86772857D01*
X113275000Y-86272857D01*
X112203571Y-85772857D01*
X113703571Y-85772857D01*
X113703571Y-84415714D02*
X112917857Y-84415714D01*
X112775000Y-84487142D01*
X112703571Y-84630000D01*
X112703571Y-84915714D01*
X112775000Y-85058571D01*
X113632142Y-84415714D02*
X113703571Y-84558571D01*
X113703571Y-84915714D01*
X113632142Y-85058571D01*
X113489285Y-85130000D01*
X113346428Y-85130000D01*
X113203571Y-85058571D01*
X113132142Y-84915714D01*
X113132142Y-84558571D01*
X113060714Y-84415714D01*
X113632142Y-83058571D02*
X113703571Y-83201428D01*
X113703571Y-83487142D01*
X113632142Y-83630000D01*
X113560714Y-83701428D01*
X113417857Y-83772857D01*
X112989285Y-83772857D01*
X112846428Y-83701428D01*
X112775000Y-83630000D01*
X112703571Y-83487142D01*
X112703571Y-83201428D01*
X112775000Y-83058571D01*
X112275000Y-80487142D02*
X112203571Y-80630000D01*
X112203571Y-80844285D01*
X112275000Y-81058571D01*
X112417857Y-81201428D01*
X112560714Y-81272857D01*
X112846428Y-81344285D01*
X113060714Y-81344285D01*
X113346428Y-81272857D01*
X113489285Y-81201428D01*
X113632142Y-81058571D01*
X113703571Y-80844285D01*
X113703571Y-80701428D01*
X113632142Y-80487142D01*
X113560714Y-80415714D01*
X113060714Y-80415714D01*
X113060714Y-80701428D01*
X112203571Y-79915714D02*
X112203571Y-78987142D01*
X112775000Y-79487142D01*
X112775000Y-79272857D01*
X112846428Y-79130000D01*
X112917857Y-79058571D01*
X113060714Y-78987142D01*
X113417857Y-78987142D01*
X113560714Y-79058571D01*
X113632142Y-79130000D01*
X113703571Y-79272857D01*
X113703571Y-79701428D01*
X113632142Y-79844285D01*
X113560714Y-79915714D01*
X116253571Y-95701428D02*
X114753571Y-95701428D01*
X116253571Y-94987142D02*
X114753571Y-94987142D01*
X116253571Y-94130000D01*
X114753571Y-94130000D01*
X114753571Y-93630000D02*
X114753571Y-92772857D01*
X116253571Y-93201428D02*
X114753571Y-93201428D01*
X115467857Y-92272857D02*
X115467857Y-91772857D01*
X116253571Y-91558571D02*
X116253571Y-92272857D01*
X114753571Y-92272857D01*
X114753571Y-91558571D01*
X116253571Y-90058571D02*
X115539285Y-90558571D01*
X116253571Y-90915714D02*
X114753571Y-90915714D01*
X114753571Y-90344285D01*
X114825000Y-90201428D01*
X114896428Y-90130000D01*
X115039285Y-90058571D01*
X115253571Y-90058571D01*
X115396428Y-90130000D01*
X115467857Y-90201428D01*
X115539285Y-90344285D01*
X115539285Y-90915714D01*
X115467857Y-88915714D02*
X115467857Y-89415714D01*
X116253571Y-89415714D02*
X114753571Y-89415714D01*
X114753571Y-88701428D01*
X115825000Y-88201428D02*
X115825000Y-87487142D01*
X116253571Y-88344285D02*
X114753571Y-87844285D01*
X116253571Y-87344285D01*
X116110714Y-85987142D02*
X116182142Y-86058571D01*
X116253571Y-86272857D01*
X116253571Y-86415714D01*
X116182142Y-86630000D01*
X116039285Y-86772857D01*
X115896428Y-86844285D01*
X115610714Y-86915714D01*
X115396428Y-86915714D01*
X115110714Y-86844285D01*
X114967857Y-86772857D01*
X114825000Y-86630000D01*
X114753571Y-86415714D01*
X114753571Y-86272857D01*
X114825000Y-86058571D01*
X114896428Y-85987142D01*
X115467857Y-85344285D02*
X115467857Y-84844285D01*
X116253571Y-84630000D02*
X116253571Y-85344285D01*
X114753571Y-85344285D01*
X114753571Y-84630000D01*
X116253571Y-82844285D02*
X114753571Y-82844285D01*
X115467857Y-82844285D02*
X115467857Y-81987142D01*
X116253571Y-81987142D02*
X114753571Y-81987142D01*
X115825000Y-81344285D02*
X115825000Y-80630000D01*
X116253571Y-81487142D02*
X114753571Y-80987142D01*
X116253571Y-80487142D01*
X114753571Y-80201428D02*
X114753571Y-79344285D01*
X116253571Y-79772857D02*
X114753571Y-79772857D01*
D10*
X164689404Y-77415000D02*
X164594166Y-77367380D01*
X164451309Y-77367380D01*
X164308452Y-77415000D01*
X164213214Y-77510238D01*
X164165595Y-77605476D01*
X164117976Y-77795952D01*
X164117976Y-77938809D01*
X164165595Y-78129285D01*
X164213214Y-78224523D01*
X164308452Y-78319761D01*
X164451309Y-78367380D01*
X164546547Y-78367380D01*
X164689404Y-78319761D01*
X164737023Y-78272142D01*
X164737023Y-77938809D01*
X164546547Y-77938809D01*
X165165595Y-78367380D02*
X165165595Y-77367380D01*
X165546547Y-77367380D01*
X165641785Y-77415000D01*
X165689404Y-77462619D01*
X165737023Y-77557857D01*
X165737023Y-77700714D01*
X165689404Y-77795952D01*
X165641785Y-77843571D01*
X165546547Y-77891190D01*
X165165595Y-77891190D01*
X166165595Y-78367380D02*
X166165595Y-77367380D01*
X166832261Y-77367380D02*
X167022738Y-77367380D01*
X167117976Y-77415000D01*
X167213214Y-77510238D01*
X167260833Y-77700714D01*
X167260833Y-78034047D01*
X167213214Y-78224523D01*
X167117976Y-78319761D01*
X167022738Y-78367380D01*
X166832261Y-78367380D01*
X166737023Y-78319761D01*
X166641785Y-78224523D01*
X166594166Y-78034047D01*
X166594166Y-77700714D01*
X166641785Y-77510238D01*
X166737023Y-77415000D01*
X166832261Y-77367380D01*
X167641785Y-77462619D02*
X167689404Y-77415000D01*
X167784642Y-77367380D01*
X168022738Y-77367380D01*
X168117976Y-77415000D01*
X168165595Y-77462619D01*
X168213214Y-77557857D01*
X168213214Y-77653095D01*
X168165595Y-77795952D01*
X167594166Y-78367380D01*
X168213214Y-78367380D01*
X169070357Y-77700714D02*
X169070357Y-78367380D01*
X168832261Y-77319761D02*
X168594166Y-78034047D01*
X169213214Y-78034047D01*
X164498928Y-79493571D02*
X164165595Y-79493571D01*
X164165595Y-80017380D02*
X164165595Y-79017380D01*
X164641785Y-79017380D01*
X164975119Y-79731666D02*
X165451309Y-79731666D01*
X164879880Y-80017380D02*
X165213214Y-79017380D01*
X165546547Y-80017380D01*
X165879880Y-80017380D02*
X165879880Y-79017380D01*
X166451309Y-80017380D01*
X166451309Y-79017380D01*
X163258809Y-111212380D02*
X163877857Y-111212380D01*
X163544523Y-111593333D01*
X163687380Y-111593333D01*
X163782619Y-111640952D01*
X163830238Y-111688571D01*
X163877857Y-111783809D01*
X163877857Y-112021904D01*
X163830238Y-112117142D01*
X163782619Y-112164761D01*
X163687380Y-112212380D01*
X163401666Y-112212380D01*
X163306428Y-112164761D01*
X163258809Y-112117142D01*
X164306428Y-112117142D02*
X164354047Y-112164761D01*
X164306428Y-112212380D01*
X164258809Y-112164761D01*
X164306428Y-112117142D01*
X164306428Y-112212380D01*
X164687380Y-111212380D02*
X165306428Y-111212380D01*
X164973095Y-111593333D01*
X165115952Y-111593333D01*
X165211190Y-111640952D01*
X165258809Y-111688571D01*
X165306428Y-111783809D01*
X165306428Y-112021904D01*
X165258809Y-112117142D01*
X165211190Y-112164761D01*
X165115952Y-112212380D01*
X164830238Y-112212380D01*
X164735000Y-112164761D01*
X164687380Y-112117142D01*
X165592142Y-111212380D02*
X165925476Y-112212380D01*
X166258809Y-111212380D01*
X166592142Y-112212380D02*
X166592142Y-111212380D01*
X166830238Y-111212380D01*
X166973095Y-111260000D01*
X167068333Y-111355238D01*
X167115952Y-111450476D01*
X167163571Y-111640952D01*
X167163571Y-111783809D01*
X167115952Y-111974285D01*
X167068333Y-112069523D01*
X166973095Y-112164761D01*
X166830238Y-112212380D01*
X166592142Y-112212380D01*
X168163571Y-112117142D02*
X168115952Y-112164761D01*
X167973095Y-112212380D01*
X167877857Y-112212380D01*
X167735000Y-112164761D01*
X167639761Y-112069523D01*
X167592142Y-111974285D01*
X167544523Y-111783809D01*
X167544523Y-111640952D01*
X167592142Y-111450476D01*
X167639761Y-111355238D01*
X167735000Y-111260000D01*
X167877857Y-111212380D01*
X167973095Y-111212380D01*
X168115952Y-111260000D01*
X168163571Y-111307619D01*
X156988095Y-120086428D02*
X157750000Y-120086428D01*
X157369047Y-120467380D02*
X157369047Y-119705476D01*
X159750000Y-120086428D02*
X160511904Y-120086428D01*
X171511785Y-81602380D02*
X171035595Y-81602380D01*
X170987976Y-82078571D01*
X171035595Y-82030952D01*
X171130833Y-81983333D01*
X171368928Y-81983333D01*
X171464166Y-82030952D01*
X171511785Y-82078571D01*
X171559404Y-82173809D01*
X171559404Y-82411904D01*
X171511785Y-82507142D01*
X171464166Y-82554761D01*
X171368928Y-82602380D01*
X171130833Y-82602380D01*
X171035595Y-82554761D01*
X170987976Y-82507142D01*
X171845119Y-81602380D02*
X172178452Y-82602380D01*
X172511785Y-81602380D01*
X172845119Y-82602380D02*
X172845119Y-81602380D01*
X173083214Y-81602380D01*
X173226071Y-81650000D01*
X173321309Y-81745238D01*
X173368928Y-81840476D01*
X173416547Y-82030952D01*
X173416547Y-82173809D01*
X173368928Y-82364285D01*
X173321309Y-82459523D01*
X173226071Y-82554761D01*
X173083214Y-82602380D01*
X172845119Y-82602380D01*
X174416547Y-82507142D02*
X174368928Y-82554761D01*
X174226071Y-82602380D01*
X174130833Y-82602380D01*
X173987976Y-82554761D01*
X173892738Y-82459523D01*
X173845119Y-82364285D01*
X173797500Y-82173809D01*
X173797500Y-82030952D01*
X173845119Y-81840476D01*
X173892738Y-81745238D01*
X173987976Y-81650000D01*
X174130833Y-81602380D01*
X174226071Y-81602380D01*
X174368928Y-81650000D01*
X174416547Y-81697619D01*
X171226071Y-83252380D02*
X171416547Y-83252380D01*
X171511785Y-83300000D01*
X171607023Y-83395238D01*
X171654642Y-83585714D01*
X171654642Y-83919047D01*
X171607023Y-84109523D01*
X171511785Y-84204761D01*
X171416547Y-84252380D01*
X171226071Y-84252380D01*
X171130833Y-84204761D01*
X171035595Y-84109523D01*
X170987976Y-83919047D01*
X170987976Y-83585714D01*
X171035595Y-83395238D01*
X171130833Y-83300000D01*
X171226071Y-83252380D01*
X172654642Y-84252380D02*
X172321309Y-83776190D01*
X172083214Y-84252380D02*
X172083214Y-83252380D01*
X172464166Y-83252380D01*
X172559404Y-83300000D01*
X172607023Y-83347619D01*
X172654642Y-83442857D01*
X172654642Y-83585714D01*
X172607023Y-83680952D01*
X172559404Y-83728571D01*
X172464166Y-83776190D01*
X172083214Y-83776190D01*
X174178452Y-83728571D02*
X173845119Y-83728571D01*
X173845119Y-84252380D02*
X173845119Y-83252380D01*
X174321309Y-83252380D01*
X174654642Y-83966666D02*
X175130833Y-83966666D01*
X174559404Y-84252380D02*
X174892738Y-83252380D01*
X175226071Y-84252380D01*
X175559404Y-84252380D02*
X175559404Y-83252380D01*
X176130833Y-84252380D01*
X176130833Y-83252380D01*
X171559404Y-85902380D02*
X170987976Y-85902380D01*
X171273690Y-85902380D02*
X171273690Y-84902380D01*
X171178452Y-85045238D01*
X171083214Y-85140476D01*
X170987976Y-85188095D01*
X171940357Y-84997619D02*
X171987976Y-84950000D01*
X172083214Y-84902380D01*
X172321309Y-84902380D01*
X172416547Y-84950000D01*
X172464166Y-84997619D01*
X172511785Y-85092857D01*
X172511785Y-85188095D01*
X172464166Y-85330952D01*
X171892738Y-85902380D01*
X172511785Y-85902380D01*
X172797500Y-84902380D02*
X173130833Y-85902380D01*
X173464166Y-84902380D01*
X173797500Y-85902380D02*
X173797500Y-84902380D01*
X174035595Y-84902380D01*
X174178452Y-84950000D01*
X174273690Y-85045238D01*
X174321309Y-85140476D01*
X174368928Y-85330952D01*
X174368928Y-85473809D01*
X174321309Y-85664285D01*
X174273690Y-85759523D01*
X174178452Y-85854761D01*
X174035595Y-85902380D01*
X173797500Y-85902380D01*
X175368928Y-85807142D02*
X175321309Y-85854761D01*
X175178452Y-85902380D01*
X175083214Y-85902380D01*
X174940357Y-85854761D01*
X174845119Y-85759523D01*
X174797500Y-85664285D01*
X174749880Y-85473809D01*
X174749880Y-85330952D01*
X174797500Y-85140476D01*
X174845119Y-85045238D01*
X174940357Y-84950000D01*
X175083214Y-84902380D01*
X175178452Y-84902380D01*
X175321309Y-84950000D01*
X175368928Y-84997619D01*
X171559404Y-73705000D02*
X171464166Y-73657380D01*
X171321309Y-73657380D01*
X171178452Y-73705000D01*
X171083214Y-73800238D01*
X171035595Y-73895476D01*
X170987976Y-74085952D01*
X170987976Y-74228809D01*
X171035595Y-74419285D01*
X171083214Y-74514523D01*
X171178452Y-74609761D01*
X171321309Y-74657380D01*
X171416547Y-74657380D01*
X171559404Y-74609761D01*
X171607023Y-74562142D01*
X171607023Y-74228809D01*
X171416547Y-74228809D01*
X172035595Y-74657380D02*
X172035595Y-73657380D01*
X172416547Y-73657380D01*
X172511785Y-73705000D01*
X172559404Y-73752619D01*
X172607023Y-73847857D01*
X172607023Y-73990714D01*
X172559404Y-74085952D01*
X172511785Y-74133571D01*
X172416547Y-74181190D01*
X172035595Y-74181190D01*
X173035595Y-74657380D02*
X173035595Y-73657380D01*
X173702261Y-73657380D02*
X173892738Y-73657380D01*
X173987976Y-73705000D01*
X174083214Y-73800238D01*
X174130833Y-73990714D01*
X174130833Y-74324047D01*
X174083214Y-74514523D01*
X173987976Y-74609761D01*
X173892738Y-74657380D01*
X173702261Y-74657380D01*
X173607023Y-74609761D01*
X173511785Y-74514523D01*
X173464166Y-74324047D01*
X173464166Y-73990714D01*
X173511785Y-73800238D01*
X173607023Y-73705000D01*
X173702261Y-73657380D01*
X174511785Y-73752619D02*
X174559404Y-73705000D01*
X174654642Y-73657380D01*
X174892738Y-73657380D01*
X174987976Y-73705000D01*
X175035595Y-73752619D01*
X175083214Y-73847857D01*
X175083214Y-73943095D01*
X175035595Y-74085952D01*
X174464166Y-74657380D01*
X175083214Y-74657380D01*
X175416547Y-73657380D02*
X176035595Y-73657380D01*
X175702261Y-74038333D01*
X175845119Y-74038333D01*
X175940357Y-74085952D01*
X175987976Y-74133571D01*
X176035595Y-74228809D01*
X176035595Y-74466904D01*
X175987976Y-74562142D01*
X175940357Y-74609761D01*
X175845119Y-74657380D01*
X175559404Y-74657380D01*
X175464166Y-74609761D01*
X175416547Y-74562142D01*
X171035595Y-76307380D02*
X171035595Y-75307380D01*
X171416547Y-75307380D01*
X171511785Y-75355000D01*
X171559404Y-75402619D01*
X171607023Y-75497857D01*
X171607023Y-75640714D01*
X171559404Y-75735952D01*
X171511785Y-75783571D01*
X171416547Y-75831190D01*
X171035595Y-75831190D01*
X171940357Y-75307380D02*
X172178452Y-76307380D01*
X172368928Y-75593095D01*
X172559404Y-76307380D01*
X172797500Y-75307380D01*
X173749880Y-76307380D02*
X173416547Y-75831190D01*
X173178452Y-76307380D02*
X173178452Y-75307380D01*
X173559404Y-75307380D01*
X173654642Y-75355000D01*
X173702261Y-75402619D01*
X173749880Y-75497857D01*
X173749880Y-75640714D01*
X173702261Y-75735952D01*
X173654642Y-75783571D01*
X173559404Y-75831190D01*
X173178452Y-75831190D01*
X174130833Y-76021666D02*
X174607023Y-76021666D01*
X174035595Y-76307380D02*
X174368928Y-75307380D01*
X174702261Y-76307380D01*
X175511785Y-76307380D02*
X175035595Y-76307380D01*
X175035595Y-75307380D01*
X175845119Y-76307380D02*
X175845119Y-75307380D01*
X176178452Y-76021666D01*
X176511785Y-75307380D01*
X176511785Y-76307380D01*
X171910476Y-101528571D02*
X171577142Y-101528571D01*
X171577142Y-102052380D02*
X171577142Y-101052380D01*
X172053333Y-101052380D01*
X172386666Y-101766666D02*
X172862857Y-101766666D01*
X172291428Y-102052380D02*
X172624761Y-101052380D01*
X172958095Y-102052380D01*
X173291428Y-102052380D02*
X173291428Y-101052380D01*
X173862857Y-102052380D01*
X173862857Y-101052380D01*
X170243809Y-98512380D02*
X170862857Y-98512380D01*
X170529523Y-98893333D01*
X170672380Y-98893333D01*
X170767619Y-98940952D01*
X170815238Y-98988571D01*
X170862857Y-99083809D01*
X170862857Y-99321904D01*
X170815238Y-99417142D01*
X170767619Y-99464761D01*
X170672380Y-99512380D01*
X170386666Y-99512380D01*
X170291428Y-99464761D01*
X170243809Y-99417142D01*
X171291428Y-99417142D02*
X171339047Y-99464761D01*
X171291428Y-99512380D01*
X171243809Y-99464761D01*
X171291428Y-99417142D01*
X171291428Y-99512380D01*
X171672380Y-98512380D02*
X172291428Y-98512380D01*
X171958095Y-98893333D01*
X172100952Y-98893333D01*
X172196190Y-98940952D01*
X172243809Y-98988571D01*
X172291428Y-99083809D01*
X172291428Y-99321904D01*
X172243809Y-99417142D01*
X172196190Y-99464761D01*
X172100952Y-99512380D01*
X171815238Y-99512380D01*
X171720000Y-99464761D01*
X171672380Y-99417142D01*
X172577142Y-98512380D02*
X172910476Y-99512380D01*
X173243809Y-98512380D01*
X173577142Y-99512380D02*
X173577142Y-98512380D01*
X173815238Y-98512380D01*
X173958095Y-98560000D01*
X174053333Y-98655238D01*
X174100952Y-98750476D01*
X174148571Y-98940952D01*
X174148571Y-99083809D01*
X174100952Y-99274285D01*
X174053333Y-99369523D01*
X173958095Y-99464761D01*
X173815238Y-99512380D01*
X173577142Y-99512380D01*
X175148571Y-99417142D02*
X175100952Y-99464761D01*
X174958095Y-99512380D01*
X174862857Y-99512380D01*
X174720000Y-99464761D01*
X174624761Y-99369523D01*
X174577142Y-99274285D01*
X174529523Y-99083809D01*
X174529523Y-98940952D01*
X174577142Y-98750476D01*
X174624761Y-98655238D01*
X174720000Y-98560000D01*
X174862857Y-98512380D01*
X174958095Y-98512380D01*
X175100952Y-98560000D01*
X175148571Y-98607619D01*
X171529523Y-95972380D02*
X171053333Y-95972380D01*
X171005714Y-96448571D01*
X171053333Y-96400952D01*
X171148571Y-96353333D01*
X171386666Y-96353333D01*
X171481904Y-96400952D01*
X171529523Y-96448571D01*
X171577142Y-96543809D01*
X171577142Y-96781904D01*
X171529523Y-96877142D01*
X171481904Y-96924761D01*
X171386666Y-96972380D01*
X171148571Y-96972380D01*
X171053333Y-96924761D01*
X171005714Y-96877142D01*
X171862857Y-95972380D02*
X172196190Y-96972380D01*
X172529523Y-95972380D01*
X172862857Y-96972380D02*
X172862857Y-95972380D01*
X173100952Y-95972380D01*
X173243809Y-96020000D01*
X173339047Y-96115238D01*
X173386666Y-96210476D01*
X173434285Y-96400952D01*
X173434285Y-96543809D01*
X173386666Y-96734285D01*
X173339047Y-96829523D01*
X173243809Y-96924761D01*
X173100952Y-96972380D01*
X172862857Y-96972380D01*
X174434285Y-96877142D02*
X174386666Y-96924761D01*
X174243809Y-96972380D01*
X174148571Y-96972380D01*
X174005714Y-96924761D01*
X173910476Y-96829523D01*
X173862857Y-96734285D01*
X173815238Y-96543809D01*
X173815238Y-96400952D01*
X173862857Y-96210476D01*
X173910476Y-96115238D01*
X174005714Y-96020000D01*
X174148571Y-95972380D01*
X174243809Y-95972380D01*
X174386666Y-96020000D01*
X174434285Y-96067619D01*
D12*
X150840000Y-101660000D02*
X151610000Y-101660000D01*
X153190000Y-101660000D02*
X154150000Y-101660000D01*
X155730000Y-101660000D02*
X156500000Y-101660000D01*
X150840000Y-96360000D02*
X156500000Y-96360000D01*
X150840000Y-95900000D02*
X156500000Y-95900000D01*
X150840000Y-102220000D02*
X151610000Y-102220000D01*
X153190000Y-102220000D02*
X154150000Y-102220000D01*
X155730000Y-102220000D02*
X156500000Y-102220000D01*
X150840000Y-95900000D02*
X150840000Y-102220000D01*
X156500000Y-95900000D02*
X156500000Y-102220000D01*
X150600000Y-101720000D02*
X150600000Y-102460000D01*
X150600000Y-102460000D02*
X151100000Y-102460000D01*
X131820000Y-107560000D02*
X126120000Y-107560000D01*
X131820000Y-103260000D02*
X126120000Y-103260000D01*
X131820000Y-107560000D02*
X131820000Y-103260000D01*
X171235000Y-93445000D02*
X173520000Y-93445000D01*
X171235000Y-91975000D02*
X171235000Y-93445000D01*
X173520000Y-91975000D02*
X171235000Y-91975000D01*
X173520000Y-94515000D02*
X171235000Y-94515000D01*
X171235000Y-94515000D02*
X171235000Y-95985000D01*
X171235000Y-95985000D02*
X173520000Y-95985000D01*
X173520000Y-99595000D02*
X171235000Y-99595000D01*
X171235000Y-99595000D02*
X171235000Y-101065000D01*
X171235000Y-101065000D02*
X173520000Y-101065000D01*
X157770000Y-103140000D02*
X161670000Y-103140000D01*
X157770000Y-105140000D02*
X161670000Y-105140000D01*
X157770000Y-103140000D02*
X157770000Y-105140000D01*
X157770000Y-99330000D02*
X157770000Y-101330000D01*
X157770000Y-101330000D02*
X161670000Y-101330000D01*
X157770000Y-99330000D02*
X161670000Y-99330000D01*
X157770000Y-106950000D02*
X161670000Y-106950000D01*
X157770000Y-108950000D02*
X161670000Y-108950000D01*
X157770000Y-106950000D02*
X157770000Y-108950000D01*
X171235000Y-98525000D02*
X173520000Y-98525000D01*
X171235000Y-97055000D02*
X171235000Y-98525000D01*
X173520000Y-97055000D02*
X171235000Y-97055000D01*
X162700000Y-75930000D02*
X161300000Y-75930000D01*
X160600000Y-75230000D02*
X160600000Y-74630000D01*
X161300000Y-73930000D02*
X162700000Y-73930000D01*
X163400000Y-74630000D02*
X163400000Y-75230000D01*
X161300000Y-75930000D02*
G75*
G02*
X160600000Y-75230000I0J700000D01*
G01*
X160600000Y-74630000D02*
G75*
G02*
X161300000Y-73930000I700000J0D01*
G01*
X162700000Y-73930000D02*
G75*
G02*
X163400000Y-74630000I0J-700000D01*
G01*
X163400000Y-75230000D02*
G75*
G02*
X162700000Y-75930000I-700000J0D01*
G01*
X163400000Y-78440000D02*
X163400000Y-79040000D01*
X161300000Y-77740000D02*
X162700000Y-77740000D01*
X160600000Y-79040000D02*
X160600000Y-78440000D01*
X162700000Y-79740000D02*
X161300000Y-79740000D01*
X163400000Y-79040000D02*
G75*
G02*
X162700000Y-79740000I-700000J0D01*
G01*
X162700000Y-77740000D02*
G75*
G02*
X163400000Y-78440000I0J-700000D01*
G01*
X160600000Y-78440000D02*
G75*
G02*
X161300000Y-77740000I700000J0D01*
G01*
X161300000Y-79740000D02*
G75*
G02*
X160600000Y-79040000I0J700000D01*
G01*
X167510000Y-82850000D02*
X167510000Y-82250000D01*
X169610000Y-83550000D02*
X168210000Y-83550000D01*
X170310000Y-82250000D02*
X170310000Y-82850000D01*
X168210000Y-81550000D02*
X169610000Y-81550000D01*
X167510000Y-82250000D02*
G75*
G02*
X168210000Y-81550000I700000J0D01*
G01*
X168210000Y-83550000D02*
G75*
G02*
X167510000Y-82850000I0J700000D01*
G01*
X170310000Y-82850000D02*
G75*
G02*
X169610000Y-83550000I-700000J0D01*
G01*
X169610000Y-81550000D02*
G75*
G02*
X170310000Y-82250000I0J-700000D01*
G01*
X168210000Y-84090000D02*
X169610000Y-84090000D01*
X170310000Y-84790000D02*
X170310000Y-85390000D01*
X169610000Y-86090000D02*
X168210000Y-86090000D01*
X167510000Y-85390000D02*
X167510000Y-84790000D01*
X169610000Y-84090000D02*
G75*
G02*
X170310000Y-84790000I0J-700000D01*
G01*
X170310000Y-85390000D02*
G75*
G02*
X169610000Y-86090000I-700000J0D01*
G01*
X168210000Y-86090000D02*
G75*
G02*
X167510000Y-85390000I0J700000D01*
G01*
X167510000Y-84790000D02*
G75*
G02*
X168210000Y-84090000I700000J0D01*
G01*
X154430000Y-108260000D02*
X152970000Y-108260000D01*
X154430000Y-105100000D02*
X152270000Y-105100000D01*
X154430000Y-105100000D02*
X154430000Y-106030000D01*
X154430000Y-108260000D02*
X154430000Y-107330000D01*
X148640000Y-81330000D02*
X161240000Y-81330000D01*
X148640000Y-93930000D02*
X148640000Y-81330000D01*
X161240000Y-93930000D02*
X148640000Y-93930000D01*
X161240000Y-81330000D02*
X161240000Y-93930000D01*
X148440000Y-81130000D02*
X148440000Y-81930000D01*
X149240000Y-81130000D02*
X148440000Y-81130000D01*
X119790000Y-110490000D02*
G75*
G03*
X119790000Y-110490000I-1680000J0D01*
G01*
X114010000Y-102810000D02*
X114010000Y-113090000D01*
X115510000Y-102810000D02*
X115510000Y-113090000D01*
X120411000Y-102810000D02*
X120411000Y-113090000D01*
X123371000Y-102810000D02*
X123371000Y-113090000D01*
X113450000Y-102810000D02*
X113450000Y-113090000D01*
X123371000Y-102810000D02*
X113450000Y-102810000D01*
X123371000Y-113090000D02*
X113450000Y-113090000D01*
X119179000Y-111765000D02*
X119133000Y-111718000D01*
X116871000Y-109456000D02*
X116836000Y-109421000D01*
X119385000Y-111560000D02*
X119349000Y-111525000D01*
X117087000Y-109263000D02*
X117041000Y-109216000D01*
X113950000Y-102570000D02*
X113210000Y-102570000D01*
X113210000Y-102570000D02*
X113210000Y-103070000D01*
X116575244Y-106093318D02*
G75*
G02*
X116430000Y-105410000I1534756J683318D01*
G01*
X118793042Y-106945426D02*
G75*
G02*
X117426000Y-106945000I-683042J1535426D01*
G01*
X119645426Y-104726958D02*
G75*
G02*
X119645000Y-106094000I-1535426J-683042D01*
G01*
X117426958Y-103874574D02*
G75*
G02*
X118794000Y-103875000I683042J-1535426D01*
G01*
X116429747Y-105438805D02*
G75*
G02*
X116575000Y-104726000I1680253J28805D01*
G01*
X172579420Y-103380000D02*
X172860580Y-103380000D01*
X172579420Y-102360000D02*
X172860580Y-102360000D01*
X172579420Y-104900000D02*
X172860580Y-104900000D01*
X172579420Y-105920000D02*
X172860580Y-105920000D01*
X172579420Y-108460000D02*
X172860580Y-108460000D01*
X172579420Y-107440000D02*
X172860580Y-107440000D01*
X168672742Y-104887500D02*
X169147258Y-104887500D01*
X168672742Y-105932500D02*
X169147258Y-105932500D01*
X169147258Y-89647500D02*
X168672742Y-89647500D01*
X169147258Y-90692500D02*
X168672742Y-90692500D01*
X169147258Y-92187500D02*
X168672742Y-92187500D01*
X169147258Y-93232500D02*
X168672742Y-93232500D01*
X169147258Y-95772500D02*
X168672742Y-95772500D01*
X169147258Y-94727500D02*
X168672742Y-94727500D01*
X169147258Y-100852500D02*
X168672742Y-100852500D01*
X169147258Y-99807500D02*
X168672742Y-99807500D01*
X168672742Y-103392500D02*
X169147258Y-103392500D01*
X168672742Y-102347500D02*
X169147258Y-102347500D01*
X169147258Y-97267500D02*
X168672742Y-97267500D01*
X169147258Y-98312500D02*
X168672742Y-98312500D01*
X119465000Y-72000000D02*
X118765000Y-72000000D01*
X118765000Y-72000000D02*
X118765000Y-66700000D01*
X118765000Y-66700000D02*
X119465000Y-66700000D01*
X169085000Y-72000000D02*
X169785000Y-72000000D01*
X169785000Y-72000000D02*
X169785000Y-66700000D01*
X169785000Y-66700000D02*
X169085000Y-66700000D01*
X170650000Y-78120000D02*
X170650000Y-76790000D01*
X171980000Y-78120000D02*
X170650000Y-78120000D01*
X170650000Y-75520000D02*
X170650000Y-72920000D01*
X173250000Y-75520000D02*
X170650000Y-75520000D01*
X173250000Y-78120000D02*
X173250000Y-75520000D01*
X170650000Y-72920000D02*
X175850000Y-72920000D01*
X173250000Y-78120000D02*
X175850000Y-78120000D01*
X175850000Y-78120000D02*
X175850000Y-72920000D01*
X144790000Y-95445000D02*
X149860000Y-95445000D01*
X144790000Y-105215000D02*
X149860000Y-105215000D01*
X149860000Y-105215000D02*
X149860000Y-95445000D01*
X144790000Y-105215000D02*
X144790000Y-95445000D01*
X137695000Y-103925000D02*
X137695000Y-106210000D01*
X139165000Y-103925000D02*
X137695000Y-103925000D01*
X139165000Y-106210000D02*
X139165000Y-103925000D01*
X144245000Y-106210000D02*
X144245000Y-103925000D01*
X144245000Y-103925000D02*
X142775000Y-103925000D01*
X142775000Y-103925000D02*
X142775000Y-106210000D01*
X135367500Y-105172742D02*
X135367500Y-105647258D01*
X136412500Y-105172742D02*
X136412500Y-105647258D01*
X141492500Y-105172742D02*
X141492500Y-105647258D01*
X140447500Y-105172742D02*
X140447500Y-105647258D01*
X127105000Y-118970000D02*
X127605000Y-118970000D01*
X127105000Y-118230000D02*
X127105000Y-118970000D01*
X140625000Y-112410000D02*
X140625000Y-118730000D01*
X127345000Y-112410000D02*
X127345000Y-118730000D01*
X127345000Y-118730000D02*
X140625000Y-118730000D01*
X127345000Y-112410000D02*
X140625000Y-112410000D01*
X127345000Y-112870000D02*
X140625000Y-112870000D01*
X127345000Y-118170000D02*
X140625000Y-118170000D01*
X155680000Y-118970000D02*
X156180000Y-118970000D01*
X155680000Y-118230000D02*
X155680000Y-118970000D01*
X161580000Y-112410000D02*
X161580000Y-118730000D01*
X155920000Y-112410000D02*
X155920000Y-118730000D01*
X160810000Y-118730000D02*
X161580000Y-118730000D01*
X158270000Y-118730000D02*
X159230000Y-118730000D01*
X155920000Y-118730000D02*
X156690000Y-118730000D01*
X155920000Y-112410000D02*
X161580000Y-112410000D01*
X155920000Y-112870000D02*
X161580000Y-112870000D01*
X160810000Y-118170000D02*
X161580000Y-118170000D01*
X158270000Y-118170000D02*
X159230000Y-118170000D01*
X155920000Y-118170000D02*
X156690000Y-118170000D01*
X162905000Y-118170000D02*
X163675000Y-118170000D01*
X165255000Y-118170000D02*
X166215000Y-118170000D01*
X167795000Y-118170000D02*
X168565000Y-118170000D01*
X162905000Y-112870000D02*
X168565000Y-112870000D01*
X162905000Y-112410000D02*
X168565000Y-112410000D01*
X162905000Y-118730000D02*
X163675000Y-118730000D01*
X165255000Y-118730000D02*
X166215000Y-118730000D01*
X167795000Y-118730000D02*
X168565000Y-118730000D01*
X162905000Y-112410000D02*
X162905000Y-118730000D01*
X168565000Y-112410000D02*
X168565000Y-118730000D01*
X162665000Y-118230000D02*
X162665000Y-118970000D01*
X162665000Y-118970000D02*
X163165000Y-118970000D01*
D10*
X153336666Y-95972380D02*
X153336666Y-96686666D01*
X153289047Y-96829523D01*
X153193809Y-96924761D01*
X153050952Y-96972380D01*
X152955714Y-96972380D01*
X154241428Y-96305714D02*
X154241428Y-96972380D01*
X154003333Y-95924761D02*
X153765238Y-96639047D01*
X154384285Y-96639047D01*
X127531904Y-105862380D02*
X127531904Y-104862380D01*
X127770000Y-104862380D01*
X127912857Y-104910000D01*
X128008095Y-105005238D01*
X128055714Y-105100476D01*
X128103333Y-105290952D01*
X128103333Y-105433809D01*
X128055714Y-105624285D01*
X128008095Y-105719523D01*
X127912857Y-105814761D01*
X127770000Y-105862380D01*
X127531904Y-105862380D01*
X129055714Y-105862380D02*
X128484285Y-105862380D01*
X128770000Y-105862380D02*
X128770000Y-104862380D01*
X128674761Y-105005238D01*
X128579523Y-105100476D01*
X128484285Y-105148095D01*
X174521904Y-93162380D02*
X174521904Y-92162380D01*
X174760000Y-92162380D01*
X174902857Y-92210000D01*
X174998095Y-92305238D01*
X175045714Y-92400476D01*
X175093333Y-92590952D01*
X175093333Y-92733809D01*
X175045714Y-92924285D01*
X174998095Y-93019523D01*
X174902857Y-93114761D01*
X174760000Y-93162380D01*
X174521904Y-93162380D01*
X175474285Y-92257619D02*
X175521904Y-92210000D01*
X175617142Y-92162380D01*
X175855238Y-92162380D01*
X175950476Y-92210000D01*
X175998095Y-92257619D01*
X176045714Y-92352857D01*
X176045714Y-92448095D01*
X175998095Y-92590952D01*
X175426666Y-93162380D01*
X176045714Y-93162380D01*
X174521904Y-95702380D02*
X174521904Y-94702380D01*
X174760000Y-94702380D01*
X174902857Y-94750000D01*
X174998095Y-94845238D01*
X175045714Y-94940476D01*
X175093333Y-95130952D01*
X175093333Y-95273809D01*
X175045714Y-95464285D01*
X174998095Y-95559523D01*
X174902857Y-95654761D01*
X174760000Y-95702380D01*
X174521904Y-95702380D01*
X175426666Y-94702380D02*
X176045714Y-94702380D01*
X175712380Y-95083333D01*
X175855238Y-95083333D01*
X175950476Y-95130952D01*
X175998095Y-95178571D01*
X176045714Y-95273809D01*
X176045714Y-95511904D01*
X175998095Y-95607142D01*
X175950476Y-95654761D01*
X175855238Y-95702380D01*
X175569523Y-95702380D01*
X175474285Y-95654761D01*
X175426666Y-95607142D01*
X174521904Y-100782380D02*
X174521904Y-99782380D01*
X174760000Y-99782380D01*
X174902857Y-99830000D01*
X174998095Y-99925238D01*
X175045714Y-100020476D01*
X175093333Y-100210952D01*
X175093333Y-100353809D01*
X175045714Y-100544285D01*
X174998095Y-100639523D01*
X174902857Y-100734761D01*
X174760000Y-100782380D01*
X174521904Y-100782380D01*
X175950476Y-100115714D02*
X175950476Y-100782380D01*
X175712380Y-99734761D02*
X175474285Y-100449047D01*
X176093333Y-100449047D01*
X163091904Y-104592380D02*
X163091904Y-103592380D01*
X163330000Y-103592380D01*
X163472857Y-103640000D01*
X163568095Y-103735238D01*
X163615714Y-103830476D01*
X163663333Y-104020952D01*
X163663333Y-104163809D01*
X163615714Y-104354285D01*
X163568095Y-104449523D01*
X163472857Y-104544761D01*
X163330000Y-104592380D01*
X163091904Y-104592380D01*
X164568095Y-103592380D02*
X164091904Y-103592380D01*
X164044285Y-104068571D01*
X164091904Y-104020952D01*
X164187142Y-103973333D01*
X164425238Y-103973333D01*
X164520476Y-104020952D01*
X164568095Y-104068571D01*
X164615714Y-104163809D01*
X164615714Y-104401904D01*
X164568095Y-104497142D01*
X164520476Y-104544761D01*
X164425238Y-104592380D01*
X164187142Y-104592380D01*
X164091904Y-104544761D01*
X164044285Y-104497142D01*
X163091904Y-100782380D02*
X163091904Y-99782380D01*
X163330000Y-99782380D01*
X163472857Y-99830000D01*
X163568095Y-99925238D01*
X163615714Y-100020476D01*
X163663333Y-100210952D01*
X163663333Y-100353809D01*
X163615714Y-100544285D01*
X163568095Y-100639523D01*
X163472857Y-100734761D01*
X163330000Y-100782380D01*
X163091904Y-100782380D01*
X164520476Y-99782380D02*
X164330000Y-99782380D01*
X164234761Y-99830000D01*
X164187142Y-99877619D01*
X164091904Y-100020476D01*
X164044285Y-100210952D01*
X164044285Y-100591904D01*
X164091904Y-100687142D01*
X164139523Y-100734761D01*
X164234761Y-100782380D01*
X164425238Y-100782380D01*
X164520476Y-100734761D01*
X164568095Y-100687142D01*
X164615714Y-100591904D01*
X164615714Y-100353809D01*
X164568095Y-100258571D01*
X164520476Y-100210952D01*
X164425238Y-100163333D01*
X164234761Y-100163333D01*
X164139523Y-100210952D01*
X164091904Y-100258571D01*
X164044285Y-100353809D01*
X163091904Y-108402380D02*
X163091904Y-107402380D01*
X163330000Y-107402380D01*
X163472857Y-107450000D01*
X163568095Y-107545238D01*
X163615714Y-107640476D01*
X163663333Y-107830952D01*
X163663333Y-107973809D01*
X163615714Y-108164285D01*
X163568095Y-108259523D01*
X163472857Y-108354761D01*
X163330000Y-108402380D01*
X163091904Y-108402380D01*
X163996666Y-107402380D02*
X164663333Y-107402380D01*
X164234761Y-108402380D01*
X174521904Y-98242380D02*
X174521904Y-97242380D01*
X174760000Y-97242380D01*
X174902857Y-97290000D01*
X174998095Y-97385238D01*
X175045714Y-97480476D01*
X175093333Y-97670952D01*
X175093333Y-97813809D01*
X175045714Y-98004285D01*
X174998095Y-98099523D01*
X174902857Y-98194761D01*
X174760000Y-98242380D01*
X174521904Y-98242380D01*
X175664761Y-97670952D02*
X175569523Y-97623333D01*
X175521904Y-97575714D01*
X175474285Y-97480476D01*
X175474285Y-97432857D01*
X175521904Y-97337619D01*
X175569523Y-97290000D01*
X175664761Y-97242380D01*
X175855238Y-97242380D01*
X175950476Y-97290000D01*
X175998095Y-97337619D01*
X176045714Y-97432857D01*
X176045714Y-97480476D01*
X175998095Y-97575714D01*
X175950476Y-97623333D01*
X175855238Y-97670952D01*
X175664761Y-97670952D01*
X175569523Y-97718571D01*
X175521904Y-97766190D01*
X175474285Y-97861428D01*
X175474285Y-98051904D01*
X175521904Y-98147142D01*
X175569523Y-98194761D01*
X175664761Y-98242380D01*
X175855238Y-98242380D01*
X175950476Y-98194761D01*
X175998095Y-98147142D01*
X176045714Y-98051904D01*
X176045714Y-97861428D01*
X175998095Y-97766190D01*
X175950476Y-97718571D01*
X175855238Y-97670952D01*
X157356666Y-74382380D02*
X157356666Y-75096666D01*
X157309047Y-75239523D01*
X157213809Y-75334761D01*
X157070952Y-75382380D01*
X156975714Y-75382380D01*
X157832857Y-75382380D02*
X157832857Y-74382380D01*
X158213809Y-74382380D01*
X158309047Y-74430000D01*
X158356666Y-74477619D01*
X158404285Y-74572857D01*
X158404285Y-74715714D01*
X158356666Y-74810952D01*
X158309047Y-74858571D01*
X158213809Y-74906190D01*
X157832857Y-74906190D01*
X159356666Y-75382380D02*
X158785238Y-75382380D01*
X159070952Y-75382380D02*
X159070952Y-74382380D01*
X158975714Y-74525238D01*
X158880476Y-74620476D01*
X158785238Y-74668095D01*
X157356666Y-78192380D02*
X157356666Y-78906666D01*
X157309047Y-79049523D01*
X157213809Y-79144761D01*
X157070952Y-79192380D01*
X156975714Y-79192380D01*
X157832857Y-79192380D02*
X157832857Y-78192380D01*
X158213809Y-78192380D01*
X158309047Y-78240000D01*
X158356666Y-78287619D01*
X158404285Y-78382857D01*
X158404285Y-78525714D01*
X158356666Y-78620952D01*
X158309047Y-78668571D01*
X158213809Y-78716190D01*
X157832857Y-78716190D01*
X158785238Y-78287619D02*
X158832857Y-78240000D01*
X158928095Y-78192380D01*
X159166190Y-78192380D01*
X159261428Y-78240000D01*
X159309047Y-78287619D01*
X159356666Y-78382857D01*
X159356666Y-78478095D01*
X159309047Y-78620952D01*
X158737619Y-79192380D01*
X159356666Y-79192380D01*
X164266666Y-82002380D02*
X164266666Y-82716666D01*
X164219047Y-82859523D01*
X164123809Y-82954761D01*
X163980952Y-83002380D01*
X163885714Y-83002380D01*
X164742857Y-83002380D02*
X164742857Y-82002380D01*
X165123809Y-82002380D01*
X165219047Y-82050000D01*
X165266666Y-82097619D01*
X165314285Y-82192857D01*
X165314285Y-82335714D01*
X165266666Y-82430952D01*
X165219047Y-82478571D01*
X165123809Y-82526190D01*
X164742857Y-82526190D01*
X165647619Y-82002380D02*
X166266666Y-82002380D01*
X165933333Y-82383333D01*
X166076190Y-82383333D01*
X166171428Y-82430952D01*
X166219047Y-82478571D01*
X166266666Y-82573809D01*
X166266666Y-82811904D01*
X166219047Y-82907142D01*
X166171428Y-82954761D01*
X166076190Y-83002380D01*
X165790476Y-83002380D01*
X165695238Y-82954761D01*
X165647619Y-82907142D01*
X164266666Y-84542380D02*
X164266666Y-85256666D01*
X164219047Y-85399523D01*
X164123809Y-85494761D01*
X163980952Y-85542380D01*
X163885714Y-85542380D01*
X164742857Y-85542380D02*
X164742857Y-84542380D01*
X165123809Y-84542380D01*
X165219047Y-84590000D01*
X165266666Y-84637619D01*
X165314285Y-84732857D01*
X165314285Y-84875714D01*
X165266666Y-84970952D01*
X165219047Y-85018571D01*
X165123809Y-85066190D01*
X164742857Y-85066190D01*
X166171428Y-84875714D02*
X166171428Y-85542380D01*
X165933333Y-84494761D02*
X165695238Y-85209047D01*
X166314285Y-85209047D01*
X151034761Y-107227619D02*
X150939523Y-107180000D01*
X150844285Y-107084761D01*
X150701428Y-106941904D01*
X150606190Y-106894285D01*
X150510952Y-106894285D01*
X150558571Y-107132380D02*
X150463333Y-107084761D01*
X150368095Y-106989523D01*
X150320476Y-106799047D01*
X150320476Y-106465714D01*
X150368095Y-106275238D01*
X150463333Y-106180000D01*
X150558571Y-106132380D01*
X150749047Y-106132380D01*
X150844285Y-106180000D01*
X150939523Y-106275238D01*
X150987142Y-106465714D01*
X150987142Y-106799047D01*
X150939523Y-106989523D01*
X150844285Y-107084761D01*
X150749047Y-107132380D01*
X150558571Y-107132380D01*
X151939523Y-107132380D02*
X151368095Y-107132380D01*
X151653809Y-107132380D02*
X151653809Y-106132380D01*
X151558571Y-106275238D01*
X151463333Y-106370476D01*
X151368095Y-106418095D01*
X161798095Y-94702380D02*
X161798095Y-95511904D01*
X161845714Y-95607142D01*
X161893333Y-95654761D01*
X161988571Y-95702380D01*
X162179047Y-95702380D01*
X162274285Y-95654761D01*
X162321904Y-95607142D01*
X162369523Y-95511904D01*
X162369523Y-94702380D01*
X163369523Y-95702380D02*
X162798095Y-95702380D01*
X163083809Y-95702380D02*
X163083809Y-94702380D01*
X162988571Y-94845238D01*
X162893333Y-94940476D01*
X162798095Y-94988095D01*
X121586666Y-107402380D02*
X121586666Y-108116666D01*
X121539047Y-108259523D01*
X121443809Y-108354761D01*
X121300952Y-108402380D01*
X121205714Y-108402380D01*
X122586666Y-108402380D02*
X122015238Y-108402380D01*
X122300952Y-108402380D02*
X122300952Y-107402380D01*
X122205714Y-107545238D01*
X122110476Y-107640476D01*
X122015238Y-107688095D01*
X175093333Y-103227142D02*
X175045714Y-103274761D01*
X174902857Y-103322380D01*
X174807619Y-103322380D01*
X174664761Y-103274761D01*
X174569523Y-103179523D01*
X174521904Y-103084285D01*
X174474285Y-102893809D01*
X174474285Y-102750952D01*
X174521904Y-102560476D01*
X174569523Y-102465238D01*
X174664761Y-102370000D01*
X174807619Y-102322380D01*
X174902857Y-102322380D01*
X175045714Y-102370000D01*
X175093333Y-102417619D01*
X176045714Y-103322380D02*
X175474285Y-103322380D01*
X175760000Y-103322380D02*
X175760000Y-102322380D01*
X175664761Y-102465238D01*
X175569523Y-102560476D01*
X175474285Y-102608095D01*
X175093333Y-105767142D02*
X175045714Y-105814761D01*
X174902857Y-105862380D01*
X174807619Y-105862380D01*
X174664761Y-105814761D01*
X174569523Y-105719523D01*
X174521904Y-105624285D01*
X174474285Y-105433809D01*
X174474285Y-105290952D01*
X174521904Y-105100476D01*
X174569523Y-105005238D01*
X174664761Y-104910000D01*
X174807619Y-104862380D01*
X174902857Y-104862380D01*
X175045714Y-104910000D01*
X175093333Y-104957619D01*
X175474285Y-104957619D02*
X175521904Y-104910000D01*
X175617142Y-104862380D01*
X175855238Y-104862380D01*
X175950476Y-104910000D01*
X175998095Y-104957619D01*
X176045714Y-105052857D01*
X176045714Y-105148095D01*
X175998095Y-105290952D01*
X175426666Y-105862380D01*
X176045714Y-105862380D01*
X175093333Y-108307142D02*
X175045714Y-108354761D01*
X174902857Y-108402380D01*
X174807619Y-108402380D01*
X174664761Y-108354761D01*
X174569523Y-108259523D01*
X174521904Y-108164285D01*
X174474285Y-107973809D01*
X174474285Y-107830952D01*
X174521904Y-107640476D01*
X174569523Y-107545238D01*
X174664761Y-107450000D01*
X174807619Y-107402380D01*
X174902857Y-107402380D01*
X175045714Y-107450000D01*
X175093333Y-107497619D01*
X175426666Y-107402380D02*
X176045714Y-107402380D01*
X175712380Y-107783333D01*
X175855238Y-107783333D01*
X175950476Y-107830952D01*
X175998095Y-107878571D01*
X176045714Y-107973809D01*
X176045714Y-108211904D01*
X175998095Y-108307142D01*
X175950476Y-108354761D01*
X175855238Y-108402380D01*
X175569523Y-108402380D01*
X175474285Y-108354761D01*
X175426666Y-108307142D01*
X166203333Y-105862380D02*
X165870000Y-105386190D01*
X165631904Y-105862380D02*
X165631904Y-104862380D01*
X166012857Y-104862380D01*
X166108095Y-104910000D01*
X166155714Y-104957619D01*
X166203333Y-105052857D01*
X166203333Y-105195714D01*
X166155714Y-105290952D01*
X166108095Y-105338571D01*
X166012857Y-105386190D01*
X165631904Y-105386190D01*
X167155714Y-105862380D02*
X166584285Y-105862380D01*
X166870000Y-105862380D02*
X166870000Y-104862380D01*
X166774761Y-105005238D01*
X166679523Y-105100476D01*
X166584285Y-105148095D01*
X166203333Y-90622380D02*
X165870000Y-90146190D01*
X165631904Y-90622380D02*
X165631904Y-89622380D01*
X166012857Y-89622380D01*
X166108095Y-89670000D01*
X166155714Y-89717619D01*
X166203333Y-89812857D01*
X166203333Y-89955714D01*
X166155714Y-90050952D01*
X166108095Y-90098571D01*
X166012857Y-90146190D01*
X165631904Y-90146190D01*
X166584285Y-89717619D02*
X166631904Y-89670000D01*
X166727142Y-89622380D01*
X166965238Y-89622380D01*
X167060476Y-89670000D01*
X167108095Y-89717619D01*
X167155714Y-89812857D01*
X167155714Y-89908095D01*
X167108095Y-90050952D01*
X166536666Y-90622380D01*
X167155714Y-90622380D01*
X166203333Y-93162380D02*
X165870000Y-92686190D01*
X165631904Y-93162380D02*
X165631904Y-92162380D01*
X166012857Y-92162380D01*
X166108095Y-92210000D01*
X166155714Y-92257619D01*
X166203333Y-92352857D01*
X166203333Y-92495714D01*
X166155714Y-92590952D01*
X166108095Y-92638571D01*
X166012857Y-92686190D01*
X165631904Y-92686190D01*
X166536666Y-92162380D02*
X167155714Y-92162380D01*
X166822380Y-92543333D01*
X166965238Y-92543333D01*
X167060476Y-92590952D01*
X167108095Y-92638571D01*
X167155714Y-92733809D01*
X167155714Y-92971904D01*
X167108095Y-93067142D01*
X167060476Y-93114761D01*
X166965238Y-93162380D01*
X166679523Y-93162380D01*
X166584285Y-93114761D01*
X166536666Y-93067142D01*
X166203333Y-95702380D02*
X165870000Y-95226190D01*
X165631904Y-95702380D02*
X165631904Y-94702380D01*
X166012857Y-94702380D01*
X166108095Y-94750000D01*
X166155714Y-94797619D01*
X166203333Y-94892857D01*
X166203333Y-95035714D01*
X166155714Y-95130952D01*
X166108095Y-95178571D01*
X166012857Y-95226190D01*
X165631904Y-95226190D01*
X167060476Y-95035714D02*
X167060476Y-95702380D01*
X166822380Y-94654761D02*
X166584285Y-95369047D01*
X167203333Y-95369047D01*
X166203333Y-100782380D02*
X165870000Y-100306190D01*
X165631904Y-100782380D02*
X165631904Y-99782380D01*
X166012857Y-99782380D01*
X166108095Y-99830000D01*
X166155714Y-99877619D01*
X166203333Y-99972857D01*
X166203333Y-100115714D01*
X166155714Y-100210952D01*
X166108095Y-100258571D01*
X166012857Y-100306190D01*
X165631904Y-100306190D01*
X167108095Y-99782380D02*
X166631904Y-99782380D01*
X166584285Y-100258571D01*
X166631904Y-100210952D01*
X166727142Y-100163333D01*
X166965238Y-100163333D01*
X167060476Y-100210952D01*
X167108095Y-100258571D01*
X167155714Y-100353809D01*
X167155714Y-100591904D01*
X167108095Y-100687142D01*
X167060476Y-100734761D01*
X166965238Y-100782380D01*
X166727142Y-100782380D01*
X166631904Y-100734761D01*
X166584285Y-100687142D01*
X166203333Y-103322380D02*
X165870000Y-102846190D01*
X165631904Y-103322380D02*
X165631904Y-102322380D01*
X166012857Y-102322380D01*
X166108095Y-102370000D01*
X166155714Y-102417619D01*
X166203333Y-102512857D01*
X166203333Y-102655714D01*
X166155714Y-102750952D01*
X166108095Y-102798571D01*
X166012857Y-102846190D01*
X165631904Y-102846190D01*
X167060476Y-102322380D02*
X166870000Y-102322380D01*
X166774761Y-102370000D01*
X166727142Y-102417619D01*
X166631904Y-102560476D01*
X166584285Y-102750952D01*
X166584285Y-103131904D01*
X166631904Y-103227142D01*
X166679523Y-103274761D01*
X166774761Y-103322380D01*
X166965238Y-103322380D01*
X167060476Y-103274761D01*
X167108095Y-103227142D01*
X167155714Y-103131904D01*
X167155714Y-102893809D01*
X167108095Y-102798571D01*
X167060476Y-102750952D01*
X166965238Y-102703333D01*
X166774761Y-102703333D01*
X166679523Y-102750952D01*
X166631904Y-102798571D01*
X166584285Y-102893809D01*
X166203333Y-98242380D02*
X165870000Y-97766190D01*
X165631904Y-98242380D02*
X165631904Y-97242380D01*
X166012857Y-97242380D01*
X166108095Y-97290000D01*
X166155714Y-97337619D01*
X166203333Y-97432857D01*
X166203333Y-97575714D01*
X166155714Y-97670952D01*
X166108095Y-97718571D01*
X166012857Y-97766190D01*
X165631904Y-97766190D01*
X166536666Y-97242380D02*
X167203333Y-97242380D01*
X166774761Y-98242380D01*
X117127380Y-69683333D02*
X117841666Y-69683333D01*
X117984523Y-69730952D01*
X118079761Y-69826190D01*
X118127380Y-69969047D01*
X118127380Y-70064285D01*
X117222619Y-69254761D02*
X117175000Y-69207142D01*
X117127380Y-69111904D01*
X117127380Y-68873809D01*
X117175000Y-68778571D01*
X117222619Y-68730952D01*
X117317857Y-68683333D01*
X117413095Y-68683333D01*
X117555952Y-68730952D01*
X118127380Y-69302380D01*
X118127380Y-68683333D01*
X169102380Y-75853333D02*
X169816666Y-75853333D01*
X169959523Y-75900952D01*
X170054761Y-75996190D01*
X170102380Y-76139047D01*
X170102380Y-76234285D01*
X169102380Y-75472380D02*
X169102380Y-74805714D01*
X170102380Y-75234285D01*
X149042380Y-103465238D02*
X148566190Y-103798571D01*
X149042380Y-104036666D02*
X148042380Y-104036666D01*
X148042380Y-103655714D01*
X148090000Y-103560476D01*
X148137619Y-103512857D01*
X148232857Y-103465238D01*
X148375714Y-103465238D01*
X148470952Y-103512857D01*
X148518571Y-103560476D01*
X148566190Y-103655714D01*
X148566190Y-104036666D01*
X148042380Y-103179523D02*
X149042380Y-102846190D01*
X148042380Y-102512857D01*
X149042380Y-101655714D02*
X149042380Y-102227142D01*
X149042380Y-101941428D02*
X148042380Y-101941428D01*
X148185238Y-102036666D01*
X148280476Y-102131904D01*
X148328095Y-102227142D01*
X138882380Y-103608095D02*
X137882380Y-103608095D01*
X137882380Y-103370000D01*
X137930000Y-103227142D01*
X138025238Y-103131904D01*
X138120476Y-103084285D01*
X138310952Y-103036666D01*
X138453809Y-103036666D01*
X138644285Y-103084285D01*
X138739523Y-103131904D01*
X138834761Y-103227142D01*
X138882380Y-103370000D01*
X138882380Y-103608095D01*
X138882380Y-102560476D02*
X138882380Y-102370000D01*
X138834761Y-102274761D01*
X138787142Y-102227142D01*
X138644285Y-102131904D01*
X138453809Y-102084285D01*
X138072857Y-102084285D01*
X137977619Y-102131904D01*
X137930000Y-102179523D01*
X137882380Y-102274761D01*
X137882380Y-102465238D01*
X137930000Y-102560476D01*
X137977619Y-102608095D01*
X138072857Y-102655714D01*
X138310952Y-102655714D01*
X138406190Y-102608095D01*
X138453809Y-102560476D01*
X138501428Y-102465238D01*
X138501428Y-102274761D01*
X138453809Y-102179523D01*
X138406190Y-102131904D01*
X138310952Y-102084285D01*
X143962380Y-103449285D02*
X142962380Y-103449285D01*
X142962380Y-103211190D01*
X143010000Y-103068333D01*
X143105238Y-102973095D01*
X143200476Y-102925476D01*
X143390952Y-102877857D01*
X143533809Y-102877857D01*
X143724285Y-102925476D01*
X143819523Y-102973095D01*
X143914761Y-103068333D01*
X143962380Y-103211190D01*
X143962380Y-103449285D01*
X143962380Y-101925476D02*
X143962380Y-102496904D01*
X143962380Y-102211190D02*
X142962380Y-102211190D01*
X143105238Y-102306428D01*
X143200476Y-102401666D01*
X143248095Y-102496904D01*
X142962380Y-101306428D02*
X142962380Y-101211190D01*
X143010000Y-101115952D01*
X143057619Y-101068333D01*
X143152857Y-101020714D01*
X143343333Y-100973095D01*
X143581428Y-100973095D01*
X143771904Y-101020714D01*
X143867142Y-101068333D01*
X143914761Y-101115952D01*
X143962380Y-101211190D01*
X143962380Y-101306428D01*
X143914761Y-101401666D01*
X143867142Y-101449285D01*
X143771904Y-101496904D01*
X143581428Y-101544523D01*
X143343333Y-101544523D01*
X143152857Y-101496904D01*
X143057619Y-101449285D01*
X143010000Y-101401666D01*
X142962380Y-101306428D01*
X136342380Y-103036666D02*
X135866190Y-103370000D01*
X136342380Y-103608095D02*
X135342380Y-103608095D01*
X135342380Y-103227142D01*
X135390000Y-103131904D01*
X135437619Y-103084285D01*
X135532857Y-103036666D01*
X135675714Y-103036666D01*
X135770952Y-103084285D01*
X135818571Y-103131904D01*
X135866190Y-103227142D01*
X135866190Y-103608095D01*
X135770952Y-102465238D02*
X135723333Y-102560476D01*
X135675714Y-102608095D01*
X135580476Y-102655714D01*
X135532857Y-102655714D01*
X135437619Y-102608095D01*
X135390000Y-102560476D01*
X135342380Y-102465238D01*
X135342380Y-102274761D01*
X135390000Y-102179523D01*
X135437619Y-102131904D01*
X135532857Y-102084285D01*
X135580476Y-102084285D01*
X135675714Y-102131904D01*
X135723333Y-102179523D01*
X135770952Y-102274761D01*
X135770952Y-102465238D01*
X135818571Y-102560476D01*
X135866190Y-102608095D01*
X135961428Y-102655714D01*
X136151904Y-102655714D01*
X136247142Y-102608095D01*
X136294761Y-102560476D01*
X136342380Y-102465238D01*
X136342380Y-102274761D01*
X136294761Y-102179523D01*
X136247142Y-102131904D01*
X136151904Y-102084285D01*
X135961428Y-102084285D01*
X135866190Y-102131904D01*
X135818571Y-102179523D01*
X135770952Y-102274761D01*
X141422380Y-103036666D02*
X140946190Y-103370000D01*
X141422380Y-103608095D02*
X140422380Y-103608095D01*
X140422380Y-103227142D01*
X140470000Y-103131904D01*
X140517619Y-103084285D01*
X140612857Y-103036666D01*
X140755714Y-103036666D01*
X140850952Y-103084285D01*
X140898571Y-103131904D01*
X140946190Y-103227142D01*
X140946190Y-103608095D01*
X141422380Y-102560476D02*
X141422380Y-102370000D01*
X141374761Y-102274761D01*
X141327142Y-102227142D01*
X141184285Y-102131904D01*
X140993809Y-102084285D01*
X140612857Y-102084285D01*
X140517619Y-102131904D01*
X140470000Y-102179523D01*
X140422380Y-102274761D01*
X140422380Y-102465238D01*
X140470000Y-102560476D01*
X140517619Y-102608095D01*
X140612857Y-102655714D01*
X140850952Y-102655714D01*
X140946190Y-102608095D01*
X140993809Y-102560476D01*
X141041428Y-102465238D01*
X141041428Y-102274761D01*
X140993809Y-102179523D01*
X140946190Y-102131904D01*
X140850952Y-102084285D01*
X133651666Y-113117380D02*
X133651666Y-113831666D01*
X133604047Y-113974523D01*
X133508809Y-114069761D01*
X133365952Y-114117380D01*
X133270714Y-114117380D01*
X134032619Y-113117380D02*
X134651666Y-113117380D01*
X134318333Y-113498333D01*
X134461190Y-113498333D01*
X134556428Y-113545952D01*
X134604047Y-113593571D01*
X134651666Y-113688809D01*
X134651666Y-113926904D01*
X134604047Y-114022142D01*
X134556428Y-114069761D01*
X134461190Y-114117380D01*
X134175476Y-114117380D01*
X134080238Y-114069761D01*
X134032619Y-114022142D01*
X158416666Y-113117380D02*
X158416666Y-113831666D01*
X158369047Y-113974523D01*
X158273809Y-114069761D01*
X158130952Y-114117380D01*
X158035714Y-114117380D01*
X159369047Y-113117380D02*
X158892857Y-113117380D01*
X158845238Y-113593571D01*
X158892857Y-113545952D01*
X158988095Y-113498333D01*
X159226190Y-113498333D01*
X159321428Y-113545952D01*
X159369047Y-113593571D01*
X159416666Y-113688809D01*
X159416666Y-113926904D01*
X159369047Y-114022142D01*
X159321428Y-114069761D01*
X159226190Y-114117380D01*
X158988095Y-114117380D01*
X158892857Y-114069761D01*
X158845238Y-114022142D01*
X165401666Y-113117380D02*
X165401666Y-113831666D01*
X165354047Y-113974523D01*
X165258809Y-114069761D01*
X165115952Y-114117380D01*
X165020714Y-114117380D01*
X166306428Y-113117380D02*
X166115952Y-113117380D01*
X166020714Y-113165000D01*
X165973095Y-113212619D01*
X165877857Y-113355476D01*
X165830238Y-113545952D01*
X165830238Y-113926904D01*
X165877857Y-114022142D01*
X165925476Y-114069761D01*
X166020714Y-114117380D01*
X166211190Y-114117380D01*
X166306428Y-114069761D01*
X166354047Y-114022142D01*
X166401666Y-113926904D01*
X166401666Y-113688809D01*
X166354047Y-113593571D01*
X166306428Y-113545952D01*
X166211190Y-113498333D01*
X166020714Y-113498333D01*
X165925476Y-113545952D01*
X165877857Y-113593571D01*
X165830238Y-113688809D01*
M02*
