M48
; DRILL file {KiCad (5.1.10-1-10_14)} date Sunday, April 10, 2022 at 07:47:45 PM
; FORMAT={-:-/ absolute / inch / decimal}
; #@! TF.CreationDate,2022-04-10T19:47:45-06:00
; #@! TF.GenerationSoftware,Kicad,Pcbnew,(5.1.10-1-10_14)
FMAT,2
INCH
T1C0.0157
T2C0.0315
T3C0.0394
T4C0.0433
T5C0.0512
T6C0.0402
T7C0.0433
T8C0.0709
T9C0.1083
T10C0.1181
%
G90
G05
T1
X4.7303Y-2.8346
X4.75Y-4.3
X4.75Y-4.35
X4.75Y-4.4
X4.8Y-4.3
X4.8Y-4.35
X4.8Y-4.4
X4.85Y-4.3
X4.85Y-4.35
X4.85Y-4.4
X4.9303Y-2.6181
X4.9817Y-2.8659
X5.0785Y-2.85
X5.1303Y-2.8346
X5.3303Y-2.6181
X5.35Y-4.25
X5.375Y-4.3
X5.475Y-4.3
X5.5303Y-2.8346
X5.55Y-4.25
X5.5748Y-2.854
X5.6303Y-2.6181
X5.8Y-3.1
X5.85Y-3.0
X5.85Y-3.35
X5.9303Y-2.8346
X5.95Y-3.311
X5.95Y-3.4
X5.95Y-3.5
X5.95Y-3.5866
X5.95Y-4.25
X5.95Y-4.3
X6.0Y-4.25
X6.0Y-4.3
X6.05Y-3.05
X6.05Y-3.311
X6.05Y-3.4
X6.05Y-3.5
X6.05Y-3.5866
X6.1303Y-2.6181
X6.15Y-3.311
X6.15Y-3.4
X6.15Y-3.5
X6.15Y-3.5866
X6.2Y-4.4
X6.25Y-3.311
X6.25Y-3.4
X6.25Y-3.5
X6.25Y-3.5866
X6.3Y-3.1
X6.3Y-3.65
X6.3Y-3.75
X6.3303Y-2.6181
X6.475Y-4.4
X6.6Y-3.55
X6.6Y-3.65
X6.6Y-3.75
X6.6Y-3.85
X6.6Y-3.95
X6.6303Y-2.8346
X6.65Y-3.9
X6.65Y-4.25
X6.7Y-3.55
X6.7Y-4.15
X6.85Y-4.05
X6.85Y-4.15
X6.85Y-4.25
T2
X5.75Y-3.85
X5.75Y-4.05
X5.85Y-3.95
T3
X6.7709Y-2.9232
X6.7709Y-3.0232
X6.8709Y-2.9232
X6.8709Y-3.0232
T4
X5.075Y-4.55
X5.175Y-4.55
X5.275Y-4.55
X5.375Y-4.55
X5.475Y-4.55
X6.0Y-3.9
X6.1Y-3.9
X6.2Y-4.55
X6.3Y-4.55
X6.475Y-4.55
X6.575Y-4.55
T5
X4.65Y-4.15
X4.65Y-4.35
T6
X4.7301Y-2.6803
X4.7301Y-2.7803
X4.8301Y-2.6803
X4.8301Y-2.7803
X4.9301Y-2.6803
X4.9301Y-2.7803
X5.0301Y-2.6803
X5.0301Y-2.7803
X5.1301Y-2.6803
X5.1301Y-2.7803
X5.2301Y-2.6803
X5.2301Y-2.7803
X5.3301Y-2.6803
X5.3301Y-2.7803
X5.4301Y-2.6803
X5.4301Y-2.7803
X5.5301Y-2.6803
X5.5301Y-2.7803
X5.6301Y-2.6803
X5.6301Y-2.7803
X5.7301Y-2.6803
X5.7301Y-2.7803
X5.8301Y-2.6803
X5.8301Y-2.7803
X5.9301Y-2.6803
X5.9301Y-2.7803
X6.0301Y-2.6803
X6.0301Y-2.7803
X6.1301Y-2.6803
X6.1301Y-2.7803
X6.2301Y-2.6803
X6.2301Y-2.7803
X6.3301Y-2.6803
X6.3301Y-2.7803
X6.4301Y-2.6803
X6.4301Y-2.7803
X6.5301Y-2.6803
X6.5301Y-2.7803
X6.6301Y-2.6803
X6.6301Y-2.7803
T7
X6.0Y-4.0
X6.1Y-4.0
X6.2Y-4.65
X6.3Y-4.65
X6.475Y-4.65
X6.575Y-4.65
T8
X4.7801Y-2.7303
X6.5801Y-2.7303
T9
X4.5378Y-2.7325
X4.5378Y-4.6616
X6.8213Y-2.7325
X6.8213Y-4.6616
T10
X4.75Y-3.05
X4.75Y-3.8374
X5.5374Y-3.05
X5.5374Y-3.8374
T0
M30
