G04 #@! TF.GenerationSoftware,KiCad,Pcbnew,(5.1.10-1-10_14)*
G04 #@! TF.CreationDate,2022-04-10T19:47:37-06:00*
G04 #@! TF.ProjectId,RPiG3iMac,52506947-3369-44d6-9163-2e6b69636164,1.2*
G04 #@! TF.SameCoordinates,Original*
G04 #@! TF.FileFunction,Copper,L1,Top*
G04 #@! TF.FilePolarity,Positive*
%FSLAX46Y46*%
G04 Gerber Fmt 4.6, Leading zero omitted, Abs format (unit mm)*
G04 Created by KiCad (PCBNEW (5.1.10-1-10_14)) date 2022-04-10 19:47:37*
%MOMM*%
%LPD*%
G01*
G04 APERTURE LIST*
G04 #@! TA.AperFunction,ComponentPad*
%ADD10R,2.200000X2.200000*%
G04 #@! TD*
G04 #@! TA.AperFunction,ComponentPad*
%ADD11C,2.200000*%
G04 #@! TD*
G04 #@! TA.AperFunction,SMDPad,CuDef*
%ADD12R,2.500000X2.300000*%
G04 #@! TD*
G04 #@! TA.AperFunction,SMDPad,CuDef*
%ADD13R,0.900000X1.200000*%
G04 #@! TD*
G04 #@! TA.AperFunction,SMDPad,CuDef*
%ADD14C,0.100000*%
G04 #@! TD*
G04 #@! TA.AperFunction,SMDPad,CuDef*
%ADD15R,0.900000X0.800000*%
G04 #@! TD*
G04 #@! TA.AperFunction,SMDPad,CuDef*
%ADD16R,1.060000X1.060000*%
G04 #@! TD*
G04 #@! TA.AperFunction,ComponentPad*
%ADD17R,2.600000X2.600000*%
G04 #@! TD*
G04 #@! TA.AperFunction,ComponentPad*
%ADD18C,2.600000*%
G04 #@! TD*
G04 #@! TA.AperFunction,SMDPad,CuDef*
%ADD19R,1.020000X1.780000*%
G04 #@! TD*
G04 #@! TA.AperFunction,ComponentPad*
%ADD20R,1.700000X1.700000*%
G04 #@! TD*
G04 #@! TA.AperFunction,ComponentPad*
%ADD21O,1.700000X1.700000*%
G04 #@! TD*
G04 #@! TA.AperFunction,ComponentPad*
%ADD22C,1.440000*%
G04 #@! TD*
G04 #@! TA.AperFunction,ViaPad*
%ADD23C,0.600000*%
G04 #@! TD*
G04 #@! TA.AperFunction,Conductor*
%ADD24C,0.250000*%
G04 #@! TD*
G04 #@! TA.AperFunction,Conductor*
%ADD25C,2.000000*%
G04 #@! TD*
G04 #@! TA.AperFunction,Conductor*
%ADD26C,1.000000*%
G04 #@! TD*
G04 APERTURE END LIST*
D10*
X152400000Y-99060000D03*
D11*
X154940000Y-99060000D03*
D12*
X130420000Y-105410000D03*
X126120000Y-105410000D03*
G04 #@! TA.AperFunction,SMDPad,CuDef*
G36*
G01*
X171495000Y-92966250D02*
X171495000Y-92453750D01*
G75*
G02*
X171713750Y-92235000I218750J0D01*
G01*
X172151250Y-92235000D01*
G75*
G02*
X172370000Y-92453750I0J-218750D01*
G01*
X172370000Y-92966250D01*
G75*
G02*
X172151250Y-93185000I-218750J0D01*
G01*
X171713750Y-93185000D01*
G75*
G02*
X171495000Y-92966250I0J218750D01*
G01*
G37*
G04 #@! TD.AperFunction*
G04 #@! TA.AperFunction,SMDPad,CuDef*
G36*
G01*
X173070000Y-92966250D02*
X173070000Y-92453750D01*
G75*
G02*
X173288750Y-92235000I218750J0D01*
G01*
X173726250Y-92235000D01*
G75*
G02*
X173945000Y-92453750I0J-218750D01*
G01*
X173945000Y-92966250D01*
G75*
G02*
X173726250Y-93185000I-218750J0D01*
G01*
X173288750Y-93185000D01*
G75*
G02*
X173070000Y-92966250I0J218750D01*
G01*
G37*
G04 #@! TD.AperFunction*
G04 #@! TA.AperFunction,SMDPad,CuDef*
G36*
G01*
X173070000Y-95506250D02*
X173070000Y-94993750D01*
G75*
G02*
X173288750Y-94775000I218750J0D01*
G01*
X173726250Y-94775000D01*
G75*
G02*
X173945000Y-94993750I0J-218750D01*
G01*
X173945000Y-95506250D01*
G75*
G02*
X173726250Y-95725000I-218750J0D01*
G01*
X173288750Y-95725000D01*
G75*
G02*
X173070000Y-95506250I0J218750D01*
G01*
G37*
G04 #@! TD.AperFunction*
G04 #@! TA.AperFunction,SMDPad,CuDef*
G36*
G01*
X171495000Y-95506250D02*
X171495000Y-94993750D01*
G75*
G02*
X171713750Y-94775000I218750J0D01*
G01*
X172151250Y-94775000D01*
G75*
G02*
X172370000Y-94993750I0J-218750D01*
G01*
X172370000Y-95506250D01*
G75*
G02*
X172151250Y-95725000I-218750J0D01*
G01*
X171713750Y-95725000D01*
G75*
G02*
X171495000Y-95506250I0J218750D01*
G01*
G37*
G04 #@! TD.AperFunction*
G04 #@! TA.AperFunction,SMDPad,CuDef*
G36*
G01*
X173070000Y-100586250D02*
X173070000Y-100073750D01*
G75*
G02*
X173288750Y-99855000I218750J0D01*
G01*
X173726250Y-99855000D01*
G75*
G02*
X173945000Y-100073750I0J-218750D01*
G01*
X173945000Y-100586250D01*
G75*
G02*
X173726250Y-100805000I-218750J0D01*
G01*
X173288750Y-100805000D01*
G75*
G02*
X173070000Y-100586250I0J218750D01*
G01*
G37*
G04 #@! TD.AperFunction*
G04 #@! TA.AperFunction,SMDPad,CuDef*
G36*
G01*
X171495000Y-100586250D02*
X171495000Y-100073750D01*
G75*
G02*
X171713750Y-99855000I218750J0D01*
G01*
X172151250Y-99855000D01*
G75*
G02*
X172370000Y-100073750I0J-218750D01*
G01*
X172370000Y-100586250D01*
G75*
G02*
X172151250Y-100805000I-218750J0D01*
G01*
X171713750Y-100805000D01*
G75*
G02*
X171495000Y-100586250I0J218750D01*
G01*
G37*
G04 #@! TD.AperFunction*
D13*
X158370000Y-104140000D03*
X161670000Y-104140000D03*
X161670000Y-100330000D03*
X158370000Y-100330000D03*
X158370000Y-107950000D03*
X161670000Y-107950000D03*
G04 #@! TA.AperFunction,SMDPad,CuDef*
G36*
G01*
X171495000Y-98046250D02*
X171495000Y-97533750D01*
G75*
G02*
X171713750Y-97315000I218750J0D01*
G01*
X172151250Y-97315000D01*
G75*
G02*
X172370000Y-97533750I0J-218750D01*
G01*
X172370000Y-98046250D01*
G75*
G02*
X172151250Y-98265000I-218750J0D01*
G01*
X171713750Y-98265000D01*
G75*
G02*
X171495000Y-98046250I0J218750D01*
G01*
G37*
G04 #@! TD.AperFunction*
G04 #@! TA.AperFunction,SMDPad,CuDef*
G36*
G01*
X173070000Y-98046250D02*
X173070000Y-97533750D01*
G75*
G02*
X173288750Y-97315000I218750J0D01*
G01*
X173726250Y-97315000D01*
G75*
G02*
X173945000Y-97533750I0J-218750D01*
G01*
X173945000Y-98046250D01*
G75*
G02*
X173726250Y-98265000I-218750J0D01*
G01*
X173288750Y-98265000D01*
G75*
G02*
X173070000Y-98046250I0J218750D01*
G01*
G37*
G04 #@! TD.AperFunction*
G04 #@! TA.AperFunction,SMDPad,CuDef*
D14*
G36*
X162150000Y-74180000D02*
G01*
X162650000Y-74180000D01*
X162650000Y-74180602D01*
X162674534Y-74180602D01*
X162723365Y-74185412D01*
X162771490Y-74194984D01*
X162818445Y-74209228D01*
X162863778Y-74228005D01*
X162907051Y-74251136D01*
X162947850Y-74278396D01*
X162985779Y-74309524D01*
X163020476Y-74344221D01*
X163051604Y-74382150D01*
X163078864Y-74422949D01*
X163101995Y-74466222D01*
X163120772Y-74511555D01*
X163135016Y-74558510D01*
X163144588Y-74606635D01*
X163149398Y-74655466D01*
X163149398Y-74680000D01*
X163150000Y-74680000D01*
X163150000Y-75180000D01*
X163149398Y-75180000D01*
X163149398Y-75204534D01*
X163144588Y-75253365D01*
X163135016Y-75301490D01*
X163120772Y-75348445D01*
X163101995Y-75393778D01*
X163078864Y-75437051D01*
X163051604Y-75477850D01*
X163020476Y-75515779D01*
X162985779Y-75550476D01*
X162947850Y-75581604D01*
X162907051Y-75608864D01*
X162863778Y-75631995D01*
X162818445Y-75650772D01*
X162771490Y-75665016D01*
X162723365Y-75674588D01*
X162674534Y-75679398D01*
X162650000Y-75679398D01*
X162650000Y-75680000D01*
X162150000Y-75680000D01*
X162150000Y-74180000D01*
G37*
G04 #@! TD.AperFunction*
G04 #@! TA.AperFunction,SMDPad,CuDef*
G36*
X161350000Y-75679398D02*
G01*
X161325466Y-75679398D01*
X161276635Y-75674588D01*
X161228510Y-75665016D01*
X161181555Y-75650772D01*
X161136222Y-75631995D01*
X161092949Y-75608864D01*
X161052150Y-75581604D01*
X161014221Y-75550476D01*
X160979524Y-75515779D01*
X160948396Y-75477850D01*
X160921136Y-75437051D01*
X160898005Y-75393778D01*
X160879228Y-75348445D01*
X160864984Y-75301490D01*
X160855412Y-75253365D01*
X160850602Y-75204534D01*
X160850602Y-75180000D01*
X160850000Y-75180000D01*
X160850000Y-74680000D01*
X160850602Y-74680000D01*
X160850602Y-74655466D01*
X160855412Y-74606635D01*
X160864984Y-74558510D01*
X160879228Y-74511555D01*
X160898005Y-74466222D01*
X160921136Y-74422949D01*
X160948396Y-74382150D01*
X160979524Y-74344221D01*
X161014221Y-74309524D01*
X161052150Y-74278396D01*
X161092949Y-74251136D01*
X161136222Y-74228005D01*
X161181555Y-74209228D01*
X161228510Y-74194984D01*
X161276635Y-74185412D01*
X161325466Y-74180602D01*
X161350000Y-74180602D01*
X161350000Y-74180000D01*
X161850000Y-74180000D01*
X161850000Y-75680000D01*
X161350000Y-75680000D01*
X161350000Y-75679398D01*
G37*
G04 #@! TD.AperFunction*
G04 #@! TA.AperFunction,SMDPad,CuDef*
G36*
X161350000Y-79489398D02*
G01*
X161325466Y-79489398D01*
X161276635Y-79484588D01*
X161228510Y-79475016D01*
X161181555Y-79460772D01*
X161136222Y-79441995D01*
X161092949Y-79418864D01*
X161052150Y-79391604D01*
X161014221Y-79360476D01*
X160979524Y-79325779D01*
X160948396Y-79287850D01*
X160921136Y-79247051D01*
X160898005Y-79203778D01*
X160879228Y-79158445D01*
X160864984Y-79111490D01*
X160855412Y-79063365D01*
X160850602Y-79014534D01*
X160850602Y-78990000D01*
X160850000Y-78990000D01*
X160850000Y-78490000D01*
X160850602Y-78490000D01*
X160850602Y-78465466D01*
X160855412Y-78416635D01*
X160864984Y-78368510D01*
X160879228Y-78321555D01*
X160898005Y-78276222D01*
X160921136Y-78232949D01*
X160948396Y-78192150D01*
X160979524Y-78154221D01*
X161014221Y-78119524D01*
X161052150Y-78088396D01*
X161092949Y-78061136D01*
X161136222Y-78038005D01*
X161181555Y-78019228D01*
X161228510Y-78004984D01*
X161276635Y-77995412D01*
X161325466Y-77990602D01*
X161350000Y-77990602D01*
X161350000Y-77990000D01*
X161850000Y-77990000D01*
X161850000Y-79490000D01*
X161350000Y-79490000D01*
X161350000Y-79489398D01*
G37*
G04 #@! TD.AperFunction*
G04 #@! TA.AperFunction,SMDPad,CuDef*
G36*
X162150000Y-77990000D02*
G01*
X162650000Y-77990000D01*
X162650000Y-77990602D01*
X162674534Y-77990602D01*
X162723365Y-77995412D01*
X162771490Y-78004984D01*
X162818445Y-78019228D01*
X162863778Y-78038005D01*
X162907051Y-78061136D01*
X162947850Y-78088396D01*
X162985779Y-78119524D01*
X163020476Y-78154221D01*
X163051604Y-78192150D01*
X163078864Y-78232949D01*
X163101995Y-78276222D01*
X163120772Y-78321555D01*
X163135016Y-78368510D01*
X163144588Y-78416635D01*
X163149398Y-78465466D01*
X163149398Y-78490000D01*
X163150000Y-78490000D01*
X163150000Y-78990000D01*
X163149398Y-78990000D01*
X163149398Y-79014534D01*
X163144588Y-79063365D01*
X163135016Y-79111490D01*
X163120772Y-79158445D01*
X163101995Y-79203778D01*
X163078864Y-79247051D01*
X163051604Y-79287850D01*
X163020476Y-79325779D01*
X162985779Y-79360476D01*
X162947850Y-79391604D01*
X162907051Y-79418864D01*
X162863778Y-79441995D01*
X162818445Y-79460772D01*
X162771490Y-79475016D01*
X162723365Y-79484588D01*
X162674534Y-79489398D01*
X162650000Y-79489398D01*
X162650000Y-79490000D01*
X162150000Y-79490000D01*
X162150000Y-77990000D01*
G37*
G04 #@! TD.AperFunction*
G04 #@! TA.AperFunction,SMDPad,CuDef*
G36*
X169560000Y-81800602D02*
G01*
X169584534Y-81800602D01*
X169633365Y-81805412D01*
X169681490Y-81814984D01*
X169728445Y-81829228D01*
X169773778Y-81848005D01*
X169817051Y-81871136D01*
X169857850Y-81898396D01*
X169895779Y-81929524D01*
X169930476Y-81964221D01*
X169961604Y-82002150D01*
X169988864Y-82042949D01*
X170011995Y-82086222D01*
X170030772Y-82131555D01*
X170045016Y-82178510D01*
X170054588Y-82226635D01*
X170059398Y-82275466D01*
X170059398Y-82300000D01*
X170060000Y-82300000D01*
X170060000Y-82800000D01*
X170059398Y-82800000D01*
X170059398Y-82824534D01*
X170054588Y-82873365D01*
X170045016Y-82921490D01*
X170030772Y-82968445D01*
X170011995Y-83013778D01*
X169988864Y-83057051D01*
X169961604Y-83097850D01*
X169930476Y-83135779D01*
X169895779Y-83170476D01*
X169857850Y-83201604D01*
X169817051Y-83228864D01*
X169773778Y-83251995D01*
X169728445Y-83270772D01*
X169681490Y-83285016D01*
X169633365Y-83294588D01*
X169584534Y-83299398D01*
X169560000Y-83299398D01*
X169560000Y-83300000D01*
X169060000Y-83300000D01*
X169060000Y-81800000D01*
X169560000Y-81800000D01*
X169560000Y-81800602D01*
G37*
G04 #@! TD.AperFunction*
G04 #@! TA.AperFunction,SMDPad,CuDef*
G36*
X168760000Y-83300000D02*
G01*
X168260000Y-83300000D01*
X168260000Y-83299398D01*
X168235466Y-83299398D01*
X168186635Y-83294588D01*
X168138510Y-83285016D01*
X168091555Y-83270772D01*
X168046222Y-83251995D01*
X168002949Y-83228864D01*
X167962150Y-83201604D01*
X167924221Y-83170476D01*
X167889524Y-83135779D01*
X167858396Y-83097850D01*
X167831136Y-83057051D01*
X167808005Y-83013778D01*
X167789228Y-82968445D01*
X167774984Y-82921490D01*
X167765412Y-82873365D01*
X167760602Y-82824534D01*
X167760602Y-82800000D01*
X167760000Y-82800000D01*
X167760000Y-82300000D01*
X167760602Y-82300000D01*
X167760602Y-82275466D01*
X167765412Y-82226635D01*
X167774984Y-82178510D01*
X167789228Y-82131555D01*
X167808005Y-82086222D01*
X167831136Y-82042949D01*
X167858396Y-82002150D01*
X167889524Y-81964221D01*
X167924221Y-81929524D01*
X167962150Y-81898396D01*
X168002949Y-81871136D01*
X168046222Y-81848005D01*
X168091555Y-81829228D01*
X168138510Y-81814984D01*
X168186635Y-81805412D01*
X168235466Y-81800602D01*
X168260000Y-81800602D01*
X168260000Y-81800000D01*
X168760000Y-81800000D01*
X168760000Y-83300000D01*
G37*
G04 #@! TD.AperFunction*
G04 #@! TA.AperFunction,SMDPad,CuDef*
G36*
X168760000Y-85840000D02*
G01*
X168260000Y-85840000D01*
X168260000Y-85839398D01*
X168235466Y-85839398D01*
X168186635Y-85834588D01*
X168138510Y-85825016D01*
X168091555Y-85810772D01*
X168046222Y-85791995D01*
X168002949Y-85768864D01*
X167962150Y-85741604D01*
X167924221Y-85710476D01*
X167889524Y-85675779D01*
X167858396Y-85637850D01*
X167831136Y-85597051D01*
X167808005Y-85553778D01*
X167789228Y-85508445D01*
X167774984Y-85461490D01*
X167765412Y-85413365D01*
X167760602Y-85364534D01*
X167760602Y-85340000D01*
X167760000Y-85340000D01*
X167760000Y-84840000D01*
X167760602Y-84840000D01*
X167760602Y-84815466D01*
X167765412Y-84766635D01*
X167774984Y-84718510D01*
X167789228Y-84671555D01*
X167808005Y-84626222D01*
X167831136Y-84582949D01*
X167858396Y-84542150D01*
X167889524Y-84504221D01*
X167924221Y-84469524D01*
X167962150Y-84438396D01*
X168002949Y-84411136D01*
X168046222Y-84388005D01*
X168091555Y-84369228D01*
X168138510Y-84354984D01*
X168186635Y-84345412D01*
X168235466Y-84340602D01*
X168260000Y-84340602D01*
X168260000Y-84340000D01*
X168760000Y-84340000D01*
X168760000Y-85840000D01*
G37*
G04 #@! TD.AperFunction*
G04 #@! TA.AperFunction,SMDPad,CuDef*
G36*
X169560000Y-84340602D02*
G01*
X169584534Y-84340602D01*
X169633365Y-84345412D01*
X169681490Y-84354984D01*
X169728445Y-84369228D01*
X169773778Y-84388005D01*
X169817051Y-84411136D01*
X169857850Y-84438396D01*
X169895779Y-84469524D01*
X169930476Y-84504221D01*
X169961604Y-84542150D01*
X169988864Y-84582949D01*
X170011995Y-84626222D01*
X170030772Y-84671555D01*
X170045016Y-84718510D01*
X170054588Y-84766635D01*
X170059398Y-84815466D01*
X170059398Y-84840000D01*
X170060000Y-84840000D01*
X170060000Y-85340000D01*
X170059398Y-85340000D01*
X170059398Y-85364534D01*
X170054588Y-85413365D01*
X170045016Y-85461490D01*
X170030772Y-85508445D01*
X170011995Y-85553778D01*
X169988864Y-85597051D01*
X169961604Y-85637850D01*
X169930476Y-85675779D01*
X169895779Y-85710476D01*
X169857850Y-85741604D01*
X169817051Y-85768864D01*
X169773778Y-85791995D01*
X169728445Y-85810772D01*
X169681490Y-85825016D01*
X169633365Y-85834588D01*
X169584534Y-85839398D01*
X169560000Y-85839398D01*
X169560000Y-85840000D01*
X169060000Y-85840000D01*
X169060000Y-84340000D01*
X169560000Y-84340000D01*
X169560000Y-84340602D01*
G37*
G04 #@! TD.AperFunction*
D15*
X152670000Y-105730000D03*
X152670000Y-107630000D03*
X154670000Y-106680000D03*
D16*
X159520000Y-92210000D03*
X159520000Y-89920000D03*
X159520000Y-87630000D03*
X159520000Y-85340000D03*
X159520000Y-83050000D03*
X157230000Y-92210000D03*
X157230000Y-89920000D03*
X157230000Y-87630000D03*
X157230000Y-85340000D03*
X157230000Y-83050000D03*
X154940000Y-92210000D03*
X154940000Y-89920000D03*
X154940000Y-87630000D03*
X154940000Y-85340000D03*
X154940000Y-83050000D03*
X152650000Y-92210000D03*
X152650000Y-89920000D03*
X152650000Y-87630000D03*
X152650000Y-85340000D03*
X152650000Y-83050000D03*
X150360000Y-92210000D03*
X150360000Y-89920000D03*
X150360000Y-87630000D03*
X150360000Y-85340000D03*
X150360000Y-83050000D03*
D17*
X118110000Y-105410000D03*
D18*
X118110000Y-110490000D03*
G04 #@! TA.AperFunction,SMDPad,CuDef*
G36*
G01*
X171495000Y-103120000D02*
X171495000Y-102620000D01*
G75*
G02*
X171720000Y-102395000I225000J0D01*
G01*
X172170000Y-102395000D01*
G75*
G02*
X172395000Y-102620000I0J-225000D01*
G01*
X172395000Y-103120000D01*
G75*
G02*
X172170000Y-103345000I-225000J0D01*
G01*
X171720000Y-103345000D01*
G75*
G02*
X171495000Y-103120000I0J225000D01*
G01*
G37*
G04 #@! TD.AperFunction*
G04 #@! TA.AperFunction,SMDPad,CuDef*
G36*
G01*
X173045000Y-103120000D02*
X173045000Y-102620000D01*
G75*
G02*
X173270000Y-102395000I225000J0D01*
G01*
X173720000Y-102395000D01*
G75*
G02*
X173945000Y-102620000I0J-225000D01*
G01*
X173945000Y-103120000D01*
G75*
G02*
X173720000Y-103345000I-225000J0D01*
G01*
X173270000Y-103345000D01*
G75*
G02*
X173045000Y-103120000I0J225000D01*
G01*
G37*
G04 #@! TD.AperFunction*
G04 #@! TA.AperFunction,SMDPad,CuDef*
G36*
G01*
X173045000Y-105660000D02*
X173045000Y-105160000D01*
G75*
G02*
X173270000Y-104935000I225000J0D01*
G01*
X173720000Y-104935000D01*
G75*
G02*
X173945000Y-105160000I0J-225000D01*
G01*
X173945000Y-105660000D01*
G75*
G02*
X173720000Y-105885000I-225000J0D01*
G01*
X173270000Y-105885000D01*
G75*
G02*
X173045000Y-105660000I0J225000D01*
G01*
G37*
G04 #@! TD.AperFunction*
G04 #@! TA.AperFunction,SMDPad,CuDef*
G36*
G01*
X171495000Y-105660000D02*
X171495000Y-105160000D01*
G75*
G02*
X171720000Y-104935000I225000J0D01*
G01*
X172170000Y-104935000D01*
G75*
G02*
X172395000Y-105160000I0J-225000D01*
G01*
X172395000Y-105660000D01*
G75*
G02*
X172170000Y-105885000I-225000J0D01*
G01*
X171720000Y-105885000D01*
G75*
G02*
X171495000Y-105660000I0J225000D01*
G01*
G37*
G04 #@! TD.AperFunction*
G04 #@! TA.AperFunction,SMDPad,CuDef*
G36*
G01*
X171495000Y-108200000D02*
X171495000Y-107700000D01*
G75*
G02*
X171720000Y-107475000I225000J0D01*
G01*
X172170000Y-107475000D01*
G75*
G02*
X172395000Y-107700000I0J-225000D01*
G01*
X172395000Y-108200000D01*
G75*
G02*
X172170000Y-108425000I-225000J0D01*
G01*
X171720000Y-108425000D01*
G75*
G02*
X171495000Y-108200000I0J225000D01*
G01*
G37*
G04 #@! TD.AperFunction*
G04 #@! TA.AperFunction,SMDPad,CuDef*
G36*
G01*
X173045000Y-108200000D02*
X173045000Y-107700000D01*
G75*
G02*
X173270000Y-107475000I225000J0D01*
G01*
X173720000Y-107475000D01*
G75*
G02*
X173945000Y-107700000I0J-225000D01*
G01*
X173945000Y-108200000D01*
G75*
G02*
X173720000Y-108425000I-225000J0D01*
G01*
X173270000Y-108425000D01*
G75*
G02*
X173045000Y-108200000I0J225000D01*
G01*
G37*
G04 #@! TD.AperFunction*
G04 #@! TA.AperFunction,SMDPad,CuDef*
G36*
G01*
X169335000Y-105685000D02*
X169335000Y-105135000D01*
G75*
G02*
X169535000Y-104935000I200000J0D01*
G01*
X169935000Y-104935000D01*
G75*
G02*
X170135000Y-105135000I0J-200000D01*
G01*
X170135000Y-105685000D01*
G75*
G02*
X169935000Y-105885000I-200000J0D01*
G01*
X169535000Y-105885000D01*
G75*
G02*
X169335000Y-105685000I0J200000D01*
G01*
G37*
G04 #@! TD.AperFunction*
G04 #@! TA.AperFunction,SMDPad,CuDef*
G36*
G01*
X167685000Y-105685000D02*
X167685000Y-105135000D01*
G75*
G02*
X167885000Y-104935000I200000J0D01*
G01*
X168285000Y-104935000D01*
G75*
G02*
X168485000Y-105135000I0J-200000D01*
G01*
X168485000Y-105685000D01*
G75*
G02*
X168285000Y-105885000I-200000J0D01*
G01*
X167885000Y-105885000D01*
G75*
G02*
X167685000Y-105685000I0J200000D01*
G01*
G37*
G04 #@! TD.AperFunction*
G04 #@! TA.AperFunction,SMDPad,CuDef*
G36*
G01*
X170135000Y-89895000D02*
X170135000Y-90445000D01*
G75*
G02*
X169935000Y-90645000I-200000J0D01*
G01*
X169535000Y-90645000D01*
G75*
G02*
X169335000Y-90445000I0J200000D01*
G01*
X169335000Y-89895000D01*
G75*
G02*
X169535000Y-89695000I200000J0D01*
G01*
X169935000Y-89695000D01*
G75*
G02*
X170135000Y-89895000I0J-200000D01*
G01*
G37*
G04 #@! TD.AperFunction*
G04 #@! TA.AperFunction,SMDPad,CuDef*
G36*
G01*
X168485000Y-89895000D02*
X168485000Y-90445000D01*
G75*
G02*
X168285000Y-90645000I-200000J0D01*
G01*
X167885000Y-90645000D01*
G75*
G02*
X167685000Y-90445000I0J200000D01*
G01*
X167685000Y-89895000D01*
G75*
G02*
X167885000Y-89695000I200000J0D01*
G01*
X168285000Y-89695000D01*
G75*
G02*
X168485000Y-89895000I0J-200000D01*
G01*
G37*
G04 #@! TD.AperFunction*
G04 #@! TA.AperFunction,SMDPad,CuDef*
G36*
G01*
X170135000Y-92435000D02*
X170135000Y-92985000D01*
G75*
G02*
X169935000Y-93185000I-200000J0D01*
G01*
X169535000Y-93185000D01*
G75*
G02*
X169335000Y-92985000I0J200000D01*
G01*
X169335000Y-92435000D01*
G75*
G02*
X169535000Y-92235000I200000J0D01*
G01*
X169935000Y-92235000D01*
G75*
G02*
X170135000Y-92435000I0J-200000D01*
G01*
G37*
G04 #@! TD.AperFunction*
G04 #@! TA.AperFunction,SMDPad,CuDef*
G36*
G01*
X168485000Y-92435000D02*
X168485000Y-92985000D01*
G75*
G02*
X168285000Y-93185000I-200000J0D01*
G01*
X167885000Y-93185000D01*
G75*
G02*
X167685000Y-92985000I0J200000D01*
G01*
X167685000Y-92435000D01*
G75*
G02*
X167885000Y-92235000I200000J0D01*
G01*
X168285000Y-92235000D01*
G75*
G02*
X168485000Y-92435000I0J-200000D01*
G01*
G37*
G04 #@! TD.AperFunction*
G04 #@! TA.AperFunction,SMDPad,CuDef*
G36*
G01*
X168485000Y-94975000D02*
X168485000Y-95525000D01*
G75*
G02*
X168285000Y-95725000I-200000J0D01*
G01*
X167885000Y-95725000D01*
G75*
G02*
X167685000Y-95525000I0J200000D01*
G01*
X167685000Y-94975000D01*
G75*
G02*
X167885000Y-94775000I200000J0D01*
G01*
X168285000Y-94775000D01*
G75*
G02*
X168485000Y-94975000I0J-200000D01*
G01*
G37*
G04 #@! TD.AperFunction*
G04 #@! TA.AperFunction,SMDPad,CuDef*
G36*
G01*
X170135000Y-94975000D02*
X170135000Y-95525000D01*
G75*
G02*
X169935000Y-95725000I-200000J0D01*
G01*
X169535000Y-95725000D01*
G75*
G02*
X169335000Y-95525000I0J200000D01*
G01*
X169335000Y-94975000D01*
G75*
G02*
X169535000Y-94775000I200000J0D01*
G01*
X169935000Y-94775000D01*
G75*
G02*
X170135000Y-94975000I0J-200000D01*
G01*
G37*
G04 #@! TD.AperFunction*
G04 #@! TA.AperFunction,SMDPad,CuDef*
G36*
G01*
X168485000Y-100055000D02*
X168485000Y-100605000D01*
G75*
G02*
X168285000Y-100805000I-200000J0D01*
G01*
X167885000Y-100805000D01*
G75*
G02*
X167685000Y-100605000I0J200000D01*
G01*
X167685000Y-100055000D01*
G75*
G02*
X167885000Y-99855000I200000J0D01*
G01*
X168285000Y-99855000D01*
G75*
G02*
X168485000Y-100055000I0J-200000D01*
G01*
G37*
G04 #@! TD.AperFunction*
G04 #@! TA.AperFunction,SMDPad,CuDef*
G36*
G01*
X170135000Y-100055000D02*
X170135000Y-100605000D01*
G75*
G02*
X169935000Y-100805000I-200000J0D01*
G01*
X169535000Y-100805000D01*
G75*
G02*
X169335000Y-100605000I0J200000D01*
G01*
X169335000Y-100055000D01*
G75*
G02*
X169535000Y-99855000I200000J0D01*
G01*
X169935000Y-99855000D01*
G75*
G02*
X170135000Y-100055000I0J-200000D01*
G01*
G37*
G04 #@! TD.AperFunction*
G04 #@! TA.AperFunction,SMDPad,CuDef*
G36*
G01*
X167685000Y-103145000D02*
X167685000Y-102595000D01*
G75*
G02*
X167885000Y-102395000I200000J0D01*
G01*
X168285000Y-102395000D01*
G75*
G02*
X168485000Y-102595000I0J-200000D01*
G01*
X168485000Y-103145000D01*
G75*
G02*
X168285000Y-103345000I-200000J0D01*
G01*
X167885000Y-103345000D01*
G75*
G02*
X167685000Y-103145000I0J200000D01*
G01*
G37*
G04 #@! TD.AperFunction*
G04 #@! TA.AperFunction,SMDPad,CuDef*
G36*
G01*
X169335000Y-103145000D02*
X169335000Y-102595000D01*
G75*
G02*
X169535000Y-102395000I200000J0D01*
G01*
X169935000Y-102395000D01*
G75*
G02*
X170135000Y-102595000I0J-200000D01*
G01*
X170135000Y-103145000D01*
G75*
G02*
X169935000Y-103345000I-200000J0D01*
G01*
X169535000Y-103345000D01*
G75*
G02*
X169335000Y-103145000I0J200000D01*
G01*
G37*
G04 #@! TD.AperFunction*
G04 #@! TA.AperFunction,SMDPad,CuDef*
G36*
G01*
X170135000Y-97515000D02*
X170135000Y-98065000D01*
G75*
G02*
X169935000Y-98265000I-200000J0D01*
G01*
X169535000Y-98265000D01*
G75*
G02*
X169335000Y-98065000I0J200000D01*
G01*
X169335000Y-97515000D01*
G75*
G02*
X169535000Y-97315000I200000J0D01*
G01*
X169935000Y-97315000D01*
G75*
G02*
X170135000Y-97515000I0J-200000D01*
G01*
G37*
G04 #@! TD.AperFunction*
G04 #@! TA.AperFunction,SMDPad,CuDef*
G36*
G01*
X168485000Y-97515000D02*
X168485000Y-98065000D01*
G75*
G02*
X168285000Y-98265000I-200000J0D01*
G01*
X167885000Y-98265000D01*
G75*
G02*
X167685000Y-98065000I0J200000D01*
G01*
X167685000Y-97515000D01*
G75*
G02*
X167885000Y-97315000I200000J0D01*
G01*
X168285000Y-97315000D01*
G75*
G02*
X168485000Y-97515000I0J-200000D01*
G01*
G37*
G04 #@! TD.AperFunction*
D19*
X120145000Y-72260000D03*
X122685000Y-72260000D03*
X125225000Y-72260000D03*
X127765000Y-72260000D03*
X130305000Y-72260000D03*
X132845000Y-72260000D03*
X135385000Y-72260000D03*
X137925000Y-72260000D03*
X140465000Y-72260000D03*
X143005000Y-72260000D03*
X145545000Y-72260000D03*
X148085000Y-72260000D03*
X150625000Y-72260000D03*
X153165000Y-72260000D03*
X155705000Y-72260000D03*
X158245000Y-72260000D03*
X160785000Y-72260000D03*
X163325000Y-72260000D03*
X165865000Y-72260000D03*
X168405000Y-72260000D03*
X120145000Y-66440000D03*
X122685000Y-66440000D03*
X125225000Y-66440000D03*
X127765000Y-66440000D03*
X130305000Y-66440000D03*
X132845000Y-66440000D03*
X135385000Y-66440000D03*
X137925000Y-66440000D03*
X140465000Y-66440000D03*
X143005000Y-66440000D03*
X145545000Y-66440000D03*
X148085000Y-66440000D03*
X150625000Y-66440000D03*
X153165000Y-66440000D03*
X155705000Y-66440000D03*
X158245000Y-66440000D03*
X160785000Y-66440000D03*
X163325000Y-66440000D03*
X165865000Y-66440000D03*
X168405000Y-66440000D03*
D20*
X171980000Y-76790000D03*
D21*
X171980000Y-74250000D03*
X174520000Y-76790000D03*
X174520000Y-74250000D03*
D22*
X146050000Y-97790000D03*
X148590000Y-100330000D03*
X146050000Y-102870000D03*
G04 #@! TA.AperFunction,SMDPad,CuDef*
G36*
G01*
X138173750Y-104185000D02*
X138686250Y-104185000D01*
G75*
G02*
X138905000Y-104403750I0J-218750D01*
G01*
X138905000Y-104841250D01*
G75*
G02*
X138686250Y-105060000I-218750J0D01*
G01*
X138173750Y-105060000D01*
G75*
G02*
X137955000Y-104841250I0J218750D01*
G01*
X137955000Y-104403750D01*
G75*
G02*
X138173750Y-104185000I218750J0D01*
G01*
G37*
G04 #@! TD.AperFunction*
G04 #@! TA.AperFunction,SMDPad,CuDef*
G36*
G01*
X138173750Y-105760000D02*
X138686250Y-105760000D01*
G75*
G02*
X138905000Y-105978750I0J-218750D01*
G01*
X138905000Y-106416250D01*
G75*
G02*
X138686250Y-106635000I-218750J0D01*
G01*
X138173750Y-106635000D01*
G75*
G02*
X137955000Y-106416250I0J218750D01*
G01*
X137955000Y-105978750D01*
G75*
G02*
X138173750Y-105760000I218750J0D01*
G01*
G37*
G04 #@! TD.AperFunction*
G04 #@! TA.AperFunction,SMDPad,CuDef*
G36*
G01*
X143253750Y-105760000D02*
X143766250Y-105760000D01*
G75*
G02*
X143985000Y-105978750I0J-218750D01*
G01*
X143985000Y-106416250D01*
G75*
G02*
X143766250Y-106635000I-218750J0D01*
G01*
X143253750Y-106635000D01*
G75*
G02*
X143035000Y-106416250I0J218750D01*
G01*
X143035000Y-105978750D01*
G75*
G02*
X143253750Y-105760000I218750J0D01*
G01*
G37*
G04 #@! TD.AperFunction*
G04 #@! TA.AperFunction,SMDPad,CuDef*
G36*
G01*
X143253750Y-104185000D02*
X143766250Y-104185000D01*
G75*
G02*
X143985000Y-104403750I0J-218750D01*
G01*
X143985000Y-104841250D01*
G75*
G02*
X143766250Y-105060000I-218750J0D01*
G01*
X143253750Y-105060000D01*
G75*
G02*
X143035000Y-104841250I0J218750D01*
G01*
X143035000Y-104403750D01*
G75*
G02*
X143253750Y-104185000I218750J0D01*
G01*
G37*
G04 #@! TD.AperFunction*
G04 #@! TA.AperFunction,SMDPad,CuDef*
G36*
G01*
X135615000Y-104185000D02*
X136165000Y-104185000D01*
G75*
G02*
X136365000Y-104385000I0J-200000D01*
G01*
X136365000Y-104785000D01*
G75*
G02*
X136165000Y-104985000I-200000J0D01*
G01*
X135615000Y-104985000D01*
G75*
G02*
X135415000Y-104785000I0J200000D01*
G01*
X135415000Y-104385000D01*
G75*
G02*
X135615000Y-104185000I200000J0D01*
G01*
G37*
G04 #@! TD.AperFunction*
G04 #@! TA.AperFunction,SMDPad,CuDef*
G36*
G01*
X135615000Y-105835000D02*
X136165000Y-105835000D01*
G75*
G02*
X136365000Y-106035000I0J-200000D01*
G01*
X136365000Y-106435000D01*
G75*
G02*
X136165000Y-106635000I-200000J0D01*
G01*
X135615000Y-106635000D01*
G75*
G02*
X135415000Y-106435000I0J200000D01*
G01*
X135415000Y-106035000D01*
G75*
G02*
X135615000Y-105835000I200000J0D01*
G01*
G37*
G04 #@! TD.AperFunction*
G04 #@! TA.AperFunction,SMDPad,CuDef*
G36*
G01*
X140695000Y-105835000D02*
X141245000Y-105835000D01*
G75*
G02*
X141445000Y-106035000I0J-200000D01*
G01*
X141445000Y-106435000D01*
G75*
G02*
X141245000Y-106635000I-200000J0D01*
G01*
X140695000Y-106635000D01*
G75*
G02*
X140495000Y-106435000I0J200000D01*
G01*
X140495000Y-106035000D01*
G75*
G02*
X140695000Y-105835000I200000J0D01*
G01*
G37*
G04 #@! TD.AperFunction*
G04 #@! TA.AperFunction,SMDPad,CuDef*
G36*
G01*
X140695000Y-104185000D02*
X141245000Y-104185000D01*
G75*
G02*
X141445000Y-104385000I0J-200000D01*
G01*
X141445000Y-104785000D01*
G75*
G02*
X141245000Y-104985000I-200000J0D01*
G01*
X140695000Y-104985000D01*
G75*
G02*
X140495000Y-104785000I0J200000D01*
G01*
X140495000Y-104385000D01*
G75*
G02*
X140695000Y-104185000I200000J0D01*
G01*
G37*
G04 #@! TD.AperFunction*
D10*
X128905000Y-115570000D03*
D11*
X131445000Y-115570000D03*
X133985000Y-115570000D03*
X136525000Y-115570000D03*
X139065000Y-115570000D03*
D10*
X157480000Y-115570000D03*
D11*
X160020000Y-115570000D03*
X167005000Y-115570000D03*
D10*
X164465000Y-115570000D03*
D23*
X120650000Y-109220000D03*
X121920000Y-109220000D03*
X123190000Y-109220000D03*
X123190000Y-110490000D03*
X121920000Y-110490000D03*
X120650000Y-110490000D03*
X120650000Y-111760000D03*
X121920000Y-111760000D03*
X123190000Y-111760000D03*
X153670000Y-88900000D03*
X156210000Y-88900000D03*
X156210000Y-86360000D03*
X153670000Y-86360000D03*
X153670000Y-84100000D03*
X156210000Y-84100000D03*
X158750000Y-86360000D03*
X158750000Y-88900000D03*
X156210000Y-91100000D03*
X153670000Y-91100000D03*
X151130000Y-88900000D03*
X151130000Y-86360000D03*
X151130000Y-91100000D03*
X151130000Y-84100000D03*
X158750000Y-84100000D03*
X158750000Y-91100000D03*
X173990000Y-102870000D03*
X173990000Y-105410000D03*
X173990000Y-107950000D03*
X167640000Y-90170000D03*
X167640000Y-92710000D03*
X167640000Y-95250000D03*
X167640000Y-97790000D03*
X167640000Y-100330000D03*
X152400000Y-107950000D03*
X151130000Y-107950000D03*
X151130000Y-109220000D03*
X125230000Y-66500000D03*
X130310000Y-72000000D03*
X135390000Y-66500000D03*
X143010000Y-66500000D03*
X155710000Y-66500000D03*
X168410000Y-72000000D03*
X160790000Y-66500000D03*
X150630000Y-72000000D03*
X152400000Y-109220000D03*
X140970000Y-107950000D03*
X135890000Y-107950000D03*
X157480000Y-111760000D03*
X140470000Y-72000000D03*
X120150000Y-72000000D03*
X153670000Y-77470000D03*
X128994998Y-72390000D03*
X168910000Y-99060000D03*
X168910000Y-107950000D03*
X164465000Y-111760000D03*
X126535002Y-72793130D03*
X170180000Y-90170000D03*
X170180000Y-105410000D03*
X141600002Y-72492027D03*
X147320000Y-78740000D03*
X160020000Y-78740000D03*
X148590000Y-85090000D03*
X148590000Y-76200000D03*
X160020000Y-92710000D03*
X160020000Y-95250000D03*
X139065000Y-109220000D03*
X136525000Y-109220000D03*
D24*
X173495000Y-102870000D02*
X173990000Y-102870000D01*
X173990000Y-105410000D02*
X173495000Y-105410000D01*
X173495000Y-107950000D02*
X173990000Y-107950000D01*
X168085000Y-90170000D02*
X167640000Y-90170000D01*
X167640000Y-92710000D02*
X168085000Y-92710000D01*
X168085000Y-95250000D02*
X167640000Y-95250000D01*
X168085000Y-97790000D02*
X167640000Y-97790000D01*
X168085000Y-100330000D02*
X167640000Y-100330000D01*
X152650000Y-85340000D02*
X157230000Y-85340000D01*
X157230000Y-85340000D02*
X157230000Y-83050000D01*
X157230000Y-83050000D02*
X154940000Y-83050000D01*
X154940000Y-83050000D02*
X154940000Y-85340000D01*
X154940000Y-85340000D02*
X154940000Y-92210000D01*
X154940000Y-92210000D02*
X157230000Y-92210000D01*
X157230000Y-92210000D02*
X157230000Y-85340000D01*
X152650000Y-86454998D02*
X152650000Y-85340000D01*
X152650000Y-89920000D02*
X152650000Y-86454998D01*
X150360000Y-85340000D02*
X152650000Y-85340000D01*
X152650000Y-89920000D02*
X159520000Y-89920000D01*
X152310000Y-89920000D02*
X151130000Y-91100000D01*
X152650000Y-89920000D02*
X152310000Y-89920000D01*
X152650000Y-90080000D02*
X153670000Y-91100000D01*
X152650000Y-89920000D02*
X152650000Y-90080000D01*
X154850000Y-89920000D02*
X153670000Y-91100000D01*
X154940000Y-89920000D02*
X154850000Y-89920000D01*
X155030000Y-89920000D02*
X156210000Y-91100000D01*
X154940000Y-89920000D02*
X155030000Y-89920000D01*
X157230000Y-90080000D02*
X156210000Y-91100000D01*
X157230000Y-89920000D02*
X157230000Y-90080000D01*
X157570000Y-89920000D02*
X158750000Y-91100000D01*
X157230000Y-89920000D02*
X157570000Y-89920000D01*
X155100000Y-92210000D02*
X156210000Y-91100000D01*
X154940000Y-92210000D02*
X155100000Y-92210000D01*
X154780000Y-92210000D02*
X153670000Y-91100000D01*
X154940000Y-92210000D02*
X154780000Y-92210000D01*
X157230000Y-92120000D02*
X156210000Y-91100000D01*
X157230000Y-92210000D02*
X157230000Y-92120000D01*
X157640000Y-92210000D02*
X158750000Y-91100000D01*
X157230000Y-92210000D02*
X157640000Y-92210000D01*
X151410000Y-84100000D02*
X152650000Y-85340000D01*
X151130000Y-84100000D02*
X151410000Y-84100000D01*
X150360000Y-84870000D02*
X151130000Y-84100000D01*
X150360000Y-85340000D02*
X150360000Y-84870000D01*
X153670000Y-84100000D02*
X152680000Y-85090000D01*
X152680000Y-85310000D02*
X152650000Y-85340000D01*
X152680000Y-85090000D02*
X152680000Y-85310000D01*
X154910000Y-85340000D02*
X153670000Y-84100000D01*
X154940000Y-85340000D02*
X154910000Y-85340000D01*
X154970000Y-85340000D02*
X156210000Y-84100000D01*
X154940000Y-85340000D02*
X154970000Y-85340000D01*
X157230000Y-85120000D02*
X156210000Y-84100000D01*
X157230000Y-85340000D02*
X157230000Y-85120000D01*
X157510000Y-85340000D02*
X158750000Y-84100000D01*
X157230000Y-85340000D02*
X157510000Y-85340000D01*
X157230000Y-85340000D02*
X157730000Y-85340000D01*
X157730000Y-85340000D02*
X158750000Y-86360000D01*
X157230000Y-85340000D02*
X156210000Y-86360000D01*
X155190000Y-85340000D02*
X156210000Y-86360000D01*
X154940000Y-85340000D02*
X155190000Y-85340000D01*
X154940000Y-85340000D02*
X154690000Y-85340000D01*
X154690000Y-85340000D02*
X153670000Y-86360000D01*
X152650000Y-85340000D02*
X153670000Y-86360000D01*
X152650000Y-85340000D02*
X152150000Y-85340000D01*
X152150000Y-85340000D02*
X151130000Y-86360000D01*
X152400000Y-87630000D02*
X151130000Y-86360000D01*
X152650000Y-87380000D02*
X153670000Y-86360000D01*
X152650000Y-87630000D02*
X152650000Y-87380000D01*
X152650000Y-87630000D02*
X152650000Y-87880000D01*
X152650000Y-87880000D02*
X153670000Y-88900000D01*
X152400000Y-87630000D02*
X151130000Y-88900000D01*
X152650000Y-87630000D02*
X152400000Y-87630000D01*
X153670000Y-88900000D02*
X154940000Y-87630000D01*
X154940000Y-87630000D02*
X153670000Y-86360000D01*
X154940000Y-87630000D02*
X156210000Y-86360000D01*
X154940000Y-87630000D02*
X156210000Y-88900000D01*
X157230000Y-87880000D02*
X156210000Y-88900000D01*
X157230000Y-87630000D02*
X157230000Y-87880000D01*
X157230000Y-87630000D02*
X157480000Y-87630000D01*
X157480000Y-87630000D02*
X158750000Y-86360000D01*
X157230000Y-87380000D02*
X156210000Y-86360000D01*
X157230000Y-87630000D02*
X157230000Y-87380000D01*
X157480000Y-87630000D02*
X158750000Y-88900000D01*
X157230000Y-89920000D02*
X157730000Y-89920000D01*
X157730000Y-89920000D02*
X158750000Y-88900000D01*
X157230000Y-89920000D02*
X156210000Y-88900000D01*
X154940000Y-89920000D02*
X155190000Y-89920000D01*
X155190000Y-89920000D02*
X156210000Y-88900000D01*
X154690000Y-89920000D02*
X153670000Y-88900000D01*
X154940000Y-89920000D02*
X154690000Y-89920000D01*
X152650000Y-89920000D02*
X153670000Y-88900000D01*
X152650000Y-89920000D02*
X152150000Y-89920000D01*
X152150000Y-89920000D02*
X151130000Y-88900000D01*
X154720000Y-83050000D02*
X153670000Y-84100000D01*
X154940000Y-83050000D02*
X154720000Y-83050000D01*
X155160000Y-83050000D02*
X156210000Y-84100000D01*
X154940000Y-83050000D02*
X155160000Y-83050000D01*
X157230000Y-83080000D02*
X156210000Y-84100000D01*
X157230000Y-83050000D02*
X157230000Y-83080000D01*
X157700000Y-83050000D02*
X158750000Y-84100000D01*
X157230000Y-83050000D02*
X157700000Y-83050000D01*
X150810000Y-72070000D02*
X151130000Y-72390000D01*
X150625000Y-72070000D02*
X150810000Y-72070000D01*
X155691340Y-66616340D02*
X155705000Y-66630000D01*
X160771340Y-66616340D02*
X160785000Y-66630000D01*
X140970000Y-106235000D02*
X140970000Y-107950000D01*
X135890000Y-106235000D02*
X135890000Y-107950000D01*
D25*
X118110000Y-110490000D02*
X122555000Y-110490000D01*
X122555000Y-109855000D02*
X123190000Y-109220000D01*
X122555000Y-110490000D02*
X122555000Y-109855000D01*
X123190000Y-111760000D02*
X123190000Y-109220000D01*
X120650000Y-109220000D02*
X120650000Y-111760000D01*
X120650000Y-109220000D02*
X123190000Y-109220000D01*
X120650000Y-111760000D02*
X123190000Y-111760000D01*
D26*
X151130000Y-107950000D02*
X152400000Y-107950000D01*
X151130000Y-109220000D02*
X152400000Y-109220000D01*
X151130000Y-109220000D02*
X151130000Y-107950000D01*
X152400000Y-109220000D02*
X152400000Y-107950000D01*
X151130000Y-109220000D02*
X152400000Y-107950000D01*
X152350000Y-107950000D02*
X152670000Y-107630000D01*
X151130000Y-107950000D02*
X152350000Y-107950000D01*
D24*
X152650000Y-82800000D02*
X152400000Y-82550000D01*
X152650000Y-83050000D02*
X152650000Y-82800000D01*
X172242166Y-102870000D02*
X171945000Y-102870000D01*
X173512166Y-101600000D02*
X172242166Y-102870000D01*
X174270010Y-101319990D02*
X173990000Y-101600000D01*
X173990000Y-101600000D02*
X173512166Y-101600000D01*
D26*
X161290000Y-87630000D02*
X163830000Y-85090000D01*
X161290000Y-93980000D02*
X161290000Y-87630000D01*
X163830000Y-85090000D02*
X168260000Y-85090000D01*
X146050000Y-93980000D02*
X161290000Y-93980000D01*
D25*
X146050000Y-92710000D02*
X146050000Y-82550000D01*
X143510000Y-95250000D02*
X146050000Y-92710000D01*
X146050000Y-82550000D02*
X152400000Y-82550000D01*
D24*
X173507500Y-92710000D02*
X173507500Y-93192500D01*
X173507500Y-93192500D02*
X172720000Y-93980000D01*
X174270010Y-97308516D02*
X174270010Y-100049990D01*
X172720000Y-95758506D02*
X174270010Y-97308516D01*
X172720000Y-93980000D02*
X172720000Y-95758506D01*
X174270010Y-100049990D02*
X174270010Y-101319990D01*
X174270010Y-99796504D02*
X174270010Y-100049990D01*
D25*
X130420000Y-105410000D02*
X131445000Y-105410000D01*
X131445000Y-105410000D02*
X136525000Y-100330000D01*
X136525000Y-100330000D02*
X142240000Y-100330000D01*
X143510000Y-99060000D02*
X143510000Y-95250000D01*
X142240000Y-100330000D02*
X143510000Y-99060000D01*
D24*
X171945000Y-102870000D02*
X170673590Y-104141410D01*
X164649990Y-105223600D02*
X164649990Y-107132830D01*
X165732180Y-104141410D02*
X164649990Y-105223600D01*
X130810000Y-105410000D02*
X130420000Y-105410000D01*
X164649990Y-107132830D02*
X161292820Y-110490000D01*
X170673590Y-104141410D02*
X165732180Y-104141410D01*
X130420000Y-109465000D02*
X131445000Y-110490000D01*
X131445000Y-110490000D02*
X135890000Y-110490000D01*
X135890000Y-110490000D02*
X135255000Y-110490000D01*
X130420000Y-105410000D02*
X130420000Y-109465000D01*
X161292820Y-110490000D02*
X135890000Y-110490000D01*
X135890000Y-110490000D02*
X142875000Y-110490000D01*
X173215000Y-104140000D02*
X171945000Y-105410000D01*
X174809990Y-103320010D02*
X173990000Y-104140000D01*
X174809990Y-96552490D02*
X174809990Y-103320010D01*
X173990000Y-104140000D02*
X173215000Y-104140000D01*
X173507500Y-95250000D02*
X174809990Y-96552490D01*
X168260000Y-82550000D02*
X167640000Y-82550000D01*
D26*
X159520000Y-87630000D02*
X160020000Y-87130000D01*
X160020000Y-87130000D02*
X160020000Y-82550000D01*
X158319990Y-80849990D02*
X160020000Y-82550000D01*
X147285992Y-80849990D02*
X158319990Y-80849990D01*
X168260000Y-82550000D02*
X160020000Y-82550000D01*
X146883001Y-80446999D02*
X146050000Y-79613998D01*
X147285992Y-80849990D02*
X146883001Y-80446999D01*
X145858580Y-79422578D02*
X146883001Y-80446999D01*
X145858580Y-76541730D02*
X145858580Y-79422578D01*
X145858580Y-76541730D02*
X143309980Y-73993130D01*
X124014999Y-66864999D02*
X124014999Y-73710001D01*
X123590000Y-66440000D02*
X124014999Y-66864999D01*
X122685000Y-66440000D02*
X123590000Y-66440000D01*
X143309980Y-73993130D02*
X142573130Y-73993130D01*
X142573130Y-73993130D02*
X141906870Y-73993130D01*
X122685000Y-66440000D02*
X120145000Y-66440000D01*
X125396870Y-73993130D02*
X124793130Y-73993130D01*
X124298128Y-73993130D02*
X125396870Y-73993130D01*
X124154999Y-73850001D02*
X124014999Y-73710001D01*
X125396870Y-73993130D02*
X127333130Y-73993130D01*
X127333130Y-73993130D02*
X142573130Y-73993130D01*
D24*
X170675000Y-106680000D02*
X171945000Y-105410000D01*
X166375640Y-106680000D02*
X170675000Y-106680000D01*
X161295640Y-111760000D02*
X166375640Y-106680000D01*
D26*
X114300000Y-112116998D02*
X122833002Y-120650000D01*
X116506870Y-73993130D02*
X114300000Y-76200000D01*
X149225000Y-120650000D02*
X154305000Y-115570000D01*
X122833002Y-120650000D02*
X149225000Y-120650000D01*
X154305000Y-115570000D02*
X157480000Y-115570000D01*
X114300000Y-76200000D02*
X114300000Y-112116998D01*
X127333130Y-73993130D02*
X116506870Y-73993130D01*
D24*
X161295640Y-111760000D02*
X157480000Y-111760000D01*
X171945000Y-107950000D02*
X170180000Y-107950000D01*
X120330000Y-72070000D02*
X120650000Y-72390000D01*
X120145000Y-72070000D02*
X120330000Y-72070000D01*
X140470000Y-71870000D02*
X140465000Y-71875000D01*
X140465000Y-71924198D02*
X140465000Y-72260000D01*
X138325801Y-69784999D02*
X140465000Y-71924198D01*
X128994998Y-70694200D02*
X129904199Y-69784999D01*
X129904199Y-69784999D02*
X138325801Y-69784999D01*
X128994998Y-72390000D02*
X128994998Y-70694200D01*
X173507500Y-98272500D02*
X173507500Y-97790000D01*
X172720000Y-99060000D02*
X173507500Y-98272500D01*
X168910000Y-98425000D02*
X169545000Y-99060000D01*
X169545000Y-99060000D02*
X172720000Y-99060000D01*
X169317532Y-91909990D02*
X168910000Y-92317522D01*
X153670000Y-77470000D02*
X166903150Y-77470000D01*
X171616420Y-91909990D02*
X169317532Y-91909990D01*
X168910000Y-92317522D02*
X168910000Y-98425000D01*
X172725020Y-83291870D02*
X172725019Y-90801391D01*
X172725019Y-90801391D02*
X171616420Y-91909990D01*
X166903150Y-77470000D02*
X172725020Y-83291870D01*
X168910000Y-98425000D02*
X168910000Y-99060000D01*
X168910000Y-107950000D02*
X170180000Y-107950000D01*
X168910000Y-107950000D02*
X165742050Y-107950000D01*
X164465000Y-109227050D02*
X164465000Y-111760000D01*
X165742050Y-107950000D02*
X164465000Y-109227050D01*
D25*
X118110000Y-105410000D02*
X126120000Y-105410000D01*
D24*
X169735000Y-92710000D02*
X171932500Y-92710000D01*
X169735000Y-95250000D02*
X171932500Y-95250000D01*
X171450000Y-101600000D02*
X172720000Y-101600000D01*
X170180000Y-102870000D02*
X171450000Y-101600000D01*
X169735000Y-102870000D02*
X170180000Y-102870000D01*
X173507500Y-100330000D02*
X173507500Y-100812500D01*
X173507500Y-100812500D02*
X172720000Y-101600000D01*
X172275010Y-90614990D02*
X172275010Y-83478270D01*
X171450000Y-91440000D02*
X172275010Y-90614990D01*
X167640000Y-91440000D02*
X171450000Y-91440000D01*
X167536740Y-78740000D02*
X162650000Y-78740000D01*
X166370000Y-92710000D02*
X167640000Y-91440000D01*
X169735000Y-102870000D02*
X169302478Y-102870000D01*
X166370000Y-99985002D02*
X166370000Y-92710000D01*
X167984998Y-101600000D02*
X166370000Y-99985002D01*
X168032478Y-101600000D02*
X167984998Y-101600000D01*
X172275010Y-83478270D02*
X167536740Y-78740000D01*
X169302478Y-102870000D02*
X168032478Y-101600000D01*
X171932500Y-100330000D02*
X169735000Y-100330000D01*
X158370000Y-107950000D02*
X158750000Y-107950000D01*
D26*
X152400000Y-97362930D02*
X152400000Y-99060000D01*
X157480000Y-96520000D02*
X153242930Y-96520000D01*
X158370000Y-97410000D02*
X157480000Y-96520000D01*
X153242930Y-96520000D02*
X152400000Y-97362930D01*
X158370000Y-107950000D02*
X158370000Y-97410000D01*
X161717070Y-102870000D02*
X161717070Y-104092930D01*
X165100000Y-99487070D02*
X161717070Y-102870000D01*
X161717070Y-104092930D02*
X161670000Y-104140000D01*
X165100000Y-91229998D02*
X165100000Y-99487070D01*
X167429998Y-88900000D02*
X165100000Y-91229998D01*
X169560000Y-82550000D02*
X170180000Y-82550000D01*
X171450000Y-87630000D02*
X170180000Y-88900000D01*
X170180000Y-88900000D02*
X167429998Y-88900000D01*
X170180000Y-82550000D02*
X171450000Y-83820000D01*
X171450000Y-83820000D02*
X171450000Y-87630000D01*
X162560000Y-100330000D02*
X161670000Y-100330000D01*
X163830000Y-99060000D02*
X162560000Y-100330000D01*
X163830000Y-90802928D02*
X163830000Y-99060000D01*
X167002928Y-87630000D02*
X163830000Y-90802928D01*
X170180000Y-87202930D02*
X169752930Y-87630000D01*
X169752930Y-87630000D02*
X167002928Y-87630000D01*
X170180000Y-85710000D02*
X170180000Y-87202930D01*
X169560000Y-85090000D02*
X170180000Y-85710000D01*
X157169990Y-105720010D02*
X156210000Y-106680000D01*
X156210000Y-106680000D02*
X154670000Y-106680000D01*
X157169990Y-100019990D02*
X157169990Y-105720010D01*
X156210000Y-99060000D02*
X157169990Y-100019990D01*
X154940000Y-99060000D02*
X156210000Y-99060000D01*
D24*
X155265001Y-109545001D02*
X154670000Y-108950000D01*
X160964999Y-109545001D02*
X155265001Y-109545001D01*
X154670000Y-108950000D02*
X154670000Y-106680000D01*
X161670000Y-108840000D02*
X160964999Y-109545001D01*
X161670000Y-107950000D02*
X161670000Y-108840000D01*
X169735000Y-97790000D02*
X171932500Y-97790000D01*
X122690000Y-71870000D02*
X122685000Y-71875000D01*
X126775001Y-66630000D02*
X127765000Y-66630000D01*
X126535002Y-66869999D02*
X126775001Y-66630000D01*
X126535002Y-72793130D02*
X126535002Y-66869999D01*
X169735000Y-90170000D02*
X170180000Y-90170000D01*
X170180000Y-105410000D02*
X169735000Y-105410000D01*
X130305000Y-66835000D02*
X130305000Y-66630000D01*
X147320000Y-78740000D02*
X160020000Y-78740000D01*
X141600002Y-72492027D02*
X141600002Y-70556200D01*
X130305000Y-66805000D02*
X130305000Y-66440000D01*
X132834989Y-69334989D02*
X130305000Y-66805000D01*
X139213601Y-69365011D02*
X141083599Y-69365011D01*
X141083599Y-69365011D02*
X141568588Y-69850000D01*
X139183579Y-69334989D02*
X139213601Y-69365011D01*
X132834989Y-69334989D02*
X139183579Y-69334989D01*
X141568588Y-70524786D02*
X141600002Y-70556200D01*
X141568588Y-69850000D02*
X141568588Y-70524786D01*
X137930000Y-71870000D02*
X137925000Y-71875000D01*
X137925000Y-66630000D02*
X137925000Y-66738802D01*
X161350000Y-79950000D02*
X161350000Y-78740000D01*
X161290000Y-80010000D02*
X161350000Y-79950000D01*
X147664998Y-80010000D02*
X161290000Y-80010000D01*
X146683590Y-79028592D02*
X147664998Y-80010000D01*
X141720009Y-69365011D02*
X143623599Y-69365011D01*
X146683590Y-76200000D02*
X146683590Y-79028592D01*
X141269999Y-68915001D02*
X141720009Y-69365011D01*
X137925000Y-66440000D02*
X138195000Y-66440000D01*
X143623599Y-69365011D02*
X144134989Y-69876401D01*
X139400001Y-68915001D02*
X141269999Y-68915001D01*
X139065000Y-67310000D02*
X139065000Y-68580000D01*
X139065000Y-68580000D02*
X139400001Y-68915001D01*
X144134989Y-69876401D02*
X144134989Y-73651399D01*
X138195000Y-66440000D02*
X139065000Y-67310000D01*
X144134989Y-73651399D02*
X146683590Y-76200000D01*
X140465000Y-66630000D02*
X140465000Y-66835000D01*
X146050000Y-74930000D02*
X161350000Y-74930000D01*
X144584999Y-73464999D02*
X146050000Y-74930000D01*
X142604199Y-68915001D02*
X143809999Y-68915001D01*
X140465000Y-66440000D02*
X140735000Y-66440000D01*
X141605000Y-67310000D02*
X141605000Y-67915802D01*
X144584999Y-69690001D02*
X144584999Y-73464999D01*
X143809999Y-68915001D02*
X144584999Y-69690001D01*
X140735000Y-66440000D02*
X141605000Y-67310000D01*
X141605000Y-67915802D02*
X142604199Y-68915001D01*
X128905000Y-111760000D02*
X128905000Y-115570000D01*
X129724990Y-110940010D02*
X128905000Y-111760000D01*
X165099999Y-107319231D02*
X161479220Y-110940010D01*
X165100000Y-105410000D02*
X165099999Y-107319231D01*
X161479220Y-110940010D02*
X129724990Y-110940010D01*
X168085000Y-105410000D02*
X165100000Y-105410000D01*
X150360000Y-89920000D02*
X149610000Y-89920000D01*
X148590000Y-88900000D02*
X148590000Y-85090000D01*
X149610000Y-89920000D02*
X148590000Y-88900000D01*
X162650000Y-74930000D02*
X162650000Y-76110000D01*
X162650000Y-76110000D02*
X162560000Y-76200000D01*
X162560000Y-76200000D02*
X161290000Y-76200000D01*
X148590000Y-76200000D02*
X161290000Y-76200000D01*
X168085000Y-102870000D02*
X165736410Y-102870000D01*
X164199981Y-106946429D02*
X161106420Y-110039990D01*
X164199980Y-104406430D02*
X164199981Y-106946429D01*
X165736410Y-102870000D02*
X164199980Y-104406430D01*
X152670000Y-105730000D02*
X153670000Y-106730000D01*
X155123580Y-110039990D02*
X161106420Y-110039990D01*
X153670000Y-108586410D02*
X155123580Y-110039990D01*
X153670000Y-106730000D02*
X153670000Y-108586410D01*
X159520000Y-92210000D02*
X160020000Y-92710000D01*
X160020000Y-95250000D02*
X149860000Y-95250000D01*
X149860000Y-95250000D02*
X148590000Y-96520000D01*
X148590000Y-96520000D02*
X148590000Y-100330000D01*
X143510000Y-108585000D02*
X143510000Y-107950000D01*
X139065000Y-109220000D02*
X142875000Y-109220000D01*
X142875000Y-109220000D02*
X143510000Y-108585000D01*
X143510000Y-107950000D02*
X143510000Y-106197500D01*
X139065000Y-113666410D02*
X139065000Y-115570000D01*
X139886400Y-112845010D02*
X139065000Y-113666410D01*
X172906400Y-112845010D02*
X139886400Y-112845010D01*
X175710009Y-110041401D02*
X172906400Y-112845010D01*
X173805010Y-91127106D02*
X175710010Y-93032106D01*
X167275952Y-76569982D02*
X173805010Y-83099040D01*
X175710010Y-93032106D02*
X175710009Y-110041401D01*
X166370000Y-76569981D02*
X167275952Y-76569982D01*
X165865000Y-76064981D02*
X166370000Y-76569981D01*
X173805010Y-83099040D02*
X173805010Y-91127106D01*
X165865000Y-72260000D02*
X165865000Y-76064981D01*
X163325000Y-66820000D02*
X164465000Y-67960000D01*
X163325000Y-66440000D02*
X163325000Y-66820000D01*
X164465000Y-67960000D02*
X164465000Y-76200000D01*
X165284990Y-77019990D02*
X167089551Y-77019991D01*
X164465000Y-76200000D02*
X165284990Y-77019990D01*
X167089551Y-77019991D02*
X173355000Y-83285440D01*
X173355000Y-83285440D02*
X173355000Y-83820000D01*
X173355000Y-83820000D02*
X173355000Y-84455000D01*
X136525000Y-109220000D02*
X136525000Y-108585000D01*
X136525000Y-108585000D02*
X138430000Y-106680000D01*
X138430000Y-106680000D02*
X138430000Y-106197500D01*
X137160000Y-112395000D02*
X136525000Y-113030000D01*
X136525000Y-113030000D02*
X136525000Y-115570000D01*
X172720000Y-112395000D02*
X137160000Y-112395000D01*
X175260000Y-109855000D02*
X172720000Y-112395000D01*
X175260000Y-93218506D02*
X175260000Y-109855000D01*
X173355000Y-91313506D02*
X175260000Y-93218506D01*
X173355000Y-83820000D02*
X173355000Y-91313506D01*
X138392500Y-104622500D02*
X138430000Y-104585000D01*
X138392500Y-104585000D02*
X138430000Y-104622500D01*
X135890000Y-104585000D02*
X138392500Y-104585000D01*
X143472500Y-104585000D02*
X143510000Y-104622500D01*
X140970000Y-104585000D02*
X143472500Y-104585000D01*
M02*
