G04 #@! TF.GenerationSoftware,KiCad,Pcbnew,(5.1.10-1-10_14)*
G04 #@! TF.CreationDate,2022-04-10T19:47:37-06:00*
G04 #@! TF.ProjectId,RPiG3iMac,52506947-3369-44d6-9163-2e6b69636164,1.2*
G04 #@! TF.SameCoordinates,Original*
G04 #@! TF.FileFunction,Soldermask,Bot*
G04 #@! TF.FilePolarity,Negative*
%FSLAX46Y46*%
G04 Gerber Fmt 4.6, Leading zero omitted, Abs format (unit mm)*
G04 Created by KiCad (PCBNEW (5.1.10-1-10_14)) date 2022-04-10 19:47:37*
%MOMM*%
%LPD*%
G01*
G04 APERTURE LIST*
%ADD10R,2.200000X2.200000*%
%ADD11C,1.100000*%
%ADD12C,2.200000*%
%ADD13C,3.000000*%
%ADD14C,6.200000*%
%ADD15R,2.600000X2.600000*%
%ADD16C,2.600000*%
%ADD17C,1.800000*%
%ADD18C,1.020000*%
%ADD19R,1.700000X1.700000*%
%ADD20O,1.700000X1.700000*%
%ADD21C,1.440000*%
G04 APERTURE END LIST*
D10*
X152400000Y-99060000D03*
D11*
X152400000Y-101600000D03*
D12*
X154940000Y-99060000D03*
D11*
X154940000Y-101600000D03*
D13*
X140650000Y-97470000D03*
X120650000Y-97470000D03*
X140650000Y-77470000D03*
X120650000Y-77470000D03*
D14*
X173260000Y-69405000D03*
X173260000Y-118405000D03*
X115260000Y-118405000D03*
X115260000Y-69405000D03*
D15*
X118110000Y-105410000D03*
D16*
X118110000Y-110490000D03*
D17*
X121415000Y-69350000D03*
X167135000Y-69350000D03*
D18*
X120145000Y-70620000D03*
X122685000Y-70620000D03*
X125225000Y-70620000D03*
X127765000Y-70620000D03*
X130305000Y-70620000D03*
X132845000Y-70620000D03*
X135385000Y-70620000D03*
X137925000Y-70620000D03*
X140465000Y-70620000D03*
X143005000Y-70620000D03*
X145545000Y-70620000D03*
X148085000Y-70620000D03*
X150625000Y-70620000D03*
X153165000Y-70620000D03*
X155705000Y-70620000D03*
X158245000Y-70620000D03*
X160785000Y-70620000D03*
X163325000Y-70620000D03*
X165865000Y-70620000D03*
X168405000Y-70620000D03*
X120145000Y-68080000D03*
X122685000Y-68080000D03*
X125225000Y-68080000D03*
X127765000Y-68080000D03*
X130305000Y-68080000D03*
X132845000Y-68080000D03*
X135385000Y-68080000D03*
X137925000Y-68080000D03*
X140465000Y-68080000D03*
X143005000Y-68080000D03*
X145545000Y-68080000D03*
X148085000Y-68080000D03*
X150625000Y-68080000D03*
X153165000Y-68080000D03*
X155705000Y-68080000D03*
X158245000Y-68080000D03*
X160785000Y-68080000D03*
X163325000Y-68080000D03*
X165865000Y-68080000D03*
X168405000Y-68080000D03*
D19*
X171980000Y-76790000D03*
D20*
X171980000Y-74250000D03*
X174520000Y-76790000D03*
X174520000Y-74250000D03*
D21*
X146050000Y-97790000D03*
X148590000Y-100330000D03*
X146050000Y-102870000D03*
D10*
X128905000Y-115570000D03*
D12*
X131445000Y-115570000D03*
X133985000Y-115570000D03*
X136525000Y-115570000D03*
X139065000Y-115570000D03*
D10*
X157480000Y-115570000D03*
D11*
X157480000Y-118110000D03*
D12*
X160020000Y-115570000D03*
D11*
X160020000Y-118110000D03*
X167005000Y-118110000D03*
D12*
X167005000Y-115570000D03*
D11*
X164465000Y-118110000D03*
D10*
X164465000Y-115570000D03*
M02*
