G04 #@! TF.GenerationSoftware,KiCad,Pcbnew,(5.1.10-1-10_14)*
G04 #@! TF.CreationDate,2022-04-10T19:47:37-06:00*
G04 #@! TF.ProjectId,RPiG3iMac,52506947-3369-44d6-9163-2e6b69636164,1.2*
G04 #@! TF.SameCoordinates,Original*
G04 #@! TF.FileFunction,Paste,Top*
G04 #@! TF.FilePolarity,Positive*
%FSLAX46Y46*%
G04 Gerber Fmt 4.6, Leading zero omitted, Abs format (unit mm)*
G04 Created by KiCad (PCBNEW (5.1.10-1-10_14)) date 2022-04-10 19:47:37*
%MOMM*%
%LPD*%
G01*
G04 APERTURE LIST*
%ADD10R,2.500000X2.300000*%
%ADD11R,0.900000X1.200000*%
%ADD12R,0.900000X0.800000*%
%ADD13R,1.060000X1.060000*%
%ADD14R,1.020000X1.780000*%
G04 APERTURE END LIST*
D10*
X130420000Y-105410000D03*
X126120000Y-105410000D03*
G36*
G01*
X171495000Y-92966250D02*
X171495000Y-92453750D01*
G75*
G02*
X171713750Y-92235000I218750J0D01*
G01*
X172151250Y-92235000D01*
G75*
G02*
X172370000Y-92453750I0J-218750D01*
G01*
X172370000Y-92966250D01*
G75*
G02*
X172151250Y-93185000I-218750J0D01*
G01*
X171713750Y-93185000D01*
G75*
G02*
X171495000Y-92966250I0J218750D01*
G01*
G37*
G36*
G01*
X173070000Y-92966250D02*
X173070000Y-92453750D01*
G75*
G02*
X173288750Y-92235000I218750J0D01*
G01*
X173726250Y-92235000D01*
G75*
G02*
X173945000Y-92453750I0J-218750D01*
G01*
X173945000Y-92966250D01*
G75*
G02*
X173726250Y-93185000I-218750J0D01*
G01*
X173288750Y-93185000D01*
G75*
G02*
X173070000Y-92966250I0J218750D01*
G01*
G37*
G36*
G01*
X173070000Y-95506250D02*
X173070000Y-94993750D01*
G75*
G02*
X173288750Y-94775000I218750J0D01*
G01*
X173726250Y-94775000D01*
G75*
G02*
X173945000Y-94993750I0J-218750D01*
G01*
X173945000Y-95506250D01*
G75*
G02*
X173726250Y-95725000I-218750J0D01*
G01*
X173288750Y-95725000D01*
G75*
G02*
X173070000Y-95506250I0J218750D01*
G01*
G37*
G36*
G01*
X171495000Y-95506250D02*
X171495000Y-94993750D01*
G75*
G02*
X171713750Y-94775000I218750J0D01*
G01*
X172151250Y-94775000D01*
G75*
G02*
X172370000Y-94993750I0J-218750D01*
G01*
X172370000Y-95506250D01*
G75*
G02*
X172151250Y-95725000I-218750J0D01*
G01*
X171713750Y-95725000D01*
G75*
G02*
X171495000Y-95506250I0J218750D01*
G01*
G37*
G36*
G01*
X173070000Y-100586250D02*
X173070000Y-100073750D01*
G75*
G02*
X173288750Y-99855000I218750J0D01*
G01*
X173726250Y-99855000D01*
G75*
G02*
X173945000Y-100073750I0J-218750D01*
G01*
X173945000Y-100586250D01*
G75*
G02*
X173726250Y-100805000I-218750J0D01*
G01*
X173288750Y-100805000D01*
G75*
G02*
X173070000Y-100586250I0J218750D01*
G01*
G37*
G36*
G01*
X171495000Y-100586250D02*
X171495000Y-100073750D01*
G75*
G02*
X171713750Y-99855000I218750J0D01*
G01*
X172151250Y-99855000D01*
G75*
G02*
X172370000Y-100073750I0J-218750D01*
G01*
X172370000Y-100586250D01*
G75*
G02*
X172151250Y-100805000I-218750J0D01*
G01*
X171713750Y-100805000D01*
G75*
G02*
X171495000Y-100586250I0J218750D01*
G01*
G37*
D11*
X158370000Y-104140000D03*
X161670000Y-104140000D03*
X161670000Y-100330000D03*
X158370000Y-100330000D03*
X158370000Y-107950000D03*
X161670000Y-107950000D03*
G36*
G01*
X171495000Y-98046250D02*
X171495000Y-97533750D01*
G75*
G02*
X171713750Y-97315000I218750J0D01*
G01*
X172151250Y-97315000D01*
G75*
G02*
X172370000Y-97533750I0J-218750D01*
G01*
X172370000Y-98046250D01*
G75*
G02*
X172151250Y-98265000I-218750J0D01*
G01*
X171713750Y-98265000D01*
G75*
G02*
X171495000Y-98046250I0J218750D01*
G01*
G37*
G36*
G01*
X173070000Y-98046250D02*
X173070000Y-97533750D01*
G75*
G02*
X173288750Y-97315000I218750J0D01*
G01*
X173726250Y-97315000D01*
G75*
G02*
X173945000Y-97533750I0J-218750D01*
G01*
X173945000Y-98046250D01*
G75*
G02*
X173726250Y-98265000I-218750J0D01*
G01*
X173288750Y-98265000D01*
G75*
G02*
X173070000Y-98046250I0J218750D01*
G01*
G37*
D12*
X152670000Y-105730000D03*
X152670000Y-107630000D03*
X154670000Y-106680000D03*
D13*
X159520000Y-92210000D03*
X159520000Y-89920000D03*
X159520000Y-87630000D03*
X159520000Y-85340000D03*
X159520000Y-83050000D03*
X157230000Y-92210000D03*
X157230000Y-89920000D03*
X157230000Y-87630000D03*
X157230000Y-85340000D03*
X157230000Y-83050000D03*
X154940000Y-92210000D03*
X154940000Y-89920000D03*
X154940000Y-87630000D03*
X154940000Y-85340000D03*
X154940000Y-83050000D03*
X152650000Y-92210000D03*
X152650000Y-89920000D03*
X152650000Y-87630000D03*
X152650000Y-85340000D03*
X152650000Y-83050000D03*
X150360000Y-92210000D03*
X150360000Y-89920000D03*
X150360000Y-87630000D03*
X150360000Y-85340000D03*
X150360000Y-83050000D03*
G36*
G01*
X171495000Y-103120000D02*
X171495000Y-102620000D01*
G75*
G02*
X171720000Y-102395000I225000J0D01*
G01*
X172170000Y-102395000D01*
G75*
G02*
X172395000Y-102620000I0J-225000D01*
G01*
X172395000Y-103120000D01*
G75*
G02*
X172170000Y-103345000I-225000J0D01*
G01*
X171720000Y-103345000D01*
G75*
G02*
X171495000Y-103120000I0J225000D01*
G01*
G37*
G36*
G01*
X173045000Y-103120000D02*
X173045000Y-102620000D01*
G75*
G02*
X173270000Y-102395000I225000J0D01*
G01*
X173720000Y-102395000D01*
G75*
G02*
X173945000Y-102620000I0J-225000D01*
G01*
X173945000Y-103120000D01*
G75*
G02*
X173720000Y-103345000I-225000J0D01*
G01*
X173270000Y-103345000D01*
G75*
G02*
X173045000Y-103120000I0J225000D01*
G01*
G37*
G36*
G01*
X173045000Y-105660000D02*
X173045000Y-105160000D01*
G75*
G02*
X173270000Y-104935000I225000J0D01*
G01*
X173720000Y-104935000D01*
G75*
G02*
X173945000Y-105160000I0J-225000D01*
G01*
X173945000Y-105660000D01*
G75*
G02*
X173720000Y-105885000I-225000J0D01*
G01*
X173270000Y-105885000D01*
G75*
G02*
X173045000Y-105660000I0J225000D01*
G01*
G37*
G36*
G01*
X171495000Y-105660000D02*
X171495000Y-105160000D01*
G75*
G02*
X171720000Y-104935000I225000J0D01*
G01*
X172170000Y-104935000D01*
G75*
G02*
X172395000Y-105160000I0J-225000D01*
G01*
X172395000Y-105660000D01*
G75*
G02*
X172170000Y-105885000I-225000J0D01*
G01*
X171720000Y-105885000D01*
G75*
G02*
X171495000Y-105660000I0J225000D01*
G01*
G37*
G36*
G01*
X171495000Y-108200000D02*
X171495000Y-107700000D01*
G75*
G02*
X171720000Y-107475000I225000J0D01*
G01*
X172170000Y-107475000D01*
G75*
G02*
X172395000Y-107700000I0J-225000D01*
G01*
X172395000Y-108200000D01*
G75*
G02*
X172170000Y-108425000I-225000J0D01*
G01*
X171720000Y-108425000D01*
G75*
G02*
X171495000Y-108200000I0J225000D01*
G01*
G37*
G36*
G01*
X173045000Y-108200000D02*
X173045000Y-107700000D01*
G75*
G02*
X173270000Y-107475000I225000J0D01*
G01*
X173720000Y-107475000D01*
G75*
G02*
X173945000Y-107700000I0J-225000D01*
G01*
X173945000Y-108200000D01*
G75*
G02*
X173720000Y-108425000I-225000J0D01*
G01*
X173270000Y-108425000D01*
G75*
G02*
X173045000Y-108200000I0J225000D01*
G01*
G37*
G36*
G01*
X169335000Y-105685000D02*
X169335000Y-105135000D01*
G75*
G02*
X169535000Y-104935000I200000J0D01*
G01*
X169935000Y-104935000D01*
G75*
G02*
X170135000Y-105135000I0J-200000D01*
G01*
X170135000Y-105685000D01*
G75*
G02*
X169935000Y-105885000I-200000J0D01*
G01*
X169535000Y-105885000D01*
G75*
G02*
X169335000Y-105685000I0J200000D01*
G01*
G37*
G36*
G01*
X167685000Y-105685000D02*
X167685000Y-105135000D01*
G75*
G02*
X167885000Y-104935000I200000J0D01*
G01*
X168285000Y-104935000D01*
G75*
G02*
X168485000Y-105135000I0J-200000D01*
G01*
X168485000Y-105685000D01*
G75*
G02*
X168285000Y-105885000I-200000J0D01*
G01*
X167885000Y-105885000D01*
G75*
G02*
X167685000Y-105685000I0J200000D01*
G01*
G37*
G36*
G01*
X170135000Y-89895000D02*
X170135000Y-90445000D01*
G75*
G02*
X169935000Y-90645000I-200000J0D01*
G01*
X169535000Y-90645000D01*
G75*
G02*
X169335000Y-90445000I0J200000D01*
G01*
X169335000Y-89895000D01*
G75*
G02*
X169535000Y-89695000I200000J0D01*
G01*
X169935000Y-89695000D01*
G75*
G02*
X170135000Y-89895000I0J-200000D01*
G01*
G37*
G36*
G01*
X168485000Y-89895000D02*
X168485000Y-90445000D01*
G75*
G02*
X168285000Y-90645000I-200000J0D01*
G01*
X167885000Y-90645000D01*
G75*
G02*
X167685000Y-90445000I0J200000D01*
G01*
X167685000Y-89895000D01*
G75*
G02*
X167885000Y-89695000I200000J0D01*
G01*
X168285000Y-89695000D01*
G75*
G02*
X168485000Y-89895000I0J-200000D01*
G01*
G37*
G36*
G01*
X170135000Y-92435000D02*
X170135000Y-92985000D01*
G75*
G02*
X169935000Y-93185000I-200000J0D01*
G01*
X169535000Y-93185000D01*
G75*
G02*
X169335000Y-92985000I0J200000D01*
G01*
X169335000Y-92435000D01*
G75*
G02*
X169535000Y-92235000I200000J0D01*
G01*
X169935000Y-92235000D01*
G75*
G02*
X170135000Y-92435000I0J-200000D01*
G01*
G37*
G36*
G01*
X168485000Y-92435000D02*
X168485000Y-92985000D01*
G75*
G02*
X168285000Y-93185000I-200000J0D01*
G01*
X167885000Y-93185000D01*
G75*
G02*
X167685000Y-92985000I0J200000D01*
G01*
X167685000Y-92435000D01*
G75*
G02*
X167885000Y-92235000I200000J0D01*
G01*
X168285000Y-92235000D01*
G75*
G02*
X168485000Y-92435000I0J-200000D01*
G01*
G37*
G36*
G01*
X168485000Y-94975000D02*
X168485000Y-95525000D01*
G75*
G02*
X168285000Y-95725000I-200000J0D01*
G01*
X167885000Y-95725000D01*
G75*
G02*
X167685000Y-95525000I0J200000D01*
G01*
X167685000Y-94975000D01*
G75*
G02*
X167885000Y-94775000I200000J0D01*
G01*
X168285000Y-94775000D01*
G75*
G02*
X168485000Y-94975000I0J-200000D01*
G01*
G37*
G36*
G01*
X170135000Y-94975000D02*
X170135000Y-95525000D01*
G75*
G02*
X169935000Y-95725000I-200000J0D01*
G01*
X169535000Y-95725000D01*
G75*
G02*
X169335000Y-95525000I0J200000D01*
G01*
X169335000Y-94975000D01*
G75*
G02*
X169535000Y-94775000I200000J0D01*
G01*
X169935000Y-94775000D01*
G75*
G02*
X170135000Y-94975000I0J-200000D01*
G01*
G37*
G36*
G01*
X168485000Y-100055000D02*
X168485000Y-100605000D01*
G75*
G02*
X168285000Y-100805000I-200000J0D01*
G01*
X167885000Y-100805000D01*
G75*
G02*
X167685000Y-100605000I0J200000D01*
G01*
X167685000Y-100055000D01*
G75*
G02*
X167885000Y-99855000I200000J0D01*
G01*
X168285000Y-99855000D01*
G75*
G02*
X168485000Y-100055000I0J-200000D01*
G01*
G37*
G36*
G01*
X170135000Y-100055000D02*
X170135000Y-100605000D01*
G75*
G02*
X169935000Y-100805000I-200000J0D01*
G01*
X169535000Y-100805000D01*
G75*
G02*
X169335000Y-100605000I0J200000D01*
G01*
X169335000Y-100055000D01*
G75*
G02*
X169535000Y-99855000I200000J0D01*
G01*
X169935000Y-99855000D01*
G75*
G02*
X170135000Y-100055000I0J-200000D01*
G01*
G37*
G36*
G01*
X167685000Y-103145000D02*
X167685000Y-102595000D01*
G75*
G02*
X167885000Y-102395000I200000J0D01*
G01*
X168285000Y-102395000D01*
G75*
G02*
X168485000Y-102595000I0J-200000D01*
G01*
X168485000Y-103145000D01*
G75*
G02*
X168285000Y-103345000I-200000J0D01*
G01*
X167885000Y-103345000D01*
G75*
G02*
X167685000Y-103145000I0J200000D01*
G01*
G37*
G36*
G01*
X169335000Y-103145000D02*
X169335000Y-102595000D01*
G75*
G02*
X169535000Y-102395000I200000J0D01*
G01*
X169935000Y-102395000D01*
G75*
G02*
X170135000Y-102595000I0J-200000D01*
G01*
X170135000Y-103145000D01*
G75*
G02*
X169935000Y-103345000I-200000J0D01*
G01*
X169535000Y-103345000D01*
G75*
G02*
X169335000Y-103145000I0J200000D01*
G01*
G37*
G36*
G01*
X170135000Y-97515000D02*
X170135000Y-98065000D01*
G75*
G02*
X169935000Y-98265000I-200000J0D01*
G01*
X169535000Y-98265000D01*
G75*
G02*
X169335000Y-98065000I0J200000D01*
G01*
X169335000Y-97515000D01*
G75*
G02*
X169535000Y-97315000I200000J0D01*
G01*
X169935000Y-97315000D01*
G75*
G02*
X170135000Y-97515000I0J-200000D01*
G01*
G37*
G36*
G01*
X168485000Y-97515000D02*
X168485000Y-98065000D01*
G75*
G02*
X168285000Y-98265000I-200000J0D01*
G01*
X167885000Y-98265000D01*
G75*
G02*
X167685000Y-98065000I0J200000D01*
G01*
X167685000Y-97515000D01*
G75*
G02*
X167885000Y-97315000I200000J0D01*
G01*
X168285000Y-97315000D01*
G75*
G02*
X168485000Y-97515000I0J-200000D01*
G01*
G37*
D14*
X120145000Y-72260000D03*
X122685000Y-72260000D03*
X125225000Y-72260000D03*
X127765000Y-72260000D03*
X130305000Y-72260000D03*
X132845000Y-72260000D03*
X135385000Y-72260000D03*
X137925000Y-72260000D03*
X140465000Y-72260000D03*
X143005000Y-72260000D03*
X145545000Y-72260000D03*
X148085000Y-72260000D03*
X150625000Y-72260000D03*
X153165000Y-72260000D03*
X155705000Y-72260000D03*
X158245000Y-72260000D03*
X160785000Y-72260000D03*
X163325000Y-72260000D03*
X165865000Y-72260000D03*
X168405000Y-72260000D03*
X120145000Y-66440000D03*
X122685000Y-66440000D03*
X125225000Y-66440000D03*
X127765000Y-66440000D03*
X130305000Y-66440000D03*
X132845000Y-66440000D03*
X135385000Y-66440000D03*
X137925000Y-66440000D03*
X140465000Y-66440000D03*
X143005000Y-66440000D03*
X145545000Y-66440000D03*
X148085000Y-66440000D03*
X150625000Y-66440000D03*
X153165000Y-66440000D03*
X155705000Y-66440000D03*
X158245000Y-66440000D03*
X160785000Y-66440000D03*
X163325000Y-66440000D03*
X165865000Y-66440000D03*
X168405000Y-66440000D03*
G36*
G01*
X138173750Y-104185000D02*
X138686250Y-104185000D01*
G75*
G02*
X138905000Y-104403750I0J-218750D01*
G01*
X138905000Y-104841250D01*
G75*
G02*
X138686250Y-105060000I-218750J0D01*
G01*
X138173750Y-105060000D01*
G75*
G02*
X137955000Y-104841250I0J218750D01*
G01*
X137955000Y-104403750D01*
G75*
G02*
X138173750Y-104185000I218750J0D01*
G01*
G37*
G36*
G01*
X138173750Y-105760000D02*
X138686250Y-105760000D01*
G75*
G02*
X138905000Y-105978750I0J-218750D01*
G01*
X138905000Y-106416250D01*
G75*
G02*
X138686250Y-106635000I-218750J0D01*
G01*
X138173750Y-106635000D01*
G75*
G02*
X137955000Y-106416250I0J218750D01*
G01*
X137955000Y-105978750D01*
G75*
G02*
X138173750Y-105760000I218750J0D01*
G01*
G37*
G36*
G01*
X143253750Y-105760000D02*
X143766250Y-105760000D01*
G75*
G02*
X143985000Y-105978750I0J-218750D01*
G01*
X143985000Y-106416250D01*
G75*
G02*
X143766250Y-106635000I-218750J0D01*
G01*
X143253750Y-106635000D01*
G75*
G02*
X143035000Y-106416250I0J218750D01*
G01*
X143035000Y-105978750D01*
G75*
G02*
X143253750Y-105760000I218750J0D01*
G01*
G37*
G36*
G01*
X143253750Y-104185000D02*
X143766250Y-104185000D01*
G75*
G02*
X143985000Y-104403750I0J-218750D01*
G01*
X143985000Y-104841250D01*
G75*
G02*
X143766250Y-105060000I-218750J0D01*
G01*
X143253750Y-105060000D01*
G75*
G02*
X143035000Y-104841250I0J218750D01*
G01*
X143035000Y-104403750D01*
G75*
G02*
X143253750Y-104185000I218750J0D01*
G01*
G37*
G36*
G01*
X135615000Y-104185000D02*
X136165000Y-104185000D01*
G75*
G02*
X136365000Y-104385000I0J-200000D01*
G01*
X136365000Y-104785000D01*
G75*
G02*
X136165000Y-104985000I-200000J0D01*
G01*
X135615000Y-104985000D01*
G75*
G02*
X135415000Y-104785000I0J200000D01*
G01*
X135415000Y-104385000D01*
G75*
G02*
X135615000Y-104185000I200000J0D01*
G01*
G37*
G36*
G01*
X135615000Y-105835000D02*
X136165000Y-105835000D01*
G75*
G02*
X136365000Y-106035000I0J-200000D01*
G01*
X136365000Y-106435000D01*
G75*
G02*
X136165000Y-106635000I-200000J0D01*
G01*
X135615000Y-106635000D01*
G75*
G02*
X135415000Y-106435000I0J200000D01*
G01*
X135415000Y-106035000D01*
G75*
G02*
X135615000Y-105835000I200000J0D01*
G01*
G37*
G36*
G01*
X140695000Y-105835000D02*
X141245000Y-105835000D01*
G75*
G02*
X141445000Y-106035000I0J-200000D01*
G01*
X141445000Y-106435000D01*
G75*
G02*
X141245000Y-106635000I-200000J0D01*
G01*
X140695000Y-106635000D01*
G75*
G02*
X140495000Y-106435000I0J200000D01*
G01*
X140495000Y-106035000D01*
G75*
G02*
X140695000Y-105835000I200000J0D01*
G01*
G37*
G36*
G01*
X140695000Y-104185000D02*
X141245000Y-104185000D01*
G75*
G02*
X141445000Y-104385000I0J-200000D01*
G01*
X141445000Y-104785000D01*
G75*
G02*
X141245000Y-104985000I-200000J0D01*
G01*
X140695000Y-104985000D01*
G75*
G02*
X140495000Y-104785000I0J200000D01*
G01*
X140495000Y-104385000D01*
G75*
G02*
X140695000Y-104185000I200000J0D01*
G01*
G37*
M02*
