G04 #@! TF.GenerationSoftware,KiCad,Pcbnew,5.1.5-52549c5~84~ubuntu18.04.1*
G04 #@! TF.CreationDate,2020-03-25T22:59:01-04:00*
G04 #@! TF.ProjectId,imac_g3_slot_loading_J22_adapter_board,696d6163-5f67-4335-9f73-6c6f745f6c6f,2*
G04 #@! TF.SameCoordinates,Original*
G04 #@! TF.FileFunction,Copper,L1,Top*
G04 #@! TF.FilePolarity,Positive*
%FSLAX46Y46*%
G04 Gerber Fmt 4.6, Leading zero omitted, Abs format (unit mm)*
G04 Created by KiCad (PCBNEW 5.1.5-52549c5~84~ubuntu18.04.1) date 2020-03-25 22:59:01*
%MOMM*%
%LPD*%
G04 APERTURE LIST*
%ADD10R,1.700000X1.700000*%
%ADD11O,1.700000X1.700000*%
%ADD12C,7.000000*%
%ADD13C,2.800000*%
%ADD14O,1.600000X1.600000*%
%ADD15C,1.600000*%
%ADD16R,2.600000X2.600000*%
%ADD17C,2.600000*%
%ADD18C,0.250000*%
%ADD19C,1.587600*%
%ADD20C,0.254000*%
G04 APERTURE END LIST*
D10*
X161544000Y-91948000D03*
D11*
X161544000Y-89408000D03*
X159004000Y-91948000D03*
X159004000Y-89408000D03*
X156464000Y-91948000D03*
X156464000Y-89408000D03*
X153924000Y-91948000D03*
X153924000Y-89408000D03*
X151384000Y-91948000D03*
X151384000Y-89408000D03*
X148844000Y-91948000D03*
X148844000Y-89408000D03*
X146304000Y-91948000D03*
X146304000Y-89408000D03*
X143764000Y-91948000D03*
X143764000Y-89408000D03*
X141224000Y-91948000D03*
X141224000Y-89408000D03*
X138684000Y-91948000D03*
X138684000Y-89408000D03*
X136144000Y-91948000D03*
X136144000Y-89408000D03*
X133604000Y-91948000D03*
X133604000Y-89408000D03*
X131064000Y-91948000D03*
X131064000Y-89408000D03*
D12*
X110172000Y-96038000D03*
D13*
X165582000Y-110518000D03*
X163582000Y-108118000D03*
X163582000Y-102618000D03*
D14*
X143992000Y-97818000D03*
D15*
X136372000Y-97818000D03*
X149072000Y-97818000D03*
D14*
X156692000Y-97818000D03*
D16*
X109702000Y-106708000D03*
D17*
X114702000Y-106708000D03*
X119702000Y-106708000D03*
X124702000Y-106708000D03*
X129702000Y-106708000D03*
X134702000Y-106708000D03*
X139702000Y-106708000D03*
X144702000Y-106708000D03*
X149702000Y-106708000D03*
X154702000Y-106708000D03*
D10*
X123672000Y-94008000D03*
D11*
X126212000Y-94008000D03*
X123672000Y-96548000D03*
X126212000Y-96548000D03*
X123672000Y-99088000D03*
X126212000Y-99088000D03*
D18*
X147994001Y-91098001D02*
X148844000Y-91948000D01*
X147479001Y-90583001D02*
X147994001Y-91098001D01*
X142399001Y-90583001D02*
X147479001Y-90583001D01*
X141224000Y-89408000D02*
X142399001Y-90583001D01*
X123672000Y-95183300D02*
X123304700Y-95183300D01*
X123304700Y-95183300D02*
X121994900Y-96493100D01*
X121994900Y-96493100D02*
X121994900Y-99732100D01*
X121994900Y-99732100D02*
X123020600Y-100757800D01*
X123020600Y-100757800D02*
X144531200Y-100757800D01*
X144531200Y-100757800D02*
X148946400Y-96342600D01*
X148946400Y-96342600D02*
X151270700Y-96342600D01*
X151270700Y-96342600D02*
X155288700Y-92324600D01*
X155288700Y-92324600D02*
X155288700Y-91948000D01*
X156464000Y-91948000D02*
X155288700Y-91948000D01*
X123672000Y-94008000D02*
X123672000Y-95183300D01*
X156464000Y-89408000D02*
X155288700Y-89408000D01*
X126212000Y-94008000D02*
X127387300Y-94008000D01*
X127387300Y-94008000D02*
X127387300Y-93934500D01*
X127387300Y-93934500D02*
X130738400Y-90583400D01*
X130738400Y-90583400D02*
X134129600Y-90583400D01*
X134129600Y-90583400D02*
X134874000Y-89839000D01*
X134874000Y-89839000D02*
X134874000Y-88996800D01*
X134874000Y-88996800D02*
X136088500Y-87782300D01*
X136088500Y-87782300D02*
X154028300Y-87782300D01*
X154028300Y-87782300D02*
X155288700Y-89042700D01*
X155288700Y-89042700D02*
X155288700Y-89408000D01*
X153924000Y-91948000D02*
X152748700Y-91948000D01*
X123672000Y-96548000D02*
X123672000Y-97723300D01*
X123672000Y-97723300D02*
X123304700Y-97723300D01*
X123304700Y-97723300D02*
X122445300Y-98582700D01*
X122445300Y-98582700D02*
X122445300Y-99545600D01*
X122445300Y-99545600D02*
X123163000Y-100263300D01*
X123163000Y-100263300D02*
X143789100Y-100263300D01*
X143789100Y-100263300D02*
X150401200Y-93651200D01*
X150401200Y-93651200D02*
X151559700Y-93651200D01*
X151559700Y-93651200D02*
X152748700Y-92462200D01*
X152748700Y-92462200D02*
X152748700Y-91948000D01*
X153924000Y-89408000D02*
X152748700Y-89408000D01*
X126212000Y-96548000D02*
X127387300Y-96548000D01*
X127387300Y-96548000D02*
X133293900Y-96548000D01*
X133293900Y-96548000D02*
X137508600Y-92333300D01*
X137508600Y-92333300D02*
X137508600Y-91422400D01*
X137508600Y-91422400D02*
X138347600Y-90583400D01*
X138347600Y-90583400D02*
X139209600Y-90583400D01*
X139209600Y-90583400D02*
X139954000Y-89839000D01*
X139954000Y-89839000D02*
X139954000Y-88924900D01*
X139954000Y-88924900D02*
X140646200Y-88232700D01*
X140646200Y-88232700D02*
X151940800Y-88232700D01*
X151940800Y-88232700D02*
X152748700Y-89040600D01*
X152748700Y-89040600D02*
X152748700Y-89408000D01*
X151384000Y-91948000D02*
X151384000Y-93123300D01*
X151384000Y-93123300D02*
X150292200Y-93123300D01*
X150292200Y-93123300D02*
X144449200Y-98966300D01*
X144449200Y-98966300D02*
X127752500Y-98966300D01*
X127752500Y-98966300D02*
X126698900Y-97912700D01*
X126698900Y-97912700D02*
X125725100Y-97912700D01*
X125725100Y-97912700D02*
X124847300Y-98790500D01*
X124847300Y-98790500D02*
X124847300Y-99088000D01*
X123672000Y-99088000D02*
X124847300Y-99088000D01*
X138684000Y-91948000D02*
X139859300Y-91948000D01*
X143992000Y-97818000D02*
X143992000Y-96692700D01*
X143992000Y-96692700D02*
X139859300Y-92560000D01*
X139859300Y-92560000D02*
X139859300Y-91948000D01*
D19*
X133604000Y-89408000D02*
X131064000Y-89408000D01*
X116052000Y-100819250D02*
X110163250Y-106708000D01*
X116052000Y-90198000D02*
X116052000Y-100819250D01*
X131064000Y-89408000D02*
X116842000Y-89408000D01*
X110163250Y-106708000D02*
X109702000Y-106708000D01*
X116842000Y-89408000D02*
X116052000Y-90198000D01*
D18*
X129702000Y-106708000D02*
X133802400Y-102607600D01*
X133802400Y-102607600D02*
X144282400Y-102607600D01*
X144282400Y-102607600D02*
X149072000Y-97818000D01*
D20*
G36*
X134545142Y-88250857D02*
G01*
X134307411Y-88092010D01*
X134037158Y-87980068D01*
X133750260Y-87923000D01*
X133457740Y-87923000D01*
X133175206Y-87979200D01*
X131492794Y-87979200D01*
X131210260Y-87923000D01*
X130917740Y-87923000D01*
X130635206Y-87979200D01*
X116912181Y-87979200D01*
X116842000Y-87972288D01*
X116771819Y-87979200D01*
X116771812Y-87979200D01*
X116561906Y-87999874D01*
X116292576Y-88081574D01*
X116044361Y-88214248D01*
X115826798Y-88392798D01*
X115782052Y-88447321D01*
X115091317Y-89138056D01*
X115036798Y-89182799D01*
X114858248Y-89400362D01*
X114735265Y-89630446D01*
X114725574Y-89648577D01*
X114648781Y-89901732D01*
X114643874Y-89917907D01*
X114623200Y-90127813D01*
X114623200Y-90127819D01*
X114616288Y-90198000D01*
X114623200Y-90268181D01*
X114623201Y-100227421D01*
X110080695Y-104769928D01*
X108402000Y-104769928D01*
X108277518Y-104782188D01*
X108157820Y-104818498D01*
X108047506Y-104877463D01*
X107950815Y-104956815D01*
X107871463Y-105053506D01*
X107812498Y-105163820D01*
X107776188Y-105283518D01*
X107763928Y-105408000D01*
X107763928Y-108008000D01*
X107776188Y-108132482D01*
X107812498Y-108252180D01*
X107871463Y-108362494D01*
X107950815Y-108459185D01*
X108047506Y-108538537D01*
X108157820Y-108597502D01*
X108277518Y-108633812D01*
X108402000Y-108646072D01*
X111002000Y-108646072D01*
X111126482Y-108633812D01*
X111246180Y-108597502D01*
X111356494Y-108538537D01*
X111453185Y-108459185D01*
X111532537Y-108362494D01*
X111591502Y-108252180D01*
X111627812Y-108132482D01*
X111640072Y-108008000D01*
X111640072Y-107251805D01*
X112907168Y-105984710D01*
X112841361Y-106143581D01*
X112767000Y-106517419D01*
X112767000Y-106898581D01*
X112841361Y-107272419D01*
X112987225Y-107624566D01*
X113198987Y-107941491D01*
X113468509Y-108211013D01*
X113785434Y-108422775D01*
X114137581Y-108568639D01*
X114511419Y-108643000D01*
X114892581Y-108643000D01*
X115266419Y-108568639D01*
X115618566Y-108422775D01*
X115935491Y-108211013D01*
X116205013Y-107941491D01*
X116416775Y-107624566D01*
X116562639Y-107272419D01*
X116637000Y-106898581D01*
X116637000Y-106517419D01*
X117767000Y-106517419D01*
X117767000Y-106898581D01*
X117841361Y-107272419D01*
X117987225Y-107624566D01*
X118198987Y-107941491D01*
X118468509Y-108211013D01*
X118785434Y-108422775D01*
X119137581Y-108568639D01*
X119511419Y-108643000D01*
X119892581Y-108643000D01*
X120266419Y-108568639D01*
X120618566Y-108422775D01*
X120935491Y-108211013D01*
X121205013Y-107941491D01*
X121416775Y-107624566D01*
X121562639Y-107272419D01*
X121637000Y-106898581D01*
X121637000Y-106517419D01*
X122767000Y-106517419D01*
X122767000Y-106898581D01*
X122841361Y-107272419D01*
X122987225Y-107624566D01*
X123198987Y-107941491D01*
X123468509Y-108211013D01*
X123785434Y-108422775D01*
X124137581Y-108568639D01*
X124511419Y-108643000D01*
X124892581Y-108643000D01*
X125266419Y-108568639D01*
X125618566Y-108422775D01*
X125935491Y-108211013D01*
X126205013Y-107941491D01*
X126416775Y-107624566D01*
X126562639Y-107272419D01*
X126637000Y-106898581D01*
X126637000Y-106517419D01*
X126562639Y-106143581D01*
X126416775Y-105791434D01*
X126205013Y-105474509D01*
X125935491Y-105204987D01*
X125618566Y-104993225D01*
X125266419Y-104847361D01*
X124892581Y-104773000D01*
X124511419Y-104773000D01*
X124137581Y-104847361D01*
X123785434Y-104993225D01*
X123468509Y-105204987D01*
X123198987Y-105474509D01*
X122987225Y-105791434D01*
X122841361Y-106143581D01*
X122767000Y-106517419D01*
X121637000Y-106517419D01*
X121562639Y-106143581D01*
X121416775Y-105791434D01*
X121205013Y-105474509D01*
X120935491Y-105204987D01*
X120618566Y-104993225D01*
X120266419Y-104847361D01*
X119892581Y-104773000D01*
X119511419Y-104773000D01*
X119137581Y-104847361D01*
X118785434Y-104993225D01*
X118468509Y-105204987D01*
X118198987Y-105474509D01*
X117987225Y-105791434D01*
X117841361Y-106143581D01*
X117767000Y-106517419D01*
X116637000Y-106517419D01*
X116562639Y-106143581D01*
X116416775Y-105791434D01*
X116205013Y-105474509D01*
X115935491Y-105204987D01*
X115618566Y-104993225D01*
X115266419Y-104847361D01*
X114892581Y-104773000D01*
X114511419Y-104773000D01*
X114137581Y-104847361D01*
X113978710Y-104913168D01*
X117012684Y-101879194D01*
X117067202Y-101834452D01*
X117245752Y-101616889D01*
X117378426Y-101368674D01*
X117460126Y-101099344D01*
X117480800Y-100889438D01*
X117480800Y-100889429D01*
X117487712Y-100819251D01*
X117480800Y-100749072D01*
X117480800Y-90836800D01*
X129410198Y-90836800D01*
X127275553Y-92971446D01*
X127158632Y-92854525D01*
X126915411Y-92692010D01*
X126645158Y-92580068D01*
X126358260Y-92523000D01*
X126065740Y-92523000D01*
X125778842Y-92580068D01*
X125508589Y-92692010D01*
X125265368Y-92854525D01*
X125133513Y-92986380D01*
X125111502Y-92913820D01*
X125052537Y-92803506D01*
X124973185Y-92706815D01*
X124876494Y-92627463D01*
X124766180Y-92568498D01*
X124646482Y-92532188D01*
X124522000Y-92519928D01*
X122822000Y-92519928D01*
X122697518Y-92532188D01*
X122577820Y-92568498D01*
X122467506Y-92627463D01*
X122370815Y-92706815D01*
X122291463Y-92803506D01*
X122232498Y-92913820D01*
X122196188Y-93033518D01*
X122183928Y-93158000D01*
X122183928Y-94858000D01*
X122196188Y-94982482D01*
X122232498Y-95102180D01*
X122259849Y-95153349D01*
X121483903Y-95929296D01*
X121454899Y-95953099D01*
X121414888Y-96001853D01*
X121359926Y-96068824D01*
X121357081Y-96074147D01*
X121289354Y-96200854D01*
X121245897Y-96344115D01*
X121234900Y-96455768D01*
X121234900Y-96455778D01*
X121231224Y-96493100D01*
X121234900Y-96530423D01*
X121234901Y-99694768D01*
X121231224Y-99732100D01*
X121234901Y-99769433D01*
X121243002Y-99851677D01*
X121245898Y-99881085D01*
X121289354Y-100024346D01*
X121359926Y-100156376D01*
X121429766Y-100241475D01*
X121454900Y-100272101D01*
X121483898Y-100295899D01*
X122456801Y-101268803D01*
X122480599Y-101297801D01*
X122596324Y-101392774D01*
X122728353Y-101463346D01*
X122871614Y-101506803D01*
X122983267Y-101517800D01*
X122983277Y-101517800D01*
X123020600Y-101521476D01*
X123057923Y-101517800D01*
X144297399Y-101517800D01*
X143967599Y-101847600D01*
X133839722Y-101847600D01*
X133802399Y-101843924D01*
X133765076Y-101847600D01*
X133765067Y-101847600D01*
X133653414Y-101858597D01*
X133510153Y-101902054D01*
X133378124Y-101972626D01*
X133262399Y-102067599D01*
X133238601Y-102096597D01*
X130422986Y-104912213D01*
X130266419Y-104847361D01*
X129892581Y-104773000D01*
X129511419Y-104773000D01*
X129137581Y-104847361D01*
X128785434Y-104993225D01*
X128468509Y-105204987D01*
X128198987Y-105474509D01*
X127987225Y-105791434D01*
X127841361Y-106143581D01*
X127767000Y-106517419D01*
X127767000Y-106898581D01*
X127841361Y-107272419D01*
X127987225Y-107624566D01*
X128198987Y-107941491D01*
X128468509Y-108211013D01*
X128785434Y-108422775D01*
X129137581Y-108568639D01*
X129511419Y-108643000D01*
X129892581Y-108643000D01*
X130266419Y-108568639D01*
X130618566Y-108422775D01*
X130935491Y-108211013D01*
X131089280Y-108057224D01*
X133532381Y-108057224D01*
X133664317Y-108352312D01*
X134005045Y-108523159D01*
X134372557Y-108624250D01*
X134752729Y-108651701D01*
X135130951Y-108604457D01*
X135492690Y-108484333D01*
X135739683Y-108352312D01*
X135871619Y-108057224D01*
X134702000Y-106887605D01*
X133532381Y-108057224D01*
X131089280Y-108057224D01*
X131205013Y-107941491D01*
X131416775Y-107624566D01*
X131562639Y-107272419D01*
X131637000Y-106898581D01*
X131637000Y-106758729D01*
X132758299Y-106758729D01*
X132805543Y-107136951D01*
X132925667Y-107498690D01*
X133057688Y-107745683D01*
X133352776Y-107877619D01*
X134522395Y-106708000D01*
X134881605Y-106708000D01*
X136051224Y-107877619D01*
X136346312Y-107745683D01*
X136517159Y-107404955D01*
X136618250Y-107037443D01*
X136645701Y-106657271D01*
X136628232Y-106517419D01*
X137767000Y-106517419D01*
X137767000Y-106898581D01*
X137841361Y-107272419D01*
X137987225Y-107624566D01*
X138198987Y-107941491D01*
X138468509Y-108211013D01*
X138785434Y-108422775D01*
X139137581Y-108568639D01*
X139511419Y-108643000D01*
X139892581Y-108643000D01*
X140266419Y-108568639D01*
X140618566Y-108422775D01*
X140935491Y-108211013D01*
X141205013Y-107941491D01*
X141416775Y-107624566D01*
X141562639Y-107272419D01*
X141637000Y-106898581D01*
X141637000Y-106517419D01*
X142767000Y-106517419D01*
X142767000Y-106898581D01*
X142841361Y-107272419D01*
X142987225Y-107624566D01*
X143198987Y-107941491D01*
X143468509Y-108211013D01*
X143785434Y-108422775D01*
X144137581Y-108568639D01*
X144511419Y-108643000D01*
X144892581Y-108643000D01*
X145266419Y-108568639D01*
X145618566Y-108422775D01*
X145935491Y-108211013D01*
X146205013Y-107941491D01*
X146416775Y-107624566D01*
X146562639Y-107272419D01*
X146637000Y-106898581D01*
X146637000Y-106517419D01*
X147767000Y-106517419D01*
X147767000Y-106898581D01*
X147841361Y-107272419D01*
X147987225Y-107624566D01*
X148198987Y-107941491D01*
X148468509Y-108211013D01*
X148785434Y-108422775D01*
X149137581Y-108568639D01*
X149511419Y-108643000D01*
X149892581Y-108643000D01*
X150266419Y-108568639D01*
X150618566Y-108422775D01*
X150935491Y-108211013D01*
X151205013Y-107941491D01*
X151416775Y-107624566D01*
X151562639Y-107272419D01*
X151637000Y-106898581D01*
X151637000Y-106517419D01*
X152767000Y-106517419D01*
X152767000Y-106898581D01*
X152841361Y-107272419D01*
X152987225Y-107624566D01*
X153198987Y-107941491D01*
X153468509Y-108211013D01*
X153785434Y-108422775D01*
X154137581Y-108568639D01*
X154511419Y-108643000D01*
X154892581Y-108643000D01*
X155266419Y-108568639D01*
X155618566Y-108422775D01*
X155935491Y-108211013D01*
X156205013Y-107941491D01*
X156220996Y-107917570D01*
X161547000Y-107917570D01*
X161547000Y-108318430D01*
X161625204Y-108711587D01*
X161778607Y-109081934D01*
X162001313Y-109415237D01*
X162284763Y-109698687D01*
X162618066Y-109921393D01*
X162988413Y-110074796D01*
X163381570Y-110153000D01*
X163571202Y-110153000D01*
X163567845Y-110165053D01*
X163537690Y-110564777D01*
X163586096Y-110962704D01*
X163711205Y-111343540D01*
X163856230Y-111614865D01*
X164161553Y-111758842D01*
X165402395Y-110518000D01*
X165761605Y-110518000D01*
X167002447Y-111758842D01*
X167307770Y-111614865D01*
X167488597Y-111257108D01*
X167596155Y-110870947D01*
X167626310Y-110471223D01*
X167577904Y-110073296D01*
X167452795Y-109692460D01*
X167307770Y-109421135D01*
X167002447Y-109277158D01*
X165761605Y-110518000D01*
X165402395Y-110518000D01*
X165388253Y-110503858D01*
X165567858Y-110324253D01*
X165582000Y-110338395D01*
X166822842Y-109097553D01*
X166678865Y-108792230D01*
X166321108Y-108611403D01*
X165934947Y-108503845D01*
X165585364Y-108477473D01*
X165617000Y-108318430D01*
X165617000Y-107917570D01*
X165538796Y-107524413D01*
X165385393Y-107154066D01*
X165162687Y-106820763D01*
X164879237Y-106537313D01*
X164545934Y-106314607D01*
X164175587Y-106161204D01*
X163782430Y-106083000D01*
X163381570Y-106083000D01*
X162988413Y-106161204D01*
X162618066Y-106314607D01*
X162284763Y-106537313D01*
X162001313Y-106820763D01*
X161778607Y-107154066D01*
X161625204Y-107524413D01*
X161547000Y-107917570D01*
X156220996Y-107917570D01*
X156416775Y-107624566D01*
X156562639Y-107272419D01*
X156637000Y-106898581D01*
X156637000Y-106517419D01*
X156562639Y-106143581D01*
X156416775Y-105791434D01*
X156205013Y-105474509D01*
X155935491Y-105204987D01*
X155618566Y-104993225D01*
X155266419Y-104847361D01*
X154892581Y-104773000D01*
X154511419Y-104773000D01*
X154137581Y-104847361D01*
X153785434Y-104993225D01*
X153468509Y-105204987D01*
X153198987Y-105474509D01*
X152987225Y-105791434D01*
X152841361Y-106143581D01*
X152767000Y-106517419D01*
X151637000Y-106517419D01*
X151562639Y-106143581D01*
X151416775Y-105791434D01*
X151205013Y-105474509D01*
X150935491Y-105204987D01*
X150618566Y-104993225D01*
X150266419Y-104847361D01*
X149892581Y-104773000D01*
X149511419Y-104773000D01*
X149137581Y-104847361D01*
X148785434Y-104993225D01*
X148468509Y-105204987D01*
X148198987Y-105474509D01*
X147987225Y-105791434D01*
X147841361Y-106143581D01*
X147767000Y-106517419D01*
X146637000Y-106517419D01*
X146562639Y-106143581D01*
X146416775Y-105791434D01*
X146205013Y-105474509D01*
X145935491Y-105204987D01*
X145618566Y-104993225D01*
X145266419Y-104847361D01*
X144892581Y-104773000D01*
X144511419Y-104773000D01*
X144137581Y-104847361D01*
X143785434Y-104993225D01*
X143468509Y-105204987D01*
X143198987Y-105474509D01*
X142987225Y-105791434D01*
X142841361Y-106143581D01*
X142767000Y-106517419D01*
X141637000Y-106517419D01*
X141562639Y-106143581D01*
X141416775Y-105791434D01*
X141205013Y-105474509D01*
X140935491Y-105204987D01*
X140618566Y-104993225D01*
X140266419Y-104847361D01*
X139892581Y-104773000D01*
X139511419Y-104773000D01*
X139137581Y-104847361D01*
X138785434Y-104993225D01*
X138468509Y-105204987D01*
X138198987Y-105474509D01*
X137987225Y-105791434D01*
X137841361Y-106143581D01*
X137767000Y-106517419D01*
X136628232Y-106517419D01*
X136598457Y-106279049D01*
X136478333Y-105917310D01*
X136346312Y-105670317D01*
X136051224Y-105538381D01*
X134881605Y-106708000D01*
X134522395Y-106708000D01*
X133352776Y-105538381D01*
X133057688Y-105670317D01*
X132886841Y-106011045D01*
X132785750Y-106378557D01*
X132758299Y-106758729D01*
X131637000Y-106758729D01*
X131637000Y-106517419D01*
X131562639Y-106143581D01*
X131497787Y-105987014D01*
X132126025Y-105358776D01*
X133532381Y-105358776D01*
X134702000Y-106528395D01*
X135871619Y-105358776D01*
X135739683Y-105063688D01*
X135398955Y-104892841D01*
X135031443Y-104791750D01*
X134651271Y-104764299D01*
X134273049Y-104811543D01*
X133911310Y-104931667D01*
X133664317Y-105063688D01*
X133532381Y-105358776D01*
X132126025Y-105358776D01*
X134117202Y-103367600D01*
X144245078Y-103367600D01*
X144282400Y-103371276D01*
X144319722Y-103367600D01*
X144319733Y-103367600D01*
X144431386Y-103356603D01*
X144574647Y-103313146D01*
X144706676Y-103242574D01*
X144822401Y-103147601D01*
X144846204Y-103118597D01*
X145547231Y-102417570D01*
X161547000Y-102417570D01*
X161547000Y-102818430D01*
X161625204Y-103211587D01*
X161778607Y-103581934D01*
X162001313Y-103915237D01*
X162284763Y-104198687D01*
X162618066Y-104421393D01*
X162988413Y-104574796D01*
X163381570Y-104653000D01*
X163782430Y-104653000D01*
X164175587Y-104574796D01*
X164545934Y-104421393D01*
X164879237Y-104198687D01*
X165162687Y-103915237D01*
X165385393Y-103581934D01*
X165538796Y-103211587D01*
X165617000Y-102818430D01*
X165617000Y-102417570D01*
X165538796Y-102024413D01*
X165385393Y-101654066D01*
X165162687Y-101320763D01*
X164879237Y-101037313D01*
X164545934Y-100814607D01*
X164175587Y-100661204D01*
X163782430Y-100583000D01*
X163381570Y-100583000D01*
X162988413Y-100661204D01*
X162618066Y-100814607D01*
X162284763Y-101037313D01*
X162001313Y-101320763D01*
X161778607Y-101654066D01*
X161625204Y-102024413D01*
X161547000Y-102417570D01*
X145547231Y-102417570D01*
X148748114Y-99216688D01*
X148930665Y-99253000D01*
X149213335Y-99253000D01*
X149490574Y-99197853D01*
X149751727Y-99089680D01*
X149986759Y-98932637D01*
X150186637Y-98732759D01*
X150343680Y-98497727D01*
X150451853Y-98236574D01*
X150507000Y-97959335D01*
X150507000Y-97676665D01*
X155257000Y-97676665D01*
X155257000Y-97959335D01*
X155312147Y-98236574D01*
X155420320Y-98497727D01*
X155577363Y-98732759D01*
X155777241Y-98932637D01*
X156012273Y-99089680D01*
X156273426Y-99197853D01*
X156550665Y-99253000D01*
X156833335Y-99253000D01*
X157110574Y-99197853D01*
X157371727Y-99089680D01*
X157606759Y-98932637D01*
X157806637Y-98732759D01*
X157963680Y-98497727D01*
X158071853Y-98236574D01*
X158127000Y-97959335D01*
X158127000Y-97676665D01*
X158071853Y-97399426D01*
X157963680Y-97138273D01*
X157806637Y-96903241D01*
X157606759Y-96703363D01*
X157371727Y-96546320D01*
X157110574Y-96438147D01*
X156833335Y-96383000D01*
X156550665Y-96383000D01*
X156273426Y-96438147D01*
X156012273Y-96546320D01*
X155777241Y-96703363D01*
X155577363Y-96903241D01*
X155420320Y-97138273D01*
X155312147Y-97399426D01*
X155257000Y-97676665D01*
X150507000Y-97676665D01*
X150451853Y-97399426D01*
X150343680Y-97138273D01*
X150319844Y-97102600D01*
X151233378Y-97102600D01*
X151270700Y-97106276D01*
X151308022Y-97102600D01*
X151308033Y-97102600D01*
X151419686Y-97091603D01*
X151562947Y-97048146D01*
X151694976Y-96977574D01*
X151810701Y-96882601D01*
X151834504Y-96853597D01*
X155558886Y-93129216D01*
X155760589Y-93263990D01*
X156030842Y-93375932D01*
X156317740Y-93433000D01*
X156610260Y-93433000D01*
X156897158Y-93375932D01*
X157167411Y-93263990D01*
X157410632Y-93101475D01*
X157617475Y-92894632D01*
X157734000Y-92720240D01*
X157850525Y-92894632D01*
X158057368Y-93101475D01*
X158300589Y-93263990D01*
X158570842Y-93375932D01*
X158857740Y-93433000D01*
X159150260Y-93433000D01*
X159437158Y-93375932D01*
X159707411Y-93263990D01*
X159950632Y-93101475D01*
X160082487Y-92969620D01*
X160104498Y-93042180D01*
X160163463Y-93152494D01*
X160242815Y-93249185D01*
X160339506Y-93328537D01*
X160449820Y-93387502D01*
X160569518Y-93423812D01*
X160694000Y-93436072D01*
X161258250Y-93433000D01*
X161417000Y-93274250D01*
X161417000Y-92075000D01*
X161671000Y-92075000D01*
X161671000Y-93274250D01*
X161829750Y-93433000D01*
X162394000Y-93436072D01*
X162518482Y-93423812D01*
X162638180Y-93387502D01*
X162748494Y-93328537D01*
X162845185Y-93249185D01*
X162924537Y-93152494D01*
X162983502Y-93042180D01*
X163019812Y-92922482D01*
X163032072Y-92798000D01*
X163029000Y-92233750D01*
X162870250Y-92075000D01*
X161671000Y-92075000D01*
X161417000Y-92075000D01*
X161397000Y-92075000D01*
X161397000Y-91821000D01*
X161417000Y-91821000D01*
X161417000Y-89535000D01*
X161671000Y-89535000D01*
X161671000Y-91821000D01*
X162870250Y-91821000D01*
X163029000Y-91662250D01*
X163032072Y-91098000D01*
X163019812Y-90973518D01*
X162983502Y-90853820D01*
X162924537Y-90743506D01*
X162845185Y-90646815D01*
X162748494Y-90567463D01*
X162638180Y-90508498D01*
X162562374Y-90485502D01*
X162739178Y-90289355D01*
X162888157Y-90039252D01*
X162985481Y-89764891D01*
X162864814Y-89535000D01*
X161671000Y-89535000D01*
X161417000Y-89535000D01*
X159131000Y-89535000D01*
X159131000Y-89555000D01*
X158877000Y-89555000D01*
X158877000Y-89535000D01*
X158857000Y-89535000D01*
X158857000Y-89281000D01*
X158877000Y-89281000D01*
X158877000Y-88087845D01*
X159131000Y-88087845D01*
X159131000Y-89281000D01*
X161417000Y-89281000D01*
X161417000Y-88087845D01*
X161671000Y-88087845D01*
X161671000Y-89281000D01*
X162864814Y-89281000D01*
X162985481Y-89051109D01*
X162888157Y-88776748D01*
X162739178Y-88526645D01*
X162544269Y-88310412D01*
X162310920Y-88136359D01*
X162048099Y-88011175D01*
X161900890Y-87966524D01*
X161671000Y-88087845D01*
X161417000Y-88087845D01*
X161187110Y-87966524D01*
X161039901Y-88011175D01*
X160777080Y-88136359D01*
X160543731Y-88310412D01*
X160348822Y-88526645D01*
X160274000Y-88652255D01*
X160199178Y-88526645D01*
X160004269Y-88310412D01*
X159770920Y-88136359D01*
X159508099Y-88011175D01*
X159360890Y-87966524D01*
X159131000Y-88087845D01*
X158877000Y-88087845D01*
X158647110Y-87966524D01*
X158499901Y-88011175D01*
X158237080Y-88136359D01*
X158003731Y-88310412D01*
X157808822Y-88526645D01*
X157739195Y-88643534D01*
X157617475Y-88461368D01*
X157410632Y-88254525D01*
X157167411Y-88092010D01*
X156897158Y-87980068D01*
X156610260Y-87923000D01*
X156317740Y-87923000D01*
X156030842Y-87980068D01*
X155760589Y-88092010D01*
X155552112Y-88231310D01*
X154848801Y-87528000D01*
X168319721Y-87528000D01*
X168716545Y-87566909D01*
X169067208Y-87672780D01*
X169390625Y-87844744D01*
X169674484Y-88076254D01*
X169907965Y-88358486D01*
X170082183Y-88680695D01*
X170190502Y-89030614D01*
X170232000Y-89425443D01*
X170232001Y-114295711D01*
X170193091Y-114692545D01*
X170087220Y-115043206D01*
X169915257Y-115366623D01*
X169683748Y-115650482D01*
X169401514Y-115883965D01*
X169079304Y-116058184D01*
X168729385Y-116166502D01*
X168334557Y-116208000D01*
X108464279Y-116208000D01*
X108067455Y-116169091D01*
X107716794Y-116063220D01*
X107393377Y-115891257D01*
X107109518Y-115659748D01*
X106876035Y-115377514D01*
X106701816Y-115055304D01*
X106593498Y-114705385D01*
X106552000Y-114310557D01*
X106552000Y-111938447D01*
X164341158Y-111938447D01*
X164485135Y-112243770D01*
X164842892Y-112424597D01*
X165229053Y-112532155D01*
X165628777Y-112562310D01*
X166026704Y-112513904D01*
X166407540Y-112388795D01*
X166678865Y-112243770D01*
X166822842Y-111938447D01*
X165582000Y-110697605D01*
X164341158Y-111938447D01*
X106552000Y-111938447D01*
X106552000Y-98952155D01*
X107437450Y-98952155D01*
X107833634Y-99472550D01*
X108548612Y-99862748D01*
X109325976Y-100105964D01*
X110135853Y-100192851D01*
X110947118Y-100120069D01*
X111728597Y-99890415D01*
X112450256Y-99512715D01*
X112510366Y-99472550D01*
X112906550Y-98952155D01*
X110172000Y-96217605D01*
X107437450Y-98952155D01*
X106552000Y-98952155D01*
X106552000Y-98038665D01*
X106697285Y-98316256D01*
X106737450Y-98376366D01*
X107257845Y-98772550D01*
X109992395Y-96038000D01*
X110351605Y-96038000D01*
X113086155Y-98772550D01*
X113606550Y-98376366D01*
X113996748Y-97661388D01*
X114239964Y-96884024D01*
X114326851Y-96074147D01*
X114254069Y-95262882D01*
X114024415Y-94481403D01*
X113646715Y-93759744D01*
X113606550Y-93699634D01*
X113086155Y-93303450D01*
X110351605Y-96038000D01*
X109992395Y-96038000D01*
X107257845Y-93303450D01*
X106737450Y-93699634D01*
X106552000Y-94039443D01*
X106552000Y-93123845D01*
X107437450Y-93123845D01*
X110172000Y-95858395D01*
X112906550Y-93123845D01*
X112510366Y-92603450D01*
X111795388Y-92213252D01*
X111018024Y-91970036D01*
X110208147Y-91883149D01*
X109396882Y-91955931D01*
X108615403Y-92185585D01*
X107893744Y-92563285D01*
X107833634Y-92603450D01*
X107437450Y-93123845D01*
X106552000Y-93123845D01*
X106552000Y-89440279D01*
X106590909Y-89043455D01*
X106696780Y-88692792D01*
X106868744Y-88369375D01*
X107100254Y-88085516D01*
X107382486Y-87852035D01*
X107704695Y-87677817D01*
X108054614Y-87569498D01*
X108449443Y-87528000D01*
X135267998Y-87528000D01*
X134545142Y-88250857D01*
G37*
X134545142Y-88250857D02*
X134307411Y-88092010D01*
X134037158Y-87980068D01*
X133750260Y-87923000D01*
X133457740Y-87923000D01*
X133175206Y-87979200D01*
X131492794Y-87979200D01*
X131210260Y-87923000D01*
X130917740Y-87923000D01*
X130635206Y-87979200D01*
X116912181Y-87979200D01*
X116842000Y-87972288D01*
X116771819Y-87979200D01*
X116771812Y-87979200D01*
X116561906Y-87999874D01*
X116292576Y-88081574D01*
X116044361Y-88214248D01*
X115826798Y-88392798D01*
X115782052Y-88447321D01*
X115091317Y-89138056D01*
X115036798Y-89182799D01*
X114858248Y-89400362D01*
X114735265Y-89630446D01*
X114725574Y-89648577D01*
X114648781Y-89901732D01*
X114643874Y-89917907D01*
X114623200Y-90127813D01*
X114623200Y-90127819D01*
X114616288Y-90198000D01*
X114623200Y-90268181D01*
X114623201Y-100227421D01*
X110080695Y-104769928D01*
X108402000Y-104769928D01*
X108277518Y-104782188D01*
X108157820Y-104818498D01*
X108047506Y-104877463D01*
X107950815Y-104956815D01*
X107871463Y-105053506D01*
X107812498Y-105163820D01*
X107776188Y-105283518D01*
X107763928Y-105408000D01*
X107763928Y-108008000D01*
X107776188Y-108132482D01*
X107812498Y-108252180D01*
X107871463Y-108362494D01*
X107950815Y-108459185D01*
X108047506Y-108538537D01*
X108157820Y-108597502D01*
X108277518Y-108633812D01*
X108402000Y-108646072D01*
X111002000Y-108646072D01*
X111126482Y-108633812D01*
X111246180Y-108597502D01*
X111356494Y-108538537D01*
X111453185Y-108459185D01*
X111532537Y-108362494D01*
X111591502Y-108252180D01*
X111627812Y-108132482D01*
X111640072Y-108008000D01*
X111640072Y-107251805D01*
X112907168Y-105984710D01*
X112841361Y-106143581D01*
X112767000Y-106517419D01*
X112767000Y-106898581D01*
X112841361Y-107272419D01*
X112987225Y-107624566D01*
X113198987Y-107941491D01*
X113468509Y-108211013D01*
X113785434Y-108422775D01*
X114137581Y-108568639D01*
X114511419Y-108643000D01*
X114892581Y-108643000D01*
X115266419Y-108568639D01*
X115618566Y-108422775D01*
X115935491Y-108211013D01*
X116205013Y-107941491D01*
X116416775Y-107624566D01*
X116562639Y-107272419D01*
X116637000Y-106898581D01*
X116637000Y-106517419D01*
X117767000Y-106517419D01*
X117767000Y-106898581D01*
X117841361Y-107272419D01*
X117987225Y-107624566D01*
X118198987Y-107941491D01*
X118468509Y-108211013D01*
X118785434Y-108422775D01*
X119137581Y-108568639D01*
X119511419Y-108643000D01*
X119892581Y-108643000D01*
X120266419Y-108568639D01*
X120618566Y-108422775D01*
X120935491Y-108211013D01*
X121205013Y-107941491D01*
X121416775Y-107624566D01*
X121562639Y-107272419D01*
X121637000Y-106898581D01*
X121637000Y-106517419D01*
X122767000Y-106517419D01*
X122767000Y-106898581D01*
X122841361Y-107272419D01*
X122987225Y-107624566D01*
X123198987Y-107941491D01*
X123468509Y-108211013D01*
X123785434Y-108422775D01*
X124137581Y-108568639D01*
X124511419Y-108643000D01*
X124892581Y-108643000D01*
X125266419Y-108568639D01*
X125618566Y-108422775D01*
X125935491Y-108211013D01*
X126205013Y-107941491D01*
X126416775Y-107624566D01*
X126562639Y-107272419D01*
X126637000Y-106898581D01*
X126637000Y-106517419D01*
X126562639Y-106143581D01*
X126416775Y-105791434D01*
X126205013Y-105474509D01*
X125935491Y-105204987D01*
X125618566Y-104993225D01*
X125266419Y-104847361D01*
X124892581Y-104773000D01*
X124511419Y-104773000D01*
X124137581Y-104847361D01*
X123785434Y-104993225D01*
X123468509Y-105204987D01*
X123198987Y-105474509D01*
X122987225Y-105791434D01*
X122841361Y-106143581D01*
X122767000Y-106517419D01*
X121637000Y-106517419D01*
X121562639Y-106143581D01*
X121416775Y-105791434D01*
X121205013Y-105474509D01*
X120935491Y-105204987D01*
X120618566Y-104993225D01*
X120266419Y-104847361D01*
X119892581Y-104773000D01*
X119511419Y-104773000D01*
X119137581Y-104847361D01*
X118785434Y-104993225D01*
X118468509Y-105204987D01*
X118198987Y-105474509D01*
X117987225Y-105791434D01*
X117841361Y-106143581D01*
X117767000Y-106517419D01*
X116637000Y-106517419D01*
X116562639Y-106143581D01*
X116416775Y-105791434D01*
X116205013Y-105474509D01*
X115935491Y-105204987D01*
X115618566Y-104993225D01*
X115266419Y-104847361D01*
X114892581Y-104773000D01*
X114511419Y-104773000D01*
X114137581Y-104847361D01*
X113978710Y-104913168D01*
X117012684Y-101879194D01*
X117067202Y-101834452D01*
X117245752Y-101616889D01*
X117378426Y-101368674D01*
X117460126Y-101099344D01*
X117480800Y-100889438D01*
X117480800Y-100889429D01*
X117487712Y-100819251D01*
X117480800Y-100749072D01*
X117480800Y-90836800D01*
X129410198Y-90836800D01*
X127275553Y-92971446D01*
X127158632Y-92854525D01*
X126915411Y-92692010D01*
X126645158Y-92580068D01*
X126358260Y-92523000D01*
X126065740Y-92523000D01*
X125778842Y-92580068D01*
X125508589Y-92692010D01*
X125265368Y-92854525D01*
X125133513Y-92986380D01*
X125111502Y-92913820D01*
X125052537Y-92803506D01*
X124973185Y-92706815D01*
X124876494Y-92627463D01*
X124766180Y-92568498D01*
X124646482Y-92532188D01*
X124522000Y-92519928D01*
X122822000Y-92519928D01*
X122697518Y-92532188D01*
X122577820Y-92568498D01*
X122467506Y-92627463D01*
X122370815Y-92706815D01*
X122291463Y-92803506D01*
X122232498Y-92913820D01*
X122196188Y-93033518D01*
X122183928Y-93158000D01*
X122183928Y-94858000D01*
X122196188Y-94982482D01*
X122232498Y-95102180D01*
X122259849Y-95153349D01*
X121483903Y-95929296D01*
X121454899Y-95953099D01*
X121414888Y-96001853D01*
X121359926Y-96068824D01*
X121357081Y-96074147D01*
X121289354Y-96200854D01*
X121245897Y-96344115D01*
X121234900Y-96455768D01*
X121234900Y-96455778D01*
X121231224Y-96493100D01*
X121234900Y-96530423D01*
X121234901Y-99694768D01*
X121231224Y-99732100D01*
X121234901Y-99769433D01*
X121243002Y-99851677D01*
X121245898Y-99881085D01*
X121289354Y-100024346D01*
X121359926Y-100156376D01*
X121429766Y-100241475D01*
X121454900Y-100272101D01*
X121483898Y-100295899D01*
X122456801Y-101268803D01*
X122480599Y-101297801D01*
X122596324Y-101392774D01*
X122728353Y-101463346D01*
X122871614Y-101506803D01*
X122983267Y-101517800D01*
X122983277Y-101517800D01*
X123020600Y-101521476D01*
X123057923Y-101517800D01*
X144297399Y-101517800D01*
X143967599Y-101847600D01*
X133839722Y-101847600D01*
X133802399Y-101843924D01*
X133765076Y-101847600D01*
X133765067Y-101847600D01*
X133653414Y-101858597D01*
X133510153Y-101902054D01*
X133378124Y-101972626D01*
X133262399Y-102067599D01*
X133238601Y-102096597D01*
X130422986Y-104912213D01*
X130266419Y-104847361D01*
X129892581Y-104773000D01*
X129511419Y-104773000D01*
X129137581Y-104847361D01*
X128785434Y-104993225D01*
X128468509Y-105204987D01*
X128198987Y-105474509D01*
X127987225Y-105791434D01*
X127841361Y-106143581D01*
X127767000Y-106517419D01*
X127767000Y-106898581D01*
X127841361Y-107272419D01*
X127987225Y-107624566D01*
X128198987Y-107941491D01*
X128468509Y-108211013D01*
X128785434Y-108422775D01*
X129137581Y-108568639D01*
X129511419Y-108643000D01*
X129892581Y-108643000D01*
X130266419Y-108568639D01*
X130618566Y-108422775D01*
X130935491Y-108211013D01*
X131089280Y-108057224D01*
X133532381Y-108057224D01*
X133664317Y-108352312D01*
X134005045Y-108523159D01*
X134372557Y-108624250D01*
X134752729Y-108651701D01*
X135130951Y-108604457D01*
X135492690Y-108484333D01*
X135739683Y-108352312D01*
X135871619Y-108057224D01*
X134702000Y-106887605D01*
X133532381Y-108057224D01*
X131089280Y-108057224D01*
X131205013Y-107941491D01*
X131416775Y-107624566D01*
X131562639Y-107272419D01*
X131637000Y-106898581D01*
X131637000Y-106758729D01*
X132758299Y-106758729D01*
X132805543Y-107136951D01*
X132925667Y-107498690D01*
X133057688Y-107745683D01*
X133352776Y-107877619D01*
X134522395Y-106708000D01*
X134881605Y-106708000D01*
X136051224Y-107877619D01*
X136346312Y-107745683D01*
X136517159Y-107404955D01*
X136618250Y-107037443D01*
X136645701Y-106657271D01*
X136628232Y-106517419D01*
X137767000Y-106517419D01*
X137767000Y-106898581D01*
X137841361Y-107272419D01*
X137987225Y-107624566D01*
X138198987Y-107941491D01*
X138468509Y-108211013D01*
X138785434Y-108422775D01*
X139137581Y-108568639D01*
X139511419Y-108643000D01*
X139892581Y-108643000D01*
X140266419Y-108568639D01*
X140618566Y-108422775D01*
X140935491Y-108211013D01*
X141205013Y-107941491D01*
X141416775Y-107624566D01*
X141562639Y-107272419D01*
X141637000Y-106898581D01*
X141637000Y-106517419D01*
X142767000Y-106517419D01*
X142767000Y-106898581D01*
X142841361Y-107272419D01*
X142987225Y-107624566D01*
X143198987Y-107941491D01*
X143468509Y-108211013D01*
X143785434Y-108422775D01*
X144137581Y-108568639D01*
X144511419Y-108643000D01*
X144892581Y-108643000D01*
X145266419Y-108568639D01*
X145618566Y-108422775D01*
X145935491Y-108211013D01*
X146205013Y-107941491D01*
X146416775Y-107624566D01*
X146562639Y-107272419D01*
X146637000Y-106898581D01*
X146637000Y-106517419D01*
X147767000Y-106517419D01*
X147767000Y-106898581D01*
X147841361Y-107272419D01*
X147987225Y-107624566D01*
X148198987Y-107941491D01*
X148468509Y-108211013D01*
X148785434Y-108422775D01*
X149137581Y-108568639D01*
X149511419Y-108643000D01*
X149892581Y-108643000D01*
X150266419Y-108568639D01*
X150618566Y-108422775D01*
X150935491Y-108211013D01*
X151205013Y-107941491D01*
X151416775Y-107624566D01*
X151562639Y-107272419D01*
X151637000Y-106898581D01*
X151637000Y-106517419D01*
X152767000Y-106517419D01*
X152767000Y-106898581D01*
X152841361Y-107272419D01*
X152987225Y-107624566D01*
X153198987Y-107941491D01*
X153468509Y-108211013D01*
X153785434Y-108422775D01*
X154137581Y-108568639D01*
X154511419Y-108643000D01*
X154892581Y-108643000D01*
X155266419Y-108568639D01*
X155618566Y-108422775D01*
X155935491Y-108211013D01*
X156205013Y-107941491D01*
X156220996Y-107917570D01*
X161547000Y-107917570D01*
X161547000Y-108318430D01*
X161625204Y-108711587D01*
X161778607Y-109081934D01*
X162001313Y-109415237D01*
X162284763Y-109698687D01*
X162618066Y-109921393D01*
X162988413Y-110074796D01*
X163381570Y-110153000D01*
X163571202Y-110153000D01*
X163567845Y-110165053D01*
X163537690Y-110564777D01*
X163586096Y-110962704D01*
X163711205Y-111343540D01*
X163856230Y-111614865D01*
X164161553Y-111758842D01*
X165402395Y-110518000D01*
X165761605Y-110518000D01*
X167002447Y-111758842D01*
X167307770Y-111614865D01*
X167488597Y-111257108D01*
X167596155Y-110870947D01*
X167626310Y-110471223D01*
X167577904Y-110073296D01*
X167452795Y-109692460D01*
X167307770Y-109421135D01*
X167002447Y-109277158D01*
X165761605Y-110518000D01*
X165402395Y-110518000D01*
X165388253Y-110503858D01*
X165567858Y-110324253D01*
X165582000Y-110338395D01*
X166822842Y-109097553D01*
X166678865Y-108792230D01*
X166321108Y-108611403D01*
X165934947Y-108503845D01*
X165585364Y-108477473D01*
X165617000Y-108318430D01*
X165617000Y-107917570D01*
X165538796Y-107524413D01*
X165385393Y-107154066D01*
X165162687Y-106820763D01*
X164879237Y-106537313D01*
X164545934Y-106314607D01*
X164175587Y-106161204D01*
X163782430Y-106083000D01*
X163381570Y-106083000D01*
X162988413Y-106161204D01*
X162618066Y-106314607D01*
X162284763Y-106537313D01*
X162001313Y-106820763D01*
X161778607Y-107154066D01*
X161625204Y-107524413D01*
X161547000Y-107917570D01*
X156220996Y-107917570D01*
X156416775Y-107624566D01*
X156562639Y-107272419D01*
X156637000Y-106898581D01*
X156637000Y-106517419D01*
X156562639Y-106143581D01*
X156416775Y-105791434D01*
X156205013Y-105474509D01*
X155935491Y-105204987D01*
X155618566Y-104993225D01*
X155266419Y-104847361D01*
X154892581Y-104773000D01*
X154511419Y-104773000D01*
X154137581Y-104847361D01*
X153785434Y-104993225D01*
X153468509Y-105204987D01*
X153198987Y-105474509D01*
X152987225Y-105791434D01*
X152841361Y-106143581D01*
X152767000Y-106517419D01*
X151637000Y-106517419D01*
X151562639Y-106143581D01*
X151416775Y-105791434D01*
X151205013Y-105474509D01*
X150935491Y-105204987D01*
X150618566Y-104993225D01*
X150266419Y-104847361D01*
X149892581Y-104773000D01*
X149511419Y-104773000D01*
X149137581Y-104847361D01*
X148785434Y-104993225D01*
X148468509Y-105204987D01*
X148198987Y-105474509D01*
X147987225Y-105791434D01*
X147841361Y-106143581D01*
X147767000Y-106517419D01*
X146637000Y-106517419D01*
X146562639Y-106143581D01*
X146416775Y-105791434D01*
X146205013Y-105474509D01*
X145935491Y-105204987D01*
X145618566Y-104993225D01*
X145266419Y-104847361D01*
X144892581Y-104773000D01*
X144511419Y-104773000D01*
X144137581Y-104847361D01*
X143785434Y-104993225D01*
X143468509Y-105204987D01*
X143198987Y-105474509D01*
X142987225Y-105791434D01*
X142841361Y-106143581D01*
X142767000Y-106517419D01*
X141637000Y-106517419D01*
X141562639Y-106143581D01*
X141416775Y-105791434D01*
X141205013Y-105474509D01*
X140935491Y-105204987D01*
X140618566Y-104993225D01*
X140266419Y-104847361D01*
X139892581Y-104773000D01*
X139511419Y-104773000D01*
X139137581Y-104847361D01*
X138785434Y-104993225D01*
X138468509Y-105204987D01*
X138198987Y-105474509D01*
X137987225Y-105791434D01*
X137841361Y-106143581D01*
X137767000Y-106517419D01*
X136628232Y-106517419D01*
X136598457Y-106279049D01*
X136478333Y-105917310D01*
X136346312Y-105670317D01*
X136051224Y-105538381D01*
X134881605Y-106708000D01*
X134522395Y-106708000D01*
X133352776Y-105538381D01*
X133057688Y-105670317D01*
X132886841Y-106011045D01*
X132785750Y-106378557D01*
X132758299Y-106758729D01*
X131637000Y-106758729D01*
X131637000Y-106517419D01*
X131562639Y-106143581D01*
X131497787Y-105987014D01*
X132126025Y-105358776D01*
X133532381Y-105358776D01*
X134702000Y-106528395D01*
X135871619Y-105358776D01*
X135739683Y-105063688D01*
X135398955Y-104892841D01*
X135031443Y-104791750D01*
X134651271Y-104764299D01*
X134273049Y-104811543D01*
X133911310Y-104931667D01*
X133664317Y-105063688D01*
X133532381Y-105358776D01*
X132126025Y-105358776D01*
X134117202Y-103367600D01*
X144245078Y-103367600D01*
X144282400Y-103371276D01*
X144319722Y-103367600D01*
X144319733Y-103367600D01*
X144431386Y-103356603D01*
X144574647Y-103313146D01*
X144706676Y-103242574D01*
X144822401Y-103147601D01*
X144846204Y-103118597D01*
X145547231Y-102417570D01*
X161547000Y-102417570D01*
X161547000Y-102818430D01*
X161625204Y-103211587D01*
X161778607Y-103581934D01*
X162001313Y-103915237D01*
X162284763Y-104198687D01*
X162618066Y-104421393D01*
X162988413Y-104574796D01*
X163381570Y-104653000D01*
X163782430Y-104653000D01*
X164175587Y-104574796D01*
X164545934Y-104421393D01*
X164879237Y-104198687D01*
X165162687Y-103915237D01*
X165385393Y-103581934D01*
X165538796Y-103211587D01*
X165617000Y-102818430D01*
X165617000Y-102417570D01*
X165538796Y-102024413D01*
X165385393Y-101654066D01*
X165162687Y-101320763D01*
X164879237Y-101037313D01*
X164545934Y-100814607D01*
X164175587Y-100661204D01*
X163782430Y-100583000D01*
X163381570Y-100583000D01*
X162988413Y-100661204D01*
X162618066Y-100814607D01*
X162284763Y-101037313D01*
X162001313Y-101320763D01*
X161778607Y-101654066D01*
X161625204Y-102024413D01*
X161547000Y-102417570D01*
X145547231Y-102417570D01*
X148748114Y-99216688D01*
X148930665Y-99253000D01*
X149213335Y-99253000D01*
X149490574Y-99197853D01*
X149751727Y-99089680D01*
X149986759Y-98932637D01*
X150186637Y-98732759D01*
X150343680Y-98497727D01*
X150451853Y-98236574D01*
X150507000Y-97959335D01*
X150507000Y-97676665D01*
X155257000Y-97676665D01*
X155257000Y-97959335D01*
X155312147Y-98236574D01*
X155420320Y-98497727D01*
X155577363Y-98732759D01*
X155777241Y-98932637D01*
X156012273Y-99089680D01*
X156273426Y-99197853D01*
X156550665Y-99253000D01*
X156833335Y-99253000D01*
X157110574Y-99197853D01*
X157371727Y-99089680D01*
X157606759Y-98932637D01*
X157806637Y-98732759D01*
X157963680Y-98497727D01*
X158071853Y-98236574D01*
X158127000Y-97959335D01*
X158127000Y-97676665D01*
X158071853Y-97399426D01*
X157963680Y-97138273D01*
X157806637Y-96903241D01*
X157606759Y-96703363D01*
X157371727Y-96546320D01*
X157110574Y-96438147D01*
X156833335Y-96383000D01*
X156550665Y-96383000D01*
X156273426Y-96438147D01*
X156012273Y-96546320D01*
X155777241Y-96703363D01*
X155577363Y-96903241D01*
X155420320Y-97138273D01*
X155312147Y-97399426D01*
X155257000Y-97676665D01*
X150507000Y-97676665D01*
X150451853Y-97399426D01*
X150343680Y-97138273D01*
X150319844Y-97102600D01*
X151233378Y-97102600D01*
X151270700Y-97106276D01*
X151308022Y-97102600D01*
X151308033Y-97102600D01*
X151419686Y-97091603D01*
X151562947Y-97048146D01*
X151694976Y-96977574D01*
X151810701Y-96882601D01*
X151834504Y-96853597D01*
X155558886Y-93129216D01*
X155760589Y-93263990D01*
X156030842Y-93375932D01*
X156317740Y-93433000D01*
X156610260Y-93433000D01*
X156897158Y-93375932D01*
X157167411Y-93263990D01*
X157410632Y-93101475D01*
X157617475Y-92894632D01*
X157734000Y-92720240D01*
X157850525Y-92894632D01*
X158057368Y-93101475D01*
X158300589Y-93263990D01*
X158570842Y-93375932D01*
X158857740Y-93433000D01*
X159150260Y-93433000D01*
X159437158Y-93375932D01*
X159707411Y-93263990D01*
X159950632Y-93101475D01*
X160082487Y-92969620D01*
X160104498Y-93042180D01*
X160163463Y-93152494D01*
X160242815Y-93249185D01*
X160339506Y-93328537D01*
X160449820Y-93387502D01*
X160569518Y-93423812D01*
X160694000Y-93436072D01*
X161258250Y-93433000D01*
X161417000Y-93274250D01*
X161417000Y-92075000D01*
X161671000Y-92075000D01*
X161671000Y-93274250D01*
X161829750Y-93433000D01*
X162394000Y-93436072D01*
X162518482Y-93423812D01*
X162638180Y-93387502D01*
X162748494Y-93328537D01*
X162845185Y-93249185D01*
X162924537Y-93152494D01*
X162983502Y-93042180D01*
X163019812Y-92922482D01*
X163032072Y-92798000D01*
X163029000Y-92233750D01*
X162870250Y-92075000D01*
X161671000Y-92075000D01*
X161417000Y-92075000D01*
X161397000Y-92075000D01*
X161397000Y-91821000D01*
X161417000Y-91821000D01*
X161417000Y-89535000D01*
X161671000Y-89535000D01*
X161671000Y-91821000D01*
X162870250Y-91821000D01*
X163029000Y-91662250D01*
X163032072Y-91098000D01*
X163019812Y-90973518D01*
X162983502Y-90853820D01*
X162924537Y-90743506D01*
X162845185Y-90646815D01*
X162748494Y-90567463D01*
X162638180Y-90508498D01*
X162562374Y-90485502D01*
X162739178Y-90289355D01*
X162888157Y-90039252D01*
X162985481Y-89764891D01*
X162864814Y-89535000D01*
X161671000Y-89535000D01*
X161417000Y-89535000D01*
X159131000Y-89535000D01*
X159131000Y-89555000D01*
X158877000Y-89555000D01*
X158877000Y-89535000D01*
X158857000Y-89535000D01*
X158857000Y-89281000D01*
X158877000Y-89281000D01*
X158877000Y-88087845D01*
X159131000Y-88087845D01*
X159131000Y-89281000D01*
X161417000Y-89281000D01*
X161417000Y-88087845D01*
X161671000Y-88087845D01*
X161671000Y-89281000D01*
X162864814Y-89281000D01*
X162985481Y-89051109D01*
X162888157Y-88776748D01*
X162739178Y-88526645D01*
X162544269Y-88310412D01*
X162310920Y-88136359D01*
X162048099Y-88011175D01*
X161900890Y-87966524D01*
X161671000Y-88087845D01*
X161417000Y-88087845D01*
X161187110Y-87966524D01*
X161039901Y-88011175D01*
X160777080Y-88136359D01*
X160543731Y-88310412D01*
X160348822Y-88526645D01*
X160274000Y-88652255D01*
X160199178Y-88526645D01*
X160004269Y-88310412D01*
X159770920Y-88136359D01*
X159508099Y-88011175D01*
X159360890Y-87966524D01*
X159131000Y-88087845D01*
X158877000Y-88087845D01*
X158647110Y-87966524D01*
X158499901Y-88011175D01*
X158237080Y-88136359D01*
X158003731Y-88310412D01*
X157808822Y-88526645D01*
X157739195Y-88643534D01*
X157617475Y-88461368D01*
X157410632Y-88254525D01*
X157167411Y-88092010D01*
X156897158Y-87980068D01*
X156610260Y-87923000D01*
X156317740Y-87923000D01*
X156030842Y-87980068D01*
X155760589Y-88092010D01*
X155552112Y-88231310D01*
X154848801Y-87528000D01*
X168319721Y-87528000D01*
X168716545Y-87566909D01*
X169067208Y-87672780D01*
X169390625Y-87844744D01*
X169674484Y-88076254D01*
X169907965Y-88358486D01*
X170082183Y-88680695D01*
X170190502Y-89030614D01*
X170232000Y-89425443D01*
X170232001Y-114295711D01*
X170193091Y-114692545D01*
X170087220Y-115043206D01*
X169915257Y-115366623D01*
X169683748Y-115650482D01*
X169401514Y-115883965D01*
X169079304Y-116058184D01*
X168729385Y-116166502D01*
X168334557Y-116208000D01*
X108464279Y-116208000D01*
X108067455Y-116169091D01*
X107716794Y-116063220D01*
X107393377Y-115891257D01*
X107109518Y-115659748D01*
X106876035Y-115377514D01*
X106701816Y-115055304D01*
X106593498Y-114705385D01*
X106552000Y-114310557D01*
X106552000Y-111938447D01*
X164341158Y-111938447D01*
X164485135Y-112243770D01*
X164842892Y-112424597D01*
X165229053Y-112532155D01*
X165628777Y-112562310D01*
X166026704Y-112513904D01*
X166407540Y-112388795D01*
X166678865Y-112243770D01*
X166822842Y-111938447D01*
X165582000Y-110697605D01*
X164341158Y-111938447D01*
X106552000Y-111938447D01*
X106552000Y-98952155D01*
X107437450Y-98952155D01*
X107833634Y-99472550D01*
X108548612Y-99862748D01*
X109325976Y-100105964D01*
X110135853Y-100192851D01*
X110947118Y-100120069D01*
X111728597Y-99890415D01*
X112450256Y-99512715D01*
X112510366Y-99472550D01*
X112906550Y-98952155D01*
X110172000Y-96217605D01*
X107437450Y-98952155D01*
X106552000Y-98952155D01*
X106552000Y-98038665D01*
X106697285Y-98316256D01*
X106737450Y-98376366D01*
X107257845Y-98772550D01*
X109992395Y-96038000D01*
X110351605Y-96038000D01*
X113086155Y-98772550D01*
X113606550Y-98376366D01*
X113996748Y-97661388D01*
X114239964Y-96884024D01*
X114326851Y-96074147D01*
X114254069Y-95262882D01*
X114024415Y-94481403D01*
X113646715Y-93759744D01*
X113606550Y-93699634D01*
X113086155Y-93303450D01*
X110351605Y-96038000D01*
X109992395Y-96038000D01*
X107257845Y-93303450D01*
X106737450Y-93699634D01*
X106552000Y-94039443D01*
X106552000Y-93123845D01*
X107437450Y-93123845D01*
X110172000Y-95858395D01*
X112906550Y-93123845D01*
X112510366Y-92603450D01*
X111795388Y-92213252D01*
X111018024Y-91970036D01*
X110208147Y-91883149D01*
X109396882Y-91955931D01*
X108615403Y-92185585D01*
X107893744Y-92563285D01*
X107833634Y-92603450D01*
X107437450Y-93123845D01*
X106552000Y-93123845D01*
X106552000Y-89440279D01*
X106590909Y-89043455D01*
X106696780Y-88692792D01*
X106868744Y-88369375D01*
X107100254Y-88085516D01*
X107382486Y-87852035D01*
X107704695Y-87677817D01*
X108054614Y-87569498D01*
X108449443Y-87528000D01*
X135267998Y-87528000D01*
X134545142Y-88250857D01*
G36*
X148971000Y-91821000D02*
G01*
X148991000Y-91821000D01*
X148991000Y-92075000D01*
X148971000Y-92075000D01*
X148971000Y-93268155D01*
X149037466Y-93303232D01*
X145239145Y-97101554D01*
X145106637Y-96903241D01*
X144906759Y-96703363D01*
X144746158Y-96596053D01*
X144741003Y-96543714D01*
X144697546Y-96400453D01*
X144626974Y-96268424D01*
X144571521Y-96200854D01*
X144555799Y-96181696D01*
X144555795Y-96181692D01*
X144532001Y-96152699D01*
X144503008Y-96128905D01*
X141722831Y-93348729D01*
X141927411Y-93263990D01*
X142170632Y-93101475D01*
X142377475Y-92894632D01*
X142494000Y-92720240D01*
X142610525Y-92894632D01*
X142817368Y-93101475D01*
X143060589Y-93263990D01*
X143330842Y-93375932D01*
X143617740Y-93433000D01*
X143910260Y-93433000D01*
X144197158Y-93375932D01*
X144467411Y-93263990D01*
X144710632Y-93101475D01*
X144917475Y-92894632D01*
X145034000Y-92720240D01*
X145150525Y-92894632D01*
X145357368Y-93101475D01*
X145600589Y-93263990D01*
X145870842Y-93375932D01*
X146157740Y-93433000D01*
X146450260Y-93433000D01*
X146737158Y-93375932D01*
X147007411Y-93263990D01*
X147250632Y-93101475D01*
X147457475Y-92894632D01*
X147579195Y-92712466D01*
X147648822Y-92829355D01*
X147843731Y-93045588D01*
X148077080Y-93219641D01*
X148339901Y-93344825D01*
X148487110Y-93389476D01*
X148717000Y-93268155D01*
X148717000Y-92075000D01*
X148697000Y-92075000D01*
X148697000Y-91821000D01*
X148717000Y-91821000D01*
X148717000Y-91801000D01*
X148971000Y-91801000D01*
X148971000Y-91821000D01*
G37*
X148971000Y-91821000D02*
X148991000Y-91821000D01*
X148991000Y-92075000D01*
X148971000Y-92075000D01*
X148971000Y-93268155D01*
X149037466Y-93303232D01*
X145239145Y-97101554D01*
X145106637Y-96903241D01*
X144906759Y-96703363D01*
X144746158Y-96596053D01*
X144741003Y-96543714D01*
X144697546Y-96400453D01*
X144626974Y-96268424D01*
X144571521Y-96200854D01*
X144555799Y-96181696D01*
X144555795Y-96181692D01*
X144532001Y-96152699D01*
X144503008Y-96128905D01*
X141722831Y-93348729D01*
X141927411Y-93263990D01*
X142170632Y-93101475D01*
X142377475Y-92894632D01*
X142494000Y-92720240D01*
X142610525Y-92894632D01*
X142817368Y-93101475D01*
X143060589Y-93263990D01*
X143330842Y-93375932D01*
X143617740Y-93433000D01*
X143910260Y-93433000D01*
X144197158Y-93375932D01*
X144467411Y-93263990D01*
X144710632Y-93101475D01*
X144917475Y-92894632D01*
X145034000Y-92720240D01*
X145150525Y-92894632D01*
X145357368Y-93101475D01*
X145600589Y-93263990D01*
X145870842Y-93375932D01*
X146157740Y-93433000D01*
X146450260Y-93433000D01*
X146737158Y-93375932D01*
X147007411Y-93263990D01*
X147250632Y-93101475D01*
X147457475Y-92894632D01*
X147579195Y-92712466D01*
X147648822Y-92829355D01*
X147843731Y-93045588D01*
X148077080Y-93219641D01*
X148339901Y-93344825D01*
X148487110Y-93389476D01*
X148717000Y-93268155D01*
X148717000Y-92075000D01*
X148697000Y-92075000D01*
X148697000Y-91821000D01*
X148717000Y-91821000D01*
X148717000Y-91801000D01*
X148971000Y-91801000D01*
X148971000Y-91821000D01*
G36*
X147690525Y-90354632D02*
G01*
X147897368Y-90561475D01*
X148073406Y-90679100D01*
X147843731Y-90850412D01*
X147648822Y-91066645D01*
X147579195Y-91183534D01*
X147457475Y-91001368D01*
X147250632Y-90794525D01*
X147076240Y-90678000D01*
X147250632Y-90561475D01*
X147457475Y-90354632D01*
X147574000Y-90180240D01*
X147690525Y-90354632D01*
G37*
X147690525Y-90354632D02*
X147897368Y-90561475D01*
X148073406Y-90679100D01*
X147843731Y-90850412D01*
X147648822Y-91066645D01*
X147579195Y-91183534D01*
X147457475Y-91001368D01*
X147250632Y-90794525D01*
X147076240Y-90678000D01*
X147250632Y-90561475D01*
X147457475Y-90354632D01*
X147574000Y-90180240D01*
X147690525Y-90354632D01*
G36*
X142610525Y-90354632D02*
G01*
X142817368Y-90561475D01*
X142991760Y-90678000D01*
X142817368Y-90794525D01*
X142610525Y-91001368D01*
X142494000Y-91175760D01*
X142377475Y-91001368D01*
X142170632Y-90794525D01*
X141994594Y-90676900D01*
X142224269Y-90505588D01*
X142419178Y-90289355D01*
X142488805Y-90172466D01*
X142610525Y-90354632D01*
G37*
X142610525Y-90354632D02*
X142817368Y-90561475D01*
X142991760Y-90678000D01*
X142817368Y-90794525D01*
X142610525Y-91001368D01*
X142494000Y-91175760D01*
X142377475Y-91001368D01*
X142170632Y-90794525D01*
X141994594Y-90676900D01*
X142224269Y-90505588D01*
X142419178Y-90289355D01*
X142488805Y-90172466D01*
X142610525Y-90354632D01*
G36*
X141351000Y-89281000D02*
G01*
X141371000Y-89281000D01*
X141371000Y-89535000D01*
X141351000Y-89535000D01*
X141351000Y-89555000D01*
X141097000Y-89555000D01*
X141097000Y-89535000D01*
X141077000Y-89535000D01*
X141077000Y-89281000D01*
X141097000Y-89281000D01*
X141097000Y-89261000D01*
X141351000Y-89261000D01*
X141351000Y-89281000D01*
G37*
X141351000Y-89281000D02*
X141371000Y-89281000D01*
X141371000Y-89535000D01*
X141351000Y-89535000D01*
X141351000Y-89555000D01*
X141097000Y-89555000D01*
X141097000Y-89535000D01*
X141077000Y-89535000D01*
X141077000Y-89281000D01*
X141097000Y-89281000D01*
X141097000Y-89261000D01*
X141351000Y-89261000D01*
X141351000Y-89281000D01*
M02*
