G04 #@! TF.GenerationSoftware,KiCad,Pcbnew,5.1.5-52549c5~84~ubuntu18.04.1*
G04 #@! TF.CreationDate,2020-04-07T14:05:37-04:00*
G04 #@! TF.ProjectId,imac_g3_slot_loading_J22_adapter_board,696d6163-5f67-4335-9f73-6c6f745f6c6f,2*
G04 #@! TF.SameCoordinates,Original*
G04 #@! TF.FileFunction,Legend,Bot*
G04 #@! TF.FilePolarity,Positive*
%FSLAX46Y46*%
G04 Gerber Fmt 4.6, Leading zero omitted, Abs format (unit mm)*
G04 Created by KiCad (PCBNEW 5.1.5-52549c5~84~ubuntu18.04.1) date 2020-04-07 14:05:37*
%MOMM*%
%LPD*%
G04 APERTURE LIST*
%ADD10C,0.150000*%
%ADD11C,0.120000*%
G04 APERTURE END LIST*
D10*
X168623333Y-105342380D02*
X168004285Y-105342380D01*
X168337619Y-105723333D01*
X168194761Y-105723333D01*
X168099523Y-105770952D01*
X168051904Y-105818571D01*
X168004285Y-105913809D01*
X168004285Y-106151904D01*
X168051904Y-106247142D01*
X168099523Y-106294761D01*
X168194761Y-106342380D01*
X168480476Y-106342380D01*
X168575714Y-106294761D01*
X168623333Y-106247142D01*
X166575714Y-102437619D02*
X166528095Y-102390000D01*
X166432857Y-102342380D01*
X166194761Y-102342380D01*
X166099523Y-102390000D01*
X166051904Y-102437619D01*
X166004285Y-102532857D01*
X166004285Y-102628095D01*
X166051904Y-102770952D01*
X166623333Y-103342380D01*
X166004285Y-103342380D01*
X168004285Y-100592380D02*
X168575714Y-100592380D01*
X168290000Y-100592380D02*
X168290000Y-99592380D01*
X168385238Y-99735238D01*
X168480476Y-99830476D01*
X168575714Y-99878095D01*
X151847714Y-113955380D02*
X151847714Y-113288714D01*
X151847714Y-112955380D02*
X151895333Y-113003000D01*
X151847714Y-113050619D01*
X151800095Y-113003000D01*
X151847714Y-112955380D01*
X151847714Y-113050619D01*
X151371523Y-113955380D02*
X151371523Y-112955380D01*
X151038190Y-113669666D01*
X150704857Y-112955380D01*
X150704857Y-113955380D01*
X149800095Y-113955380D02*
X149800095Y-113431571D01*
X149847714Y-113336333D01*
X149942952Y-113288714D01*
X150133428Y-113288714D01*
X150228666Y-113336333D01*
X149800095Y-113907761D02*
X149895333Y-113955380D01*
X150133428Y-113955380D01*
X150228666Y-113907761D01*
X150276285Y-113812523D01*
X150276285Y-113717285D01*
X150228666Y-113622047D01*
X150133428Y-113574428D01*
X149895333Y-113574428D01*
X149800095Y-113526809D01*
X148895333Y-113907761D02*
X148990571Y-113955380D01*
X149181047Y-113955380D01*
X149276285Y-113907761D01*
X149323904Y-113860142D01*
X149371523Y-113764904D01*
X149371523Y-113479190D01*
X149323904Y-113383952D01*
X149276285Y-113336333D01*
X149181047Y-113288714D01*
X148990571Y-113288714D01*
X148895333Y-113336333D01*
X147181047Y-113003000D02*
X147276285Y-112955380D01*
X147419142Y-112955380D01*
X147562000Y-113003000D01*
X147657238Y-113098238D01*
X147704857Y-113193476D01*
X147752476Y-113383952D01*
X147752476Y-113526809D01*
X147704857Y-113717285D01*
X147657238Y-113812523D01*
X147562000Y-113907761D01*
X147419142Y-113955380D01*
X147323904Y-113955380D01*
X147181047Y-113907761D01*
X147133428Y-113860142D01*
X147133428Y-113526809D01*
X147323904Y-113526809D01*
X146800095Y-112955380D02*
X146181047Y-112955380D01*
X146514380Y-113336333D01*
X146371523Y-113336333D01*
X146276285Y-113383952D01*
X146228666Y-113431571D01*
X146181047Y-113526809D01*
X146181047Y-113764904D01*
X146228666Y-113860142D01*
X146276285Y-113907761D01*
X146371523Y-113955380D01*
X146657238Y-113955380D01*
X146752476Y-113907761D01*
X146800095Y-113860142D01*
X144990571Y-113955380D02*
X144990571Y-112955380D01*
X144752476Y-112955380D01*
X144609619Y-113003000D01*
X144514380Y-113098238D01*
X144466761Y-113193476D01*
X144419142Y-113383952D01*
X144419142Y-113526809D01*
X144466761Y-113717285D01*
X144514380Y-113812523D01*
X144609619Y-113907761D01*
X144752476Y-113955380D01*
X144990571Y-113955380D01*
X144133428Y-112955380D02*
X143800095Y-113955380D01*
X143466761Y-112955380D01*
X142371523Y-113955380D02*
X142371523Y-112955380D01*
X141990571Y-112955380D01*
X141895333Y-113003000D01*
X141847714Y-113050619D01*
X141800095Y-113145857D01*
X141800095Y-113288714D01*
X141847714Y-113383952D01*
X141895333Y-113431571D01*
X141990571Y-113479190D01*
X142371523Y-113479190D01*
X141228666Y-113955380D02*
X141323904Y-113907761D01*
X141371523Y-113860142D01*
X141419142Y-113764904D01*
X141419142Y-113479190D01*
X141371523Y-113383952D01*
X141323904Y-113336333D01*
X141228666Y-113288714D01*
X141085809Y-113288714D01*
X140990571Y-113336333D01*
X140942952Y-113383952D01*
X140895333Y-113479190D01*
X140895333Y-113764904D01*
X140942952Y-113860142D01*
X140990571Y-113907761D01*
X141085809Y-113955380D01*
X141228666Y-113955380D01*
X140562000Y-113288714D02*
X140371523Y-113955380D01*
X140181047Y-113479190D01*
X139990571Y-113955380D01*
X139800095Y-113288714D01*
X139038190Y-113907761D02*
X139133428Y-113955380D01*
X139323904Y-113955380D01*
X139419142Y-113907761D01*
X139466761Y-113812523D01*
X139466761Y-113431571D01*
X139419142Y-113336333D01*
X139323904Y-113288714D01*
X139133428Y-113288714D01*
X139038190Y-113336333D01*
X138990571Y-113431571D01*
X138990571Y-113526809D01*
X139466761Y-113622047D01*
X138562000Y-113955380D02*
X138562000Y-113288714D01*
X138562000Y-113479190D02*
X138514380Y-113383952D01*
X138466761Y-113336333D01*
X138371523Y-113288714D01*
X138276285Y-113288714D01*
X136847714Y-113431571D02*
X136704857Y-113479190D01*
X136657238Y-113526809D01*
X136609619Y-113622047D01*
X136609619Y-113764904D01*
X136657238Y-113860142D01*
X136704857Y-113907761D01*
X136800095Y-113955380D01*
X137181047Y-113955380D01*
X137181047Y-112955380D01*
X136847714Y-112955380D01*
X136752476Y-113003000D01*
X136704857Y-113050619D01*
X136657238Y-113145857D01*
X136657238Y-113241095D01*
X136704857Y-113336333D01*
X136752476Y-113383952D01*
X136847714Y-113431571D01*
X137181047Y-113431571D01*
X135752476Y-113288714D02*
X135752476Y-113955380D01*
X136181047Y-113288714D02*
X136181047Y-113812523D01*
X136133428Y-113907761D01*
X136038190Y-113955380D01*
X135895333Y-113955380D01*
X135800095Y-113907761D01*
X135752476Y-113860142D01*
X135419142Y-113288714D02*
X135038190Y-113288714D01*
X135276285Y-112955380D02*
X135276285Y-113812523D01*
X135228666Y-113907761D01*
X135133428Y-113955380D01*
X135038190Y-113955380D01*
X134847714Y-113288714D02*
X134466761Y-113288714D01*
X134704857Y-112955380D02*
X134704857Y-113812523D01*
X134657238Y-113907761D01*
X134562000Y-113955380D01*
X134466761Y-113955380D01*
X133990571Y-113955380D02*
X134085809Y-113907761D01*
X134133428Y-113860142D01*
X134181047Y-113764904D01*
X134181047Y-113479190D01*
X134133428Y-113383952D01*
X134085809Y-113336333D01*
X133990571Y-113288714D01*
X133847714Y-113288714D01*
X133752476Y-113336333D01*
X133704857Y-113383952D01*
X133657238Y-113479190D01*
X133657238Y-113764904D01*
X133704857Y-113860142D01*
X133752476Y-113907761D01*
X133847714Y-113955380D01*
X133990571Y-113955380D01*
X133228666Y-113288714D02*
X133228666Y-113955380D01*
X133228666Y-113383952D02*
X133181047Y-113336333D01*
X133085809Y-113288714D01*
X132942952Y-113288714D01*
X132847714Y-113336333D01*
X132800095Y-113431571D01*
X132800095Y-113955380D01*
X130847714Y-112907761D02*
X131704857Y-114193476D01*
X129800095Y-113907761D02*
X129657238Y-113955380D01*
X129419142Y-113955380D01*
X129323904Y-113907761D01*
X129276285Y-113860142D01*
X129228666Y-113764904D01*
X129228666Y-113669666D01*
X129276285Y-113574428D01*
X129323904Y-113526809D01*
X129419142Y-113479190D01*
X129609619Y-113431571D01*
X129704857Y-113383952D01*
X129752476Y-113336333D01*
X129800095Y-113241095D01*
X129800095Y-113145857D01*
X129752476Y-113050619D01*
X129704857Y-113003000D01*
X129609619Y-112955380D01*
X129371523Y-112955380D01*
X129228666Y-113003000D01*
X128800095Y-113288714D02*
X128800095Y-114288714D01*
X128800095Y-113336333D02*
X128704857Y-113288714D01*
X128514380Y-113288714D01*
X128419142Y-113336333D01*
X128371523Y-113383952D01*
X128323904Y-113479190D01*
X128323904Y-113764904D01*
X128371523Y-113860142D01*
X128419142Y-113907761D01*
X128514380Y-113955380D01*
X128704857Y-113955380D01*
X128800095Y-113907761D01*
X127514380Y-113907761D02*
X127609619Y-113955380D01*
X127800095Y-113955380D01*
X127895333Y-113907761D01*
X127942952Y-113812523D01*
X127942952Y-113431571D01*
X127895333Y-113336333D01*
X127800095Y-113288714D01*
X127609619Y-113288714D01*
X127514380Y-113336333D01*
X127466761Y-113431571D01*
X127466761Y-113526809D01*
X127942952Y-113622047D01*
X126609619Y-113955380D02*
X126609619Y-113431571D01*
X126657238Y-113336333D01*
X126752476Y-113288714D01*
X126942952Y-113288714D01*
X127038190Y-113336333D01*
X126609619Y-113907761D02*
X126704857Y-113955380D01*
X126942952Y-113955380D01*
X127038190Y-113907761D01*
X127085809Y-113812523D01*
X127085809Y-113717285D01*
X127038190Y-113622047D01*
X126942952Y-113574428D01*
X126704857Y-113574428D01*
X126609619Y-113526809D01*
X126133428Y-113955380D02*
X126133428Y-112955380D01*
X126038190Y-113574428D02*
X125752476Y-113955380D01*
X125752476Y-113288714D02*
X126133428Y-113669666D01*
X124942952Y-113907761D02*
X125038190Y-113955380D01*
X125228666Y-113955380D01*
X125323904Y-113907761D01*
X125371523Y-113812523D01*
X125371523Y-113431571D01*
X125323904Y-113336333D01*
X125228666Y-113288714D01*
X125038190Y-113288714D01*
X124942952Y-113336333D01*
X124895333Y-113431571D01*
X124895333Y-113526809D01*
X125371523Y-113622047D01*
X124466761Y-113955380D02*
X124466761Y-113288714D01*
X124466761Y-113479190D02*
X124419142Y-113383952D01*
X124371523Y-113336333D01*
X124276285Y-113288714D01*
X124181047Y-113288714D01*
X123895333Y-113907761D02*
X123800095Y-113955380D01*
X123609619Y-113955380D01*
X123514380Y-113907761D01*
X123466761Y-113812523D01*
X123466761Y-113764904D01*
X123514380Y-113669666D01*
X123609619Y-113622047D01*
X123752476Y-113622047D01*
X123847714Y-113574428D01*
X123895333Y-113479190D01*
X123895333Y-113431571D01*
X123847714Y-113336333D01*
X123752476Y-113288714D01*
X123609619Y-113288714D01*
X123514380Y-113336333D01*
X121562000Y-112907761D02*
X122419142Y-114193476D01*
X120752476Y-113955380D02*
X121228666Y-113955380D01*
X121228666Y-112955380D01*
X120419142Y-113431571D02*
X120085809Y-113431571D01*
X119942952Y-113955380D02*
X120419142Y-113955380D01*
X120419142Y-112955380D01*
X119942952Y-112955380D01*
X119514380Y-113955380D02*
X119514380Y-112955380D01*
X119276285Y-112955380D01*
X119133428Y-113003000D01*
X119038190Y-113098238D01*
X118990571Y-113193476D01*
X118942952Y-113383952D01*
X118942952Y-113526809D01*
X118990571Y-113717285D01*
X119038190Y-113812523D01*
X119133428Y-113907761D01*
X119276285Y-113955380D01*
X119514380Y-113955380D01*
X118466761Y-112955380D02*
X118562000Y-113145857D01*
X118085809Y-113907761D02*
X117990571Y-113955380D01*
X117800095Y-113955380D01*
X117704857Y-113907761D01*
X117657238Y-113812523D01*
X117657238Y-113764904D01*
X117704857Y-113669666D01*
X117800095Y-113622047D01*
X117942952Y-113622047D01*
X118038190Y-113574428D01*
X118085809Y-113479190D01*
X118085809Y-113431571D01*
X118038190Y-113336333D01*
X117942952Y-113288714D01*
X117800095Y-113288714D01*
X117704857Y-113336333D01*
X116514380Y-112907761D02*
X117371523Y-114193476D01*
X115466761Y-113669666D02*
X114990571Y-113669666D01*
X115562000Y-113955380D02*
X115228666Y-112955380D01*
X114895333Y-113955380D01*
X113990571Y-113860142D02*
X114038190Y-113907761D01*
X114181047Y-113955380D01*
X114276285Y-113955380D01*
X114419142Y-113907761D01*
X114514380Y-113812523D01*
X114562000Y-113717285D01*
X114609619Y-113526809D01*
X114609619Y-113383952D01*
X114562000Y-113193476D01*
X114514380Y-113098238D01*
X114419142Y-113003000D01*
X114276285Y-112955380D01*
X114181047Y-112955380D01*
X114038190Y-113003000D01*
X113990571Y-113050619D01*
X137728666Y-115319666D02*
X137252476Y-115319666D01*
X137823904Y-115605380D02*
X137490571Y-114605380D01*
X137157238Y-115605380D01*
X136395333Y-115605380D02*
X136395333Y-114605380D01*
X136395333Y-115557761D02*
X136490571Y-115605380D01*
X136681047Y-115605380D01*
X136776285Y-115557761D01*
X136823904Y-115510142D01*
X136871523Y-115414904D01*
X136871523Y-115129190D01*
X136823904Y-115033952D01*
X136776285Y-114986333D01*
X136681047Y-114938714D01*
X136490571Y-114938714D01*
X136395333Y-114986333D01*
X135490571Y-115605380D02*
X135490571Y-115081571D01*
X135538190Y-114986333D01*
X135633428Y-114938714D01*
X135823904Y-114938714D01*
X135919142Y-114986333D01*
X135490571Y-115557761D02*
X135585809Y-115605380D01*
X135823904Y-115605380D01*
X135919142Y-115557761D01*
X135966761Y-115462523D01*
X135966761Y-115367285D01*
X135919142Y-115272047D01*
X135823904Y-115224428D01*
X135585809Y-115224428D01*
X135490571Y-115176809D01*
X135014380Y-114938714D02*
X135014380Y-115938714D01*
X135014380Y-114986333D02*
X134919142Y-114938714D01*
X134728666Y-114938714D01*
X134633428Y-114986333D01*
X134585809Y-115033952D01*
X134538190Y-115129190D01*
X134538190Y-115414904D01*
X134585809Y-115510142D01*
X134633428Y-115557761D01*
X134728666Y-115605380D01*
X134919142Y-115605380D01*
X135014380Y-115557761D01*
X134252476Y-114938714D02*
X133871523Y-114938714D01*
X134109619Y-114605380D02*
X134109619Y-115462523D01*
X134062000Y-115557761D01*
X133966761Y-115605380D01*
X133871523Y-115605380D01*
X133157238Y-115557761D02*
X133252476Y-115605380D01*
X133442952Y-115605380D01*
X133538190Y-115557761D01*
X133585809Y-115462523D01*
X133585809Y-115081571D01*
X133538190Y-114986333D01*
X133442952Y-114938714D01*
X133252476Y-114938714D01*
X133157238Y-114986333D01*
X133109619Y-115081571D01*
X133109619Y-115176809D01*
X133585809Y-115272047D01*
X132681047Y-115605380D02*
X132681047Y-114938714D01*
X132681047Y-115129190D02*
X132633428Y-115033952D01*
X132585809Y-114986333D01*
X132490571Y-114938714D01*
X132395333Y-114938714D01*
X130966761Y-115081571D02*
X130823904Y-115129190D01*
X130776285Y-115176809D01*
X130728666Y-115272047D01*
X130728666Y-115414904D01*
X130776285Y-115510142D01*
X130823904Y-115557761D01*
X130919142Y-115605380D01*
X131300095Y-115605380D01*
X131300095Y-114605380D01*
X130966761Y-114605380D01*
X130871523Y-114653000D01*
X130823904Y-114700619D01*
X130776285Y-114795857D01*
X130776285Y-114891095D01*
X130823904Y-114986333D01*
X130871523Y-115033952D01*
X130966761Y-115081571D01*
X131300095Y-115081571D01*
X130157238Y-115605380D02*
X130252476Y-115557761D01*
X130300095Y-115510142D01*
X130347714Y-115414904D01*
X130347714Y-115129190D01*
X130300095Y-115033952D01*
X130252476Y-114986333D01*
X130157238Y-114938714D01*
X130014380Y-114938714D01*
X129919142Y-114986333D01*
X129871523Y-115033952D01*
X129823904Y-115129190D01*
X129823904Y-115414904D01*
X129871523Y-115510142D01*
X129919142Y-115557761D01*
X130014380Y-115605380D01*
X130157238Y-115605380D01*
X128966761Y-115605380D02*
X128966761Y-115081571D01*
X129014380Y-114986333D01*
X129109619Y-114938714D01*
X129300095Y-114938714D01*
X129395333Y-114986333D01*
X128966761Y-115557761D02*
X129062000Y-115605380D01*
X129300095Y-115605380D01*
X129395333Y-115557761D01*
X129442952Y-115462523D01*
X129442952Y-115367285D01*
X129395333Y-115272047D01*
X129300095Y-115224428D01*
X129062000Y-115224428D01*
X128966761Y-115176809D01*
X128490571Y-115605380D02*
X128490571Y-114938714D01*
X128490571Y-115129190D02*
X128442952Y-115033952D01*
X128395333Y-114986333D01*
X128300095Y-114938714D01*
X128204857Y-114938714D01*
X127442952Y-115605380D02*
X127442952Y-114605380D01*
X127442952Y-115557761D02*
X127538190Y-115605380D01*
X127728666Y-115605380D01*
X127823904Y-115557761D01*
X127871523Y-115510142D01*
X127919142Y-115414904D01*
X127919142Y-115129190D01*
X127871523Y-115033952D01*
X127823904Y-114986333D01*
X127728666Y-114938714D01*
X127538190Y-114938714D01*
X127442952Y-114986333D01*
D11*
X129734000Y-93278000D02*
X129734000Y-88078000D01*
X160274000Y-93278000D02*
X129734000Y-93278000D01*
X162874000Y-88078000D02*
X129734000Y-88078000D01*
X160274000Y-93278000D02*
X160274000Y-90678000D01*
X160274000Y-90678000D02*
X162874000Y-90678000D01*
X162874000Y-90678000D02*
X162874000Y-88078000D01*
X161544000Y-93278000D02*
X162874000Y-93278000D01*
X162874000Y-93278000D02*
X162874000Y-91948000D01*
X165740000Y-96890000D02*
G75*
G03X166440000Y-96190000I0J700000D01*
G01*
X166440000Y-95590000D02*
G75*
G03X165740000Y-94890000I-700000J0D01*
G01*
X164340000Y-94890000D02*
G75*
G03X163640000Y-95590000I0J-700000D01*
G01*
X163640000Y-96190000D02*
G75*
G03X164340000Y-96890000I700000J0D01*
G01*
X163640000Y-95590000D02*
X163640000Y-96190000D01*
X165740000Y-94890000D02*
X164340000Y-94890000D01*
X166440000Y-96190000D02*
X166440000Y-95590000D01*
X164340000Y-96890000D02*
X165740000Y-96890000D01*
X169490000Y-101690000D02*
X169790000Y-101990000D01*
X169790000Y-101390000D02*
X169790000Y-101990000D01*
X169490000Y-101690000D02*
X169790000Y-101390000D01*
X168590000Y-100840000D02*
X167990000Y-100840000D01*
X169290000Y-104290000D02*
X169290000Y-101490000D01*
X167990000Y-104940000D02*
X168590000Y-104940000D01*
X167290000Y-101490000D02*
X167290000Y-104290000D01*
X167290000Y-104240000D02*
G75*
G03X167990000Y-104940000I700000J0D01*
G01*
X168590000Y-104940000D02*
G75*
G03X169290000Y-104240000I0J700000D01*
G01*
X169290000Y-101540000D02*
G75*
G03X168590000Y-100840000I-700000J0D01*
G01*
X167990000Y-100840000D02*
G75*
G03X167290000Y-101540000I0J-700000D01*
G01*
X162290000Y-100340000D02*
X162290000Y-98940000D01*
X161590000Y-98240000D02*
X160990000Y-98240000D01*
X160290000Y-98940000D02*
X160290000Y-100340000D01*
X160990000Y-101040000D02*
X161590000Y-101040000D01*
X161590000Y-101040000D02*
G75*
G03X162290000Y-100340000I0J700000D01*
G01*
X160290000Y-100340000D02*
G75*
G03X160990000Y-101040000I700000J0D01*
G01*
X160990000Y-98240000D02*
G75*
G03X160290000Y-98940000I0J-700000D01*
G01*
X162290000Y-98940000D02*
G75*
G03X161590000Y-98240000I-700000J0D01*
G01*
D10*
X163742380Y-91806666D02*
X164456666Y-91806666D01*
X164599523Y-91759047D01*
X164694761Y-91663809D01*
X164742380Y-91520952D01*
X164742380Y-91425714D01*
X164742380Y-92806666D02*
X164742380Y-92235238D01*
X164742380Y-92520952D02*
X163742380Y-92520952D01*
X163885238Y-92425714D01*
X163980476Y-92330476D01*
X164028095Y-92235238D01*
X165873333Y-97142380D02*
X165873333Y-97856666D01*
X165920952Y-97999523D01*
X166016190Y-98094761D01*
X166159047Y-98142380D01*
X166254285Y-98142380D01*
X165397142Y-98142380D02*
X165397142Y-97142380D01*
X165016190Y-97142380D01*
X164920952Y-97190000D01*
X164873333Y-97237619D01*
X164825714Y-97332857D01*
X164825714Y-97475714D01*
X164873333Y-97570952D01*
X164920952Y-97618571D01*
X165016190Y-97666190D01*
X165397142Y-97666190D01*
X163873333Y-98142380D02*
X164444761Y-98142380D01*
X164159047Y-98142380D02*
X164159047Y-97142380D01*
X164254285Y-97285238D01*
X164349523Y-97380476D01*
X164444761Y-97428095D01*
X169742380Y-101806666D02*
X170456666Y-101806666D01*
X170599523Y-101759047D01*
X170694761Y-101663809D01*
X170742380Y-101520952D01*
X170742380Y-101425714D01*
X170742380Y-102282857D02*
X169742380Y-102282857D01*
X169742380Y-102663809D01*
X169790000Y-102759047D01*
X169837619Y-102806666D01*
X169932857Y-102854285D01*
X170075714Y-102854285D01*
X170170952Y-102806666D01*
X170218571Y-102759047D01*
X170266190Y-102663809D01*
X170266190Y-102282857D01*
X169837619Y-103235238D02*
X169790000Y-103282857D01*
X169742380Y-103378095D01*
X169742380Y-103616190D01*
X169790000Y-103711428D01*
X169837619Y-103759047D01*
X169932857Y-103806666D01*
X170028095Y-103806666D01*
X170170952Y-103759047D01*
X170742380Y-103187619D01*
X170742380Y-103806666D01*
X162542380Y-98806666D02*
X163256666Y-98806666D01*
X163399523Y-98759047D01*
X163494761Y-98663809D01*
X163542380Y-98520952D01*
X163542380Y-98425714D01*
X163542380Y-99282857D02*
X162542380Y-99282857D01*
X162542380Y-99663809D01*
X162590000Y-99759047D01*
X162637619Y-99806666D01*
X162732857Y-99854285D01*
X162875714Y-99854285D01*
X162970952Y-99806666D01*
X163018571Y-99759047D01*
X163066190Y-99663809D01*
X163066190Y-99282857D01*
X162542380Y-100187619D02*
X162542380Y-100806666D01*
X162923333Y-100473333D01*
X162923333Y-100616190D01*
X162970952Y-100711428D01*
X163018571Y-100759047D01*
X163113809Y-100806666D01*
X163351904Y-100806666D01*
X163447142Y-100759047D01*
X163494761Y-100711428D01*
X163542380Y-100616190D01*
X163542380Y-100330476D01*
X163494761Y-100235238D01*
X163447142Y-100187619D01*
M02*
