G04 #@! TF.GenerationSoftware,KiCad,Pcbnew,5.1.5-52549c5~84~ubuntu18.04.1*
G04 #@! TF.CreationDate,2020-04-07T14:05:37-04:00*
G04 #@! TF.ProjectId,imac_g3_slot_loading_J22_adapter_board,696d6163-5f67-4335-9f73-6c6f745f6c6f,2*
G04 #@! TF.SameCoordinates,Original*
G04 #@! TF.FileFunction,Legend,Top*
G04 #@! TF.FilePolarity,Positive*
%FSLAX46Y46*%
G04 Gerber Fmt 4.6, Leading zero omitted, Abs format (unit mm)*
G04 Created by KiCad (PCBNEW 5.1.5-52549c5~84~ubuntu18.04.1) date 2020-04-07 14:05:37*
%MOMM*%
%LPD*%
G04 APERTURE LIST*
%ADD10C,0.150000*%
%ADD11C,0.120000*%
%ADD12C,0.125000*%
G04 APERTURE END LIST*
D10*
X139301904Y-99937619D02*
X139349523Y-99890000D01*
X139444761Y-99842380D01*
X139682857Y-99842380D01*
X139778095Y-99890000D01*
X139825714Y-99937619D01*
X139873333Y-100032857D01*
X139873333Y-100128095D01*
X139825714Y-100270952D01*
X139254285Y-100842380D01*
X139873333Y-100842380D01*
X140254285Y-99937619D02*
X140301904Y-99890000D01*
X140397142Y-99842380D01*
X140635238Y-99842380D01*
X140730476Y-99890000D01*
X140778095Y-99937619D01*
X140825714Y-100032857D01*
X140825714Y-100128095D01*
X140778095Y-100270952D01*
X140206666Y-100842380D01*
X140825714Y-100842380D01*
X141444761Y-99842380D02*
X141540000Y-99842380D01*
X141635238Y-99890000D01*
X141682857Y-99937619D01*
X141730476Y-100032857D01*
X141778095Y-100223333D01*
X141778095Y-100461428D01*
X141730476Y-100651904D01*
X141682857Y-100747142D01*
X141635238Y-100794761D01*
X141540000Y-100842380D01*
X141444761Y-100842380D01*
X141349523Y-100794761D01*
X141301904Y-100747142D01*
X141254285Y-100651904D01*
X141206666Y-100461428D01*
X141206666Y-100223333D01*
X141254285Y-100032857D01*
X141301904Y-99937619D01*
X141349523Y-99890000D01*
X141444761Y-99842380D01*
X151801904Y-99937619D02*
X151849523Y-99890000D01*
X151944761Y-99842380D01*
X152182857Y-99842380D01*
X152278095Y-99890000D01*
X152325714Y-99937619D01*
X152373333Y-100032857D01*
X152373333Y-100128095D01*
X152325714Y-100270952D01*
X151754285Y-100842380D01*
X152373333Y-100842380D01*
X152754285Y-99937619D02*
X152801904Y-99890000D01*
X152897142Y-99842380D01*
X153135238Y-99842380D01*
X153230476Y-99890000D01*
X153278095Y-99937619D01*
X153325714Y-100032857D01*
X153325714Y-100128095D01*
X153278095Y-100270952D01*
X152706666Y-100842380D01*
X153325714Y-100842380D01*
X153944761Y-99842380D02*
X154040000Y-99842380D01*
X154135238Y-99890000D01*
X154182857Y-99937619D01*
X154230476Y-100032857D01*
X154278095Y-100223333D01*
X154278095Y-100461428D01*
X154230476Y-100651904D01*
X154182857Y-100747142D01*
X154135238Y-100794761D01*
X154040000Y-100842380D01*
X153944761Y-100842380D01*
X153849523Y-100794761D01*
X153801904Y-100747142D01*
X153754285Y-100651904D01*
X153706666Y-100461428D01*
X153706666Y-100223333D01*
X153754285Y-100032857D01*
X153801904Y-99937619D01*
X153849523Y-99890000D01*
X153944761Y-99842380D01*
X157623333Y-94187619D02*
X157670952Y-94140000D01*
X157766190Y-94092380D01*
X158004285Y-94092380D01*
X158099523Y-94140000D01*
X158147142Y-94187619D01*
X158194761Y-94282857D01*
X158194761Y-94378095D01*
X158147142Y-94520952D01*
X157575714Y-95092380D01*
X158194761Y-95092380D01*
X158623333Y-95092380D02*
X158623333Y-94092380D01*
X158718571Y-94711428D02*
X159004285Y-95092380D01*
X159004285Y-94425714D02*
X158623333Y-94806666D01*
X159385238Y-94187619D02*
X159432857Y-94140000D01*
X159528095Y-94092380D01*
X159766190Y-94092380D01*
X159861428Y-94140000D01*
X159909047Y-94187619D01*
X159956666Y-94282857D01*
X159956666Y-94378095D01*
X159909047Y-94520952D01*
X159337619Y-95092380D01*
X159956666Y-95092380D01*
X164194761Y-91842380D02*
X163623333Y-91842380D01*
X163909047Y-91842380D02*
X163909047Y-90842380D01*
X163813809Y-90985238D01*
X163718571Y-91080476D01*
X163623333Y-91128095D01*
X165051904Y-91175714D02*
X165051904Y-91842380D01*
X164623333Y-91175714D02*
X164623333Y-91699523D01*
X164670952Y-91794761D01*
X164766190Y-91842380D01*
X164909047Y-91842380D01*
X165004285Y-91794761D01*
X165051904Y-91747142D01*
X165861428Y-91318571D02*
X165528095Y-91318571D01*
X165528095Y-91842380D02*
X165528095Y-90842380D01*
X166004285Y-90842380D01*
X107730476Y-101711428D02*
X108492380Y-101711428D01*
X108111428Y-102092380D02*
X108111428Y-101330476D01*
X108920952Y-101806666D02*
X109397142Y-101806666D01*
X108825714Y-102092380D02*
X109159047Y-101092380D01*
X109492380Y-102092380D01*
X110397142Y-101997142D02*
X110349523Y-102044761D01*
X110206666Y-102092380D01*
X110111428Y-102092380D01*
X109968571Y-102044761D01*
X109873333Y-101949523D01*
X109825714Y-101854285D01*
X109778095Y-101663809D01*
X109778095Y-101520952D01*
X109825714Y-101330476D01*
X109873333Y-101235238D01*
X109968571Y-101140000D01*
X110111428Y-101092380D01*
X110206666Y-101092380D01*
X110349523Y-101140000D01*
X110397142Y-101187619D01*
X112730476Y-101711428D02*
X113492380Y-101711428D01*
X113920952Y-101806666D02*
X114397142Y-101806666D01*
X113825714Y-102092380D02*
X114159047Y-101092380D01*
X114492380Y-102092380D01*
X115397142Y-101997142D02*
X115349523Y-102044761D01*
X115206666Y-102092380D01*
X115111428Y-102092380D01*
X114968571Y-102044761D01*
X114873333Y-101949523D01*
X114825714Y-101854285D01*
X114778095Y-101663809D01*
X114778095Y-101520952D01*
X114825714Y-101330476D01*
X114873333Y-101235238D01*
X114968571Y-101140000D01*
X115111428Y-101092380D01*
X115206666Y-101092380D01*
X115349523Y-101140000D01*
X115397142Y-101187619D01*
X118673333Y-100090000D02*
X118606666Y-100056666D01*
X118506666Y-100056666D01*
X118406666Y-100090000D01*
X118340000Y-100156666D01*
X118306666Y-100223333D01*
X118273333Y-100356666D01*
X118273333Y-100456666D01*
X118306666Y-100590000D01*
X118340000Y-100656666D01*
X118406666Y-100723333D01*
X118506666Y-100756666D01*
X118573333Y-100756666D01*
X118673333Y-100723333D01*
X118706666Y-100690000D01*
X118706666Y-100456666D01*
X118573333Y-100456666D01*
X119406666Y-100756666D02*
X119173333Y-100423333D01*
X119006666Y-100756666D02*
X119006666Y-100056666D01*
X119273333Y-100056666D01*
X119340000Y-100090000D01*
X119373333Y-100123333D01*
X119406666Y-100190000D01*
X119406666Y-100290000D01*
X119373333Y-100356666D01*
X119340000Y-100390000D01*
X119273333Y-100423333D01*
X119006666Y-100423333D01*
X119706666Y-100390000D02*
X119940000Y-100390000D01*
X120040000Y-100756666D02*
X119706666Y-100756666D01*
X119706666Y-100056666D01*
X120040000Y-100056666D01*
X120340000Y-100390000D02*
X120573333Y-100390000D01*
X120673333Y-100756666D02*
X120340000Y-100756666D01*
X120340000Y-100056666D01*
X120673333Y-100056666D01*
X120973333Y-100756666D02*
X120973333Y-100056666D01*
X121373333Y-100756666D01*
X121373333Y-100056666D01*
X119390000Y-101956666D02*
X119056666Y-101956666D01*
X119056666Y-101256666D01*
X119623333Y-101590000D02*
X119856666Y-101590000D01*
X119956666Y-101956666D02*
X119623333Y-101956666D01*
X119623333Y-101256666D01*
X119956666Y-101256666D01*
X120256666Y-101956666D02*
X120256666Y-101256666D01*
X120423333Y-101256666D01*
X120523333Y-101290000D01*
X120590000Y-101356666D01*
X120623333Y-101423333D01*
X120656666Y-101556666D01*
X120656666Y-101656666D01*
X120623333Y-101790000D01*
X120590000Y-101856666D01*
X120523333Y-101923333D01*
X120423333Y-101956666D01*
X120256666Y-101956666D01*
X124106666Y-101356666D02*
X124106666Y-100656666D01*
X124373333Y-100656666D01*
X124440000Y-100690000D01*
X124473333Y-100723333D01*
X124506666Y-100790000D01*
X124506666Y-100890000D01*
X124473333Y-100956666D01*
X124440000Y-100990000D01*
X124373333Y-101023333D01*
X124106666Y-101023333D01*
X124740000Y-100656666D02*
X124906666Y-101356666D01*
X125040000Y-100856666D01*
X125173333Y-101356666D01*
X125340000Y-100656666D01*
X126006666Y-101356666D02*
X125773333Y-101023333D01*
X125606666Y-101356666D02*
X125606666Y-100656666D01*
X125873333Y-100656666D01*
X125940000Y-100690000D01*
X125973333Y-100723333D01*
X126006666Y-100790000D01*
X126006666Y-100890000D01*
X125973333Y-100956666D01*
X125940000Y-100990000D01*
X125873333Y-101023333D01*
X125606666Y-101023333D01*
X123456666Y-102190000D02*
X123556666Y-102223333D01*
X123590000Y-102256666D01*
X123623333Y-102323333D01*
X123623333Y-102423333D01*
X123590000Y-102490000D01*
X123556666Y-102523333D01*
X123490000Y-102556666D01*
X123223333Y-102556666D01*
X123223333Y-101856666D01*
X123456666Y-101856666D01*
X123523333Y-101890000D01*
X123556666Y-101923333D01*
X123590000Y-101990000D01*
X123590000Y-102056666D01*
X123556666Y-102123333D01*
X123523333Y-102156666D01*
X123456666Y-102190000D01*
X123223333Y-102190000D01*
X123923333Y-101856666D02*
X123923333Y-102423333D01*
X123956666Y-102490000D01*
X123990000Y-102523333D01*
X124056666Y-102556666D01*
X124190000Y-102556666D01*
X124256666Y-102523333D01*
X124290000Y-102490000D01*
X124323333Y-102423333D01*
X124323333Y-101856666D01*
X124556666Y-101856666D02*
X124956666Y-101856666D01*
X124756666Y-102556666D02*
X124756666Y-101856666D01*
X125090000Y-101856666D02*
X125490000Y-101856666D01*
X125290000Y-102556666D02*
X125290000Y-101856666D01*
X125856666Y-101856666D02*
X125990000Y-101856666D01*
X126056666Y-101890000D01*
X126123333Y-101956666D01*
X126156666Y-102090000D01*
X126156666Y-102323333D01*
X126123333Y-102456666D01*
X126056666Y-102523333D01*
X125990000Y-102556666D01*
X125856666Y-102556666D01*
X125790000Y-102523333D01*
X125723333Y-102456666D01*
X125690000Y-102323333D01*
X125690000Y-102090000D01*
X125723333Y-101956666D01*
X125790000Y-101890000D01*
X125856666Y-101856666D01*
X126456666Y-102556666D02*
X126456666Y-101856666D01*
X126856666Y-102556666D01*
X126856666Y-101856666D01*
X128456666Y-100756666D02*
X128790000Y-100756666D01*
X128390000Y-100956666D02*
X128623333Y-100256666D01*
X128856666Y-100956666D01*
X129090000Y-100956666D02*
X129090000Y-100256666D01*
X129323333Y-100756666D01*
X129556666Y-100256666D01*
X129556666Y-100956666D01*
X130123333Y-100590000D02*
X130223333Y-100623333D01*
X130256666Y-100656666D01*
X130290000Y-100723333D01*
X130290000Y-100823333D01*
X130256666Y-100890000D01*
X130223333Y-100923333D01*
X130156666Y-100956666D01*
X129890000Y-100956666D01*
X129890000Y-100256666D01*
X130123333Y-100256666D01*
X130190000Y-100290000D01*
X130223333Y-100323333D01*
X130256666Y-100390000D01*
X130256666Y-100456666D01*
X130223333Y-100523333D01*
X130190000Y-100556666D01*
X130123333Y-100590000D01*
X129890000Y-100590000D01*
X130590000Y-100590000D02*
X130823333Y-100590000D01*
X130923333Y-100956666D02*
X130590000Y-100956666D01*
X130590000Y-100256666D01*
X130923333Y-100256666D01*
X131623333Y-100956666D02*
X131390000Y-100623333D01*
X131223333Y-100956666D02*
X131223333Y-100256666D01*
X131490000Y-100256666D01*
X131556666Y-100290000D01*
X131590000Y-100323333D01*
X131623333Y-100390000D01*
X131623333Y-100490000D01*
X131590000Y-100556666D01*
X131556666Y-100590000D01*
X131490000Y-100623333D01*
X131223333Y-100623333D01*
X129590000Y-102156666D02*
X129256666Y-102156666D01*
X129256666Y-101456666D01*
X129823333Y-101790000D02*
X130056666Y-101790000D01*
X130156666Y-102156666D02*
X129823333Y-102156666D01*
X129823333Y-101456666D01*
X130156666Y-101456666D01*
X130456666Y-102156666D02*
X130456666Y-101456666D01*
X130623333Y-101456666D01*
X130723333Y-101490000D01*
X130790000Y-101556666D01*
X130823333Y-101623333D01*
X130856666Y-101756666D01*
X130856666Y-101856666D01*
X130823333Y-101990000D01*
X130790000Y-102056666D01*
X130723333Y-102123333D01*
X130623333Y-102156666D01*
X130456666Y-102156666D01*
X133278095Y-101140000D02*
X133182857Y-101092380D01*
X133040000Y-101092380D01*
X132897142Y-101140000D01*
X132801904Y-101235238D01*
X132754285Y-101330476D01*
X132706666Y-101520952D01*
X132706666Y-101663809D01*
X132754285Y-101854285D01*
X132801904Y-101949523D01*
X132897142Y-102044761D01*
X133040000Y-102092380D01*
X133135238Y-102092380D01*
X133278095Y-102044761D01*
X133325714Y-101997142D01*
X133325714Y-101663809D01*
X133135238Y-101663809D01*
X133754285Y-102092380D02*
X133754285Y-101092380D01*
X134325714Y-102092380D01*
X134325714Y-101092380D01*
X134801904Y-102092380D02*
X134801904Y-101092380D01*
X135040000Y-101092380D01*
X135182857Y-101140000D01*
X135278095Y-101235238D01*
X135325714Y-101330476D01*
X135373333Y-101520952D01*
X135373333Y-101663809D01*
X135325714Y-101854285D01*
X135278095Y-101949523D01*
X135182857Y-102044761D01*
X135040000Y-102092380D01*
X134801904Y-102092380D01*
X138254285Y-101711428D02*
X139016190Y-101711428D01*
X139968571Y-102092380D02*
X139492380Y-102092380D01*
X139492380Y-101092380D01*
X143254285Y-101711428D02*
X144016190Y-101711428D01*
X143635238Y-102092380D02*
X143635238Y-101330476D01*
X144968571Y-102092380D02*
X144492380Y-102092380D01*
X144492380Y-101092380D01*
X148159047Y-101711428D02*
X148920952Y-101711428D01*
X149968571Y-102092380D02*
X149635238Y-101616190D01*
X149397142Y-102092380D02*
X149397142Y-101092380D01*
X149778095Y-101092380D01*
X149873333Y-101140000D01*
X149920952Y-101187619D01*
X149968571Y-101282857D01*
X149968571Y-101425714D01*
X149920952Y-101520952D01*
X149873333Y-101568571D01*
X149778095Y-101616190D01*
X149397142Y-101616190D01*
X154159047Y-101711428D02*
X154920952Y-101711428D01*
X154540000Y-102092380D02*
X154540000Y-101330476D01*
X155968571Y-102092380D02*
X155635238Y-101616190D01*
X155397142Y-102092380D02*
X155397142Y-101092380D01*
X155778095Y-101092380D01*
X155873333Y-101140000D01*
X155920952Y-101187619D01*
X155968571Y-101282857D01*
X155968571Y-101425714D01*
X155920952Y-101520952D01*
X155873333Y-101568571D01*
X155778095Y-101616190D01*
X155397142Y-101616190D01*
X124854857Y-89380380D02*
X124521523Y-88904190D01*
X124283428Y-89380380D02*
X124283428Y-88380380D01*
X124664380Y-88380380D01*
X124759619Y-88428000D01*
X124807238Y-88475619D01*
X124854857Y-88570857D01*
X124854857Y-88713714D01*
X124807238Y-88808952D01*
X124759619Y-88856571D01*
X124664380Y-88904190D01*
X124283428Y-88904190D01*
X125664380Y-89332761D02*
X125569142Y-89380380D01*
X125378666Y-89380380D01*
X125283428Y-89332761D01*
X125235809Y-89237523D01*
X125235809Y-88856571D01*
X125283428Y-88761333D01*
X125378666Y-88713714D01*
X125569142Y-88713714D01*
X125664380Y-88761333D01*
X125712000Y-88856571D01*
X125712000Y-88951809D01*
X125235809Y-89047047D01*
X126045333Y-88713714D02*
X126283428Y-89380380D01*
X126521523Y-88713714D01*
X127616761Y-88475619D02*
X127664380Y-88428000D01*
X127759619Y-88380380D01*
X127997714Y-88380380D01*
X128092952Y-88428000D01*
X128140571Y-88475619D01*
X128188190Y-88570857D01*
X128188190Y-88666095D01*
X128140571Y-88808952D01*
X127569142Y-89380380D01*
X128188190Y-89380380D01*
X114298190Y-89380380D02*
X113964857Y-88904190D01*
X113726761Y-89380380D02*
X113726761Y-88380380D01*
X114107714Y-88380380D01*
X114202952Y-88428000D01*
X114250571Y-88475619D01*
X114298190Y-88570857D01*
X114298190Y-88713714D01*
X114250571Y-88808952D01*
X114202952Y-88856571D01*
X114107714Y-88904190D01*
X113726761Y-88904190D01*
X114869619Y-89380380D02*
X114774380Y-89332761D01*
X114726761Y-89285142D01*
X114679142Y-89189904D01*
X114679142Y-88904190D01*
X114726761Y-88808952D01*
X114774380Y-88761333D01*
X114869619Y-88713714D01*
X115012476Y-88713714D01*
X115107714Y-88761333D01*
X115155333Y-88808952D01*
X115202952Y-88904190D01*
X115202952Y-89189904D01*
X115155333Y-89285142D01*
X115107714Y-89332761D01*
X115012476Y-89380380D01*
X114869619Y-89380380D01*
X116060095Y-89332761D02*
X115964857Y-89380380D01*
X115774380Y-89380380D01*
X115679142Y-89332761D01*
X115631523Y-89285142D01*
X115583904Y-89189904D01*
X115583904Y-88904190D01*
X115631523Y-88808952D01*
X115679142Y-88761333D01*
X115774380Y-88713714D01*
X115964857Y-88713714D01*
X116060095Y-88761333D01*
X116488666Y-89380380D02*
X116488666Y-88380380D01*
X116583904Y-88999428D02*
X116869619Y-89380380D01*
X116869619Y-88713714D02*
X116488666Y-89094666D01*
X117202952Y-88713714D02*
X117441047Y-89380380D01*
X117679142Y-88713714D02*
X117441047Y-89380380D01*
X117345809Y-89618476D01*
X117298190Y-89666095D01*
X117202952Y-89713714D01*
X118822000Y-89380380D02*
X118822000Y-88380380D01*
X118822000Y-88856571D02*
X119393428Y-88856571D01*
X119393428Y-89380380D02*
X119393428Y-88380380D01*
X119869619Y-89380380D02*
X119869619Y-88713714D01*
X119869619Y-88380380D02*
X119822000Y-88428000D01*
X119869619Y-88475619D01*
X119917238Y-88428000D01*
X119869619Y-88380380D01*
X119869619Y-88475619D01*
X120488666Y-89380380D02*
X120393428Y-89332761D01*
X120345809Y-89237523D01*
X120345809Y-88380380D01*
X121012476Y-89380380D02*
X120917238Y-89332761D01*
X120869619Y-89237523D01*
X120869619Y-88380380D01*
X128230476Y-94842380D02*
X128230476Y-93842380D01*
X128230476Y-94318571D02*
X128801904Y-94318571D01*
X128801904Y-94842380D02*
X128801904Y-93842380D01*
X129230476Y-93937619D02*
X129278095Y-93890000D01*
X129373333Y-93842380D01*
X129611428Y-93842380D01*
X129706666Y-93890000D01*
X129754285Y-93937619D01*
X129801904Y-94032857D01*
X129801904Y-94128095D01*
X129754285Y-94270952D01*
X129182857Y-94842380D01*
X129801904Y-94842380D01*
X131468571Y-94842380D02*
X130992380Y-94842380D01*
X130992380Y-93842380D01*
X131801904Y-94318571D02*
X132135238Y-94318571D01*
X132278095Y-94842380D02*
X131801904Y-94842380D01*
X131801904Y-93842380D01*
X132278095Y-93842380D01*
X133040000Y-94318571D02*
X132706666Y-94318571D01*
X132706666Y-94842380D02*
X132706666Y-93842380D01*
X133182857Y-93842380D01*
X133420952Y-93842380D02*
X133992380Y-93842380D01*
X133706666Y-94842380D02*
X133706666Y-93842380D01*
X128266190Y-97000380D02*
X128266190Y-96000380D01*
X128266190Y-96476571D02*
X128837619Y-96476571D01*
X128837619Y-97000380D02*
X128837619Y-96000380D01*
X129837619Y-97000380D02*
X129266190Y-97000380D01*
X129551904Y-97000380D02*
X129551904Y-96000380D01*
X129456666Y-96143238D01*
X129361428Y-96238476D01*
X129266190Y-96286095D01*
X130980476Y-96952761D02*
X131123333Y-97000380D01*
X131361428Y-97000380D01*
X131456666Y-96952761D01*
X131504285Y-96905142D01*
X131551904Y-96809904D01*
X131551904Y-96714666D01*
X131504285Y-96619428D01*
X131456666Y-96571809D01*
X131361428Y-96524190D01*
X131170952Y-96476571D01*
X131075714Y-96428952D01*
X131028095Y-96381333D01*
X130980476Y-96286095D01*
X130980476Y-96190857D01*
X131028095Y-96095619D01*
X131075714Y-96048000D01*
X131170952Y-96000380D01*
X131409047Y-96000380D01*
X131551904Y-96048000D01*
X131980476Y-96476571D02*
X132313809Y-96476571D01*
X132456666Y-97000380D02*
X131980476Y-97000380D01*
X131980476Y-96000380D01*
X132456666Y-96000380D01*
X132885238Y-97000380D02*
X132885238Y-96000380D01*
X133456666Y-97000380D01*
X133456666Y-96000380D01*
X133885238Y-96952761D02*
X134028095Y-97000380D01*
X134266190Y-97000380D01*
X134361428Y-96952761D01*
X134409047Y-96905142D01*
X134456666Y-96809904D01*
X134456666Y-96714666D01*
X134409047Y-96619428D01*
X134361428Y-96571809D01*
X134266190Y-96524190D01*
X134075714Y-96476571D01*
X133980476Y-96428952D01*
X133932857Y-96381333D01*
X133885238Y-96286095D01*
X133885238Y-96190857D01*
X133932857Y-96095619D01*
X133980476Y-96048000D01*
X134075714Y-96000380D01*
X134313809Y-96000380D01*
X134456666Y-96048000D01*
X134885238Y-96476571D02*
X135218571Y-96476571D01*
X135361428Y-97000380D02*
X134885238Y-97000380D01*
X134885238Y-96000380D01*
X135361428Y-96000380D01*
X115004285Y-94342380D02*
X115004285Y-93342380D01*
X115004285Y-93818571D02*
X115575714Y-93818571D01*
X115575714Y-94342380D02*
X115575714Y-93342380D01*
X116004285Y-93437619D02*
X116051904Y-93390000D01*
X116147142Y-93342380D01*
X116385238Y-93342380D01*
X116480476Y-93390000D01*
X116528095Y-93437619D01*
X116575714Y-93532857D01*
X116575714Y-93628095D01*
X116528095Y-93770952D01*
X115956666Y-94342380D01*
X116575714Y-94342380D01*
X118337619Y-94342380D02*
X118004285Y-93866190D01*
X117766190Y-94342380D02*
X117766190Y-93342380D01*
X118147142Y-93342380D01*
X118242380Y-93390000D01*
X118290000Y-93437619D01*
X118337619Y-93532857D01*
X118337619Y-93675714D01*
X118290000Y-93770952D01*
X118242380Y-93818571D01*
X118147142Y-93866190D01*
X117766190Y-93866190D01*
X118766190Y-94342380D02*
X118766190Y-93342380D01*
X119766190Y-93390000D02*
X119670952Y-93342380D01*
X119528095Y-93342380D01*
X119385238Y-93390000D01*
X119290000Y-93485238D01*
X119242380Y-93580476D01*
X119194761Y-93770952D01*
X119194761Y-93913809D01*
X119242380Y-94104285D01*
X119290000Y-94199523D01*
X119385238Y-94294761D01*
X119528095Y-94342380D01*
X119623333Y-94342380D01*
X119766190Y-94294761D01*
X119813809Y-94247142D01*
X119813809Y-93913809D01*
X119623333Y-93913809D01*
X120242380Y-94342380D02*
X120242380Y-93342380D01*
X120242380Y-93818571D02*
X120813809Y-93818571D01*
X120813809Y-94342380D02*
X120813809Y-93342380D01*
X121147142Y-93342380D02*
X121718571Y-93342380D01*
X121432857Y-94342380D02*
X121432857Y-93342380D01*
X114516190Y-97000380D02*
X114516190Y-96000380D01*
X114516190Y-96476571D02*
X115087619Y-96476571D01*
X115087619Y-97000380D02*
X115087619Y-96000380D01*
X115516190Y-96095619D02*
X115563809Y-96048000D01*
X115659047Y-96000380D01*
X115897142Y-96000380D01*
X115992380Y-96048000D01*
X116040000Y-96095619D01*
X116087619Y-96190857D01*
X116087619Y-96286095D01*
X116040000Y-96428952D01*
X115468571Y-97000380D01*
X116087619Y-97000380D01*
X117230476Y-96952761D02*
X117373333Y-97000380D01*
X117611428Y-97000380D01*
X117706666Y-96952761D01*
X117754285Y-96905142D01*
X117801904Y-96809904D01*
X117801904Y-96714666D01*
X117754285Y-96619428D01*
X117706666Y-96571809D01*
X117611428Y-96524190D01*
X117420952Y-96476571D01*
X117325714Y-96428952D01*
X117278095Y-96381333D01*
X117230476Y-96286095D01*
X117230476Y-96190857D01*
X117278095Y-96095619D01*
X117325714Y-96048000D01*
X117420952Y-96000380D01*
X117659047Y-96000380D01*
X117801904Y-96048000D01*
X118230476Y-96476571D02*
X118563809Y-96476571D01*
X118706666Y-97000380D02*
X118230476Y-97000380D01*
X118230476Y-96000380D01*
X118706666Y-96000380D01*
X119135238Y-97000380D02*
X119135238Y-96000380D01*
X119706666Y-97000380D01*
X119706666Y-96000380D01*
X120135238Y-96952761D02*
X120278095Y-97000380D01*
X120516190Y-97000380D01*
X120611428Y-96952761D01*
X120659047Y-96905142D01*
X120706666Y-96809904D01*
X120706666Y-96714666D01*
X120659047Y-96619428D01*
X120611428Y-96571809D01*
X120516190Y-96524190D01*
X120325714Y-96476571D01*
X120230476Y-96428952D01*
X120182857Y-96381333D01*
X120135238Y-96286095D01*
X120135238Y-96190857D01*
X120182857Y-96095619D01*
X120230476Y-96048000D01*
X120325714Y-96000380D01*
X120563809Y-96000380D01*
X120706666Y-96048000D01*
X121135238Y-96476571D02*
X121468571Y-96476571D01*
X121611428Y-97000380D02*
X121135238Y-97000380D01*
X121135238Y-96000380D01*
X121611428Y-96000380D01*
X115154285Y-99492380D02*
X115154285Y-98492380D01*
X115154285Y-98968571D02*
X115725714Y-98968571D01*
X115725714Y-99492380D02*
X115725714Y-98492380D01*
X116725714Y-99492380D02*
X116154285Y-99492380D01*
X116440000Y-99492380D02*
X116440000Y-98492380D01*
X116344761Y-98635238D01*
X116249523Y-98730476D01*
X116154285Y-98778095D01*
X118487619Y-99492380D02*
X118154285Y-99016190D01*
X117916190Y-99492380D02*
X117916190Y-98492380D01*
X118297142Y-98492380D01*
X118392380Y-98540000D01*
X118440000Y-98587619D01*
X118487619Y-98682857D01*
X118487619Y-98825714D01*
X118440000Y-98920952D01*
X118392380Y-98968571D01*
X118297142Y-99016190D01*
X117916190Y-99016190D01*
X118916190Y-99492380D02*
X118916190Y-98492380D01*
X119916190Y-98540000D02*
X119820952Y-98492380D01*
X119678095Y-98492380D01*
X119535238Y-98540000D01*
X119440000Y-98635238D01*
X119392380Y-98730476D01*
X119344761Y-98920952D01*
X119344761Y-99063809D01*
X119392380Y-99254285D01*
X119440000Y-99349523D01*
X119535238Y-99444761D01*
X119678095Y-99492380D01*
X119773333Y-99492380D01*
X119916190Y-99444761D01*
X119963809Y-99397142D01*
X119963809Y-99063809D01*
X119773333Y-99063809D01*
X120392380Y-99492380D02*
X120392380Y-98492380D01*
X120392380Y-98968571D02*
X120963809Y-98968571D01*
X120963809Y-99492380D02*
X120963809Y-98492380D01*
X121297142Y-98492380D02*
X121868571Y-98492380D01*
X121582857Y-99492380D02*
X121582857Y-98492380D01*
X128430476Y-99492380D02*
X128430476Y-98492380D01*
X128430476Y-98968571D02*
X129001904Y-98968571D01*
X129001904Y-99492380D02*
X129001904Y-98492380D01*
X130001904Y-99492380D02*
X129430476Y-99492380D01*
X129716190Y-99492380D02*
X129716190Y-98492380D01*
X129620952Y-98635238D01*
X129525714Y-98730476D01*
X129430476Y-98778095D01*
X131668571Y-99492380D02*
X131192380Y-99492380D01*
X131192380Y-98492380D01*
X132001904Y-98968571D02*
X132335238Y-98968571D01*
X132478095Y-99492380D02*
X132001904Y-99492380D01*
X132001904Y-98492380D01*
X132478095Y-98492380D01*
X133240000Y-98968571D02*
X132906666Y-98968571D01*
X132906666Y-99492380D02*
X132906666Y-98492380D01*
X133382857Y-98492380D01*
X133620952Y-98492380D02*
X134192380Y-98492380D01*
X133906666Y-99492380D02*
X133906666Y-98492380D01*
D11*
X112242000Y-114328000D02*
X105892000Y-114328000D01*
X117322000Y-114328000D02*
X112242000Y-114328000D01*
X112242000Y-114328000D02*
X112242000Y-116868000D01*
X117322000Y-114328000D02*
X137642000Y-114328000D01*
X137642000Y-114328000D02*
X156692000Y-114328000D01*
X146532000Y-114328000D02*
X146532000Y-116868000D01*
X156692000Y-114328000D02*
X156692000Y-116868000D01*
X137642000Y-114328000D02*
X137642000Y-116868000D01*
X132562000Y-114328000D02*
X132562000Y-116868000D01*
X127482000Y-114328000D02*
X127482000Y-116868000D01*
X122402000Y-114328000D02*
X122402000Y-116868000D01*
X117322000Y-114328000D02*
X117322000Y-116868000D01*
D12*
X107932476Y-112605619D02*
X107980095Y-112558000D01*
X108075333Y-112510380D01*
X108313428Y-112510380D01*
X108408666Y-112558000D01*
X108456285Y-112605619D01*
X108503904Y-112700857D01*
X108503904Y-112796095D01*
X108456285Y-112938952D01*
X107884857Y-113510380D01*
X108503904Y-113510380D01*
X109361047Y-112843714D02*
X109361047Y-113510380D01*
X109122952Y-112462761D02*
X108884857Y-113177047D01*
X109503904Y-113177047D01*
X110503904Y-112510380D02*
X110837238Y-113510380D01*
X111170571Y-112510380D01*
X111456285Y-113224666D02*
X111932476Y-113224666D01*
X111361047Y-113510380D02*
X111694380Y-112510380D01*
X112027714Y-113510380D01*
X112932476Y-113415142D02*
X112884857Y-113462761D01*
X112742000Y-113510380D01*
X112646761Y-113510380D01*
X112503904Y-113462761D01*
X112408666Y-113367523D01*
X112361047Y-113272285D01*
X112313428Y-113081809D01*
X112313428Y-112938952D01*
X112361047Y-112748476D01*
X112408666Y-112653238D01*
X112503904Y-112558000D01*
X112646761Y-112510380D01*
X112742000Y-112510380D01*
X112884857Y-112558000D01*
X112932476Y-112605619D01*
X114313428Y-112510380D02*
X114503904Y-112510380D01*
X114599142Y-112558000D01*
X114694380Y-112653238D01*
X114742000Y-112843714D01*
X114742000Y-113177047D01*
X114694380Y-113367523D01*
X114599142Y-113462761D01*
X114503904Y-113510380D01*
X114313428Y-113510380D01*
X114218190Y-113462761D01*
X114122952Y-113367523D01*
X114075333Y-113177047D01*
X114075333Y-112843714D01*
X114122952Y-112653238D01*
X114218190Y-112558000D01*
X114313428Y-112510380D01*
X115170571Y-112510380D02*
X115170571Y-113319904D01*
X115218190Y-113415142D01*
X115265809Y-113462761D01*
X115361047Y-113510380D01*
X115551523Y-113510380D01*
X115646761Y-113462761D01*
X115694380Y-113415142D01*
X115742000Y-113319904D01*
X115742000Y-112510380D01*
X116075333Y-112510380D02*
X116646761Y-112510380D01*
X116361047Y-113510380D02*
X116361047Y-112510380D01*
D10*
X159742380Y-115759047D02*
X158742380Y-115759047D01*
X159456666Y-115425714D01*
X158742380Y-115092380D01*
X159742380Y-115092380D01*
X159742380Y-114616190D02*
X158742380Y-114616190D01*
X159647142Y-113568571D02*
X159694761Y-113616190D01*
X159742380Y-113759047D01*
X159742380Y-113854285D01*
X159694761Y-113997142D01*
X159599523Y-114092380D01*
X159504285Y-114140000D01*
X159313809Y-114187619D01*
X159170952Y-114187619D01*
X158980476Y-114140000D01*
X158885238Y-114092380D01*
X158790000Y-113997142D01*
X158742380Y-113854285D01*
X158742380Y-113759047D01*
X158790000Y-113616190D01*
X158837619Y-113568571D01*
X159742380Y-112568571D02*
X159266190Y-112901904D01*
X159742380Y-113140000D02*
X158742380Y-113140000D01*
X158742380Y-112759047D01*
X158790000Y-112663809D01*
X158837619Y-112616190D01*
X158932857Y-112568571D01*
X159075714Y-112568571D01*
X159170952Y-112616190D01*
X159218571Y-112663809D01*
X159266190Y-112759047D01*
X159266190Y-113140000D01*
X158742380Y-111949523D02*
X158742380Y-111759047D01*
X158790000Y-111663809D01*
X158885238Y-111568571D01*
X159075714Y-111520952D01*
X159409047Y-111520952D01*
X159599523Y-111568571D01*
X159694761Y-111663809D01*
X159742380Y-111759047D01*
X159742380Y-111949523D01*
X159694761Y-112044761D01*
X159599523Y-112140000D01*
X159409047Y-112187619D01*
X159075714Y-112187619D01*
X158885238Y-112140000D01*
X158790000Y-112044761D01*
X158742380Y-111949523D01*
X159742380Y-111092380D02*
X158742380Y-111092380D01*
X158742380Y-110711428D01*
X158790000Y-110616190D01*
X158837619Y-110568571D01*
X158932857Y-110520952D01*
X159075714Y-110520952D01*
X159170952Y-110568571D01*
X159218571Y-110616190D01*
X159266190Y-110711428D01*
X159266190Y-111092380D01*
X159742380Y-110092380D02*
X158742380Y-110092380D01*
X159218571Y-110092380D02*
X159218571Y-109520952D01*
X159742380Y-109520952D02*
X158742380Y-109520952D01*
X158742380Y-108854285D02*
X158742380Y-108663809D01*
X158790000Y-108568571D01*
X158885238Y-108473333D01*
X159075714Y-108425714D01*
X159409047Y-108425714D01*
X159599523Y-108473333D01*
X159694761Y-108568571D01*
X159742380Y-108663809D01*
X159742380Y-108854285D01*
X159694761Y-108949523D01*
X159599523Y-109044761D01*
X159409047Y-109092380D01*
X159075714Y-109092380D01*
X158885238Y-109044761D01*
X158790000Y-108949523D01*
X158742380Y-108854285D01*
X159742380Y-107997142D02*
X158742380Y-107997142D01*
X159742380Y-107425714D01*
X158742380Y-107425714D01*
X159218571Y-106949523D02*
X159218571Y-106616190D01*
X159742380Y-106473333D02*
X159742380Y-106949523D01*
X158742380Y-106949523D01*
X158742380Y-106473333D01*
X141666761Y-113462761D02*
X141809619Y-113510380D01*
X142047714Y-113510380D01*
X142142952Y-113462761D01*
X142190571Y-113415142D01*
X142238190Y-113319904D01*
X142238190Y-113224666D01*
X142190571Y-113129428D01*
X142142952Y-113081809D01*
X142047714Y-113034190D01*
X141857238Y-112986571D01*
X141762000Y-112938952D01*
X141714380Y-112891333D01*
X141666761Y-112796095D01*
X141666761Y-112700857D01*
X141714380Y-112605619D01*
X141762000Y-112558000D01*
X141857238Y-112510380D01*
X142095333Y-112510380D01*
X142238190Y-112558000D01*
X142666761Y-113510380D02*
X142666761Y-112510380D01*
X143047714Y-112510380D01*
X143142952Y-112558000D01*
X143190571Y-112605619D01*
X143238190Y-112700857D01*
X143238190Y-112843714D01*
X143190571Y-112938952D01*
X143142952Y-112986571D01*
X143047714Y-113034190D01*
X142666761Y-113034190D01*
X143666761Y-112986571D02*
X144000095Y-112986571D01*
X144142952Y-113510380D02*
X143666761Y-113510380D01*
X143666761Y-112510380D01*
X144142952Y-112510380D01*
X144523904Y-113224666D02*
X145000095Y-113224666D01*
X144428666Y-113510380D02*
X144762000Y-112510380D01*
X145095333Y-113510380D01*
X145428666Y-113510380D02*
X145428666Y-112510380D01*
X146000095Y-113510380D02*
X145571523Y-112938952D01*
X146000095Y-112510380D02*
X145428666Y-113081809D01*
X146428666Y-112986571D02*
X146762000Y-112986571D01*
X146904857Y-113510380D02*
X146428666Y-113510380D01*
X146428666Y-112510380D01*
X146904857Y-112510380D01*
X147904857Y-113510380D02*
X147571523Y-113034190D01*
X147333428Y-113510380D02*
X147333428Y-112510380D01*
X147714380Y-112510380D01*
X147809619Y-112558000D01*
X147857238Y-112605619D01*
X147904857Y-112700857D01*
X147904857Y-112843714D01*
X147857238Y-112938952D01*
X147809619Y-112986571D01*
X147714380Y-113034190D01*
X147333428Y-113034190D01*
X148285809Y-113462761D02*
X148428666Y-113510380D01*
X148666761Y-113510380D01*
X148762000Y-113462761D01*
X148809619Y-113415142D01*
X148857238Y-113319904D01*
X148857238Y-113224666D01*
X148809619Y-113129428D01*
X148762000Y-113081809D01*
X148666761Y-113034190D01*
X148476285Y-112986571D01*
X148381047Y-112938952D01*
X148333428Y-112891333D01*
X148285809Y-112796095D01*
X148285809Y-112700857D01*
X148333428Y-112605619D01*
X148381047Y-112558000D01*
X148476285Y-112510380D01*
X148714380Y-112510380D01*
X148857238Y-112558000D01*
X143206285Y-115669428D02*
X143968190Y-115669428D01*
X143587238Y-116050380D02*
X143587238Y-115288476D01*
X144920571Y-116050380D02*
X144444380Y-116050380D01*
X144444380Y-115050380D01*
X138126285Y-115669428D02*
X138888190Y-115669428D01*
X139840571Y-116050380D02*
X139364380Y-116050380D01*
X139364380Y-115050380D01*
X148191047Y-115669428D02*
X148952952Y-115669428D01*
X150000571Y-116050380D02*
X149667238Y-115574190D01*
X149429142Y-116050380D02*
X149429142Y-115050380D01*
X149810095Y-115050380D01*
X149905333Y-115098000D01*
X149952952Y-115145619D01*
X150000571Y-115240857D01*
X150000571Y-115383714D01*
X149952952Y-115478952D01*
X149905333Y-115526571D01*
X149810095Y-115574190D01*
X149429142Y-115574190D01*
X153271047Y-115669428D02*
X154032952Y-115669428D01*
X153652000Y-116050380D02*
X153652000Y-115288476D01*
X155080571Y-116050380D02*
X154747238Y-115574190D01*
X154509142Y-116050380D02*
X154509142Y-115050380D01*
X154890095Y-115050380D01*
X154985333Y-115098000D01*
X155032952Y-115145619D01*
X155080571Y-115240857D01*
X155080571Y-115383714D01*
X155032952Y-115478952D01*
X154985333Y-115526571D01*
X154890095Y-115574190D01*
X154509142Y-115574190D01*
X134340095Y-115098000D02*
X134244857Y-115050380D01*
X134102000Y-115050380D01*
X133959142Y-115098000D01*
X133863904Y-115193238D01*
X133816285Y-115288476D01*
X133768666Y-115478952D01*
X133768666Y-115621809D01*
X133816285Y-115812285D01*
X133863904Y-115907523D01*
X133959142Y-116002761D01*
X134102000Y-116050380D01*
X134197238Y-116050380D01*
X134340095Y-116002761D01*
X134387714Y-115955142D01*
X134387714Y-115621809D01*
X134197238Y-115621809D01*
X134816285Y-116050380D02*
X134816285Y-115050380D01*
X135387714Y-116050380D01*
X135387714Y-115050380D01*
X135863904Y-116050380D02*
X135863904Y-115050380D01*
X136102000Y-115050380D01*
X136244857Y-115098000D01*
X136340095Y-115193238D01*
X136387714Y-115288476D01*
X136435333Y-115478952D01*
X136435333Y-115621809D01*
X136387714Y-115812285D01*
X136340095Y-115907523D01*
X136244857Y-116002761D01*
X136102000Y-116050380D01*
X135863904Y-116050380D01*
X128325571Y-115085500D02*
X128682714Y-115085500D01*
X128254142Y-115299785D02*
X128504142Y-114549785D01*
X128754142Y-115299785D01*
X129004142Y-115299785D02*
X129004142Y-114549785D01*
X129254142Y-115085500D01*
X129504142Y-114549785D01*
X129504142Y-115299785D01*
X130111285Y-114906928D02*
X130218428Y-114942642D01*
X130254142Y-114978357D01*
X130289857Y-115049785D01*
X130289857Y-115156928D01*
X130254142Y-115228357D01*
X130218428Y-115264071D01*
X130147000Y-115299785D01*
X129861285Y-115299785D01*
X129861285Y-114549785D01*
X130111285Y-114549785D01*
X130182714Y-114585500D01*
X130218428Y-114621214D01*
X130254142Y-114692642D01*
X130254142Y-114764071D01*
X130218428Y-114835500D01*
X130182714Y-114871214D01*
X130111285Y-114906928D01*
X129861285Y-114906928D01*
X130611285Y-114906928D02*
X130861285Y-114906928D01*
X130968428Y-115299785D02*
X130611285Y-115299785D01*
X130611285Y-114549785D01*
X130968428Y-114549785D01*
X131718428Y-115299785D02*
X131468428Y-114942642D01*
X131289857Y-115299785D02*
X131289857Y-114549785D01*
X131575571Y-114549785D01*
X131647000Y-114585500D01*
X131682714Y-114621214D01*
X131718428Y-114692642D01*
X131718428Y-114799785D01*
X131682714Y-114871214D01*
X131647000Y-114906928D01*
X131575571Y-114942642D01*
X131289857Y-114942642D01*
X129539857Y-116574785D02*
X129182714Y-116574785D01*
X129182714Y-115824785D01*
X129789857Y-116181928D02*
X130039857Y-116181928D01*
X130147000Y-116574785D02*
X129789857Y-116574785D01*
X129789857Y-115824785D01*
X130147000Y-115824785D01*
X130468428Y-116574785D02*
X130468428Y-115824785D01*
X130647000Y-115824785D01*
X130754142Y-115860500D01*
X130825571Y-115931928D01*
X130861285Y-116003357D01*
X130897000Y-116146214D01*
X130897000Y-116253357D01*
X130861285Y-116396214D01*
X130825571Y-116467642D01*
X130754142Y-116539071D01*
X130647000Y-116574785D01*
X130468428Y-116574785D01*
X123209857Y-115299785D02*
X123209857Y-114549785D01*
X123495571Y-114549785D01*
X123567000Y-114585500D01*
X123602714Y-114621214D01*
X123638428Y-114692642D01*
X123638428Y-114799785D01*
X123602714Y-114871214D01*
X123567000Y-114906928D01*
X123495571Y-114942642D01*
X123209857Y-114942642D01*
X124102714Y-114549785D02*
X124245571Y-114549785D01*
X124317000Y-114585500D01*
X124388428Y-114656928D01*
X124424142Y-114799785D01*
X124424142Y-115049785D01*
X124388428Y-115192642D01*
X124317000Y-115264071D01*
X124245571Y-115299785D01*
X124102714Y-115299785D01*
X124031285Y-115264071D01*
X123959857Y-115192642D01*
X123924142Y-115049785D01*
X123924142Y-114799785D01*
X123959857Y-114656928D01*
X124031285Y-114585500D01*
X124102714Y-114549785D01*
X124674142Y-114549785D02*
X124852714Y-115299785D01*
X124995571Y-114764071D01*
X125138428Y-115299785D01*
X125317000Y-114549785D01*
X125602714Y-114906928D02*
X125852714Y-114906928D01*
X125959857Y-115299785D02*
X125602714Y-115299785D01*
X125602714Y-114549785D01*
X125959857Y-114549785D01*
X126709857Y-115299785D02*
X126459857Y-114942642D01*
X126281285Y-115299785D02*
X126281285Y-114549785D01*
X126567000Y-114549785D01*
X126638428Y-114585500D01*
X126674142Y-114621214D01*
X126709857Y-114692642D01*
X126709857Y-114799785D01*
X126674142Y-114871214D01*
X126638428Y-114906928D01*
X126567000Y-114942642D01*
X126281285Y-114942642D01*
X123245571Y-116181928D02*
X123352714Y-116217642D01*
X123388428Y-116253357D01*
X123424142Y-116324785D01*
X123424142Y-116431928D01*
X123388428Y-116503357D01*
X123352714Y-116539071D01*
X123281285Y-116574785D01*
X122995571Y-116574785D01*
X122995571Y-115824785D01*
X123245571Y-115824785D01*
X123317000Y-115860500D01*
X123352714Y-115896214D01*
X123388428Y-115967642D01*
X123388428Y-116039071D01*
X123352714Y-116110500D01*
X123317000Y-116146214D01*
X123245571Y-116181928D01*
X122995571Y-116181928D01*
X123745571Y-115824785D02*
X123745571Y-116431928D01*
X123781285Y-116503357D01*
X123817000Y-116539071D01*
X123888428Y-116574785D01*
X124031285Y-116574785D01*
X124102714Y-116539071D01*
X124138428Y-116503357D01*
X124174142Y-116431928D01*
X124174142Y-115824785D01*
X124424142Y-115824785D02*
X124852714Y-115824785D01*
X124638428Y-116574785D02*
X124638428Y-115824785D01*
X124995571Y-115824785D02*
X125424142Y-115824785D01*
X125209857Y-116574785D02*
X125209857Y-115824785D01*
X125817000Y-115824785D02*
X125959857Y-115824785D01*
X126031285Y-115860500D01*
X126102714Y-115931928D01*
X126138428Y-116074785D01*
X126138428Y-116324785D01*
X126102714Y-116467642D01*
X126031285Y-116539071D01*
X125959857Y-116574785D01*
X125817000Y-116574785D01*
X125745571Y-116539071D01*
X125674142Y-116467642D01*
X125638428Y-116324785D01*
X125638428Y-116074785D01*
X125674142Y-115931928D01*
X125745571Y-115860500D01*
X125817000Y-115824785D01*
X126459857Y-116574785D02*
X126459857Y-115824785D01*
X126888428Y-116574785D01*
X126888428Y-115824785D01*
X118612000Y-114585500D02*
X118540571Y-114549785D01*
X118433428Y-114549785D01*
X118326285Y-114585500D01*
X118254857Y-114656928D01*
X118219142Y-114728357D01*
X118183428Y-114871214D01*
X118183428Y-114978357D01*
X118219142Y-115121214D01*
X118254857Y-115192642D01*
X118326285Y-115264071D01*
X118433428Y-115299785D01*
X118504857Y-115299785D01*
X118612000Y-115264071D01*
X118647714Y-115228357D01*
X118647714Y-114978357D01*
X118504857Y-114978357D01*
X119397714Y-115299785D02*
X119147714Y-114942642D01*
X118969142Y-115299785D02*
X118969142Y-114549785D01*
X119254857Y-114549785D01*
X119326285Y-114585500D01*
X119362000Y-114621214D01*
X119397714Y-114692642D01*
X119397714Y-114799785D01*
X119362000Y-114871214D01*
X119326285Y-114906928D01*
X119254857Y-114942642D01*
X118969142Y-114942642D01*
X119719142Y-114906928D02*
X119969142Y-114906928D01*
X120076285Y-115299785D02*
X119719142Y-115299785D01*
X119719142Y-114549785D01*
X120076285Y-114549785D01*
X120397714Y-114906928D02*
X120647714Y-114906928D01*
X120754857Y-115299785D02*
X120397714Y-115299785D01*
X120397714Y-114549785D01*
X120754857Y-114549785D01*
X121076285Y-115299785D02*
X121076285Y-114549785D01*
X121504857Y-115299785D01*
X121504857Y-114549785D01*
X119379857Y-116574785D02*
X119022714Y-116574785D01*
X119022714Y-115824785D01*
X119629857Y-116181928D02*
X119879857Y-116181928D01*
X119987000Y-116574785D02*
X119629857Y-116574785D01*
X119629857Y-115824785D01*
X119987000Y-115824785D01*
X120308428Y-116574785D02*
X120308428Y-115824785D01*
X120487000Y-115824785D01*
X120594142Y-115860500D01*
X120665571Y-115931928D01*
X120701285Y-116003357D01*
X120737000Y-116146214D01*
X120737000Y-116253357D01*
X120701285Y-116396214D01*
X120665571Y-116467642D01*
X120594142Y-116539071D01*
X120487000Y-116574785D01*
X120308428Y-116574785D01*
X107122476Y-115669428D02*
X107884380Y-115669428D01*
X107503428Y-116050380D02*
X107503428Y-115288476D01*
X108312952Y-115764666D02*
X108789142Y-115764666D01*
X108217714Y-116050380D02*
X108551047Y-115050380D01*
X108884380Y-116050380D01*
X109789142Y-115955142D02*
X109741523Y-116002761D01*
X109598666Y-116050380D01*
X109503428Y-116050380D01*
X109360571Y-116002761D01*
X109265333Y-115907523D01*
X109217714Y-115812285D01*
X109170095Y-115621809D01*
X109170095Y-115478952D01*
X109217714Y-115288476D01*
X109265333Y-115193238D01*
X109360571Y-115098000D01*
X109503428Y-115050380D01*
X109598666Y-115050380D01*
X109741523Y-115098000D01*
X109789142Y-115145619D01*
X113472476Y-115669428D02*
X114234380Y-115669428D01*
X114662952Y-115764666D02*
X115139142Y-115764666D01*
X114567714Y-116050380D02*
X114901047Y-115050380D01*
X115234380Y-116050380D01*
X116139142Y-115955142D02*
X116091523Y-116002761D01*
X115948666Y-116050380D01*
X115853428Y-116050380D01*
X115710571Y-116002761D01*
X115615333Y-115907523D01*
X115567714Y-115812285D01*
X115520095Y-115621809D01*
X115520095Y-115478952D01*
X115567714Y-115288476D01*
X115615333Y-115193238D01*
X115710571Y-115098000D01*
X115853428Y-115050380D01*
X115948666Y-115050380D01*
X116091523Y-115098000D01*
X116139142Y-115145619D01*
D11*
X167802000Y-115838000D02*
X161562000Y-115838000D01*
X161562000Y-115838000D02*
X161562000Y-111838000D01*
X161562000Y-111838000D02*
X161262000Y-111838000D01*
X161262000Y-111838000D02*
X161262000Y-97598000D01*
X161262000Y-97598000D02*
X169702000Y-97598000D01*
X169702000Y-97598000D02*
X169702000Y-111838000D01*
X169702000Y-111838000D02*
X167802000Y-111838000D01*
X167802000Y-111838000D02*
X167802000Y-115838000D01*
X143452000Y-99188000D02*
X143452000Y-98858000D01*
X136912000Y-99188000D02*
X143452000Y-99188000D01*
X136912000Y-98858000D02*
X136912000Y-99188000D01*
X143452000Y-96448000D02*
X143452000Y-96778000D01*
X136912000Y-96448000D02*
X143452000Y-96448000D01*
X136912000Y-96778000D02*
X136912000Y-96448000D01*
X149612000Y-96778000D02*
X149612000Y-96448000D01*
X149612000Y-96448000D02*
X156152000Y-96448000D01*
X156152000Y-96448000D02*
X156152000Y-96778000D01*
X149612000Y-98858000D02*
X149612000Y-99188000D01*
X149612000Y-99188000D02*
X156152000Y-99188000D01*
X156152000Y-99188000D02*
X156152000Y-98858000D01*
X111882000Y-106708000D02*
G75*
G03X111882000Y-106708000I-2180000J0D01*
G01*
X116882000Y-106708000D02*
G75*
G03X116882000Y-106708000I-2180000J0D01*
G01*
X121882000Y-106708000D02*
G75*
G03X121882000Y-106708000I-2180000J0D01*
G01*
X126882000Y-106708000D02*
G75*
G03X126882000Y-106708000I-2180000J0D01*
G01*
X131882000Y-106708000D02*
G75*
G03X131882000Y-106708000I-2180000J0D01*
G01*
X136882000Y-106708000D02*
G75*
G03X136882000Y-106708000I-2180000J0D01*
G01*
X141882000Y-106708000D02*
G75*
G03X141882000Y-106708000I-2180000J0D01*
G01*
X146882000Y-106708000D02*
G75*
G03X146882000Y-106708000I-2180000J0D01*
G01*
X151882000Y-106708000D02*
G75*
G03X151882000Y-106708000I-2180000J0D01*
G01*
X156882000Y-106708000D02*
G75*
G03X156882000Y-106708000I-2180000J0D01*
G01*
X107142000Y-111308000D02*
X157262000Y-111308000D01*
X107142000Y-110208000D02*
X157262000Y-110208000D01*
X107142000Y-102648000D02*
X157262000Y-102648000D01*
X107142000Y-111768000D02*
X157262000Y-111768000D01*
X107142000Y-102648000D02*
X107142000Y-111768000D01*
X157262000Y-102648000D02*
X157262000Y-111768000D01*
X111356000Y-105320000D02*
X111249000Y-105427000D01*
X108420000Y-108255000D02*
X108314000Y-108362000D01*
X111090000Y-105054000D02*
X110983000Y-105161000D01*
X108154000Y-107989000D02*
X108048000Y-108096000D01*
X116356000Y-105320000D02*
X115961000Y-105716000D01*
X113695000Y-107982000D02*
X113315000Y-108362000D01*
X116090000Y-105054000D02*
X115710000Y-105434000D01*
X113444000Y-107700000D02*
X113049000Y-108096000D01*
X121356000Y-105320000D02*
X120961000Y-105716000D01*
X118695000Y-107982000D02*
X118315000Y-108362000D01*
X121090000Y-105054000D02*
X120710000Y-105434000D01*
X118444000Y-107700000D02*
X118049000Y-108096000D01*
X126356000Y-105320000D02*
X125961000Y-105716000D01*
X123695000Y-107982000D02*
X123315000Y-108362000D01*
X126090000Y-105054000D02*
X125710000Y-105434000D01*
X123444000Y-107700000D02*
X123049000Y-108096000D01*
X131356000Y-105320000D02*
X130961000Y-105716000D01*
X128695000Y-107982000D02*
X128315000Y-108362000D01*
X131090000Y-105054000D02*
X130710000Y-105434000D01*
X128444000Y-107700000D02*
X128049000Y-108096000D01*
X136356000Y-105320000D02*
X135961000Y-105716000D01*
X133695000Y-107982000D02*
X133315000Y-108362000D01*
X136090000Y-105054000D02*
X135710000Y-105434000D01*
X133444000Y-107700000D02*
X133049000Y-108096000D01*
X141356000Y-105320000D02*
X140961000Y-105716000D01*
X138695000Y-107982000D02*
X138315000Y-108362000D01*
X141090000Y-105054000D02*
X140710000Y-105434000D01*
X138444000Y-107700000D02*
X138049000Y-108096000D01*
X146356000Y-105320000D02*
X145961000Y-105716000D01*
X143695000Y-107982000D02*
X143315000Y-108362000D01*
X146090000Y-105054000D02*
X145710000Y-105434000D01*
X143444000Y-107700000D02*
X143049000Y-108096000D01*
X151356000Y-105320000D02*
X150961000Y-105716000D01*
X148695000Y-107982000D02*
X148315000Y-108362000D01*
X151090000Y-105054000D02*
X150710000Y-105434000D01*
X148444000Y-107700000D02*
X148049000Y-108096000D01*
X156356000Y-105320000D02*
X155961000Y-105716000D01*
X153695000Y-107982000D02*
X153315000Y-108362000D01*
X156090000Y-105054000D02*
X155710000Y-105434000D01*
X153444000Y-107700000D02*
X153049000Y-108096000D01*
X106902000Y-111368000D02*
X106902000Y-112008000D01*
X106902000Y-112008000D02*
X107302000Y-112008000D01*
X122342000Y-100418000D02*
X127542000Y-100418000D01*
X122342000Y-95278000D02*
X122342000Y-100418000D01*
X127542000Y-92678000D02*
X127542000Y-100418000D01*
X122342000Y-95278000D02*
X124942000Y-95278000D01*
X124942000Y-95278000D02*
X124942000Y-92678000D01*
X124942000Y-92678000D02*
X127542000Y-92678000D01*
X122342000Y-94008000D02*
X122342000Y-92678000D01*
X122342000Y-92678000D02*
X123672000Y-92678000D01*
X169910000Y-89390000D02*
G75*
G03X169910000Y-89390000I-2120000J0D01*
G01*
X168630000Y-89390000D02*
X169870000Y-89390000D01*
X165710000Y-89390000D02*
X166950000Y-89390000D01*
X168630000Y-89350000D02*
X169870000Y-89350000D01*
X165710000Y-89350000D02*
X166950000Y-89350000D01*
X168630000Y-89310000D02*
X169869000Y-89310000D01*
X165711000Y-89310000D02*
X166950000Y-89310000D01*
X165713000Y-89270000D02*
X166950000Y-89270000D01*
X168630000Y-89270000D02*
X169867000Y-89270000D01*
X165716000Y-89230000D02*
X166950000Y-89230000D01*
X168630000Y-89230000D02*
X169864000Y-89230000D01*
X165719000Y-89190000D02*
X166950000Y-89190000D01*
X168630000Y-89190000D02*
X169861000Y-89190000D01*
X165723000Y-89150000D02*
X166950000Y-89150000D01*
X168630000Y-89150000D02*
X169857000Y-89150000D01*
X165728000Y-89110000D02*
X166950000Y-89110000D01*
X168630000Y-89110000D02*
X169852000Y-89110000D01*
X165734000Y-89070000D02*
X166950000Y-89070000D01*
X168630000Y-89070000D02*
X169846000Y-89070000D01*
X165740000Y-89030000D02*
X166950000Y-89030000D01*
X168630000Y-89030000D02*
X169840000Y-89030000D01*
X165748000Y-88990000D02*
X166950000Y-88990000D01*
X168630000Y-88990000D02*
X169832000Y-88990000D01*
X165756000Y-88950000D02*
X166950000Y-88950000D01*
X168630000Y-88950000D02*
X169824000Y-88950000D01*
X165765000Y-88910000D02*
X166950000Y-88910000D01*
X168630000Y-88910000D02*
X169815000Y-88910000D01*
X165774000Y-88870000D02*
X166950000Y-88870000D01*
X168630000Y-88870000D02*
X169806000Y-88870000D01*
X165785000Y-88830000D02*
X166950000Y-88830000D01*
X168630000Y-88830000D02*
X169795000Y-88830000D01*
X165796000Y-88790000D02*
X166950000Y-88790000D01*
X168630000Y-88790000D02*
X169784000Y-88790000D01*
X165808000Y-88750000D02*
X166950000Y-88750000D01*
X168630000Y-88750000D02*
X169772000Y-88750000D01*
X165822000Y-88710000D02*
X166950000Y-88710000D01*
X168630000Y-88710000D02*
X169758000Y-88710000D01*
X165836000Y-88669000D02*
X166950000Y-88669000D01*
X168630000Y-88669000D02*
X169744000Y-88669000D01*
X165850000Y-88629000D02*
X166950000Y-88629000D01*
X168630000Y-88629000D02*
X169730000Y-88629000D01*
X165866000Y-88589000D02*
X166950000Y-88589000D01*
X168630000Y-88589000D02*
X169714000Y-88589000D01*
X165883000Y-88549000D02*
X166950000Y-88549000D01*
X168630000Y-88549000D02*
X169697000Y-88549000D01*
X165901000Y-88509000D02*
X166950000Y-88509000D01*
X168630000Y-88509000D02*
X169679000Y-88509000D01*
X165920000Y-88469000D02*
X166950000Y-88469000D01*
X168630000Y-88469000D02*
X169660000Y-88469000D01*
X165939000Y-88429000D02*
X166950000Y-88429000D01*
X168630000Y-88429000D02*
X169641000Y-88429000D01*
X165960000Y-88389000D02*
X166950000Y-88389000D01*
X168630000Y-88389000D02*
X169620000Y-88389000D01*
X165982000Y-88349000D02*
X166950000Y-88349000D01*
X168630000Y-88349000D02*
X169598000Y-88349000D01*
X166005000Y-88309000D02*
X166950000Y-88309000D01*
X168630000Y-88309000D02*
X169575000Y-88309000D01*
X166030000Y-88269000D02*
X166950000Y-88269000D01*
X168630000Y-88269000D02*
X169550000Y-88269000D01*
X166055000Y-88229000D02*
X166950000Y-88229000D01*
X168630000Y-88229000D02*
X169525000Y-88229000D01*
X166082000Y-88189000D02*
X166950000Y-88189000D01*
X168630000Y-88189000D02*
X169498000Y-88189000D01*
X166110000Y-88149000D02*
X166950000Y-88149000D01*
X168630000Y-88149000D02*
X169470000Y-88149000D01*
X166140000Y-88109000D02*
X166950000Y-88109000D01*
X168630000Y-88109000D02*
X169440000Y-88109000D01*
X166171000Y-88069000D02*
X166950000Y-88069000D01*
X168630000Y-88069000D02*
X169409000Y-88069000D01*
X166203000Y-88029000D02*
X166950000Y-88029000D01*
X168630000Y-88029000D02*
X169377000Y-88029000D01*
X166238000Y-87989000D02*
X166950000Y-87989000D01*
X168630000Y-87989000D02*
X169342000Y-87989000D01*
X166274000Y-87949000D02*
X166950000Y-87949000D01*
X168630000Y-87949000D02*
X169306000Y-87949000D01*
X166312000Y-87909000D02*
X166950000Y-87909000D01*
X168630000Y-87909000D02*
X169268000Y-87909000D01*
X166352000Y-87869000D02*
X166950000Y-87869000D01*
X168630000Y-87869000D02*
X169228000Y-87869000D01*
X166394000Y-87829000D02*
X166950000Y-87829000D01*
X168630000Y-87829000D02*
X169186000Y-87829000D01*
X166439000Y-87789000D02*
X169141000Y-87789000D01*
X166486000Y-87749000D02*
X169094000Y-87749000D01*
X166536000Y-87709000D02*
X169044000Y-87709000D01*
X166590000Y-87669000D02*
X168990000Y-87669000D01*
X166648000Y-87629000D02*
X168932000Y-87629000D01*
X166710000Y-87589000D02*
X168870000Y-87589000D01*
X166777000Y-87549000D02*
X168803000Y-87549000D01*
X166850000Y-87509000D02*
X168730000Y-87509000D01*
X166931000Y-87469000D02*
X168649000Y-87469000D01*
X167022000Y-87429000D02*
X168558000Y-87429000D01*
X167126000Y-87389000D02*
X168454000Y-87389000D01*
X167253000Y-87349000D02*
X168327000Y-87349000D01*
X167420000Y-87309000D02*
X168160000Y-87309000D01*
X166595000Y-91659801D02*
X166595000Y-91259801D01*
X166395000Y-91459801D02*
X166795000Y-91459801D01*
X161830000Y-94600000D02*
X161830000Y-94270000D01*
X161830000Y-94270000D02*
X168370000Y-94270000D01*
X168370000Y-94270000D02*
X168370000Y-94600000D01*
X161830000Y-96680000D02*
X161830000Y-97010000D01*
X161830000Y-97010000D02*
X168370000Y-97010000D01*
X168370000Y-97010000D02*
X168370000Y-96680000D01*
D10*
X109410095Y-91990380D02*
X109410095Y-90990380D01*
X109410095Y-91466571D02*
X109981523Y-91466571D01*
X109981523Y-91990380D02*
X109981523Y-90990380D01*
X110981523Y-91990380D02*
X110410095Y-91990380D01*
X110695809Y-91990380D02*
X110695809Y-90990380D01*
X110600571Y-91133238D01*
X110505333Y-91228476D01*
X110410095Y-91276095D01*
X169742380Y-98151333D02*
X170456666Y-98151333D01*
X170599523Y-98198952D01*
X170694761Y-98294190D01*
X170742380Y-98437047D01*
X170742380Y-98532285D01*
X169742380Y-97770380D02*
X169742380Y-97151333D01*
X170123333Y-97484666D01*
X170123333Y-97341809D01*
X170170952Y-97246571D01*
X170218571Y-97198952D01*
X170313809Y-97151333D01*
X170551904Y-97151333D01*
X170647142Y-97198952D01*
X170694761Y-97246571D01*
X170742380Y-97341809D01*
X170742380Y-97627523D01*
X170694761Y-97722761D01*
X170647142Y-97770380D01*
X140015333Y-95900380D02*
X139682000Y-95424190D01*
X139443904Y-95900380D02*
X139443904Y-94900380D01*
X139824857Y-94900380D01*
X139920095Y-94948000D01*
X139967714Y-94995619D01*
X140015333Y-95090857D01*
X140015333Y-95233714D01*
X139967714Y-95328952D01*
X139920095Y-95376571D01*
X139824857Y-95424190D01*
X139443904Y-95424190D01*
X140967714Y-95900380D02*
X140396285Y-95900380D01*
X140682000Y-95900380D02*
X140682000Y-94900380D01*
X140586761Y-95043238D01*
X140491523Y-95138476D01*
X140396285Y-95186095D01*
X152715333Y-95900380D02*
X152382000Y-95424190D01*
X152143904Y-95900380D02*
X152143904Y-94900380D01*
X152524857Y-94900380D01*
X152620095Y-94948000D01*
X152667714Y-94995619D01*
X152715333Y-95090857D01*
X152715333Y-95233714D01*
X152667714Y-95328952D01*
X152620095Y-95376571D01*
X152524857Y-95424190D01*
X152143904Y-95424190D01*
X153096285Y-94995619D02*
X153143904Y-94948000D01*
X153239142Y-94900380D01*
X153477238Y-94900380D01*
X153572476Y-94948000D01*
X153620095Y-94995619D01*
X153667714Y-95090857D01*
X153667714Y-95186095D01*
X153620095Y-95328952D01*
X153048666Y-95900380D01*
X153667714Y-95900380D01*
X158706666Y-105092380D02*
X158706666Y-105806666D01*
X158659047Y-105949523D01*
X158563809Y-106044761D01*
X158420952Y-106092380D01*
X158325714Y-106092380D01*
X159135238Y-105187619D02*
X159182857Y-105140000D01*
X159278095Y-105092380D01*
X159516190Y-105092380D01*
X159611428Y-105140000D01*
X159659047Y-105187619D01*
X159706666Y-105282857D01*
X159706666Y-105378095D01*
X159659047Y-105520952D01*
X159087619Y-106092380D01*
X159706666Y-106092380D01*
X124608666Y-89650380D02*
X124608666Y-90364666D01*
X124561047Y-90507523D01*
X124465809Y-90602761D01*
X124322952Y-90650380D01*
X124227714Y-90650380D01*
X125513428Y-89983714D02*
X125513428Y-90650380D01*
X125275333Y-89602761D02*
X125037238Y-90317047D01*
X125656285Y-90317047D01*
X164897142Y-89556666D02*
X164944761Y-89604285D01*
X164992380Y-89747142D01*
X164992380Y-89842380D01*
X164944761Y-89985238D01*
X164849523Y-90080476D01*
X164754285Y-90128095D01*
X164563809Y-90175714D01*
X164420952Y-90175714D01*
X164230476Y-90128095D01*
X164135238Y-90080476D01*
X164040000Y-89985238D01*
X163992380Y-89842380D01*
X163992380Y-89747142D01*
X164040000Y-89604285D01*
X164087619Y-89556666D01*
X164992380Y-88604285D02*
X164992380Y-89175714D01*
X164992380Y-88890000D02*
X163992380Y-88890000D01*
X164135238Y-88985238D01*
X164230476Y-89080476D01*
X164278095Y-89175714D01*
X164123333Y-93842380D02*
X163790000Y-93366190D01*
X163551904Y-93842380D02*
X163551904Y-92842380D01*
X163932857Y-92842380D01*
X164028095Y-92890000D01*
X164075714Y-92937619D01*
X164123333Y-93032857D01*
X164123333Y-93175714D01*
X164075714Y-93270952D01*
X164028095Y-93318571D01*
X163932857Y-93366190D01*
X163551904Y-93366190D01*
X164456666Y-92842380D02*
X165075714Y-92842380D01*
X164742380Y-93223333D01*
X164885238Y-93223333D01*
X164980476Y-93270952D01*
X165028095Y-93318571D01*
X165075714Y-93413809D01*
X165075714Y-93651904D01*
X165028095Y-93747142D01*
X164980476Y-93794761D01*
X164885238Y-93842380D01*
X164599523Y-93842380D01*
X164504285Y-93794761D01*
X164456666Y-93747142D01*
M02*
