G04 #@! TF.GenerationSoftware,KiCad,Pcbnew,5.1.5-52549c5~84~ubuntu18.04.1*
G04 #@! TF.CreationDate,2020-03-25T22:59:01-04:00*
G04 #@! TF.ProjectId,imac_g3_slot_loading_J22_adapter_board,696d6163-5f67-4335-9f73-6c6f745f6c6f,2*
G04 #@! TF.SameCoordinates,Original*
G04 #@! TF.FileFunction,Copper,L2,Bot*
G04 #@! TF.FilePolarity,Positive*
%FSLAX46Y46*%
G04 Gerber Fmt 4.6, Leading zero omitted, Abs format (unit mm)*
G04 Created by KiCad (PCBNEW 5.1.5-52549c5~84~ubuntu18.04.1) date 2020-03-25 22:59:01*
%MOMM*%
%LPD*%
G04 APERTURE LIST*
%ADD10R,1.700000X1.700000*%
%ADD11O,1.700000X1.700000*%
%ADD12C,7.000000*%
%ADD13C,2.800000*%
%ADD14O,1.600000X1.600000*%
%ADD15C,1.600000*%
%ADD16R,2.600000X2.600000*%
%ADD17C,2.600000*%
%ADD18C,0.250000*%
%ADD19C,1.587600*%
%ADD20C,0.254000*%
G04 APERTURE END LIST*
D10*
X161544000Y-91948000D03*
D11*
X161544000Y-89408000D03*
X159004000Y-91948000D03*
X159004000Y-89408000D03*
X156464000Y-91948000D03*
X156464000Y-89408000D03*
X153924000Y-91948000D03*
X153924000Y-89408000D03*
X151384000Y-91948000D03*
X151384000Y-89408000D03*
X148844000Y-91948000D03*
X148844000Y-89408000D03*
X146304000Y-91948000D03*
X146304000Y-89408000D03*
X143764000Y-91948000D03*
X143764000Y-89408000D03*
X141224000Y-91948000D03*
X141224000Y-89408000D03*
X138684000Y-91948000D03*
X138684000Y-89408000D03*
X136144000Y-91948000D03*
X136144000Y-89408000D03*
X133604000Y-91948000D03*
X133604000Y-89408000D03*
X131064000Y-91948000D03*
X131064000Y-89408000D03*
D12*
X110172000Y-96038000D03*
D13*
X165582000Y-110518000D03*
X163582000Y-108118000D03*
X163582000Y-102618000D03*
D14*
X143992000Y-97818000D03*
D15*
X136372000Y-97818000D03*
X149072000Y-97818000D03*
D14*
X156692000Y-97818000D03*
D16*
X109702000Y-106708000D03*
D17*
X114702000Y-106708000D03*
X119702000Y-106708000D03*
X124702000Y-106708000D03*
X129702000Y-106708000D03*
X134702000Y-106708000D03*
X139702000Y-106708000D03*
X144702000Y-106708000D03*
X149702000Y-106708000D03*
X154702000Y-106708000D03*
D10*
X123672000Y-94008000D03*
D11*
X126212000Y-94008000D03*
X123672000Y-96548000D03*
X126212000Y-96548000D03*
X123672000Y-99088000D03*
X126212000Y-99088000D03*
D18*
X137508999Y-91383999D02*
X137508999Y-96160999D01*
X138119999Y-90772999D02*
X137508999Y-91383999D01*
X141224000Y-89408000D02*
X139859001Y-90772999D01*
X139859001Y-90772999D02*
X138119999Y-90772999D01*
X137508999Y-96160999D02*
X138658000Y-97310000D01*
X138658000Y-102752000D02*
X134702000Y-106708000D01*
X138658000Y-97310000D02*
X138658000Y-102752000D01*
X163582000Y-108118000D02*
X159004000Y-103540000D01*
X159004000Y-103540000D02*
X159004000Y-91948000D01*
X151384000Y-89408000D02*
X150208700Y-89408000D01*
X126212000Y-99088000D02*
X128195900Y-99088000D01*
X128195900Y-99088000D02*
X134779400Y-92504500D01*
X134779400Y-92504500D02*
X134779400Y-91648400D01*
X134779400Y-91648400D02*
X135844400Y-90583400D01*
X135844400Y-90583400D02*
X136669600Y-90583400D01*
X136669600Y-90583400D02*
X137414000Y-89839000D01*
X137414000Y-89839000D02*
X137414000Y-89005500D01*
X137414000Y-89005500D02*
X138685400Y-87734100D01*
X138685400Y-87734100D02*
X148902100Y-87734100D01*
X148902100Y-87734100D02*
X150208700Y-89040700D01*
X150208700Y-89040700D02*
X150208700Y-89408000D01*
X146304000Y-91948000D02*
X146304000Y-93123300D01*
X154702000Y-106708000D02*
X154702000Y-101521300D01*
X154702000Y-101521300D02*
X146304000Y-93123300D01*
X144702000Y-106708000D02*
X142578800Y-104584800D01*
X142578800Y-104584800D02*
X142578800Y-91449000D01*
X142578800Y-91449000D02*
X143444500Y-90583300D01*
X143444500Y-90583300D02*
X144320800Y-90583300D01*
X144320800Y-90583300D02*
X145128700Y-89775400D01*
X145128700Y-89775400D02*
X145128700Y-89408000D01*
X146304000Y-89408000D02*
X145128700Y-89408000D01*
X149702000Y-106708000D02*
X149702000Y-101266000D01*
X149702000Y-101266000D02*
X143764000Y-95328000D01*
X143764000Y-95328000D02*
X143764000Y-91948000D01*
X143764000Y-89408000D02*
X142588700Y-89408000D01*
X139702000Y-106708000D02*
X140048600Y-106361400D01*
X140048600Y-106361400D02*
X140048600Y-91458600D01*
X140048600Y-91458600D02*
X140923900Y-90583300D01*
X140923900Y-90583300D02*
X141780800Y-90583300D01*
X141780800Y-90583300D02*
X142588700Y-89775400D01*
X142588700Y-89775400D02*
X142588700Y-89408000D01*
X141224000Y-91948000D02*
X141224000Y-93123300D01*
X124702000Y-106708000D02*
X126333200Y-108339200D01*
X126333200Y-108339200D02*
X140377100Y-108339200D01*
X140377100Y-108339200D02*
X141337000Y-107379300D01*
X141337000Y-107379300D02*
X141337000Y-93236300D01*
X141337000Y-93236300D02*
X141224000Y-93123300D01*
X138684000Y-89408000D02*
X139873200Y-88218800D01*
X139873200Y-88218800D02*
X146788400Y-88218800D01*
X146788400Y-88218800D02*
X147574000Y-89004400D01*
X147574000Y-89004400D02*
X147574000Y-89839000D01*
X147574000Y-89839000D02*
X148318400Y-90583400D01*
X148318400Y-90583400D02*
X149180400Y-90583400D01*
X149180400Y-90583400D02*
X150019400Y-91422400D01*
X150019400Y-91422400D02*
X150019400Y-92270700D01*
X150019400Y-92270700D02*
X155566700Y-97818000D01*
X156692000Y-97818000D02*
X155566700Y-97818000D01*
D19*
X133604000Y-91948000D02*
X131064000Y-91948000D01*
X131064000Y-91948000D02*
X129232000Y-91948000D01*
X129232000Y-91948000D02*
X127482000Y-90198000D01*
X127482000Y-90198000D02*
X117322000Y-90198000D01*
X117322000Y-90198000D02*
X116052000Y-91468000D01*
X116052000Y-91468000D02*
X116052000Y-105358000D01*
X116052000Y-105358000D02*
X114702000Y-106708000D01*
D18*
X119702000Y-106708000D02*
X121795700Y-104614300D01*
X121795700Y-104614300D02*
X129575700Y-104614300D01*
X129575700Y-104614300D02*
X136372000Y-97818000D01*
D20*
G36*
X137090357Y-88254341D02*
G01*
X136847411Y-88092010D01*
X136577158Y-87980068D01*
X136290260Y-87923000D01*
X135997740Y-87923000D01*
X135710842Y-87980068D01*
X135440589Y-88092010D01*
X135197368Y-88254525D01*
X134990525Y-88461368D01*
X134874000Y-88635760D01*
X134757475Y-88461368D01*
X134550632Y-88254525D01*
X134307411Y-88092010D01*
X134037158Y-87980068D01*
X133750260Y-87923000D01*
X133457740Y-87923000D01*
X133170842Y-87980068D01*
X132900589Y-88092010D01*
X132657368Y-88254525D01*
X132450525Y-88461368D01*
X132334000Y-88635760D01*
X132217475Y-88461368D01*
X132010632Y-88254525D01*
X131767411Y-88092010D01*
X131497158Y-87980068D01*
X131210260Y-87923000D01*
X130917740Y-87923000D01*
X130630842Y-87980068D01*
X130360589Y-88092010D01*
X130117368Y-88254525D01*
X129910525Y-88461368D01*
X129748010Y-88704589D01*
X129636068Y-88974842D01*
X129579000Y-89261740D01*
X129579000Y-89554260D01*
X129636068Y-89841158D01*
X129748010Y-90111411D01*
X129910525Y-90354632D01*
X130075093Y-90519200D01*
X129823828Y-90519200D01*
X128541948Y-89237321D01*
X128497202Y-89182798D01*
X128279639Y-89004248D01*
X128031424Y-88871574D01*
X127762094Y-88789874D01*
X127552188Y-88769200D01*
X127552181Y-88769200D01*
X127482000Y-88762288D01*
X127411819Y-88769200D01*
X117392178Y-88769200D01*
X117321999Y-88762288D01*
X117251821Y-88769200D01*
X117251812Y-88769200D01*
X117041906Y-88789874D01*
X116772576Y-88871574D01*
X116524361Y-89004248D01*
X116306798Y-89182798D01*
X116262056Y-89237316D01*
X115091317Y-90408056D01*
X115036798Y-90452799D01*
X114858248Y-90670362D01*
X114748575Y-90875546D01*
X114725574Y-90918577D01*
X114652739Y-91158684D01*
X114643874Y-91187907D01*
X114623200Y-91397813D01*
X114623200Y-91397819D01*
X114616288Y-91468000D01*
X114623200Y-91538181D01*
X114623201Y-104766171D01*
X114616372Y-104773000D01*
X114511419Y-104773000D01*
X114137581Y-104847361D01*
X113785434Y-104993225D01*
X113468509Y-105204987D01*
X113198987Y-105474509D01*
X112987225Y-105791434D01*
X112841361Y-106143581D01*
X112767000Y-106517419D01*
X112767000Y-106898581D01*
X112841361Y-107272419D01*
X112987225Y-107624566D01*
X113198987Y-107941491D01*
X113468509Y-108211013D01*
X113785434Y-108422775D01*
X114137581Y-108568639D01*
X114511419Y-108643000D01*
X114892581Y-108643000D01*
X115266419Y-108568639D01*
X115618566Y-108422775D01*
X115935491Y-108211013D01*
X116205013Y-107941491D01*
X116416775Y-107624566D01*
X116562639Y-107272419D01*
X116637000Y-106898581D01*
X116637000Y-106793628D01*
X117012684Y-106417944D01*
X117067202Y-106373202D01*
X117245752Y-106155639D01*
X117378426Y-105907424D01*
X117460126Y-105638094D01*
X117480800Y-105428188D01*
X117480800Y-105428179D01*
X117487712Y-105358001D01*
X117480800Y-105287823D01*
X117480800Y-92059827D01*
X117913828Y-91626800D01*
X126890173Y-91626800D01*
X128172056Y-92908684D01*
X128216798Y-92963202D01*
X128434361Y-93141752D01*
X128678572Y-93272286D01*
X128682576Y-93274426D01*
X128951905Y-93356126D01*
X128978576Y-93358753D01*
X129161812Y-93376800D01*
X129161819Y-93376800D01*
X129232000Y-93383712D01*
X129302181Y-93376800D01*
X130635206Y-93376800D01*
X130917740Y-93433000D01*
X131210260Y-93433000D01*
X131492794Y-93376800D01*
X132832298Y-93376800D01*
X127881099Y-98328000D01*
X127490178Y-98328000D01*
X127365475Y-98141368D01*
X127158632Y-97934525D01*
X126984240Y-97818000D01*
X127158632Y-97701475D01*
X127365475Y-97494632D01*
X127527990Y-97251411D01*
X127639932Y-96981158D01*
X127697000Y-96694260D01*
X127697000Y-96401740D01*
X127639932Y-96114842D01*
X127527990Y-95844589D01*
X127365475Y-95601368D01*
X127158632Y-95394525D01*
X126984240Y-95278000D01*
X127158632Y-95161475D01*
X127365475Y-94954632D01*
X127527990Y-94711411D01*
X127639932Y-94441158D01*
X127697000Y-94154260D01*
X127697000Y-93861740D01*
X127639932Y-93574842D01*
X127527990Y-93304589D01*
X127365475Y-93061368D01*
X127158632Y-92854525D01*
X126915411Y-92692010D01*
X126645158Y-92580068D01*
X126358260Y-92523000D01*
X126065740Y-92523000D01*
X125778842Y-92580068D01*
X125508589Y-92692010D01*
X125265368Y-92854525D01*
X125133513Y-92986380D01*
X125111502Y-92913820D01*
X125052537Y-92803506D01*
X124973185Y-92706815D01*
X124876494Y-92627463D01*
X124766180Y-92568498D01*
X124646482Y-92532188D01*
X124522000Y-92519928D01*
X122822000Y-92519928D01*
X122697518Y-92532188D01*
X122577820Y-92568498D01*
X122467506Y-92627463D01*
X122370815Y-92706815D01*
X122291463Y-92803506D01*
X122232498Y-92913820D01*
X122196188Y-93033518D01*
X122183928Y-93158000D01*
X122183928Y-94858000D01*
X122196188Y-94982482D01*
X122232498Y-95102180D01*
X122291463Y-95212494D01*
X122370815Y-95309185D01*
X122467506Y-95388537D01*
X122577820Y-95447502D01*
X122650380Y-95469513D01*
X122518525Y-95601368D01*
X122356010Y-95844589D01*
X122244068Y-96114842D01*
X122187000Y-96401740D01*
X122187000Y-96694260D01*
X122244068Y-96981158D01*
X122356010Y-97251411D01*
X122518525Y-97494632D01*
X122725368Y-97701475D01*
X122899760Y-97818000D01*
X122725368Y-97934525D01*
X122518525Y-98141368D01*
X122356010Y-98384589D01*
X122244068Y-98654842D01*
X122187000Y-98941740D01*
X122187000Y-99234260D01*
X122244068Y-99521158D01*
X122356010Y-99791411D01*
X122518525Y-100034632D01*
X122725368Y-100241475D01*
X122968589Y-100403990D01*
X123238842Y-100515932D01*
X123525740Y-100573000D01*
X123818260Y-100573000D01*
X124105158Y-100515932D01*
X124375411Y-100403990D01*
X124618632Y-100241475D01*
X124825475Y-100034632D01*
X124942000Y-99860240D01*
X125058525Y-100034632D01*
X125265368Y-100241475D01*
X125508589Y-100403990D01*
X125778842Y-100515932D01*
X126065740Y-100573000D01*
X126358260Y-100573000D01*
X126645158Y-100515932D01*
X126915411Y-100403990D01*
X127158632Y-100241475D01*
X127365475Y-100034632D01*
X127490178Y-99848000D01*
X128158578Y-99848000D01*
X128195900Y-99851676D01*
X128233222Y-99848000D01*
X128233233Y-99848000D01*
X128344886Y-99837003D01*
X128488147Y-99793546D01*
X128620176Y-99722974D01*
X128735901Y-99628001D01*
X128759704Y-99598997D01*
X135233251Y-93125451D01*
X135440589Y-93263990D01*
X135710842Y-93375932D01*
X135997740Y-93433000D01*
X136290260Y-93433000D01*
X136577158Y-93375932D01*
X136847411Y-93263990D01*
X137090632Y-93101475D01*
X137297475Y-92894632D01*
X137414000Y-92720240D01*
X137530525Y-92894632D01*
X137737368Y-93101475D01*
X137980589Y-93263990D01*
X138250842Y-93375932D01*
X138537740Y-93433000D01*
X138830260Y-93433000D01*
X139117158Y-93375932D01*
X139288601Y-93304918D01*
X139288600Y-104817321D01*
X139137581Y-104847361D01*
X138785434Y-104993225D01*
X138468509Y-105204987D01*
X138198987Y-105474509D01*
X137987225Y-105791434D01*
X137841361Y-106143581D01*
X137767000Y-106517419D01*
X137767000Y-106898581D01*
X137841361Y-107272419D01*
X137968434Y-107579200D01*
X136429789Y-107579200D01*
X136517159Y-107404955D01*
X136618250Y-107037443D01*
X136645701Y-106657271D01*
X136598457Y-106279049D01*
X136478333Y-105917310D01*
X136346312Y-105670317D01*
X136051224Y-105538381D01*
X134881605Y-106708000D01*
X134895748Y-106722143D01*
X134716143Y-106901748D01*
X134702000Y-106887605D01*
X134687858Y-106901748D01*
X134508253Y-106722143D01*
X134522395Y-106708000D01*
X133352776Y-105538381D01*
X133057688Y-105670317D01*
X132886841Y-106011045D01*
X132785750Y-106378557D01*
X132758299Y-106758729D01*
X132805543Y-107136951D01*
X132925667Y-107498690D01*
X132968701Y-107579200D01*
X131435566Y-107579200D01*
X131562639Y-107272419D01*
X131637000Y-106898581D01*
X131637000Y-106517419D01*
X131562639Y-106143581D01*
X131416775Y-105791434D01*
X131205013Y-105474509D01*
X131089280Y-105358776D01*
X133532381Y-105358776D01*
X134702000Y-106528395D01*
X135871619Y-105358776D01*
X135739683Y-105063688D01*
X135398955Y-104892841D01*
X135031443Y-104791750D01*
X134651271Y-104764299D01*
X134273049Y-104811543D01*
X133911310Y-104931667D01*
X133664317Y-105063688D01*
X133532381Y-105358776D01*
X131089280Y-105358776D01*
X130935491Y-105204987D01*
X130618566Y-104993225D01*
X130373207Y-104891594D01*
X136048114Y-99216688D01*
X136230665Y-99253000D01*
X136513335Y-99253000D01*
X136790574Y-99197853D01*
X137051727Y-99089680D01*
X137286759Y-98932637D01*
X137486637Y-98732759D01*
X137643680Y-98497727D01*
X137751853Y-98236574D01*
X137807000Y-97959335D01*
X137807000Y-97676665D01*
X137751853Y-97399426D01*
X137643680Y-97138273D01*
X137486637Y-96903241D01*
X137286759Y-96703363D01*
X137051727Y-96546320D01*
X136790574Y-96438147D01*
X136513335Y-96383000D01*
X136230665Y-96383000D01*
X135953426Y-96438147D01*
X135692273Y-96546320D01*
X135457241Y-96703363D01*
X135257363Y-96903241D01*
X135100320Y-97138273D01*
X134992147Y-97399426D01*
X134937000Y-97676665D01*
X134937000Y-97959335D01*
X134973312Y-98141886D01*
X129260899Y-103854300D01*
X121833023Y-103854300D01*
X121795700Y-103850624D01*
X121758377Y-103854300D01*
X121758367Y-103854300D01*
X121646714Y-103865297D01*
X121503453Y-103908754D01*
X121371423Y-103979326D01*
X121291645Y-104044799D01*
X121255699Y-104074299D01*
X121231901Y-104103297D01*
X120422985Y-104912213D01*
X120266419Y-104847361D01*
X119892581Y-104773000D01*
X119511419Y-104773000D01*
X119137581Y-104847361D01*
X118785434Y-104993225D01*
X118468509Y-105204987D01*
X118198987Y-105474509D01*
X117987225Y-105791434D01*
X117841361Y-106143581D01*
X117767000Y-106517419D01*
X117767000Y-106898581D01*
X117841361Y-107272419D01*
X117987225Y-107624566D01*
X118198987Y-107941491D01*
X118468509Y-108211013D01*
X118785434Y-108422775D01*
X119137581Y-108568639D01*
X119511419Y-108643000D01*
X119892581Y-108643000D01*
X120266419Y-108568639D01*
X120618566Y-108422775D01*
X120935491Y-108211013D01*
X121205013Y-107941491D01*
X121416775Y-107624566D01*
X121562639Y-107272419D01*
X121637000Y-106898581D01*
X121637000Y-106517419D01*
X121562639Y-106143581D01*
X121497787Y-105987015D01*
X122110502Y-105374300D01*
X123299196Y-105374300D01*
X123198987Y-105474509D01*
X122987225Y-105791434D01*
X122841361Y-106143581D01*
X122767000Y-106517419D01*
X122767000Y-106898581D01*
X122841361Y-107272419D01*
X122987225Y-107624566D01*
X123198987Y-107941491D01*
X123468509Y-108211013D01*
X123785434Y-108422775D01*
X124137581Y-108568639D01*
X124511419Y-108643000D01*
X124892581Y-108643000D01*
X125266419Y-108568639D01*
X125422985Y-108503787D01*
X125769401Y-108850203D01*
X125793199Y-108879201D01*
X125908924Y-108974174D01*
X126040953Y-109044746D01*
X126184214Y-109088203D01*
X126295867Y-109099200D01*
X126295876Y-109099200D01*
X126333199Y-109102876D01*
X126370522Y-109099200D01*
X140339778Y-109099200D01*
X140377100Y-109102876D01*
X140414422Y-109099200D01*
X140414433Y-109099200D01*
X140526086Y-109088203D01*
X140669347Y-109044746D01*
X140801376Y-108974174D01*
X140917101Y-108879201D01*
X140940904Y-108850198D01*
X141848004Y-107943098D01*
X141877001Y-107919301D01*
X141971974Y-107803576D01*
X142042546Y-107671547D01*
X142086003Y-107528286D01*
X142097000Y-107416633D01*
X142097000Y-107416632D01*
X142100677Y-107379300D01*
X142097000Y-107341967D01*
X142097000Y-105177801D01*
X142906213Y-105987014D01*
X142841361Y-106143581D01*
X142767000Y-106517419D01*
X142767000Y-106898581D01*
X142841361Y-107272419D01*
X142987225Y-107624566D01*
X143198987Y-107941491D01*
X143468509Y-108211013D01*
X143785434Y-108422775D01*
X144137581Y-108568639D01*
X144511419Y-108643000D01*
X144892581Y-108643000D01*
X145266419Y-108568639D01*
X145618566Y-108422775D01*
X145935491Y-108211013D01*
X146205013Y-107941491D01*
X146416775Y-107624566D01*
X146562639Y-107272419D01*
X146637000Y-106898581D01*
X146637000Y-106517419D01*
X146562639Y-106143581D01*
X146416775Y-105791434D01*
X146205013Y-105474509D01*
X145935491Y-105204987D01*
X145618566Y-104993225D01*
X145266419Y-104847361D01*
X144892581Y-104773000D01*
X144511419Y-104773000D01*
X144137581Y-104847361D01*
X143981014Y-104912213D01*
X143338800Y-104269999D01*
X143338800Y-99100668D01*
X143573426Y-99197853D01*
X143850665Y-99253000D01*
X144133335Y-99253000D01*
X144410574Y-99197853D01*
X144671727Y-99089680D01*
X144906759Y-98932637D01*
X145106637Y-98732759D01*
X145263680Y-98497727D01*
X145371853Y-98236574D01*
X145409336Y-98048137D01*
X148942001Y-101580803D01*
X148942000Y-104928373D01*
X148785434Y-104993225D01*
X148468509Y-105204987D01*
X148198987Y-105474509D01*
X147987225Y-105791434D01*
X147841361Y-106143581D01*
X147767000Y-106517419D01*
X147767000Y-106898581D01*
X147841361Y-107272419D01*
X147987225Y-107624566D01*
X148198987Y-107941491D01*
X148468509Y-108211013D01*
X148785434Y-108422775D01*
X149137581Y-108568639D01*
X149511419Y-108643000D01*
X149892581Y-108643000D01*
X150266419Y-108568639D01*
X150618566Y-108422775D01*
X150935491Y-108211013D01*
X151205013Y-107941491D01*
X151416775Y-107624566D01*
X151562639Y-107272419D01*
X151637000Y-106898581D01*
X151637000Y-106517419D01*
X151562639Y-106143581D01*
X151416775Y-105791434D01*
X151205013Y-105474509D01*
X150935491Y-105204987D01*
X150618566Y-104993225D01*
X150462000Y-104928373D01*
X150462000Y-101303322D01*
X150465676Y-101265999D01*
X150462000Y-101228676D01*
X150462000Y-101228667D01*
X150451003Y-101117014D01*
X150407546Y-100973753D01*
X150360815Y-100886326D01*
X150336974Y-100841723D01*
X150265799Y-100754997D01*
X150242001Y-100725999D01*
X150213003Y-100702201D01*
X148722368Y-99211567D01*
X148930665Y-99253000D01*
X149213335Y-99253000D01*
X149490574Y-99197853D01*
X149751727Y-99089680D01*
X149986759Y-98932637D01*
X150186637Y-98732759D01*
X150343680Y-98497727D01*
X150419816Y-98313918D01*
X153942001Y-101836104D01*
X153942000Y-104928373D01*
X153785434Y-104993225D01*
X153468509Y-105204987D01*
X153198987Y-105474509D01*
X152987225Y-105791434D01*
X152841361Y-106143581D01*
X152767000Y-106517419D01*
X152767000Y-106898581D01*
X152841361Y-107272419D01*
X152987225Y-107624566D01*
X153198987Y-107941491D01*
X153468509Y-108211013D01*
X153785434Y-108422775D01*
X154137581Y-108568639D01*
X154511419Y-108643000D01*
X154892581Y-108643000D01*
X155266419Y-108568639D01*
X155618566Y-108422775D01*
X155935491Y-108211013D01*
X156205013Y-107941491D01*
X156416775Y-107624566D01*
X156562639Y-107272419D01*
X156637000Y-106898581D01*
X156637000Y-106517419D01*
X156562639Y-106143581D01*
X156416775Y-105791434D01*
X156205013Y-105474509D01*
X155935491Y-105204987D01*
X155618566Y-104993225D01*
X155462000Y-104928373D01*
X155462000Y-101558622D01*
X155465676Y-101521299D01*
X155462000Y-101483976D01*
X155462000Y-101483967D01*
X155451003Y-101372314D01*
X155407546Y-101229053D01*
X155336974Y-101097024D01*
X155323811Y-101080985D01*
X155265799Y-101010296D01*
X155265795Y-101010292D01*
X155242001Y-100981299D01*
X155213008Y-100957505D01*
X147303804Y-93048303D01*
X147457475Y-92894632D01*
X147579195Y-92712466D01*
X147648822Y-92829355D01*
X147843731Y-93045588D01*
X148077080Y-93219641D01*
X148339901Y-93344825D01*
X148487110Y-93389476D01*
X148717000Y-93268155D01*
X148717000Y-92075000D01*
X148697000Y-92075000D01*
X148697000Y-91821000D01*
X148717000Y-91821000D01*
X148717000Y-91801000D01*
X148971000Y-91801000D01*
X148971000Y-91821000D01*
X148991000Y-91821000D01*
X148991000Y-92075000D01*
X148971000Y-92075000D01*
X148971000Y-93268155D01*
X149200890Y-93389476D01*
X149348099Y-93344825D01*
X149610920Y-93219641D01*
X149772797Y-93098898D01*
X155002901Y-98329003D01*
X155026699Y-98358001D01*
X155055697Y-98381799D01*
X155142423Y-98452974D01*
X155274453Y-98523546D01*
X155417714Y-98567003D01*
X155470053Y-98572158D01*
X155577363Y-98732759D01*
X155777241Y-98932637D01*
X156012273Y-99089680D01*
X156273426Y-99197853D01*
X156550665Y-99253000D01*
X156833335Y-99253000D01*
X157110574Y-99197853D01*
X157371727Y-99089680D01*
X157606759Y-98932637D01*
X157806637Y-98732759D01*
X157963680Y-98497727D01*
X158071853Y-98236574D01*
X158127000Y-97959335D01*
X158127000Y-97676665D01*
X158071853Y-97399426D01*
X157963680Y-97138273D01*
X157806637Y-96903241D01*
X157606759Y-96703363D01*
X157371727Y-96546320D01*
X157110574Y-96438147D01*
X156833335Y-96383000D01*
X156550665Y-96383000D01*
X156273426Y-96438147D01*
X156012273Y-96546320D01*
X155777241Y-96703363D01*
X155652053Y-96828551D01*
X152087459Y-93263958D01*
X152330632Y-93101475D01*
X152537475Y-92894632D01*
X152654000Y-92720240D01*
X152770525Y-92894632D01*
X152977368Y-93101475D01*
X153220589Y-93263990D01*
X153490842Y-93375932D01*
X153777740Y-93433000D01*
X154070260Y-93433000D01*
X154357158Y-93375932D01*
X154627411Y-93263990D01*
X154870632Y-93101475D01*
X155077475Y-92894632D01*
X155194000Y-92720240D01*
X155310525Y-92894632D01*
X155517368Y-93101475D01*
X155760589Y-93263990D01*
X156030842Y-93375932D01*
X156317740Y-93433000D01*
X156610260Y-93433000D01*
X156897158Y-93375932D01*
X157167411Y-93263990D01*
X157410632Y-93101475D01*
X157617475Y-92894632D01*
X157734000Y-92720240D01*
X157850525Y-92894632D01*
X158057368Y-93101475D01*
X158244001Y-93226179D01*
X158244000Y-103502678D01*
X158240324Y-103540000D01*
X158244000Y-103577322D01*
X158244000Y-103577332D01*
X158254997Y-103688985D01*
X158295080Y-103821124D01*
X158298454Y-103832246D01*
X158369026Y-103964276D01*
X158408871Y-104012826D01*
X158463999Y-104080001D01*
X158493003Y-104103804D01*
X161709677Y-107320478D01*
X161625204Y-107524413D01*
X161547000Y-107917570D01*
X161547000Y-108318430D01*
X161625204Y-108711587D01*
X161778607Y-109081934D01*
X162001313Y-109415237D01*
X162284763Y-109698687D01*
X162618066Y-109921393D01*
X162988413Y-110074796D01*
X163381570Y-110153000D01*
X163571202Y-110153000D01*
X163567845Y-110165053D01*
X163537690Y-110564777D01*
X163586096Y-110962704D01*
X163711205Y-111343540D01*
X163856230Y-111614865D01*
X164161553Y-111758842D01*
X165402395Y-110518000D01*
X165761605Y-110518000D01*
X167002447Y-111758842D01*
X167307770Y-111614865D01*
X167488597Y-111257108D01*
X167596155Y-110870947D01*
X167626310Y-110471223D01*
X167577904Y-110073296D01*
X167452795Y-109692460D01*
X167307770Y-109421135D01*
X167002447Y-109277158D01*
X165761605Y-110518000D01*
X165402395Y-110518000D01*
X165388253Y-110503858D01*
X165567858Y-110324253D01*
X165582000Y-110338395D01*
X166822842Y-109097553D01*
X166678865Y-108792230D01*
X166321108Y-108611403D01*
X165934947Y-108503845D01*
X165585364Y-108477473D01*
X165617000Y-108318430D01*
X165617000Y-107917570D01*
X165538796Y-107524413D01*
X165385393Y-107154066D01*
X165162687Y-106820763D01*
X164879237Y-106537313D01*
X164545934Y-106314607D01*
X164175587Y-106161204D01*
X163782430Y-106083000D01*
X163381570Y-106083000D01*
X162988413Y-106161204D01*
X162784478Y-106245677D01*
X159764000Y-103225199D01*
X159764000Y-102417570D01*
X161547000Y-102417570D01*
X161547000Y-102818430D01*
X161625204Y-103211587D01*
X161778607Y-103581934D01*
X162001313Y-103915237D01*
X162284763Y-104198687D01*
X162618066Y-104421393D01*
X162988413Y-104574796D01*
X163381570Y-104653000D01*
X163782430Y-104653000D01*
X164175587Y-104574796D01*
X164545934Y-104421393D01*
X164879237Y-104198687D01*
X165162687Y-103915237D01*
X165385393Y-103581934D01*
X165538796Y-103211587D01*
X165617000Y-102818430D01*
X165617000Y-102417570D01*
X165538796Y-102024413D01*
X165385393Y-101654066D01*
X165162687Y-101320763D01*
X164879237Y-101037313D01*
X164545934Y-100814607D01*
X164175587Y-100661204D01*
X163782430Y-100583000D01*
X163381570Y-100583000D01*
X162988413Y-100661204D01*
X162618066Y-100814607D01*
X162284763Y-101037313D01*
X162001313Y-101320763D01*
X161778607Y-101654066D01*
X161625204Y-102024413D01*
X161547000Y-102417570D01*
X159764000Y-102417570D01*
X159764000Y-93226178D01*
X159950632Y-93101475D01*
X160082487Y-92969620D01*
X160104498Y-93042180D01*
X160163463Y-93152494D01*
X160242815Y-93249185D01*
X160339506Y-93328537D01*
X160449820Y-93387502D01*
X160569518Y-93423812D01*
X160694000Y-93436072D01*
X161258250Y-93433000D01*
X161417000Y-93274250D01*
X161417000Y-92075000D01*
X161671000Y-92075000D01*
X161671000Y-93274250D01*
X161829750Y-93433000D01*
X162394000Y-93436072D01*
X162518482Y-93423812D01*
X162638180Y-93387502D01*
X162748494Y-93328537D01*
X162845185Y-93249185D01*
X162924537Y-93152494D01*
X162983502Y-93042180D01*
X163019812Y-92922482D01*
X163032072Y-92798000D01*
X163029000Y-92233750D01*
X162870250Y-92075000D01*
X161671000Y-92075000D01*
X161417000Y-92075000D01*
X161397000Y-92075000D01*
X161397000Y-91821000D01*
X161417000Y-91821000D01*
X161417000Y-89535000D01*
X161671000Y-89535000D01*
X161671000Y-91821000D01*
X162870250Y-91821000D01*
X163029000Y-91662250D01*
X163032072Y-91098000D01*
X163019812Y-90973518D01*
X162983502Y-90853820D01*
X162924537Y-90743506D01*
X162845185Y-90646815D01*
X162748494Y-90567463D01*
X162638180Y-90508498D01*
X162562374Y-90485502D01*
X162739178Y-90289355D01*
X162888157Y-90039252D01*
X162985481Y-89764891D01*
X162864814Y-89535000D01*
X161671000Y-89535000D01*
X161417000Y-89535000D01*
X159131000Y-89535000D01*
X159131000Y-89555000D01*
X158877000Y-89555000D01*
X158877000Y-89535000D01*
X158857000Y-89535000D01*
X158857000Y-89281000D01*
X158877000Y-89281000D01*
X158877000Y-88087845D01*
X159131000Y-88087845D01*
X159131000Y-89281000D01*
X161417000Y-89281000D01*
X161417000Y-88087845D01*
X161671000Y-88087845D01*
X161671000Y-89281000D01*
X162864814Y-89281000D01*
X162985481Y-89051109D01*
X162888157Y-88776748D01*
X162739178Y-88526645D01*
X162544269Y-88310412D01*
X162310920Y-88136359D01*
X162048099Y-88011175D01*
X161900890Y-87966524D01*
X161671000Y-88087845D01*
X161417000Y-88087845D01*
X161187110Y-87966524D01*
X161039901Y-88011175D01*
X160777080Y-88136359D01*
X160543731Y-88310412D01*
X160348822Y-88526645D01*
X160274000Y-88652255D01*
X160199178Y-88526645D01*
X160004269Y-88310412D01*
X159770920Y-88136359D01*
X159508099Y-88011175D01*
X159360890Y-87966524D01*
X159131000Y-88087845D01*
X158877000Y-88087845D01*
X158647110Y-87966524D01*
X158499901Y-88011175D01*
X158237080Y-88136359D01*
X158003731Y-88310412D01*
X157808822Y-88526645D01*
X157739195Y-88643534D01*
X157617475Y-88461368D01*
X157410632Y-88254525D01*
X157167411Y-88092010D01*
X156897158Y-87980068D01*
X156610260Y-87923000D01*
X156317740Y-87923000D01*
X156030842Y-87980068D01*
X155760589Y-88092010D01*
X155517368Y-88254525D01*
X155310525Y-88461368D01*
X155194000Y-88635760D01*
X155077475Y-88461368D01*
X154870632Y-88254525D01*
X154627411Y-88092010D01*
X154357158Y-87980068D01*
X154070260Y-87923000D01*
X153777740Y-87923000D01*
X153490842Y-87980068D01*
X153220589Y-88092010D01*
X152977368Y-88254525D01*
X152770525Y-88461368D01*
X152654000Y-88635760D01*
X152537475Y-88461368D01*
X152330632Y-88254525D01*
X152087411Y-88092010D01*
X151817158Y-87980068D01*
X151530260Y-87923000D01*
X151237740Y-87923000D01*
X150950842Y-87980068D01*
X150680589Y-88092010D01*
X150473311Y-88230509D01*
X149770802Y-87528000D01*
X168319721Y-87528000D01*
X168716545Y-87566909D01*
X169067208Y-87672780D01*
X169390625Y-87844744D01*
X169674484Y-88076254D01*
X169907965Y-88358486D01*
X170082183Y-88680695D01*
X170190502Y-89030614D01*
X170232000Y-89425443D01*
X170232001Y-114295711D01*
X170193091Y-114692545D01*
X170087220Y-115043206D01*
X169915257Y-115366623D01*
X169683748Y-115650482D01*
X169401514Y-115883965D01*
X169079304Y-116058184D01*
X168729385Y-116166502D01*
X168334557Y-116208000D01*
X108464279Y-116208000D01*
X108067455Y-116169091D01*
X107716794Y-116063220D01*
X107393377Y-115891257D01*
X107109518Y-115659748D01*
X106876035Y-115377514D01*
X106701816Y-115055304D01*
X106593498Y-114705385D01*
X106552000Y-114310557D01*
X106552000Y-111938447D01*
X164341158Y-111938447D01*
X164485135Y-112243770D01*
X164842892Y-112424597D01*
X165229053Y-112532155D01*
X165628777Y-112562310D01*
X166026704Y-112513904D01*
X166407540Y-112388795D01*
X166678865Y-112243770D01*
X166822842Y-111938447D01*
X165582000Y-110697605D01*
X164341158Y-111938447D01*
X106552000Y-111938447D01*
X106552000Y-105408000D01*
X107763928Y-105408000D01*
X107763928Y-108008000D01*
X107776188Y-108132482D01*
X107812498Y-108252180D01*
X107871463Y-108362494D01*
X107950815Y-108459185D01*
X108047506Y-108538537D01*
X108157820Y-108597502D01*
X108277518Y-108633812D01*
X108402000Y-108646072D01*
X111002000Y-108646072D01*
X111126482Y-108633812D01*
X111246180Y-108597502D01*
X111356494Y-108538537D01*
X111453185Y-108459185D01*
X111532537Y-108362494D01*
X111591502Y-108252180D01*
X111627812Y-108132482D01*
X111640072Y-108008000D01*
X111640072Y-105408000D01*
X111627812Y-105283518D01*
X111591502Y-105163820D01*
X111532537Y-105053506D01*
X111453185Y-104956815D01*
X111356494Y-104877463D01*
X111246180Y-104818498D01*
X111126482Y-104782188D01*
X111002000Y-104769928D01*
X108402000Y-104769928D01*
X108277518Y-104782188D01*
X108157820Y-104818498D01*
X108047506Y-104877463D01*
X107950815Y-104956815D01*
X107871463Y-105053506D01*
X107812498Y-105163820D01*
X107776188Y-105283518D01*
X107763928Y-105408000D01*
X106552000Y-105408000D01*
X106552000Y-98952155D01*
X107437450Y-98952155D01*
X107833634Y-99472550D01*
X108548612Y-99862748D01*
X109325976Y-100105964D01*
X110135853Y-100192851D01*
X110947118Y-100120069D01*
X111728597Y-99890415D01*
X112450256Y-99512715D01*
X112510366Y-99472550D01*
X112906550Y-98952155D01*
X110172000Y-96217605D01*
X107437450Y-98952155D01*
X106552000Y-98952155D01*
X106552000Y-98038665D01*
X106697285Y-98316256D01*
X106737450Y-98376366D01*
X107257845Y-98772550D01*
X109992395Y-96038000D01*
X110351605Y-96038000D01*
X113086155Y-98772550D01*
X113606550Y-98376366D01*
X113996748Y-97661388D01*
X114239964Y-96884024D01*
X114326851Y-96074147D01*
X114254069Y-95262882D01*
X114024415Y-94481403D01*
X113646715Y-93759744D01*
X113606550Y-93699634D01*
X113086155Y-93303450D01*
X110351605Y-96038000D01*
X109992395Y-96038000D01*
X107257845Y-93303450D01*
X106737450Y-93699634D01*
X106552000Y-94039443D01*
X106552000Y-93123845D01*
X107437450Y-93123845D01*
X110172000Y-95858395D01*
X112906550Y-93123845D01*
X112510366Y-92603450D01*
X111795388Y-92213252D01*
X111018024Y-91970036D01*
X110208147Y-91883149D01*
X109396882Y-91955931D01*
X108615403Y-92185585D01*
X107893744Y-92563285D01*
X107833634Y-92603450D01*
X107437450Y-93123845D01*
X106552000Y-93123845D01*
X106552000Y-89440279D01*
X106590909Y-89043455D01*
X106696780Y-88692792D01*
X106868744Y-88369375D01*
X107100254Y-88085516D01*
X107382486Y-87852035D01*
X107704695Y-87677817D01*
X108054614Y-87569498D01*
X108449443Y-87528000D01*
X137816698Y-87528000D01*
X137090357Y-88254341D01*
G37*
X137090357Y-88254341D02*
X136847411Y-88092010D01*
X136577158Y-87980068D01*
X136290260Y-87923000D01*
X135997740Y-87923000D01*
X135710842Y-87980068D01*
X135440589Y-88092010D01*
X135197368Y-88254525D01*
X134990525Y-88461368D01*
X134874000Y-88635760D01*
X134757475Y-88461368D01*
X134550632Y-88254525D01*
X134307411Y-88092010D01*
X134037158Y-87980068D01*
X133750260Y-87923000D01*
X133457740Y-87923000D01*
X133170842Y-87980068D01*
X132900589Y-88092010D01*
X132657368Y-88254525D01*
X132450525Y-88461368D01*
X132334000Y-88635760D01*
X132217475Y-88461368D01*
X132010632Y-88254525D01*
X131767411Y-88092010D01*
X131497158Y-87980068D01*
X131210260Y-87923000D01*
X130917740Y-87923000D01*
X130630842Y-87980068D01*
X130360589Y-88092010D01*
X130117368Y-88254525D01*
X129910525Y-88461368D01*
X129748010Y-88704589D01*
X129636068Y-88974842D01*
X129579000Y-89261740D01*
X129579000Y-89554260D01*
X129636068Y-89841158D01*
X129748010Y-90111411D01*
X129910525Y-90354632D01*
X130075093Y-90519200D01*
X129823828Y-90519200D01*
X128541948Y-89237321D01*
X128497202Y-89182798D01*
X128279639Y-89004248D01*
X128031424Y-88871574D01*
X127762094Y-88789874D01*
X127552188Y-88769200D01*
X127552181Y-88769200D01*
X127482000Y-88762288D01*
X127411819Y-88769200D01*
X117392178Y-88769200D01*
X117321999Y-88762288D01*
X117251821Y-88769200D01*
X117251812Y-88769200D01*
X117041906Y-88789874D01*
X116772576Y-88871574D01*
X116524361Y-89004248D01*
X116306798Y-89182798D01*
X116262056Y-89237316D01*
X115091317Y-90408056D01*
X115036798Y-90452799D01*
X114858248Y-90670362D01*
X114748575Y-90875546D01*
X114725574Y-90918577D01*
X114652739Y-91158684D01*
X114643874Y-91187907D01*
X114623200Y-91397813D01*
X114623200Y-91397819D01*
X114616288Y-91468000D01*
X114623200Y-91538181D01*
X114623201Y-104766171D01*
X114616372Y-104773000D01*
X114511419Y-104773000D01*
X114137581Y-104847361D01*
X113785434Y-104993225D01*
X113468509Y-105204987D01*
X113198987Y-105474509D01*
X112987225Y-105791434D01*
X112841361Y-106143581D01*
X112767000Y-106517419D01*
X112767000Y-106898581D01*
X112841361Y-107272419D01*
X112987225Y-107624566D01*
X113198987Y-107941491D01*
X113468509Y-108211013D01*
X113785434Y-108422775D01*
X114137581Y-108568639D01*
X114511419Y-108643000D01*
X114892581Y-108643000D01*
X115266419Y-108568639D01*
X115618566Y-108422775D01*
X115935491Y-108211013D01*
X116205013Y-107941491D01*
X116416775Y-107624566D01*
X116562639Y-107272419D01*
X116637000Y-106898581D01*
X116637000Y-106793628D01*
X117012684Y-106417944D01*
X117067202Y-106373202D01*
X117245752Y-106155639D01*
X117378426Y-105907424D01*
X117460126Y-105638094D01*
X117480800Y-105428188D01*
X117480800Y-105428179D01*
X117487712Y-105358001D01*
X117480800Y-105287823D01*
X117480800Y-92059827D01*
X117913828Y-91626800D01*
X126890173Y-91626800D01*
X128172056Y-92908684D01*
X128216798Y-92963202D01*
X128434361Y-93141752D01*
X128678572Y-93272286D01*
X128682576Y-93274426D01*
X128951905Y-93356126D01*
X128978576Y-93358753D01*
X129161812Y-93376800D01*
X129161819Y-93376800D01*
X129232000Y-93383712D01*
X129302181Y-93376800D01*
X130635206Y-93376800D01*
X130917740Y-93433000D01*
X131210260Y-93433000D01*
X131492794Y-93376800D01*
X132832298Y-93376800D01*
X127881099Y-98328000D01*
X127490178Y-98328000D01*
X127365475Y-98141368D01*
X127158632Y-97934525D01*
X126984240Y-97818000D01*
X127158632Y-97701475D01*
X127365475Y-97494632D01*
X127527990Y-97251411D01*
X127639932Y-96981158D01*
X127697000Y-96694260D01*
X127697000Y-96401740D01*
X127639932Y-96114842D01*
X127527990Y-95844589D01*
X127365475Y-95601368D01*
X127158632Y-95394525D01*
X126984240Y-95278000D01*
X127158632Y-95161475D01*
X127365475Y-94954632D01*
X127527990Y-94711411D01*
X127639932Y-94441158D01*
X127697000Y-94154260D01*
X127697000Y-93861740D01*
X127639932Y-93574842D01*
X127527990Y-93304589D01*
X127365475Y-93061368D01*
X127158632Y-92854525D01*
X126915411Y-92692010D01*
X126645158Y-92580068D01*
X126358260Y-92523000D01*
X126065740Y-92523000D01*
X125778842Y-92580068D01*
X125508589Y-92692010D01*
X125265368Y-92854525D01*
X125133513Y-92986380D01*
X125111502Y-92913820D01*
X125052537Y-92803506D01*
X124973185Y-92706815D01*
X124876494Y-92627463D01*
X124766180Y-92568498D01*
X124646482Y-92532188D01*
X124522000Y-92519928D01*
X122822000Y-92519928D01*
X122697518Y-92532188D01*
X122577820Y-92568498D01*
X122467506Y-92627463D01*
X122370815Y-92706815D01*
X122291463Y-92803506D01*
X122232498Y-92913820D01*
X122196188Y-93033518D01*
X122183928Y-93158000D01*
X122183928Y-94858000D01*
X122196188Y-94982482D01*
X122232498Y-95102180D01*
X122291463Y-95212494D01*
X122370815Y-95309185D01*
X122467506Y-95388537D01*
X122577820Y-95447502D01*
X122650380Y-95469513D01*
X122518525Y-95601368D01*
X122356010Y-95844589D01*
X122244068Y-96114842D01*
X122187000Y-96401740D01*
X122187000Y-96694260D01*
X122244068Y-96981158D01*
X122356010Y-97251411D01*
X122518525Y-97494632D01*
X122725368Y-97701475D01*
X122899760Y-97818000D01*
X122725368Y-97934525D01*
X122518525Y-98141368D01*
X122356010Y-98384589D01*
X122244068Y-98654842D01*
X122187000Y-98941740D01*
X122187000Y-99234260D01*
X122244068Y-99521158D01*
X122356010Y-99791411D01*
X122518525Y-100034632D01*
X122725368Y-100241475D01*
X122968589Y-100403990D01*
X123238842Y-100515932D01*
X123525740Y-100573000D01*
X123818260Y-100573000D01*
X124105158Y-100515932D01*
X124375411Y-100403990D01*
X124618632Y-100241475D01*
X124825475Y-100034632D01*
X124942000Y-99860240D01*
X125058525Y-100034632D01*
X125265368Y-100241475D01*
X125508589Y-100403990D01*
X125778842Y-100515932D01*
X126065740Y-100573000D01*
X126358260Y-100573000D01*
X126645158Y-100515932D01*
X126915411Y-100403990D01*
X127158632Y-100241475D01*
X127365475Y-100034632D01*
X127490178Y-99848000D01*
X128158578Y-99848000D01*
X128195900Y-99851676D01*
X128233222Y-99848000D01*
X128233233Y-99848000D01*
X128344886Y-99837003D01*
X128488147Y-99793546D01*
X128620176Y-99722974D01*
X128735901Y-99628001D01*
X128759704Y-99598997D01*
X135233251Y-93125451D01*
X135440589Y-93263990D01*
X135710842Y-93375932D01*
X135997740Y-93433000D01*
X136290260Y-93433000D01*
X136577158Y-93375932D01*
X136847411Y-93263990D01*
X137090632Y-93101475D01*
X137297475Y-92894632D01*
X137414000Y-92720240D01*
X137530525Y-92894632D01*
X137737368Y-93101475D01*
X137980589Y-93263990D01*
X138250842Y-93375932D01*
X138537740Y-93433000D01*
X138830260Y-93433000D01*
X139117158Y-93375932D01*
X139288601Y-93304918D01*
X139288600Y-104817321D01*
X139137581Y-104847361D01*
X138785434Y-104993225D01*
X138468509Y-105204987D01*
X138198987Y-105474509D01*
X137987225Y-105791434D01*
X137841361Y-106143581D01*
X137767000Y-106517419D01*
X137767000Y-106898581D01*
X137841361Y-107272419D01*
X137968434Y-107579200D01*
X136429789Y-107579200D01*
X136517159Y-107404955D01*
X136618250Y-107037443D01*
X136645701Y-106657271D01*
X136598457Y-106279049D01*
X136478333Y-105917310D01*
X136346312Y-105670317D01*
X136051224Y-105538381D01*
X134881605Y-106708000D01*
X134895748Y-106722143D01*
X134716143Y-106901748D01*
X134702000Y-106887605D01*
X134687858Y-106901748D01*
X134508253Y-106722143D01*
X134522395Y-106708000D01*
X133352776Y-105538381D01*
X133057688Y-105670317D01*
X132886841Y-106011045D01*
X132785750Y-106378557D01*
X132758299Y-106758729D01*
X132805543Y-107136951D01*
X132925667Y-107498690D01*
X132968701Y-107579200D01*
X131435566Y-107579200D01*
X131562639Y-107272419D01*
X131637000Y-106898581D01*
X131637000Y-106517419D01*
X131562639Y-106143581D01*
X131416775Y-105791434D01*
X131205013Y-105474509D01*
X131089280Y-105358776D01*
X133532381Y-105358776D01*
X134702000Y-106528395D01*
X135871619Y-105358776D01*
X135739683Y-105063688D01*
X135398955Y-104892841D01*
X135031443Y-104791750D01*
X134651271Y-104764299D01*
X134273049Y-104811543D01*
X133911310Y-104931667D01*
X133664317Y-105063688D01*
X133532381Y-105358776D01*
X131089280Y-105358776D01*
X130935491Y-105204987D01*
X130618566Y-104993225D01*
X130373207Y-104891594D01*
X136048114Y-99216688D01*
X136230665Y-99253000D01*
X136513335Y-99253000D01*
X136790574Y-99197853D01*
X137051727Y-99089680D01*
X137286759Y-98932637D01*
X137486637Y-98732759D01*
X137643680Y-98497727D01*
X137751853Y-98236574D01*
X137807000Y-97959335D01*
X137807000Y-97676665D01*
X137751853Y-97399426D01*
X137643680Y-97138273D01*
X137486637Y-96903241D01*
X137286759Y-96703363D01*
X137051727Y-96546320D01*
X136790574Y-96438147D01*
X136513335Y-96383000D01*
X136230665Y-96383000D01*
X135953426Y-96438147D01*
X135692273Y-96546320D01*
X135457241Y-96703363D01*
X135257363Y-96903241D01*
X135100320Y-97138273D01*
X134992147Y-97399426D01*
X134937000Y-97676665D01*
X134937000Y-97959335D01*
X134973312Y-98141886D01*
X129260899Y-103854300D01*
X121833023Y-103854300D01*
X121795700Y-103850624D01*
X121758377Y-103854300D01*
X121758367Y-103854300D01*
X121646714Y-103865297D01*
X121503453Y-103908754D01*
X121371423Y-103979326D01*
X121291645Y-104044799D01*
X121255699Y-104074299D01*
X121231901Y-104103297D01*
X120422985Y-104912213D01*
X120266419Y-104847361D01*
X119892581Y-104773000D01*
X119511419Y-104773000D01*
X119137581Y-104847361D01*
X118785434Y-104993225D01*
X118468509Y-105204987D01*
X118198987Y-105474509D01*
X117987225Y-105791434D01*
X117841361Y-106143581D01*
X117767000Y-106517419D01*
X117767000Y-106898581D01*
X117841361Y-107272419D01*
X117987225Y-107624566D01*
X118198987Y-107941491D01*
X118468509Y-108211013D01*
X118785434Y-108422775D01*
X119137581Y-108568639D01*
X119511419Y-108643000D01*
X119892581Y-108643000D01*
X120266419Y-108568639D01*
X120618566Y-108422775D01*
X120935491Y-108211013D01*
X121205013Y-107941491D01*
X121416775Y-107624566D01*
X121562639Y-107272419D01*
X121637000Y-106898581D01*
X121637000Y-106517419D01*
X121562639Y-106143581D01*
X121497787Y-105987015D01*
X122110502Y-105374300D01*
X123299196Y-105374300D01*
X123198987Y-105474509D01*
X122987225Y-105791434D01*
X122841361Y-106143581D01*
X122767000Y-106517419D01*
X122767000Y-106898581D01*
X122841361Y-107272419D01*
X122987225Y-107624566D01*
X123198987Y-107941491D01*
X123468509Y-108211013D01*
X123785434Y-108422775D01*
X124137581Y-108568639D01*
X124511419Y-108643000D01*
X124892581Y-108643000D01*
X125266419Y-108568639D01*
X125422985Y-108503787D01*
X125769401Y-108850203D01*
X125793199Y-108879201D01*
X125908924Y-108974174D01*
X126040953Y-109044746D01*
X126184214Y-109088203D01*
X126295867Y-109099200D01*
X126295876Y-109099200D01*
X126333199Y-109102876D01*
X126370522Y-109099200D01*
X140339778Y-109099200D01*
X140377100Y-109102876D01*
X140414422Y-109099200D01*
X140414433Y-109099200D01*
X140526086Y-109088203D01*
X140669347Y-109044746D01*
X140801376Y-108974174D01*
X140917101Y-108879201D01*
X140940904Y-108850198D01*
X141848004Y-107943098D01*
X141877001Y-107919301D01*
X141971974Y-107803576D01*
X142042546Y-107671547D01*
X142086003Y-107528286D01*
X142097000Y-107416633D01*
X142097000Y-107416632D01*
X142100677Y-107379300D01*
X142097000Y-107341967D01*
X142097000Y-105177801D01*
X142906213Y-105987014D01*
X142841361Y-106143581D01*
X142767000Y-106517419D01*
X142767000Y-106898581D01*
X142841361Y-107272419D01*
X142987225Y-107624566D01*
X143198987Y-107941491D01*
X143468509Y-108211013D01*
X143785434Y-108422775D01*
X144137581Y-108568639D01*
X144511419Y-108643000D01*
X144892581Y-108643000D01*
X145266419Y-108568639D01*
X145618566Y-108422775D01*
X145935491Y-108211013D01*
X146205013Y-107941491D01*
X146416775Y-107624566D01*
X146562639Y-107272419D01*
X146637000Y-106898581D01*
X146637000Y-106517419D01*
X146562639Y-106143581D01*
X146416775Y-105791434D01*
X146205013Y-105474509D01*
X145935491Y-105204987D01*
X145618566Y-104993225D01*
X145266419Y-104847361D01*
X144892581Y-104773000D01*
X144511419Y-104773000D01*
X144137581Y-104847361D01*
X143981014Y-104912213D01*
X143338800Y-104269999D01*
X143338800Y-99100668D01*
X143573426Y-99197853D01*
X143850665Y-99253000D01*
X144133335Y-99253000D01*
X144410574Y-99197853D01*
X144671727Y-99089680D01*
X144906759Y-98932637D01*
X145106637Y-98732759D01*
X145263680Y-98497727D01*
X145371853Y-98236574D01*
X145409336Y-98048137D01*
X148942001Y-101580803D01*
X148942000Y-104928373D01*
X148785434Y-104993225D01*
X148468509Y-105204987D01*
X148198987Y-105474509D01*
X147987225Y-105791434D01*
X147841361Y-106143581D01*
X147767000Y-106517419D01*
X147767000Y-106898581D01*
X147841361Y-107272419D01*
X147987225Y-107624566D01*
X148198987Y-107941491D01*
X148468509Y-108211013D01*
X148785434Y-108422775D01*
X149137581Y-108568639D01*
X149511419Y-108643000D01*
X149892581Y-108643000D01*
X150266419Y-108568639D01*
X150618566Y-108422775D01*
X150935491Y-108211013D01*
X151205013Y-107941491D01*
X151416775Y-107624566D01*
X151562639Y-107272419D01*
X151637000Y-106898581D01*
X151637000Y-106517419D01*
X151562639Y-106143581D01*
X151416775Y-105791434D01*
X151205013Y-105474509D01*
X150935491Y-105204987D01*
X150618566Y-104993225D01*
X150462000Y-104928373D01*
X150462000Y-101303322D01*
X150465676Y-101265999D01*
X150462000Y-101228676D01*
X150462000Y-101228667D01*
X150451003Y-101117014D01*
X150407546Y-100973753D01*
X150360815Y-100886326D01*
X150336974Y-100841723D01*
X150265799Y-100754997D01*
X150242001Y-100725999D01*
X150213003Y-100702201D01*
X148722368Y-99211567D01*
X148930665Y-99253000D01*
X149213335Y-99253000D01*
X149490574Y-99197853D01*
X149751727Y-99089680D01*
X149986759Y-98932637D01*
X150186637Y-98732759D01*
X150343680Y-98497727D01*
X150419816Y-98313918D01*
X153942001Y-101836104D01*
X153942000Y-104928373D01*
X153785434Y-104993225D01*
X153468509Y-105204987D01*
X153198987Y-105474509D01*
X152987225Y-105791434D01*
X152841361Y-106143581D01*
X152767000Y-106517419D01*
X152767000Y-106898581D01*
X152841361Y-107272419D01*
X152987225Y-107624566D01*
X153198987Y-107941491D01*
X153468509Y-108211013D01*
X153785434Y-108422775D01*
X154137581Y-108568639D01*
X154511419Y-108643000D01*
X154892581Y-108643000D01*
X155266419Y-108568639D01*
X155618566Y-108422775D01*
X155935491Y-108211013D01*
X156205013Y-107941491D01*
X156416775Y-107624566D01*
X156562639Y-107272419D01*
X156637000Y-106898581D01*
X156637000Y-106517419D01*
X156562639Y-106143581D01*
X156416775Y-105791434D01*
X156205013Y-105474509D01*
X155935491Y-105204987D01*
X155618566Y-104993225D01*
X155462000Y-104928373D01*
X155462000Y-101558622D01*
X155465676Y-101521299D01*
X155462000Y-101483976D01*
X155462000Y-101483967D01*
X155451003Y-101372314D01*
X155407546Y-101229053D01*
X155336974Y-101097024D01*
X155323811Y-101080985D01*
X155265799Y-101010296D01*
X155265795Y-101010292D01*
X155242001Y-100981299D01*
X155213008Y-100957505D01*
X147303804Y-93048303D01*
X147457475Y-92894632D01*
X147579195Y-92712466D01*
X147648822Y-92829355D01*
X147843731Y-93045588D01*
X148077080Y-93219641D01*
X148339901Y-93344825D01*
X148487110Y-93389476D01*
X148717000Y-93268155D01*
X148717000Y-92075000D01*
X148697000Y-92075000D01*
X148697000Y-91821000D01*
X148717000Y-91821000D01*
X148717000Y-91801000D01*
X148971000Y-91801000D01*
X148971000Y-91821000D01*
X148991000Y-91821000D01*
X148991000Y-92075000D01*
X148971000Y-92075000D01*
X148971000Y-93268155D01*
X149200890Y-93389476D01*
X149348099Y-93344825D01*
X149610920Y-93219641D01*
X149772797Y-93098898D01*
X155002901Y-98329003D01*
X155026699Y-98358001D01*
X155055697Y-98381799D01*
X155142423Y-98452974D01*
X155274453Y-98523546D01*
X155417714Y-98567003D01*
X155470053Y-98572158D01*
X155577363Y-98732759D01*
X155777241Y-98932637D01*
X156012273Y-99089680D01*
X156273426Y-99197853D01*
X156550665Y-99253000D01*
X156833335Y-99253000D01*
X157110574Y-99197853D01*
X157371727Y-99089680D01*
X157606759Y-98932637D01*
X157806637Y-98732759D01*
X157963680Y-98497727D01*
X158071853Y-98236574D01*
X158127000Y-97959335D01*
X158127000Y-97676665D01*
X158071853Y-97399426D01*
X157963680Y-97138273D01*
X157806637Y-96903241D01*
X157606759Y-96703363D01*
X157371727Y-96546320D01*
X157110574Y-96438147D01*
X156833335Y-96383000D01*
X156550665Y-96383000D01*
X156273426Y-96438147D01*
X156012273Y-96546320D01*
X155777241Y-96703363D01*
X155652053Y-96828551D01*
X152087459Y-93263958D01*
X152330632Y-93101475D01*
X152537475Y-92894632D01*
X152654000Y-92720240D01*
X152770525Y-92894632D01*
X152977368Y-93101475D01*
X153220589Y-93263990D01*
X153490842Y-93375932D01*
X153777740Y-93433000D01*
X154070260Y-93433000D01*
X154357158Y-93375932D01*
X154627411Y-93263990D01*
X154870632Y-93101475D01*
X155077475Y-92894632D01*
X155194000Y-92720240D01*
X155310525Y-92894632D01*
X155517368Y-93101475D01*
X155760589Y-93263990D01*
X156030842Y-93375932D01*
X156317740Y-93433000D01*
X156610260Y-93433000D01*
X156897158Y-93375932D01*
X157167411Y-93263990D01*
X157410632Y-93101475D01*
X157617475Y-92894632D01*
X157734000Y-92720240D01*
X157850525Y-92894632D01*
X158057368Y-93101475D01*
X158244001Y-93226179D01*
X158244000Y-103502678D01*
X158240324Y-103540000D01*
X158244000Y-103577322D01*
X158244000Y-103577332D01*
X158254997Y-103688985D01*
X158295080Y-103821124D01*
X158298454Y-103832246D01*
X158369026Y-103964276D01*
X158408871Y-104012826D01*
X158463999Y-104080001D01*
X158493003Y-104103804D01*
X161709677Y-107320478D01*
X161625204Y-107524413D01*
X161547000Y-107917570D01*
X161547000Y-108318430D01*
X161625204Y-108711587D01*
X161778607Y-109081934D01*
X162001313Y-109415237D01*
X162284763Y-109698687D01*
X162618066Y-109921393D01*
X162988413Y-110074796D01*
X163381570Y-110153000D01*
X163571202Y-110153000D01*
X163567845Y-110165053D01*
X163537690Y-110564777D01*
X163586096Y-110962704D01*
X163711205Y-111343540D01*
X163856230Y-111614865D01*
X164161553Y-111758842D01*
X165402395Y-110518000D01*
X165761605Y-110518000D01*
X167002447Y-111758842D01*
X167307770Y-111614865D01*
X167488597Y-111257108D01*
X167596155Y-110870947D01*
X167626310Y-110471223D01*
X167577904Y-110073296D01*
X167452795Y-109692460D01*
X167307770Y-109421135D01*
X167002447Y-109277158D01*
X165761605Y-110518000D01*
X165402395Y-110518000D01*
X165388253Y-110503858D01*
X165567858Y-110324253D01*
X165582000Y-110338395D01*
X166822842Y-109097553D01*
X166678865Y-108792230D01*
X166321108Y-108611403D01*
X165934947Y-108503845D01*
X165585364Y-108477473D01*
X165617000Y-108318430D01*
X165617000Y-107917570D01*
X165538796Y-107524413D01*
X165385393Y-107154066D01*
X165162687Y-106820763D01*
X164879237Y-106537313D01*
X164545934Y-106314607D01*
X164175587Y-106161204D01*
X163782430Y-106083000D01*
X163381570Y-106083000D01*
X162988413Y-106161204D01*
X162784478Y-106245677D01*
X159764000Y-103225199D01*
X159764000Y-102417570D01*
X161547000Y-102417570D01*
X161547000Y-102818430D01*
X161625204Y-103211587D01*
X161778607Y-103581934D01*
X162001313Y-103915237D01*
X162284763Y-104198687D01*
X162618066Y-104421393D01*
X162988413Y-104574796D01*
X163381570Y-104653000D01*
X163782430Y-104653000D01*
X164175587Y-104574796D01*
X164545934Y-104421393D01*
X164879237Y-104198687D01*
X165162687Y-103915237D01*
X165385393Y-103581934D01*
X165538796Y-103211587D01*
X165617000Y-102818430D01*
X165617000Y-102417570D01*
X165538796Y-102024413D01*
X165385393Y-101654066D01*
X165162687Y-101320763D01*
X164879237Y-101037313D01*
X164545934Y-100814607D01*
X164175587Y-100661204D01*
X163782430Y-100583000D01*
X163381570Y-100583000D01*
X162988413Y-100661204D01*
X162618066Y-100814607D01*
X162284763Y-101037313D01*
X162001313Y-101320763D01*
X161778607Y-101654066D01*
X161625204Y-102024413D01*
X161547000Y-102417570D01*
X159764000Y-102417570D01*
X159764000Y-93226178D01*
X159950632Y-93101475D01*
X160082487Y-92969620D01*
X160104498Y-93042180D01*
X160163463Y-93152494D01*
X160242815Y-93249185D01*
X160339506Y-93328537D01*
X160449820Y-93387502D01*
X160569518Y-93423812D01*
X160694000Y-93436072D01*
X161258250Y-93433000D01*
X161417000Y-93274250D01*
X161417000Y-92075000D01*
X161671000Y-92075000D01*
X161671000Y-93274250D01*
X161829750Y-93433000D01*
X162394000Y-93436072D01*
X162518482Y-93423812D01*
X162638180Y-93387502D01*
X162748494Y-93328537D01*
X162845185Y-93249185D01*
X162924537Y-93152494D01*
X162983502Y-93042180D01*
X163019812Y-92922482D01*
X163032072Y-92798000D01*
X163029000Y-92233750D01*
X162870250Y-92075000D01*
X161671000Y-92075000D01*
X161417000Y-92075000D01*
X161397000Y-92075000D01*
X161397000Y-91821000D01*
X161417000Y-91821000D01*
X161417000Y-89535000D01*
X161671000Y-89535000D01*
X161671000Y-91821000D01*
X162870250Y-91821000D01*
X163029000Y-91662250D01*
X163032072Y-91098000D01*
X163019812Y-90973518D01*
X162983502Y-90853820D01*
X162924537Y-90743506D01*
X162845185Y-90646815D01*
X162748494Y-90567463D01*
X162638180Y-90508498D01*
X162562374Y-90485502D01*
X162739178Y-90289355D01*
X162888157Y-90039252D01*
X162985481Y-89764891D01*
X162864814Y-89535000D01*
X161671000Y-89535000D01*
X161417000Y-89535000D01*
X159131000Y-89535000D01*
X159131000Y-89555000D01*
X158877000Y-89555000D01*
X158877000Y-89535000D01*
X158857000Y-89535000D01*
X158857000Y-89281000D01*
X158877000Y-89281000D01*
X158877000Y-88087845D01*
X159131000Y-88087845D01*
X159131000Y-89281000D01*
X161417000Y-89281000D01*
X161417000Y-88087845D01*
X161671000Y-88087845D01*
X161671000Y-89281000D01*
X162864814Y-89281000D01*
X162985481Y-89051109D01*
X162888157Y-88776748D01*
X162739178Y-88526645D01*
X162544269Y-88310412D01*
X162310920Y-88136359D01*
X162048099Y-88011175D01*
X161900890Y-87966524D01*
X161671000Y-88087845D01*
X161417000Y-88087845D01*
X161187110Y-87966524D01*
X161039901Y-88011175D01*
X160777080Y-88136359D01*
X160543731Y-88310412D01*
X160348822Y-88526645D01*
X160274000Y-88652255D01*
X160199178Y-88526645D01*
X160004269Y-88310412D01*
X159770920Y-88136359D01*
X159508099Y-88011175D01*
X159360890Y-87966524D01*
X159131000Y-88087845D01*
X158877000Y-88087845D01*
X158647110Y-87966524D01*
X158499901Y-88011175D01*
X158237080Y-88136359D01*
X158003731Y-88310412D01*
X157808822Y-88526645D01*
X157739195Y-88643534D01*
X157617475Y-88461368D01*
X157410632Y-88254525D01*
X157167411Y-88092010D01*
X156897158Y-87980068D01*
X156610260Y-87923000D01*
X156317740Y-87923000D01*
X156030842Y-87980068D01*
X155760589Y-88092010D01*
X155517368Y-88254525D01*
X155310525Y-88461368D01*
X155194000Y-88635760D01*
X155077475Y-88461368D01*
X154870632Y-88254525D01*
X154627411Y-88092010D01*
X154357158Y-87980068D01*
X154070260Y-87923000D01*
X153777740Y-87923000D01*
X153490842Y-87980068D01*
X153220589Y-88092010D01*
X152977368Y-88254525D01*
X152770525Y-88461368D01*
X152654000Y-88635760D01*
X152537475Y-88461368D01*
X152330632Y-88254525D01*
X152087411Y-88092010D01*
X151817158Y-87980068D01*
X151530260Y-87923000D01*
X151237740Y-87923000D01*
X150950842Y-87980068D01*
X150680589Y-88092010D01*
X150473311Y-88230509D01*
X149770802Y-87528000D01*
X168319721Y-87528000D01*
X168716545Y-87566909D01*
X169067208Y-87672780D01*
X169390625Y-87844744D01*
X169674484Y-88076254D01*
X169907965Y-88358486D01*
X170082183Y-88680695D01*
X170190502Y-89030614D01*
X170232000Y-89425443D01*
X170232001Y-114295711D01*
X170193091Y-114692545D01*
X170087220Y-115043206D01*
X169915257Y-115366623D01*
X169683748Y-115650482D01*
X169401514Y-115883965D01*
X169079304Y-116058184D01*
X168729385Y-116166502D01*
X168334557Y-116208000D01*
X108464279Y-116208000D01*
X108067455Y-116169091D01*
X107716794Y-116063220D01*
X107393377Y-115891257D01*
X107109518Y-115659748D01*
X106876035Y-115377514D01*
X106701816Y-115055304D01*
X106593498Y-114705385D01*
X106552000Y-114310557D01*
X106552000Y-111938447D01*
X164341158Y-111938447D01*
X164485135Y-112243770D01*
X164842892Y-112424597D01*
X165229053Y-112532155D01*
X165628777Y-112562310D01*
X166026704Y-112513904D01*
X166407540Y-112388795D01*
X166678865Y-112243770D01*
X166822842Y-111938447D01*
X165582000Y-110697605D01*
X164341158Y-111938447D01*
X106552000Y-111938447D01*
X106552000Y-105408000D01*
X107763928Y-105408000D01*
X107763928Y-108008000D01*
X107776188Y-108132482D01*
X107812498Y-108252180D01*
X107871463Y-108362494D01*
X107950815Y-108459185D01*
X108047506Y-108538537D01*
X108157820Y-108597502D01*
X108277518Y-108633812D01*
X108402000Y-108646072D01*
X111002000Y-108646072D01*
X111126482Y-108633812D01*
X111246180Y-108597502D01*
X111356494Y-108538537D01*
X111453185Y-108459185D01*
X111532537Y-108362494D01*
X111591502Y-108252180D01*
X111627812Y-108132482D01*
X111640072Y-108008000D01*
X111640072Y-105408000D01*
X111627812Y-105283518D01*
X111591502Y-105163820D01*
X111532537Y-105053506D01*
X111453185Y-104956815D01*
X111356494Y-104877463D01*
X111246180Y-104818498D01*
X111126482Y-104782188D01*
X111002000Y-104769928D01*
X108402000Y-104769928D01*
X108277518Y-104782188D01*
X108157820Y-104818498D01*
X108047506Y-104877463D01*
X107950815Y-104956815D01*
X107871463Y-105053506D01*
X107812498Y-105163820D01*
X107776188Y-105283518D01*
X107763928Y-105408000D01*
X106552000Y-105408000D01*
X106552000Y-98952155D01*
X107437450Y-98952155D01*
X107833634Y-99472550D01*
X108548612Y-99862748D01*
X109325976Y-100105964D01*
X110135853Y-100192851D01*
X110947118Y-100120069D01*
X111728597Y-99890415D01*
X112450256Y-99512715D01*
X112510366Y-99472550D01*
X112906550Y-98952155D01*
X110172000Y-96217605D01*
X107437450Y-98952155D01*
X106552000Y-98952155D01*
X106552000Y-98038665D01*
X106697285Y-98316256D01*
X106737450Y-98376366D01*
X107257845Y-98772550D01*
X109992395Y-96038000D01*
X110351605Y-96038000D01*
X113086155Y-98772550D01*
X113606550Y-98376366D01*
X113996748Y-97661388D01*
X114239964Y-96884024D01*
X114326851Y-96074147D01*
X114254069Y-95262882D01*
X114024415Y-94481403D01*
X113646715Y-93759744D01*
X113606550Y-93699634D01*
X113086155Y-93303450D01*
X110351605Y-96038000D01*
X109992395Y-96038000D01*
X107257845Y-93303450D01*
X106737450Y-93699634D01*
X106552000Y-94039443D01*
X106552000Y-93123845D01*
X107437450Y-93123845D01*
X110172000Y-95858395D01*
X112906550Y-93123845D01*
X112510366Y-92603450D01*
X111795388Y-92213252D01*
X111018024Y-91970036D01*
X110208147Y-91883149D01*
X109396882Y-91955931D01*
X108615403Y-92185585D01*
X107893744Y-92563285D01*
X107833634Y-92603450D01*
X107437450Y-93123845D01*
X106552000Y-93123845D01*
X106552000Y-89440279D01*
X106590909Y-89043455D01*
X106696780Y-88692792D01*
X106868744Y-88369375D01*
X107100254Y-88085516D01*
X107382486Y-87852035D01*
X107704695Y-87677817D01*
X108054614Y-87569498D01*
X108449443Y-87528000D01*
X137816698Y-87528000D01*
X137090357Y-88254341D01*
G36*
X141351000Y-89281000D02*
G01*
X141371000Y-89281000D01*
X141371000Y-89535000D01*
X141351000Y-89535000D01*
X141351000Y-89555000D01*
X141097000Y-89555000D01*
X141097000Y-89535000D01*
X141077000Y-89535000D01*
X141077000Y-89281000D01*
X141097000Y-89281000D01*
X141097000Y-89261000D01*
X141351000Y-89261000D01*
X141351000Y-89281000D01*
G37*
X141351000Y-89281000D02*
X141371000Y-89281000D01*
X141371000Y-89535000D01*
X141351000Y-89535000D01*
X141351000Y-89555000D01*
X141097000Y-89555000D01*
X141097000Y-89535000D01*
X141077000Y-89535000D01*
X141077000Y-89281000D01*
X141097000Y-89281000D01*
X141097000Y-89261000D01*
X141351000Y-89261000D01*
X141351000Y-89281000D01*
M02*
