G04 #@! TF.GenerationSoftware,KiCad,Pcbnew,5.1.5-52549c5~84~ubuntu18.04.1*
G04 #@! TF.CreationDate,2020-04-07T14:05:37-04:00*
G04 #@! TF.ProjectId,imac_g3_slot_loading_J22_adapter_board,696d6163-5f67-4335-9f73-6c6f745f6c6f,2*
G04 #@! TF.SameCoordinates,Original*
G04 #@! TF.FileFunction,Copper,L1,Top*
G04 #@! TF.FilePolarity,Positive*
%FSLAX46Y46*%
G04 Gerber Fmt 4.6, Leading zero omitted, Abs format (unit mm)*
G04 Created by KiCad (PCBNEW 5.1.5-52549c5~84~ubuntu18.04.1) date 2020-04-07 14:05:37*
%MOMM*%
%LPD*%
G04 APERTURE LIST*
%ADD10R,1.700000X1.700000*%
%ADD11O,1.700000X1.700000*%
%ADD12C,7.000000*%
%ADD13C,2.800000*%
%ADD14O,1.600000X1.600000*%
%ADD15C,1.600000*%
%ADD16R,2.600000X2.600000*%
%ADD17C,2.600000*%
%ADD18R,1.200000X1.200000*%
%ADD19C,1.200000*%
%ADD20C,0.800000*%
%ADD21C,0.250000*%
%ADD22C,1.587600*%
%ADD23C,0.254000*%
G04 APERTURE END LIST*
D10*
X161544000Y-91948000D03*
D11*
X161544000Y-89408000D03*
X159004000Y-91948000D03*
X159004000Y-89408000D03*
X156464000Y-91948000D03*
X156464000Y-89408000D03*
X153924000Y-91948000D03*
X153924000Y-89408000D03*
X151384000Y-91948000D03*
X151384000Y-89408000D03*
X148844000Y-91948000D03*
X148844000Y-89408000D03*
X146304000Y-91948000D03*
X146304000Y-89408000D03*
X143764000Y-91948000D03*
X143764000Y-89408000D03*
X141224000Y-91948000D03*
X141224000Y-89408000D03*
X138684000Y-91948000D03*
X138684000Y-89408000D03*
X136144000Y-91948000D03*
X136144000Y-89408000D03*
X133604000Y-91948000D03*
X133604000Y-89408000D03*
X131064000Y-91948000D03*
X131064000Y-89408000D03*
D12*
X110172000Y-96038000D03*
D13*
X165582000Y-110518000D03*
X163582000Y-108118000D03*
X163582000Y-102618000D03*
D14*
X143992000Y-97818000D03*
D15*
X136372000Y-97818000D03*
X149072000Y-97818000D03*
D14*
X156692000Y-97818000D03*
D16*
X109702000Y-106708000D03*
D17*
X114702000Y-106708000D03*
X119702000Y-106708000D03*
X124702000Y-106708000D03*
X129702000Y-106708000D03*
X134702000Y-106708000D03*
X139702000Y-106708000D03*
X144702000Y-106708000D03*
X149702000Y-106708000D03*
X154702000Y-106708000D03*
D10*
X123672000Y-94008000D03*
D11*
X126212000Y-94008000D03*
X123672000Y-96548000D03*
X126212000Y-96548000D03*
X123672000Y-99088000D03*
X126212000Y-99088000D03*
D18*
X167790000Y-90140000D03*
D19*
X167790000Y-88640000D03*
D15*
X161290000Y-95640000D03*
D14*
X168910000Y-95640000D03*
D20*
X160665000Y-102015000D03*
X147540000Y-110890000D03*
D21*
X141224000Y-89408000D02*
X142399000Y-90583000D01*
X142399000Y-90583000D02*
X147479000Y-90583000D01*
X147479000Y-90583000D02*
X148844000Y-91948000D01*
X123672000Y-94008000D02*
X123672000Y-95183300D01*
X123672000Y-95183300D02*
X123305000Y-95183300D01*
X123305000Y-95183300D02*
X121995000Y-96493100D01*
X121995000Y-96493100D02*
X121995000Y-99732100D01*
X121995000Y-99732100D02*
X123021000Y-100758000D01*
X123021000Y-100758000D02*
X144531000Y-100758000D01*
X144531000Y-100758000D02*
X148946000Y-96342600D01*
X148946000Y-96342600D02*
X151271000Y-96342600D01*
X151271000Y-96342600D02*
X155289000Y-92324600D01*
X155289000Y-92324600D02*
X155289000Y-91948000D01*
X155289000Y-91948000D02*
X156464000Y-91948000D01*
X126212000Y-94008000D02*
X127387000Y-94008000D01*
X127387000Y-94008000D02*
X127387000Y-93934500D01*
X127387000Y-93934500D02*
X130738000Y-90583400D01*
X130738000Y-90583400D02*
X134130000Y-90583400D01*
X134130000Y-90583400D02*
X134874000Y-89839000D01*
X134874000Y-89839000D02*
X134874000Y-88996800D01*
X134874000Y-88996800D02*
X136088000Y-87782300D01*
X136088000Y-87782300D02*
X154028000Y-87782300D01*
X154028000Y-87782300D02*
X155289000Y-89042700D01*
X155289000Y-89042700D02*
X155289000Y-89408000D01*
X155289000Y-89408000D02*
X156464000Y-89408000D01*
X123672000Y-96548000D02*
X123672000Y-97723300D01*
X123672000Y-97723300D02*
X123305000Y-97723300D01*
X123305000Y-97723300D02*
X122445000Y-98582700D01*
X122445000Y-98582700D02*
X122445000Y-99545600D01*
X122445000Y-99545600D02*
X123163000Y-100263000D01*
X123163000Y-100263000D02*
X143789000Y-100263000D01*
X143789000Y-100263000D02*
X150401000Y-93651200D01*
X150401000Y-93651200D02*
X151560000Y-93651200D01*
X151560000Y-93651200D02*
X152749000Y-92462200D01*
X152749000Y-92462200D02*
X152749000Y-91948000D01*
X152749000Y-91948000D02*
X153924000Y-91948000D01*
X126212000Y-96548000D02*
X133294000Y-96548000D01*
X133294000Y-96548000D02*
X137509000Y-92333300D01*
X137509000Y-92333300D02*
X137509000Y-91422400D01*
X137509000Y-91422400D02*
X138348000Y-90583400D01*
X138348000Y-90583400D02*
X139210000Y-90583400D01*
X139210000Y-90583400D02*
X139954000Y-89839000D01*
X139954000Y-89839000D02*
X139954000Y-88924900D01*
X139954000Y-88924900D02*
X140646000Y-88232700D01*
X140646000Y-88232700D02*
X151941000Y-88232700D01*
X151941000Y-88232700D02*
X152749000Y-89040600D01*
X152749000Y-89040600D02*
X152749000Y-89408000D01*
X152749000Y-89408000D02*
X153924000Y-89408000D01*
X123672000Y-99088000D02*
X124847000Y-99088000D01*
X124847000Y-99088000D02*
X124847000Y-98790500D01*
X124847000Y-98790500D02*
X125725000Y-97912700D01*
X125725000Y-97912700D02*
X126699000Y-97912700D01*
X126699000Y-97912700D02*
X127752000Y-98966300D01*
X127752000Y-98966300D02*
X144449000Y-98966300D01*
X144449000Y-98966300D02*
X150292000Y-93123300D01*
X150292000Y-93123300D02*
X151384000Y-93123300D01*
X151384000Y-93123300D02*
X151384000Y-91948000D01*
X143992000Y-97818000D02*
X143992000Y-96692700D01*
X143992000Y-96692700D02*
X139859000Y-92560000D01*
X139859000Y-92560000D02*
X139859000Y-91948000D01*
X139859000Y-91948000D02*
X138684000Y-91948000D01*
X160665000Y-102015000D02*
X160665000Y-106765000D01*
X160665000Y-106765000D02*
X156540000Y-110890000D01*
X156540000Y-110890000D02*
X147540000Y-110890000D01*
X147540000Y-110890000D02*
X147540000Y-110890000D01*
D22*
X131064000Y-89408000D02*
X116842000Y-89408000D01*
X116842000Y-89408000D02*
X116052000Y-90198000D01*
X116052000Y-90198000D02*
X116052000Y-100819000D01*
X116052000Y-100819000D02*
X110163000Y-106708000D01*
X110163000Y-106708000D02*
X109702000Y-106708000D01*
X133604000Y-89408000D02*
X131064000Y-89408000D01*
D21*
X129702000Y-106708000D02*
X133802000Y-102608000D01*
X133802000Y-102608000D02*
X144282000Y-102608000D01*
X144282000Y-102608000D02*
X149072000Y-97818000D01*
X167790000Y-90140000D02*
X167790000Y-91065300D01*
X167790000Y-91065300D02*
X170051500Y-93326800D01*
X170051500Y-93326800D02*
X170051500Y-101648500D01*
X170051500Y-101648500D02*
X163582000Y-108118000D01*
X168910000Y-95640000D02*
X168910000Y-96765300D01*
X168910000Y-96765300D02*
X163582000Y-102093300D01*
X163582000Y-102093300D02*
X163582000Y-102618000D01*
D23*
G36*
X134545091Y-88250822D02*
G01*
X134307411Y-88092010D01*
X134037158Y-87980068D01*
X133750260Y-87923000D01*
X133457740Y-87923000D01*
X133175206Y-87979200D01*
X131492794Y-87979200D01*
X131210260Y-87923000D01*
X130917740Y-87923000D01*
X130635206Y-87979200D01*
X116912181Y-87979200D01*
X116842000Y-87972288D01*
X116771819Y-87979200D01*
X116771812Y-87979200D01*
X116561906Y-87999874D01*
X116292576Y-88081574D01*
X116044361Y-88214248D01*
X115826798Y-88392798D01*
X115782052Y-88447321D01*
X115091317Y-89138056D01*
X115036798Y-89182799D01*
X114858248Y-89400362D01*
X114735288Y-89630403D01*
X114725574Y-89648577D01*
X114648781Y-89901732D01*
X114643874Y-89917907D01*
X114623200Y-90127813D01*
X114623200Y-90127819D01*
X114616288Y-90198000D01*
X114623200Y-90268181D01*
X114623201Y-100227171D01*
X110080445Y-104769928D01*
X108402000Y-104769928D01*
X108277518Y-104782188D01*
X108157820Y-104818498D01*
X108047506Y-104877463D01*
X107950815Y-104956815D01*
X107871463Y-105053506D01*
X107812498Y-105163820D01*
X107776188Y-105283518D01*
X107763928Y-105408000D01*
X107763928Y-108008000D01*
X107776188Y-108132482D01*
X107812498Y-108252180D01*
X107871463Y-108362494D01*
X107950815Y-108459185D01*
X108047506Y-108538537D01*
X108157820Y-108597502D01*
X108277518Y-108633812D01*
X108402000Y-108646072D01*
X111002000Y-108646072D01*
X111126482Y-108633812D01*
X111246180Y-108597502D01*
X111356494Y-108538537D01*
X111453185Y-108459185D01*
X111532537Y-108362494D01*
X111591502Y-108252180D01*
X111627812Y-108132482D01*
X111640072Y-108008000D01*
X111640072Y-107251555D01*
X112907344Y-105984283D01*
X112841361Y-106143581D01*
X112767000Y-106517419D01*
X112767000Y-106898581D01*
X112841361Y-107272419D01*
X112987225Y-107624566D01*
X113198987Y-107941491D01*
X113468509Y-108211013D01*
X113785434Y-108422775D01*
X114137581Y-108568639D01*
X114511419Y-108643000D01*
X114892581Y-108643000D01*
X115266419Y-108568639D01*
X115618566Y-108422775D01*
X115935491Y-108211013D01*
X116205013Y-107941491D01*
X116416775Y-107624566D01*
X116562639Y-107272419D01*
X116637000Y-106898581D01*
X116637000Y-106517419D01*
X117767000Y-106517419D01*
X117767000Y-106898581D01*
X117841361Y-107272419D01*
X117987225Y-107624566D01*
X118198987Y-107941491D01*
X118468509Y-108211013D01*
X118785434Y-108422775D01*
X119137581Y-108568639D01*
X119511419Y-108643000D01*
X119892581Y-108643000D01*
X120266419Y-108568639D01*
X120618566Y-108422775D01*
X120935491Y-108211013D01*
X121205013Y-107941491D01*
X121416775Y-107624566D01*
X121562639Y-107272419D01*
X121637000Y-106898581D01*
X121637000Y-106517419D01*
X122767000Y-106517419D01*
X122767000Y-106898581D01*
X122841361Y-107272419D01*
X122987225Y-107624566D01*
X123198987Y-107941491D01*
X123468509Y-108211013D01*
X123785434Y-108422775D01*
X124137581Y-108568639D01*
X124511419Y-108643000D01*
X124892581Y-108643000D01*
X125266419Y-108568639D01*
X125618566Y-108422775D01*
X125935491Y-108211013D01*
X126205013Y-107941491D01*
X126416775Y-107624566D01*
X126562639Y-107272419D01*
X126637000Y-106898581D01*
X126637000Y-106517419D01*
X126562639Y-106143581D01*
X126416775Y-105791434D01*
X126205013Y-105474509D01*
X125935491Y-105204987D01*
X125618566Y-104993225D01*
X125266419Y-104847361D01*
X124892581Y-104773000D01*
X124511419Y-104773000D01*
X124137581Y-104847361D01*
X123785434Y-104993225D01*
X123468509Y-105204987D01*
X123198987Y-105474509D01*
X122987225Y-105791434D01*
X122841361Y-106143581D01*
X122767000Y-106517419D01*
X121637000Y-106517419D01*
X121562639Y-106143581D01*
X121416775Y-105791434D01*
X121205013Y-105474509D01*
X120935491Y-105204987D01*
X120618566Y-104993225D01*
X120266419Y-104847361D01*
X119892581Y-104773000D01*
X119511419Y-104773000D01*
X119137581Y-104847361D01*
X118785434Y-104993225D01*
X118468509Y-105204987D01*
X118198987Y-105474509D01*
X117987225Y-105791434D01*
X117841361Y-106143581D01*
X117767000Y-106517419D01*
X116637000Y-106517419D01*
X116562639Y-106143581D01*
X116416775Y-105791434D01*
X116205013Y-105474509D01*
X115935491Y-105204987D01*
X115618566Y-104993225D01*
X115266419Y-104847361D01*
X114892581Y-104773000D01*
X114511419Y-104773000D01*
X114137581Y-104847361D01*
X113978283Y-104913344D01*
X117012684Y-101878944D01*
X117067202Y-101834202D01*
X117245752Y-101616639D01*
X117378426Y-101368424D01*
X117460126Y-101099094D01*
X117480800Y-100889188D01*
X117480800Y-100889181D01*
X117487712Y-100819000D01*
X117480800Y-100748819D01*
X117480800Y-90836800D01*
X129409821Y-90836800D01*
X127275396Y-92971289D01*
X127158632Y-92854525D01*
X126915411Y-92692010D01*
X126645158Y-92580068D01*
X126358260Y-92523000D01*
X126065740Y-92523000D01*
X125778842Y-92580068D01*
X125508589Y-92692010D01*
X125265368Y-92854525D01*
X125133513Y-92986380D01*
X125111502Y-92913820D01*
X125052537Y-92803506D01*
X124973185Y-92706815D01*
X124876494Y-92627463D01*
X124766180Y-92568498D01*
X124646482Y-92532188D01*
X124522000Y-92519928D01*
X122822000Y-92519928D01*
X122697518Y-92532188D01*
X122577820Y-92568498D01*
X122467506Y-92627463D01*
X122370815Y-92706815D01*
X122291463Y-92803506D01*
X122232498Y-92913820D01*
X122196188Y-93033518D01*
X122183928Y-93158000D01*
X122183928Y-94858000D01*
X122196188Y-94982482D01*
X122232498Y-95102180D01*
X122259927Y-95153494D01*
X121484025Y-95929278D01*
X121454999Y-95953099D01*
X121404437Y-96014710D01*
X121360059Y-96068776D01*
X121360046Y-96068801D01*
X121360026Y-96068825D01*
X121327153Y-96130326D01*
X121289477Y-96200800D01*
X121289469Y-96200825D01*
X121289454Y-96200854D01*
X121265918Y-96278444D01*
X121246009Y-96344057D01*
X121246006Y-96344084D01*
X121245997Y-96344115D01*
X121237670Y-96428658D01*
X121231324Y-96493042D01*
X121235000Y-96530395D01*
X121235001Y-99694784D01*
X121231324Y-99732137D01*
X121238835Y-99808355D01*
X121245998Y-99881086D01*
X121246003Y-99881103D01*
X121246005Y-99881122D01*
X121267546Y-99952122D01*
X121289455Y-100024347D01*
X121289464Y-100024364D01*
X121289469Y-100024380D01*
X121322196Y-100085601D01*
X121360027Y-100156376D01*
X121360037Y-100156388D01*
X121360047Y-100156407D01*
X121413006Y-100220931D01*
X121455000Y-100272101D01*
X121484010Y-100295909D01*
X122457215Y-101269020D01*
X122480999Y-101298001D01*
X122510008Y-101321808D01*
X122510024Y-101321824D01*
X122542834Y-101348747D01*
X122596724Y-101392974D01*
X122596740Y-101392983D01*
X122596754Y-101392994D01*
X122661073Y-101427370D01*
X122728753Y-101463546D01*
X122728771Y-101463551D01*
X122728787Y-101463560D01*
X122790149Y-101482170D01*
X122872014Y-101507003D01*
X122872038Y-101507005D01*
X122872050Y-101507009D01*
X122924091Y-101512132D01*
X122983667Y-101518000D01*
X122983696Y-101518000D01*
X123021036Y-101521676D01*
X123058341Y-101518000D01*
X144297199Y-101518000D01*
X143967199Y-101848000D01*
X133839333Y-101848000D01*
X133802000Y-101844323D01*
X133764667Y-101848000D01*
X133653014Y-101858997D01*
X133509753Y-101902454D01*
X133377724Y-101973026D01*
X133261999Y-102067999D01*
X133238201Y-102096997D01*
X130422986Y-104912213D01*
X130266419Y-104847361D01*
X129892581Y-104773000D01*
X129511419Y-104773000D01*
X129137581Y-104847361D01*
X128785434Y-104993225D01*
X128468509Y-105204987D01*
X128198987Y-105474509D01*
X127987225Y-105791434D01*
X127841361Y-106143581D01*
X127767000Y-106517419D01*
X127767000Y-106898581D01*
X127841361Y-107272419D01*
X127987225Y-107624566D01*
X128198987Y-107941491D01*
X128468509Y-108211013D01*
X128785434Y-108422775D01*
X129137581Y-108568639D01*
X129511419Y-108643000D01*
X129892581Y-108643000D01*
X130266419Y-108568639D01*
X130618566Y-108422775D01*
X130935491Y-108211013D01*
X131089280Y-108057224D01*
X133532381Y-108057224D01*
X133664317Y-108352312D01*
X134005045Y-108523159D01*
X134372557Y-108624250D01*
X134752729Y-108651701D01*
X135130951Y-108604457D01*
X135492690Y-108484333D01*
X135739683Y-108352312D01*
X135871619Y-108057224D01*
X134702000Y-106887605D01*
X133532381Y-108057224D01*
X131089280Y-108057224D01*
X131205013Y-107941491D01*
X131416775Y-107624566D01*
X131562639Y-107272419D01*
X131637000Y-106898581D01*
X131637000Y-106758729D01*
X132758299Y-106758729D01*
X132805543Y-107136951D01*
X132925667Y-107498690D01*
X133057688Y-107745683D01*
X133352776Y-107877619D01*
X134522395Y-106708000D01*
X134881605Y-106708000D01*
X136051224Y-107877619D01*
X136346312Y-107745683D01*
X136517159Y-107404955D01*
X136618250Y-107037443D01*
X136645701Y-106657271D01*
X136628232Y-106517419D01*
X137767000Y-106517419D01*
X137767000Y-106898581D01*
X137841361Y-107272419D01*
X137987225Y-107624566D01*
X138198987Y-107941491D01*
X138468509Y-108211013D01*
X138785434Y-108422775D01*
X139137581Y-108568639D01*
X139511419Y-108643000D01*
X139892581Y-108643000D01*
X140266419Y-108568639D01*
X140618566Y-108422775D01*
X140935491Y-108211013D01*
X141205013Y-107941491D01*
X141416775Y-107624566D01*
X141562639Y-107272419D01*
X141637000Y-106898581D01*
X141637000Y-106517419D01*
X142767000Y-106517419D01*
X142767000Y-106898581D01*
X142841361Y-107272419D01*
X142987225Y-107624566D01*
X143198987Y-107941491D01*
X143468509Y-108211013D01*
X143785434Y-108422775D01*
X144137581Y-108568639D01*
X144511419Y-108643000D01*
X144892581Y-108643000D01*
X145266419Y-108568639D01*
X145618566Y-108422775D01*
X145935491Y-108211013D01*
X146205013Y-107941491D01*
X146416775Y-107624566D01*
X146562639Y-107272419D01*
X146637000Y-106898581D01*
X146637000Y-106517419D01*
X147767000Y-106517419D01*
X147767000Y-106898581D01*
X147841361Y-107272419D01*
X147987225Y-107624566D01*
X148198987Y-107941491D01*
X148468509Y-108211013D01*
X148785434Y-108422775D01*
X149137581Y-108568639D01*
X149511419Y-108643000D01*
X149892581Y-108643000D01*
X150266419Y-108568639D01*
X150618566Y-108422775D01*
X150935491Y-108211013D01*
X151205013Y-107941491D01*
X151416775Y-107624566D01*
X151562639Y-107272419D01*
X151637000Y-106898581D01*
X151637000Y-106517419D01*
X152767000Y-106517419D01*
X152767000Y-106898581D01*
X152841361Y-107272419D01*
X152987225Y-107624566D01*
X153198987Y-107941491D01*
X153468509Y-108211013D01*
X153785434Y-108422775D01*
X154137581Y-108568639D01*
X154511419Y-108643000D01*
X154892581Y-108643000D01*
X155266419Y-108568639D01*
X155618566Y-108422775D01*
X155935491Y-108211013D01*
X156205013Y-107941491D01*
X156416775Y-107624566D01*
X156562639Y-107272419D01*
X156637000Y-106898581D01*
X156637000Y-106517419D01*
X156562639Y-106143581D01*
X156416775Y-105791434D01*
X156205013Y-105474509D01*
X155935491Y-105204987D01*
X155618566Y-104993225D01*
X155266419Y-104847361D01*
X154892581Y-104773000D01*
X154511419Y-104773000D01*
X154137581Y-104847361D01*
X153785434Y-104993225D01*
X153468509Y-105204987D01*
X153198987Y-105474509D01*
X152987225Y-105791434D01*
X152841361Y-106143581D01*
X152767000Y-106517419D01*
X151637000Y-106517419D01*
X151562639Y-106143581D01*
X151416775Y-105791434D01*
X151205013Y-105474509D01*
X150935491Y-105204987D01*
X150618566Y-104993225D01*
X150266419Y-104847361D01*
X149892581Y-104773000D01*
X149511419Y-104773000D01*
X149137581Y-104847361D01*
X148785434Y-104993225D01*
X148468509Y-105204987D01*
X148198987Y-105474509D01*
X147987225Y-105791434D01*
X147841361Y-106143581D01*
X147767000Y-106517419D01*
X146637000Y-106517419D01*
X146562639Y-106143581D01*
X146416775Y-105791434D01*
X146205013Y-105474509D01*
X145935491Y-105204987D01*
X145618566Y-104993225D01*
X145266419Y-104847361D01*
X144892581Y-104773000D01*
X144511419Y-104773000D01*
X144137581Y-104847361D01*
X143785434Y-104993225D01*
X143468509Y-105204987D01*
X143198987Y-105474509D01*
X142987225Y-105791434D01*
X142841361Y-106143581D01*
X142767000Y-106517419D01*
X141637000Y-106517419D01*
X141562639Y-106143581D01*
X141416775Y-105791434D01*
X141205013Y-105474509D01*
X140935491Y-105204987D01*
X140618566Y-104993225D01*
X140266419Y-104847361D01*
X139892581Y-104773000D01*
X139511419Y-104773000D01*
X139137581Y-104847361D01*
X138785434Y-104993225D01*
X138468509Y-105204987D01*
X138198987Y-105474509D01*
X137987225Y-105791434D01*
X137841361Y-106143581D01*
X137767000Y-106517419D01*
X136628232Y-106517419D01*
X136598457Y-106279049D01*
X136478333Y-105917310D01*
X136346312Y-105670317D01*
X136051224Y-105538381D01*
X134881605Y-106708000D01*
X134522395Y-106708000D01*
X133352776Y-105538381D01*
X133057688Y-105670317D01*
X132886841Y-106011045D01*
X132785750Y-106378557D01*
X132758299Y-106758729D01*
X131637000Y-106758729D01*
X131637000Y-106517419D01*
X131562639Y-106143581D01*
X131497787Y-105987014D01*
X132126025Y-105358776D01*
X133532381Y-105358776D01*
X134702000Y-106528395D01*
X135871619Y-105358776D01*
X135739683Y-105063688D01*
X135398955Y-104892841D01*
X135031443Y-104791750D01*
X134651271Y-104764299D01*
X134273049Y-104811543D01*
X133911310Y-104931667D01*
X133664317Y-105063688D01*
X133532381Y-105358776D01*
X132126025Y-105358776D01*
X134116802Y-103368000D01*
X144244678Y-103368000D01*
X144282000Y-103371676D01*
X144319322Y-103368000D01*
X144319333Y-103368000D01*
X144430986Y-103357003D01*
X144574247Y-103313546D01*
X144706276Y-103242974D01*
X144822001Y-103148001D01*
X144845804Y-103118997D01*
X148748114Y-99216688D01*
X148930665Y-99253000D01*
X149213335Y-99253000D01*
X149490574Y-99197853D01*
X149751727Y-99089680D01*
X149986759Y-98932637D01*
X150186637Y-98732759D01*
X150343680Y-98497727D01*
X150451853Y-98236574D01*
X150507000Y-97959335D01*
X150507000Y-97676665D01*
X155257000Y-97676665D01*
X155257000Y-97959335D01*
X155312147Y-98236574D01*
X155420320Y-98497727D01*
X155577363Y-98732759D01*
X155777241Y-98932637D01*
X156012273Y-99089680D01*
X156273426Y-99197853D01*
X156550665Y-99253000D01*
X156833335Y-99253000D01*
X157110574Y-99197853D01*
X157371727Y-99089680D01*
X157606759Y-98932637D01*
X157806637Y-98732759D01*
X157963680Y-98497727D01*
X158071853Y-98236574D01*
X158127000Y-97959335D01*
X158127000Y-97676665D01*
X158071853Y-97399426D01*
X157963680Y-97138273D01*
X157806637Y-96903241D01*
X157606759Y-96703363D01*
X157371727Y-96546320D01*
X157110574Y-96438147D01*
X156833335Y-96383000D01*
X156550665Y-96383000D01*
X156273426Y-96438147D01*
X156012273Y-96546320D01*
X155777241Y-96703363D01*
X155577363Y-96903241D01*
X155420320Y-97138273D01*
X155312147Y-97399426D01*
X155257000Y-97676665D01*
X150507000Y-97676665D01*
X150451853Y-97399426D01*
X150343680Y-97138273D01*
X150319844Y-97102600D01*
X151233678Y-97102600D01*
X151271000Y-97106276D01*
X151308322Y-97102600D01*
X151308333Y-97102600D01*
X151419986Y-97091603D01*
X151563247Y-97048146D01*
X151695276Y-96977574D01*
X151811001Y-96882601D01*
X151834804Y-96853597D01*
X153189736Y-95498665D01*
X159855000Y-95498665D01*
X159855000Y-95781335D01*
X159910147Y-96058574D01*
X160018320Y-96319727D01*
X160175363Y-96554759D01*
X160375241Y-96754637D01*
X160610273Y-96911680D01*
X160871426Y-97019853D01*
X161148665Y-97075000D01*
X161431335Y-97075000D01*
X161708574Y-97019853D01*
X161969727Y-96911680D01*
X162204759Y-96754637D01*
X162404637Y-96554759D01*
X162561680Y-96319727D01*
X162669853Y-96058574D01*
X162725000Y-95781335D01*
X162725000Y-95498665D01*
X162669853Y-95221426D01*
X162561680Y-94960273D01*
X162404637Y-94725241D01*
X162204759Y-94525363D01*
X161969727Y-94368320D01*
X161708574Y-94260147D01*
X161431335Y-94205000D01*
X161148665Y-94205000D01*
X160871426Y-94260147D01*
X160610273Y-94368320D01*
X160375241Y-94525363D01*
X160175363Y-94725241D01*
X160018320Y-94960273D01*
X159910147Y-95221426D01*
X159855000Y-95498665D01*
X153189736Y-95498665D01*
X155559066Y-93129336D01*
X155760589Y-93263990D01*
X156030842Y-93375932D01*
X156317740Y-93433000D01*
X156610260Y-93433000D01*
X156897158Y-93375932D01*
X157167411Y-93263990D01*
X157410632Y-93101475D01*
X157617475Y-92894632D01*
X157734000Y-92720240D01*
X157850525Y-92894632D01*
X158057368Y-93101475D01*
X158300589Y-93263990D01*
X158570842Y-93375932D01*
X158857740Y-93433000D01*
X159150260Y-93433000D01*
X159437158Y-93375932D01*
X159707411Y-93263990D01*
X159950632Y-93101475D01*
X160082487Y-92969620D01*
X160104498Y-93042180D01*
X160163463Y-93152494D01*
X160242815Y-93249185D01*
X160339506Y-93328537D01*
X160449820Y-93387502D01*
X160569518Y-93423812D01*
X160694000Y-93436072D01*
X161258250Y-93433000D01*
X161417000Y-93274250D01*
X161417000Y-92075000D01*
X161671000Y-92075000D01*
X161671000Y-93274250D01*
X161829750Y-93433000D01*
X162394000Y-93436072D01*
X162518482Y-93423812D01*
X162638180Y-93387502D01*
X162748494Y-93328537D01*
X162845185Y-93249185D01*
X162924537Y-93152494D01*
X162983502Y-93042180D01*
X163019812Y-92922482D01*
X163032072Y-92798000D01*
X163029000Y-92233750D01*
X162870250Y-92075000D01*
X161671000Y-92075000D01*
X161417000Y-92075000D01*
X161397000Y-92075000D01*
X161397000Y-91821000D01*
X161417000Y-91821000D01*
X161417000Y-89535000D01*
X161671000Y-89535000D01*
X161671000Y-91821000D01*
X162870250Y-91821000D01*
X163029000Y-91662250D01*
X163032072Y-91098000D01*
X163019812Y-90973518D01*
X162983502Y-90853820D01*
X162924537Y-90743506D01*
X162845185Y-90646815D01*
X162748494Y-90567463D01*
X162638180Y-90508498D01*
X162562374Y-90485502D01*
X162739178Y-90289355D01*
X162888157Y-90039252D01*
X162985481Y-89764891D01*
X162864814Y-89535000D01*
X161671000Y-89535000D01*
X161417000Y-89535000D01*
X159131000Y-89535000D01*
X159131000Y-89555000D01*
X158877000Y-89555000D01*
X158877000Y-89535000D01*
X158857000Y-89535000D01*
X158857000Y-89281000D01*
X158877000Y-89281000D01*
X158877000Y-88087845D01*
X159131000Y-88087845D01*
X159131000Y-89281000D01*
X161417000Y-89281000D01*
X161417000Y-88087845D01*
X161671000Y-88087845D01*
X161671000Y-89281000D01*
X162864814Y-89281000D01*
X162985481Y-89051109D01*
X162888157Y-88776748D01*
X162739178Y-88526645D01*
X162544269Y-88310412D01*
X162310920Y-88136359D01*
X162048099Y-88011175D01*
X161900890Y-87966524D01*
X161671000Y-88087845D01*
X161417000Y-88087845D01*
X161187110Y-87966524D01*
X161039901Y-88011175D01*
X160777080Y-88136359D01*
X160543731Y-88310412D01*
X160348822Y-88526645D01*
X160274000Y-88652255D01*
X160199178Y-88526645D01*
X160004269Y-88310412D01*
X159770920Y-88136359D01*
X159508099Y-88011175D01*
X159360890Y-87966524D01*
X159131000Y-88087845D01*
X158877000Y-88087845D01*
X158647110Y-87966524D01*
X158499901Y-88011175D01*
X158237080Y-88136359D01*
X158003731Y-88310412D01*
X157808822Y-88526645D01*
X157739195Y-88643534D01*
X157617475Y-88461368D01*
X157410632Y-88254525D01*
X157167411Y-88092010D01*
X156897158Y-87980068D01*
X156610260Y-87923000D01*
X156317740Y-87923000D01*
X156030842Y-87980068D01*
X155760589Y-88092010D01*
X155552213Y-88231242D01*
X154848636Y-87528000D01*
X167247394Y-87528000D01*
X167205008Y-87545557D01*
X167002733Y-87680713D01*
X166830713Y-87852733D01*
X166695557Y-88055008D01*
X166602460Y-88279764D01*
X166555000Y-88518363D01*
X166555000Y-88761637D01*
X166602460Y-89000236D01*
X166672581Y-89169522D01*
X166659463Y-89185506D01*
X166600498Y-89295820D01*
X166564188Y-89415518D01*
X166551928Y-89540000D01*
X166551928Y-90740000D01*
X166564188Y-90864482D01*
X166600498Y-90984180D01*
X166659463Y-91094494D01*
X166738815Y-91191185D01*
X166835506Y-91270537D01*
X166945820Y-91329502D01*
X167065518Y-91365812D01*
X167090170Y-91368240D01*
X167155026Y-91489576D01*
X167222166Y-91571385D01*
X167250000Y-91605301D01*
X167278998Y-91629099D01*
X169291500Y-93641602D01*
X169291500Y-94252772D01*
X169051335Y-94205000D01*
X168768665Y-94205000D01*
X168491426Y-94260147D01*
X168230273Y-94368320D01*
X167995241Y-94525363D01*
X167795363Y-94725241D01*
X167638320Y-94960273D01*
X167530147Y-95221426D01*
X167475000Y-95498665D01*
X167475000Y-95781335D01*
X167530147Y-96058574D01*
X167638320Y-96319727D01*
X167795363Y-96554759D01*
X167920551Y-96679947D01*
X163978498Y-100622001D01*
X163782430Y-100583000D01*
X163381570Y-100583000D01*
X162988413Y-100661204D01*
X162618066Y-100814607D01*
X162284763Y-101037313D01*
X162001313Y-101320763D01*
X161778607Y-101654066D01*
X161690698Y-101866297D01*
X161660226Y-101713102D01*
X161582205Y-101524744D01*
X161468937Y-101355226D01*
X161324774Y-101211063D01*
X161155256Y-101097795D01*
X160966898Y-101019774D01*
X160766939Y-100980000D01*
X160563061Y-100980000D01*
X160363102Y-101019774D01*
X160174744Y-101097795D01*
X160005226Y-101211063D01*
X159861063Y-101355226D01*
X159747795Y-101524744D01*
X159669774Y-101713102D01*
X159630000Y-101913061D01*
X159630000Y-102116939D01*
X159669774Y-102316898D01*
X159747795Y-102505256D01*
X159861063Y-102674774D01*
X159905000Y-102718711D01*
X159905001Y-106450197D01*
X156225199Y-110130000D01*
X148243711Y-110130000D01*
X148199774Y-110086063D01*
X148030256Y-109972795D01*
X147841898Y-109894774D01*
X147641939Y-109855000D01*
X147438061Y-109855000D01*
X147238102Y-109894774D01*
X147049744Y-109972795D01*
X146880226Y-110086063D01*
X146736063Y-110230226D01*
X146622795Y-110399744D01*
X146544774Y-110588102D01*
X146505000Y-110788061D01*
X146505000Y-110991939D01*
X146544774Y-111191898D01*
X146622795Y-111380256D01*
X146736063Y-111549774D01*
X146880226Y-111693937D01*
X147049744Y-111807205D01*
X147238102Y-111885226D01*
X147438061Y-111925000D01*
X147641939Y-111925000D01*
X147841898Y-111885226D01*
X148030256Y-111807205D01*
X148199774Y-111693937D01*
X148243711Y-111650000D01*
X156502678Y-111650000D01*
X156540000Y-111653676D01*
X156577322Y-111650000D01*
X156577333Y-111650000D01*
X156688986Y-111639003D01*
X156832247Y-111595546D01*
X156964276Y-111524974D01*
X157080001Y-111430001D01*
X157103804Y-111400997D01*
X161176003Y-107328799D01*
X161205001Y-107305001D01*
X161232249Y-107271799D01*
X161299974Y-107189277D01*
X161370546Y-107057247D01*
X161376553Y-107037443D01*
X161414003Y-106913986D01*
X161425000Y-106802333D01*
X161425000Y-106802323D01*
X161428676Y-106765000D01*
X161425000Y-106727677D01*
X161425000Y-102718711D01*
X161468937Y-102674774D01*
X161547000Y-102557944D01*
X161547000Y-102818430D01*
X161625204Y-103211587D01*
X161778607Y-103581934D01*
X162001313Y-103915237D01*
X162284763Y-104198687D01*
X162618066Y-104421393D01*
X162988413Y-104574796D01*
X163381570Y-104653000D01*
X163782430Y-104653000D01*
X164175587Y-104574796D01*
X164545934Y-104421393D01*
X164879237Y-104198687D01*
X165162687Y-103915237D01*
X165385393Y-103581934D01*
X165538796Y-103211587D01*
X165617000Y-102818430D01*
X165617000Y-102417570D01*
X165538796Y-102024413D01*
X165385393Y-101654066D01*
X165269493Y-101480609D01*
X169291500Y-97458601D01*
X169291501Y-101333697D01*
X164379522Y-106245677D01*
X164175587Y-106161204D01*
X163782430Y-106083000D01*
X163381570Y-106083000D01*
X162988413Y-106161204D01*
X162618066Y-106314607D01*
X162284763Y-106537313D01*
X162001313Y-106820763D01*
X161778607Y-107154066D01*
X161625204Y-107524413D01*
X161547000Y-107917570D01*
X161547000Y-108318430D01*
X161625204Y-108711587D01*
X161778607Y-109081934D01*
X162001313Y-109415237D01*
X162284763Y-109698687D01*
X162618066Y-109921393D01*
X162988413Y-110074796D01*
X163381570Y-110153000D01*
X163571202Y-110153000D01*
X163567845Y-110165053D01*
X163537690Y-110564777D01*
X163586096Y-110962704D01*
X163711205Y-111343540D01*
X163856230Y-111614865D01*
X164161553Y-111758842D01*
X165402395Y-110518000D01*
X165761605Y-110518000D01*
X167002447Y-111758842D01*
X167307770Y-111614865D01*
X167488597Y-111257108D01*
X167596155Y-110870947D01*
X167626310Y-110471223D01*
X167577904Y-110073296D01*
X167452795Y-109692460D01*
X167307770Y-109421135D01*
X167002447Y-109277158D01*
X165761605Y-110518000D01*
X165402395Y-110518000D01*
X165388253Y-110503858D01*
X165567858Y-110324253D01*
X165582000Y-110338395D01*
X166822842Y-109097553D01*
X166678865Y-108792230D01*
X166321108Y-108611403D01*
X165934947Y-108503845D01*
X165585364Y-108477473D01*
X165617000Y-108318430D01*
X165617000Y-107917570D01*
X165538796Y-107524413D01*
X165454323Y-107320478D01*
X170232001Y-102542801D01*
X170232001Y-114295711D01*
X170193091Y-114692545D01*
X170087220Y-115043206D01*
X169915257Y-115366623D01*
X169683748Y-115650482D01*
X169401514Y-115883965D01*
X169079304Y-116058184D01*
X168729385Y-116166502D01*
X168334557Y-116208000D01*
X108464279Y-116208000D01*
X108067455Y-116169091D01*
X107716794Y-116063220D01*
X107393377Y-115891257D01*
X107109518Y-115659748D01*
X106876035Y-115377514D01*
X106701816Y-115055304D01*
X106593498Y-114705385D01*
X106552000Y-114310557D01*
X106552000Y-111938447D01*
X164341158Y-111938447D01*
X164485135Y-112243770D01*
X164842892Y-112424597D01*
X165229053Y-112532155D01*
X165628777Y-112562310D01*
X166026704Y-112513904D01*
X166407540Y-112388795D01*
X166678865Y-112243770D01*
X166822842Y-111938447D01*
X165582000Y-110697605D01*
X164341158Y-111938447D01*
X106552000Y-111938447D01*
X106552000Y-98952155D01*
X107437450Y-98952155D01*
X107833634Y-99472550D01*
X108548612Y-99862748D01*
X109325976Y-100105964D01*
X110135853Y-100192851D01*
X110947118Y-100120069D01*
X111728597Y-99890415D01*
X112450256Y-99512715D01*
X112510366Y-99472550D01*
X112906550Y-98952155D01*
X110172000Y-96217605D01*
X107437450Y-98952155D01*
X106552000Y-98952155D01*
X106552000Y-98038665D01*
X106697285Y-98316256D01*
X106737450Y-98376366D01*
X107257845Y-98772550D01*
X109992395Y-96038000D01*
X110351605Y-96038000D01*
X113086155Y-98772550D01*
X113606550Y-98376366D01*
X113996748Y-97661388D01*
X114239964Y-96884024D01*
X114326851Y-96074147D01*
X114254069Y-95262882D01*
X114024415Y-94481403D01*
X113646715Y-93759744D01*
X113606550Y-93699634D01*
X113086155Y-93303450D01*
X110351605Y-96038000D01*
X109992395Y-96038000D01*
X107257845Y-93303450D01*
X106737450Y-93699634D01*
X106552000Y-94039443D01*
X106552000Y-93123845D01*
X107437450Y-93123845D01*
X110172000Y-95858395D01*
X112906550Y-93123845D01*
X112510366Y-92603450D01*
X111795388Y-92213252D01*
X111018024Y-91970036D01*
X110208147Y-91883149D01*
X109396882Y-91955931D01*
X108615403Y-92185585D01*
X107893744Y-92563285D01*
X107833634Y-92603450D01*
X107437450Y-93123845D01*
X106552000Y-93123845D01*
X106552000Y-89440279D01*
X106590909Y-89043455D01*
X106696780Y-88692792D01*
X106868744Y-88369375D01*
X107100254Y-88085516D01*
X107382486Y-87852035D01*
X107704695Y-87677817D01*
X108054614Y-87569498D01*
X108449443Y-87528000D01*
X135267615Y-87528000D01*
X134545091Y-88250822D01*
G37*
X134545091Y-88250822D02*
X134307411Y-88092010D01*
X134037158Y-87980068D01*
X133750260Y-87923000D01*
X133457740Y-87923000D01*
X133175206Y-87979200D01*
X131492794Y-87979200D01*
X131210260Y-87923000D01*
X130917740Y-87923000D01*
X130635206Y-87979200D01*
X116912181Y-87979200D01*
X116842000Y-87972288D01*
X116771819Y-87979200D01*
X116771812Y-87979200D01*
X116561906Y-87999874D01*
X116292576Y-88081574D01*
X116044361Y-88214248D01*
X115826798Y-88392798D01*
X115782052Y-88447321D01*
X115091317Y-89138056D01*
X115036798Y-89182799D01*
X114858248Y-89400362D01*
X114735288Y-89630403D01*
X114725574Y-89648577D01*
X114648781Y-89901732D01*
X114643874Y-89917907D01*
X114623200Y-90127813D01*
X114623200Y-90127819D01*
X114616288Y-90198000D01*
X114623200Y-90268181D01*
X114623201Y-100227171D01*
X110080445Y-104769928D01*
X108402000Y-104769928D01*
X108277518Y-104782188D01*
X108157820Y-104818498D01*
X108047506Y-104877463D01*
X107950815Y-104956815D01*
X107871463Y-105053506D01*
X107812498Y-105163820D01*
X107776188Y-105283518D01*
X107763928Y-105408000D01*
X107763928Y-108008000D01*
X107776188Y-108132482D01*
X107812498Y-108252180D01*
X107871463Y-108362494D01*
X107950815Y-108459185D01*
X108047506Y-108538537D01*
X108157820Y-108597502D01*
X108277518Y-108633812D01*
X108402000Y-108646072D01*
X111002000Y-108646072D01*
X111126482Y-108633812D01*
X111246180Y-108597502D01*
X111356494Y-108538537D01*
X111453185Y-108459185D01*
X111532537Y-108362494D01*
X111591502Y-108252180D01*
X111627812Y-108132482D01*
X111640072Y-108008000D01*
X111640072Y-107251555D01*
X112907344Y-105984283D01*
X112841361Y-106143581D01*
X112767000Y-106517419D01*
X112767000Y-106898581D01*
X112841361Y-107272419D01*
X112987225Y-107624566D01*
X113198987Y-107941491D01*
X113468509Y-108211013D01*
X113785434Y-108422775D01*
X114137581Y-108568639D01*
X114511419Y-108643000D01*
X114892581Y-108643000D01*
X115266419Y-108568639D01*
X115618566Y-108422775D01*
X115935491Y-108211013D01*
X116205013Y-107941491D01*
X116416775Y-107624566D01*
X116562639Y-107272419D01*
X116637000Y-106898581D01*
X116637000Y-106517419D01*
X117767000Y-106517419D01*
X117767000Y-106898581D01*
X117841361Y-107272419D01*
X117987225Y-107624566D01*
X118198987Y-107941491D01*
X118468509Y-108211013D01*
X118785434Y-108422775D01*
X119137581Y-108568639D01*
X119511419Y-108643000D01*
X119892581Y-108643000D01*
X120266419Y-108568639D01*
X120618566Y-108422775D01*
X120935491Y-108211013D01*
X121205013Y-107941491D01*
X121416775Y-107624566D01*
X121562639Y-107272419D01*
X121637000Y-106898581D01*
X121637000Y-106517419D01*
X122767000Y-106517419D01*
X122767000Y-106898581D01*
X122841361Y-107272419D01*
X122987225Y-107624566D01*
X123198987Y-107941491D01*
X123468509Y-108211013D01*
X123785434Y-108422775D01*
X124137581Y-108568639D01*
X124511419Y-108643000D01*
X124892581Y-108643000D01*
X125266419Y-108568639D01*
X125618566Y-108422775D01*
X125935491Y-108211013D01*
X126205013Y-107941491D01*
X126416775Y-107624566D01*
X126562639Y-107272419D01*
X126637000Y-106898581D01*
X126637000Y-106517419D01*
X126562639Y-106143581D01*
X126416775Y-105791434D01*
X126205013Y-105474509D01*
X125935491Y-105204987D01*
X125618566Y-104993225D01*
X125266419Y-104847361D01*
X124892581Y-104773000D01*
X124511419Y-104773000D01*
X124137581Y-104847361D01*
X123785434Y-104993225D01*
X123468509Y-105204987D01*
X123198987Y-105474509D01*
X122987225Y-105791434D01*
X122841361Y-106143581D01*
X122767000Y-106517419D01*
X121637000Y-106517419D01*
X121562639Y-106143581D01*
X121416775Y-105791434D01*
X121205013Y-105474509D01*
X120935491Y-105204987D01*
X120618566Y-104993225D01*
X120266419Y-104847361D01*
X119892581Y-104773000D01*
X119511419Y-104773000D01*
X119137581Y-104847361D01*
X118785434Y-104993225D01*
X118468509Y-105204987D01*
X118198987Y-105474509D01*
X117987225Y-105791434D01*
X117841361Y-106143581D01*
X117767000Y-106517419D01*
X116637000Y-106517419D01*
X116562639Y-106143581D01*
X116416775Y-105791434D01*
X116205013Y-105474509D01*
X115935491Y-105204987D01*
X115618566Y-104993225D01*
X115266419Y-104847361D01*
X114892581Y-104773000D01*
X114511419Y-104773000D01*
X114137581Y-104847361D01*
X113978283Y-104913344D01*
X117012684Y-101878944D01*
X117067202Y-101834202D01*
X117245752Y-101616639D01*
X117378426Y-101368424D01*
X117460126Y-101099094D01*
X117480800Y-100889188D01*
X117480800Y-100889181D01*
X117487712Y-100819000D01*
X117480800Y-100748819D01*
X117480800Y-90836800D01*
X129409821Y-90836800D01*
X127275396Y-92971289D01*
X127158632Y-92854525D01*
X126915411Y-92692010D01*
X126645158Y-92580068D01*
X126358260Y-92523000D01*
X126065740Y-92523000D01*
X125778842Y-92580068D01*
X125508589Y-92692010D01*
X125265368Y-92854525D01*
X125133513Y-92986380D01*
X125111502Y-92913820D01*
X125052537Y-92803506D01*
X124973185Y-92706815D01*
X124876494Y-92627463D01*
X124766180Y-92568498D01*
X124646482Y-92532188D01*
X124522000Y-92519928D01*
X122822000Y-92519928D01*
X122697518Y-92532188D01*
X122577820Y-92568498D01*
X122467506Y-92627463D01*
X122370815Y-92706815D01*
X122291463Y-92803506D01*
X122232498Y-92913820D01*
X122196188Y-93033518D01*
X122183928Y-93158000D01*
X122183928Y-94858000D01*
X122196188Y-94982482D01*
X122232498Y-95102180D01*
X122259927Y-95153494D01*
X121484025Y-95929278D01*
X121454999Y-95953099D01*
X121404437Y-96014710D01*
X121360059Y-96068776D01*
X121360046Y-96068801D01*
X121360026Y-96068825D01*
X121327153Y-96130326D01*
X121289477Y-96200800D01*
X121289469Y-96200825D01*
X121289454Y-96200854D01*
X121265918Y-96278444D01*
X121246009Y-96344057D01*
X121246006Y-96344084D01*
X121245997Y-96344115D01*
X121237670Y-96428658D01*
X121231324Y-96493042D01*
X121235000Y-96530395D01*
X121235001Y-99694784D01*
X121231324Y-99732137D01*
X121238835Y-99808355D01*
X121245998Y-99881086D01*
X121246003Y-99881103D01*
X121246005Y-99881122D01*
X121267546Y-99952122D01*
X121289455Y-100024347D01*
X121289464Y-100024364D01*
X121289469Y-100024380D01*
X121322196Y-100085601D01*
X121360027Y-100156376D01*
X121360037Y-100156388D01*
X121360047Y-100156407D01*
X121413006Y-100220931D01*
X121455000Y-100272101D01*
X121484010Y-100295909D01*
X122457215Y-101269020D01*
X122480999Y-101298001D01*
X122510008Y-101321808D01*
X122510024Y-101321824D01*
X122542834Y-101348747D01*
X122596724Y-101392974D01*
X122596740Y-101392983D01*
X122596754Y-101392994D01*
X122661073Y-101427370D01*
X122728753Y-101463546D01*
X122728771Y-101463551D01*
X122728787Y-101463560D01*
X122790149Y-101482170D01*
X122872014Y-101507003D01*
X122872038Y-101507005D01*
X122872050Y-101507009D01*
X122924091Y-101512132D01*
X122983667Y-101518000D01*
X122983696Y-101518000D01*
X123021036Y-101521676D01*
X123058341Y-101518000D01*
X144297199Y-101518000D01*
X143967199Y-101848000D01*
X133839333Y-101848000D01*
X133802000Y-101844323D01*
X133764667Y-101848000D01*
X133653014Y-101858997D01*
X133509753Y-101902454D01*
X133377724Y-101973026D01*
X133261999Y-102067999D01*
X133238201Y-102096997D01*
X130422986Y-104912213D01*
X130266419Y-104847361D01*
X129892581Y-104773000D01*
X129511419Y-104773000D01*
X129137581Y-104847361D01*
X128785434Y-104993225D01*
X128468509Y-105204987D01*
X128198987Y-105474509D01*
X127987225Y-105791434D01*
X127841361Y-106143581D01*
X127767000Y-106517419D01*
X127767000Y-106898581D01*
X127841361Y-107272419D01*
X127987225Y-107624566D01*
X128198987Y-107941491D01*
X128468509Y-108211013D01*
X128785434Y-108422775D01*
X129137581Y-108568639D01*
X129511419Y-108643000D01*
X129892581Y-108643000D01*
X130266419Y-108568639D01*
X130618566Y-108422775D01*
X130935491Y-108211013D01*
X131089280Y-108057224D01*
X133532381Y-108057224D01*
X133664317Y-108352312D01*
X134005045Y-108523159D01*
X134372557Y-108624250D01*
X134752729Y-108651701D01*
X135130951Y-108604457D01*
X135492690Y-108484333D01*
X135739683Y-108352312D01*
X135871619Y-108057224D01*
X134702000Y-106887605D01*
X133532381Y-108057224D01*
X131089280Y-108057224D01*
X131205013Y-107941491D01*
X131416775Y-107624566D01*
X131562639Y-107272419D01*
X131637000Y-106898581D01*
X131637000Y-106758729D01*
X132758299Y-106758729D01*
X132805543Y-107136951D01*
X132925667Y-107498690D01*
X133057688Y-107745683D01*
X133352776Y-107877619D01*
X134522395Y-106708000D01*
X134881605Y-106708000D01*
X136051224Y-107877619D01*
X136346312Y-107745683D01*
X136517159Y-107404955D01*
X136618250Y-107037443D01*
X136645701Y-106657271D01*
X136628232Y-106517419D01*
X137767000Y-106517419D01*
X137767000Y-106898581D01*
X137841361Y-107272419D01*
X137987225Y-107624566D01*
X138198987Y-107941491D01*
X138468509Y-108211013D01*
X138785434Y-108422775D01*
X139137581Y-108568639D01*
X139511419Y-108643000D01*
X139892581Y-108643000D01*
X140266419Y-108568639D01*
X140618566Y-108422775D01*
X140935491Y-108211013D01*
X141205013Y-107941491D01*
X141416775Y-107624566D01*
X141562639Y-107272419D01*
X141637000Y-106898581D01*
X141637000Y-106517419D01*
X142767000Y-106517419D01*
X142767000Y-106898581D01*
X142841361Y-107272419D01*
X142987225Y-107624566D01*
X143198987Y-107941491D01*
X143468509Y-108211013D01*
X143785434Y-108422775D01*
X144137581Y-108568639D01*
X144511419Y-108643000D01*
X144892581Y-108643000D01*
X145266419Y-108568639D01*
X145618566Y-108422775D01*
X145935491Y-108211013D01*
X146205013Y-107941491D01*
X146416775Y-107624566D01*
X146562639Y-107272419D01*
X146637000Y-106898581D01*
X146637000Y-106517419D01*
X147767000Y-106517419D01*
X147767000Y-106898581D01*
X147841361Y-107272419D01*
X147987225Y-107624566D01*
X148198987Y-107941491D01*
X148468509Y-108211013D01*
X148785434Y-108422775D01*
X149137581Y-108568639D01*
X149511419Y-108643000D01*
X149892581Y-108643000D01*
X150266419Y-108568639D01*
X150618566Y-108422775D01*
X150935491Y-108211013D01*
X151205013Y-107941491D01*
X151416775Y-107624566D01*
X151562639Y-107272419D01*
X151637000Y-106898581D01*
X151637000Y-106517419D01*
X152767000Y-106517419D01*
X152767000Y-106898581D01*
X152841361Y-107272419D01*
X152987225Y-107624566D01*
X153198987Y-107941491D01*
X153468509Y-108211013D01*
X153785434Y-108422775D01*
X154137581Y-108568639D01*
X154511419Y-108643000D01*
X154892581Y-108643000D01*
X155266419Y-108568639D01*
X155618566Y-108422775D01*
X155935491Y-108211013D01*
X156205013Y-107941491D01*
X156416775Y-107624566D01*
X156562639Y-107272419D01*
X156637000Y-106898581D01*
X156637000Y-106517419D01*
X156562639Y-106143581D01*
X156416775Y-105791434D01*
X156205013Y-105474509D01*
X155935491Y-105204987D01*
X155618566Y-104993225D01*
X155266419Y-104847361D01*
X154892581Y-104773000D01*
X154511419Y-104773000D01*
X154137581Y-104847361D01*
X153785434Y-104993225D01*
X153468509Y-105204987D01*
X153198987Y-105474509D01*
X152987225Y-105791434D01*
X152841361Y-106143581D01*
X152767000Y-106517419D01*
X151637000Y-106517419D01*
X151562639Y-106143581D01*
X151416775Y-105791434D01*
X151205013Y-105474509D01*
X150935491Y-105204987D01*
X150618566Y-104993225D01*
X150266419Y-104847361D01*
X149892581Y-104773000D01*
X149511419Y-104773000D01*
X149137581Y-104847361D01*
X148785434Y-104993225D01*
X148468509Y-105204987D01*
X148198987Y-105474509D01*
X147987225Y-105791434D01*
X147841361Y-106143581D01*
X147767000Y-106517419D01*
X146637000Y-106517419D01*
X146562639Y-106143581D01*
X146416775Y-105791434D01*
X146205013Y-105474509D01*
X145935491Y-105204987D01*
X145618566Y-104993225D01*
X145266419Y-104847361D01*
X144892581Y-104773000D01*
X144511419Y-104773000D01*
X144137581Y-104847361D01*
X143785434Y-104993225D01*
X143468509Y-105204987D01*
X143198987Y-105474509D01*
X142987225Y-105791434D01*
X142841361Y-106143581D01*
X142767000Y-106517419D01*
X141637000Y-106517419D01*
X141562639Y-106143581D01*
X141416775Y-105791434D01*
X141205013Y-105474509D01*
X140935491Y-105204987D01*
X140618566Y-104993225D01*
X140266419Y-104847361D01*
X139892581Y-104773000D01*
X139511419Y-104773000D01*
X139137581Y-104847361D01*
X138785434Y-104993225D01*
X138468509Y-105204987D01*
X138198987Y-105474509D01*
X137987225Y-105791434D01*
X137841361Y-106143581D01*
X137767000Y-106517419D01*
X136628232Y-106517419D01*
X136598457Y-106279049D01*
X136478333Y-105917310D01*
X136346312Y-105670317D01*
X136051224Y-105538381D01*
X134881605Y-106708000D01*
X134522395Y-106708000D01*
X133352776Y-105538381D01*
X133057688Y-105670317D01*
X132886841Y-106011045D01*
X132785750Y-106378557D01*
X132758299Y-106758729D01*
X131637000Y-106758729D01*
X131637000Y-106517419D01*
X131562639Y-106143581D01*
X131497787Y-105987014D01*
X132126025Y-105358776D01*
X133532381Y-105358776D01*
X134702000Y-106528395D01*
X135871619Y-105358776D01*
X135739683Y-105063688D01*
X135398955Y-104892841D01*
X135031443Y-104791750D01*
X134651271Y-104764299D01*
X134273049Y-104811543D01*
X133911310Y-104931667D01*
X133664317Y-105063688D01*
X133532381Y-105358776D01*
X132126025Y-105358776D01*
X134116802Y-103368000D01*
X144244678Y-103368000D01*
X144282000Y-103371676D01*
X144319322Y-103368000D01*
X144319333Y-103368000D01*
X144430986Y-103357003D01*
X144574247Y-103313546D01*
X144706276Y-103242974D01*
X144822001Y-103148001D01*
X144845804Y-103118997D01*
X148748114Y-99216688D01*
X148930665Y-99253000D01*
X149213335Y-99253000D01*
X149490574Y-99197853D01*
X149751727Y-99089680D01*
X149986759Y-98932637D01*
X150186637Y-98732759D01*
X150343680Y-98497727D01*
X150451853Y-98236574D01*
X150507000Y-97959335D01*
X150507000Y-97676665D01*
X155257000Y-97676665D01*
X155257000Y-97959335D01*
X155312147Y-98236574D01*
X155420320Y-98497727D01*
X155577363Y-98732759D01*
X155777241Y-98932637D01*
X156012273Y-99089680D01*
X156273426Y-99197853D01*
X156550665Y-99253000D01*
X156833335Y-99253000D01*
X157110574Y-99197853D01*
X157371727Y-99089680D01*
X157606759Y-98932637D01*
X157806637Y-98732759D01*
X157963680Y-98497727D01*
X158071853Y-98236574D01*
X158127000Y-97959335D01*
X158127000Y-97676665D01*
X158071853Y-97399426D01*
X157963680Y-97138273D01*
X157806637Y-96903241D01*
X157606759Y-96703363D01*
X157371727Y-96546320D01*
X157110574Y-96438147D01*
X156833335Y-96383000D01*
X156550665Y-96383000D01*
X156273426Y-96438147D01*
X156012273Y-96546320D01*
X155777241Y-96703363D01*
X155577363Y-96903241D01*
X155420320Y-97138273D01*
X155312147Y-97399426D01*
X155257000Y-97676665D01*
X150507000Y-97676665D01*
X150451853Y-97399426D01*
X150343680Y-97138273D01*
X150319844Y-97102600D01*
X151233678Y-97102600D01*
X151271000Y-97106276D01*
X151308322Y-97102600D01*
X151308333Y-97102600D01*
X151419986Y-97091603D01*
X151563247Y-97048146D01*
X151695276Y-96977574D01*
X151811001Y-96882601D01*
X151834804Y-96853597D01*
X153189736Y-95498665D01*
X159855000Y-95498665D01*
X159855000Y-95781335D01*
X159910147Y-96058574D01*
X160018320Y-96319727D01*
X160175363Y-96554759D01*
X160375241Y-96754637D01*
X160610273Y-96911680D01*
X160871426Y-97019853D01*
X161148665Y-97075000D01*
X161431335Y-97075000D01*
X161708574Y-97019853D01*
X161969727Y-96911680D01*
X162204759Y-96754637D01*
X162404637Y-96554759D01*
X162561680Y-96319727D01*
X162669853Y-96058574D01*
X162725000Y-95781335D01*
X162725000Y-95498665D01*
X162669853Y-95221426D01*
X162561680Y-94960273D01*
X162404637Y-94725241D01*
X162204759Y-94525363D01*
X161969727Y-94368320D01*
X161708574Y-94260147D01*
X161431335Y-94205000D01*
X161148665Y-94205000D01*
X160871426Y-94260147D01*
X160610273Y-94368320D01*
X160375241Y-94525363D01*
X160175363Y-94725241D01*
X160018320Y-94960273D01*
X159910147Y-95221426D01*
X159855000Y-95498665D01*
X153189736Y-95498665D01*
X155559066Y-93129336D01*
X155760589Y-93263990D01*
X156030842Y-93375932D01*
X156317740Y-93433000D01*
X156610260Y-93433000D01*
X156897158Y-93375932D01*
X157167411Y-93263990D01*
X157410632Y-93101475D01*
X157617475Y-92894632D01*
X157734000Y-92720240D01*
X157850525Y-92894632D01*
X158057368Y-93101475D01*
X158300589Y-93263990D01*
X158570842Y-93375932D01*
X158857740Y-93433000D01*
X159150260Y-93433000D01*
X159437158Y-93375932D01*
X159707411Y-93263990D01*
X159950632Y-93101475D01*
X160082487Y-92969620D01*
X160104498Y-93042180D01*
X160163463Y-93152494D01*
X160242815Y-93249185D01*
X160339506Y-93328537D01*
X160449820Y-93387502D01*
X160569518Y-93423812D01*
X160694000Y-93436072D01*
X161258250Y-93433000D01*
X161417000Y-93274250D01*
X161417000Y-92075000D01*
X161671000Y-92075000D01*
X161671000Y-93274250D01*
X161829750Y-93433000D01*
X162394000Y-93436072D01*
X162518482Y-93423812D01*
X162638180Y-93387502D01*
X162748494Y-93328537D01*
X162845185Y-93249185D01*
X162924537Y-93152494D01*
X162983502Y-93042180D01*
X163019812Y-92922482D01*
X163032072Y-92798000D01*
X163029000Y-92233750D01*
X162870250Y-92075000D01*
X161671000Y-92075000D01*
X161417000Y-92075000D01*
X161397000Y-92075000D01*
X161397000Y-91821000D01*
X161417000Y-91821000D01*
X161417000Y-89535000D01*
X161671000Y-89535000D01*
X161671000Y-91821000D01*
X162870250Y-91821000D01*
X163029000Y-91662250D01*
X163032072Y-91098000D01*
X163019812Y-90973518D01*
X162983502Y-90853820D01*
X162924537Y-90743506D01*
X162845185Y-90646815D01*
X162748494Y-90567463D01*
X162638180Y-90508498D01*
X162562374Y-90485502D01*
X162739178Y-90289355D01*
X162888157Y-90039252D01*
X162985481Y-89764891D01*
X162864814Y-89535000D01*
X161671000Y-89535000D01*
X161417000Y-89535000D01*
X159131000Y-89535000D01*
X159131000Y-89555000D01*
X158877000Y-89555000D01*
X158877000Y-89535000D01*
X158857000Y-89535000D01*
X158857000Y-89281000D01*
X158877000Y-89281000D01*
X158877000Y-88087845D01*
X159131000Y-88087845D01*
X159131000Y-89281000D01*
X161417000Y-89281000D01*
X161417000Y-88087845D01*
X161671000Y-88087845D01*
X161671000Y-89281000D01*
X162864814Y-89281000D01*
X162985481Y-89051109D01*
X162888157Y-88776748D01*
X162739178Y-88526645D01*
X162544269Y-88310412D01*
X162310920Y-88136359D01*
X162048099Y-88011175D01*
X161900890Y-87966524D01*
X161671000Y-88087845D01*
X161417000Y-88087845D01*
X161187110Y-87966524D01*
X161039901Y-88011175D01*
X160777080Y-88136359D01*
X160543731Y-88310412D01*
X160348822Y-88526645D01*
X160274000Y-88652255D01*
X160199178Y-88526645D01*
X160004269Y-88310412D01*
X159770920Y-88136359D01*
X159508099Y-88011175D01*
X159360890Y-87966524D01*
X159131000Y-88087845D01*
X158877000Y-88087845D01*
X158647110Y-87966524D01*
X158499901Y-88011175D01*
X158237080Y-88136359D01*
X158003731Y-88310412D01*
X157808822Y-88526645D01*
X157739195Y-88643534D01*
X157617475Y-88461368D01*
X157410632Y-88254525D01*
X157167411Y-88092010D01*
X156897158Y-87980068D01*
X156610260Y-87923000D01*
X156317740Y-87923000D01*
X156030842Y-87980068D01*
X155760589Y-88092010D01*
X155552213Y-88231242D01*
X154848636Y-87528000D01*
X167247394Y-87528000D01*
X167205008Y-87545557D01*
X167002733Y-87680713D01*
X166830713Y-87852733D01*
X166695557Y-88055008D01*
X166602460Y-88279764D01*
X166555000Y-88518363D01*
X166555000Y-88761637D01*
X166602460Y-89000236D01*
X166672581Y-89169522D01*
X166659463Y-89185506D01*
X166600498Y-89295820D01*
X166564188Y-89415518D01*
X166551928Y-89540000D01*
X166551928Y-90740000D01*
X166564188Y-90864482D01*
X166600498Y-90984180D01*
X166659463Y-91094494D01*
X166738815Y-91191185D01*
X166835506Y-91270537D01*
X166945820Y-91329502D01*
X167065518Y-91365812D01*
X167090170Y-91368240D01*
X167155026Y-91489576D01*
X167222166Y-91571385D01*
X167250000Y-91605301D01*
X167278998Y-91629099D01*
X169291500Y-93641602D01*
X169291500Y-94252772D01*
X169051335Y-94205000D01*
X168768665Y-94205000D01*
X168491426Y-94260147D01*
X168230273Y-94368320D01*
X167995241Y-94525363D01*
X167795363Y-94725241D01*
X167638320Y-94960273D01*
X167530147Y-95221426D01*
X167475000Y-95498665D01*
X167475000Y-95781335D01*
X167530147Y-96058574D01*
X167638320Y-96319727D01*
X167795363Y-96554759D01*
X167920551Y-96679947D01*
X163978498Y-100622001D01*
X163782430Y-100583000D01*
X163381570Y-100583000D01*
X162988413Y-100661204D01*
X162618066Y-100814607D01*
X162284763Y-101037313D01*
X162001313Y-101320763D01*
X161778607Y-101654066D01*
X161690698Y-101866297D01*
X161660226Y-101713102D01*
X161582205Y-101524744D01*
X161468937Y-101355226D01*
X161324774Y-101211063D01*
X161155256Y-101097795D01*
X160966898Y-101019774D01*
X160766939Y-100980000D01*
X160563061Y-100980000D01*
X160363102Y-101019774D01*
X160174744Y-101097795D01*
X160005226Y-101211063D01*
X159861063Y-101355226D01*
X159747795Y-101524744D01*
X159669774Y-101713102D01*
X159630000Y-101913061D01*
X159630000Y-102116939D01*
X159669774Y-102316898D01*
X159747795Y-102505256D01*
X159861063Y-102674774D01*
X159905000Y-102718711D01*
X159905001Y-106450197D01*
X156225199Y-110130000D01*
X148243711Y-110130000D01*
X148199774Y-110086063D01*
X148030256Y-109972795D01*
X147841898Y-109894774D01*
X147641939Y-109855000D01*
X147438061Y-109855000D01*
X147238102Y-109894774D01*
X147049744Y-109972795D01*
X146880226Y-110086063D01*
X146736063Y-110230226D01*
X146622795Y-110399744D01*
X146544774Y-110588102D01*
X146505000Y-110788061D01*
X146505000Y-110991939D01*
X146544774Y-111191898D01*
X146622795Y-111380256D01*
X146736063Y-111549774D01*
X146880226Y-111693937D01*
X147049744Y-111807205D01*
X147238102Y-111885226D01*
X147438061Y-111925000D01*
X147641939Y-111925000D01*
X147841898Y-111885226D01*
X148030256Y-111807205D01*
X148199774Y-111693937D01*
X148243711Y-111650000D01*
X156502678Y-111650000D01*
X156540000Y-111653676D01*
X156577322Y-111650000D01*
X156577333Y-111650000D01*
X156688986Y-111639003D01*
X156832247Y-111595546D01*
X156964276Y-111524974D01*
X157080001Y-111430001D01*
X157103804Y-111400997D01*
X161176003Y-107328799D01*
X161205001Y-107305001D01*
X161232249Y-107271799D01*
X161299974Y-107189277D01*
X161370546Y-107057247D01*
X161376553Y-107037443D01*
X161414003Y-106913986D01*
X161425000Y-106802333D01*
X161425000Y-106802323D01*
X161428676Y-106765000D01*
X161425000Y-106727677D01*
X161425000Y-102718711D01*
X161468937Y-102674774D01*
X161547000Y-102557944D01*
X161547000Y-102818430D01*
X161625204Y-103211587D01*
X161778607Y-103581934D01*
X162001313Y-103915237D01*
X162284763Y-104198687D01*
X162618066Y-104421393D01*
X162988413Y-104574796D01*
X163381570Y-104653000D01*
X163782430Y-104653000D01*
X164175587Y-104574796D01*
X164545934Y-104421393D01*
X164879237Y-104198687D01*
X165162687Y-103915237D01*
X165385393Y-103581934D01*
X165538796Y-103211587D01*
X165617000Y-102818430D01*
X165617000Y-102417570D01*
X165538796Y-102024413D01*
X165385393Y-101654066D01*
X165269493Y-101480609D01*
X169291500Y-97458601D01*
X169291501Y-101333697D01*
X164379522Y-106245677D01*
X164175587Y-106161204D01*
X163782430Y-106083000D01*
X163381570Y-106083000D01*
X162988413Y-106161204D01*
X162618066Y-106314607D01*
X162284763Y-106537313D01*
X162001313Y-106820763D01*
X161778607Y-107154066D01*
X161625204Y-107524413D01*
X161547000Y-107917570D01*
X161547000Y-108318430D01*
X161625204Y-108711587D01*
X161778607Y-109081934D01*
X162001313Y-109415237D01*
X162284763Y-109698687D01*
X162618066Y-109921393D01*
X162988413Y-110074796D01*
X163381570Y-110153000D01*
X163571202Y-110153000D01*
X163567845Y-110165053D01*
X163537690Y-110564777D01*
X163586096Y-110962704D01*
X163711205Y-111343540D01*
X163856230Y-111614865D01*
X164161553Y-111758842D01*
X165402395Y-110518000D01*
X165761605Y-110518000D01*
X167002447Y-111758842D01*
X167307770Y-111614865D01*
X167488597Y-111257108D01*
X167596155Y-110870947D01*
X167626310Y-110471223D01*
X167577904Y-110073296D01*
X167452795Y-109692460D01*
X167307770Y-109421135D01*
X167002447Y-109277158D01*
X165761605Y-110518000D01*
X165402395Y-110518000D01*
X165388253Y-110503858D01*
X165567858Y-110324253D01*
X165582000Y-110338395D01*
X166822842Y-109097553D01*
X166678865Y-108792230D01*
X166321108Y-108611403D01*
X165934947Y-108503845D01*
X165585364Y-108477473D01*
X165617000Y-108318430D01*
X165617000Y-107917570D01*
X165538796Y-107524413D01*
X165454323Y-107320478D01*
X170232001Y-102542801D01*
X170232001Y-114295711D01*
X170193091Y-114692545D01*
X170087220Y-115043206D01*
X169915257Y-115366623D01*
X169683748Y-115650482D01*
X169401514Y-115883965D01*
X169079304Y-116058184D01*
X168729385Y-116166502D01*
X168334557Y-116208000D01*
X108464279Y-116208000D01*
X108067455Y-116169091D01*
X107716794Y-116063220D01*
X107393377Y-115891257D01*
X107109518Y-115659748D01*
X106876035Y-115377514D01*
X106701816Y-115055304D01*
X106593498Y-114705385D01*
X106552000Y-114310557D01*
X106552000Y-111938447D01*
X164341158Y-111938447D01*
X164485135Y-112243770D01*
X164842892Y-112424597D01*
X165229053Y-112532155D01*
X165628777Y-112562310D01*
X166026704Y-112513904D01*
X166407540Y-112388795D01*
X166678865Y-112243770D01*
X166822842Y-111938447D01*
X165582000Y-110697605D01*
X164341158Y-111938447D01*
X106552000Y-111938447D01*
X106552000Y-98952155D01*
X107437450Y-98952155D01*
X107833634Y-99472550D01*
X108548612Y-99862748D01*
X109325976Y-100105964D01*
X110135853Y-100192851D01*
X110947118Y-100120069D01*
X111728597Y-99890415D01*
X112450256Y-99512715D01*
X112510366Y-99472550D01*
X112906550Y-98952155D01*
X110172000Y-96217605D01*
X107437450Y-98952155D01*
X106552000Y-98952155D01*
X106552000Y-98038665D01*
X106697285Y-98316256D01*
X106737450Y-98376366D01*
X107257845Y-98772550D01*
X109992395Y-96038000D01*
X110351605Y-96038000D01*
X113086155Y-98772550D01*
X113606550Y-98376366D01*
X113996748Y-97661388D01*
X114239964Y-96884024D01*
X114326851Y-96074147D01*
X114254069Y-95262882D01*
X114024415Y-94481403D01*
X113646715Y-93759744D01*
X113606550Y-93699634D01*
X113086155Y-93303450D01*
X110351605Y-96038000D01*
X109992395Y-96038000D01*
X107257845Y-93303450D01*
X106737450Y-93699634D01*
X106552000Y-94039443D01*
X106552000Y-93123845D01*
X107437450Y-93123845D01*
X110172000Y-95858395D01*
X112906550Y-93123845D01*
X112510366Y-92603450D01*
X111795388Y-92213252D01*
X111018024Y-91970036D01*
X110208147Y-91883149D01*
X109396882Y-91955931D01*
X108615403Y-92185585D01*
X107893744Y-92563285D01*
X107833634Y-92603450D01*
X107437450Y-93123845D01*
X106552000Y-93123845D01*
X106552000Y-89440279D01*
X106590909Y-89043455D01*
X106696780Y-88692792D01*
X106868744Y-88369375D01*
X107100254Y-88085516D01*
X107382486Y-87852035D01*
X107704695Y-87677817D01*
X108054614Y-87569498D01*
X108449443Y-87528000D01*
X135267615Y-87528000D01*
X134545091Y-88250822D01*
G36*
X148971000Y-91821000D02*
G01*
X148991000Y-91821000D01*
X148991000Y-92075000D01*
X148971000Y-92075000D01*
X148971000Y-93268155D01*
X149037336Y-93303163D01*
X145239065Y-97101434D01*
X145106637Y-96903241D01*
X144906759Y-96703363D01*
X144746158Y-96596053D01*
X144741003Y-96543714D01*
X144740998Y-96543698D01*
X144740997Y-96543687D01*
X144724019Y-96487724D01*
X144697546Y-96400453D01*
X144697538Y-96400438D01*
X144697535Y-96400428D01*
X144654396Y-96319727D01*
X144626974Y-96268424D01*
X144626966Y-96268415D01*
X144626959Y-96268401D01*
X144576733Y-96207205D01*
X144532001Y-96152699D01*
X144502993Y-96128892D01*
X141722687Y-93348789D01*
X141927411Y-93263990D01*
X142170632Y-93101475D01*
X142377475Y-92894632D01*
X142494000Y-92720240D01*
X142610525Y-92894632D01*
X142817368Y-93101475D01*
X143060589Y-93263990D01*
X143330842Y-93375932D01*
X143617740Y-93433000D01*
X143910260Y-93433000D01*
X144197158Y-93375932D01*
X144467411Y-93263990D01*
X144710632Y-93101475D01*
X144917475Y-92894632D01*
X145034000Y-92720240D01*
X145150525Y-92894632D01*
X145357368Y-93101475D01*
X145600589Y-93263990D01*
X145870842Y-93375932D01*
X146157740Y-93433000D01*
X146450260Y-93433000D01*
X146737158Y-93375932D01*
X147007411Y-93263990D01*
X147250632Y-93101475D01*
X147457475Y-92894632D01*
X147579195Y-92712466D01*
X147648822Y-92829355D01*
X147843731Y-93045588D01*
X148077080Y-93219641D01*
X148339901Y-93344825D01*
X148487110Y-93389476D01*
X148717000Y-93268155D01*
X148717000Y-92075000D01*
X148697000Y-92075000D01*
X148697000Y-91821000D01*
X148717000Y-91821000D01*
X148717000Y-91801000D01*
X148971000Y-91801000D01*
X148971000Y-91821000D01*
G37*
X148971000Y-91821000D02*
X148991000Y-91821000D01*
X148991000Y-92075000D01*
X148971000Y-92075000D01*
X148971000Y-93268155D01*
X149037336Y-93303163D01*
X145239065Y-97101434D01*
X145106637Y-96903241D01*
X144906759Y-96703363D01*
X144746158Y-96596053D01*
X144741003Y-96543714D01*
X144740998Y-96543698D01*
X144740997Y-96543687D01*
X144724019Y-96487724D01*
X144697546Y-96400453D01*
X144697538Y-96400438D01*
X144697535Y-96400428D01*
X144654396Y-96319727D01*
X144626974Y-96268424D01*
X144626966Y-96268415D01*
X144626959Y-96268401D01*
X144576733Y-96207205D01*
X144532001Y-96152699D01*
X144502993Y-96128892D01*
X141722687Y-93348789D01*
X141927411Y-93263990D01*
X142170632Y-93101475D01*
X142377475Y-92894632D01*
X142494000Y-92720240D01*
X142610525Y-92894632D01*
X142817368Y-93101475D01*
X143060589Y-93263990D01*
X143330842Y-93375932D01*
X143617740Y-93433000D01*
X143910260Y-93433000D01*
X144197158Y-93375932D01*
X144467411Y-93263990D01*
X144710632Y-93101475D01*
X144917475Y-92894632D01*
X145034000Y-92720240D01*
X145150525Y-92894632D01*
X145357368Y-93101475D01*
X145600589Y-93263990D01*
X145870842Y-93375932D01*
X146157740Y-93433000D01*
X146450260Y-93433000D01*
X146737158Y-93375932D01*
X147007411Y-93263990D01*
X147250632Y-93101475D01*
X147457475Y-92894632D01*
X147579195Y-92712466D01*
X147648822Y-92829355D01*
X147843731Y-93045588D01*
X148077080Y-93219641D01*
X148339901Y-93344825D01*
X148487110Y-93389476D01*
X148717000Y-93268155D01*
X148717000Y-92075000D01*
X148697000Y-92075000D01*
X148697000Y-91821000D01*
X148717000Y-91821000D01*
X148717000Y-91801000D01*
X148971000Y-91801000D01*
X148971000Y-91821000D01*
G36*
X147690525Y-90354632D02*
G01*
X147897368Y-90561475D01*
X148073406Y-90679100D01*
X147843731Y-90850412D01*
X147648822Y-91066645D01*
X147579195Y-91183534D01*
X147457475Y-91001368D01*
X147250632Y-90794525D01*
X147076240Y-90678000D01*
X147250632Y-90561475D01*
X147457475Y-90354632D01*
X147574000Y-90180240D01*
X147690525Y-90354632D01*
G37*
X147690525Y-90354632D02*
X147897368Y-90561475D01*
X148073406Y-90679100D01*
X147843731Y-90850412D01*
X147648822Y-91066645D01*
X147579195Y-91183534D01*
X147457475Y-91001368D01*
X147250632Y-90794525D01*
X147076240Y-90678000D01*
X147250632Y-90561475D01*
X147457475Y-90354632D01*
X147574000Y-90180240D01*
X147690525Y-90354632D01*
G36*
X142610525Y-90354632D02*
G01*
X142817368Y-90561475D01*
X142991760Y-90678000D01*
X142817368Y-90794525D01*
X142610525Y-91001368D01*
X142494000Y-91175760D01*
X142377475Y-91001368D01*
X142170632Y-90794525D01*
X141994594Y-90676900D01*
X142224269Y-90505588D01*
X142419178Y-90289355D01*
X142488805Y-90172466D01*
X142610525Y-90354632D01*
G37*
X142610525Y-90354632D02*
X142817368Y-90561475D01*
X142991760Y-90678000D01*
X142817368Y-90794525D01*
X142610525Y-91001368D01*
X142494000Y-91175760D01*
X142377475Y-91001368D01*
X142170632Y-90794525D01*
X141994594Y-90676900D01*
X142224269Y-90505588D01*
X142419178Y-90289355D01*
X142488805Y-90172466D01*
X142610525Y-90354632D01*
G36*
X141351000Y-89281000D02*
G01*
X141371000Y-89281000D01*
X141371000Y-89535000D01*
X141351000Y-89535000D01*
X141351000Y-89555000D01*
X141097000Y-89555000D01*
X141097000Y-89535000D01*
X141077000Y-89535000D01*
X141077000Y-89281000D01*
X141097000Y-89281000D01*
X141097000Y-89261000D01*
X141351000Y-89261000D01*
X141351000Y-89281000D01*
G37*
X141351000Y-89281000D02*
X141371000Y-89281000D01*
X141371000Y-89535000D01*
X141351000Y-89535000D01*
X141351000Y-89555000D01*
X141097000Y-89555000D01*
X141097000Y-89535000D01*
X141077000Y-89535000D01*
X141077000Y-89281000D01*
X141097000Y-89281000D01*
X141097000Y-89261000D01*
X141351000Y-89261000D01*
X141351000Y-89281000D01*
M02*
