M48
; DRILL file {KiCad 5.1.5-52549c5~84~ubuntu18.04.1} date Wed 25 Mar 2020 10:59:07 PM EDT
; FORMAT={-:-/ absolute / inch / decimal}
; #@! TF.CreationDate,2020-03-25T22:59:07-04:00
; #@! TF.GenerationSoftware,Kicad,Pcbnew,5.1.5-52549c5~84~ubuntu18.04.1
FMAT,2
INCH
T1C0.0315
T2C0.0394
T3C0.0512
T4C0.0787
T5C0.1378
%
G90
G05
T1
X5.369Y-3.8511
X5.669Y-3.8511
X5.869Y-3.8511
X6.169Y-3.8511
T2
X4.869Y-3.7011
X4.869Y-3.8011
X4.869Y-3.9011
X4.969Y-3.7011
X4.969Y-3.8011
X4.969Y-3.9011
X5.16Y-3.52
X5.16Y-3.62
X5.26Y-3.52
X5.26Y-3.62
X5.36Y-3.52
X5.36Y-3.62
X5.46Y-3.52
X5.46Y-3.62
X5.56Y-3.52
X5.56Y-3.62
X5.66Y-3.52
X5.66Y-3.62
X5.76Y-3.52
X5.76Y-3.62
X5.86Y-3.52
X5.86Y-3.62
X5.96Y-3.52
X5.96Y-3.62
X6.06Y-3.52
X6.06Y-3.62
X6.16Y-3.52
X6.16Y-3.62
X6.26Y-3.52
X6.26Y-3.62
X6.36Y-3.52
X6.36Y-3.62
T3
X4.319Y-4.2011
X4.5158Y-4.2011
X4.7127Y-4.2011
X4.9095Y-4.2011
X5.1064Y-4.2011
X5.3032Y-4.2011
X5.5001Y-4.2011
X5.6969Y-4.2011
X5.8938Y-4.2011
X6.0906Y-4.2011
T4
X6.4402Y-4.0401
X6.4402Y-4.2566
X6.519Y-4.3511
T5
X4.3375Y-3.781
T0
M30
