G04 #@! TF.GenerationSoftware,KiCad,Pcbnew,5.1.5-52549c5~84~ubuntu18.04.1*
G04 #@! TF.CreationDate,2020-03-30T15:42:48-04:00*
G04 #@! TF.ProjectId,imac_g3_slot_loading_J22_adapter_board,696d6163-5f67-4335-9f73-6c6f745f6c6f,2*
G04 #@! TF.SameCoordinates,Original*
G04 #@! TF.FileFunction,Legend,Top*
G04 #@! TF.FilePolarity,Positive*
%FSLAX46Y46*%
G04 Gerber Fmt 4.6, Leading zero omitted, Abs format (unit mm)*
G04 Created by KiCad (PCBNEW 5.1.5-52549c5~84~ubuntu18.04.1) date 2020-03-30 15:42:48*
%MOMM*%
%LPD*%
G04 APERTURE LIST*
%ADD10C,0.150000*%
%ADD11C,0.100000*%
%ADD12C,0.120000*%
%ADD13C,0.125000*%
G04 APERTURE END LIST*
D10*
X139301904Y-99937619D02*
X139349523Y-99890000D01*
X139444761Y-99842380D01*
X139682857Y-99842380D01*
X139778095Y-99890000D01*
X139825714Y-99937619D01*
X139873333Y-100032857D01*
X139873333Y-100128095D01*
X139825714Y-100270952D01*
X139254285Y-100842380D01*
X139873333Y-100842380D01*
X140254285Y-99937619D02*
X140301904Y-99890000D01*
X140397142Y-99842380D01*
X140635238Y-99842380D01*
X140730476Y-99890000D01*
X140778095Y-99937619D01*
X140825714Y-100032857D01*
X140825714Y-100128095D01*
X140778095Y-100270952D01*
X140206666Y-100842380D01*
X140825714Y-100842380D01*
X141444761Y-99842380D02*
X141540000Y-99842380D01*
X141635238Y-99890000D01*
X141682857Y-99937619D01*
X141730476Y-100032857D01*
X141778095Y-100223333D01*
X141778095Y-100461428D01*
X141730476Y-100651904D01*
X141682857Y-100747142D01*
X141635238Y-100794761D01*
X141540000Y-100842380D01*
X141444761Y-100842380D01*
X141349523Y-100794761D01*
X141301904Y-100747142D01*
X141254285Y-100651904D01*
X141206666Y-100461428D01*
X141206666Y-100223333D01*
X141254285Y-100032857D01*
X141301904Y-99937619D01*
X141349523Y-99890000D01*
X141444761Y-99842380D01*
X151801904Y-99937619D02*
X151849523Y-99890000D01*
X151944761Y-99842380D01*
X152182857Y-99842380D01*
X152278095Y-99890000D01*
X152325714Y-99937619D01*
X152373333Y-100032857D01*
X152373333Y-100128095D01*
X152325714Y-100270952D01*
X151754285Y-100842380D01*
X152373333Y-100842380D01*
X152754285Y-99937619D02*
X152801904Y-99890000D01*
X152897142Y-99842380D01*
X153135238Y-99842380D01*
X153230476Y-99890000D01*
X153278095Y-99937619D01*
X153325714Y-100032857D01*
X153325714Y-100128095D01*
X153278095Y-100270952D01*
X152706666Y-100842380D01*
X153325714Y-100842380D01*
X153944761Y-99842380D02*
X154040000Y-99842380D01*
X154135238Y-99890000D01*
X154182857Y-99937619D01*
X154230476Y-100032857D01*
X154278095Y-100223333D01*
X154278095Y-100461428D01*
X154230476Y-100651904D01*
X154182857Y-100747142D01*
X154135238Y-100794761D01*
X154040000Y-100842380D01*
X153944761Y-100842380D01*
X153849523Y-100794761D01*
X153801904Y-100747142D01*
X153754285Y-100651904D01*
X153706666Y-100461428D01*
X153706666Y-100223333D01*
X153754285Y-100032857D01*
X153801904Y-99937619D01*
X153849523Y-99890000D01*
X153944761Y-99842380D01*
X157623333Y-94187619D02*
X157670952Y-94140000D01*
X157766190Y-94092380D01*
X158004285Y-94092380D01*
X158099523Y-94140000D01*
X158147142Y-94187619D01*
X158194761Y-94282857D01*
X158194761Y-94378095D01*
X158147142Y-94520952D01*
X157575714Y-95092380D01*
X158194761Y-95092380D01*
X158623333Y-95092380D02*
X158623333Y-94092380D01*
X158718571Y-94711428D02*
X159004285Y-95092380D01*
X159004285Y-94425714D02*
X158623333Y-94806666D01*
X159385238Y-94187619D02*
X159432857Y-94140000D01*
X159528095Y-94092380D01*
X159766190Y-94092380D01*
X159861428Y-94140000D01*
X159909047Y-94187619D01*
X159956666Y-94282857D01*
X159956666Y-94378095D01*
X159909047Y-94520952D01*
X159337619Y-95092380D01*
X159956666Y-95092380D01*
X164194761Y-91842380D02*
X163623333Y-91842380D01*
X163909047Y-91842380D02*
X163909047Y-90842380D01*
X163813809Y-90985238D01*
X163718571Y-91080476D01*
X163623333Y-91128095D01*
X165051904Y-91175714D02*
X165051904Y-91842380D01*
X164623333Y-91175714D02*
X164623333Y-91699523D01*
X164670952Y-91794761D01*
X164766190Y-91842380D01*
X164909047Y-91842380D01*
X165004285Y-91794761D01*
X165051904Y-91747142D01*
X165861428Y-91318571D02*
X165528095Y-91318571D01*
X165528095Y-91842380D02*
X165528095Y-90842380D01*
X166004285Y-90842380D01*
X107730476Y-101711428D02*
X108492380Y-101711428D01*
X108111428Y-102092380D02*
X108111428Y-101330476D01*
X108920952Y-101806666D02*
X109397142Y-101806666D01*
X108825714Y-102092380D02*
X109159047Y-101092380D01*
X109492380Y-102092380D01*
X110397142Y-101997142D02*
X110349523Y-102044761D01*
X110206666Y-102092380D01*
X110111428Y-102092380D01*
X109968571Y-102044761D01*
X109873333Y-101949523D01*
X109825714Y-101854285D01*
X109778095Y-101663809D01*
X109778095Y-101520952D01*
X109825714Y-101330476D01*
X109873333Y-101235238D01*
X109968571Y-101140000D01*
X110111428Y-101092380D01*
X110206666Y-101092380D01*
X110349523Y-101140000D01*
X110397142Y-101187619D01*
X112730476Y-101711428D02*
X113492380Y-101711428D01*
X113920952Y-101806666D02*
X114397142Y-101806666D01*
X113825714Y-102092380D02*
X114159047Y-101092380D01*
X114492380Y-102092380D01*
X115397142Y-101997142D02*
X115349523Y-102044761D01*
X115206666Y-102092380D01*
X115111428Y-102092380D01*
X114968571Y-102044761D01*
X114873333Y-101949523D01*
X114825714Y-101854285D01*
X114778095Y-101663809D01*
X114778095Y-101520952D01*
X114825714Y-101330476D01*
X114873333Y-101235238D01*
X114968571Y-101140000D01*
X115111428Y-101092380D01*
X115206666Y-101092380D01*
X115349523Y-101140000D01*
X115397142Y-101187619D01*
D11*
X119206666Y-100965000D02*
X119159047Y-100941190D01*
X119087619Y-100941190D01*
X119016190Y-100965000D01*
X118968571Y-101012619D01*
X118944761Y-101060238D01*
X118920952Y-101155476D01*
X118920952Y-101226904D01*
X118944761Y-101322142D01*
X118968571Y-101369761D01*
X119016190Y-101417380D01*
X119087619Y-101441190D01*
X119135238Y-101441190D01*
X119206666Y-101417380D01*
X119230476Y-101393571D01*
X119230476Y-101226904D01*
X119135238Y-101226904D01*
X119730476Y-101441190D02*
X119563809Y-101203095D01*
X119444761Y-101441190D02*
X119444761Y-100941190D01*
X119635238Y-100941190D01*
X119682857Y-100965000D01*
X119706666Y-100988809D01*
X119730476Y-101036428D01*
X119730476Y-101107857D01*
X119706666Y-101155476D01*
X119682857Y-101179285D01*
X119635238Y-101203095D01*
X119444761Y-101203095D01*
X119944761Y-101179285D02*
X120111428Y-101179285D01*
X120182857Y-101441190D02*
X119944761Y-101441190D01*
X119944761Y-100941190D01*
X120182857Y-100941190D01*
X120397142Y-101179285D02*
X120563809Y-101179285D01*
X120635238Y-101441190D02*
X120397142Y-101441190D01*
X120397142Y-100941190D01*
X120635238Y-100941190D01*
X120849523Y-101441190D02*
X120849523Y-100941190D01*
X121135238Y-101441190D01*
X121135238Y-100941190D01*
X119718571Y-102291190D02*
X119480476Y-102291190D01*
X119480476Y-101791190D01*
X119885238Y-102029285D02*
X120051904Y-102029285D01*
X120123333Y-102291190D02*
X119885238Y-102291190D01*
X119885238Y-101791190D01*
X120123333Y-101791190D01*
X120337619Y-102291190D02*
X120337619Y-101791190D01*
X120456666Y-101791190D01*
X120528095Y-101815000D01*
X120575714Y-101862619D01*
X120599523Y-101910238D01*
X120623333Y-102005476D01*
X120623333Y-102076904D01*
X120599523Y-102172142D01*
X120575714Y-102219761D01*
X120528095Y-102267380D01*
X120456666Y-102291190D01*
X120337619Y-102291190D01*
X123885238Y-101441190D02*
X123885238Y-100941190D01*
X124075714Y-100941190D01*
X124123333Y-100965000D01*
X124147142Y-100988809D01*
X124170952Y-101036428D01*
X124170952Y-101107857D01*
X124147142Y-101155476D01*
X124123333Y-101179285D01*
X124075714Y-101203095D01*
X123885238Y-101203095D01*
X124480476Y-100941190D02*
X124575714Y-100941190D01*
X124623333Y-100965000D01*
X124670952Y-101012619D01*
X124694761Y-101107857D01*
X124694761Y-101274523D01*
X124670952Y-101369761D01*
X124623333Y-101417380D01*
X124575714Y-101441190D01*
X124480476Y-101441190D01*
X124432857Y-101417380D01*
X124385238Y-101369761D01*
X124361428Y-101274523D01*
X124361428Y-101107857D01*
X124385238Y-101012619D01*
X124432857Y-100965000D01*
X124480476Y-100941190D01*
X124861428Y-100941190D02*
X124980476Y-101441190D01*
X125075714Y-101084047D01*
X125170952Y-101441190D01*
X125290000Y-100941190D01*
X125480476Y-101179285D02*
X125647142Y-101179285D01*
X125718571Y-101441190D02*
X125480476Y-101441190D01*
X125480476Y-100941190D01*
X125718571Y-100941190D01*
X126218571Y-101441190D02*
X126051904Y-101203095D01*
X125932857Y-101441190D02*
X125932857Y-100941190D01*
X126123333Y-100941190D01*
X126170952Y-100965000D01*
X126194761Y-100988809D01*
X126218571Y-101036428D01*
X126218571Y-101107857D01*
X126194761Y-101155476D01*
X126170952Y-101179285D01*
X126123333Y-101203095D01*
X125932857Y-101203095D01*
X123909047Y-102029285D02*
X123980476Y-102053095D01*
X124004285Y-102076904D01*
X124028095Y-102124523D01*
X124028095Y-102195952D01*
X124004285Y-102243571D01*
X123980476Y-102267380D01*
X123932857Y-102291190D01*
X123742380Y-102291190D01*
X123742380Y-101791190D01*
X123909047Y-101791190D01*
X123956666Y-101815000D01*
X123980476Y-101838809D01*
X124004285Y-101886428D01*
X124004285Y-101934047D01*
X123980476Y-101981666D01*
X123956666Y-102005476D01*
X123909047Y-102029285D01*
X123742380Y-102029285D01*
X124242380Y-101791190D02*
X124242380Y-102195952D01*
X124266190Y-102243571D01*
X124290000Y-102267380D01*
X124337619Y-102291190D01*
X124432857Y-102291190D01*
X124480476Y-102267380D01*
X124504285Y-102243571D01*
X124528095Y-102195952D01*
X124528095Y-101791190D01*
X124694761Y-101791190D02*
X124980476Y-101791190D01*
X124837619Y-102291190D02*
X124837619Y-101791190D01*
X125075714Y-101791190D02*
X125361428Y-101791190D01*
X125218571Y-102291190D02*
X125218571Y-101791190D01*
X125623333Y-101791190D02*
X125718571Y-101791190D01*
X125766190Y-101815000D01*
X125813809Y-101862619D01*
X125837619Y-101957857D01*
X125837619Y-102124523D01*
X125813809Y-102219761D01*
X125766190Y-102267380D01*
X125718571Y-102291190D01*
X125623333Y-102291190D01*
X125575714Y-102267380D01*
X125528095Y-102219761D01*
X125504285Y-102124523D01*
X125504285Y-101957857D01*
X125528095Y-101862619D01*
X125575714Y-101815000D01*
X125623333Y-101791190D01*
X126051904Y-102291190D02*
X126051904Y-101791190D01*
X126337619Y-102291190D01*
X126337619Y-101791190D01*
X128909047Y-101298333D02*
X129147142Y-101298333D01*
X128861428Y-101441190D02*
X129028095Y-100941190D01*
X129194761Y-101441190D01*
X129361428Y-101441190D02*
X129361428Y-100941190D01*
X129528095Y-101298333D01*
X129694761Y-100941190D01*
X129694761Y-101441190D01*
X130099523Y-101179285D02*
X130170952Y-101203095D01*
X130194761Y-101226904D01*
X130218571Y-101274523D01*
X130218571Y-101345952D01*
X130194761Y-101393571D01*
X130170952Y-101417380D01*
X130123333Y-101441190D01*
X129932857Y-101441190D01*
X129932857Y-100941190D01*
X130099523Y-100941190D01*
X130147142Y-100965000D01*
X130170952Y-100988809D01*
X130194761Y-101036428D01*
X130194761Y-101084047D01*
X130170952Y-101131666D01*
X130147142Y-101155476D01*
X130099523Y-101179285D01*
X129932857Y-101179285D01*
X130432857Y-101179285D02*
X130599523Y-101179285D01*
X130670952Y-101441190D02*
X130432857Y-101441190D01*
X130432857Y-100941190D01*
X130670952Y-100941190D01*
X131170952Y-101441190D02*
X131004285Y-101203095D01*
X130885238Y-101441190D02*
X130885238Y-100941190D01*
X131075714Y-100941190D01*
X131123333Y-100965000D01*
X131147142Y-100988809D01*
X131170952Y-101036428D01*
X131170952Y-101107857D01*
X131147142Y-101155476D01*
X131123333Y-101179285D01*
X131075714Y-101203095D01*
X130885238Y-101203095D01*
X129718571Y-102291190D02*
X129480476Y-102291190D01*
X129480476Y-101791190D01*
X129885238Y-102029285D02*
X130051904Y-102029285D01*
X130123333Y-102291190D02*
X129885238Y-102291190D01*
X129885238Y-101791190D01*
X130123333Y-101791190D01*
X130337619Y-102291190D02*
X130337619Y-101791190D01*
X130456666Y-101791190D01*
X130528095Y-101815000D01*
X130575714Y-101862619D01*
X130599523Y-101910238D01*
X130623333Y-102005476D01*
X130623333Y-102076904D01*
X130599523Y-102172142D01*
X130575714Y-102219761D01*
X130528095Y-102267380D01*
X130456666Y-102291190D01*
X130337619Y-102291190D01*
D10*
X133278095Y-101140000D02*
X133182857Y-101092380D01*
X133040000Y-101092380D01*
X132897142Y-101140000D01*
X132801904Y-101235238D01*
X132754285Y-101330476D01*
X132706666Y-101520952D01*
X132706666Y-101663809D01*
X132754285Y-101854285D01*
X132801904Y-101949523D01*
X132897142Y-102044761D01*
X133040000Y-102092380D01*
X133135238Y-102092380D01*
X133278095Y-102044761D01*
X133325714Y-101997142D01*
X133325714Y-101663809D01*
X133135238Y-101663809D01*
X133754285Y-102092380D02*
X133754285Y-101092380D01*
X134325714Y-102092380D01*
X134325714Y-101092380D01*
X134801904Y-102092380D02*
X134801904Y-101092380D01*
X135040000Y-101092380D01*
X135182857Y-101140000D01*
X135278095Y-101235238D01*
X135325714Y-101330476D01*
X135373333Y-101520952D01*
X135373333Y-101663809D01*
X135325714Y-101854285D01*
X135278095Y-101949523D01*
X135182857Y-102044761D01*
X135040000Y-102092380D01*
X134801904Y-102092380D01*
X138254285Y-101711428D02*
X139016190Y-101711428D01*
X139968571Y-102092380D02*
X139492380Y-102092380D01*
X139492380Y-101092380D01*
X143254285Y-101711428D02*
X144016190Y-101711428D01*
X143635238Y-102092380D02*
X143635238Y-101330476D01*
X144968571Y-102092380D02*
X144492380Y-102092380D01*
X144492380Y-101092380D01*
X148159047Y-101711428D02*
X148920952Y-101711428D01*
X149968571Y-102092380D02*
X149635238Y-101616190D01*
X149397142Y-102092380D02*
X149397142Y-101092380D01*
X149778095Y-101092380D01*
X149873333Y-101140000D01*
X149920952Y-101187619D01*
X149968571Y-101282857D01*
X149968571Y-101425714D01*
X149920952Y-101520952D01*
X149873333Y-101568571D01*
X149778095Y-101616190D01*
X149397142Y-101616190D01*
X154159047Y-101711428D02*
X154920952Y-101711428D01*
X154540000Y-102092380D02*
X154540000Y-101330476D01*
X155968571Y-102092380D02*
X155635238Y-101616190D01*
X155397142Y-102092380D02*
X155397142Y-101092380D01*
X155778095Y-101092380D01*
X155873333Y-101140000D01*
X155920952Y-101187619D01*
X155968571Y-101282857D01*
X155968571Y-101425714D01*
X155920952Y-101520952D01*
X155873333Y-101568571D01*
X155778095Y-101616190D01*
X155397142Y-101616190D01*
X124854857Y-89380380D02*
X124521523Y-88904190D01*
X124283428Y-89380380D02*
X124283428Y-88380380D01*
X124664380Y-88380380D01*
X124759619Y-88428000D01*
X124807238Y-88475619D01*
X124854857Y-88570857D01*
X124854857Y-88713714D01*
X124807238Y-88808952D01*
X124759619Y-88856571D01*
X124664380Y-88904190D01*
X124283428Y-88904190D01*
X125664380Y-89332761D02*
X125569142Y-89380380D01*
X125378666Y-89380380D01*
X125283428Y-89332761D01*
X125235809Y-89237523D01*
X125235809Y-88856571D01*
X125283428Y-88761333D01*
X125378666Y-88713714D01*
X125569142Y-88713714D01*
X125664380Y-88761333D01*
X125712000Y-88856571D01*
X125712000Y-88951809D01*
X125235809Y-89047047D01*
X126045333Y-88713714D02*
X126283428Y-89380380D01*
X126521523Y-88713714D01*
X127616761Y-88475619D02*
X127664380Y-88428000D01*
X127759619Y-88380380D01*
X127997714Y-88380380D01*
X128092952Y-88428000D01*
X128140571Y-88475619D01*
X128188190Y-88570857D01*
X128188190Y-88666095D01*
X128140571Y-88808952D01*
X127569142Y-89380380D01*
X128188190Y-89380380D01*
X114298190Y-89380380D02*
X113964857Y-88904190D01*
X113726761Y-89380380D02*
X113726761Y-88380380D01*
X114107714Y-88380380D01*
X114202952Y-88428000D01*
X114250571Y-88475619D01*
X114298190Y-88570857D01*
X114298190Y-88713714D01*
X114250571Y-88808952D01*
X114202952Y-88856571D01*
X114107714Y-88904190D01*
X113726761Y-88904190D01*
X114869619Y-89380380D02*
X114774380Y-89332761D01*
X114726761Y-89285142D01*
X114679142Y-89189904D01*
X114679142Y-88904190D01*
X114726761Y-88808952D01*
X114774380Y-88761333D01*
X114869619Y-88713714D01*
X115012476Y-88713714D01*
X115107714Y-88761333D01*
X115155333Y-88808952D01*
X115202952Y-88904190D01*
X115202952Y-89189904D01*
X115155333Y-89285142D01*
X115107714Y-89332761D01*
X115012476Y-89380380D01*
X114869619Y-89380380D01*
X116060095Y-89332761D02*
X115964857Y-89380380D01*
X115774380Y-89380380D01*
X115679142Y-89332761D01*
X115631523Y-89285142D01*
X115583904Y-89189904D01*
X115583904Y-88904190D01*
X115631523Y-88808952D01*
X115679142Y-88761333D01*
X115774380Y-88713714D01*
X115964857Y-88713714D01*
X116060095Y-88761333D01*
X116488666Y-89380380D02*
X116488666Y-88380380D01*
X116583904Y-88999428D02*
X116869619Y-89380380D01*
X116869619Y-88713714D02*
X116488666Y-89094666D01*
X117202952Y-88713714D02*
X117441047Y-89380380D01*
X117679142Y-88713714D02*
X117441047Y-89380380D01*
X117345809Y-89618476D01*
X117298190Y-89666095D01*
X117202952Y-89713714D01*
X118822000Y-89380380D02*
X118822000Y-88380380D01*
X118822000Y-88856571D02*
X119393428Y-88856571D01*
X119393428Y-89380380D02*
X119393428Y-88380380D01*
X119869619Y-89380380D02*
X119869619Y-88713714D01*
X119869619Y-88380380D02*
X119822000Y-88428000D01*
X119869619Y-88475619D01*
X119917238Y-88428000D01*
X119869619Y-88380380D01*
X119869619Y-88475619D01*
X120488666Y-89380380D02*
X120393428Y-89332761D01*
X120345809Y-89237523D01*
X120345809Y-88380380D01*
X121012476Y-89380380D02*
X120917238Y-89332761D01*
X120869619Y-89237523D01*
X120869619Y-88380380D01*
D11*
X128617238Y-94234190D02*
X128617238Y-93734190D01*
X128617238Y-93972285D02*
X128902952Y-93972285D01*
X128902952Y-94234190D02*
X128902952Y-93734190D01*
X129117238Y-93781809D02*
X129141047Y-93758000D01*
X129188666Y-93734190D01*
X129307714Y-93734190D01*
X129355333Y-93758000D01*
X129379142Y-93781809D01*
X129402952Y-93829428D01*
X129402952Y-93877047D01*
X129379142Y-93948476D01*
X129093428Y-94234190D01*
X129402952Y-94234190D01*
X130236285Y-94234190D02*
X129998190Y-94234190D01*
X129998190Y-93734190D01*
X130402952Y-93972285D02*
X130569619Y-93972285D01*
X130641047Y-94234190D02*
X130402952Y-94234190D01*
X130402952Y-93734190D01*
X130641047Y-93734190D01*
X131022000Y-93972285D02*
X130855333Y-93972285D01*
X130855333Y-94234190D02*
X130855333Y-93734190D01*
X131093428Y-93734190D01*
X131212476Y-93734190D02*
X131498190Y-93734190D01*
X131355333Y-94234190D02*
X131355333Y-93734190D01*
X128260095Y-96774190D02*
X128260095Y-96274190D01*
X128260095Y-96512285D02*
X128545809Y-96512285D01*
X128545809Y-96774190D02*
X128545809Y-96274190D01*
X129045809Y-96774190D02*
X128760095Y-96774190D01*
X128902952Y-96774190D02*
X128902952Y-96274190D01*
X128855333Y-96345619D01*
X128807714Y-96393238D01*
X128760095Y-96417047D01*
X129617238Y-96750380D02*
X129688666Y-96774190D01*
X129807714Y-96774190D01*
X129855333Y-96750380D01*
X129879142Y-96726571D01*
X129902952Y-96678952D01*
X129902952Y-96631333D01*
X129879142Y-96583714D01*
X129855333Y-96559904D01*
X129807714Y-96536095D01*
X129712476Y-96512285D01*
X129664857Y-96488476D01*
X129641047Y-96464666D01*
X129617238Y-96417047D01*
X129617238Y-96369428D01*
X129641047Y-96321809D01*
X129664857Y-96298000D01*
X129712476Y-96274190D01*
X129831523Y-96274190D01*
X129902952Y-96298000D01*
X130117238Y-96512285D02*
X130283904Y-96512285D01*
X130355333Y-96774190D02*
X130117238Y-96774190D01*
X130117238Y-96274190D01*
X130355333Y-96274190D01*
X130569619Y-96774190D02*
X130569619Y-96274190D01*
X130855333Y-96774190D01*
X130855333Y-96274190D01*
X131069619Y-96750380D02*
X131141047Y-96774190D01*
X131260095Y-96774190D01*
X131307714Y-96750380D01*
X131331523Y-96726571D01*
X131355333Y-96678952D01*
X131355333Y-96631333D01*
X131331523Y-96583714D01*
X131307714Y-96559904D01*
X131260095Y-96536095D01*
X131164857Y-96512285D01*
X131117238Y-96488476D01*
X131093428Y-96464666D01*
X131069619Y-96417047D01*
X131069619Y-96369428D01*
X131093428Y-96321809D01*
X131117238Y-96298000D01*
X131164857Y-96274190D01*
X131283904Y-96274190D01*
X131355333Y-96298000D01*
X131569619Y-96512285D02*
X131736285Y-96512285D01*
X131807714Y-96774190D02*
X131569619Y-96774190D01*
X131569619Y-96274190D01*
X131807714Y-96274190D01*
X118219142Y-94234190D02*
X118219142Y-93734190D01*
X118219142Y-93972285D02*
X118504857Y-93972285D01*
X118504857Y-94234190D02*
X118504857Y-93734190D01*
X118719142Y-93781809D02*
X118742952Y-93758000D01*
X118790571Y-93734190D01*
X118909619Y-93734190D01*
X118957238Y-93758000D01*
X118981047Y-93781809D01*
X119004857Y-93829428D01*
X119004857Y-93877047D01*
X118981047Y-93948476D01*
X118695333Y-94234190D01*
X119004857Y-94234190D01*
X119885809Y-94234190D02*
X119719142Y-93996095D01*
X119600095Y-94234190D02*
X119600095Y-93734190D01*
X119790571Y-93734190D01*
X119838190Y-93758000D01*
X119862000Y-93781809D01*
X119885809Y-93829428D01*
X119885809Y-93900857D01*
X119862000Y-93948476D01*
X119838190Y-93972285D01*
X119790571Y-93996095D01*
X119600095Y-93996095D01*
X120100095Y-94234190D02*
X120100095Y-93734190D01*
X120600095Y-93758000D02*
X120552476Y-93734190D01*
X120481047Y-93734190D01*
X120409619Y-93758000D01*
X120362000Y-93805619D01*
X120338190Y-93853238D01*
X120314380Y-93948476D01*
X120314380Y-94019904D01*
X120338190Y-94115142D01*
X120362000Y-94162761D01*
X120409619Y-94210380D01*
X120481047Y-94234190D01*
X120528666Y-94234190D01*
X120600095Y-94210380D01*
X120623904Y-94186571D01*
X120623904Y-94019904D01*
X120528666Y-94019904D01*
X120838190Y-94234190D02*
X120838190Y-93734190D01*
X120838190Y-93972285D02*
X121123904Y-93972285D01*
X121123904Y-94234190D02*
X121123904Y-93734190D01*
X121290571Y-93734190D02*
X121576285Y-93734190D01*
X121433428Y-94234190D02*
X121433428Y-93734190D01*
X118100095Y-96774190D02*
X118100095Y-96274190D01*
X118100095Y-96512285D02*
X118385809Y-96512285D01*
X118385809Y-96774190D02*
X118385809Y-96274190D01*
X118600095Y-96321809D02*
X118623904Y-96298000D01*
X118671523Y-96274190D01*
X118790571Y-96274190D01*
X118838190Y-96298000D01*
X118862000Y-96321809D01*
X118885809Y-96369428D01*
X118885809Y-96417047D01*
X118862000Y-96488476D01*
X118576285Y-96774190D01*
X118885809Y-96774190D01*
X119457238Y-96750380D02*
X119528666Y-96774190D01*
X119647714Y-96774190D01*
X119695333Y-96750380D01*
X119719142Y-96726571D01*
X119742952Y-96678952D01*
X119742952Y-96631333D01*
X119719142Y-96583714D01*
X119695333Y-96559904D01*
X119647714Y-96536095D01*
X119552476Y-96512285D01*
X119504857Y-96488476D01*
X119481047Y-96464666D01*
X119457238Y-96417047D01*
X119457238Y-96369428D01*
X119481047Y-96321809D01*
X119504857Y-96298000D01*
X119552476Y-96274190D01*
X119671523Y-96274190D01*
X119742952Y-96298000D01*
X119957238Y-96512285D02*
X120123904Y-96512285D01*
X120195333Y-96774190D02*
X119957238Y-96774190D01*
X119957238Y-96274190D01*
X120195333Y-96274190D01*
X120409619Y-96774190D02*
X120409619Y-96274190D01*
X120695333Y-96774190D01*
X120695333Y-96274190D01*
X120909619Y-96750380D02*
X120981047Y-96774190D01*
X121100095Y-96774190D01*
X121147714Y-96750380D01*
X121171523Y-96726571D01*
X121195333Y-96678952D01*
X121195333Y-96631333D01*
X121171523Y-96583714D01*
X121147714Y-96559904D01*
X121100095Y-96536095D01*
X121004857Y-96512285D01*
X120957238Y-96488476D01*
X120933428Y-96464666D01*
X120909619Y-96417047D01*
X120909619Y-96369428D01*
X120933428Y-96321809D01*
X120957238Y-96298000D01*
X121004857Y-96274190D01*
X121123904Y-96274190D01*
X121195333Y-96298000D01*
X121409619Y-96512285D02*
X121576285Y-96512285D01*
X121647714Y-96774190D02*
X121409619Y-96774190D01*
X121409619Y-96274190D01*
X121647714Y-96274190D01*
X118219142Y-99314190D02*
X118219142Y-98814190D01*
X118219142Y-99052285D02*
X118504857Y-99052285D01*
X118504857Y-99314190D02*
X118504857Y-98814190D01*
X119004857Y-99314190D02*
X118719142Y-99314190D01*
X118862000Y-99314190D02*
X118862000Y-98814190D01*
X118814380Y-98885619D01*
X118766761Y-98933238D01*
X118719142Y-98957047D01*
X119885809Y-99314190D02*
X119719142Y-99076095D01*
X119600095Y-99314190D02*
X119600095Y-98814190D01*
X119790571Y-98814190D01*
X119838190Y-98838000D01*
X119862000Y-98861809D01*
X119885809Y-98909428D01*
X119885809Y-98980857D01*
X119862000Y-99028476D01*
X119838190Y-99052285D01*
X119790571Y-99076095D01*
X119600095Y-99076095D01*
X120100095Y-99314190D02*
X120100095Y-98814190D01*
X120600095Y-98838000D02*
X120552476Y-98814190D01*
X120481047Y-98814190D01*
X120409619Y-98838000D01*
X120362000Y-98885619D01*
X120338190Y-98933238D01*
X120314380Y-99028476D01*
X120314380Y-99099904D01*
X120338190Y-99195142D01*
X120362000Y-99242761D01*
X120409619Y-99290380D01*
X120481047Y-99314190D01*
X120528666Y-99314190D01*
X120600095Y-99290380D01*
X120623904Y-99266571D01*
X120623904Y-99099904D01*
X120528666Y-99099904D01*
X120838190Y-99314190D02*
X120838190Y-98814190D01*
X120838190Y-99052285D02*
X121123904Y-99052285D01*
X121123904Y-99314190D02*
X121123904Y-98814190D01*
X121290571Y-98814190D02*
X121576285Y-98814190D01*
X121433428Y-99314190D02*
X121433428Y-98814190D01*
X128617238Y-99314190D02*
X128617238Y-98814190D01*
X128617238Y-99052285D02*
X128902952Y-99052285D01*
X128902952Y-99314190D02*
X128902952Y-98814190D01*
X129402952Y-99314190D02*
X129117238Y-99314190D01*
X129260095Y-99314190D02*
X129260095Y-98814190D01*
X129212476Y-98885619D01*
X129164857Y-98933238D01*
X129117238Y-98957047D01*
X130236285Y-99314190D02*
X129998190Y-99314190D01*
X129998190Y-98814190D01*
X130402952Y-99052285D02*
X130569619Y-99052285D01*
X130641047Y-99314190D02*
X130402952Y-99314190D01*
X130402952Y-98814190D01*
X130641047Y-98814190D01*
X131022000Y-99052285D02*
X130855333Y-99052285D01*
X130855333Y-99314190D02*
X130855333Y-98814190D01*
X131093428Y-98814190D01*
X131212476Y-98814190D02*
X131498190Y-98814190D01*
X131355333Y-99314190D02*
X131355333Y-98814190D01*
D12*
X112242000Y-114328000D02*
X105892000Y-114328000D01*
X117322000Y-114328000D02*
X112242000Y-114328000D01*
X112242000Y-114328000D02*
X112242000Y-116868000D01*
X117322000Y-114328000D02*
X137642000Y-114328000D01*
X137642000Y-114328000D02*
X156692000Y-114328000D01*
X146532000Y-114328000D02*
X146532000Y-116868000D01*
X156692000Y-114328000D02*
X156692000Y-116868000D01*
X137642000Y-114328000D02*
X137642000Y-116868000D01*
X132562000Y-114328000D02*
X132562000Y-116868000D01*
X127482000Y-114328000D02*
X127482000Y-116868000D01*
X122402000Y-114328000D02*
X122402000Y-116868000D01*
X117322000Y-114328000D02*
X117322000Y-116868000D01*
D13*
X107932476Y-112605619D02*
X107980095Y-112558000D01*
X108075333Y-112510380D01*
X108313428Y-112510380D01*
X108408666Y-112558000D01*
X108456285Y-112605619D01*
X108503904Y-112700857D01*
X108503904Y-112796095D01*
X108456285Y-112938952D01*
X107884857Y-113510380D01*
X108503904Y-113510380D01*
X109361047Y-112843714D02*
X109361047Y-113510380D01*
X109122952Y-112462761D02*
X108884857Y-113177047D01*
X109503904Y-113177047D01*
X110503904Y-112510380D02*
X110837238Y-113510380D01*
X111170571Y-112510380D01*
X111456285Y-113224666D02*
X111932476Y-113224666D01*
X111361047Y-113510380D02*
X111694380Y-112510380D01*
X112027714Y-113510380D01*
X112932476Y-113415142D02*
X112884857Y-113462761D01*
X112742000Y-113510380D01*
X112646761Y-113510380D01*
X112503904Y-113462761D01*
X112408666Y-113367523D01*
X112361047Y-113272285D01*
X112313428Y-113081809D01*
X112313428Y-112938952D01*
X112361047Y-112748476D01*
X112408666Y-112653238D01*
X112503904Y-112558000D01*
X112646761Y-112510380D01*
X112742000Y-112510380D01*
X112884857Y-112558000D01*
X112932476Y-112605619D01*
X114313428Y-112510380D02*
X114503904Y-112510380D01*
X114599142Y-112558000D01*
X114694380Y-112653238D01*
X114742000Y-112843714D01*
X114742000Y-113177047D01*
X114694380Y-113367523D01*
X114599142Y-113462761D01*
X114503904Y-113510380D01*
X114313428Y-113510380D01*
X114218190Y-113462761D01*
X114122952Y-113367523D01*
X114075333Y-113177047D01*
X114075333Y-112843714D01*
X114122952Y-112653238D01*
X114218190Y-112558000D01*
X114313428Y-112510380D01*
X115170571Y-112510380D02*
X115170571Y-113319904D01*
X115218190Y-113415142D01*
X115265809Y-113462761D01*
X115361047Y-113510380D01*
X115551523Y-113510380D01*
X115646761Y-113462761D01*
X115694380Y-113415142D01*
X115742000Y-113319904D01*
X115742000Y-112510380D01*
X116075333Y-112510380D02*
X116646761Y-112510380D01*
X116361047Y-113510380D02*
X116361047Y-112510380D01*
D10*
X159742380Y-115759047D02*
X158742380Y-115759047D01*
X159456666Y-115425714D01*
X158742380Y-115092380D01*
X159742380Y-115092380D01*
X159742380Y-114616190D02*
X158742380Y-114616190D01*
X159647142Y-113568571D02*
X159694761Y-113616190D01*
X159742380Y-113759047D01*
X159742380Y-113854285D01*
X159694761Y-113997142D01*
X159599523Y-114092380D01*
X159504285Y-114140000D01*
X159313809Y-114187619D01*
X159170952Y-114187619D01*
X158980476Y-114140000D01*
X158885238Y-114092380D01*
X158790000Y-113997142D01*
X158742380Y-113854285D01*
X158742380Y-113759047D01*
X158790000Y-113616190D01*
X158837619Y-113568571D01*
X159742380Y-112568571D02*
X159266190Y-112901904D01*
X159742380Y-113140000D02*
X158742380Y-113140000D01*
X158742380Y-112759047D01*
X158790000Y-112663809D01*
X158837619Y-112616190D01*
X158932857Y-112568571D01*
X159075714Y-112568571D01*
X159170952Y-112616190D01*
X159218571Y-112663809D01*
X159266190Y-112759047D01*
X159266190Y-113140000D01*
X158742380Y-111949523D02*
X158742380Y-111759047D01*
X158790000Y-111663809D01*
X158885238Y-111568571D01*
X159075714Y-111520952D01*
X159409047Y-111520952D01*
X159599523Y-111568571D01*
X159694761Y-111663809D01*
X159742380Y-111759047D01*
X159742380Y-111949523D01*
X159694761Y-112044761D01*
X159599523Y-112140000D01*
X159409047Y-112187619D01*
X159075714Y-112187619D01*
X158885238Y-112140000D01*
X158790000Y-112044761D01*
X158742380Y-111949523D01*
X159742380Y-111092380D02*
X158742380Y-111092380D01*
X158742380Y-110711428D01*
X158790000Y-110616190D01*
X158837619Y-110568571D01*
X158932857Y-110520952D01*
X159075714Y-110520952D01*
X159170952Y-110568571D01*
X159218571Y-110616190D01*
X159266190Y-110711428D01*
X159266190Y-111092380D01*
X159742380Y-110092380D02*
X158742380Y-110092380D01*
X159218571Y-110092380D02*
X159218571Y-109520952D01*
X159742380Y-109520952D02*
X158742380Y-109520952D01*
X158742380Y-108854285D02*
X158742380Y-108663809D01*
X158790000Y-108568571D01*
X158885238Y-108473333D01*
X159075714Y-108425714D01*
X159409047Y-108425714D01*
X159599523Y-108473333D01*
X159694761Y-108568571D01*
X159742380Y-108663809D01*
X159742380Y-108854285D01*
X159694761Y-108949523D01*
X159599523Y-109044761D01*
X159409047Y-109092380D01*
X159075714Y-109092380D01*
X158885238Y-109044761D01*
X158790000Y-108949523D01*
X158742380Y-108854285D01*
X159742380Y-107997142D02*
X158742380Y-107997142D01*
X159742380Y-107425714D01*
X158742380Y-107425714D01*
X159218571Y-106949523D02*
X159218571Y-106616190D01*
X159742380Y-106473333D02*
X159742380Y-106949523D01*
X158742380Y-106949523D01*
X158742380Y-106473333D01*
X141666761Y-113462761D02*
X141809619Y-113510380D01*
X142047714Y-113510380D01*
X142142952Y-113462761D01*
X142190571Y-113415142D01*
X142238190Y-113319904D01*
X142238190Y-113224666D01*
X142190571Y-113129428D01*
X142142952Y-113081809D01*
X142047714Y-113034190D01*
X141857238Y-112986571D01*
X141762000Y-112938952D01*
X141714380Y-112891333D01*
X141666761Y-112796095D01*
X141666761Y-112700857D01*
X141714380Y-112605619D01*
X141762000Y-112558000D01*
X141857238Y-112510380D01*
X142095333Y-112510380D01*
X142238190Y-112558000D01*
X142666761Y-113510380D02*
X142666761Y-112510380D01*
X143047714Y-112510380D01*
X143142952Y-112558000D01*
X143190571Y-112605619D01*
X143238190Y-112700857D01*
X143238190Y-112843714D01*
X143190571Y-112938952D01*
X143142952Y-112986571D01*
X143047714Y-113034190D01*
X142666761Y-113034190D01*
X143666761Y-112986571D02*
X144000095Y-112986571D01*
X144142952Y-113510380D02*
X143666761Y-113510380D01*
X143666761Y-112510380D01*
X144142952Y-112510380D01*
X144523904Y-113224666D02*
X145000095Y-113224666D01*
X144428666Y-113510380D02*
X144762000Y-112510380D01*
X145095333Y-113510380D01*
X145428666Y-113510380D02*
X145428666Y-112510380D01*
X146000095Y-113510380D02*
X145571523Y-112938952D01*
X146000095Y-112510380D02*
X145428666Y-113081809D01*
X146428666Y-112986571D02*
X146762000Y-112986571D01*
X146904857Y-113510380D02*
X146428666Y-113510380D01*
X146428666Y-112510380D01*
X146904857Y-112510380D01*
X147904857Y-113510380D02*
X147571523Y-113034190D01*
X147333428Y-113510380D02*
X147333428Y-112510380D01*
X147714380Y-112510380D01*
X147809619Y-112558000D01*
X147857238Y-112605619D01*
X147904857Y-112700857D01*
X147904857Y-112843714D01*
X147857238Y-112938952D01*
X147809619Y-112986571D01*
X147714380Y-113034190D01*
X147333428Y-113034190D01*
X148285809Y-113462761D02*
X148428666Y-113510380D01*
X148666761Y-113510380D01*
X148762000Y-113462761D01*
X148809619Y-113415142D01*
X148857238Y-113319904D01*
X148857238Y-113224666D01*
X148809619Y-113129428D01*
X148762000Y-113081809D01*
X148666761Y-113034190D01*
X148476285Y-112986571D01*
X148381047Y-112938952D01*
X148333428Y-112891333D01*
X148285809Y-112796095D01*
X148285809Y-112700857D01*
X148333428Y-112605619D01*
X148381047Y-112558000D01*
X148476285Y-112510380D01*
X148714380Y-112510380D01*
X148857238Y-112558000D01*
X143206285Y-115669428D02*
X143968190Y-115669428D01*
X143587238Y-116050380D02*
X143587238Y-115288476D01*
X144920571Y-116050380D02*
X144444380Y-116050380D01*
X144444380Y-115050380D01*
X138126285Y-115669428D02*
X138888190Y-115669428D01*
X139840571Y-116050380D02*
X139364380Y-116050380D01*
X139364380Y-115050380D01*
X148191047Y-115669428D02*
X148952952Y-115669428D01*
X150000571Y-116050380D02*
X149667238Y-115574190D01*
X149429142Y-116050380D02*
X149429142Y-115050380D01*
X149810095Y-115050380D01*
X149905333Y-115098000D01*
X149952952Y-115145619D01*
X150000571Y-115240857D01*
X150000571Y-115383714D01*
X149952952Y-115478952D01*
X149905333Y-115526571D01*
X149810095Y-115574190D01*
X149429142Y-115574190D01*
X153271047Y-115669428D02*
X154032952Y-115669428D01*
X153652000Y-116050380D02*
X153652000Y-115288476D01*
X155080571Y-116050380D02*
X154747238Y-115574190D01*
X154509142Y-116050380D02*
X154509142Y-115050380D01*
X154890095Y-115050380D01*
X154985333Y-115098000D01*
X155032952Y-115145619D01*
X155080571Y-115240857D01*
X155080571Y-115383714D01*
X155032952Y-115478952D01*
X154985333Y-115526571D01*
X154890095Y-115574190D01*
X154509142Y-115574190D01*
X134340095Y-115098000D02*
X134244857Y-115050380D01*
X134102000Y-115050380D01*
X133959142Y-115098000D01*
X133863904Y-115193238D01*
X133816285Y-115288476D01*
X133768666Y-115478952D01*
X133768666Y-115621809D01*
X133816285Y-115812285D01*
X133863904Y-115907523D01*
X133959142Y-116002761D01*
X134102000Y-116050380D01*
X134197238Y-116050380D01*
X134340095Y-116002761D01*
X134387714Y-115955142D01*
X134387714Y-115621809D01*
X134197238Y-115621809D01*
X134816285Y-116050380D02*
X134816285Y-115050380D01*
X135387714Y-116050380D01*
X135387714Y-115050380D01*
X135863904Y-116050380D02*
X135863904Y-115050380D01*
X136102000Y-115050380D01*
X136244857Y-115098000D01*
X136340095Y-115193238D01*
X136387714Y-115288476D01*
X136435333Y-115478952D01*
X136435333Y-115621809D01*
X136387714Y-115812285D01*
X136340095Y-115907523D01*
X136244857Y-116002761D01*
X136102000Y-116050380D01*
X135863904Y-116050380D01*
X128325571Y-115085500D02*
X128682714Y-115085500D01*
X128254142Y-115299785D02*
X128504142Y-114549785D01*
X128754142Y-115299785D01*
X129004142Y-115299785D02*
X129004142Y-114549785D01*
X129254142Y-115085500D01*
X129504142Y-114549785D01*
X129504142Y-115299785D01*
X130111285Y-114906928D02*
X130218428Y-114942642D01*
X130254142Y-114978357D01*
X130289857Y-115049785D01*
X130289857Y-115156928D01*
X130254142Y-115228357D01*
X130218428Y-115264071D01*
X130147000Y-115299785D01*
X129861285Y-115299785D01*
X129861285Y-114549785D01*
X130111285Y-114549785D01*
X130182714Y-114585500D01*
X130218428Y-114621214D01*
X130254142Y-114692642D01*
X130254142Y-114764071D01*
X130218428Y-114835500D01*
X130182714Y-114871214D01*
X130111285Y-114906928D01*
X129861285Y-114906928D01*
X130611285Y-114906928D02*
X130861285Y-114906928D01*
X130968428Y-115299785D02*
X130611285Y-115299785D01*
X130611285Y-114549785D01*
X130968428Y-114549785D01*
X131718428Y-115299785D02*
X131468428Y-114942642D01*
X131289857Y-115299785D02*
X131289857Y-114549785D01*
X131575571Y-114549785D01*
X131647000Y-114585500D01*
X131682714Y-114621214D01*
X131718428Y-114692642D01*
X131718428Y-114799785D01*
X131682714Y-114871214D01*
X131647000Y-114906928D01*
X131575571Y-114942642D01*
X131289857Y-114942642D01*
X129539857Y-116574785D02*
X129182714Y-116574785D01*
X129182714Y-115824785D01*
X129789857Y-116181928D02*
X130039857Y-116181928D01*
X130147000Y-116574785D02*
X129789857Y-116574785D01*
X129789857Y-115824785D01*
X130147000Y-115824785D01*
X130468428Y-116574785D02*
X130468428Y-115824785D01*
X130647000Y-115824785D01*
X130754142Y-115860500D01*
X130825571Y-115931928D01*
X130861285Y-116003357D01*
X130897000Y-116146214D01*
X130897000Y-116253357D01*
X130861285Y-116396214D01*
X130825571Y-116467642D01*
X130754142Y-116539071D01*
X130647000Y-116574785D01*
X130468428Y-116574785D01*
X123209857Y-115299785D02*
X123209857Y-114549785D01*
X123495571Y-114549785D01*
X123567000Y-114585500D01*
X123602714Y-114621214D01*
X123638428Y-114692642D01*
X123638428Y-114799785D01*
X123602714Y-114871214D01*
X123567000Y-114906928D01*
X123495571Y-114942642D01*
X123209857Y-114942642D01*
X124102714Y-114549785D02*
X124245571Y-114549785D01*
X124317000Y-114585500D01*
X124388428Y-114656928D01*
X124424142Y-114799785D01*
X124424142Y-115049785D01*
X124388428Y-115192642D01*
X124317000Y-115264071D01*
X124245571Y-115299785D01*
X124102714Y-115299785D01*
X124031285Y-115264071D01*
X123959857Y-115192642D01*
X123924142Y-115049785D01*
X123924142Y-114799785D01*
X123959857Y-114656928D01*
X124031285Y-114585500D01*
X124102714Y-114549785D01*
X124674142Y-114549785D02*
X124852714Y-115299785D01*
X124995571Y-114764071D01*
X125138428Y-115299785D01*
X125317000Y-114549785D01*
X125602714Y-114906928D02*
X125852714Y-114906928D01*
X125959857Y-115299785D02*
X125602714Y-115299785D01*
X125602714Y-114549785D01*
X125959857Y-114549785D01*
X126709857Y-115299785D02*
X126459857Y-114942642D01*
X126281285Y-115299785D02*
X126281285Y-114549785D01*
X126567000Y-114549785D01*
X126638428Y-114585500D01*
X126674142Y-114621214D01*
X126709857Y-114692642D01*
X126709857Y-114799785D01*
X126674142Y-114871214D01*
X126638428Y-114906928D01*
X126567000Y-114942642D01*
X126281285Y-114942642D01*
X123245571Y-116181928D02*
X123352714Y-116217642D01*
X123388428Y-116253357D01*
X123424142Y-116324785D01*
X123424142Y-116431928D01*
X123388428Y-116503357D01*
X123352714Y-116539071D01*
X123281285Y-116574785D01*
X122995571Y-116574785D01*
X122995571Y-115824785D01*
X123245571Y-115824785D01*
X123317000Y-115860500D01*
X123352714Y-115896214D01*
X123388428Y-115967642D01*
X123388428Y-116039071D01*
X123352714Y-116110500D01*
X123317000Y-116146214D01*
X123245571Y-116181928D01*
X122995571Y-116181928D01*
X123745571Y-115824785D02*
X123745571Y-116431928D01*
X123781285Y-116503357D01*
X123817000Y-116539071D01*
X123888428Y-116574785D01*
X124031285Y-116574785D01*
X124102714Y-116539071D01*
X124138428Y-116503357D01*
X124174142Y-116431928D01*
X124174142Y-115824785D01*
X124424142Y-115824785D02*
X124852714Y-115824785D01*
X124638428Y-116574785D02*
X124638428Y-115824785D01*
X124995571Y-115824785D02*
X125424142Y-115824785D01*
X125209857Y-116574785D02*
X125209857Y-115824785D01*
X125817000Y-115824785D02*
X125959857Y-115824785D01*
X126031285Y-115860500D01*
X126102714Y-115931928D01*
X126138428Y-116074785D01*
X126138428Y-116324785D01*
X126102714Y-116467642D01*
X126031285Y-116539071D01*
X125959857Y-116574785D01*
X125817000Y-116574785D01*
X125745571Y-116539071D01*
X125674142Y-116467642D01*
X125638428Y-116324785D01*
X125638428Y-116074785D01*
X125674142Y-115931928D01*
X125745571Y-115860500D01*
X125817000Y-115824785D01*
X126459857Y-116574785D02*
X126459857Y-115824785D01*
X126888428Y-116574785D01*
X126888428Y-115824785D01*
X118612000Y-114585500D02*
X118540571Y-114549785D01*
X118433428Y-114549785D01*
X118326285Y-114585500D01*
X118254857Y-114656928D01*
X118219142Y-114728357D01*
X118183428Y-114871214D01*
X118183428Y-114978357D01*
X118219142Y-115121214D01*
X118254857Y-115192642D01*
X118326285Y-115264071D01*
X118433428Y-115299785D01*
X118504857Y-115299785D01*
X118612000Y-115264071D01*
X118647714Y-115228357D01*
X118647714Y-114978357D01*
X118504857Y-114978357D01*
X119397714Y-115299785D02*
X119147714Y-114942642D01*
X118969142Y-115299785D02*
X118969142Y-114549785D01*
X119254857Y-114549785D01*
X119326285Y-114585500D01*
X119362000Y-114621214D01*
X119397714Y-114692642D01*
X119397714Y-114799785D01*
X119362000Y-114871214D01*
X119326285Y-114906928D01*
X119254857Y-114942642D01*
X118969142Y-114942642D01*
X119719142Y-114906928D02*
X119969142Y-114906928D01*
X120076285Y-115299785D02*
X119719142Y-115299785D01*
X119719142Y-114549785D01*
X120076285Y-114549785D01*
X120397714Y-114906928D02*
X120647714Y-114906928D01*
X120754857Y-115299785D02*
X120397714Y-115299785D01*
X120397714Y-114549785D01*
X120754857Y-114549785D01*
X121076285Y-115299785D02*
X121076285Y-114549785D01*
X121504857Y-115299785D01*
X121504857Y-114549785D01*
X119379857Y-116574785D02*
X119022714Y-116574785D01*
X119022714Y-115824785D01*
X119629857Y-116181928D02*
X119879857Y-116181928D01*
X119987000Y-116574785D02*
X119629857Y-116574785D01*
X119629857Y-115824785D01*
X119987000Y-115824785D01*
X120308428Y-116574785D02*
X120308428Y-115824785D01*
X120487000Y-115824785D01*
X120594142Y-115860500D01*
X120665571Y-115931928D01*
X120701285Y-116003357D01*
X120737000Y-116146214D01*
X120737000Y-116253357D01*
X120701285Y-116396214D01*
X120665571Y-116467642D01*
X120594142Y-116539071D01*
X120487000Y-116574785D01*
X120308428Y-116574785D01*
X107122476Y-115669428D02*
X107884380Y-115669428D01*
X107503428Y-116050380D02*
X107503428Y-115288476D01*
X108312952Y-115764666D02*
X108789142Y-115764666D01*
X108217714Y-116050380D02*
X108551047Y-115050380D01*
X108884380Y-116050380D01*
X109789142Y-115955142D02*
X109741523Y-116002761D01*
X109598666Y-116050380D01*
X109503428Y-116050380D01*
X109360571Y-116002761D01*
X109265333Y-115907523D01*
X109217714Y-115812285D01*
X109170095Y-115621809D01*
X109170095Y-115478952D01*
X109217714Y-115288476D01*
X109265333Y-115193238D01*
X109360571Y-115098000D01*
X109503428Y-115050380D01*
X109598666Y-115050380D01*
X109741523Y-115098000D01*
X109789142Y-115145619D01*
X113472476Y-115669428D02*
X114234380Y-115669428D01*
X114662952Y-115764666D02*
X115139142Y-115764666D01*
X114567714Y-116050380D02*
X114901047Y-115050380D01*
X115234380Y-116050380D01*
X116139142Y-115955142D02*
X116091523Y-116002761D01*
X115948666Y-116050380D01*
X115853428Y-116050380D01*
X115710571Y-116002761D01*
X115615333Y-115907523D01*
X115567714Y-115812285D01*
X115520095Y-115621809D01*
X115520095Y-115478952D01*
X115567714Y-115288476D01*
X115615333Y-115193238D01*
X115710571Y-115098000D01*
X115853428Y-115050380D01*
X115948666Y-115050380D01*
X116091523Y-115098000D01*
X116139142Y-115145619D01*
D12*
X167802000Y-115838000D02*
X161562000Y-115838000D01*
X161562000Y-115838000D02*
X161562000Y-111838000D01*
X161562000Y-111838000D02*
X161262000Y-111838000D01*
X161262000Y-111838000D02*
X161262000Y-97598000D01*
X161262000Y-97598000D02*
X169702000Y-97598000D01*
X169702000Y-97598000D02*
X169702000Y-111838000D01*
X169702000Y-111838000D02*
X167802000Y-111838000D01*
X167802000Y-111838000D02*
X167802000Y-115838000D01*
X143452000Y-99188000D02*
X143452000Y-98858000D01*
X136912000Y-99188000D02*
X143452000Y-99188000D01*
X136912000Y-98858000D02*
X136912000Y-99188000D01*
X143452000Y-96448000D02*
X143452000Y-96778000D01*
X136912000Y-96448000D02*
X143452000Y-96448000D01*
X136912000Y-96778000D02*
X136912000Y-96448000D01*
X149612000Y-96778000D02*
X149612000Y-96448000D01*
X149612000Y-96448000D02*
X156152000Y-96448000D01*
X156152000Y-96448000D02*
X156152000Y-96778000D01*
X149612000Y-98858000D02*
X149612000Y-99188000D01*
X149612000Y-99188000D02*
X156152000Y-99188000D01*
X156152000Y-99188000D02*
X156152000Y-98858000D01*
X111882000Y-106708000D02*
G75*
G03X111882000Y-106708000I-2180000J0D01*
G01*
X116882000Y-106708000D02*
G75*
G03X116882000Y-106708000I-2180000J0D01*
G01*
X121882000Y-106708000D02*
G75*
G03X121882000Y-106708000I-2180000J0D01*
G01*
X126882000Y-106708000D02*
G75*
G03X126882000Y-106708000I-2180000J0D01*
G01*
X131882000Y-106708000D02*
G75*
G03X131882000Y-106708000I-2180000J0D01*
G01*
X136882000Y-106708000D02*
G75*
G03X136882000Y-106708000I-2180000J0D01*
G01*
X141882000Y-106708000D02*
G75*
G03X141882000Y-106708000I-2180000J0D01*
G01*
X146882000Y-106708000D02*
G75*
G03X146882000Y-106708000I-2180000J0D01*
G01*
X151882000Y-106708000D02*
G75*
G03X151882000Y-106708000I-2180000J0D01*
G01*
X156882000Y-106708000D02*
G75*
G03X156882000Y-106708000I-2180000J0D01*
G01*
X107142000Y-111308000D02*
X157262000Y-111308000D01*
X107142000Y-110208000D02*
X157262000Y-110208000D01*
X107142000Y-102648000D02*
X157262000Y-102648000D01*
X107142000Y-111768000D02*
X157262000Y-111768000D01*
X107142000Y-102648000D02*
X107142000Y-111768000D01*
X157262000Y-102648000D02*
X157262000Y-111768000D01*
X111356000Y-105320000D02*
X111249000Y-105427000D01*
X108420000Y-108255000D02*
X108314000Y-108362000D01*
X111090000Y-105054000D02*
X110983000Y-105161000D01*
X108154000Y-107989000D02*
X108048000Y-108096000D01*
X116356000Y-105320000D02*
X115961000Y-105716000D01*
X113695000Y-107982000D02*
X113315000Y-108362000D01*
X116090000Y-105054000D02*
X115710000Y-105434000D01*
X113444000Y-107700000D02*
X113049000Y-108096000D01*
X121356000Y-105320000D02*
X120961000Y-105716000D01*
X118695000Y-107982000D02*
X118315000Y-108362000D01*
X121090000Y-105054000D02*
X120710000Y-105434000D01*
X118444000Y-107700000D02*
X118049000Y-108096000D01*
X126356000Y-105320000D02*
X125961000Y-105716000D01*
X123695000Y-107982000D02*
X123315000Y-108362000D01*
X126090000Y-105054000D02*
X125710000Y-105434000D01*
X123444000Y-107700000D02*
X123049000Y-108096000D01*
X131356000Y-105320000D02*
X130961000Y-105716000D01*
X128695000Y-107982000D02*
X128315000Y-108362000D01*
X131090000Y-105054000D02*
X130710000Y-105434000D01*
X128444000Y-107700000D02*
X128049000Y-108096000D01*
X136356000Y-105320000D02*
X135961000Y-105716000D01*
X133695000Y-107982000D02*
X133315000Y-108362000D01*
X136090000Y-105054000D02*
X135710000Y-105434000D01*
X133444000Y-107700000D02*
X133049000Y-108096000D01*
X141356000Y-105320000D02*
X140961000Y-105716000D01*
X138695000Y-107982000D02*
X138315000Y-108362000D01*
X141090000Y-105054000D02*
X140710000Y-105434000D01*
X138444000Y-107700000D02*
X138049000Y-108096000D01*
X146356000Y-105320000D02*
X145961000Y-105716000D01*
X143695000Y-107982000D02*
X143315000Y-108362000D01*
X146090000Y-105054000D02*
X145710000Y-105434000D01*
X143444000Y-107700000D02*
X143049000Y-108096000D01*
X151356000Y-105320000D02*
X150961000Y-105716000D01*
X148695000Y-107982000D02*
X148315000Y-108362000D01*
X151090000Y-105054000D02*
X150710000Y-105434000D01*
X148444000Y-107700000D02*
X148049000Y-108096000D01*
X156356000Y-105320000D02*
X155961000Y-105716000D01*
X153695000Y-107982000D02*
X153315000Y-108362000D01*
X156090000Y-105054000D02*
X155710000Y-105434000D01*
X153444000Y-107700000D02*
X153049000Y-108096000D01*
X106902000Y-111368000D02*
X106902000Y-112008000D01*
X106902000Y-112008000D02*
X107302000Y-112008000D01*
X122342000Y-100418000D02*
X127542000Y-100418000D01*
X122342000Y-95278000D02*
X122342000Y-100418000D01*
X127542000Y-92678000D02*
X127542000Y-100418000D01*
X122342000Y-95278000D02*
X124942000Y-95278000D01*
X124942000Y-95278000D02*
X124942000Y-92678000D01*
X124942000Y-92678000D02*
X127542000Y-92678000D01*
X122342000Y-94008000D02*
X122342000Y-92678000D01*
X122342000Y-92678000D02*
X123672000Y-92678000D01*
X169910000Y-89390000D02*
G75*
G03X169910000Y-89390000I-2120000J0D01*
G01*
X168630000Y-89390000D02*
X169870000Y-89390000D01*
X165710000Y-89390000D02*
X166950000Y-89390000D01*
X168630000Y-89350000D02*
X169870000Y-89350000D01*
X165710000Y-89350000D02*
X166950000Y-89350000D01*
X168630000Y-89310000D02*
X169869000Y-89310000D01*
X165711000Y-89310000D02*
X166950000Y-89310000D01*
X165713000Y-89270000D02*
X166950000Y-89270000D01*
X168630000Y-89270000D02*
X169867000Y-89270000D01*
X165716000Y-89230000D02*
X166950000Y-89230000D01*
X168630000Y-89230000D02*
X169864000Y-89230000D01*
X165719000Y-89190000D02*
X166950000Y-89190000D01*
X168630000Y-89190000D02*
X169861000Y-89190000D01*
X165723000Y-89150000D02*
X166950000Y-89150000D01*
X168630000Y-89150000D02*
X169857000Y-89150000D01*
X165728000Y-89110000D02*
X166950000Y-89110000D01*
X168630000Y-89110000D02*
X169852000Y-89110000D01*
X165734000Y-89070000D02*
X166950000Y-89070000D01*
X168630000Y-89070000D02*
X169846000Y-89070000D01*
X165740000Y-89030000D02*
X166950000Y-89030000D01*
X168630000Y-89030000D02*
X169840000Y-89030000D01*
X165748000Y-88990000D02*
X166950000Y-88990000D01*
X168630000Y-88990000D02*
X169832000Y-88990000D01*
X165756000Y-88950000D02*
X166950000Y-88950000D01*
X168630000Y-88950000D02*
X169824000Y-88950000D01*
X165765000Y-88910000D02*
X166950000Y-88910000D01*
X168630000Y-88910000D02*
X169815000Y-88910000D01*
X165774000Y-88870000D02*
X166950000Y-88870000D01*
X168630000Y-88870000D02*
X169806000Y-88870000D01*
X165785000Y-88830000D02*
X166950000Y-88830000D01*
X168630000Y-88830000D02*
X169795000Y-88830000D01*
X165796000Y-88790000D02*
X166950000Y-88790000D01*
X168630000Y-88790000D02*
X169784000Y-88790000D01*
X165808000Y-88750000D02*
X166950000Y-88750000D01*
X168630000Y-88750000D02*
X169772000Y-88750000D01*
X165822000Y-88710000D02*
X166950000Y-88710000D01*
X168630000Y-88710000D02*
X169758000Y-88710000D01*
X165836000Y-88669000D02*
X166950000Y-88669000D01*
X168630000Y-88669000D02*
X169744000Y-88669000D01*
X165850000Y-88629000D02*
X166950000Y-88629000D01*
X168630000Y-88629000D02*
X169730000Y-88629000D01*
X165866000Y-88589000D02*
X166950000Y-88589000D01*
X168630000Y-88589000D02*
X169714000Y-88589000D01*
X165883000Y-88549000D02*
X166950000Y-88549000D01*
X168630000Y-88549000D02*
X169697000Y-88549000D01*
X165901000Y-88509000D02*
X166950000Y-88509000D01*
X168630000Y-88509000D02*
X169679000Y-88509000D01*
X165920000Y-88469000D02*
X166950000Y-88469000D01*
X168630000Y-88469000D02*
X169660000Y-88469000D01*
X165939000Y-88429000D02*
X166950000Y-88429000D01*
X168630000Y-88429000D02*
X169641000Y-88429000D01*
X165960000Y-88389000D02*
X166950000Y-88389000D01*
X168630000Y-88389000D02*
X169620000Y-88389000D01*
X165982000Y-88349000D02*
X166950000Y-88349000D01*
X168630000Y-88349000D02*
X169598000Y-88349000D01*
X166005000Y-88309000D02*
X166950000Y-88309000D01*
X168630000Y-88309000D02*
X169575000Y-88309000D01*
X166030000Y-88269000D02*
X166950000Y-88269000D01*
X168630000Y-88269000D02*
X169550000Y-88269000D01*
X166055000Y-88229000D02*
X166950000Y-88229000D01*
X168630000Y-88229000D02*
X169525000Y-88229000D01*
X166082000Y-88189000D02*
X166950000Y-88189000D01*
X168630000Y-88189000D02*
X169498000Y-88189000D01*
X166110000Y-88149000D02*
X166950000Y-88149000D01*
X168630000Y-88149000D02*
X169470000Y-88149000D01*
X166140000Y-88109000D02*
X166950000Y-88109000D01*
X168630000Y-88109000D02*
X169440000Y-88109000D01*
X166171000Y-88069000D02*
X166950000Y-88069000D01*
X168630000Y-88069000D02*
X169409000Y-88069000D01*
X166203000Y-88029000D02*
X166950000Y-88029000D01*
X168630000Y-88029000D02*
X169377000Y-88029000D01*
X166238000Y-87989000D02*
X166950000Y-87989000D01*
X168630000Y-87989000D02*
X169342000Y-87989000D01*
X166274000Y-87949000D02*
X166950000Y-87949000D01*
X168630000Y-87949000D02*
X169306000Y-87949000D01*
X166312000Y-87909000D02*
X166950000Y-87909000D01*
X168630000Y-87909000D02*
X169268000Y-87909000D01*
X166352000Y-87869000D02*
X166950000Y-87869000D01*
X168630000Y-87869000D02*
X169228000Y-87869000D01*
X166394000Y-87829000D02*
X166950000Y-87829000D01*
X168630000Y-87829000D02*
X169186000Y-87829000D01*
X166439000Y-87789000D02*
X169141000Y-87789000D01*
X166486000Y-87749000D02*
X169094000Y-87749000D01*
X166536000Y-87709000D02*
X169044000Y-87709000D01*
X166590000Y-87669000D02*
X168990000Y-87669000D01*
X166648000Y-87629000D02*
X168932000Y-87629000D01*
X166710000Y-87589000D02*
X168870000Y-87589000D01*
X166777000Y-87549000D02*
X168803000Y-87549000D01*
X166850000Y-87509000D02*
X168730000Y-87509000D01*
X166931000Y-87469000D02*
X168649000Y-87469000D01*
X167022000Y-87429000D02*
X168558000Y-87429000D01*
X167126000Y-87389000D02*
X168454000Y-87389000D01*
X167253000Y-87349000D02*
X168327000Y-87349000D01*
X167420000Y-87309000D02*
X168160000Y-87309000D01*
X166595000Y-91659801D02*
X166595000Y-91259801D01*
X166395000Y-91459801D02*
X166795000Y-91459801D01*
X161830000Y-94600000D02*
X161830000Y-94270000D01*
X161830000Y-94270000D02*
X168370000Y-94270000D01*
X168370000Y-94270000D02*
X168370000Y-94600000D01*
X161830000Y-96680000D02*
X161830000Y-97010000D01*
X161830000Y-97010000D02*
X168370000Y-97010000D01*
X168370000Y-97010000D02*
X168370000Y-96680000D01*
D10*
X109410095Y-91990380D02*
X109410095Y-90990380D01*
X109410095Y-91466571D02*
X109981523Y-91466571D01*
X109981523Y-91990380D02*
X109981523Y-90990380D01*
X110981523Y-91990380D02*
X110410095Y-91990380D01*
X110695809Y-91990380D02*
X110695809Y-90990380D01*
X110600571Y-91133238D01*
X110505333Y-91228476D01*
X110410095Y-91276095D01*
X169742380Y-98151333D02*
X170456666Y-98151333D01*
X170599523Y-98198952D01*
X170694761Y-98294190D01*
X170742380Y-98437047D01*
X170742380Y-98532285D01*
X169742380Y-97770380D02*
X169742380Y-97151333D01*
X170123333Y-97484666D01*
X170123333Y-97341809D01*
X170170952Y-97246571D01*
X170218571Y-97198952D01*
X170313809Y-97151333D01*
X170551904Y-97151333D01*
X170647142Y-97198952D01*
X170694761Y-97246571D01*
X170742380Y-97341809D01*
X170742380Y-97627523D01*
X170694761Y-97722761D01*
X170647142Y-97770380D01*
X140015333Y-95900380D02*
X139682000Y-95424190D01*
X139443904Y-95900380D02*
X139443904Y-94900380D01*
X139824857Y-94900380D01*
X139920095Y-94948000D01*
X139967714Y-94995619D01*
X140015333Y-95090857D01*
X140015333Y-95233714D01*
X139967714Y-95328952D01*
X139920095Y-95376571D01*
X139824857Y-95424190D01*
X139443904Y-95424190D01*
X140967714Y-95900380D02*
X140396285Y-95900380D01*
X140682000Y-95900380D02*
X140682000Y-94900380D01*
X140586761Y-95043238D01*
X140491523Y-95138476D01*
X140396285Y-95186095D01*
X152715333Y-95900380D02*
X152382000Y-95424190D01*
X152143904Y-95900380D02*
X152143904Y-94900380D01*
X152524857Y-94900380D01*
X152620095Y-94948000D01*
X152667714Y-94995619D01*
X152715333Y-95090857D01*
X152715333Y-95233714D01*
X152667714Y-95328952D01*
X152620095Y-95376571D01*
X152524857Y-95424190D01*
X152143904Y-95424190D01*
X153096285Y-94995619D02*
X153143904Y-94948000D01*
X153239142Y-94900380D01*
X153477238Y-94900380D01*
X153572476Y-94948000D01*
X153620095Y-94995619D01*
X153667714Y-95090857D01*
X153667714Y-95186095D01*
X153620095Y-95328952D01*
X153048666Y-95900380D01*
X153667714Y-95900380D01*
X158706666Y-105092380D02*
X158706666Y-105806666D01*
X158659047Y-105949523D01*
X158563809Y-106044761D01*
X158420952Y-106092380D01*
X158325714Y-106092380D01*
X159135238Y-105187619D02*
X159182857Y-105140000D01*
X159278095Y-105092380D01*
X159516190Y-105092380D01*
X159611428Y-105140000D01*
X159659047Y-105187619D01*
X159706666Y-105282857D01*
X159706666Y-105378095D01*
X159659047Y-105520952D01*
X159087619Y-106092380D01*
X159706666Y-106092380D01*
X124608666Y-89650380D02*
X124608666Y-90364666D01*
X124561047Y-90507523D01*
X124465809Y-90602761D01*
X124322952Y-90650380D01*
X124227714Y-90650380D01*
X125513428Y-89983714D02*
X125513428Y-90650380D01*
X125275333Y-89602761D02*
X125037238Y-90317047D01*
X125656285Y-90317047D01*
X164897142Y-89556666D02*
X164944761Y-89604285D01*
X164992380Y-89747142D01*
X164992380Y-89842380D01*
X164944761Y-89985238D01*
X164849523Y-90080476D01*
X164754285Y-90128095D01*
X164563809Y-90175714D01*
X164420952Y-90175714D01*
X164230476Y-90128095D01*
X164135238Y-90080476D01*
X164040000Y-89985238D01*
X163992380Y-89842380D01*
X163992380Y-89747142D01*
X164040000Y-89604285D01*
X164087619Y-89556666D01*
X164992380Y-88604285D02*
X164992380Y-89175714D01*
X164992380Y-88890000D02*
X163992380Y-88890000D01*
X164135238Y-88985238D01*
X164230476Y-89080476D01*
X164278095Y-89175714D01*
X164123333Y-93842380D02*
X163790000Y-93366190D01*
X163551904Y-93842380D02*
X163551904Y-92842380D01*
X163932857Y-92842380D01*
X164028095Y-92890000D01*
X164075714Y-92937619D01*
X164123333Y-93032857D01*
X164123333Y-93175714D01*
X164075714Y-93270952D01*
X164028095Y-93318571D01*
X163932857Y-93366190D01*
X163551904Y-93366190D01*
X164456666Y-92842380D02*
X165075714Y-92842380D01*
X164742380Y-93223333D01*
X164885238Y-93223333D01*
X164980476Y-93270952D01*
X165028095Y-93318571D01*
X165075714Y-93413809D01*
X165075714Y-93651904D01*
X165028095Y-93747142D01*
X164980476Y-93794761D01*
X164885238Y-93842380D01*
X164599523Y-93842380D01*
X164504285Y-93794761D01*
X164456666Y-93747142D01*
M02*
